<?xml version="1.0" encoding="utf-8" standalone="no"?>
<!DOCTYPE svg PUBLIC "-//W3C//DTD SVG 1.1//EN"
  "http://www.w3.org/Graphics/SVG/1.1/DTD/svg11.dtd">
<svg xmlns:xlink="http://www.w3.org/1999/xlink" width="756pt" height="288pt" viewBox="0 0 756 288" xmlns="http://www.w3.org/2000/svg" version="1.1">
 <metadata>
  <rdf:RDF xmlns:dc="http://purl.org/dc/elements/1.1/" xmlns:cc="http://creativecommons.org/ns#" xmlns:rdf="http://www.w3.org/1999/02/22-rdf-syntax-ns#">
   <cc:Work>
    <dc:type rdf:resource="http://purl.org/dc/dcmitype/StillImage"/>
    <dc:date>2026-04-28T07:46:58.280379</dc:date>
    <dc:format>image/svg+xml</dc:format>
    <dc:creator>
     <cc:Agent>
      <dc:title>Matplotlib v3.10.8, https://matplotlib.org/</dc:title>
     </cc:Agent>
    </dc:creator>
   </cc:Work>
  </rdf:RDF>
 </metadata>
 <defs>
  <style type="text/css">*{stroke-linejoin: round; stroke-linecap: butt}</style>
 </defs>
 <g id="figure_1">
  <g id="patch_1">
   <path d="M 0 288
L 756 288
L 756 0
L 0 0
z
" style="fill: #ffffff"/>
  </g>
  <g id="axes_1">
   <g id="patch_2">
    <path d="M 45.392344 232.71
L 332.076172 232.71
L 332.076172 54.969531
L 45.392344 54.969531
z
" style="fill: #ffffff"/>
   </g>
   <g id="matplotlib.axis_1">
    <g id="xtick_1">
     <g id="line2d_1">
      <path d="M 58.423427 232.71
" style="fill: none; stroke: #000000; stroke-width: 1.5; stroke-linecap: square"/>
      <defs>
       <path id="mb0d69e4746" d="M 0 0
L 0 2.75
" style="stroke: #000000"/>
      </defs>
      <g>
       <use xlink:href="#mb0d69e4746" x="58.423427" y="232.71" style="stroke: #000000"/>
      </g>
     </g>
     <g id="text_1">
      <text style="font-size: 11px; font-family: 'IBM Plex Sans'; text-anchor: middle; fill: #4d4d4d" x="58.423427" y="245.8" transform="rotate(-0 58.423427 245.8)">1</text>
     </g>
    </g>
    <g id="xtick_2">
     <g id="line2d_2">
      <path d="M 112.719606 232.71
" style="fill: none; stroke: #000000; stroke-width: 1.5; stroke-linecap: square"/>
      <g>
       <use xlink:href="#mb0d69e4746" x="112.719606" y="232.71" style="stroke: #000000"/>
      </g>
     </g>
     <g id="text_2">
      <text style="font-size: 11px; font-family: 'IBM Plex Sans'; text-anchor: middle; fill: #4d4d4d" x="112.719606" y="245.8" transform="rotate(-0 112.719606 245.8)">6</text>
     </g>
    </g>
    <g id="xtick_3">
     <g id="line2d_3">
      <path d="M 177.875022 232.71
" style="fill: none; stroke: #000000; stroke-width: 1.5; stroke-linecap: square"/>
      <g>
       <use xlink:href="#mb0d69e4746" x="177.875022" y="232.71" style="stroke: #000000"/>
      </g>
     </g>
     <g id="text_3">
      <text style="font-size: 11px; font-family: 'IBM Plex Sans'; text-anchor: middle; fill: #4d4d4d" x="177.875022" y="245.8" transform="rotate(-0 177.875022 245.8)">12</text>
     </g>
    </g>
    <g id="xtick_4">
     <g id="line2d_4">
      <path d="M 243.030437 232.71
" style="fill: none; stroke: #000000; stroke-width: 1.5; stroke-linecap: square"/>
      <g>
       <use xlink:href="#mb0d69e4746" x="243.030437" y="232.71" style="stroke: #000000"/>
      </g>
     </g>
     <g id="text_4">
      <text style="font-size: 11px; font-family: 'IBM Plex Sans'; text-anchor: middle; fill: #4d4d4d" x="243.030437" y="245.8" transform="rotate(-0 243.030437 245.8)">18</text>
     </g>
    </g>
    <g id="xtick_5">
     <g id="line2d_5">
      <path d="M 308.185853 232.71
" style="fill: none; stroke: #000000; stroke-width: 1.5; stroke-linecap: square"/>
      <g>
       <use xlink:href="#mb0d69e4746" x="308.185853" y="232.71" style="stroke: #000000"/>
      </g>
     </g>
     <g id="text_5">
      <text style="font-size: 11px; font-family: 'IBM Plex Sans'; text-anchor: middle; fill: #4d4d4d" x="308.185853" y="245.8" transform="rotate(-0 308.185853 245.8)">24</text>
     </g>
    </g>
    <g id="xtick_6">
     <g id="line2d_6">
      <path d="M 85.571517 232.71
" style="fill: none; stroke: #000000; stroke-width: 1.5; stroke-linecap: square"/>
      <defs>
       <path id="mcf26765339" d="M 0 0
L 0 1.375
" style="stroke: #000000"/>
      </defs>
      <g>
       <use xlink:href="#mcf26765339" x="85.571517" y="232.71" style="stroke: #000000"/>
      </g>
     </g>
    </g>
    <g id="xtick_7">
     <g id="line2d_7">
      <path d="M 145.297314 232.71
" style="fill: none; stroke: #000000; stroke-width: 1.5; stroke-linecap: square"/>
      <g>
       <use xlink:href="#mcf26765339" x="145.297314" y="232.71" style="stroke: #000000"/>
      </g>
     </g>
    </g>
    <g id="xtick_8">
     <g id="line2d_8">
      <path d="M 210.45273 232.71
" style="fill: none; stroke: #000000; stroke-width: 1.5; stroke-linecap: square"/>
      <g>
       <use xlink:href="#mcf26765339" x="210.45273" y="232.71" style="stroke: #000000"/>
      </g>
     </g>
    </g>
    <g id="xtick_9">
     <g id="line2d_9">
      <path d="M 275.608145 232.71
" style="fill: none; stroke: #000000; stroke-width: 1.5; stroke-linecap: square"/>
      <g>
       <use xlink:href="#mcf26765339" x="275.608145" y="232.71" style="stroke: #000000"/>
      </g>
     </g>
    </g>
   </g>
   <g id="matplotlib.axis_2">
    <g id="ytick_1">
     <g id="line2d_10">
      <path d="M 45.392344 232.71
L 332.076172 232.71
" clip-path="url(#p6a843d4859)" style="fill: none; stroke: #e5e5e5; stroke-linecap: square"/>
     </g>
     <g id="text_6">
      <text style="font-size: 11px; font-family: 'IBM Plex Sans'; text-anchor: start; fill: #4d4d4d" x="27" y="236.78" transform="rotate(-0 27 236.78)">0.0</text>
     </g>
    </g>
    <g id="ytick_2">
     <g id="line2d_11">
      <path d="M 45.392344 181.035311
L 332.076172 181.035311
" clip-path="url(#p6a843d4859)" style="fill: none; stroke: #e5e5e5; stroke-linecap: square"/>
     </g>
     <g id="text_7">
      <text style="font-size: 11px; font-family: 'IBM Plex Sans'; text-anchor: start; fill: #4d4d4d" x="27" y="185.105311" transform="rotate(-0 27 185.105311)">0.2</text>
     </g>
    </g>
    <g id="ytick_3">
     <g id="line2d_12">
      <path d="M 45.392344 129.360622
L 332.076172 129.360622
" clip-path="url(#p6a843d4859)" style="fill: none; stroke: #e5e5e5; stroke-linecap: square"/>
     </g>
     <g id="text_8">
      <text style="font-size: 11px; font-family: 'IBM Plex Sans'; text-anchor: start; fill: #4d4d4d" x="27" y="133.430622" transform="rotate(-0 27 133.430622)">0.4</text>
     </g>
    </g>
    <g id="ytick_4">
     <g id="line2d_13">
      <path d="M 45.392344 77.685933
L 332.076172 77.685933
" clip-path="url(#p6a843d4859)" style="fill: none; stroke: #e5e5e5; stroke-linecap: square"/>
     </g>
     <g id="text_9">
      <text style="font-size: 11px; font-family: 'IBM Plex Sans'; text-anchor: start; fill: #4d4d4d" x="27" y="81.755933" transform="rotate(-0 27 81.755933)">0.6</text>
     </g>
    </g>
    <g id="ytick_5">
     <g id="line2d_14">
      <path d="M 45.392344 206.872656
L 332.076172 206.872656
" clip-path="url(#p6a843d4859)" style="fill: none; stroke: #fafafa; stroke-width: 0.5; stroke-linecap: square"/>
     </g>
    </g>
    <g id="ytick_6">
     <g id="line2d_15">
      <path d="M 45.392344 155.197967
L 332.076172 155.197967
" clip-path="url(#p6a843d4859)" style="fill: none; stroke: #fafafa; stroke-width: 0.5; stroke-linecap: square"/>
     </g>
    </g>
    <g id="ytick_7">
     <g id="line2d_16">
      <path d="M 45.392344 103.523278
L 332.076172 103.523278
" clip-path="url(#p6a843d4859)" style="fill: none; stroke: #fafafa; stroke-width: 0.5; stroke-linecap: square"/>
     </g>
    </g>
   </g>
   <g id="PolyCollection_1">
    <path d="M 58.423427 232.71
L 58.423427 212.30287
L 69.282663 212.30287
L 69.282663 232.71
z
" clip-path="url(#p6a843d4859)" style="fill: #fc9706"/>
    <path d="M 58.423427 212.30287
L 58.423427 212.30287
L 69.282663 212.30287
L 69.282663 212.30287
z
" clip-path="url(#p6a843d4859)" style="fill: #ffc729"/>
    <path d="M 58.423427 212.30287
L 58.423427 212.30287
L 69.282663 212.30287
L 69.282663 212.30287
z
" clip-path="url(#p6a843d4859)" style="fill: #68bed8"/>
    <path d="M 58.423427 212.30287
L 58.423427 212.30287
L 69.282663 212.30287
L 69.282663 212.30287
z
" clip-path="url(#p6a843d4859)" style="fill: #023047"/>
    <path d="M 69.282663 232.71
L 69.282663 213.56852
L 80.141899 213.56852
L 80.141899 232.71
z
" clip-path="url(#p6a843d4859)" style="fill: #fc9706"/>
    <path d="M 69.282663 213.56852
L 69.282663 213.56852
L 80.141899 213.56852
L 80.141899 213.56852
z
" clip-path="url(#p6a843d4859)" style="fill: #ffc729"/>
    <path d="M 69.282663 213.56852
L 69.282663 213.56852
L 80.141899 213.56852
L 80.141899 213.56852
z
" clip-path="url(#p6a843d4859)" style="fill: #68bed8"/>
    <path d="M 69.282663 213.56852
L 69.282663 213.56852
L 80.141899 213.56852
L 80.141899 213.56852
z
" clip-path="url(#p6a843d4859)" style="fill: #023047"/>
    <path d="M 80.141899 232.71
L 80.141899 214.285901
L 91.001135 214.285901
L 91.001135 232.71
z
" clip-path="url(#p6a843d4859)" style="fill: #fc9706"/>
    <path d="M 80.141899 214.285901
L 80.141899 214.285901
L 91.001135 214.285901
L 91.001135 214.285901
z
" clip-path="url(#p6a843d4859)" style="fill: #ffc729"/>
    <path d="M 80.141899 214.285901
L 80.141899 214.285901
L 91.001135 214.285901
L 91.001135 214.285901
z
" clip-path="url(#p6a843d4859)" style="fill: #68bed8"/>
    <path d="M 80.141899 214.285901
L 80.141899 214.285901
L 91.001135 214.285901
L 91.001135 214.285901
z
" clip-path="url(#p6a843d4859)" style="fill: #023047"/>
    <path d="M 91.001135 232.71
L 91.001135 214.101448
L 101.860371 214.101448
L 101.860371 232.71
z
" clip-path="url(#p6a843d4859)" style="fill: #fc9706"/>
    <path d="M 91.001135 214.101448
L 91.001135 214.101448
L 101.860371 214.101448
L 101.860371 214.101448
z
" clip-path="url(#p6a843d4859)" style="fill: #ffc729"/>
    <path d="M 91.001135 214.101448
L 91.001135 214.101448
L 101.860371 214.101448
L 101.860371 214.101448
z
" clip-path="url(#p6a843d4859)" style="fill: #68bed8"/>
    <path d="M 91.001135 214.101448
L 91.001135 214.101448
L 101.860371 214.101448
L 101.860371 214.101448
z
" clip-path="url(#p6a843d4859)" style="fill: #023047"/>
    <path d="M 101.860371 232.71
L 101.860371 213.586775
L 112.719606 213.586775
L 112.719606 232.71
z
" clip-path="url(#p6a843d4859)" style="fill: #fc9706"/>
    <path d="M 101.860371 213.586775
L 101.860371 213.586775
L 112.719606 213.586775
L 112.719606 213.586775
z
" clip-path="url(#p6a843d4859)" style="fill: #ffc729"/>
    <path d="M 101.860371 213.586775
L 101.860371 213.586775
L 112.719606 213.586775
L 112.719606 213.586775
z
" clip-path="url(#p6a843d4859)" style="fill: #68bed8"/>
    <path d="M 101.860371 213.586775
L 101.860371 213.586775
L 112.719606 213.586775
L 112.719606 213.586775
z
" clip-path="url(#p6a843d4859)" style="fill: #023047"/>
    <path d="M 112.719606 232.71
L 112.719606 214.050564
L 123.578842 214.050564
L 123.578842 232.71
z
" clip-path="url(#p6a843d4859)" style="fill: #fc9706"/>
    <path d="M 112.719606 214.050564
L 112.719606 214.050564
L 123.578842 214.050564
L 123.578842 214.050564
z
" clip-path="url(#p6a843d4859)" style="fill: #ffc729"/>
    <path d="M 112.719606 214.050564
L 112.719606 214.050564
L 123.578842 214.050564
L 123.578842 214.050564
z
" clip-path="url(#p6a843d4859)" style="fill: #68bed8"/>
    <path d="M 112.719606 214.050564
L 112.719606 214.050564
L 123.578842 214.050564
L 123.578842 214.050564
z
" clip-path="url(#p6a843d4859)" style="fill: #023047"/>
    <path d="M 123.578842 232.71
L 123.578842 211.022027
L 134.438078 211.022027
L 134.438078 232.71
z
" clip-path="url(#p6a843d4859)" style="fill: #fc9706"/>
    <path d="M 123.578842 211.022027
L 123.578842 211.022027
L 134.438078 211.022027
L 134.438078 211.022027
z
" clip-path="url(#p6a843d4859)" style="fill: #ffc729"/>
    <path d="M 123.578842 211.022027
L 123.578842 211.022027
L 134.438078 211.022027
L 134.438078 211.022027
z
" clip-path="url(#p6a843d4859)" style="fill: #68bed8"/>
    <path d="M 123.578842 211.022027
L 123.578842 211.022027
L 134.438078 211.022027
L 134.438078 211.022027
z
" clip-path="url(#p6a843d4859)" style="fill: #023047"/>
    <path d="M 134.438078 232.71
L 134.438078 209.950213
L 145.297314 209.950213
L 145.297314 232.71
z
" clip-path="url(#p6a843d4859)" style="fill: #fc9706"/>
    <path d="M 134.438078 209.950213
L 134.438078 209.950213
L 145.297314 209.950213
L 145.297314 209.950213
z
" clip-path="url(#p6a843d4859)" style="fill: #ffc729"/>
    <path d="M 134.438078 209.950213
L 134.438078 209.950213
L 145.297314 209.950213
L 145.297314 209.950213
z
" clip-path="url(#p6a843d4859)" style="fill: #68bed8"/>
    <path d="M 134.438078 209.950213
L 134.438078 209.950213
L 145.297314 209.950213
L 145.297314 209.950213
z
" clip-path="url(#p6a843d4859)" style="fill: #023047"/>
    <path d="M 145.297314 232.71
L 145.297314 210.579273
L 156.15655 210.579273
L 156.15655 232.71
z
" clip-path="url(#p6a843d4859)" style="fill: #fc9706"/>
    <path d="M 145.297314 210.579273
L 145.297314 210.579273
L 156.15655 210.579273
L 156.15655 210.579273
z
" clip-path="url(#p6a843d4859)" style="fill: #ffc729"/>
    <path d="M 145.297314 210.579273
L 145.297314 210.579273
L 156.15655 210.579273
L 156.15655 210.579273
z
" clip-path="url(#p6a843d4859)" style="fill: #68bed8"/>
    <path d="M 145.297314 210.579273
L 145.297314 210.579273
L 156.15655 210.579273
L 156.15655 210.579273
z
" clip-path="url(#p6a843d4859)" style="fill: #023047"/>
    <path d="M 156.15655 232.71
L 156.15655 212.175764
L 167.015786 212.175764
L 167.015786 232.71
z
" clip-path="url(#p6a843d4859)" style="fill: #fc9706"/>
    <path d="M 156.15655 212.175764
L 156.15655 212.175764
L 167.015786 212.175764
L 167.015786 212.175764
z
" clip-path="url(#p6a843d4859)" style="fill: #ffc729"/>
    <path d="M 156.15655 212.175764
L 156.15655 212.175764
L 167.015786 212.175764
L 167.015786 212.175764
z
" clip-path="url(#p6a843d4859)" style="fill: #68bed8"/>
    <path d="M 156.15655 212.175764
L 156.15655 212.175764
L 167.015786 212.175764
L 167.015786 212.175764
z
" clip-path="url(#p6a843d4859)" style="fill: #023047"/>
    <path d="M 167.015786 232.71
L 167.015786 211.952751
L 177.875022 211.952751
L 177.875022 232.71
z
" clip-path="url(#p6a843d4859)" style="fill: #fc9706"/>
    <path d="M 167.015786 211.952751
L 167.015786 211.952751
L 177.875022 211.952751
L 177.875022 211.952751
z
" clip-path="url(#p6a843d4859)" style="fill: #ffc729"/>
    <path d="M 167.015786 211.952751
L 167.015786 211.952751
L 177.875022 211.952751
L 177.875022 211.952751
z
" clip-path="url(#p6a843d4859)" style="fill: #68bed8"/>
    <path d="M 167.015786 211.952751
L 167.015786 211.952751
L 177.875022 211.952751
L 177.875022 211.952751
z
" clip-path="url(#p6a843d4859)" style="fill: #023047"/>
    <path d="M 177.875022 232.71
L 177.875022 212.273384
L 188.734258 212.273384
L 188.734258 232.71
z
" clip-path="url(#p6a843d4859)" style="fill: #fc9706"/>
    <path d="M 177.875022 212.273384
L 177.875022 212.273384
L 188.734258 212.273384
L 188.734258 212.273384
z
" clip-path="url(#p6a843d4859)" style="fill: #ffc729"/>
    <path d="M 177.875022 212.273384
L 177.875022 212.273384
L 188.734258 212.273384
L 188.734258 212.273384
z
" clip-path="url(#p6a843d4859)" style="fill: #68bed8"/>
    <path d="M 177.875022 212.273384
L 177.875022 212.273384
L 188.734258 212.273384
L 188.734258 212.273384
z
" clip-path="url(#p6a843d4859)" style="fill: #023047"/>
    <path d="M 188.734258 232.71
L 188.734258 212.472354
L 199.593494 212.472354
L 199.593494 232.71
z
" clip-path="url(#p6a843d4859)" style="fill: #fc9706"/>
    <path d="M 188.734258 212.472354
L 188.734258 212.472354
L 199.593494 212.472354
L 199.593494 212.472354
z
" clip-path="url(#p6a843d4859)" style="fill: #ffc729"/>
    <path d="M 188.734258 212.472354
L 188.734258 212.472354
L 199.593494 212.472354
L 199.593494 212.472354
z
" clip-path="url(#p6a843d4859)" style="fill: #68bed8"/>
    <path d="M 188.734258 212.472354
L 188.734258 212.472354
L 199.593494 212.472354
L 199.593494 212.472354
z
" clip-path="url(#p6a843d4859)" style="fill: #023047"/>
    <path d="M 199.593494 232.71
L 199.593494 213.020844
L 210.45273 213.020844
L 210.45273 232.71
z
" clip-path="url(#p6a843d4859)" style="fill: #fc9706"/>
    <path d="M 199.593494 213.020844
L 199.593494 213.020844
L 210.45273 213.020844
L 210.45273 213.020844
z
" clip-path="url(#p6a843d4859)" style="fill: #ffc729"/>
    <path d="M 199.593494 213.020844
L 199.593494 213.020844
L 210.45273 213.020844
L 210.45273 213.020844
z
" clip-path="url(#p6a843d4859)" style="fill: #68bed8"/>
    <path d="M 199.593494 213.020844
L 199.593494 213.020844
L 210.45273 213.020844
L 210.45273 213.020844
z
" clip-path="url(#p6a843d4859)" style="fill: #023047"/>
    <path d="M 210.45273 232.71
L 210.45273 212.519839
L 221.311966 212.519839
L 221.311966 232.71
z
" clip-path="url(#p6a843d4859)" style="fill: #fc9706"/>
    <path d="M 210.45273 212.519839
L 210.45273 212.519839
L 221.311966 212.519839
L 221.311966 212.519839
z
" clip-path="url(#p6a843d4859)" style="fill: #ffc729"/>
    <path d="M 210.45273 212.519839
L 210.45273 212.519839
L 221.311966 212.519839
L 221.311966 212.519839
z
" clip-path="url(#p6a843d4859)" style="fill: #68bed8"/>
    <path d="M 210.45273 212.519839
L 210.45273 212.519839
L 221.311966 212.519839
L 221.311966 212.519839
z
" clip-path="url(#p6a843d4859)" style="fill: #023047"/>
    <path d="M 221.311966 232.71
L 221.311966 211.884553
L 232.171201 211.884553
L 232.171201 232.71
z
" clip-path="url(#p6a843d4859)" style="fill: #fc9706"/>
    <path d="M 221.311966 211.884553
L 221.311966 211.884553
L 232.171201 211.884553
L 232.171201 211.884553
z
" clip-path="url(#p6a843d4859)" style="fill: #ffc729"/>
    <path d="M 221.311966 211.884553
L 221.311966 211.884553
L 232.171201 211.884553
L 232.171201 211.884553
z
" clip-path="url(#p6a843d4859)" style="fill: #68bed8"/>
    <path d="M 221.311966 211.884553
L 221.311966 211.884553
L 232.171201 211.884553
L 232.171201 211.884553
z
" clip-path="url(#p6a843d4859)" style="fill: #023047"/>
    <path d="M 232.171201 232.71
L 232.171201 210.213445
L 243.030437 210.213445
L 243.030437 232.71
z
" clip-path="url(#p6a843d4859)" style="fill: #fc9706"/>
    <path d="M 232.171201 210.213445
L 232.171201 210.213445
L 243.030437 210.213445
L 243.030437 210.213445
z
" clip-path="url(#p6a843d4859)" style="fill: #ffc729"/>
    <path d="M 232.171201 210.213445
L 232.171201 210.213445
L 243.030437 210.213445
L 243.030437 210.213445
z
" clip-path="url(#p6a843d4859)" style="fill: #68bed8"/>
    <path d="M 232.171201 210.213445
L 232.171201 210.213445
L 243.030437 210.213445
L 243.030437 210.213445
z
" clip-path="url(#p6a843d4859)" style="fill: #023047"/>
    <path d="M 243.030437 232.71
L 243.030437 203.271784
L 253.889673 203.271784
L 253.889673 232.71
z
" clip-path="url(#p6a843d4859)" style="fill: #fc9706"/>
    <path d="M 243.030437 203.271784
L 243.030437 203.271784
L 253.889673 203.271784
L 253.889673 203.271784
z
" clip-path="url(#p6a843d4859)" style="fill: #ffc729"/>
    <path d="M 243.030437 203.271784
L 243.030437 203.271784
L 253.889673 203.271784
L 253.889673 203.271784
z
" clip-path="url(#p6a843d4859)" style="fill: #68bed8"/>
    <path d="M 243.030437 203.271784
L 243.030437 203.271784
L 253.889673 203.271784
L 253.889673 203.271784
z
" clip-path="url(#p6a843d4859)" style="fill: #023047"/>
    <path d="M 253.889673 232.71
L 253.889673 204.360884
L 264.748909 204.360884
L 264.748909 232.71
z
" clip-path="url(#p6a843d4859)" style="fill: #fc9706"/>
    <path d="M 253.889673 204.360884
L 253.889673 204.360884
L 264.748909 204.360884
L 264.748909 204.360884
z
" clip-path="url(#p6a843d4859)" style="fill: #ffc729"/>
    <path d="M 253.889673 204.360884
L 253.889673 204.360884
L 264.748909 204.360884
L 264.748909 204.360884
z
" clip-path="url(#p6a843d4859)" style="fill: #68bed8"/>
    <path d="M 253.889673 204.360884
L 253.889673 204.360884
L 264.748909 204.360884
L 264.748909 204.360884
z
" clip-path="url(#p6a843d4859)" style="fill: #023047"/>
    <path d="M 264.748909 232.71
L 264.748909 206.886399
L 275.608145 206.886399
L 275.608145 232.71
z
" clip-path="url(#p6a843d4859)" style="fill: #fc9706"/>
    <path d="M 264.748909 206.886399
L 264.748909 206.886399
L 275.608145 206.886399
L 275.608145 206.886399
z
" clip-path="url(#p6a843d4859)" style="fill: #ffc729"/>
    <path d="M 264.748909 206.886399
L 264.748909 206.886399
L 275.608145 206.886399
L 275.608145 206.886399
z
" clip-path="url(#p6a843d4859)" style="fill: #68bed8"/>
    <path d="M 264.748909 206.886399
L 264.748909 206.886399
L 275.608145 206.886399
L 275.608145 206.886399
z
" clip-path="url(#p6a843d4859)" style="fill: #023047"/>
    <path d="M 275.608145 232.71
L 275.608145 207.564357
L 286.467381 207.564357
L 286.467381 232.71
z
" clip-path="url(#p6a843d4859)" style="fill: #fc9706"/>
    <path d="M 275.608145 207.564357
L 275.608145 207.564357
L 286.467381 207.564357
L 286.467381 207.564357
z
" clip-path="url(#p6a843d4859)" style="fill: #ffc729"/>
    <path d="M 275.608145 207.564357
L 275.608145 207.564357
L 286.467381 207.564357
L 286.467381 207.564357
z
" clip-path="url(#p6a843d4859)" style="fill: #68bed8"/>
    <path d="M 275.608145 207.564357
L 275.608145 207.564357
L 286.467381 207.564357
L 286.467381 207.564357
z
" clip-path="url(#p6a843d4859)" style="fill: #023047"/>
    <path d="M 286.467381 232.71
L 286.467381 210.755709
L 297.326617 210.755709
L 297.326617 232.71
z
" clip-path="url(#p6a843d4859)" style="fill: #fc9706"/>
    <path d="M 286.467381 210.755709
L 286.467381 210.755709
L 297.326617 210.755709
L 297.326617 210.755709
z
" clip-path="url(#p6a843d4859)" style="fill: #ffc729"/>
    <path d="M 286.467381 210.755709
L 286.467381 210.755709
L 297.326617 210.755709
L 297.326617 210.755709
z
" clip-path="url(#p6a843d4859)" style="fill: #68bed8"/>
    <path d="M 286.467381 210.755709
L 286.467381 210.755709
L 297.326617 210.755709
L 297.326617 210.755709
z
" clip-path="url(#p6a843d4859)" style="fill: #023047"/>
    <path d="M 297.326617 232.71
L 297.326617 211.41496
L 308.185853 211.41496
L 308.185853 232.71
z
" clip-path="url(#p6a843d4859)" style="fill: #fc9706"/>
    <path d="M 297.326617 211.41496
L 297.326617 211.41496
L 308.185853 211.41496
L 308.185853 211.41496
z
" clip-path="url(#p6a843d4859)" style="fill: #ffc729"/>
    <path d="M 297.326617 211.41496
L 297.326617 211.41496
L 308.185853 211.41496
L 308.185853 211.41496
z
" clip-path="url(#p6a843d4859)" style="fill: #68bed8"/>
    <path d="M 297.326617 211.41496
L 297.326617 211.41496
L 308.185853 211.41496
L 308.185853 211.41496
z
" clip-path="url(#p6a843d4859)" style="fill: #023047"/>
    <path d="M 308.185853 232.71
L 308.185853 212.006409
L 319.045089 212.006409
L 319.045089 232.71
z
" clip-path="url(#p6a843d4859)" style="fill: #fc9706"/>
    <path d="M 308.185853 212.006409
L 308.185853 212.006409
L 319.045089 212.006409
L 319.045089 212.006409
z
" clip-path="url(#p6a843d4859)" style="fill: #ffc729"/>
    <path d="M 308.185853 212.006409
L 308.185853 212.006409
L 319.045089 212.006409
L 319.045089 212.006409
z
" clip-path="url(#p6a843d4859)" style="fill: #68bed8"/>
    <path d="M 308.185853 212.006409
L 308.185853 212.006409
L 319.045089 212.006409
L 319.045089 212.006409
z
" clip-path="url(#p6a843d4859)" style="fill: #023047"/>
   </g>
   <g id="line2d_17">
    <path d="M 58.423427 201.815102
L 69.282663 201.815102
L 69.282663 201.815102
L 80.141899 201.815102
L 80.141899 201.815102
L 91.001135 201.815102
L 91.001135 201.815102
L 101.860371 201.815102
L 101.860371 201.815102
L 112.719606 201.815102
L 112.719606 201.815102
L 123.578842 201.815102
L 123.578842 201.815102
L 134.438078 201.815102
L 134.438078 201.815102
L 145.297314 201.815102
L 145.297314 201.815102
L 156.15655 201.815102
L 156.15655 201.815102
L 167.015786 201.815102
L 167.015786 201.815102
L 177.875022 201.815102
L 177.875022 201.815102
L 188.734258 201.815102
L 188.734258 201.815102
L 199.593494 201.815102
L 199.593494 201.815102
L 210.45273 201.815102
L 210.45273 201.815102
L 221.311966 201.815102
L 221.311966 201.815102
L 232.171201 201.815102
L 232.171201 184.280752
L 243.030437 184.280752
L 243.030437 184.280752
L 253.889673 184.280752
L 253.889673 184.280752
L 264.748909 184.280752
L 264.748909 184.280752
L 275.608145 184.280752
L 275.608145 184.280752
L 286.467381 184.280752
L 286.467381 201.815102
L 297.326617 201.815102
L 297.326617 201.815102
L 308.185853 201.815102
L 308.185853 201.815102
" clip-path="url(#p6a843d4859)" style="fill: none; stroke: #000000; stroke-width: 1.240718; stroke-linejoin: miter"/>
   </g>
   <g id="text_10">
    <g clip-path="url(#p6a843d4859)">
     <text style="font-size: 9px; font-family: 'IBM Plex Sans'; text-anchor: middle" x="101.860371" y="199.498355" transform="rotate(-0 101.860371 199.498355)">Off-peak: $0.120</text>
    </g>
   </g>
   <g id="text_11">
    <g clip-path="url(#p6a843d4859)">
     <text style="font-size: 9px; font-family: 'IBM Plex Sans'; text-anchor: middle" x="253.889673" y="181.964005" transform="rotate(-0 253.889673 181.964005)">On-peak: $0.187</text>
    </g>
   </g>
   <g id="patch_3">
    <path d="M 45.392344 232.71
L 332.076172 232.71
" style="fill: none; stroke: #000000; stroke-width: 0.5; stroke-linejoin: miter; stroke-linecap: square"/>
   </g>
  </g>
  <g id="axes_2">
   <g id="patch_4">
    <path d="M 339.636172 232.71
L 626.32 232.71
L 626.32 54.969531
L 339.636172 54.969531
z
" style="fill: #ffffff"/>
   </g>
   <g id="matplotlib.axis_3">
    <g id="xtick_10">
     <g id="line2d_18">
      <path d="M 352.667255 232.71
" style="fill: none; stroke: #000000; stroke-width: 1.5; stroke-linecap: square"/>
      <g>
       <use xlink:href="#mb0d69e4746" x="352.667255" y="232.71" style="stroke: #000000"/>
      </g>
     </g>
     <g id="text_12">
      <text style="font-size: 11px; font-family: 'IBM Plex Sans'; text-anchor: middle; fill: #4d4d4d" x="352.667255" y="245.8" transform="rotate(-0 352.667255 245.8)">1</text>
     </g>
    </g>
    <g id="xtick_11">
     <g id="line2d_19">
      <path d="M 406.963435 232.71
" style="fill: none; stroke: #000000; stroke-width: 1.5; stroke-linecap: square"/>
      <g>
       <use xlink:href="#mb0d69e4746" x="406.963435" y="232.71" style="stroke: #000000"/>
      </g>
     </g>
     <g id="text_13">
      <text style="font-size: 11px; font-family: 'IBM Plex Sans'; text-anchor: middle; fill: #4d4d4d" x="406.963435" y="245.8" transform="rotate(-0 406.963435 245.8)">6</text>
     </g>
    </g>
    <g id="xtick_12">
     <g id="line2d_20">
      <path d="M 472.11885 232.71
" style="fill: none; stroke: #000000; stroke-width: 1.5; stroke-linecap: square"/>
      <g>
       <use xlink:href="#mb0d69e4746" x="472.11885" y="232.71" style="stroke: #000000"/>
      </g>
     </g>
     <g id="text_14">
      <text style="font-size: 11px; font-family: 'IBM Plex Sans'; text-anchor: middle; fill: #4d4d4d" x="472.11885" y="245.8" transform="rotate(-0 472.11885 245.8)">12</text>
     </g>
    </g>
    <g id="xtick_13">
     <g id="line2d_21">
      <path d="M 537.274266 232.71
" style="fill: none; stroke: #000000; stroke-width: 1.5; stroke-linecap: square"/>
      <g>
       <use xlink:href="#mb0d69e4746" x="537.274266" y="232.71" style="stroke: #000000"/>
      </g>
     </g>
     <g id="text_15">
      <text style="font-size: 11px; font-family: 'IBM Plex Sans'; text-anchor: middle; fill: #4d4d4d" x="537.274266" y="245.8" transform="rotate(-0 537.274266 245.8)">18</text>
     </g>
    </g>
    <g id="xtick_14">
     <g id="line2d_22">
      <path d="M 602.429681 232.71
" style="fill: none; stroke: #000000; stroke-width: 1.5; stroke-linecap: square"/>
      <g>
       <use xlink:href="#mb0d69e4746" x="602.429681" y="232.71" style="stroke: #000000"/>
      </g>
     </g>
     <g id="text_16">
      <text style="font-size: 11px; font-family: 'IBM Plex Sans'; text-anchor: middle; fill: #4d4d4d" x="602.429681" y="245.8" transform="rotate(-0 602.429681 245.8)">24</text>
     </g>
    </g>
    <g id="xtick_15">
     <g id="line2d_23">
      <path d="M 379.815345 232.71
" style="fill: none; stroke: #000000; stroke-width: 1.5; stroke-linecap: square"/>
      <g>
       <use xlink:href="#mcf26765339" x="379.815345" y="232.71" style="stroke: #000000"/>
      </g>
     </g>
    </g>
    <g id="xtick_16">
     <g id="line2d_24">
      <path d="M 439.541142 232.71
" style="fill: none; stroke: #000000; stroke-width: 1.5; stroke-linecap: square"/>
      <g>
       <use xlink:href="#mcf26765339" x="439.541142" y="232.71" style="stroke: #000000"/>
      </g>
     </g>
    </g>
    <g id="xtick_17">
     <g id="line2d_25">
      <path d="M 504.696558 232.71
" style="fill: none; stroke: #000000; stroke-width: 1.5; stroke-linecap: square"/>
      <g>
       <use xlink:href="#mcf26765339" x="504.696558" y="232.71" style="stroke: #000000"/>
      </g>
     </g>
    </g>
    <g id="xtick_18">
     <g id="line2d_26">
      <path d="M 569.851973 232.71
" style="fill: none; stroke: #000000; stroke-width: 1.5; stroke-linecap: square"/>
      <g>
       <use xlink:href="#mcf26765339" x="569.851973" y="232.71" style="stroke: #000000"/>
      </g>
     </g>
    </g>
   </g>
   <g id="matplotlib.axis_4">
    <g id="ytick_8">
     <g id="line2d_27">
      <path d="M 339.636172 232.71
L 626.32 232.71
" clip-path="url(#p1667837737)" style="fill: none; stroke: #e5e5e5; stroke-linecap: square"/>
     </g>
    </g>
    <g id="ytick_9">
     <g id="line2d_28">
      <path d="M 339.636172 181.035311
L 626.32 181.035311
" clip-path="url(#p1667837737)" style="fill: none; stroke: #e5e5e5; stroke-linecap: square"/>
     </g>
    </g>
    <g id="ytick_10">
     <g id="line2d_29">
      <path d="M 339.636172 129.360622
L 626.32 129.360622
" clip-path="url(#p1667837737)" style="fill: none; stroke: #e5e5e5; stroke-linecap: square"/>
     </g>
    </g>
    <g id="ytick_11">
     <g id="line2d_30">
      <path d="M 339.636172 77.685933
L 626.32 77.685933
" clip-path="url(#p1667837737)" style="fill: none; stroke: #e5e5e5; stroke-linecap: square"/>
     </g>
    </g>
    <g id="ytick_12">
     <g id="line2d_31">
      <path d="M 339.636172 206.872656
L 626.32 206.872656
" clip-path="url(#p1667837737)" style="fill: none; stroke: #fafafa; stroke-width: 0.5; stroke-linecap: square"/>
     </g>
    </g>
    <g id="ytick_13">
     <g id="line2d_32">
      <path d="M 339.636172 155.197967
L 626.32 155.197967
" clip-path="url(#p1667837737)" style="fill: none; stroke: #fafafa; stroke-width: 0.5; stroke-linecap: square"/>
     </g>
    </g>
    <g id="ytick_14">
     <g id="line2d_33">
      <path d="M 339.636172 103.523278
L 626.32 103.523278
" clip-path="url(#p1667837737)" style="fill: none; stroke: #fafafa; stroke-width: 0.5; stroke-linecap: square"/>
     </g>
    </g>
   </g>
   <g id="PolyCollection_2">
    <path d="M 352.667255 232.71
L 352.667255 200.516796
L 363.526491 200.516796
L 363.526491 232.71
z
" clip-path="url(#p1667837737)" style="fill: #fc9706"/>
    <path d="M 352.667255 200.516796
L 352.667255 200.516796
L 363.526491 200.516796
L 363.526491 200.516796
z
" clip-path="url(#p1667837737)" style="fill: #ffc729"/>
    <path d="M 352.667255 200.516796
L 352.667255 200.516796
L 363.526491 200.516796
L 363.526491 200.516796
z
" clip-path="url(#p1667837737)" style="fill: #68bed8"/>
    <path d="M 352.667255 200.516796
L 352.667255 200.516796
L 363.526491 200.516796
L 363.526491 200.516796
z
" clip-path="url(#p1667837737)" style="fill: #023047"/>
    <path d="M 363.526491 232.71
L 363.526491 201.736279
L 374.385727 201.736279
L 374.385727 232.71
z
" clip-path="url(#p1667837737)" style="fill: #fc9706"/>
    <path d="M 363.526491 201.736279
L 363.526491 201.736279
L 374.385727 201.736279
L 374.385727 201.736279
z
" clip-path="url(#p1667837737)" style="fill: #ffc729"/>
    <path d="M 363.526491 201.736279
L 363.526491 201.736279
L 374.385727 201.736279
L 374.385727 201.736279
z
" clip-path="url(#p1667837737)" style="fill: #68bed8"/>
    <path d="M 363.526491 201.736279
L 363.526491 201.736279
L 374.385727 201.736279
L 374.385727 201.736279
z
" clip-path="url(#p1667837737)" style="fill: #023047"/>
    <path d="M 374.385727 232.71
L 374.385727 203.76015
L 385.244963 203.76015
L 385.244963 232.71
z
" clip-path="url(#p1667837737)" style="fill: #fc9706"/>
    <path d="M 374.385727 203.76015
L 374.385727 203.76015
L 385.244963 203.76015
L 385.244963 203.76015
z
" clip-path="url(#p1667837737)" style="fill: #ffc729"/>
    <path d="M 374.385727 203.76015
L 374.385727 203.76015
L 385.244963 203.76015
L 385.244963 203.76015
z
" clip-path="url(#p1667837737)" style="fill: #68bed8"/>
    <path d="M 374.385727 203.76015
L 374.385727 203.76015
L 385.244963 203.76015
L 385.244963 203.76015
z
" clip-path="url(#p1667837737)" style="fill: #023047"/>
    <path d="M 385.244963 232.71
L 385.244963 202.932096
L 396.104199 202.932096
L 396.104199 232.71
z
" clip-path="url(#p1667837737)" style="fill: #fc9706"/>
    <path d="M 385.244963 202.932096
L 385.244963 202.932096
L 396.104199 202.932096
L 396.104199 202.932096
z
" clip-path="url(#p1667837737)" style="fill: #ffc729"/>
    <path d="M 385.244963 202.932096
L 385.244963 202.932096
L 396.104199 202.932096
L 396.104199 202.932096
z
" clip-path="url(#p1667837737)" style="fill: #68bed8"/>
    <path d="M 385.244963 202.932096
L 385.244963 202.932096
L 396.104199 202.932096
L 396.104199 202.932096
z
" clip-path="url(#p1667837737)" style="fill: #023047"/>
    <path d="M 396.104199 232.71
L 396.104199 203.898429
L 406.963435 203.898429
L 406.963435 232.71
z
" clip-path="url(#p1667837737)" style="fill: #fc9706"/>
    <path d="M 396.104199 203.898429
L 396.104199 203.898429
L 406.963435 203.898429
L 406.963435 203.898429
z
" clip-path="url(#p1667837737)" style="fill: #ffc729"/>
    <path d="M 396.104199 203.898429
L 396.104199 203.898429
L 406.963435 203.898429
L 406.963435 203.898429
z
" clip-path="url(#p1667837737)" style="fill: #68bed8"/>
    <path d="M 396.104199 203.898429
L 396.104199 203.898429
L 406.963435 203.898429
L 406.963435 203.898429
z
" clip-path="url(#p1667837737)" style="fill: #023047"/>
    <path d="M 406.963435 232.71
L 406.963435 200.636758
L 417.82267 200.636758
L 417.82267 232.71
z
" clip-path="url(#p1667837737)" style="fill: #fc9706"/>
    <path d="M 406.963435 200.636758
L 406.963435 200.636758
L 417.82267 200.636758
L 417.82267 200.636758
z
" clip-path="url(#p1667837737)" style="fill: #ffc729"/>
    <path d="M 406.963435 200.636758
L 406.963435 200.636758
L 417.82267 200.636758
L 417.82267 200.636758
z
" clip-path="url(#p1667837737)" style="fill: #68bed8"/>
    <path d="M 406.963435 200.636758
L 406.963435 200.636758
L 417.82267 200.636758
L 417.82267 200.636758
z
" clip-path="url(#p1667837737)" style="fill: #023047"/>
    <path d="M 417.82267 232.71
L 417.82267 196.694547
L 428.681906 196.694547
L 428.681906 232.71
z
" clip-path="url(#p1667837737)" style="fill: #fc9706"/>
    <path d="M 417.82267 196.694547
L 417.82267 196.694547
L 428.681906 196.694547
L 428.681906 196.694547
z
" clip-path="url(#p1667837737)" style="fill: #ffc729"/>
    <path d="M 417.82267 196.694547
L 417.82267 196.694547
L 428.681906 196.694547
L 428.681906 196.694547
z
" clip-path="url(#p1667837737)" style="fill: #68bed8"/>
    <path d="M 417.82267 196.694547
L 417.82267 196.694547
L 428.681906 196.694547
L 428.681906 196.694547
z
" clip-path="url(#p1667837737)" style="fill: #023047"/>
    <path d="M 428.681906 232.71
L 428.681906 190.551158
L 439.541142 190.551158
L 439.541142 232.71
z
" clip-path="url(#p1667837737)" style="fill: #fc9706"/>
    <path d="M 428.681906 190.551158
L 428.681906 190.551158
L 439.541142 190.551158
L 439.541142 190.551158
z
" clip-path="url(#p1667837737)" style="fill: #ffc729"/>
    <path d="M 428.681906 190.551158
L 428.681906 190.551158
L 439.541142 190.551158
L 439.541142 190.551158
z
" clip-path="url(#p1667837737)" style="fill: #68bed8"/>
    <path d="M 428.681906 190.551158
L 428.681906 190.551158
L 439.541142 190.551158
L 439.541142 190.551158
z
" clip-path="url(#p1667837737)" style="fill: #023047"/>
    <path d="M 439.541142 232.71
L 439.541142 193.07325
L 450.400378 193.07325
L 450.400378 232.71
z
" clip-path="url(#p1667837737)" style="fill: #fc9706"/>
    <path d="M 439.541142 193.07325
L 439.541142 193.07325
L 450.400378 193.07325
L 450.400378 193.07325
z
" clip-path="url(#p1667837737)" style="fill: #ffc729"/>
    <path d="M 439.541142 193.07325
L 439.541142 188.721702
L 450.400378 188.721702
L 450.400378 193.07325
z
" clip-path="url(#p1667837737)" style="fill: #68bed8"/>
    <path d="M 439.541142 188.721702
L 439.541142 188.721702
L 450.400378 188.721702
L 450.400378 188.721702
z
" clip-path="url(#p1667837737)" style="fill: #023047"/>
    <path d="M 450.400378 232.71
L 450.400378 197.944896
L 461.259614 197.944896
L 461.259614 232.71
z
" clip-path="url(#p1667837737)" style="fill: #fc9706"/>
    <path d="M 450.400378 197.944896
L 450.400378 196.934716
L 461.259614 196.934716
L 461.259614 197.944896
z
" clip-path="url(#p1667837737)" style="fill: #ffc729"/>
    <path d="M 450.400378 196.934716
L 450.400378 186.477716
L 461.259614 186.477716
L 461.259614 196.934716
z
" clip-path="url(#p1667837737)" style="fill: #68bed8"/>
    <path d="M 450.400378 186.477716
L 450.400378 186.477716
L 461.259614 186.477716
L 461.259614 186.477716
z
" clip-path="url(#p1667837737)" style="fill: #023047"/>
    <path d="M 461.259614 232.71
L 461.259614 196.500038
L 472.11885 196.500038
L 472.11885 232.71
z
" clip-path="url(#p1667837737)" style="fill: #fc9706"/>
    <path d="M 461.259614 196.500038
L 461.259614 195.09846
L 472.11885 195.09846
L 472.11885 196.500038
z
" clip-path="url(#p1667837737)" style="fill: #ffc729"/>
    <path d="M 461.259614 195.09846
L 461.259614 183.031157
L 472.11885 183.031157
L 472.11885 195.09846
z
" clip-path="url(#p1667837737)" style="fill: #68bed8"/>
    <path d="M 461.259614 183.031157
L 461.259614 183.031157
L 472.11885 183.031157
L 472.11885 183.031157
z
" clip-path="url(#p1667837737)" style="fill: #023047"/>
    <path d="M 472.11885 232.71
L 472.11885 200.140634
L 482.978086 200.140634
L 482.978086 232.71
z
" clip-path="url(#p1667837737)" style="fill: #fc9706"/>
    <path d="M 472.11885 200.140634
L 472.11885 200.140634
L 482.978086 200.140634
L 482.978086 200.140634
z
" clip-path="url(#p1667837737)" style="fill: #ffc729"/>
    <path d="M 472.11885 200.140634
L 472.11885 188.829817
L 482.978086 188.829817
L 482.978086 200.140634
z
" clip-path="url(#p1667837737)" style="fill: #68bed8"/>
    <path d="M 472.11885 188.829817
L 472.11885 188.829817
L 482.978086 188.829817
L 482.978086 188.829817
z
" clip-path="url(#p1667837737)" style="fill: #023047"/>
    <path d="M 482.978086 232.71
L 482.978086 202.550851
L 493.837322 202.550851
L 493.837322 232.71
z
" clip-path="url(#p1667837737)" style="fill: #fc9706"/>
    <path d="M 482.978086 202.550851
L 482.978086 202.550851
L 493.837322 202.550851
L 493.837322 202.550851
z
" clip-path="url(#p1667837737)" style="fill: #ffc729"/>
    <path d="M 482.978086 202.550851
L 482.978086 194.2386
L 493.837322 194.2386
L 493.837322 202.550851
z
" clip-path="url(#p1667837737)" style="fill: #68bed8"/>
    <path d="M 482.978086 194.2386
L 482.978086 194.2386
L 493.837322 194.2386
L 493.837322 194.2386
z
" clip-path="url(#p1667837737)" style="fill: #023047"/>
    <path d="M 493.837322 232.71
L 493.837322 204.173836
L 504.696558 204.173836
L 504.696558 232.71
z
" clip-path="url(#p1667837737)" style="fill: #fc9706"/>
    <path d="M 493.837322 204.173836
L 493.837322 204.173836
L 504.696558 204.173836
L 504.696558 204.173836
z
" clip-path="url(#p1667837737)" style="fill: #ffc729"/>
    <path d="M 493.837322 204.173836
L 493.837322 197.145695
L 504.696558 197.145695
L 504.696558 204.173836
z
" clip-path="url(#p1667837737)" style="fill: #68bed8"/>
    <path d="M 493.837322 197.145695
L 493.837322 197.145695
L 504.696558 197.145695
L 504.696558 197.145695
z
" clip-path="url(#p1667837737)" style="fill: #023047"/>
    <path d="M 504.696558 232.71
L 504.696558 204.683589
L 515.555794 204.683589
L 515.555794 232.71
z
" clip-path="url(#p1667837737)" style="fill: #fc9706"/>
    <path d="M 504.696558 204.683589
L 504.696558 204.683589
L 515.555794 204.683589
L 515.555794 204.683589
z
" clip-path="url(#p1667837737)" style="fill: #ffc729"/>
    <path d="M 504.696558 204.683589
L 504.696558 198.573883
L 515.555794 198.573883
L 515.555794 204.683589
z
" clip-path="url(#p1667837737)" style="fill: #68bed8"/>
    <path d="M 504.696558 198.573883
L 504.696558 198.573883
L 515.555794 198.573883
L 515.555794 198.573883
z
" clip-path="url(#p1667837737)" style="fill: #023047"/>
    <path d="M 515.555794 232.71
L 515.555794 201.342022
L 526.41503 201.342022
L 526.41503 232.71
z
" clip-path="url(#p1667837737)" style="fill: #fc9706"/>
    <path d="M 515.555794 201.342022
L 515.555794 201.342022
L 526.41503 201.342022
L 526.41503 201.342022
z
" clip-path="url(#p1667837737)" style="fill: #ffc729"/>
    <path d="M 515.555794 201.342022
L 515.555794 193.355013
L 526.41503 193.355013
L 526.41503 201.342022
z
" clip-path="url(#p1667837737)" style="fill: #68bed8"/>
    <path d="M 515.555794 193.355013
L 515.555794 193.355013
L 526.41503 193.355013
L 526.41503 193.355013
z
" clip-path="url(#p1667837737)" style="fill: #023047"/>
    <path d="M 526.41503 232.71
L 526.41503 199.646255
L 537.274266 199.646255
L 537.274266 232.71
z
" clip-path="url(#p1667837737)" style="fill: #fc9706"/>
    <path d="M 526.41503 199.646255
L 526.41503 185.428565
L 537.274266 185.428565
L 537.274266 199.646255
z
" clip-path="url(#p1667837737)" style="fill: #ffc729"/>
    <path d="M 526.41503 185.428565
L 526.41503 171.208353
L 537.274266 171.208353
L 537.274266 185.428565
z
" clip-path="url(#p1667837737)" style="fill: #68bed8"/>
    <path d="M 526.41503 171.208353
L 526.41503 171.208353
L 537.274266 171.208353
L 537.274266 171.208353
z
" clip-path="url(#p1667837737)" style="fill: #023047"/>
    <path d="M 537.274266 232.71
L 537.274266 187.871551
L 548.133501 187.871551
L 548.133501 232.71
z
" clip-path="url(#p1667837737)" style="fill: #fc9706"/>
    <path d="M 537.274266 187.871551
L 537.274266 101.270154
L 548.133501 101.270154
L 548.133501 187.871551
z
" clip-path="url(#p1667837737)" style="fill: #ffc729"/>
    <path d="M 537.274266 101.270154
L 537.274266 63.433363
L 548.133501 63.433363
L 548.133501 101.270154
z
" clip-path="url(#p1667837737)" style="fill: #68bed8"/>
    <path d="M 537.274266 63.433363
L 537.274266 63.433363
L 548.133501 63.433363
L 548.133501 63.433363
z
" clip-path="url(#p1667837737)" style="fill: #023047"/>
    <path d="M 548.133501 232.71
L 548.133501 189.213292
L 558.992737 189.213292
L 558.992737 232.71
z
" clip-path="url(#p1667837737)" style="fill: #fc9706"/>
    <path d="M 548.133501 189.213292
L 548.133501 112.322365
L 558.992737 112.322365
L 558.992737 189.213292
z
" clip-path="url(#p1667837737)" style="fill: #ffc729"/>
    <path d="M 548.133501 112.322365
L 548.133501 80.616731
L 558.992737 80.616731
L 558.992737 112.322365
z
" clip-path="url(#p1667837737)" style="fill: #68bed8"/>
    <path d="M 548.133501 80.616731
L 548.133501 80.616731
L 558.992737 80.616731
L 558.992737 80.616731
z
" clip-path="url(#p1667837737)" style="fill: #023047"/>
    <path d="M 558.992737 232.71
L 558.992737 195.535194
L 569.851973 195.535194
L 569.851973 232.71
z
" clip-path="url(#p1667837737)" style="fill: #fc9706"/>
    <path d="M 558.992737 195.535194
L 558.992737 173.529433
L 569.851973 173.529433
L 569.851973 195.535194
z
" clip-path="url(#p1667837737)" style="fill: #ffc729"/>
    <path d="M 558.992737 173.529433
L 558.992737 157.05111
L 569.851973 157.05111
L 569.851973 173.529433
z
" clip-path="url(#p1667837737)" style="fill: #68bed8"/>
    <path d="M 558.992737 157.05111
L 558.992737 157.05111
L 569.851973 157.05111
L 569.851973 157.05111
z
" clip-path="url(#p1667837737)" style="fill: #023047"/>
    <path d="M 569.851973 232.71
L 569.851973 197.397735
L 580.711209 197.397735
L 580.711209 232.71
z
" clip-path="url(#p1667837737)" style="fill: #fc9706"/>
    <path d="M 569.851973 197.397735
L 569.851973 197.397735
L 580.711209 197.397735
L 580.711209 197.397735
z
" clip-path="url(#p1667837737)" style="fill: #ffc729"/>
    <path d="M 569.851973 197.397735
L 569.851973 192.452684
L 580.711209 192.452684
L 580.711209 197.397735
z
" clip-path="url(#p1667837737)" style="fill: #68bed8"/>
    <path d="M 569.851973 192.452684
L 569.851973 192.452684
L 580.711209 192.452684
L 580.711209 192.452684
z
" clip-path="url(#p1667837737)" style="fill: #023047"/>
    <path d="M 580.711209 232.71
L 580.711209 199.358399
L 591.570445 199.358399
L 591.570445 232.71
z
" clip-path="url(#p1667837737)" style="fill: #fc9706"/>
    <path d="M 580.711209 199.358399
L 580.711209 199.358399
L 591.570445 199.358399
L 591.570445 199.358399
z
" clip-path="url(#p1667837737)" style="fill: #ffc729"/>
    <path d="M 580.711209 199.358399
L 580.711209 199.358399
L 591.570445 199.358399
L 591.570445 199.358399
z
" clip-path="url(#p1667837737)" style="fill: #68bed8"/>
    <path d="M 580.711209 199.358399
L 580.711209 199.358399
L 591.570445 199.358399
L 591.570445 199.358399
z
" clip-path="url(#p1667837737)" style="fill: #023047"/>
    <path d="M 591.570445 232.71
L 591.570445 201.105628
L 602.429681 201.105628
L 602.429681 232.71
z
" clip-path="url(#p1667837737)" style="fill: #fc9706"/>
    <path d="M 591.570445 201.105628
L 591.570445 201.105628
L 602.429681 201.105628
L 602.429681 201.105628
z
" clip-path="url(#p1667837737)" style="fill: #ffc729"/>
    <path d="M 591.570445 201.105628
L 591.570445 201.105628
L 602.429681 201.105628
L 602.429681 201.105628
z
" clip-path="url(#p1667837737)" style="fill: #68bed8"/>
    <path d="M 591.570445 201.105628
L 591.570445 201.105628
L 602.429681 201.105628
L 602.429681 201.105628
z
" clip-path="url(#p1667837737)" style="fill: #023047"/>
    <path d="M 602.429681 232.71
L 602.429681 201.844327
L 613.288917 201.844327
L 613.288917 232.71
z
" clip-path="url(#p1667837737)" style="fill: #fc9706"/>
    <path d="M 602.429681 201.844327
L 602.429681 201.844327
L 613.288917 201.844327
L 613.288917 201.844327
z
" clip-path="url(#p1667837737)" style="fill: #ffc729"/>
    <path d="M 602.429681 201.844327
L 602.429681 201.844327
L 613.288917 201.844327
L 613.288917 201.844327
z
" clip-path="url(#p1667837737)" style="fill: #68bed8"/>
    <path d="M 602.429681 201.844327
L 602.429681 201.844327
L 613.288917 201.844327
L 613.288917 201.844327
z
" clip-path="url(#p1667837737)" style="fill: #023047"/>
   </g>
   <g id="line2d_34">
    <path d="M 352.667255 201.815102
L 363.526491 201.815102
L 363.526491 201.815102
L 374.385727 201.815102
L 374.385727 201.815102
L 385.244963 201.815102
L 385.244963 201.815102
L 396.104199 201.815102
L 396.104199 201.815102
L 406.963435 201.815102
L 406.963435 201.815102
L 417.82267 201.815102
L 417.82267 201.815102
L 428.681906 201.815102
L 428.681906 201.815102
L 439.541142 201.815102
L 439.541142 201.815102
L 450.400378 201.815102
L 450.400378 201.815102
L 461.259614 201.815102
L 461.259614 201.815102
L 472.11885 201.815102
L 472.11885 201.815102
L 482.978086 201.815102
L 482.978086 201.815102
L 493.837322 201.815102
L 493.837322 201.815102
L 504.696558 201.815102
L 504.696558 201.815102
L 515.555794 201.815102
L 515.555794 201.815102
L 526.41503 201.815102
L 526.41503 184.280752
L 537.274266 184.280752
L 537.274266 184.280752
L 548.133501 184.280752
L 548.133501 184.280752
L 558.992737 184.280752
L 558.992737 184.280752
L 569.851973 184.280752
L 569.851973 184.280752
L 580.711209 184.280752
L 580.711209 201.815102
L 591.570445 201.815102
L 591.570445 201.815102
L 602.429681 201.815102
L 602.429681 201.815102
" clip-path="url(#p1667837737)" style="fill: none; stroke: #000000; stroke-width: 1.240718; stroke-linejoin: miter"/>
   </g>
   <g id="patch_5">
    <path d="M 339.636172 232.71
L 626.32 232.71
" style="fill: none; stroke: #000000; stroke-width: 0.5; stroke-linejoin: miter; stroke-linecap: square"/>
   </g>
  </g>
  <g id="text_17">
   <text style="font-weight: 700; font-size: 15px; font-family: 'GT Planar'; text-anchor: start" x="45.392344" y="19.829531" transform="rotate(-0 45.392344 19.829531)">Central Hudson:  — Winter Time-of-use Prices vs. Marginal Costs ($/kWh, 2025)</text>
  </g>
  <g id="text_18">
   <text style="font-size: 13px; font-family: 'GT Planar'; text-anchor: start; fill: #333333" x="299.827891" y="278.1" transform="rotate(-0 299.827891 278.1)">Hour of Day</text>
  </g>
  <g id="text_19">
   <text style="font-size: 13px; font-family: 'GT Planar'; fill: #333333" transform="translate(16.66 164.093359) rotate(-90)">$/kWh</text>
  </g>
  <g id="text_20">
   <text style="font-size: 13px; font-family: 'GT Planar'; text-anchor: middle; fill: #333333" x="188.734258" y="49.927531" transform="rotate(-0 188.734258 49.927531)">Low-cost Day</text>
  </g>
  <g id="text_21">
   <text style="font-size: 13px; font-family: 'GT Planar'; text-anchor: middle; fill: #333333" x="482.978086" y="49.927531" transform="rotate(-0 482.978086 49.927531)">High-cost Day</text>
  </g>
  <g id="text_22">
   <text style="font-size: 13px; font-family: 'GT Planar'; text-anchor: middle; fill: #333333" x="631.362" y="143.839766" transform="rotate(-270 631.362 143.839766)">Winter</text>
  </g>
  <g id="patch_6">
   <path d="M 662.44 130.439766
L 676.28 130.439766
L 676.28 116.599766
L 662.44 116.599766
z
" clip-path="url(#pe612651c53)" style="fill: #ffffff; stroke: #ffffff; stroke-linejoin: miter"/>
  </g>
  <g id="patch_7">
   <path d="M 661.44 131.439766
L 677.28 131.439766
L 677.28 115.599766
L 661.44 115.599766
z
" clip-path="url(#pe612651c53)" style="fill: #023047"/>
  </g>
  <g id="text_23">
   <text style="font-size: 11px; font-family: 'IBM Plex Sans'; text-anchor: middle; fill: #4d4d4d" x="712.932656" y="126.489766" transform="rotate(-0 712.932656 126.489766)">Dist+Sub-Tx</text>
  </g>
  <g id="patch_8">
   <path d="M 662.44 148.279766
L 676.28 148.279766
L 676.28 134.439766
L 662.44 134.439766
z
" clip-path="url(#pd652b4d40a)" style="fill: #ffffff; stroke: #ffffff; stroke-linejoin: miter"/>
  </g>
  <g id="patch_9">
   <path d="M 661.44 149.279766
L 677.28 149.279766
L 677.28 133.439766
L 661.44 133.439766
z
" clip-path="url(#pd652b4d40a)" style="fill: #68bed8"/>
  </g>
  <g id="text_24">
   <text style="font-size: 11px; font-family: 'IBM Plex Sans'; text-anchor: middle; fill: #4d4d4d" x="700.6625" y="144.329766" transform="rotate(-0 700.6625 144.329766)">Bulk Tx</text>
  </g>
  <g id="patch_10">
   <path d="M 662.44 166.119766
L 676.28 166.119766
L 676.28 152.279766
L 662.44 152.279766
z
" clip-path="url(#p4b9c0bcbb1)" style="fill: #ffffff; stroke: #ffffff; stroke-linejoin: miter"/>
  </g>
  <g id="patch_11">
   <path d="M 661.44 167.119766
L 677.28 167.119766
L 677.28 151.279766
L 661.44 151.279766
z
" clip-path="url(#p4b9c0bcbb1)" style="fill: #ffc729"/>
  </g>
  <g id="text_25">
   <text style="font-size: 11px; font-family: 'IBM Plex Sans'; text-anchor: middle; fill: #4d4d4d" x="714.88" y="162.169766" transform="rotate(-0 714.88 162.169766)">Gen Capacity</text>
  </g>
  <g id="patch_12">
   <path d="M 662.44 183.959766
L 676.28 183.959766
L 676.28 170.119766
L 662.44 170.119766
z
" clip-path="url(#p01d348a224)" style="fill: #ffffff; stroke: #ffffff; stroke-linejoin: miter"/>
  </g>
  <g id="patch_13">
   <path d="M 661.44 184.959766
L 677.28 184.959766
L 677.28 169.119766
L 661.44 169.119766
z
" clip-path="url(#p01d348a224)" style="fill: #fc9706"/>
  </g>
  <g id="text_26">
   <text style="font-size: 11px; font-family: 'IBM Plex Sans'; text-anchor: middle; fill: #4d4d4d" x="699.337344" y="179.943594" transform="rotate(-0 699.337344 179.943594)">Energy</text>
  </g>
 </g>
 <defs>
  <clipPath id="p6a843d4859">
   <rect x="45.392344" y="54.969531" width="286.683828" height="177.740469"/>
  </clipPath>
  <clipPath id="p1667837737">
   <rect x="339.636172" y="54.969531" width="286.683828" height="177.740469"/>
  </clipPath>
  <clipPath id="pe612651c53">
   <path d="M 661.44 131.439766
L 661.44 115.599766
L 677.28 115.599766
L 677.28 131.439766
"/>
  </clipPath>
  <clipPath id="pd652b4d40a">
   <path d="M 661.44 149.279766
L 661.44 133.439766
L 677.28 133.439766
L 677.28 149.279766
"/>
  </clipPath>
  <clipPath id="p4b9c0bcbb1">
   <path d="M 661.44 167.119766
L 661.44 151.279766
L 677.28 151.279766
L 677.28 167.119766
"/>
  </clipPath>
  <clipPath id="p01d348a224">
   <path d="M 661.44 184.959766
L 661.44 169.119766
L 677.28 169.119766
L 677.28 184.959766
"/>
  </clipPath>
 </defs>
</svg>
