<?xml version="1.0" encoding="utf-8" standalone="no"?>
<!DOCTYPE svg PUBLIC "-//W3C//DTD SVG 1.1//EN"
  "http://www.w3.org/Graphics/SVG/1.1/DTD/svg11.dtd">
<svg xmlns:xlink="http://www.w3.org/1999/xlink" width="756pt" height="288pt" viewBox="0 0 756 288" xmlns="http://www.w3.org/2000/svg" version="1.1">
 <metadata>
  <rdf:RDF xmlns:dc="http://purl.org/dc/elements/1.1/" xmlns:cc="http://creativecommons.org/ns#" xmlns:rdf="http://www.w3.org/1999/02/22-rdf-syntax-ns#">
   <cc:Work>
    <dc:type rdf:resource="http://purl.org/dc/dcmitype/StillImage"/>
    <dc:date>2026-04-28T07:46:57.921916</dc:date>
    <dc:format>image/svg+xml</dc:format>
    <dc:creator>
     <cc:Agent>
      <dc:title>Matplotlib v3.10.8, https://matplotlib.org/</dc:title>
     </cc:Agent>
    </dc:creator>
   </cc:Work>
  </rdf:RDF>
 </metadata>
 <defs>
  <style type="text/css">*{stroke-linejoin: round; stroke-linecap: butt}</style>
 </defs>
 <g id="figure_1">
  <g id="patch_1">
   <path d="M 0 288
L 756 288
L 756 0
L 0 0
z
" style="fill: #ffffff"/>
  </g>
  <g id="axes_1">
   <g id="patch_2">
    <path d="M 45.392344 232.71
L 332.076172 232.71
L 332.076172 54.969531
L 45.392344 54.969531
z
" style="fill: #ffffff"/>
   </g>
   <g id="matplotlib.axis_1">
    <g id="xtick_1">
     <g id="line2d_1">
      <path d="M 58.423427 232.71
" style="fill: none; stroke: #000000; stroke-width: 1.5; stroke-linecap: square"/>
      <defs>
       <path id="mc2886541c8" d="M 0 0
L 0 2.75
" style="stroke: #000000"/>
      </defs>
      <g>
       <use xlink:href="#mc2886541c8" x="58.423427" y="232.71" style="stroke: #000000"/>
      </g>
     </g>
     <g id="text_1">
      <text style="font-size: 11px; font-family: 'IBM Plex Sans'; text-anchor: middle; fill: #4d4d4d" x="58.423427" y="245.8" transform="rotate(-0 58.423427 245.8)">1</text>
     </g>
    </g>
    <g id="xtick_2">
     <g id="line2d_2">
      <path d="M 112.719606 232.71
" style="fill: none; stroke: #000000; stroke-width: 1.5; stroke-linecap: square"/>
      <g>
       <use xlink:href="#mc2886541c8" x="112.719606" y="232.71" style="stroke: #000000"/>
      </g>
     </g>
     <g id="text_2">
      <text style="font-size: 11px; font-family: 'IBM Plex Sans'; text-anchor: middle; fill: #4d4d4d" x="112.719606" y="245.8" transform="rotate(-0 112.719606 245.8)">6</text>
     </g>
    </g>
    <g id="xtick_3">
     <g id="line2d_3">
      <path d="M 177.875022 232.71
" style="fill: none; stroke: #000000; stroke-width: 1.5; stroke-linecap: square"/>
      <g>
       <use xlink:href="#mc2886541c8" x="177.875022" y="232.71" style="stroke: #000000"/>
      </g>
     </g>
     <g id="text_3">
      <text style="font-size: 11px; font-family: 'IBM Plex Sans'; text-anchor: middle; fill: #4d4d4d" x="177.875022" y="245.8" transform="rotate(-0 177.875022 245.8)">12</text>
     </g>
    </g>
    <g id="xtick_4">
     <g id="line2d_4">
      <path d="M 243.030437 232.71
" style="fill: none; stroke: #000000; stroke-width: 1.5; stroke-linecap: square"/>
      <g>
       <use xlink:href="#mc2886541c8" x="243.030437" y="232.71" style="stroke: #000000"/>
      </g>
     </g>
     <g id="text_4">
      <text style="font-size: 11px; font-family: 'IBM Plex Sans'; text-anchor: middle; fill: #4d4d4d" x="243.030437" y="245.8" transform="rotate(-0 243.030437 245.8)">18</text>
     </g>
    </g>
    <g id="xtick_5">
     <g id="line2d_5">
      <path d="M 308.185853 232.71
" style="fill: none; stroke: #000000; stroke-width: 1.5; stroke-linecap: square"/>
      <g>
       <use xlink:href="#mc2886541c8" x="308.185853" y="232.71" style="stroke: #000000"/>
      </g>
     </g>
     <g id="text_5">
      <text style="font-size: 11px; font-family: 'IBM Plex Sans'; text-anchor: middle; fill: #4d4d4d" x="308.185853" y="245.8" transform="rotate(-0 308.185853 245.8)">24</text>
     </g>
    </g>
    <g id="xtick_6">
     <g id="line2d_6">
      <path d="M 85.571517 232.71
" style="fill: none; stroke: #000000; stroke-width: 1.5; stroke-linecap: square"/>
      <defs>
       <path id="me028e19d95" d="M 0 0
L 0 1.375
" style="stroke: #000000"/>
      </defs>
      <g>
       <use xlink:href="#me028e19d95" x="85.571517" y="232.71" style="stroke: #000000"/>
      </g>
     </g>
    </g>
    <g id="xtick_7">
     <g id="line2d_7">
      <path d="M 145.297314 232.71
" style="fill: none; stroke: #000000; stroke-width: 1.5; stroke-linecap: square"/>
      <g>
       <use xlink:href="#me028e19d95" x="145.297314" y="232.71" style="stroke: #000000"/>
      </g>
     </g>
    </g>
    <g id="xtick_8">
     <g id="line2d_8">
      <path d="M 210.45273 232.71
" style="fill: none; stroke: #000000; stroke-width: 1.5; stroke-linecap: square"/>
      <g>
       <use xlink:href="#me028e19d95" x="210.45273" y="232.71" style="stroke: #000000"/>
      </g>
     </g>
    </g>
    <g id="xtick_9">
     <g id="line2d_9">
      <path d="M 275.608145 232.71
" style="fill: none; stroke: #000000; stroke-width: 1.5; stroke-linecap: square"/>
      <g>
       <use xlink:href="#me028e19d95" x="275.608145" y="232.71" style="stroke: #000000"/>
      </g>
     </g>
    </g>
   </g>
   <g id="matplotlib.axis_2">
    <g id="ytick_1">
     <g id="line2d_10">
      <path d="M 45.392344 232.71
L 332.076172 232.71
" clip-path="url(#pa732c7ca9f)" style="fill: none; stroke: #e5e5e5; stroke-linecap: square"/>
     </g>
     <g id="text_6">
      <text style="font-size: 11px; font-family: 'IBM Plex Sans'; text-anchor: start; fill: #4d4d4d" x="27" y="236.78" transform="rotate(-0 27 236.78)">0.0</text>
     </g>
    </g>
    <g id="ytick_2">
     <g id="line2d_11">
      <path d="M 45.392344 190.26154
L 332.076172 190.26154
" clip-path="url(#pa732c7ca9f)" style="fill: none; stroke: #e5e5e5; stroke-linecap: square"/>
     </g>
     <g id="text_7">
      <text style="font-size: 11px; font-family: 'IBM Plex Sans'; text-anchor: start; fill: #4d4d4d" x="27" y="194.33154" transform="rotate(-0 27 194.33154)">0.5</text>
     </g>
    </g>
    <g id="ytick_3">
     <g id="line2d_12">
      <path d="M 45.392344 147.81308
L 332.076172 147.81308
" clip-path="url(#pa732c7ca9f)" style="fill: none; stroke: #e5e5e5; stroke-linecap: square"/>
     </g>
     <g id="text_8">
      <text style="font-size: 11px; font-family: 'IBM Plex Sans'; text-anchor: start; fill: #4d4d4d" x="27" y="151.88308" transform="rotate(-0 27 151.88308)">1.0</text>
     </g>
    </g>
    <g id="ytick_4">
     <g id="line2d_13">
      <path d="M 45.392344 105.364619
L 332.076172 105.364619
" clip-path="url(#pa732c7ca9f)" style="fill: none; stroke: #e5e5e5; stroke-linecap: square"/>
     </g>
     <g id="text_9">
      <text style="font-size: 11px; font-family: 'IBM Plex Sans'; text-anchor: start; fill: #4d4d4d" x="27" y="109.434619" transform="rotate(-0 27 109.434619)">1.5</text>
     </g>
    </g>
    <g id="ytick_5">
     <g id="line2d_14">
      <path d="M 45.392344 62.916159
L 332.076172 62.916159
" clip-path="url(#pa732c7ca9f)" style="fill: none; stroke: #e5e5e5; stroke-linecap: square"/>
     </g>
     <g id="text_10">
      <text style="font-size: 11px; font-family: 'IBM Plex Sans'; text-anchor: start; fill: #4d4d4d" x="27" y="66.986159" transform="rotate(-0 27 66.986159)">2.0</text>
     </g>
    </g>
    <g id="ytick_6">
     <g id="line2d_15">
      <path d="M 45.392344 211.48577
L 332.076172 211.48577
" clip-path="url(#pa732c7ca9f)" style="fill: none; stroke: #fafafa; stroke-width: 0.5; stroke-linecap: square"/>
     </g>
    </g>
    <g id="ytick_7">
     <g id="line2d_16">
      <path d="M 45.392344 169.03731
L 332.076172 169.03731
" clip-path="url(#pa732c7ca9f)" style="fill: none; stroke: #fafafa; stroke-width: 0.5; stroke-linecap: square"/>
     </g>
    </g>
    <g id="ytick_8">
     <g id="line2d_17">
      <path d="M 45.392344 126.588849
L 332.076172 126.588849
" clip-path="url(#pa732c7ca9f)" style="fill: none; stroke: #fafafa; stroke-width: 0.5; stroke-linecap: square"/>
     </g>
    </g>
    <g id="ytick_9">
     <g id="line2d_18">
      <path d="M 45.392344 84.140389
L 332.076172 84.140389
" clip-path="url(#pa732c7ca9f)" style="fill: none; stroke: #fafafa; stroke-width: 0.5; stroke-linecap: square"/>
     </g>
    </g>
   </g>
   <g id="PolyCollection_1">
    <path d="M 58.423427 232.71
L 58.423427 229.27055
L 69.282663 229.27055
L 69.282663 232.71
z
" clip-path="url(#pa732c7ca9f)" style="fill: #fc9706"/>
    <path d="M 58.423427 229.27055
L 58.423427 229.27055
L 69.282663 229.27055
L 69.282663 229.27055
z
" clip-path="url(#pa732c7ca9f)" style="fill: #ffc729"/>
    <path d="M 58.423427 229.27055
L 58.423427 229.27055
L 69.282663 229.27055
L 69.282663 229.27055
z
" clip-path="url(#pa732c7ca9f)" style="fill: #68bed8"/>
    <path d="M 58.423427 229.27055
L 58.423427 229.27055
L 69.282663 229.27055
L 69.282663 229.27055
z
" clip-path="url(#pa732c7ca9f)" style="fill: #023047"/>
    <path d="M 69.282663 232.71
L 69.282663 229.718679
L 80.141899 229.718679
L 80.141899 232.71
z
" clip-path="url(#pa732c7ca9f)" style="fill: #fc9706"/>
    <path d="M 69.282663 229.718679
L 69.282663 229.718679
L 80.141899 229.718679
L 80.141899 229.718679
z
" clip-path="url(#pa732c7ca9f)" style="fill: #ffc729"/>
    <path d="M 69.282663 229.718679
L 69.282663 229.718679
L 80.141899 229.718679
L 80.141899 229.718679
z
" clip-path="url(#pa732c7ca9f)" style="fill: #68bed8"/>
    <path d="M 69.282663 229.718679
L 69.282663 229.718679
L 80.141899 229.718679
L 80.141899 229.718679
z
" clip-path="url(#pa732c7ca9f)" style="fill: #023047"/>
    <path d="M 80.141899 232.71
L 80.141899 229.929822
L 91.001135 229.929822
L 91.001135 232.71
z
" clip-path="url(#pa732c7ca9f)" style="fill: #fc9706"/>
    <path d="M 80.141899 229.929822
L 80.141899 229.929822
L 91.001135 229.929822
L 91.001135 229.929822
z
" clip-path="url(#pa732c7ca9f)" style="fill: #ffc729"/>
    <path d="M 80.141899 229.929822
L 80.141899 229.929822
L 91.001135 229.929822
L 91.001135 229.929822
z
" clip-path="url(#pa732c7ca9f)" style="fill: #68bed8"/>
    <path d="M 80.141899 229.929822
L 80.141899 229.929822
L 91.001135 229.929822
L 91.001135 229.929822
z
" clip-path="url(#pa732c7ca9f)" style="fill: #023047"/>
    <path d="M 91.001135 232.71
L 91.001135 230.049769
L 101.860371 230.049769
L 101.860371 232.71
z
" clip-path="url(#pa732c7ca9f)" style="fill: #fc9706"/>
    <path d="M 91.001135 230.049769
L 91.001135 230.049769
L 101.860371 230.049769
L 101.860371 230.049769
z
" clip-path="url(#pa732c7ca9f)" style="fill: #ffc729"/>
    <path d="M 91.001135 230.049769
L 91.001135 230.049769
L 101.860371 230.049769
L 101.860371 230.049769
z
" clip-path="url(#pa732c7ca9f)" style="fill: #68bed8"/>
    <path d="M 91.001135 230.049769
L 91.001135 230.049769
L 101.860371 230.049769
L 101.860371 230.049769
z
" clip-path="url(#pa732c7ca9f)" style="fill: #023047"/>
    <path d="M 101.860371 232.71
L 101.860371 230.072366
L 112.719606 230.072366
L 112.719606 232.71
z
" clip-path="url(#pa732c7ca9f)" style="fill: #fc9706"/>
    <path d="M 101.860371 230.072366
L 101.860371 230.072366
L 112.719606 230.072366
L 112.719606 230.072366
z
" clip-path="url(#pa732c7ca9f)" style="fill: #ffc729"/>
    <path d="M 101.860371 230.072366
L 101.860371 230.072366
L 112.719606 230.072366
L 112.719606 230.072366
z
" clip-path="url(#pa732c7ca9f)" style="fill: #68bed8"/>
    <path d="M 101.860371 230.072366
L 101.860371 230.072366
L 112.719606 230.072366
L 112.719606 230.072366
z
" clip-path="url(#pa732c7ca9f)" style="fill: #023047"/>
    <path d="M 112.719606 232.71
L 112.719606 229.889635
L 123.578842 229.889635
L 123.578842 232.71
z
" clip-path="url(#pa732c7ca9f)" style="fill: #fc9706"/>
    <path d="M 112.719606 229.889635
L 112.719606 229.889635
L 123.578842 229.889635
L 123.578842 229.889635
z
" clip-path="url(#pa732c7ca9f)" style="fill: #ffc729"/>
    <path d="M 112.719606 229.889635
L 112.719606 229.889635
L 123.578842 229.889635
L 123.578842 229.889635
z
" clip-path="url(#pa732c7ca9f)" style="fill: #68bed8"/>
    <path d="M 112.719606 229.889635
L 112.719606 229.889635
L 123.578842 229.889635
L 123.578842 229.889635
z
" clip-path="url(#pa732c7ca9f)" style="fill: #023047"/>
    <path d="M 123.578842 232.71
L 123.578842 229.663034
L 134.438078 229.663034
L 134.438078 232.71
z
" clip-path="url(#pa732c7ca9f)" style="fill: #fc9706"/>
    <path d="M 123.578842 229.663034
L 123.578842 229.663034
L 134.438078 229.663034
L 134.438078 229.663034
z
" clip-path="url(#pa732c7ca9f)" style="fill: #ffc729"/>
    <path d="M 123.578842 229.663034
L 123.578842 229.663034
L 134.438078 229.663034
L 134.438078 229.663034
z
" clip-path="url(#pa732c7ca9f)" style="fill: #68bed8"/>
    <path d="M 123.578842 229.663034
L 123.578842 229.663034
L 134.438078 229.663034
L 134.438078 229.663034
z
" clip-path="url(#pa732c7ca9f)" style="fill: #023047"/>
    <path d="M 134.438078 232.71
L 134.438078 229.630202
L 145.297314 229.630202
L 145.297314 232.71
z
" clip-path="url(#pa732c7ca9f)" style="fill: #fc9706"/>
    <path d="M 134.438078 229.630202
L 134.438078 229.630202
L 145.297314 229.630202
L 145.297314 229.630202
z
" clip-path="url(#pa732c7ca9f)" style="fill: #ffc729"/>
    <path d="M 134.438078 229.630202
L 134.438078 229.630202
L 145.297314 229.630202
L 145.297314 229.630202
z
" clip-path="url(#pa732c7ca9f)" style="fill: #68bed8"/>
    <path d="M 134.438078 229.630202
L 134.438078 229.630202
L 145.297314 229.630202
L 145.297314 229.630202
z
" clip-path="url(#pa732c7ca9f)" style="fill: #023047"/>
    <path d="M 145.297314 232.71
L 145.297314 229.742992
L 156.15655 229.742992
L 156.15655 232.71
z
" clip-path="url(#pa732c7ca9f)" style="fill: #fc9706"/>
    <path d="M 145.297314 229.742992
L 145.297314 229.742992
L 156.15655 229.742992
L 156.15655 229.742992
z
" clip-path="url(#pa732c7ca9f)" style="fill: #ffc729"/>
    <path d="M 145.297314 229.742992
L 145.297314 229.742992
L 156.15655 229.742992
L 156.15655 229.742992
z
" clip-path="url(#pa732c7ca9f)" style="fill: #68bed8"/>
    <path d="M 145.297314 229.742992
L 145.297314 229.742992
L 156.15655 229.742992
L 156.15655 229.742992
z
" clip-path="url(#pa732c7ca9f)" style="fill: #023047"/>
    <path d="M 156.15655 232.71
L 156.15655 229.57944
L 167.015786 229.57944
L 167.015786 232.71
z
" clip-path="url(#pa732c7ca9f)" style="fill: #fc9706"/>
    <path d="M 156.15655 229.57944
L 156.15655 229.57944
L 167.015786 229.57944
L 167.015786 229.57944
z
" clip-path="url(#pa732c7ca9f)" style="fill: #ffc729"/>
    <path d="M 156.15655 229.57944
L 156.15655 229.57944
L 167.015786 229.57944
L 167.015786 229.57944
z
" clip-path="url(#pa732c7ca9f)" style="fill: #68bed8"/>
    <path d="M 156.15655 229.57944
L 156.15655 229.57944
L 167.015786 229.57944
L 167.015786 229.57944
z
" clip-path="url(#pa732c7ca9f)" style="fill: #023047"/>
    <path d="M 167.015786 232.71
L 167.015786 229.445235
L 177.875022 229.445235
L 177.875022 232.71
z
" clip-path="url(#pa732c7ca9f)" style="fill: #fc9706"/>
    <path d="M 167.015786 229.445235
L 167.015786 229.445235
L 177.875022 229.445235
L 177.875022 229.445235
z
" clip-path="url(#pa732c7ca9f)" style="fill: #ffc729"/>
    <path d="M 167.015786 229.445235
L 167.015786 229.445235
L 177.875022 229.445235
L 177.875022 229.445235
z
" clip-path="url(#pa732c7ca9f)" style="fill: #68bed8"/>
    <path d="M 167.015786 229.445235
L 167.015786 229.445235
L 177.875022 229.445235
L 177.875022 229.445235
z
" clip-path="url(#pa732c7ca9f)" style="fill: #023047"/>
    <path d="M 177.875022 232.71
L 177.875022 229.183493
L 188.734258 229.183493
L 188.734258 232.71
z
" clip-path="url(#pa732c7ca9f)" style="fill: #fc9706"/>
    <path d="M 177.875022 229.183493
L 177.875022 229.183493
L 188.734258 229.183493
L 188.734258 229.183493
z
" clip-path="url(#pa732c7ca9f)" style="fill: #ffc729"/>
    <path d="M 177.875022 229.183493
L 177.875022 229.183493
L 188.734258 229.183493
L 188.734258 229.183493
z
" clip-path="url(#pa732c7ca9f)" style="fill: #68bed8"/>
    <path d="M 177.875022 229.183493
L 177.875022 229.183493
L 188.734258 229.183493
L 188.734258 229.183493
z
" clip-path="url(#pa732c7ca9f)" style="fill: #023047"/>
    <path d="M 188.734258 232.71
L 188.734258 228.882613
L 199.593494 228.882613
L 199.593494 232.71
z
" clip-path="url(#pa732c7ca9f)" style="fill: #fc9706"/>
    <path d="M 188.734258 228.882613
L 188.734258 228.882613
L 199.593494 228.882613
L 199.593494 228.882613
z
" clip-path="url(#pa732c7ca9f)" style="fill: #ffc729"/>
    <path d="M 188.734258 228.882613
L 188.734258 228.882613
L 199.593494 228.882613
L 199.593494 228.882613
z
" clip-path="url(#pa732c7ca9f)" style="fill: #68bed8"/>
    <path d="M 188.734258 228.882613
L 188.734258 228.882613
L 199.593494 228.882613
L 199.593494 228.882613
z
" clip-path="url(#pa732c7ca9f)" style="fill: #023047"/>
    <path d="M 199.593494 232.71
L 199.593494 228.541962
L 210.45273 228.541962
L 210.45273 232.71
z
" clip-path="url(#pa732c7ca9f)" style="fill: #fc9706"/>
    <path d="M 199.593494 228.541962
L 199.593494 228.541962
L 210.45273 228.541962
L 210.45273 228.541962
z
" clip-path="url(#pa732c7ca9f)" style="fill: #ffc729"/>
    <path d="M 199.593494 228.541962
L 199.593494 228.541962
L 210.45273 228.541962
L 210.45273 228.541962
z
" clip-path="url(#pa732c7ca9f)" style="fill: #68bed8"/>
    <path d="M 199.593494 228.541962
L 199.593494 228.541962
L 210.45273 228.541962
L 210.45273 228.541962
z
" clip-path="url(#pa732c7ca9f)" style="fill: #023047"/>
    <path d="M 210.45273 232.71
L 210.45273 228.443675
L 221.311966 228.443675
L 221.311966 232.71
z
" clip-path="url(#pa732c7ca9f)" style="fill: #fc9706"/>
    <path d="M 210.45273 228.443675
L 210.45273 228.443675
L 221.311966 228.443675
L 221.311966 228.443675
z
" clip-path="url(#pa732c7ca9f)" style="fill: #ffc729"/>
    <path d="M 210.45273 228.443675
L 210.45273 228.443675
L 221.311966 228.443675
L 221.311966 228.443675
z
" clip-path="url(#pa732c7ca9f)" style="fill: #68bed8"/>
    <path d="M 210.45273 228.443675
L 210.45273 228.443675
L 221.311966 228.443675
L 221.311966 228.443675
z
" clip-path="url(#pa732c7ca9f)" style="fill: #023047"/>
    <path d="M 221.311966 232.71
L 221.311966 227.769157
L 232.171201 227.769157
L 232.171201 232.71
z
" clip-path="url(#pa732c7ca9f)" style="fill: #fc9706"/>
    <path d="M 221.311966 227.769157
L 221.311966 227.769157
L 232.171201 227.769157
L 232.171201 227.769157
z
" clip-path="url(#pa732c7ca9f)" style="fill: #ffc729"/>
    <path d="M 221.311966 227.769157
L 221.311966 227.769157
L 232.171201 227.769157
L 232.171201 227.769157
z
" clip-path="url(#pa732c7ca9f)" style="fill: #68bed8"/>
    <path d="M 221.311966 227.769157
L 221.311966 227.692272
L 232.171201 227.692272
L 232.171201 227.769157
z
" clip-path="url(#pa732c7ca9f)" style="fill: #023047"/>
    <path d="M 232.171201 232.71
L 232.171201 228.123057
L 243.030437 228.123057
L 243.030437 232.71
z
" clip-path="url(#pa732c7ca9f)" style="fill: #fc9706"/>
    <path d="M 232.171201 228.123057
L 232.171201 228.123057
L 243.030437 228.123057
L 243.030437 228.123057
z
" clip-path="url(#pa732c7ca9f)" style="fill: #ffc729"/>
    <path d="M 232.171201 228.123057
L 232.171201 228.123057
L 243.030437 228.123057
L 243.030437 228.123057
z
" clip-path="url(#pa732c7ca9f)" style="fill: #68bed8"/>
    <path d="M 232.171201 228.123057
L 232.171201 227.925876
L 243.030437 227.925876
L 243.030437 228.123057
z
" clip-path="url(#pa732c7ca9f)" style="fill: #023047"/>
    <path d="M 243.030437 232.71
L 243.030437 226.576478
L 253.889673 226.576478
L 253.889673 232.71
z
" clip-path="url(#pa732c7ca9f)" style="fill: #fc9706"/>
    <path d="M 243.030437 226.576478
L 243.030437 226.576478
L 253.889673 226.576478
L 253.889673 226.576478
z
" clip-path="url(#pa732c7ca9f)" style="fill: #ffc729"/>
    <path d="M 243.030437 226.576478
L 243.030437 226.576478
L 253.889673 226.576478
L 253.889673 226.576478
z
" clip-path="url(#pa732c7ca9f)" style="fill: #68bed8"/>
    <path d="M 243.030437 226.576478
L 243.030437 226.217571
L 253.889673 226.217571
L 253.889673 226.576478
z
" clip-path="url(#pa732c7ca9f)" style="fill: #023047"/>
    <path d="M 253.889673 232.71
L 253.889673 226.378769
L 264.748909 226.378769
L 264.748909 232.71
z
" clip-path="url(#pa732c7ca9f)" style="fill: #fc9706"/>
    <path d="M 253.889673 226.378769
L 253.889673 226.378769
L 264.748909 226.378769
L 264.748909 226.378769
z
" clip-path="url(#pa732c7ca9f)" style="fill: #ffc729"/>
    <path d="M 253.889673 226.378769
L 253.889673 226.378769
L 264.748909 226.378769
L 264.748909 226.378769
z
" clip-path="url(#pa732c7ca9f)" style="fill: #68bed8"/>
    <path d="M 253.889673 226.378769
L 253.889673 225.90341
L 264.748909 225.90341
L 264.748909 226.378769
z
" clip-path="url(#pa732c7ca9f)" style="fill: #023047"/>
    <path d="M 264.748909 232.71
L 264.748909 226.368598
L 275.608145 226.368598
L 275.608145 232.71
z
" clip-path="url(#pa732c7ca9f)" style="fill: #fc9706"/>
    <path d="M 264.748909 226.368598
L 264.748909 226.368598
L 275.608145 226.368598
L 275.608145 226.368598
z
" clip-path="url(#pa732c7ca9f)" style="fill: #ffc729"/>
    <path d="M 264.748909 226.368598
L 264.748909 226.368598
L 275.608145 226.368598
L 275.608145 226.368598
z
" clip-path="url(#pa732c7ca9f)" style="fill: #68bed8"/>
    <path d="M 264.748909 226.368598
L 264.748909 226.088957
L 275.608145 226.088957
L 275.608145 226.368598
z
" clip-path="url(#pa732c7ca9f)" style="fill: #023047"/>
    <path d="M 275.608145 232.71
L 275.608145 227.236105
L 286.467381 227.236105
L 286.467381 232.71
z
" clip-path="url(#pa732c7ca9f)" style="fill: #fc9706"/>
    <path d="M 275.608145 227.236105
L 275.608145 227.236105
L 286.467381 227.236105
L 286.467381 227.236105
z
" clip-path="url(#pa732c7ca9f)" style="fill: #ffc729"/>
    <path d="M 275.608145 227.236105
L 275.608145 227.236105
L 286.467381 227.236105
L 286.467381 227.236105
z
" clip-path="url(#pa732c7ca9f)" style="fill: #68bed8"/>
    <path d="M 275.608145 227.236105
L 275.608145 227.078647
L 286.467381 227.078647
L 286.467381 227.236105
z
" clip-path="url(#pa732c7ca9f)" style="fill: #023047"/>
    <path d="M 286.467381 232.71
L 286.467381 227.915051
L 297.326617 227.915051
L 297.326617 232.71
z
" clip-path="url(#pa732c7ca9f)" style="fill: #fc9706"/>
    <path d="M 286.467381 227.915051
L 286.467381 227.915051
L 297.326617 227.915051
L 297.326617 227.915051
z
" clip-path="url(#pa732c7ca9f)" style="fill: #ffc729"/>
    <path d="M 286.467381 227.915051
L 286.467381 227.915051
L 297.326617 227.915051
L 297.326617 227.915051
z
" clip-path="url(#pa732c7ca9f)" style="fill: #68bed8"/>
    <path d="M 286.467381 227.915051
L 286.467381 227.839123
L 297.326617 227.839123
L 297.326617 227.915051
z
" clip-path="url(#pa732c7ca9f)" style="fill: #023047"/>
    <path d="M 297.326617 232.71
L 297.326617 228.551222
L 308.185853 228.551222
L 308.185853 232.71
z
" clip-path="url(#pa732c7ca9f)" style="fill: #fc9706"/>
    <path d="M 297.326617 228.551222
L 297.326617 228.551222
L 308.185853 228.551222
L 308.185853 228.551222
z
" clip-path="url(#pa732c7ca9f)" style="fill: #ffc729"/>
    <path d="M 297.326617 228.551222
L 297.326617 228.551222
L 308.185853 228.551222
L 308.185853 228.551222
z
" clip-path="url(#pa732c7ca9f)" style="fill: #68bed8"/>
    <path d="M 297.326617 228.551222
L 297.326617 228.551222
L 308.185853 228.551222
L 308.185853 228.551222
z
" clip-path="url(#pa732c7ca9f)" style="fill: #023047"/>
    <path d="M 308.185853 232.71
L 308.185853 229.183032
L 319.045089 229.183032
L 319.045089 232.71
z
" clip-path="url(#pa732c7ca9f)" style="fill: #fc9706"/>
    <path d="M 308.185853 229.183032
L 308.185853 229.183032
L 319.045089 229.183032
L 319.045089 229.183032
z
" clip-path="url(#pa732c7ca9f)" style="fill: #ffc729"/>
    <path d="M 308.185853 229.183032
L 308.185853 229.183032
L 319.045089 229.183032
L 319.045089 229.183032
z
" clip-path="url(#pa732c7ca9f)" style="fill: #68bed8"/>
    <path d="M 308.185853 229.183032
L 308.185853 229.183032
L 319.045089 229.183032
L 319.045089 229.183032
z
" clip-path="url(#pa732c7ca9f)" style="fill: #023047"/>
   </g>
   <g id="line2d_19">
    <path d="M 58.423427 223.699247
L 69.282663 223.699247
L 69.282663 223.699247
L 80.141899 223.699247
L 80.141899 223.699247
L 91.001135 223.699247
L 91.001135 223.699247
L 101.860371 223.699247
L 101.860371 223.699247
L 112.719606 223.699247
L 112.719606 223.699247
L 123.578842 223.699247
L 123.578842 223.699247
L 134.438078 223.699247
L 134.438078 223.699247
L 145.297314 223.699247
L 145.297314 223.699247
L 156.15655 223.699247
L 156.15655 223.699247
L 167.015786 223.699247
L 167.015786 223.699247
L 177.875022 223.699247
L 177.875022 223.699247
L 188.734258 223.699247
L 188.734258 223.699247
L 199.593494 223.699247
L 199.593494 223.699247
L 210.45273 223.699247
L 210.45273 223.699247
L 221.311966 223.699247
L 221.311966 205.285773
L 232.171201 205.285773
L 232.171201 205.285773
L 243.030437 205.285773
L 243.030437 205.285773
L 253.889673 205.285773
L 253.889673 205.285773
L 264.748909 205.285773
L 264.748909 205.285773
L 275.608145 205.285773
L 275.608145 223.699247
L 286.467381 223.699247
L 286.467381 223.699247
L 297.326617 223.699247
L 297.326617 223.699247
L 308.185853 223.699247
L 308.185853 223.699247
" clip-path="url(#pa732c7ca9f)" style="fill: none; stroke: #000000; stroke-width: 1.240718; stroke-linejoin: miter"/>
   </g>
   <g id="text_11">
    <g clip-path="url(#pa732c7ca9f)">
     <text style="font-size: 9px; font-family: 'IBM Plex Sans'; text-anchor: middle" x="101.860371" y="221.729453" transform="rotate(-0 101.860371 221.729453)">Off-peak: $0.106</text>
    </g>
   </g>
   <g id="text_12">
    <g clip-path="url(#pa732c7ca9f)">
     <text style="font-size: 9px; font-family: 'IBM Plex Sans'; text-anchor: middle" x="243.030437" y="203.315979" transform="rotate(-0 243.030437 203.315979)">On-peak: $0.323</text>
    </g>
   </g>
   <g id="patch_3">
    <path d="M 45.392344 232.71
L 332.076172 232.71
" style="fill: none; stroke: #000000; stroke-width: 0.5; stroke-linejoin: miter; stroke-linecap: square"/>
   </g>
  </g>
  <g id="axes_2">
   <g id="patch_4">
    <path d="M 339.636172 232.71
L 626.32 232.71
L 626.32 54.969531
L 339.636172 54.969531
z
" style="fill: #ffffff"/>
   </g>
   <g id="matplotlib.axis_3">
    <g id="xtick_10">
     <g id="line2d_20">
      <path d="M 352.667255 232.71
" style="fill: none; stroke: #000000; stroke-width: 1.5; stroke-linecap: square"/>
      <g>
       <use xlink:href="#mc2886541c8" x="352.667255" y="232.71" style="stroke: #000000"/>
      </g>
     </g>
     <g id="text_13">
      <text style="font-size: 11px; font-family: 'IBM Plex Sans'; text-anchor: middle; fill: #4d4d4d" x="352.667255" y="245.8" transform="rotate(-0 352.667255 245.8)">1</text>
     </g>
    </g>
    <g id="xtick_11">
     <g id="line2d_21">
      <path d="M 406.963435 232.71
" style="fill: none; stroke: #000000; stroke-width: 1.5; stroke-linecap: square"/>
      <g>
       <use xlink:href="#mc2886541c8" x="406.963435" y="232.71" style="stroke: #000000"/>
      </g>
     </g>
     <g id="text_14">
      <text style="font-size: 11px; font-family: 'IBM Plex Sans'; text-anchor: middle; fill: #4d4d4d" x="406.963435" y="245.8" transform="rotate(-0 406.963435 245.8)">6</text>
     </g>
    </g>
    <g id="xtick_12">
     <g id="line2d_22">
      <path d="M 472.11885 232.71
" style="fill: none; stroke: #000000; stroke-width: 1.5; stroke-linecap: square"/>
      <g>
       <use xlink:href="#mc2886541c8" x="472.11885" y="232.71" style="stroke: #000000"/>
      </g>
     </g>
     <g id="text_15">
      <text style="font-size: 11px; font-family: 'IBM Plex Sans'; text-anchor: middle; fill: #4d4d4d" x="472.11885" y="245.8" transform="rotate(-0 472.11885 245.8)">12</text>
     </g>
    </g>
    <g id="xtick_13">
     <g id="line2d_23">
      <path d="M 537.274266 232.71
" style="fill: none; stroke: #000000; stroke-width: 1.5; stroke-linecap: square"/>
      <g>
       <use xlink:href="#mc2886541c8" x="537.274266" y="232.71" style="stroke: #000000"/>
      </g>
     </g>
     <g id="text_16">
      <text style="font-size: 11px; font-family: 'IBM Plex Sans'; text-anchor: middle; fill: #4d4d4d" x="537.274266" y="245.8" transform="rotate(-0 537.274266 245.8)">18</text>
     </g>
    </g>
    <g id="xtick_14">
     <g id="line2d_24">
      <path d="M 602.429681 232.71
" style="fill: none; stroke: #000000; stroke-width: 1.5; stroke-linecap: square"/>
      <g>
       <use xlink:href="#mc2886541c8" x="602.429681" y="232.71" style="stroke: #000000"/>
      </g>
     </g>
     <g id="text_17">
      <text style="font-size: 11px; font-family: 'IBM Plex Sans'; text-anchor: middle; fill: #4d4d4d" x="602.429681" y="245.8" transform="rotate(-0 602.429681 245.8)">24</text>
     </g>
    </g>
    <g id="xtick_15">
     <g id="line2d_25">
      <path d="M 379.815345 232.71
" style="fill: none; stroke: #000000; stroke-width: 1.5; stroke-linecap: square"/>
      <g>
       <use xlink:href="#me028e19d95" x="379.815345" y="232.71" style="stroke: #000000"/>
      </g>
     </g>
    </g>
    <g id="xtick_16">
     <g id="line2d_26">
      <path d="M 439.541142 232.71
" style="fill: none; stroke: #000000; stroke-width: 1.5; stroke-linecap: square"/>
      <g>
       <use xlink:href="#me028e19d95" x="439.541142" y="232.71" style="stroke: #000000"/>
      </g>
     </g>
    </g>
    <g id="xtick_17">
     <g id="line2d_27">
      <path d="M 504.696558 232.71
" style="fill: none; stroke: #000000; stroke-width: 1.5; stroke-linecap: square"/>
      <g>
       <use xlink:href="#me028e19d95" x="504.696558" y="232.71" style="stroke: #000000"/>
      </g>
     </g>
    </g>
    <g id="xtick_18">
     <g id="line2d_28">
      <path d="M 569.851973 232.71
" style="fill: none; stroke: #000000; stroke-width: 1.5; stroke-linecap: square"/>
      <g>
       <use xlink:href="#me028e19d95" x="569.851973" y="232.71" style="stroke: #000000"/>
      </g>
     </g>
    </g>
   </g>
   <g id="matplotlib.axis_4">
    <g id="ytick_10">
     <g id="line2d_29">
      <path d="M 339.636172 232.71
L 626.32 232.71
" clip-path="url(#p599f28091a)" style="fill: none; stroke: #e5e5e5; stroke-linecap: square"/>
     </g>
    </g>
    <g id="ytick_11">
     <g id="line2d_30">
      <path d="M 339.636172 190.26154
L 626.32 190.26154
" clip-path="url(#p599f28091a)" style="fill: none; stroke: #e5e5e5; stroke-linecap: square"/>
     </g>
    </g>
    <g id="ytick_12">
     <g id="line2d_31">
      <path d="M 339.636172 147.81308
L 626.32 147.81308
" clip-path="url(#p599f28091a)" style="fill: none; stroke: #e5e5e5; stroke-linecap: square"/>
     </g>
    </g>
    <g id="ytick_13">
     <g id="line2d_32">
      <path d="M 339.636172 105.364619
L 626.32 105.364619
" clip-path="url(#p599f28091a)" style="fill: none; stroke: #e5e5e5; stroke-linecap: square"/>
     </g>
    </g>
    <g id="ytick_14">
     <g id="line2d_33">
      <path d="M 339.636172 62.916159
L 626.32 62.916159
" clip-path="url(#p599f28091a)" style="fill: none; stroke: #e5e5e5; stroke-linecap: square"/>
     </g>
    </g>
    <g id="ytick_15">
     <g id="line2d_34">
      <path d="M 339.636172 211.48577
L 626.32 211.48577
" clip-path="url(#p599f28091a)" style="fill: none; stroke: #fafafa; stroke-width: 0.5; stroke-linecap: square"/>
     </g>
    </g>
    <g id="ytick_16">
     <g id="line2d_35">
      <path d="M 339.636172 169.03731
L 626.32 169.03731
" clip-path="url(#p599f28091a)" style="fill: none; stroke: #fafafa; stroke-width: 0.5; stroke-linecap: square"/>
     </g>
    </g>
    <g id="ytick_17">
     <g id="line2d_36">
      <path d="M 339.636172 126.588849
L 626.32 126.588849
" clip-path="url(#p599f28091a)" style="fill: none; stroke: #fafafa; stroke-width: 0.5; stroke-linecap: square"/>
     </g>
    </g>
    <g id="ytick_18">
     <g id="line2d_37">
      <path d="M 339.636172 84.140389
L 626.32 84.140389
" clip-path="url(#p599f28091a)" style="fill: none; stroke: #fafafa; stroke-width: 0.5; stroke-linecap: square"/>
     </g>
    </g>
   </g>
   <g id="PolyCollection_2">
    <path d="M 352.667255 232.71
L 352.667255 227.494633
L 363.526491 227.494633
L 363.526491 232.71
z
" clip-path="url(#p599f28091a)" style="fill: #fc9706"/>
    <path d="M 352.667255 227.494633
L 352.667255 227.494633
L 363.526491 227.494633
L 363.526491 227.494633
z
" clip-path="url(#p599f28091a)" style="fill: #ffc729"/>
    <path d="M 352.667255 227.494633
L 352.667255 227.494633
L 363.526491 227.494633
L 363.526491 227.494633
z
" clip-path="url(#p599f28091a)" style="fill: #68bed8"/>
    <path d="M 352.667255 227.494633
L 352.667255 227.494633
L 363.526491 227.494633
L 363.526491 227.494633
z
" clip-path="url(#p599f28091a)" style="fill: #023047"/>
    <path d="M 363.526491 232.71
L 363.526491 227.792326
L 374.385727 227.792326
L 374.385727 232.71
z
" clip-path="url(#p599f28091a)" style="fill: #fc9706"/>
    <path d="M 363.526491 227.792326
L 363.526491 227.792326
L 374.385727 227.792326
L 374.385727 227.792326
z
" clip-path="url(#p599f28091a)" style="fill: #ffc729"/>
    <path d="M 363.526491 227.792326
L 363.526491 227.792326
L 374.385727 227.792326
L 374.385727 227.792326
z
" clip-path="url(#p599f28091a)" style="fill: #68bed8"/>
    <path d="M 363.526491 227.792326
L 363.526491 227.792326
L 374.385727 227.792326
L 374.385727 227.792326
z
" clip-path="url(#p599f28091a)" style="fill: #023047"/>
    <path d="M 374.385727 232.71
L 374.385727 228.169419
L 385.244963 228.169419
L 385.244963 232.71
z
" clip-path="url(#p599f28091a)" style="fill: #fc9706"/>
    <path d="M 374.385727 228.169419
L 374.385727 228.169419
L 385.244963 228.169419
L 385.244963 228.169419
z
" clip-path="url(#p599f28091a)" style="fill: #ffc729"/>
    <path d="M 374.385727 228.169419
L 374.385727 228.169419
L 385.244963 228.169419
L 385.244963 228.169419
z
" clip-path="url(#p599f28091a)" style="fill: #68bed8"/>
    <path d="M 374.385727 228.169419
L 374.385727 228.169419
L 385.244963 228.169419
L 385.244963 228.169419
z
" clip-path="url(#p599f28091a)" style="fill: #023047"/>
    <path d="M 385.244963 232.71
L 385.244963 228.727004
L 396.104199 228.727004
L 396.104199 232.71
z
" clip-path="url(#p599f28091a)" style="fill: #fc9706"/>
    <path d="M 385.244963 228.727004
L 385.244963 228.727004
L 396.104199 228.727004
L 396.104199 228.727004
z
" clip-path="url(#p599f28091a)" style="fill: #ffc729"/>
    <path d="M 385.244963 228.727004
L 385.244963 228.727004
L 396.104199 228.727004
L 396.104199 228.727004
z
" clip-path="url(#p599f28091a)" style="fill: #68bed8"/>
    <path d="M 385.244963 228.727004
L 385.244963 228.727004
L 396.104199 228.727004
L 396.104199 228.727004
z
" clip-path="url(#p599f28091a)" style="fill: #023047"/>
    <path d="M 396.104199 232.71
L 396.104199 228.809616
L 406.963435 228.809616
L 406.963435 232.71
z
" clip-path="url(#p599f28091a)" style="fill: #fc9706"/>
    <path d="M 396.104199 228.809616
L 396.104199 228.809616
L 406.963435 228.809616
L 406.963435 228.809616
z
" clip-path="url(#p599f28091a)" style="fill: #ffc729"/>
    <path d="M 396.104199 228.809616
L 396.104199 228.809616
L 406.963435 228.809616
L 406.963435 228.809616
z
" clip-path="url(#p599f28091a)" style="fill: #68bed8"/>
    <path d="M 396.104199 228.809616
L 396.104199 228.809616
L 406.963435 228.809616
L 406.963435 228.809616
z
" clip-path="url(#p599f28091a)" style="fill: #023047"/>
    <path d="M 406.963435 232.71
L 406.963435 228.647265
L 417.82267 228.647265
L 417.82267 232.71
z
" clip-path="url(#p599f28091a)" style="fill: #fc9706"/>
    <path d="M 406.963435 228.647265
L 406.963435 228.647265
L 417.82267 228.647265
L 417.82267 228.647265
z
" clip-path="url(#p599f28091a)" style="fill: #ffc729"/>
    <path d="M 406.963435 228.647265
L 406.963435 228.647265
L 417.82267 228.647265
L 417.82267 228.647265
z
" clip-path="url(#p599f28091a)" style="fill: #68bed8"/>
    <path d="M 406.963435 228.647265
L 406.963435 228.647265
L 417.82267 228.647265
L 417.82267 228.647265
z
" clip-path="url(#p599f28091a)" style="fill: #023047"/>
    <path d="M 417.82267 232.71
L 417.82267 228.171248
L 428.681906 228.171248
L 428.681906 232.71
z
" clip-path="url(#p599f28091a)" style="fill: #fc9706"/>
    <path d="M 417.82267 228.171248
L 417.82267 228.171248
L 428.681906 228.171248
L 428.681906 228.171248
z
" clip-path="url(#p599f28091a)" style="fill: #ffc729"/>
    <path d="M 417.82267 228.171248
L 417.82267 228.171248
L 428.681906 228.171248
L 428.681906 228.171248
z
" clip-path="url(#p599f28091a)" style="fill: #68bed8"/>
    <path d="M 417.82267 228.171248
L 417.82267 228.171248
L 428.681906 228.171248
L 428.681906 228.171248
z
" clip-path="url(#p599f28091a)" style="fill: #023047"/>
    <path d="M 428.681906 232.71
L 428.681906 227.938562
L 439.541142 227.938562
L 439.541142 232.71
z
" clip-path="url(#p599f28091a)" style="fill: #fc9706"/>
    <path d="M 428.681906 227.938562
L 428.681906 227.938562
L 439.541142 227.938562
L 439.541142 227.938562
z
" clip-path="url(#p599f28091a)" style="fill: #ffc729"/>
    <path d="M 428.681906 227.938562
L 428.681906 227.938562
L 439.541142 227.938562
L 439.541142 227.938562
z
" clip-path="url(#p599f28091a)" style="fill: #68bed8"/>
    <path d="M 428.681906 227.938562
L 428.681906 227.938562
L 439.541142 227.938562
L 439.541142 227.938562
z
" clip-path="url(#p599f28091a)" style="fill: #023047"/>
    <path d="M 439.541142 232.71
L 439.541142 227.882055
L 450.400378 227.882055
L 450.400378 232.71
z
" clip-path="url(#p599f28091a)" style="fill: #fc9706"/>
    <path d="M 439.541142 227.882055
L 439.541142 227.882055
L 450.400378 227.882055
L 450.400378 227.882055
z
" clip-path="url(#p599f28091a)" style="fill: #ffc729"/>
    <path d="M 439.541142 227.882055
L 439.541142 227.882055
L 450.400378 227.882055
L 450.400378 227.882055
z
" clip-path="url(#p599f28091a)" style="fill: #68bed8"/>
    <path d="M 439.541142 227.882055
L 439.541142 227.882055
L 450.400378 227.882055
L 450.400378 227.882055
z
" clip-path="url(#p599f28091a)" style="fill: #023047"/>
    <path d="M 450.400378 232.71
L 450.400378 227.27413
L 461.259614 227.27413
L 461.259614 232.71
z
" clip-path="url(#p599f28091a)" style="fill: #fc9706"/>
    <path d="M 450.400378 227.27413
L 450.400378 227.27413
L 461.259614 227.27413
L 461.259614 227.27413
z
" clip-path="url(#p599f28091a)" style="fill: #ffc729"/>
    <path d="M 450.400378 227.27413
L 450.400378 227.27413
L 461.259614 227.27413
L 461.259614 227.27413
z
" clip-path="url(#p599f28091a)" style="fill: #68bed8"/>
    <path d="M 450.400378 227.27413
L 450.400378 227.27413
L 461.259614 227.27413
L 461.259614 227.27413
z
" clip-path="url(#p599f28091a)" style="fill: #023047"/>
    <path d="M 461.259614 232.71
L 461.259614 227.103973
L 472.11885 227.103973
L 472.11885 232.71
z
" clip-path="url(#p599f28091a)" style="fill: #fc9706"/>
    <path d="M 461.259614 227.103973
L 461.259614 227.103973
L 472.11885 227.103973
L 472.11885 227.103973
z
" clip-path="url(#p599f28091a)" style="fill: #ffc729"/>
    <path d="M 461.259614 227.103973
L 461.259614 227.103973
L 472.11885 227.103973
L 472.11885 227.103973
z
" clip-path="url(#p599f28091a)" style="fill: #68bed8"/>
    <path d="M 461.259614 227.103973
L 461.259614 227.103973
L 472.11885 227.103973
L 472.11885 227.103973
z
" clip-path="url(#p599f28091a)" style="fill: #023047"/>
    <path d="M 472.11885 232.71
L 472.11885 226.467808
L 482.978086 226.467808
L 482.978086 232.71
z
" clip-path="url(#p599f28091a)" style="fill: #fc9706"/>
    <path d="M 472.11885 226.467808
L 472.11885 226.467808
L 482.978086 226.467808
L 482.978086 226.467808
z
" clip-path="url(#p599f28091a)" style="fill: #ffc729"/>
    <path d="M 472.11885 226.467808
L 472.11885 226.467808
L 482.978086 226.467808
L 482.978086 226.467808
z
" clip-path="url(#p599f28091a)" style="fill: #68bed8"/>
    <path d="M 472.11885 226.467808
L 472.11885 226.467808
L 482.978086 226.467808
L 482.978086 226.467808
z
" clip-path="url(#p599f28091a)" style="fill: #023047"/>
    <path d="M 482.978086 232.71
L 482.978086 226.273991
L 493.837322 226.273991
L 493.837322 232.71
z
" clip-path="url(#p599f28091a)" style="fill: #fc9706"/>
    <path d="M 482.978086 226.273991
L 482.978086 226.273991
L 493.837322 226.273991
L 493.837322 226.273991
z
" clip-path="url(#p599f28091a)" style="fill: #ffc729"/>
    <path d="M 482.978086 226.273991
L 482.978086 223.052625
L 493.837322 223.052625
L 493.837322 226.273991
z
" clip-path="url(#p599f28091a)" style="fill: #68bed8"/>
    <path d="M 482.978086 223.052625
L 482.978086 223.052625
L 493.837322 223.052625
L 493.837322 223.052625
z
" clip-path="url(#p599f28091a)" style="fill: #023047"/>
    <path d="M 493.837322 232.71
L 493.837322 224.521177
L 504.696558 224.521177
L 504.696558 232.71
z
" clip-path="url(#p599f28091a)" style="fill: #fc9706"/>
    <path d="M 493.837322 224.521177
L 493.837322 220.718132
L 504.696558 220.718132
L 504.696558 224.521177
z
" clip-path="url(#p599f28091a)" style="fill: #ffc729"/>
    <path d="M 493.837322 220.718132
L 493.837322 206.589905
L 504.696558 206.589905
L 504.696558 220.718132
z
" clip-path="url(#p599f28091a)" style="fill: #68bed8"/>
    <path d="M 493.837322 206.589905
L 493.837322 205.318456
L 504.696558 205.318456
L 504.696558 206.589905
z
" clip-path="url(#p599f28091a)" style="fill: #023047"/>
    <path d="M 504.696558 232.71
L 504.696558 218.627275
L 515.555794 218.627275
L 515.555794 232.71
z
" clip-path="url(#p599f28091a)" style="fill: #fc9706"/>
    <path d="M 504.696558 218.627275
L 504.696558 206.73462
L 515.555794 206.73462
L 515.555794 218.627275
z
" clip-path="url(#p599f28091a)" style="fill: #ffc729"/>
    <path d="M 504.696558 206.73462
L 504.696558 183.100772
L 515.555794 183.100772
L 515.555794 206.73462
z
" clip-path="url(#p599f28091a)" style="fill: #68bed8"/>
    <path d="M 504.696558 183.100772
L 504.696558 180.798567
L 515.555794 180.798567
L 515.555794 183.100772
z
" clip-path="url(#p599f28091a)" style="fill: #023047"/>
    <path d="M 515.555794 232.71
L 515.555794 212.305616
L 526.41503 212.305616
L 526.41503 232.71
z
" clip-path="url(#p599f28091a)" style="fill: #fc9706"/>
    <path d="M 515.555794 212.305616
L 515.555794 186.817957
L 526.41503 186.817957
L 526.41503 212.305616
z
" clip-path="url(#p599f28091a)" style="fill: #ffc729"/>
    <path d="M 515.555794 186.817957
L 515.555794 135.858372
L 526.41503 135.858372
L 526.41503 186.817957
z
" clip-path="url(#p599f28091a)" style="fill: #68bed8"/>
    <path d="M 515.555794 135.858372
L 515.555794 133.492398
L 526.41503 133.492398
L 526.41503 135.858372
z
" clip-path="url(#p599f28091a)" style="fill: #023047"/>
    <path d="M 526.41503 232.71
L 526.41503 210.211676
L 537.274266 210.211676
L 537.274266 232.71
z
" clip-path="url(#p599f28091a)" style="fill: #fc9706"/>
    <path d="M 526.41503 210.211676
L 526.41503 174.753641
L 537.274266 174.753641
L 537.274266 210.211676
z
" clip-path="url(#p599f28091a)" style="fill: #ffc729"/>
    <path d="M 526.41503 174.753641
L 526.41503 113.383063
L 537.274266 113.383063
L 537.274266 174.753641
z
" clip-path="url(#p599f28091a)" style="fill: #68bed8"/>
    <path d="M 526.41503 113.383063
L 526.41503 110.974916
L 537.274266 110.974916
L 537.274266 113.383063
z
" clip-path="url(#p599f28091a)" style="fill: #023047"/>
    <path d="M 537.274266 232.71
L 537.274266 180.01475
L 548.133501 180.01475
L 548.133501 232.71
z
" clip-path="url(#p599f28091a)" style="fill: #fc9706"/>
    <path d="M 537.274266 180.01475
L 537.274266 137.540973
L 548.133501 137.540973
L 548.133501 180.01475
z
" clip-path="url(#p599f28091a)" style="fill: #ffc729"/>
    <path d="M 537.274266 137.540973
L 537.274266 66.538471
L 548.133501 66.538471
L 548.133501 137.540973
z
" clip-path="url(#p599f28091a)" style="fill: #68bed8"/>
    <path d="M 537.274266 66.538471
L 537.274266 63.433363
L 548.133501 63.433363
L 548.133501 66.538471
z
" clip-path="url(#p599f28091a)" style="fill: #023047"/>
    <path d="M 548.133501 232.71
L 548.133501 194.664501
L 558.992737 194.664501
L 558.992737 232.71
z
" clip-path="url(#p599f28091a)" style="fill: #fc9706"/>
    <path d="M 548.133501 194.664501
L 548.133501 172.633844
L 558.992737 172.633844
L 558.992737 194.664501
z
" clip-path="url(#p599f28091a)" style="fill: #ffc729"/>
    <path d="M 548.133501 172.633844
L 548.133501 120.774042
L 558.992737 120.774042
L 558.992737 172.633844
z
" clip-path="url(#p599f28091a)" style="fill: #68bed8"/>
    <path d="M 548.133501 120.774042
L 548.133501 117.649449
L 558.992737 117.649449
L 558.992737 120.774042
z
" clip-path="url(#p599f28091a)" style="fill: #023047"/>
    <path d="M 558.992737 232.71
L 558.992737 195.277385
L 569.851973 195.277385
L 569.851973 232.71
z
" clip-path="url(#p599f28091a)" style="fill: #fc9706"/>
    <path d="M 558.992737 195.277385
L 558.992737 192.353137
L 569.851973 192.353137
L 569.851973 195.277385
z
" clip-path="url(#p599f28091a)" style="fill: #ffc729"/>
    <path d="M 558.992737 192.353137
L 558.992737 162.987285
L 569.851973 162.987285
L 569.851973 192.353137
z
" clip-path="url(#p599f28091a)" style="fill: #68bed8"/>
    <path d="M 558.992737 162.987285
L 558.992737 160.547392
L 569.851973 160.547392
L 569.851973 162.987285
z
" clip-path="url(#p599f28091a)" style="fill: #023047"/>
    <path d="M 569.851973 232.71
L 569.851973 213.80562
L 580.711209 213.80562
L 580.711209 232.71
z
" clip-path="url(#p599f28091a)" style="fill: #fc9706"/>
    <path d="M 569.851973 213.80562
L 569.851973 213.80562
L 580.711209 213.80562
L 580.711209 213.80562
z
" clip-path="url(#p599f28091a)" style="fill: #ffc729"/>
    <path d="M 569.851973 213.80562
L 569.851973 201.526599
L 580.711209 201.526599
L 580.711209 213.80562
z
" clip-path="url(#p599f28091a)" style="fill: #68bed8"/>
    <path d="M 569.851973 201.526599
L 569.851973 199.802589
L 580.711209 199.802589
L 580.711209 201.526599
z
" clip-path="url(#p599f28091a)" style="fill: #023047"/>
    <path d="M 580.711209 232.71
L 580.711209 221.928131
L 591.570445 221.928131
L 591.570445 232.71
z
" clip-path="url(#p599f28091a)" style="fill: #fc9706"/>
    <path d="M 580.711209 221.928131
L 580.711209 221.928131
L 591.570445 221.928131
L 591.570445 221.928131
z
" clip-path="url(#p599f28091a)" style="fill: #ffc729"/>
    <path d="M 580.711209 221.928131
L 580.711209 219.907649
L 591.570445 219.907649
L 591.570445 221.928131
z
" clip-path="url(#p599f28091a)" style="fill: #68bed8"/>
    <path d="M 580.711209 219.907649
L 580.711209 218.579685
L 591.570445 218.579685
L 591.570445 219.907649
z
" clip-path="url(#p599f28091a)" style="fill: #023047"/>
    <path d="M 591.570445 232.71
L 591.570445 225.039206
L 602.429681 225.039206
L 602.429681 232.71
z
" clip-path="url(#p599f28091a)" style="fill: #fc9706"/>
    <path d="M 591.570445 225.039206
L 591.570445 225.039206
L 602.429681 225.039206
L 602.429681 225.039206
z
" clip-path="url(#p599f28091a)" style="fill: #ffc729"/>
    <path d="M 591.570445 225.039206
L 591.570445 225.039206
L 602.429681 225.039206
L 602.429681 225.039206
z
" clip-path="url(#p599f28091a)" style="fill: #68bed8"/>
    <path d="M 591.570445 225.039206
L 591.570445 225.039206
L 602.429681 225.039206
L 602.429681 225.039206
z
" clip-path="url(#p599f28091a)" style="fill: #023047"/>
    <path d="M 602.429681 232.71
L 602.429681 226.74258
L 613.288917 226.74258
L 613.288917 232.71
z
" clip-path="url(#p599f28091a)" style="fill: #fc9706"/>
    <path d="M 602.429681 226.74258
L 602.429681 226.74258
L 613.288917 226.74258
L 613.288917 226.74258
z
" clip-path="url(#p599f28091a)" style="fill: #ffc729"/>
    <path d="M 602.429681 226.74258
L 602.429681 226.74258
L 613.288917 226.74258
L 613.288917 226.74258
z
" clip-path="url(#p599f28091a)" style="fill: #68bed8"/>
    <path d="M 602.429681 226.74258
L 602.429681 226.74258
L 613.288917 226.74258
L 613.288917 226.74258
z
" clip-path="url(#p599f28091a)" style="fill: #023047"/>
   </g>
   <g id="line2d_38">
    <path d="M 352.667255 223.699247
L 363.526491 223.699247
L 363.526491 223.699247
L 374.385727 223.699247
L 374.385727 223.699247
L 385.244963 223.699247
L 385.244963 223.699247
L 396.104199 223.699247
L 396.104199 223.699247
L 406.963435 223.699247
L 406.963435 223.699247
L 417.82267 223.699247
L 417.82267 223.699247
L 428.681906 223.699247
L 428.681906 223.699247
L 439.541142 223.699247
L 439.541142 223.699247
L 450.400378 223.699247
L 450.400378 223.699247
L 461.259614 223.699247
L 461.259614 223.699247
L 472.11885 223.699247
L 472.11885 223.699247
L 482.978086 223.699247
L 482.978086 223.699247
L 493.837322 223.699247
L 493.837322 223.699247
L 504.696558 223.699247
L 504.696558 223.699247
L 515.555794 223.699247
L 515.555794 205.285773
L 526.41503 205.285773
L 526.41503 205.285773
L 537.274266 205.285773
L 537.274266 205.285773
L 548.133501 205.285773
L 548.133501 205.285773
L 558.992737 205.285773
L 558.992737 205.285773
L 569.851973 205.285773
L 569.851973 223.699247
L 580.711209 223.699247
L 580.711209 223.699247
L 591.570445 223.699247
L 591.570445 223.699247
L 602.429681 223.699247
L 602.429681 223.699247
" clip-path="url(#p599f28091a)" style="fill: none; stroke: #000000; stroke-width: 1.240718; stroke-linejoin: miter"/>
   </g>
   <g id="patch_5">
    <path d="M 339.636172 232.71
L 626.32 232.71
" style="fill: none; stroke: #000000; stroke-width: 0.5; stroke-linejoin: miter; stroke-linecap: square"/>
   </g>
  </g>
  <g id="text_18">
   <text style="font-weight: 700; font-size: 15px; font-family: 'GT Planar'; text-anchor: start" x="45.392344" y="19.829531" transform="rotate(-0 45.392344 19.829531)">Central Hudson:  — Summer Time-of-use Prices vs. Marginal Costs ($/kWh, 2025)</text>
  </g>
  <g id="text_19">
   <text style="font-size: 13px; font-family: 'GT Planar'; text-anchor: start; fill: #333333" x="299.827891" y="278.1" transform="rotate(-0 299.827891 278.1)">Hour of Day</text>
  </g>
  <g id="text_20">
   <text style="font-size: 13px; font-family: 'GT Planar'; fill: #333333" transform="translate(16.66 164.093359) rotate(-90)">$/kWh</text>
  </g>
  <g id="text_21">
   <text style="font-size: 13px; font-family: 'GT Planar'; text-anchor: middle; fill: #333333" x="188.734258" y="49.927531" transform="rotate(-0 188.734258 49.927531)">Low-cost Day</text>
  </g>
  <g id="text_22">
   <text style="font-size: 13px; font-family: 'GT Planar'; text-anchor: middle; fill: #333333" x="482.978086" y="49.927531" transform="rotate(-0 482.978086 49.927531)">High-cost Day</text>
  </g>
  <g id="text_23">
   <text style="font-size: 13px; font-family: 'GT Planar'; text-anchor: middle; fill: #333333" x="631.362" y="143.839766" transform="rotate(-270 631.362 143.839766)">Summer</text>
  </g>
  <g id="patch_6">
   <path d="M 662.44 130.439766
L 676.28 130.439766
L 676.28 116.599766
L 662.44 116.599766
z
" clip-path="url(#p05c2920ea5)" style="fill: #ffffff; stroke: #ffffff; stroke-linejoin: miter"/>
  </g>
  <g id="patch_7">
   <path d="M 661.44 131.439766
L 677.28 131.439766
L 677.28 115.599766
L 661.44 115.599766
z
" clip-path="url(#p05c2920ea5)" style="fill: #023047"/>
  </g>
  <g id="text_24">
   <text style="font-size: 11px; font-family: 'IBM Plex Sans'; text-anchor: middle; fill: #4d4d4d" x="712.932656" y="126.489766" transform="rotate(-0 712.932656 126.489766)">Dist+Sub-Tx</text>
  </g>
  <g id="patch_8">
   <path d="M 662.44 148.279766
L 676.28 148.279766
L 676.28 134.439766
L 662.44 134.439766
z
" clip-path="url(#p6ca9900c05)" style="fill: #ffffff; stroke: #ffffff; stroke-linejoin: miter"/>
  </g>
  <g id="patch_9">
   <path d="M 661.44 149.279766
L 677.28 149.279766
L 677.28 133.439766
L 661.44 133.439766
z
" clip-path="url(#p6ca9900c05)" style="fill: #68bed8"/>
  </g>
  <g id="text_25">
   <text style="font-size: 11px; font-family: 'IBM Plex Sans'; text-anchor: middle; fill: #4d4d4d" x="700.6625" y="144.329766" transform="rotate(-0 700.6625 144.329766)">Bulk Tx</text>
  </g>
  <g id="patch_10">
   <path d="M 662.44 166.119766
L 676.28 166.119766
L 676.28 152.279766
L 662.44 152.279766
z
" clip-path="url(#p499a37eb34)" style="fill: #ffffff; stroke: #ffffff; stroke-linejoin: miter"/>
  </g>
  <g id="patch_11">
   <path d="M 661.44 167.119766
L 677.28 167.119766
L 677.28 151.279766
L 661.44 151.279766
z
" clip-path="url(#p499a37eb34)" style="fill: #ffc729"/>
  </g>
  <g id="text_26">
   <text style="font-size: 11px; font-family: 'IBM Plex Sans'; text-anchor: middle; fill: #4d4d4d" x="714.88" y="162.169766" transform="rotate(-0 714.88 162.169766)">Gen Capacity</text>
  </g>
  <g id="patch_12">
   <path d="M 662.44 183.959766
L 676.28 183.959766
L 676.28 170.119766
L 662.44 170.119766
z
" clip-path="url(#p1209649eda)" style="fill: #ffffff; stroke: #ffffff; stroke-linejoin: miter"/>
  </g>
  <g id="patch_13">
   <path d="M 661.44 184.959766
L 677.28 184.959766
L 677.28 169.119766
L 661.44 169.119766
z
" clip-path="url(#p1209649eda)" style="fill: #fc9706"/>
  </g>
  <g id="text_27">
   <text style="font-size: 11px; font-family: 'IBM Plex Sans'; text-anchor: middle; fill: #4d4d4d" x="699.337344" y="179.943594" transform="rotate(-0 699.337344 179.943594)">Energy</text>
  </g>
 </g>
 <defs>
  <clipPath id="pa732c7ca9f">
   <rect x="45.392344" y="54.969531" width="286.683828" height="177.740469"/>
  </clipPath>
  <clipPath id="p599f28091a">
   <rect x="339.636172" y="54.969531" width="286.683828" height="177.740469"/>
  </clipPath>
  <clipPath id="p05c2920ea5">
   <path d="M 661.44 131.439766
L 661.44 115.599766
L 677.28 115.599766
L 677.28 131.439766
"/>
  </clipPath>
  <clipPath id="p6ca9900c05">
   <path d="M 661.44 149.279766
L 661.44 133.439766
L 677.28 133.439766
L 677.28 149.279766
"/>
  </clipPath>
  <clipPath id="p499a37eb34">
   <path d="M 661.44 167.119766
L 661.44 151.279766
L 677.28 151.279766
L 677.28 167.119766
"/>
  </clipPath>
  <clipPath id="p1209649eda">
   <path d="M 661.44 184.959766
L 661.44 169.119766
L 677.28 169.119766
L 677.28 184.959766
"/>
  </clipPath>
 </defs>
</svg>
