<?xml version="1.0" encoding="utf-8" standalone="no"?>
<!DOCTYPE svg PUBLIC "-//W3C//DTD SVG 1.1//EN"
  "http://www.w3.org/Graphics/SVG/1.1/DTD/svg11.dtd">
<svg xmlns:xlink="http://www.w3.org/1999/xlink" width="756pt" height="504pt" viewBox="0 0 756 504" xmlns="http://www.w3.org/2000/svg" version="1.1">
 <metadata>
  <rdf:RDF xmlns:dc="http://purl.org/dc/elements/1.1/" xmlns:cc="http://creativecommons.org/ns#" xmlns:rdf="http://www.w3.org/1999/02/22-rdf-syntax-ns#">
   <cc:Work>
    <dc:type rdf:resource="http://purl.org/dc/dcmitype/StillImage"/>
    <dc:date>2026-04-29T16:04:53.862137</dc:date>
    <dc:format>image/svg+xml</dc:format>
    <dc:creator>
     <cc:Agent>
      <dc:title>Matplotlib v3.10.8, https://matplotlib.org/</dc:title>
     </cc:Agent>
    </dc:creator>
   </cc:Work>
  </rdf:RDF>
 </metadata>
 <defs>
  <style type="text/css">*{stroke-linejoin: round; stroke-linecap: butt}</style>
 </defs>
 <g id="figure_1">
  <g id="patch_1">
   <path d="M 0 504
L 756 504
L 756 0
L 0 0
z
" style="fill: #ffffff"/>
  </g>
  <g id="axes_1">
   <g id="patch_2">
    <path d="M 45.392344 248.059766
L 332.076172 248.059766
L 332.076172 45.969531
L 45.392344 45.969531
z
" style="fill: #ffffff"/>
   </g>
   <g id="matplotlib.axis_1">
    <g id="xtick_1"/>
    <g id="xtick_2"/>
    <g id="xtick_3"/>
    <g id="xtick_4"/>
    <g id="xtick_5"/>
    <g id="xtick_6"/>
    <g id="xtick_7"/>
    <g id="xtick_8"/>
    <g id="xtick_9"/>
   </g>
   <g id="matplotlib.axis_2">
    <g id="ytick_1">
     <g id="line2d_1">
      <path d="M 45.392344 248.059766
L 332.076172 248.059766
" clip-path="url(#p47f6282321)" style="fill: none; stroke: #e5e5e5; stroke-linecap: square"/>
     </g>
     <g id="text_1">
      <text style="font-size: 11px; font-family: 'IBM Plex Sans'; text-anchor: start; fill: #4d4d4d" x="27" y="252.129766" transform="rotate(-0 27 252.129766)">0.0</text>
     </g>
    </g>
    <g id="ytick_2">
     <g id="line2d_2">
      <path d="M 45.392344 199.796028
L 332.076172 199.796028
" clip-path="url(#p47f6282321)" style="fill: none; stroke: #e5e5e5; stroke-linecap: square"/>
     </g>
     <g id="text_2">
      <text style="font-size: 11px; font-family: 'IBM Plex Sans'; text-anchor: start; fill: #4d4d4d" x="27" y="203.866028" transform="rotate(-0 27 203.866028)">0.5</text>
     </g>
    </g>
    <g id="ytick_3">
     <g id="line2d_3">
      <path d="M 45.392344 151.532291
L 332.076172 151.532291
" clip-path="url(#p47f6282321)" style="fill: none; stroke: #e5e5e5; stroke-linecap: square"/>
     </g>
     <g id="text_3">
      <text style="font-size: 11px; font-family: 'IBM Plex Sans'; text-anchor: start; fill: #4d4d4d" x="27" y="155.602291" transform="rotate(-0 27 155.602291)">1.0</text>
     </g>
    </g>
    <g id="ytick_4">
     <g id="line2d_4">
      <path d="M 45.392344 103.268554
L 332.076172 103.268554
" clip-path="url(#p47f6282321)" style="fill: none; stroke: #e5e5e5; stroke-linecap: square"/>
     </g>
     <g id="text_4">
      <text style="font-size: 11px; font-family: 'IBM Plex Sans'; text-anchor: start; fill: #4d4d4d" x="27" y="107.338554" transform="rotate(-0 27 107.338554)">1.5</text>
     </g>
    </g>
    <g id="ytick_5">
     <g id="line2d_5">
      <path d="M 45.392344 55.004817
L 332.076172 55.004817
" clip-path="url(#p47f6282321)" style="fill: none; stroke: #e5e5e5; stroke-linecap: square"/>
     </g>
     <g id="text_5">
      <text style="font-size: 11px; font-family: 'IBM Plex Sans'; text-anchor: start; fill: #4d4d4d" x="27" y="59.074817" transform="rotate(-0 27 59.074817)">2.0</text>
     </g>
    </g>
    <g id="ytick_6">
     <g id="line2d_6">
      <path d="M 45.392344 223.927897
L 332.076172 223.927897
" clip-path="url(#p47f6282321)" style="fill: none; stroke: #fafafa; stroke-width: 0.5; stroke-linecap: square"/>
     </g>
    </g>
    <g id="ytick_7">
     <g id="line2d_7">
      <path d="M 45.392344 175.66416
L 332.076172 175.66416
" clip-path="url(#p47f6282321)" style="fill: none; stroke: #fafafa; stroke-width: 0.5; stroke-linecap: square"/>
     </g>
    </g>
    <g id="ytick_8">
     <g id="line2d_8">
      <path d="M 45.392344 127.400423
L 332.076172 127.400423
" clip-path="url(#p47f6282321)" style="fill: none; stroke: #fafafa; stroke-width: 0.5; stroke-linecap: square"/>
     </g>
    </g>
    <g id="ytick_9">
     <g id="line2d_9">
      <path d="M 45.392344 79.136685
L 332.076172 79.136685
" clip-path="url(#p47f6282321)" style="fill: none; stroke: #fafafa; stroke-width: 0.5; stroke-linecap: square"/>
     </g>
    </g>
   </g>
   <g id="PolyCollection_1">
    <path d="M 58.423427 248.059766
L 58.423427 244.149124
L 69.282663 244.149124
L 69.282663 248.059766
z
" clip-path="url(#p47f6282321)" style="fill: #fc9706"/>
    <path d="M 58.423427 244.149124
L 58.423427 244.149124
L 69.282663 244.149124
L 69.282663 244.149124
z
" clip-path="url(#p47f6282321)" style="fill: #ffc729"/>
    <path d="M 58.423427 244.149124
L 58.423427 244.149124
L 69.282663 244.149124
L 69.282663 244.149124
z
" clip-path="url(#p47f6282321)" style="fill: #68bed8"/>
    <path d="M 58.423427 244.149124
L 58.423427 244.149124
L 69.282663 244.149124
L 69.282663 244.149124
z
" clip-path="url(#p47f6282321)" style="fill: #023047"/>
    <path d="M 69.282663 248.059766
L 69.282663 244.658645
L 80.141899 244.658645
L 80.141899 248.059766
z
" clip-path="url(#p47f6282321)" style="fill: #fc9706"/>
    <path d="M 69.282663 244.658645
L 69.282663 244.658645
L 80.141899 244.658645
L 80.141899 244.658645
z
" clip-path="url(#p47f6282321)" style="fill: #ffc729"/>
    <path d="M 69.282663 244.658645
L 69.282663 244.658645
L 80.141899 244.658645
L 80.141899 244.658645
z
" clip-path="url(#p47f6282321)" style="fill: #68bed8"/>
    <path d="M 69.282663 244.658645
L 69.282663 244.658645
L 80.141899 244.658645
L 80.141899 244.658645
z
" clip-path="url(#p47f6282321)" style="fill: #023047"/>
    <path d="M 80.141899 248.059766
L 80.141899 244.898714
L 91.001135 244.898714
L 91.001135 248.059766
z
" clip-path="url(#p47f6282321)" style="fill: #fc9706"/>
    <path d="M 80.141899 244.898714
L 80.141899 244.898714
L 91.001135 244.898714
L 91.001135 244.898714
z
" clip-path="url(#p47f6282321)" style="fill: #ffc729"/>
    <path d="M 80.141899 244.898714
L 80.141899 244.898714
L 91.001135 244.898714
L 91.001135 244.898714
z
" clip-path="url(#p47f6282321)" style="fill: #68bed8"/>
    <path d="M 80.141899 244.898714
L 80.141899 244.898714
L 91.001135 244.898714
L 91.001135 244.898714
z
" clip-path="url(#p47f6282321)" style="fill: #023047"/>
    <path d="M 91.001135 248.059766
L 91.001135 245.035093
L 101.860371 245.035093
L 101.860371 248.059766
z
" clip-path="url(#p47f6282321)" style="fill: #fc9706"/>
    <path d="M 91.001135 245.035093
L 91.001135 245.035093
L 101.860371 245.035093
L 101.860371 245.035093
z
" clip-path="url(#p47f6282321)" style="fill: #ffc729"/>
    <path d="M 91.001135 245.035093
L 91.001135 245.035093
L 101.860371 245.035093
L 101.860371 245.035093
z
" clip-path="url(#p47f6282321)" style="fill: #68bed8"/>
    <path d="M 91.001135 245.035093
L 91.001135 245.035093
L 101.860371 245.035093
L 101.860371 245.035093
z
" clip-path="url(#p47f6282321)" style="fill: #023047"/>
    <path d="M 101.860371 248.059766
L 101.860371 245.060786
L 112.719606 245.060786
L 112.719606 248.059766
z
" clip-path="url(#p47f6282321)" style="fill: #fc9706"/>
    <path d="M 101.860371 245.060786
L 101.860371 245.060786
L 112.719606 245.060786
L 112.719606 245.060786
z
" clip-path="url(#p47f6282321)" style="fill: #ffc729"/>
    <path d="M 101.860371 245.060786
L 101.860371 245.060786
L 112.719606 245.060786
L 112.719606 245.060786
z
" clip-path="url(#p47f6282321)" style="fill: #68bed8"/>
    <path d="M 101.860371 245.060786
L 101.860371 245.060786
L 112.719606 245.060786
L 112.719606 245.060786
z
" clip-path="url(#p47f6282321)" style="fill: #023047"/>
    <path d="M 112.719606 248.059766
L 112.719606 244.853021
L 123.578842 244.853021
L 123.578842 248.059766
z
" clip-path="url(#p47f6282321)" style="fill: #fc9706"/>
    <path d="M 112.719606 244.853021
L 112.719606 244.853021
L 123.578842 244.853021
L 123.578842 244.853021
z
" clip-path="url(#p47f6282321)" style="fill: #ffc729"/>
    <path d="M 112.719606 244.853021
L 112.719606 244.853021
L 123.578842 244.853021
L 123.578842 244.853021
z
" clip-path="url(#p47f6282321)" style="fill: #68bed8"/>
    <path d="M 112.719606 244.853021
L 112.719606 244.853021
L 123.578842 244.853021
L 123.578842 244.853021
z
" clip-path="url(#p47f6282321)" style="fill: #023047"/>
    <path d="M 123.578842 248.059766
L 123.578842 244.595377
L 134.438078 244.595377
L 134.438078 248.059766
z
" clip-path="url(#p47f6282321)" style="fill: #fc9706"/>
    <path d="M 123.578842 244.595377
L 123.578842 244.595377
L 134.438078 244.595377
L 134.438078 244.595377
z
" clip-path="url(#p47f6282321)" style="fill: #ffc729"/>
    <path d="M 123.578842 244.595377
L 123.578842 244.595377
L 134.438078 244.595377
L 134.438078 244.595377
z
" clip-path="url(#p47f6282321)" style="fill: #68bed8"/>
    <path d="M 123.578842 244.595377
L 123.578842 244.595377
L 134.438078 244.595377
L 134.438078 244.595377
z
" clip-path="url(#p47f6282321)" style="fill: #023047"/>
    <path d="M 134.438078 248.059766
L 134.438078 244.558047
L 145.297314 244.558047
L 145.297314 248.059766
z
" clip-path="url(#p47f6282321)" style="fill: #fc9706"/>
    <path d="M 134.438078 244.558047
L 134.438078 244.558047
L 145.297314 244.558047
L 145.297314 244.558047
z
" clip-path="url(#p47f6282321)" style="fill: #ffc729"/>
    <path d="M 134.438078 244.558047
L 134.438078 244.558047
L 145.297314 244.558047
L 145.297314 244.558047
z
" clip-path="url(#p47f6282321)" style="fill: #68bed8"/>
    <path d="M 134.438078 244.558047
L 134.438078 244.558047
L 145.297314 244.558047
L 145.297314 244.558047
z
" clip-path="url(#p47f6282321)" style="fill: #023047"/>
    <path d="M 145.297314 248.059766
L 145.297314 244.686289
L 156.15655 244.686289
L 156.15655 248.059766
z
" clip-path="url(#p47f6282321)" style="fill: #fc9706"/>
    <path d="M 145.297314 244.686289
L 145.297314 244.686289
L 156.15655 244.686289
L 156.15655 244.686289
z
" clip-path="url(#p47f6282321)" style="fill: #ffc729"/>
    <path d="M 145.297314 244.686289
L 145.297314 244.686289
L 156.15655 244.686289
L 156.15655 244.686289
z
" clip-path="url(#p47f6282321)" style="fill: #68bed8"/>
    <path d="M 145.297314 244.686289
L 145.297314 244.686289
L 156.15655 244.686289
L 156.15655 244.686289
z
" clip-path="url(#p47f6282321)" style="fill: #023047"/>
    <path d="M 156.15655 248.059766
L 156.15655 244.500331
L 167.015786 244.500331
L 167.015786 248.059766
z
" clip-path="url(#p47f6282321)" style="fill: #fc9706"/>
    <path d="M 156.15655 244.500331
L 156.15655 244.500331
L 167.015786 244.500331
L 167.015786 244.500331
z
" clip-path="url(#p47f6282321)" style="fill: #ffc729"/>
    <path d="M 156.15655 244.500331
L 156.15655 244.500331
L 167.015786 244.500331
L 167.015786 244.500331
z
" clip-path="url(#p47f6282321)" style="fill: #68bed8"/>
    <path d="M 156.15655 244.500331
L 156.15655 244.500331
L 167.015786 244.500331
L 167.015786 244.500331
z
" clip-path="url(#p47f6282321)" style="fill: #023047"/>
    <path d="M 167.015786 248.059766
L 167.015786 244.347741
L 177.875022 244.347741
L 177.875022 248.059766
z
" clip-path="url(#p47f6282321)" style="fill: #fc9706"/>
    <path d="M 167.015786 244.347741
L 167.015786 244.347741
L 177.875022 244.347741
L 177.875022 244.347741
z
" clip-path="url(#p47f6282321)" style="fill: #ffc729"/>
    <path d="M 167.015786 244.347741
L 167.015786 244.347741
L 177.875022 244.347741
L 177.875022 244.347741
z
" clip-path="url(#p47f6282321)" style="fill: #68bed8"/>
    <path d="M 167.015786 244.347741
L 167.015786 244.347741
L 177.875022 244.347741
L 177.875022 244.347741
z
" clip-path="url(#p47f6282321)" style="fill: #023047"/>
    <path d="M 177.875022 248.059766
L 177.875022 244.050141
L 188.734258 244.050141
L 188.734258 248.059766
z
" clip-path="url(#p47f6282321)" style="fill: #fc9706"/>
    <path d="M 177.875022 244.050141
L 177.875022 244.050141
L 188.734258 244.050141
L 188.734258 244.050141
z
" clip-path="url(#p47f6282321)" style="fill: #ffc729"/>
    <path d="M 177.875022 244.050141
L 177.875022 244.050141
L 188.734258 244.050141
L 188.734258 244.050141
z
" clip-path="url(#p47f6282321)" style="fill: #68bed8"/>
    <path d="M 177.875022 244.050141
L 177.875022 244.050141
L 188.734258 244.050141
L 188.734258 244.050141
z
" clip-path="url(#p47f6282321)" style="fill: #023047"/>
    <path d="M 188.734258 248.059766
L 188.734258 243.708041
L 199.593494 243.708041
L 199.593494 248.059766
z
" clip-path="url(#p47f6282321)" style="fill: #fc9706"/>
    <path d="M 188.734258 243.708041
L 188.734258 243.708041
L 199.593494 243.708041
L 199.593494 243.708041
z
" clip-path="url(#p47f6282321)" style="fill: #ffc729"/>
    <path d="M 188.734258 243.708041
L 188.734258 243.708041
L 199.593494 243.708041
L 199.593494 243.708041
z
" clip-path="url(#p47f6282321)" style="fill: #68bed8"/>
    <path d="M 188.734258 243.708041
L 188.734258 243.708041
L 199.593494 243.708041
L 199.593494 243.708041
z
" clip-path="url(#p47f6282321)" style="fill: #023047"/>
    <path d="M 199.593494 248.059766
L 199.593494 243.320723
L 210.45273 243.320723
L 210.45273 248.059766
z
" clip-path="url(#p47f6282321)" style="fill: #fc9706"/>
    <path d="M 199.593494 243.320723
L 199.593494 243.320723
L 210.45273 243.320723
L 210.45273 243.320723
z
" clip-path="url(#p47f6282321)" style="fill: #ffc729"/>
    <path d="M 199.593494 243.320723
L 199.593494 243.320723
L 210.45273 243.320723
L 210.45273 243.320723
z
" clip-path="url(#p47f6282321)" style="fill: #68bed8"/>
    <path d="M 199.593494 243.320723
L 199.593494 243.320723
L 210.45273 243.320723
L 210.45273 243.320723
z
" clip-path="url(#p47f6282321)" style="fill: #023047"/>
    <path d="M 210.45273 248.059766
L 210.45273 243.208971
L 221.311966 243.208971
L 221.311966 248.059766
z
" clip-path="url(#p47f6282321)" style="fill: #fc9706"/>
    <path d="M 210.45273 243.208971
L 210.45273 243.208971
L 221.311966 243.208971
L 221.311966 243.208971
z
" clip-path="url(#p47f6282321)" style="fill: #ffc729"/>
    <path d="M 210.45273 243.208971
L 210.45273 243.208971
L 221.311966 243.208971
L 221.311966 243.208971
z
" clip-path="url(#p47f6282321)" style="fill: #68bed8"/>
    <path d="M 210.45273 243.208971
L 210.45273 243.208971
L 221.311966 243.208971
L 221.311966 243.208971
z
" clip-path="url(#p47f6282321)" style="fill: #023047"/>
    <path d="M 221.311966 248.059766
L 221.311966 242.442046
L 232.171201 242.442046
L 232.171201 248.059766
z
" clip-path="url(#p47f6282321)" style="fill: #fc9706"/>
    <path d="M 221.311966 242.442046
L 221.311966 242.442046
L 232.171201 242.442046
L 232.171201 242.442046
z
" clip-path="url(#p47f6282321)" style="fill: #ffc729"/>
    <path d="M 221.311966 242.442046
L 221.311966 242.442046
L 232.171201 242.442046
L 232.171201 242.442046
z
" clip-path="url(#p47f6282321)" style="fill: #68bed8"/>
    <path d="M 221.311966 242.442046
L 221.311966 242.354628
L 232.171201 242.354628
L 232.171201 242.442046
z
" clip-path="url(#p47f6282321)" style="fill: #023047"/>
    <path d="M 232.171201 248.059766
L 232.171201 242.844429
L 243.030437 242.844429
L 243.030437 248.059766
z
" clip-path="url(#p47f6282321)" style="fill: #fc9706"/>
    <path d="M 232.171201 242.844429
L 232.171201 242.844429
L 243.030437 242.844429
L 243.030437 242.844429
z
" clip-path="url(#p47f6282321)" style="fill: #ffc729"/>
    <path d="M 232.171201 242.844429
L 232.171201 242.844429
L 243.030437 242.844429
L 243.030437 242.844429
z
" clip-path="url(#p47f6282321)" style="fill: #68bed8"/>
    <path d="M 232.171201 242.844429
L 232.171201 242.620235
L 243.030437 242.620235
L 243.030437 242.844429
z
" clip-path="url(#p47f6282321)" style="fill: #023047"/>
    <path d="M 243.030437 248.059766
L 243.030437 241.085974
L 253.889673 241.085974
L 253.889673 248.059766
z
" clip-path="url(#p47f6282321)" style="fill: #fc9706"/>
    <path d="M 243.030437 241.085974
L 243.030437 241.085974
L 253.889673 241.085974
L 253.889673 241.085974
z
" clip-path="url(#p47f6282321)" style="fill: #ffc729"/>
    <path d="M 243.030437 241.085974
L 243.030437 241.085974
L 253.889673 241.085974
L 253.889673 241.085974
z
" clip-path="url(#p47f6282321)" style="fill: #68bed8"/>
    <path d="M 243.030437 241.085974
L 243.030437 240.677899
L 253.889673 240.677899
L 253.889673 241.085974
z
" clip-path="url(#p47f6282321)" style="fill: #023047"/>
    <path d="M 253.889673 248.059766
L 253.889673 240.86118
L 264.748909 240.86118
L 264.748909 248.059766
z
" clip-path="url(#p47f6282321)" style="fill: #fc9706"/>
    <path d="M 253.889673 240.86118
L 253.889673 240.86118
L 264.748909 240.86118
L 264.748909 240.86118
z
" clip-path="url(#p47f6282321)" style="fill: #ffc729"/>
    <path d="M 253.889673 240.86118
L 253.889673 240.86118
L 264.748909 240.86118
L 264.748909 240.86118
z
" clip-path="url(#p47f6282321)" style="fill: #68bed8"/>
    <path d="M 253.889673 240.86118
L 253.889673 240.320699
L 264.748909 240.320699
L 264.748909 240.86118
z
" clip-path="url(#p47f6282321)" style="fill: #023047"/>
    <path d="M 264.748909 248.059766
L 264.748909 240.849616
L 275.608145 240.849616
L 275.608145 248.059766
z
" clip-path="url(#p47f6282321)" style="fill: #fc9706"/>
    <path d="M 264.748909 240.849616
L 264.748909 240.849616
L 275.608145 240.849616
L 275.608145 240.849616
z
" clip-path="url(#p47f6282321)" style="fill: #ffc729"/>
    <path d="M 264.748909 240.849616
L 264.748909 240.849616
L 275.608145 240.849616
L 275.608145 240.849616
z
" clip-path="url(#p47f6282321)" style="fill: #68bed8"/>
    <path d="M 264.748909 240.849616
L 264.748909 240.531665
L 275.608145 240.531665
L 275.608145 240.849616
z
" clip-path="url(#p47f6282321)" style="fill: #023047"/>
    <path d="M 275.608145 248.059766
L 275.608145 241.835968
L 286.467381 241.835968
L 286.467381 248.059766
z
" clip-path="url(#p47f6282321)" style="fill: #fc9706"/>
    <path d="M 275.608145 241.835968
L 275.608145 241.835968
L 286.467381 241.835968
L 286.467381 241.835968
z
" clip-path="url(#p47f6282321)" style="fill: #ffc729"/>
    <path d="M 275.608145 241.835968
L 275.608145 241.835968
L 286.467381 241.835968
L 286.467381 241.835968
z
" clip-path="url(#p47f6282321)" style="fill: #68bed8"/>
    <path d="M 275.608145 241.835968
L 275.608145 241.656938
L 286.467381 241.656938
L 286.467381 241.835968
z
" clip-path="url(#p47f6282321)" style="fill: #023047"/>
    <path d="M 286.467381 248.059766
L 286.467381 242.607927
L 297.326617 242.607927
L 297.326617 248.059766
z
" clip-path="url(#p47f6282321)" style="fill: #fc9706"/>
    <path d="M 286.467381 242.607927
L 286.467381 242.607927
L 297.326617 242.607927
L 297.326617 242.607927
z
" clip-path="url(#p47f6282321)" style="fill: #ffc729"/>
    <path d="M 286.467381 242.607927
L 286.467381 242.607927
L 297.326617 242.607927
L 297.326617 242.607927
z
" clip-path="url(#p47f6282321)" style="fill: #68bed8"/>
    <path d="M 286.467381 242.607927
L 286.467381 242.521597
L 297.326617 242.521597
L 297.326617 242.607927
z
" clip-path="url(#p47f6282321)" style="fill: #023047"/>
    <path d="M 297.326617 248.059766
L 297.326617 243.331251
L 308.185853 243.331251
L 308.185853 248.059766
z
" clip-path="url(#p47f6282321)" style="fill: #fc9706"/>
    <path d="M 297.326617 243.331251
L 297.326617 243.331251
L 308.185853 243.331251
L 308.185853 243.331251
z
" clip-path="url(#p47f6282321)" style="fill: #ffc729"/>
    <path d="M 297.326617 243.331251
L 297.326617 243.331251
L 308.185853 243.331251
L 308.185853 243.331251
z
" clip-path="url(#p47f6282321)" style="fill: #68bed8"/>
    <path d="M 297.326617 243.331251
L 297.326617 243.331251
L 308.185853 243.331251
L 308.185853 243.331251
z
" clip-path="url(#p47f6282321)" style="fill: #023047"/>
    <path d="M 308.185853 248.059766
L 308.185853 244.049617
L 319.045089 244.049617
L 319.045089 248.059766
z
" clip-path="url(#p47f6282321)" style="fill: #fc9706"/>
    <path d="M 308.185853 244.049617
L 308.185853 244.049617
L 319.045089 244.049617
L 319.045089 244.049617
z
" clip-path="url(#p47f6282321)" style="fill: #ffc729"/>
    <path d="M 308.185853 244.049617
L 308.185853 244.049617
L 319.045089 244.049617
L 319.045089 244.049617
z
" clip-path="url(#p47f6282321)" style="fill: #68bed8"/>
    <path d="M 308.185853 244.049617
L 308.185853 244.049617
L 319.045089 244.049617
L 319.045089 244.049617
z
" clip-path="url(#p47f6282321)" style="fill: #023047"/>
   </g>
   <g id="line2d_10">
    <path d="M 58.423427 237.814574
L 69.282663 237.814574
L 69.282663 237.814574
L 80.141899 237.814574
L 80.141899 237.814574
L 91.001135 237.814574
L 91.001135 237.814574
L 101.860371 237.814574
L 101.860371 237.814574
L 112.719606 237.814574
L 112.719606 237.814574
L 123.578842 237.814574
L 123.578842 237.814574
L 134.438078 237.814574
L 134.438078 237.814574
L 145.297314 237.814574
L 145.297314 237.814574
L 156.15655 237.814574
L 156.15655 237.814574
L 167.015786 237.814574
L 167.015786 237.814574
L 177.875022 237.814574
L 177.875022 237.814574
L 188.734258 237.814574
L 188.734258 237.814574
L 199.593494 237.814574
L 199.593494 237.814574
L 210.45273 237.814574
L 210.45273 237.814574
L 221.311966 237.814574
L 221.311966 216.878524
L 232.171201 216.878524
L 232.171201 216.878524
L 243.030437 216.878524
L 243.030437 216.878524
L 253.889673 216.878524
L 253.889673 216.878524
L 264.748909 216.878524
L 264.748909 216.878524
L 275.608145 216.878524
L 275.608145 237.814574
L 286.467381 237.814574
L 286.467381 237.814574
L 297.326617 237.814574
L 297.326617 237.814574
L 308.185853 237.814574
L 308.185853 237.814574
" clip-path="url(#p47f6282321)" style="fill: none; stroke: #000000; stroke-width: 1.240718; stroke-linejoin: miter"/>
   </g>
   <g id="text_6">
    <g clip-path="url(#p47f6282321)">
     <text style="font-size: 9px; font-family: 'IBM Plex Sans'; text-anchor: middle" x="101.860371" y="235.821519" transform="rotate(-0 101.860371 235.821519)">Off-peak: $0.106</text>
    </g>
   </g>
   <g id="text_7">
    <g clip-path="url(#p47f6282321)">
     <text style="font-size: 9px; font-family: 'IBM Plex Sans'; text-anchor: middle" x="243.030437" y="214.88547" transform="rotate(-0 243.030437 214.88547)">On-peak: $0.323</text>
    </g>
   </g>
   <g id="patch_3">
    <path d="M 45.392344 248.059766
L 332.076172 248.059766
" style="fill: none; stroke: #000000; stroke-width: 0.5; stroke-linejoin: miter; stroke-linecap: square"/>
   </g>
  </g>
  <g id="axes_2">
   <g id="patch_4">
    <path d="M 339.636172 248.059766
L 626.32 248.059766
L 626.32 45.969531
L 339.636172 45.969531
z
" style="fill: #ffffff"/>
   </g>
   <g id="matplotlib.axis_3">
    <g id="xtick_10"/>
    <g id="xtick_11"/>
    <g id="xtick_12"/>
    <g id="xtick_13"/>
    <g id="xtick_14"/>
    <g id="xtick_15"/>
    <g id="xtick_16"/>
    <g id="xtick_17"/>
    <g id="xtick_18"/>
   </g>
   <g id="matplotlib.axis_4">
    <g id="ytick_10">
     <g id="line2d_11">
      <path d="M 339.636172 248.059766
L 626.32 248.059766
" clip-path="url(#p1d25665b05)" style="fill: none; stroke: #e5e5e5; stroke-linecap: square"/>
     </g>
    </g>
    <g id="ytick_11">
     <g id="line2d_12">
      <path d="M 339.636172 199.796028
L 626.32 199.796028
" clip-path="url(#p1d25665b05)" style="fill: none; stroke: #e5e5e5; stroke-linecap: square"/>
     </g>
    </g>
    <g id="ytick_12">
     <g id="line2d_13">
      <path d="M 339.636172 151.532291
L 626.32 151.532291
" clip-path="url(#p1d25665b05)" style="fill: none; stroke: #e5e5e5; stroke-linecap: square"/>
     </g>
    </g>
    <g id="ytick_13">
     <g id="line2d_14">
      <path d="M 339.636172 103.268554
L 626.32 103.268554
" clip-path="url(#p1d25665b05)" style="fill: none; stroke: #e5e5e5; stroke-linecap: square"/>
     </g>
    </g>
    <g id="ytick_14">
     <g id="line2d_15">
      <path d="M 339.636172 55.004817
L 626.32 55.004817
" clip-path="url(#p1d25665b05)" style="fill: none; stroke: #e5e5e5; stroke-linecap: square"/>
     </g>
    </g>
    <g id="ytick_15">
     <g id="line2d_16">
      <path d="M 339.636172 223.927897
L 626.32 223.927897
" clip-path="url(#p1d25665b05)" style="fill: none; stroke: #fafafa; stroke-width: 0.5; stroke-linecap: square"/>
     </g>
    </g>
    <g id="ytick_16">
     <g id="line2d_17">
      <path d="M 339.636172 175.66416
L 626.32 175.66416
" clip-path="url(#p1d25665b05)" style="fill: none; stroke: #fafafa; stroke-width: 0.5; stroke-linecap: square"/>
     </g>
    </g>
    <g id="ytick_17">
     <g id="line2d_18">
      <path d="M 339.636172 127.400423
L 626.32 127.400423
" clip-path="url(#p1d25665b05)" style="fill: none; stroke: #fafafa; stroke-width: 0.5; stroke-linecap: square"/>
     </g>
    </g>
    <g id="ytick_18">
     <g id="line2d_19">
      <path d="M 339.636172 79.136685
L 626.32 79.136685
" clip-path="url(#p1d25665b05)" style="fill: none; stroke: #fafafa; stroke-width: 0.5; stroke-linecap: square"/>
     </g>
    </g>
   </g>
   <g id="PolyCollection_2">
    <path d="M 352.667255 248.059766
L 352.667255 242.129913
L 363.526491 242.129913
L 363.526491 248.059766
z
" clip-path="url(#p1d25665b05)" style="fill: #fc9706"/>
    <path d="M 352.667255 242.129913
L 352.667255 242.129913
L 363.526491 242.129913
L 363.526491 242.129913
z
" clip-path="url(#p1d25665b05)" style="fill: #ffc729"/>
    <path d="M 352.667255 242.129913
L 352.667255 242.129913
L 363.526491 242.129913
L 363.526491 242.129913
z
" clip-path="url(#p1d25665b05)" style="fill: #68bed8"/>
    <path d="M 352.667255 242.129913
L 352.667255 242.129913
L 363.526491 242.129913
L 363.526491 242.129913
z
" clip-path="url(#p1d25665b05)" style="fill: #023047"/>
    <path d="M 363.526491 248.059766
L 363.526491 242.468389
L 374.385727 242.468389
L 374.385727 248.059766
z
" clip-path="url(#p1d25665b05)" style="fill: #fc9706"/>
    <path d="M 363.526491 242.468389
L 363.526491 242.468389
L 374.385727 242.468389
L 374.385727 242.468389
z
" clip-path="url(#p1d25665b05)" style="fill: #ffc729"/>
    <path d="M 363.526491 242.468389
L 363.526491 242.468389
L 374.385727 242.468389
L 374.385727 242.468389
z
" clip-path="url(#p1d25665b05)" style="fill: #68bed8"/>
    <path d="M 363.526491 242.468389
L 363.526491 242.468389
L 374.385727 242.468389
L 374.385727 242.468389
z
" clip-path="url(#p1d25665b05)" style="fill: #023047"/>
    <path d="M 374.385727 248.059766
L 374.385727 242.897142
L 385.244963 242.897142
L 385.244963 248.059766
z
" clip-path="url(#p1d25665b05)" style="fill: #fc9706"/>
    <path d="M 374.385727 242.897142
L 374.385727 242.897142
L 385.244963 242.897142
L 385.244963 242.897142
z
" clip-path="url(#p1d25665b05)" style="fill: #ffc729"/>
    <path d="M 374.385727 242.897142
L 374.385727 242.897142
L 385.244963 242.897142
L 385.244963 242.897142
z
" clip-path="url(#p1d25665b05)" style="fill: #68bed8"/>
    <path d="M 374.385727 242.897142
L 374.385727 242.897142
L 385.244963 242.897142
L 385.244963 242.897142
z
" clip-path="url(#p1d25665b05)" style="fill: #023047"/>
    <path d="M 385.244963 248.059766
L 385.244963 243.531115
L 396.104199 243.531115
L 396.104199 248.059766
z
" clip-path="url(#p1d25665b05)" style="fill: #fc9706"/>
    <path d="M 385.244963 243.531115
L 385.244963 243.531115
L 396.104199 243.531115
L 396.104199 243.531115
z
" clip-path="url(#p1d25665b05)" style="fill: #ffc729"/>
    <path d="M 385.244963 243.531115
L 385.244963 243.531115
L 396.104199 243.531115
L 396.104199 243.531115
z
" clip-path="url(#p1d25665b05)" style="fill: #68bed8"/>
    <path d="M 385.244963 243.531115
L 385.244963 243.531115
L 396.104199 243.531115
L 396.104199 243.531115
z
" clip-path="url(#p1d25665b05)" style="fill: #023047"/>
    <path d="M 396.104199 248.059766
L 396.104199 243.625044
L 406.963435 243.625044
L 406.963435 248.059766
z
" clip-path="url(#p1d25665b05)" style="fill: #fc9706"/>
    <path d="M 396.104199 243.625044
L 396.104199 243.625044
L 406.963435 243.625044
L 406.963435 243.625044
z
" clip-path="url(#p1d25665b05)" style="fill: #ffc729"/>
    <path d="M 396.104199 243.625044
L 396.104199 243.625044
L 406.963435 243.625044
L 406.963435 243.625044
z
" clip-path="url(#p1d25665b05)" style="fill: #68bed8"/>
    <path d="M 396.104199 243.625044
L 396.104199 243.625044
L 406.963435 243.625044
L 406.963435 243.625044
z
" clip-path="url(#p1d25665b05)" style="fill: #023047"/>
    <path d="M 406.963435 248.059766
L 406.963435 243.440451
L 417.82267 243.440451
L 417.82267 248.059766
z
" clip-path="url(#p1d25665b05)" style="fill: #fc9706"/>
    <path d="M 406.963435 243.440451
L 406.963435 243.440451
L 417.82267 243.440451
L 417.82267 243.440451
z
" clip-path="url(#p1d25665b05)" style="fill: #ffc729"/>
    <path d="M 406.963435 243.440451
L 406.963435 243.440451
L 417.82267 243.440451
L 417.82267 243.440451
z
" clip-path="url(#p1d25665b05)" style="fill: #68bed8"/>
    <path d="M 406.963435 243.440451
L 406.963435 243.440451
L 417.82267 243.440451
L 417.82267 243.440451
z
" clip-path="url(#p1d25665b05)" style="fill: #023047"/>
    <path d="M 417.82267 248.059766
L 417.82267 242.899222
L 428.681906 242.899222
L 428.681906 248.059766
z
" clip-path="url(#p1d25665b05)" style="fill: #fc9706"/>
    <path d="M 417.82267 242.899222
L 417.82267 242.899222
L 428.681906 242.899222
L 428.681906 242.899222
z
" clip-path="url(#p1d25665b05)" style="fill: #ffc729"/>
    <path d="M 417.82267 242.899222
L 417.82267 242.899222
L 428.681906 242.899222
L 428.681906 242.899222
z
" clip-path="url(#p1d25665b05)" style="fill: #68bed8"/>
    <path d="M 417.82267 242.899222
L 417.82267 242.899222
L 428.681906 242.899222
L 428.681906 242.899222
z
" clip-path="url(#p1d25665b05)" style="fill: #023047"/>
    <path d="M 428.681906 248.059766
L 428.681906 242.634658
L 439.541142 242.634658
L 439.541142 248.059766
z
" clip-path="url(#p1d25665b05)" style="fill: #fc9706"/>
    <path d="M 428.681906 242.634658
L 428.681906 242.634658
L 439.541142 242.634658
L 439.541142 242.634658
z
" clip-path="url(#p1d25665b05)" style="fill: #ffc729"/>
    <path d="M 428.681906 242.634658
L 428.681906 242.634658
L 439.541142 242.634658
L 439.541142 242.634658
z
" clip-path="url(#p1d25665b05)" style="fill: #68bed8"/>
    <path d="M 428.681906 242.634658
L 428.681906 242.634658
L 439.541142 242.634658
L 439.541142 242.634658
z
" clip-path="url(#p1d25665b05)" style="fill: #023047"/>
    <path d="M 439.541142 248.059766
L 439.541142 242.570411
L 450.400378 242.570411
L 450.400378 248.059766
z
" clip-path="url(#p1d25665b05)" style="fill: #fc9706"/>
    <path d="M 439.541142 242.570411
L 439.541142 242.570411
L 450.400378 242.570411
L 450.400378 242.570411
z
" clip-path="url(#p1d25665b05)" style="fill: #ffc729"/>
    <path d="M 439.541142 242.570411
L 439.541142 242.570411
L 450.400378 242.570411
L 450.400378 242.570411
z
" clip-path="url(#p1d25665b05)" style="fill: #68bed8"/>
    <path d="M 439.541142 242.570411
L 439.541142 242.570411
L 450.400378 242.570411
L 450.400378 242.570411
z
" clip-path="url(#p1d25665b05)" style="fill: #023047"/>
    <path d="M 450.400378 248.059766
L 450.400378 241.879203
L 461.259614 241.879203
L 461.259614 248.059766
z
" clip-path="url(#p1d25665b05)" style="fill: #fc9706"/>
    <path d="M 450.400378 241.879203
L 450.400378 241.879203
L 461.259614 241.879203
L 461.259614 241.879203
z
" clip-path="url(#p1d25665b05)" style="fill: #ffc729"/>
    <path d="M 450.400378 241.879203
L 450.400378 241.879203
L 461.259614 241.879203
L 461.259614 241.879203
z
" clip-path="url(#p1d25665b05)" style="fill: #68bed8"/>
    <path d="M 450.400378 241.879203
L 450.400378 241.879203
L 461.259614 241.879203
L 461.259614 241.879203
z
" clip-path="url(#p1d25665b05)" style="fill: #023047"/>
    <path d="M 461.259614 248.059766
L 461.259614 241.685735
L 472.11885 241.685735
L 472.11885 248.059766
z
" clip-path="url(#p1d25665b05)" style="fill: #fc9706"/>
    <path d="M 461.259614 241.685735
L 461.259614 241.685735
L 472.11885 241.685735
L 472.11885 241.685735
z
" clip-path="url(#p1d25665b05)" style="fill: #ffc729"/>
    <path d="M 461.259614 241.685735
L 461.259614 241.685735
L 472.11885 241.685735
L 472.11885 241.685735
z
" clip-path="url(#p1d25665b05)" style="fill: #68bed8"/>
    <path d="M 461.259614 241.685735
L 461.259614 241.685735
L 472.11885 241.685735
L 472.11885 241.685735
z
" clip-path="url(#p1d25665b05)" style="fill: #023047"/>
    <path d="M 472.11885 248.059766
L 472.11885 240.962417
L 482.978086 240.962417
L 482.978086 248.059766
z
" clip-path="url(#p1d25665b05)" style="fill: #fc9706"/>
    <path d="M 472.11885 240.962417
L 472.11885 240.962417
L 482.978086 240.962417
L 482.978086 240.962417
z
" clip-path="url(#p1d25665b05)" style="fill: #ffc729"/>
    <path d="M 472.11885 240.962417
L 472.11885 240.962417
L 482.978086 240.962417
L 482.978086 240.962417
z
" clip-path="url(#p1d25665b05)" style="fill: #68bed8"/>
    <path d="M 472.11885 240.962417
L 472.11885 240.962417
L 482.978086 240.962417
L 482.978086 240.962417
z
" clip-path="url(#p1d25665b05)" style="fill: #023047"/>
    <path d="M 482.978086 248.059766
L 482.978086 240.742048
L 493.837322 240.742048
L 493.837322 248.059766
z
" clip-path="url(#p1d25665b05)" style="fill: #fc9706"/>
    <path d="M 482.978086 240.742048
L 482.978086 240.742048
L 493.837322 240.742048
L 493.837322 240.742048
z
" clip-path="url(#p1d25665b05)" style="fill: #ffc729"/>
    <path d="M 482.978086 240.742048
L 482.978086 237.079368
L 493.837322 237.079368
L 493.837322 240.742048
z
" clip-path="url(#p1d25665b05)" style="fill: #68bed8"/>
    <path d="M 482.978086 237.079368
L 482.978086 237.079368
L 493.837322 237.079368
L 493.837322 237.079368
z
" clip-path="url(#p1d25665b05)" style="fill: #023047"/>
    <path d="M 493.837322 248.059766
L 493.837322 238.749105
L 504.696558 238.749105
L 504.696558 248.059766
z
" clip-path="url(#p1d25665b05)" style="fill: #fc9706"/>
    <path d="M 493.837322 238.749105
L 493.837322 234.425058
L 504.696558 234.425058
L 504.696558 238.749105
z
" clip-path="url(#p1d25665b05)" style="fill: #ffc729"/>
    <path d="M 493.837322 234.425058
L 493.837322 218.361317
L 504.696558 218.361317
L 504.696558 234.425058
z
" clip-path="url(#p1d25665b05)" style="fill: #68bed8"/>
    <path d="M 493.837322 218.361317
L 493.837322 216.915685
L 504.696558 216.915685
L 504.696558 218.361317
z
" clip-path="url(#p1d25665b05)" style="fill: #023047"/>
    <path d="M 504.696558 248.059766
L 504.696558 232.047761
L 515.555794 232.047761
L 515.555794 248.059766
z
" clip-path="url(#p1d25665b05)" style="fill: #fc9706"/>
    <path d="M 504.696558 232.047761
L 504.696558 218.525858
L 515.555794 218.525858
L 515.555794 232.047761
z
" clip-path="url(#p1d25665b05)" style="fill: #ffc729"/>
    <path d="M 504.696558 218.525858
L 504.696558 191.654262
L 515.555794 191.654262
L 515.555794 218.525858
z
" clip-path="url(#p1d25665b05)" style="fill: #68bed8"/>
    <path d="M 504.696558 191.654262
L 504.696558 189.036665
L 515.555794 189.036665
L 515.555794 191.654262
z
" clip-path="url(#p1d25665b05)" style="fill: #023047"/>
    <path d="M 515.555794 248.059766
L 515.555794 224.860059
L 526.41503 224.860059
L 526.41503 248.059766
z
" clip-path="url(#p1d25665b05)" style="fill: #fc9706"/>
    <path d="M 515.555794 224.860059
L 515.555794 195.880688
L 526.41503 195.880688
L 526.41503 224.860059
z
" clip-path="url(#p1d25665b05)" style="fill: #ffc729"/>
    <path d="M 515.555794 195.880688
L 515.555794 137.939835
L 526.41503 137.939835
L 526.41503 195.880688
z
" clip-path="url(#p1d25665b05)" style="fill: #68bed8"/>
    <path d="M 515.555794 137.939835
L 515.555794 135.249731
L 526.41503 135.249731
L 526.41503 137.939835
z
" clip-path="url(#p1d25665b05)" style="fill: #023047"/>
    <path d="M 526.41503 248.059766
L 526.41503 222.479257
L 537.274266 222.479257
L 537.274266 248.059766
z
" clip-path="url(#p1d25665b05)" style="fill: #fc9706"/>
    <path d="M 526.41503 222.479257
L 526.41503 182.163607
L 537.274266 182.163607
L 537.274266 222.479257
z
" clip-path="url(#p1d25665b05)" style="fill: #ffc729"/>
    <path d="M 526.41503 182.163607
L 526.41503 112.385493
L 537.274266 112.385493
L 537.274266 182.163607
z
" clip-path="url(#p1d25665b05)" style="fill: #68bed8"/>
    <path d="M 526.41503 112.385493
L 526.41503 109.64744
L 537.274266 109.64744
L 537.274266 112.385493
z
" clip-path="url(#p1d25665b05)" style="fill: #023047"/>
    <path d="M 537.274266 248.059766
L 537.274266 188.145467
L 548.133501 188.145467
L 548.133501 248.059766
z
" clip-path="url(#p1d25665b05)" style="fill: #fc9706"/>
    <path d="M 537.274266 188.145467
L 537.274266 139.852946
L 548.133501 139.852946
L 548.133501 188.145467
z
" clip-path="url(#p1d25665b05)" style="fill: #ffc729"/>
    <path d="M 537.274266 139.852946
L 537.274266 59.123372
L 548.133501 59.123372
L 548.133501 139.852946
z
" clip-path="url(#p1d25665b05)" style="fill: #68bed8"/>
    <path d="M 537.274266 59.123372
L 537.274266 55.592876
L 548.133501 55.592876
L 548.133501 59.123372
z
" clip-path="url(#p1d25665b05)" style="fill: #023047"/>
    <path d="M 548.133501 248.059766
L 548.133501 204.802178
L 558.992737 204.802178
L 558.992737 248.059766
z
" clip-path="url(#p1d25665b05)" style="fill: #fc9706"/>
    <path d="M 548.133501 204.802178
L 548.133501 179.753406
L 558.992737 179.753406
L 558.992737 204.802178
z
" clip-path="url(#p1d25665b05)" style="fill: #ffc729"/>
    <path d="M 548.133501 179.753406
L 548.133501 120.789009
L 558.992737 120.789009
L 558.992737 179.753406
z
" clip-path="url(#p1d25665b05)" style="fill: #68bed8"/>
    <path d="M 548.133501 120.789009
L 548.133501 117.236358
L 558.992737 117.236358
L 558.992737 120.789009
z
" clip-path="url(#p1d25665b05)" style="fill: #023047"/>
    <path d="M 558.992737 248.059766
L 558.992737 205.499025
L 569.851973 205.499025
L 569.851973 248.059766
z
" clip-path="url(#p1d25665b05)" style="fill: #fc9706"/>
    <path d="M 558.992737 205.499025
L 558.992737 202.174167
L 569.851973 202.174167
L 569.851973 205.499025
z
" clip-path="url(#p1d25665b05)" style="fill: #ffc729"/>
    <path d="M 558.992737 202.174167
L 558.992737 168.785305
L 569.851973 168.785305
L 569.851973 202.174167
z
" clip-path="url(#p1d25665b05)" style="fill: #68bed8"/>
    <path d="M 558.992737 168.785305
L 558.992737 166.011156
L 569.851973 166.011156
L 569.851973 168.785305
z
" clip-path="url(#p1d25665b05)" style="fill: #023047"/>
    <path d="M 569.851973 248.059766
L 569.851973 226.565558
L 580.711209 226.565558
L 580.711209 248.059766
z
" clip-path="url(#p1d25665b05)" style="fill: #fc9706"/>
    <path d="M 569.851973 226.565558
L 569.851973 226.565558
L 580.711209 226.565558
L 580.711209 226.565558
z
" clip-path="url(#p1d25665b05)" style="fill: #ffc729"/>
    <path d="M 569.851973 226.565558
L 569.851973 212.604358
L 580.711209 212.604358
L 580.711209 226.565558
z
" clip-path="url(#p1d25665b05)" style="fill: #68bed8"/>
    <path d="M 569.851973 212.604358
L 569.851973 210.644165
L 580.711209 210.644165
L 580.711209 212.604358
z
" clip-path="url(#p1d25665b05)" style="fill: #023047"/>
    <path d="M 580.711209 248.059766
L 580.711209 235.800822
L 591.570445 235.800822
L 591.570445 248.059766
z
" clip-path="url(#p1d25665b05)" style="fill: #fc9706"/>
    <path d="M 580.711209 235.800822
L 580.711209 235.800822
L 591.570445 235.800822
L 591.570445 235.800822
z
" clip-path="url(#p1d25665b05)" style="fill: #ffc729"/>
    <path d="M 580.711209 235.800822
L 580.711209 233.503541
L 591.570445 233.503541
L 591.570445 235.800822
z
" clip-path="url(#p1d25665b05)" style="fill: #68bed8"/>
    <path d="M 580.711209 233.503541
L 580.711209 231.993652
L 591.570445 231.993652
L 591.570445 233.503541
z
" clip-path="url(#p1d25665b05)" style="fill: #023047"/>
    <path d="M 591.570445 248.059766
L 591.570445 239.338103
L 602.429681 239.338103
L 602.429681 248.059766
z
" clip-path="url(#p1d25665b05)" style="fill: #fc9706"/>
    <path d="M 591.570445 239.338103
L 591.570445 239.338103
L 602.429681 239.338103
L 602.429681 239.338103
z
" clip-path="url(#p1d25665b05)" style="fill: #ffc729"/>
    <path d="M 591.570445 239.338103
L 591.570445 239.338103
L 602.429681 239.338103
L 602.429681 239.338103
z
" clip-path="url(#p1d25665b05)" style="fill: #68bed8"/>
    <path d="M 591.570445 239.338103
L 591.570445 239.338103
L 602.429681 239.338103
L 602.429681 239.338103
z
" clip-path="url(#p1d25665b05)" style="fill: #023047"/>
    <path d="M 602.429681 248.059766
L 602.429681 241.274832
L 613.288917 241.274832
L 613.288917 248.059766
z
" clip-path="url(#p1d25665b05)" style="fill: #fc9706"/>
    <path d="M 602.429681 241.274832
L 602.429681 241.274832
L 613.288917 241.274832
L 613.288917 241.274832
z
" clip-path="url(#p1d25665b05)" style="fill: #ffc729"/>
    <path d="M 602.429681 241.274832
L 602.429681 241.274832
L 613.288917 241.274832
L 613.288917 241.274832
z
" clip-path="url(#p1d25665b05)" style="fill: #68bed8"/>
    <path d="M 602.429681 241.274832
L 602.429681 241.274832
L 613.288917 241.274832
L 613.288917 241.274832
z
" clip-path="url(#p1d25665b05)" style="fill: #023047"/>
   </g>
   <g id="line2d_20">
    <path d="M 352.667255 237.814574
L 363.526491 237.814574
L 363.526491 237.814574
L 374.385727 237.814574
L 374.385727 237.814574
L 385.244963 237.814574
L 385.244963 237.814574
L 396.104199 237.814574
L 396.104199 237.814574
L 406.963435 237.814574
L 406.963435 237.814574
L 417.82267 237.814574
L 417.82267 237.814574
L 428.681906 237.814574
L 428.681906 237.814574
L 439.541142 237.814574
L 439.541142 237.814574
L 450.400378 237.814574
L 450.400378 237.814574
L 461.259614 237.814574
L 461.259614 237.814574
L 472.11885 237.814574
L 472.11885 237.814574
L 482.978086 237.814574
L 482.978086 237.814574
L 493.837322 237.814574
L 493.837322 237.814574
L 504.696558 237.814574
L 504.696558 237.814574
L 515.555794 237.814574
L 515.555794 216.878524
L 526.41503 216.878524
L 526.41503 216.878524
L 537.274266 216.878524
L 537.274266 216.878524
L 548.133501 216.878524
L 548.133501 216.878524
L 558.992737 216.878524
L 558.992737 216.878524
L 569.851973 216.878524
L 569.851973 237.814574
L 580.711209 237.814574
L 580.711209 237.814574
L 591.570445 237.814574
L 591.570445 237.814574
L 602.429681 237.814574
L 602.429681 237.814574
" clip-path="url(#p1d25665b05)" style="fill: none; stroke: #000000; stroke-width: 1.240718; stroke-linejoin: miter"/>
   </g>
   <g id="patch_5">
    <path d="M 339.636172 248.059766
L 626.32 248.059766
" style="fill: none; stroke: #000000; stroke-width: 0.5; stroke-linejoin: miter; stroke-linecap: square"/>
   </g>
  </g>
  <g id="axes_3">
   <g id="patch_6">
    <path d="M 45.392344 457.71
L 332.076172 457.71
L 332.076172 255.619766
L 45.392344 255.619766
z
" style="fill: #ffffff"/>
   </g>
   <g id="matplotlib.axis_5">
    <g id="xtick_19">
     <g id="line2d_21">
      <path d="M 58.423427 457.71
" style="fill: none; stroke: #000000; stroke-width: 1.5; stroke-linecap: square"/>
      <defs>
       <path id="m5316f732d3" d="M 0 0
L 0 2.75
" style="stroke: #000000"/>
      </defs>
      <g>
       <use xlink:href="#m5316f732d3" x="58.423427" y="457.71" style="stroke: #000000"/>
      </g>
     </g>
     <g id="text_8">
      <text style="font-size: 11px; font-family: 'IBM Plex Sans'; text-anchor: middle; fill: #4d4d4d" x="58.423427" y="470.8" transform="rotate(-0 58.423427 470.8)">1</text>
     </g>
    </g>
    <g id="xtick_20">
     <g id="line2d_22">
      <path d="M 112.719606 457.71
" style="fill: none; stroke: #000000; stroke-width: 1.5; stroke-linecap: square"/>
      <g>
       <use xlink:href="#m5316f732d3" x="112.719606" y="457.71" style="stroke: #000000"/>
      </g>
     </g>
     <g id="text_9">
      <text style="font-size: 11px; font-family: 'IBM Plex Sans'; text-anchor: middle; fill: #4d4d4d" x="112.719606" y="470.8" transform="rotate(-0 112.719606 470.8)">6</text>
     </g>
    </g>
    <g id="xtick_21">
     <g id="line2d_23">
      <path d="M 177.875022 457.71
" style="fill: none; stroke: #000000; stroke-width: 1.5; stroke-linecap: square"/>
      <g>
       <use xlink:href="#m5316f732d3" x="177.875022" y="457.71" style="stroke: #000000"/>
      </g>
     </g>
     <g id="text_10">
      <text style="font-size: 11px; font-family: 'IBM Plex Sans'; text-anchor: middle; fill: #4d4d4d" x="177.875022" y="470.8" transform="rotate(-0 177.875022 470.8)">12</text>
     </g>
    </g>
    <g id="xtick_22">
     <g id="line2d_24">
      <path d="M 243.030437 457.71
" style="fill: none; stroke: #000000; stroke-width: 1.5; stroke-linecap: square"/>
      <g>
       <use xlink:href="#m5316f732d3" x="243.030437" y="457.71" style="stroke: #000000"/>
      </g>
     </g>
     <g id="text_11">
      <text style="font-size: 11px; font-family: 'IBM Plex Sans'; text-anchor: middle; fill: #4d4d4d" x="243.030437" y="470.8" transform="rotate(-0 243.030437 470.8)">18</text>
     </g>
    </g>
    <g id="xtick_23">
     <g id="line2d_25">
      <path d="M 308.185853 457.71
" style="fill: none; stroke: #000000; stroke-width: 1.5; stroke-linecap: square"/>
      <g>
       <use xlink:href="#m5316f732d3" x="308.185853" y="457.71" style="stroke: #000000"/>
      </g>
     </g>
     <g id="text_12">
      <text style="font-size: 11px; font-family: 'IBM Plex Sans'; text-anchor: middle; fill: #4d4d4d" x="308.185853" y="470.8" transform="rotate(-0 308.185853 470.8)">24</text>
     </g>
    </g>
    <g id="xtick_24">
     <g id="line2d_26">
      <path d="M 85.571517 457.71
" style="fill: none; stroke: #000000; stroke-width: 1.5; stroke-linecap: square"/>
      <defs>
       <path id="m8e5c48a2dd" d="M 0 0
L 0 1.375
" style="stroke: #000000"/>
      </defs>
      <g>
       <use xlink:href="#m8e5c48a2dd" x="85.571517" y="457.71" style="stroke: #000000"/>
      </g>
     </g>
    </g>
    <g id="xtick_25">
     <g id="line2d_27">
      <path d="M 145.297314 457.71
" style="fill: none; stroke: #000000; stroke-width: 1.5; stroke-linecap: square"/>
      <g>
       <use xlink:href="#m8e5c48a2dd" x="145.297314" y="457.71" style="stroke: #000000"/>
      </g>
     </g>
    </g>
    <g id="xtick_26">
     <g id="line2d_28">
      <path d="M 210.45273 457.71
" style="fill: none; stroke: #000000; stroke-width: 1.5; stroke-linecap: square"/>
      <g>
       <use xlink:href="#m8e5c48a2dd" x="210.45273" y="457.71" style="stroke: #000000"/>
      </g>
     </g>
    </g>
    <g id="xtick_27">
     <g id="line2d_29">
      <path d="M 275.608145 457.71
" style="fill: none; stroke: #000000; stroke-width: 1.5; stroke-linecap: square"/>
      <g>
       <use xlink:href="#m8e5c48a2dd" x="275.608145" y="457.71" style="stroke: #000000"/>
      </g>
     </g>
    </g>
   </g>
   <g id="matplotlib.axis_6">
    <g id="ytick_19">
     <g id="line2d_30">
      <path d="M 45.392344 457.71
L 332.076172 457.71
" clip-path="url(#p3d5354a0cc)" style="fill: none; stroke: #e5e5e5; stroke-linecap: square"/>
     </g>
     <g id="text_13">
      <text style="font-size: 11px; font-family: 'IBM Plex Sans'; text-anchor: start; fill: #4d4d4d" x="27" y="461.78" transform="rotate(-0 27 461.78)">0.0</text>
     </g>
    </g>
    <g id="ytick_20">
     <g id="line2d_31">
      <path d="M 45.392344 409.446263
L 332.076172 409.446263
" clip-path="url(#p3d5354a0cc)" style="fill: none; stroke: #e5e5e5; stroke-linecap: square"/>
     </g>
     <g id="text_14">
      <text style="font-size: 11px; font-family: 'IBM Plex Sans'; text-anchor: start; fill: #4d4d4d" x="27" y="413.516263" transform="rotate(-0 27 413.516263)">0.5</text>
     </g>
    </g>
    <g id="ytick_21">
     <g id="line2d_32">
      <path d="M 45.392344 361.182526
L 332.076172 361.182526
" clip-path="url(#p3d5354a0cc)" style="fill: none; stroke: #e5e5e5; stroke-linecap: square"/>
     </g>
     <g id="text_15">
      <text style="font-size: 11px; font-family: 'IBM Plex Sans'; text-anchor: start; fill: #4d4d4d" x="27" y="365.252526" transform="rotate(-0 27 365.252526)">1.0</text>
     </g>
    </g>
    <g id="ytick_22">
     <g id="line2d_33">
      <path d="M 45.392344 312.918788
L 332.076172 312.918788
" clip-path="url(#p3d5354a0cc)" style="fill: none; stroke: #e5e5e5; stroke-linecap: square"/>
     </g>
     <g id="text_16">
      <text style="font-size: 11px; font-family: 'IBM Plex Sans'; text-anchor: start; fill: #4d4d4d" x="27" y="316.988788" transform="rotate(-0 27 316.988788)">1.5</text>
     </g>
    </g>
    <g id="ytick_23">
     <g id="line2d_34">
      <path d="M 45.392344 264.655051
L 332.076172 264.655051
" clip-path="url(#p3d5354a0cc)" style="fill: none; stroke: #e5e5e5; stroke-linecap: square"/>
     </g>
     <g id="text_17">
      <text style="font-size: 11px; font-family: 'IBM Plex Sans'; text-anchor: start; fill: #4d4d4d" x="27" y="268.725051" transform="rotate(-0 27 268.725051)">2.0</text>
     </g>
    </g>
    <g id="ytick_24">
     <g id="line2d_35">
      <path d="M 45.392344 433.578131
L 332.076172 433.578131
" clip-path="url(#p3d5354a0cc)" style="fill: none; stroke: #fafafa; stroke-width: 0.5; stroke-linecap: square"/>
     </g>
    </g>
    <g id="ytick_25">
     <g id="line2d_36">
      <path d="M 45.392344 385.314394
L 332.076172 385.314394
" clip-path="url(#p3d5354a0cc)" style="fill: none; stroke: #fafafa; stroke-width: 0.5; stroke-linecap: square"/>
     </g>
    </g>
    <g id="ytick_26">
     <g id="line2d_37">
      <path d="M 45.392344 337.050657
L 332.076172 337.050657
" clip-path="url(#p3d5354a0cc)" style="fill: none; stroke: #fafafa; stroke-width: 0.5; stroke-linecap: square"/>
     </g>
    </g>
    <g id="ytick_27">
     <g id="line2d_38">
      <path d="M 45.392344 288.78692
L 332.076172 288.78692
" clip-path="url(#p3d5354a0cc)" style="fill: none; stroke: #fafafa; stroke-width: 0.5; stroke-linecap: square"/>
     </g>
    </g>
   </g>
   <g id="PolyCollection_3">
    <path d="M 58.423427 457.71
L 58.423427 450.085963
L 69.282663 450.085963
L 69.282663 457.71
z
" clip-path="url(#p3d5354a0cc)" style="fill: #fc9706"/>
    <path d="M 58.423427 450.085963
L 58.423427 450.085963
L 69.282663 450.085963
L 69.282663 450.085963
z
" clip-path="url(#p3d5354a0cc)" style="fill: #ffc729"/>
    <path d="M 58.423427 450.085963
L 58.423427 450.085963
L 69.282663 450.085963
L 69.282663 450.085963
z
" clip-path="url(#p3d5354a0cc)" style="fill: #68bed8"/>
    <path d="M 58.423427 450.085963
L 58.423427 450.085963
L 69.282663 450.085963
L 69.282663 450.085963
z
" clip-path="url(#p3d5354a0cc)" style="fill: #023047"/>
    <path d="M 69.282663 457.71
L 69.282663 450.558806
L 80.141899 450.558806
L 80.141899 457.71
z
" clip-path="url(#p3d5354a0cc)" style="fill: #fc9706"/>
    <path d="M 69.282663 450.558806
L 69.282663 450.558806
L 80.141899 450.558806
L 80.141899 450.558806
z
" clip-path="url(#p3d5354a0cc)" style="fill: #ffc729"/>
    <path d="M 69.282663 450.558806
L 69.282663 450.558806
L 80.141899 450.558806
L 80.141899 450.558806
z
" clip-path="url(#p3d5354a0cc)" style="fill: #68bed8"/>
    <path d="M 69.282663 450.558806
L 69.282663 450.558806
L 80.141899 450.558806
L 80.141899 450.558806
z
" clip-path="url(#p3d5354a0cc)" style="fill: #023047"/>
    <path d="M 80.141899 457.71
L 80.141899 450.826817
L 91.001135 450.826817
L 91.001135 457.71
z
" clip-path="url(#p3d5354a0cc)" style="fill: #fc9706"/>
    <path d="M 80.141899 450.826817
L 80.141899 450.826817
L 91.001135 450.826817
L 91.001135 450.826817
z
" clip-path="url(#p3d5354a0cc)" style="fill: #ffc729"/>
    <path d="M 80.141899 450.826817
L 80.141899 450.826817
L 91.001135 450.826817
L 91.001135 450.826817
z
" clip-path="url(#p3d5354a0cc)" style="fill: #68bed8"/>
    <path d="M 80.141899 450.826817
L 80.141899 450.826817
L 91.001135 450.826817
L 91.001135 450.826817
z
" clip-path="url(#p3d5354a0cc)" style="fill: #023047"/>
    <path d="M 91.001135 457.71
L 91.001135 450.757906
L 101.860371 450.757906
L 101.860371 457.71
z
" clip-path="url(#p3d5354a0cc)" style="fill: #fc9706"/>
    <path d="M 91.001135 450.757906
L 91.001135 450.757906
L 101.860371 450.757906
L 101.860371 450.757906
z
" clip-path="url(#p3d5354a0cc)" style="fill: #ffc729"/>
    <path d="M 91.001135 450.757906
L 91.001135 450.757906
L 101.860371 450.757906
L 101.860371 450.757906
z
" clip-path="url(#p3d5354a0cc)" style="fill: #68bed8"/>
    <path d="M 91.001135 450.757906
L 91.001135 450.757906
L 101.860371 450.757906
L 101.860371 450.757906
z
" clip-path="url(#p3d5354a0cc)" style="fill: #023047"/>
    <path d="M 101.860371 457.71
L 101.860371 450.565625
L 112.719606 450.565625
L 112.719606 457.71
z
" clip-path="url(#p3d5354a0cc)" style="fill: #fc9706"/>
    <path d="M 101.860371 450.565625
L 101.860371 450.565625
L 112.719606 450.565625
L 112.719606 450.565625
z
" clip-path="url(#p3d5354a0cc)" style="fill: #ffc729"/>
    <path d="M 101.860371 450.565625
L 101.860371 450.565625
L 112.719606 450.565625
L 112.719606 450.565625
z
" clip-path="url(#p3d5354a0cc)" style="fill: #68bed8"/>
    <path d="M 101.860371 450.565625
L 101.860371 450.565625
L 112.719606 450.565625
L 112.719606 450.565625
z
" clip-path="url(#p3d5354a0cc)" style="fill: #023047"/>
    <path d="M 112.719606 457.71
L 112.719606 450.738896
L 123.578842 450.738896
L 123.578842 457.71
z
" clip-path="url(#p3d5354a0cc)" style="fill: #fc9706"/>
    <path d="M 112.719606 450.738896
L 112.719606 450.738896
L 123.578842 450.738896
L 123.578842 450.738896
z
" clip-path="url(#p3d5354a0cc)" style="fill: #ffc729"/>
    <path d="M 112.719606 450.738896
L 112.719606 450.738896
L 123.578842 450.738896
L 123.578842 450.738896
z
" clip-path="url(#p3d5354a0cc)" style="fill: #68bed8"/>
    <path d="M 112.719606 450.738896
L 112.719606 450.738896
L 123.578842 450.738896
L 123.578842 450.738896
z
" clip-path="url(#p3d5354a0cc)" style="fill: #023047"/>
    <path d="M 123.578842 457.71
L 123.578842 449.607444
L 134.438078 449.607444
L 134.438078 457.71
z
" clip-path="url(#p3d5354a0cc)" style="fill: #fc9706"/>
    <path d="M 123.578842 449.607444
L 123.578842 449.607444
L 134.438078 449.607444
L 134.438078 449.607444
z
" clip-path="url(#p3d5354a0cc)" style="fill: #ffc729"/>
    <path d="M 123.578842 449.607444
L 123.578842 449.607444
L 134.438078 449.607444
L 134.438078 449.607444
z
" clip-path="url(#p3d5354a0cc)" style="fill: #68bed8"/>
    <path d="M 123.578842 449.607444
L 123.578842 449.607444
L 134.438078 449.607444
L 134.438078 449.607444
z
" clip-path="url(#p3d5354a0cc)" style="fill: #023047"/>
    <path d="M 134.438078 457.71
L 134.438078 449.207018
L 145.297314 449.207018
L 145.297314 457.71
z
" clip-path="url(#p3d5354a0cc)" style="fill: #fc9706"/>
    <path d="M 134.438078 449.207018
L 134.438078 449.207018
L 145.297314 449.207018
L 145.297314 449.207018
z
" clip-path="url(#p3d5354a0cc)" style="fill: #ffc729"/>
    <path d="M 134.438078 449.207018
L 134.438078 449.207018
L 145.297314 449.207018
L 145.297314 449.207018
z
" clip-path="url(#p3d5354a0cc)" style="fill: #68bed8"/>
    <path d="M 134.438078 449.207018
L 134.438078 449.207018
L 145.297314 449.207018
L 145.297314 449.207018
z
" clip-path="url(#p3d5354a0cc)" style="fill: #023047"/>
    <path d="M 145.297314 457.71
L 145.297314 449.442033
L 156.15655 449.442033
L 156.15655 457.71
z
" clip-path="url(#p3d5354a0cc)" style="fill: #fc9706"/>
    <path d="M 145.297314 449.442033
L 145.297314 449.442033
L 156.15655 449.442033
L 156.15655 449.442033
z
" clip-path="url(#p3d5354a0cc)" style="fill: #ffc729"/>
    <path d="M 145.297314 449.442033
L 145.297314 449.442033
L 156.15655 449.442033
L 156.15655 449.442033
z
" clip-path="url(#p3d5354a0cc)" style="fill: #68bed8"/>
    <path d="M 145.297314 449.442033
L 145.297314 449.442033
L 156.15655 449.442033
L 156.15655 449.442033
z
" clip-path="url(#p3d5354a0cc)" style="fill: #023047"/>
    <path d="M 156.15655 457.71
L 156.15655 450.038476
L 167.015786 450.038476
L 167.015786 457.71
z
" clip-path="url(#p3d5354a0cc)" style="fill: #fc9706"/>
    <path d="M 156.15655 450.038476
L 156.15655 450.038476
L 167.015786 450.038476
L 167.015786 450.038476
z
" clip-path="url(#p3d5354a0cc)" style="fill: #ffc729"/>
    <path d="M 156.15655 450.038476
L 156.15655 450.038476
L 167.015786 450.038476
L 167.015786 450.038476
z
" clip-path="url(#p3d5354a0cc)" style="fill: #68bed8"/>
    <path d="M 156.15655 450.038476
L 156.15655 450.038476
L 167.015786 450.038476
L 167.015786 450.038476
z
" clip-path="url(#p3d5354a0cc)" style="fill: #023047"/>
    <path d="M 167.015786 457.71
L 167.015786 449.95516
L 177.875022 449.95516
L 177.875022 457.71
z
" clip-path="url(#p3d5354a0cc)" style="fill: #fc9706"/>
    <path d="M 167.015786 449.95516
L 167.015786 449.95516
L 177.875022 449.95516
L 177.875022 449.95516
z
" clip-path="url(#p3d5354a0cc)" style="fill: #ffc729"/>
    <path d="M 167.015786 449.95516
L 167.015786 449.95516
L 177.875022 449.95516
L 177.875022 449.95516
z
" clip-path="url(#p3d5354a0cc)" style="fill: #68bed8"/>
    <path d="M 167.015786 449.95516
L 167.015786 449.95516
L 177.875022 449.95516
L 177.875022 449.95516
z
" clip-path="url(#p3d5354a0cc)" style="fill: #023047"/>
    <path d="M 177.875022 457.71
L 177.875022 450.074947
L 188.734258 450.074947
L 188.734258 457.71
z
" clip-path="url(#p3d5354a0cc)" style="fill: #fc9706"/>
    <path d="M 177.875022 450.074947
L 177.875022 450.074947
L 188.734258 450.074947
L 188.734258 450.074947
z
" clip-path="url(#p3d5354a0cc)" style="fill: #ffc729"/>
    <path d="M 177.875022 450.074947
L 177.875022 450.074947
L 188.734258 450.074947
L 188.734258 450.074947
z
" clip-path="url(#p3d5354a0cc)" style="fill: #68bed8"/>
    <path d="M 177.875022 450.074947
L 177.875022 450.074947
L 188.734258 450.074947
L 188.734258 450.074947
z
" clip-path="url(#p3d5354a0cc)" style="fill: #023047"/>
    <path d="M 188.734258 457.71
L 188.734258 450.149282
L 199.593494 450.149282
L 199.593494 457.71
z
" clip-path="url(#p3d5354a0cc)" style="fill: #fc9706"/>
    <path d="M 188.734258 450.149282
L 188.734258 450.149282
L 199.593494 450.149282
L 199.593494 450.149282
z
" clip-path="url(#p3d5354a0cc)" style="fill: #ffc729"/>
    <path d="M 188.734258 450.149282
L 188.734258 450.149282
L 199.593494 450.149282
L 199.593494 450.149282
z
" clip-path="url(#p3d5354a0cc)" style="fill: #68bed8"/>
    <path d="M 188.734258 450.149282
L 188.734258 450.149282
L 199.593494 450.149282
L 199.593494 450.149282
z
" clip-path="url(#p3d5354a0cc)" style="fill: #023047"/>
    <path d="M 199.593494 457.71
L 199.593494 450.354196
L 210.45273 450.354196
L 210.45273 457.71
z
" clip-path="url(#p3d5354a0cc)" style="fill: #fc9706"/>
    <path d="M 199.593494 450.354196
L 199.593494 450.354196
L 210.45273 450.354196
L 210.45273 450.354196
z
" clip-path="url(#p3d5354a0cc)" style="fill: #ffc729"/>
    <path d="M 199.593494 450.354196
L 199.593494 450.354196
L 210.45273 450.354196
L 210.45273 450.354196
z
" clip-path="url(#p3d5354a0cc)" style="fill: #68bed8"/>
    <path d="M 199.593494 450.354196
L 199.593494 450.354196
L 210.45273 450.354196
L 210.45273 450.354196
z
" clip-path="url(#p3d5354a0cc)" style="fill: #023047"/>
    <path d="M 210.45273 457.71
L 210.45273 450.167022
L 221.311966 450.167022
L 221.311966 457.71
z
" clip-path="url(#p3d5354a0cc)" style="fill: #fc9706"/>
    <path d="M 210.45273 450.167022
L 210.45273 450.167022
L 221.311966 450.167022
L 221.311966 450.167022
z
" clip-path="url(#p3d5354a0cc)" style="fill: #ffc729"/>
    <path d="M 210.45273 450.167022
L 210.45273 450.167022
L 221.311966 450.167022
L 221.311966 450.167022
z
" clip-path="url(#p3d5354a0cc)" style="fill: #68bed8"/>
    <path d="M 210.45273 450.167022
L 210.45273 450.167022
L 221.311966 450.167022
L 221.311966 450.167022
z
" clip-path="url(#p3d5354a0cc)" style="fill: #023047"/>
    <path d="M 221.311966 457.71
L 221.311966 449.929681
L 232.171201 449.929681
L 232.171201 457.71
z
" clip-path="url(#p3d5354a0cc)" style="fill: #fc9706"/>
    <path d="M 221.311966 449.929681
L 221.311966 449.929681
L 232.171201 449.929681
L 232.171201 449.929681
z
" clip-path="url(#p3d5354a0cc)" style="fill: #ffc729"/>
    <path d="M 221.311966 449.929681
L 221.311966 449.929681
L 232.171201 449.929681
L 232.171201 449.929681
z
" clip-path="url(#p3d5354a0cc)" style="fill: #68bed8"/>
    <path d="M 221.311966 449.929681
L 221.311966 449.929681
L 232.171201 449.929681
L 232.171201 449.929681
z
" clip-path="url(#p3d5354a0cc)" style="fill: #023047"/>
    <path d="M 232.171201 457.71
L 232.171201 449.305361
L 243.030437 449.305361
L 243.030437 457.71
z
" clip-path="url(#p3d5354a0cc)" style="fill: #fc9706"/>
    <path d="M 232.171201 449.305361
L 232.171201 449.305361
L 243.030437 449.305361
L 243.030437 449.305361
z
" clip-path="url(#p3d5354a0cc)" style="fill: #ffc729"/>
    <path d="M 232.171201 449.305361
L 232.171201 449.305361
L 243.030437 449.305361
L 243.030437 449.305361
z
" clip-path="url(#p3d5354a0cc)" style="fill: #68bed8"/>
    <path d="M 232.171201 449.305361
L 232.171201 449.305361
L 243.030437 449.305361
L 243.030437 449.305361
z
" clip-path="url(#p3d5354a0cc)" style="fill: #023047"/>
    <path d="M 243.030437 457.71
L 243.030437 446.711979
L 253.889673 446.711979
L 253.889673 457.71
z
" clip-path="url(#p3d5354a0cc)" style="fill: #fc9706"/>
    <path d="M 243.030437 446.711979
L 243.030437 446.711979
L 253.889673 446.711979
L 253.889673 446.711979
z
" clip-path="url(#p3d5354a0cc)" style="fill: #ffc729"/>
    <path d="M 243.030437 446.711979
L 243.030437 446.711979
L 253.889673 446.711979
L 253.889673 446.711979
z
" clip-path="url(#p3d5354a0cc)" style="fill: #68bed8"/>
    <path d="M 243.030437 446.711979
L 243.030437 446.711979
L 253.889673 446.711979
L 253.889673 446.711979
z
" clip-path="url(#p3d5354a0cc)" style="fill: #023047"/>
    <path d="M 253.889673 457.71
L 253.889673 447.118863
L 264.748909 447.118863
L 264.748909 457.71
z
" clip-path="url(#p3d5354a0cc)" style="fill: #fc9706"/>
    <path d="M 253.889673 447.118863
L 253.889673 447.118863
L 264.748909 447.118863
L 264.748909 447.118863
z
" clip-path="url(#p3d5354a0cc)" style="fill: #ffc729"/>
    <path d="M 253.889673 447.118863
L 253.889673 447.118863
L 264.748909 447.118863
L 264.748909 447.118863
z
" clip-path="url(#p3d5354a0cc)" style="fill: #68bed8"/>
    <path d="M 253.889673 447.118863
L 253.889673 447.118863
L 264.748909 447.118863
L 264.748909 447.118863
z
" clip-path="url(#p3d5354a0cc)" style="fill: #023047"/>
    <path d="M 264.748909 457.71
L 264.748909 448.062387
L 275.608145 448.062387
L 275.608145 457.71
z
" clip-path="url(#p3d5354a0cc)" style="fill: #fc9706"/>
    <path d="M 264.748909 448.062387
L 264.748909 448.062387
L 275.608145 448.062387
L 275.608145 448.062387
z
" clip-path="url(#p3d5354a0cc)" style="fill: #ffc729"/>
    <path d="M 264.748909 448.062387
L 264.748909 448.062387
L 275.608145 448.062387
L 275.608145 448.062387
z
" clip-path="url(#p3d5354a0cc)" style="fill: #68bed8"/>
    <path d="M 264.748909 448.062387
L 264.748909 448.062387
L 275.608145 448.062387
L 275.608145 448.062387
z
" clip-path="url(#p3d5354a0cc)" style="fill: #023047"/>
    <path d="M 275.608145 457.71
L 275.608145 448.31567
L 286.467381 448.31567
L 286.467381 457.71
z
" clip-path="url(#p3d5354a0cc)" style="fill: #fc9706"/>
    <path d="M 275.608145 448.31567
L 275.608145 448.31567
L 286.467381 448.31567
L 286.467381 448.31567
z
" clip-path="url(#p3d5354a0cc)" style="fill: #ffc729"/>
    <path d="M 275.608145 448.31567
L 275.608145 448.31567
L 286.467381 448.31567
L 286.467381 448.31567
z
" clip-path="url(#p3d5354a0cc)" style="fill: #68bed8"/>
    <path d="M 275.608145 448.31567
L 275.608145 448.31567
L 286.467381 448.31567
L 286.467381 448.31567
z
" clip-path="url(#p3d5354a0cc)" style="fill: #023047"/>
    <path d="M 286.467381 457.71
L 286.467381 449.507949
L 297.326617 449.507949
L 297.326617 457.71
z
" clip-path="url(#p3d5354a0cc)" style="fill: #fc9706"/>
    <path d="M 286.467381 449.507949
L 286.467381 449.507949
L 297.326617 449.507949
L 297.326617 449.507949
z
" clip-path="url(#p3d5354a0cc)" style="fill: #ffc729"/>
    <path d="M 286.467381 449.507949
L 286.467381 449.507949
L 297.326617 449.507949
L 297.326617 449.507949
z
" clip-path="url(#p3d5354a0cc)" style="fill: #68bed8"/>
    <path d="M 286.467381 449.507949
L 286.467381 449.507949
L 297.326617 449.507949
L 297.326617 449.507949
z
" clip-path="url(#p3d5354a0cc)" style="fill: #023047"/>
    <path d="M 297.326617 457.71
L 297.326617 449.754243
L 308.185853 449.754243
L 308.185853 457.71
z
" clip-path="url(#p3d5354a0cc)" style="fill: #fc9706"/>
    <path d="M 297.326617 449.754243
L 297.326617 449.754243
L 308.185853 449.754243
L 308.185853 449.754243
z
" clip-path="url(#p3d5354a0cc)" style="fill: #ffc729"/>
    <path d="M 297.326617 449.754243
L 297.326617 449.754243
L 308.185853 449.754243
L 308.185853 449.754243
z
" clip-path="url(#p3d5354a0cc)" style="fill: #68bed8"/>
    <path d="M 297.326617 449.754243
L 297.326617 449.754243
L 308.185853 449.754243
L 308.185853 449.754243
z
" clip-path="url(#p3d5354a0cc)" style="fill: #023047"/>
    <path d="M 308.185853 457.71
L 308.185853 449.975206
L 319.045089 449.975206
L 319.045089 457.71
z
" clip-path="url(#p3d5354a0cc)" style="fill: #fc9706"/>
    <path d="M 308.185853 449.975206
L 308.185853 449.975206
L 319.045089 449.975206
L 319.045089 449.975206
z
" clip-path="url(#p3d5354a0cc)" style="fill: #ffc729"/>
    <path d="M 308.185853 449.975206
L 308.185853 449.975206
L 319.045089 449.975206
L 319.045089 449.975206
z
" clip-path="url(#p3d5354a0cc)" style="fill: #68bed8"/>
    <path d="M 308.185853 449.975206
L 308.185853 449.975206
L 319.045089 449.975206
L 319.045089 449.975206
z
" clip-path="url(#p3d5354a0cc)" style="fill: #023047"/>
   </g>
   <g id="line2d_39">
    <path d="M 58.423427 446.167767
L 69.282663 446.167767
L 69.282663 446.167767
L 80.141899 446.167767
L 80.141899 446.167767
L 91.001135 446.167767
L 91.001135 446.167767
L 101.860371 446.167767
L 101.860371 446.167767
L 112.719606 446.167767
L 112.719606 446.167767
L 123.578842 446.167767
L 123.578842 446.167767
L 134.438078 446.167767
L 134.438078 446.167767
L 145.297314 446.167767
L 145.297314 446.167767
L 156.15655 446.167767
L 156.15655 446.167767
L 167.015786 446.167767
L 167.015786 446.167767
L 177.875022 446.167767
L 177.875022 446.167767
L 188.734258 446.167767
L 188.734258 446.167767
L 199.593494 446.167767
L 199.593494 446.167767
L 210.45273 446.167767
L 210.45273 446.167767
L 221.311966 446.167767
L 221.311966 446.167767
L 232.171201 446.167767
L 232.171201 439.616991
L 243.030437 439.616991
L 243.030437 439.616991
L 253.889673 439.616991
L 253.889673 439.616991
L 264.748909 439.616991
L 264.748909 439.616991
L 275.608145 439.616991
L 275.608145 439.616991
L 286.467381 439.616991
L 286.467381 446.167767
L 297.326617 446.167767
L 297.326617 446.167767
L 308.185853 446.167767
L 308.185853 446.167767
" clip-path="url(#p3d5354a0cc)" style="fill: none; stroke: #000000; stroke-width: 1.240718; stroke-linejoin: miter"/>
   </g>
   <g id="text_18">
    <g clip-path="url(#p3d5354a0cc)">
     <text style="font-size: 9px; font-family: 'IBM Plex Sans'; text-anchor: middle" x="101.860371" y="444.174712" transform="rotate(-0 101.860371 444.174712)">Off-peak: $0.120</text>
    </g>
   </g>
   <g id="text_19">
    <g clip-path="url(#p3d5354a0cc)">
     <text style="font-size: 9px; font-family: 'IBM Plex Sans'; text-anchor: middle" x="253.889673" y="437.623936" transform="rotate(-0 253.889673 437.623936)">On-peak: $0.187</text>
    </g>
   </g>
   <g id="patch_7">
    <path d="M 45.392344 457.71
L 332.076172 457.71
" style="fill: none; stroke: #000000; stroke-width: 0.5; stroke-linejoin: miter; stroke-linecap: square"/>
   </g>
  </g>
  <g id="axes_4">
   <g id="patch_8">
    <path d="M 339.636172 457.71
L 626.32 457.71
L 626.32 255.619766
L 339.636172 255.619766
z
" style="fill: #ffffff"/>
   </g>
   <g id="matplotlib.axis_7">
    <g id="xtick_28">
     <g id="line2d_40">
      <path d="M 352.667255 457.71
" style="fill: none; stroke: #000000; stroke-width: 1.5; stroke-linecap: square"/>
      <g>
       <use xlink:href="#m5316f732d3" x="352.667255" y="457.71" style="stroke: #000000"/>
      </g>
     </g>
     <g id="text_20">
      <text style="font-size: 11px; font-family: 'IBM Plex Sans'; text-anchor: middle; fill: #4d4d4d" x="352.667255" y="470.8" transform="rotate(-0 352.667255 470.8)">1</text>
     </g>
    </g>
    <g id="xtick_29">
     <g id="line2d_41">
      <path d="M 406.963435 457.71
" style="fill: none; stroke: #000000; stroke-width: 1.5; stroke-linecap: square"/>
      <g>
       <use xlink:href="#m5316f732d3" x="406.963435" y="457.71" style="stroke: #000000"/>
      </g>
     </g>
     <g id="text_21">
      <text style="font-size: 11px; font-family: 'IBM Plex Sans'; text-anchor: middle; fill: #4d4d4d" x="406.963435" y="470.8" transform="rotate(-0 406.963435 470.8)">6</text>
     </g>
    </g>
    <g id="xtick_30">
     <g id="line2d_42">
      <path d="M 472.11885 457.71
" style="fill: none; stroke: #000000; stroke-width: 1.5; stroke-linecap: square"/>
      <g>
       <use xlink:href="#m5316f732d3" x="472.11885" y="457.71" style="stroke: #000000"/>
      </g>
     </g>
     <g id="text_22">
      <text style="font-size: 11px; font-family: 'IBM Plex Sans'; text-anchor: middle; fill: #4d4d4d" x="472.11885" y="470.8" transform="rotate(-0 472.11885 470.8)">12</text>
     </g>
    </g>
    <g id="xtick_31">
     <g id="line2d_43">
      <path d="M 537.274266 457.71
" style="fill: none; stroke: #000000; stroke-width: 1.5; stroke-linecap: square"/>
      <g>
       <use xlink:href="#m5316f732d3" x="537.274266" y="457.71" style="stroke: #000000"/>
      </g>
     </g>
     <g id="text_23">
      <text style="font-size: 11px; font-family: 'IBM Plex Sans'; text-anchor: middle; fill: #4d4d4d" x="537.274266" y="470.8" transform="rotate(-0 537.274266 470.8)">18</text>
     </g>
    </g>
    <g id="xtick_32">
     <g id="line2d_44">
      <path d="M 602.429681 457.71
" style="fill: none; stroke: #000000; stroke-width: 1.5; stroke-linecap: square"/>
      <g>
       <use xlink:href="#m5316f732d3" x="602.429681" y="457.71" style="stroke: #000000"/>
      </g>
     </g>
     <g id="text_24">
      <text style="font-size: 11px; font-family: 'IBM Plex Sans'; text-anchor: middle; fill: #4d4d4d" x="602.429681" y="470.8" transform="rotate(-0 602.429681 470.8)">24</text>
     </g>
    </g>
    <g id="xtick_33">
     <g id="line2d_45">
      <path d="M 379.815345 457.71
" style="fill: none; stroke: #000000; stroke-width: 1.5; stroke-linecap: square"/>
      <g>
       <use xlink:href="#m8e5c48a2dd" x="379.815345" y="457.71" style="stroke: #000000"/>
      </g>
     </g>
    </g>
    <g id="xtick_34">
     <g id="line2d_46">
      <path d="M 439.541142 457.71
" style="fill: none; stroke: #000000; stroke-width: 1.5; stroke-linecap: square"/>
      <g>
       <use xlink:href="#m8e5c48a2dd" x="439.541142" y="457.71" style="stroke: #000000"/>
      </g>
     </g>
    </g>
    <g id="xtick_35">
     <g id="line2d_47">
      <path d="M 504.696558 457.71
" style="fill: none; stroke: #000000; stroke-width: 1.5; stroke-linecap: square"/>
      <g>
       <use xlink:href="#m8e5c48a2dd" x="504.696558" y="457.71" style="stroke: #000000"/>
      </g>
     </g>
    </g>
    <g id="xtick_36">
     <g id="line2d_48">
      <path d="M 569.851973 457.71
" style="fill: none; stroke: #000000; stroke-width: 1.5; stroke-linecap: square"/>
      <g>
       <use xlink:href="#m8e5c48a2dd" x="569.851973" y="457.71" style="stroke: #000000"/>
      </g>
     </g>
    </g>
   </g>
   <g id="matplotlib.axis_8">
    <g id="ytick_28">
     <g id="line2d_49">
      <path d="M 339.636172 457.71
L 626.32 457.71
" clip-path="url(#pe9573c00c5)" style="fill: none; stroke: #e5e5e5; stroke-linecap: square"/>
     </g>
    </g>
    <g id="ytick_29">
     <g id="line2d_50">
      <path d="M 339.636172 409.446263
L 626.32 409.446263
" clip-path="url(#pe9573c00c5)" style="fill: none; stroke: #e5e5e5; stroke-linecap: square"/>
     </g>
    </g>
    <g id="ytick_30">
     <g id="line2d_51">
      <path d="M 339.636172 361.182526
L 626.32 361.182526
" clip-path="url(#pe9573c00c5)" style="fill: none; stroke: #e5e5e5; stroke-linecap: square"/>
     </g>
    </g>
    <g id="ytick_31">
     <g id="line2d_52">
      <path d="M 339.636172 312.918788
L 626.32 312.918788
" clip-path="url(#pe9573c00c5)" style="fill: none; stroke: #e5e5e5; stroke-linecap: square"/>
     </g>
    </g>
    <g id="ytick_32">
     <g id="line2d_53">
      <path d="M 339.636172 264.655051
L 626.32 264.655051
" clip-path="url(#pe9573c00c5)" style="fill: none; stroke: #e5e5e5; stroke-linecap: square"/>
     </g>
    </g>
    <g id="ytick_33">
     <g id="line2d_54">
      <path d="M 339.636172 433.578131
L 626.32 433.578131
" clip-path="url(#pe9573c00c5)" style="fill: none; stroke: #fafafa; stroke-width: 0.5; stroke-linecap: square"/>
     </g>
    </g>
    <g id="ytick_34">
     <g id="line2d_55">
      <path d="M 339.636172 385.314394
L 626.32 385.314394
" clip-path="url(#pe9573c00c5)" style="fill: none; stroke: #fafafa; stroke-width: 0.5; stroke-linecap: square"/>
     </g>
    </g>
    <g id="ytick_35">
     <g id="line2d_56">
      <path d="M 339.636172 337.050657
L 626.32 337.050657
" clip-path="url(#pe9573c00c5)" style="fill: none; stroke: #fafafa; stroke-width: 0.5; stroke-linecap: square"/>
     </g>
    </g>
    <g id="ytick_36">
     <g id="line2d_57">
      <path d="M 339.636172 288.78692
L 626.32 288.78692
" clip-path="url(#pe9573c00c5)" style="fill: none; stroke: #fafafa; stroke-width: 0.5; stroke-linecap: square"/>
     </g>
    </g>
   </g>
   <g id="PolyCollection_4">
    <path d="M 352.667255 457.71
L 352.667255 445.682724
L 363.526491 445.682724
L 363.526491 457.71
z
" clip-path="url(#pe9573c00c5)" style="fill: #fc9706"/>
    <path d="M 352.667255 445.682724
L 352.667255 445.682724
L 363.526491 445.682724
L 363.526491 445.682724
z
" clip-path="url(#pe9573c00c5)" style="fill: #ffc729"/>
    <path d="M 352.667255 445.682724
L 352.667255 445.682724
L 363.526491 445.682724
L 363.526491 445.682724
z
" clip-path="url(#pe9573c00c5)" style="fill: #68bed8"/>
    <path d="M 352.667255 445.682724
L 352.667255 445.682724
L 363.526491 445.682724
L 363.526491 445.682724
z
" clip-path="url(#pe9573c00c5)" style="fill: #023047"/>
    <path d="M 363.526491 457.71
L 363.526491 446.138319
L 374.385727 446.138319
L 374.385727 457.71
z
" clip-path="url(#pe9573c00c5)" style="fill: #fc9706"/>
    <path d="M 363.526491 446.138319
L 363.526491 446.138319
L 374.385727 446.138319
L 374.385727 446.138319
z
" clip-path="url(#pe9573c00c5)" style="fill: #ffc729"/>
    <path d="M 363.526491 446.138319
L 363.526491 446.138319
L 374.385727 446.138319
L 374.385727 446.138319
z
" clip-path="url(#pe9573c00c5)" style="fill: #68bed8"/>
    <path d="M 363.526491 446.138319
L 363.526491 446.138319
L 374.385727 446.138319
L 374.385727 446.138319
z
" clip-path="url(#pe9573c00c5)" style="fill: #023047"/>
    <path d="M 374.385727 457.71
L 374.385727 446.894431
L 385.244963 446.894431
L 385.244963 457.71
z
" clip-path="url(#pe9573c00c5)" style="fill: #fc9706"/>
    <path d="M 374.385727 446.894431
L 374.385727 446.894431
L 385.244963 446.894431
L 385.244963 446.894431
z
" clip-path="url(#pe9573c00c5)" style="fill: #ffc729"/>
    <path d="M 374.385727 446.894431
L 374.385727 446.894431
L 385.244963 446.894431
L 385.244963 446.894431
z
" clip-path="url(#pe9573c00c5)" style="fill: #68bed8"/>
    <path d="M 374.385727 446.894431
L 374.385727 446.894431
L 385.244963 446.894431
L 385.244963 446.894431
z
" clip-path="url(#pe9573c00c5)" style="fill: #023047"/>
    <path d="M 385.244963 457.71
L 385.244963 446.585072
L 396.104199 446.585072
L 396.104199 457.71
z
" clip-path="url(#pe9573c00c5)" style="fill: #fc9706"/>
    <path d="M 385.244963 446.585072
L 385.244963 446.585072
L 396.104199 446.585072
L 396.104199 446.585072
z
" clip-path="url(#pe9573c00c5)" style="fill: #ffc729"/>
    <path d="M 385.244963 446.585072
L 385.244963 446.585072
L 396.104199 446.585072
L 396.104199 446.585072
z
" clip-path="url(#pe9573c00c5)" style="fill: #68bed8"/>
    <path d="M 385.244963 446.585072
L 385.244963 446.585072
L 396.104199 446.585072
L 396.104199 446.585072
z
" clip-path="url(#pe9573c00c5)" style="fill: #023047"/>
    <path d="M 396.104199 457.71
L 396.104199 446.946091
L 406.963435 446.946091
L 406.963435 457.71
z
" clip-path="url(#pe9573c00c5)" style="fill: #fc9706"/>
    <path d="M 396.104199 446.946091
L 396.104199 446.946091
L 406.963435 446.946091
L 406.963435 446.946091
z
" clip-path="url(#pe9573c00c5)" style="fill: #ffc729"/>
    <path d="M 396.104199 446.946091
L 396.104199 446.946091
L 406.963435 446.946091
L 406.963435 446.946091
z
" clip-path="url(#pe9573c00c5)" style="fill: #68bed8"/>
    <path d="M 396.104199 446.946091
L 396.104199 446.946091
L 406.963435 446.946091
L 406.963435 446.946091
z
" clip-path="url(#pe9573c00c5)" style="fill: #023047"/>
    <path d="M 406.963435 457.71
L 406.963435 445.727542
L 417.82267 445.727542
L 417.82267 457.71
z
" clip-path="url(#pe9573c00c5)" style="fill: #fc9706"/>
    <path d="M 406.963435 445.727542
L 406.963435 445.727542
L 417.82267 445.727542
L 417.82267 445.727542
z
" clip-path="url(#pe9573c00c5)" style="fill: #ffc729"/>
    <path d="M 406.963435 445.727542
L 406.963435 445.727542
L 417.82267 445.727542
L 417.82267 445.727542
z
" clip-path="url(#pe9573c00c5)" style="fill: #68bed8"/>
    <path d="M 406.963435 445.727542
L 406.963435 445.727542
L 417.82267 445.727542
L 417.82267 445.727542
z
" clip-path="url(#pe9573c00c5)" style="fill: #023047"/>
    <path d="M 417.82267 457.71
L 417.82267 444.254745
L 428.681906 444.254745
L 428.681906 457.71
z
" clip-path="url(#pe9573c00c5)" style="fill: #fc9706"/>
    <path d="M 417.82267 444.254745
L 417.82267 444.254745
L 428.681906 444.254745
L 428.681906 444.254745
z
" clip-path="url(#pe9573c00c5)" style="fill: #ffc729"/>
    <path d="M 417.82267 444.254745
L 417.82267 444.254745
L 428.681906 444.254745
L 428.681906 444.254745
z
" clip-path="url(#pe9573c00c5)" style="fill: #68bed8"/>
    <path d="M 417.82267 444.254745
L 417.82267 444.254745
L 428.681906 444.254745
L 428.681906 444.254745
z
" clip-path="url(#pe9573c00c5)" style="fill: #023047"/>
    <path d="M 428.681906 457.71
L 428.681906 441.959594
L 439.541142 441.959594
L 439.541142 457.71
z
" clip-path="url(#pe9573c00c5)" style="fill: #fc9706"/>
    <path d="M 428.681906 441.959594
L 428.681906 441.959594
L 439.541142 441.959594
L 439.541142 441.959594
z
" clip-path="url(#pe9573c00c5)" style="fill: #ffc729"/>
    <path d="M 428.681906 441.959594
L 428.681906 441.959594
L 439.541142 441.959594
L 439.541142 441.959594
z
" clip-path="url(#pe9573c00c5)" style="fill: #68bed8"/>
    <path d="M 428.681906 441.959594
L 428.681906 441.959594
L 439.541142 441.959594
L 439.541142 441.959594
z
" clip-path="url(#pe9573c00c5)" style="fill: #023047"/>
    <path d="M 439.541142 457.71
L 439.541142 442.90184
L 450.400378 442.90184
L 450.400378 457.71
z
" clip-path="url(#pe9573c00c5)" style="fill: #fc9706"/>
    <path d="M 439.541142 442.90184
L 439.541142 442.90184
L 450.400378 442.90184
L 450.400378 442.90184
z
" clip-path="url(#pe9573c00c5)" style="fill: #ffc729"/>
    <path d="M 439.541142 442.90184
L 439.541142 441.276116
L 450.400378 441.276116
L 450.400378 442.90184
z
" clip-path="url(#pe9573c00c5)" style="fill: #68bed8"/>
    <path d="M 439.541142 441.276116
L 439.541142 441.276116
L 450.400378 441.276116
L 450.400378 441.276116
z
" clip-path="url(#pe9573c00c5)" style="fill: #023047"/>
    <path d="M 450.400378 457.71
L 450.400378 444.721871
L 461.259614 444.721871
L 461.259614 457.71
z
" clip-path="url(#pe9573c00c5)" style="fill: #fc9706"/>
    <path d="M 450.400378 444.721871
L 450.400378 444.344471
L 461.259614 444.344471
L 461.259614 444.721871
z
" clip-path="url(#pe9573c00c5)" style="fill: #ffc729"/>
    <path d="M 450.400378 444.344471
L 450.400378 440.43777
L 461.259614 440.43777
L 461.259614 444.344471
z
" clip-path="url(#pe9573c00c5)" style="fill: #68bed8"/>
    <path d="M 450.400378 440.43777
L 450.400378 440.43777
L 461.259614 440.43777
L 461.259614 440.43777
z
" clip-path="url(#pe9573c00c5)" style="fill: #023047"/>
    <path d="M 461.259614 457.71
L 461.259614 444.182077
L 472.11885 444.182077
L 472.11885 457.71
z
" clip-path="url(#pe9573c00c5)" style="fill: #fc9706"/>
    <path d="M 461.259614 444.182077
L 461.259614 443.658452
L 472.11885 443.658452
L 472.11885 444.182077
z
" clip-path="url(#pe9573c00c5)" style="fill: #ffc729"/>
    <path d="M 461.259614 443.658452
L 461.259614 439.150147
L 472.11885 439.150147
L 472.11885 443.658452
z
" clip-path="url(#pe9573c00c5)" style="fill: #68bed8"/>
    <path d="M 461.259614 439.150147
L 461.259614 439.150147
L 472.11885 439.150147
L 472.11885 439.150147
z
" clip-path="url(#pe9573c00c5)" style="fill: #023047"/>
    <path d="M 472.11885 457.71
L 472.11885 445.542191
L 482.978086 445.542191
L 482.978086 457.71
z
" clip-path="url(#pe9573c00c5)" style="fill: #fc9706"/>
    <path d="M 472.11885 445.542191
L 472.11885 445.542191
L 482.978086 445.542191
L 482.978086 445.542191
z
" clip-path="url(#pe9573c00c5)" style="fill: #ffc729"/>
    <path d="M 472.11885 445.542191
L 472.11885 441.316507
L 482.978086 441.316507
L 482.978086 445.542191
z
" clip-path="url(#pe9573c00c5)" style="fill: #68bed8"/>
    <path d="M 472.11885 441.316507
L 472.11885 441.316507
L 482.978086 441.316507
L 482.978086 441.316507
z
" clip-path="url(#pe9573c00c5)" style="fill: #023047"/>
    <path d="M 482.978086 457.71
L 482.978086 446.442641
L 493.837322 446.442641
L 493.837322 457.71
z
" clip-path="url(#pe9573c00c5)" style="fill: #fc9706"/>
    <path d="M 482.978086 446.442641
L 482.978086 446.442641
L 493.837322 446.442641
L 493.837322 446.442641
z
" clip-path="url(#pe9573c00c5)" style="fill: #ffc729"/>
    <path d="M 482.978086 446.442641
L 482.978086 443.337211
L 493.837322 443.337211
L 493.837322 446.442641
z
" clip-path="url(#pe9573c00c5)" style="fill: #68bed8"/>
    <path d="M 482.978086 443.337211
L 482.978086 443.337211
L 493.837322 443.337211
L 493.837322 443.337211
z
" clip-path="url(#pe9573c00c5)" style="fill: #023047"/>
    <path d="M 493.837322 457.71
L 493.837322 447.048982
L 504.696558 447.048982
L 504.696558 457.71
z
" clip-path="url(#pe9573c00c5)" style="fill: #fc9706"/>
    <path d="M 493.837322 447.048982
L 493.837322 447.048982
L 504.696558 447.048982
L 504.696558 447.048982
z
" clip-path="url(#pe9573c00c5)" style="fill: #ffc729"/>
    <path d="M 493.837322 447.048982
L 493.837322 444.423292
L 504.696558 444.423292
L 504.696558 447.048982
z
" clip-path="url(#pe9573c00c5)" style="fill: #68bed8"/>
    <path d="M 493.837322 444.423292
L 493.837322 444.423292
L 504.696558 444.423292
L 504.696558 444.423292
z
" clip-path="url(#pe9573c00c5)" style="fill: #023047"/>
    <path d="M 504.696558 457.71
L 504.696558 447.239424
L 515.555794 447.239424
L 515.555794 457.71
z
" clip-path="url(#pe9573c00c5)" style="fill: #fc9706"/>
    <path d="M 504.696558 447.239424
L 504.696558 447.239424
L 515.555794 447.239424
L 515.555794 447.239424
z
" clip-path="url(#pe9573c00c5)" style="fill: #ffc729"/>
    <path d="M 504.696558 447.239424
L 504.696558 444.956858
L 515.555794 444.956858
L 515.555794 447.239424
z
" clip-path="url(#pe9573c00c5)" style="fill: #68bed8"/>
    <path d="M 504.696558 444.956858
L 504.696558 444.956858
L 515.555794 444.956858
L 515.555794 444.956858
z
" clip-path="url(#pe9573c00c5)" style="fill: #023047"/>
    <path d="M 515.555794 457.71
L 515.555794 445.991026
L 526.41503 445.991026
L 526.41503 457.71
z
" clip-path="url(#pe9573c00c5)" style="fill: #fc9706"/>
    <path d="M 515.555794 445.991026
L 515.555794 445.991026
L 526.41503 445.991026
L 526.41503 445.991026
z
" clip-path="url(#pe9573c00c5)" style="fill: #ffc729"/>
    <path d="M 515.555794 445.991026
L 515.555794 443.007105
L 526.41503 443.007105
L 526.41503 445.991026
z
" clip-path="url(#pe9573c00c5)" style="fill: #68bed8"/>
    <path d="M 515.555794 443.007105
L 515.555794 443.007105
L 526.41503 443.007105
L 526.41503 443.007105
z
" clip-path="url(#pe9573c00c5)" style="fill: #023047"/>
    <path d="M 526.41503 457.71
L 526.41503 445.357493
L 537.274266 445.357493
L 537.274266 457.71
z
" clip-path="url(#pe9573c00c5)" style="fill: #fc9706"/>
    <path d="M 526.41503 445.357493
L 526.41503 440.04581
L 537.274266 440.04581
L 537.274266 445.357493
z
" clip-path="url(#pe9573c00c5)" style="fill: #ffc729"/>
    <path d="M 526.41503 440.04581
L 526.41503 434.733186
L 537.274266 434.733186
L 537.274266 440.04581
z
" clip-path="url(#pe9573c00c5)" style="fill: #68bed8"/>
    <path d="M 526.41503 434.733186
L 526.41503 434.733186
L 537.274266 434.733186
L 537.274266 434.733186
z
" clip-path="url(#pe9573c00c5)" style="fill: #023047"/>
    <path d="M 537.274266 457.71
L 537.274266 440.958502
L 548.133501 440.958502
L 548.133501 457.71
z
" clip-path="url(#pe9573c00c5)" style="fill: #fc9706"/>
    <path d="M 537.274266 440.958502
L 537.274266 408.604503
L 548.133501 408.604503
L 548.133501 440.958502
z
" clip-path="url(#pe9573c00c5)" style="fill: #ffc729"/>
    <path d="M 537.274266 408.604503
L 537.274266 394.468802
L 548.133501 394.468802
L 548.133501 408.604503
z
" clip-path="url(#pe9573c00c5)" style="fill: #68bed8"/>
    <path d="M 537.274266 394.468802
L 537.274266 394.468802
L 548.133501 394.468802
L 548.133501 394.468802
z
" clip-path="url(#pe9573c00c5)" style="fill: #023047"/>
    <path d="M 548.133501 457.71
L 548.133501 441.459772
L 558.992737 441.459772
L 558.992737 457.71
z
" clip-path="url(#pe9573c00c5)" style="fill: #fc9706"/>
    <path d="M 548.133501 441.459772
L 548.133501 412.733573
L 558.992737 412.733573
L 558.992737 441.459772
z
" clip-path="url(#pe9573c00c5)" style="fill: #ffc729"/>
    <path d="M 548.133501 412.733573
L 548.133501 400.888452
L 558.992737 400.888452
L 558.992737 412.733573
z
" clip-path="url(#pe9573c00c5)" style="fill: #68bed8"/>
    <path d="M 548.133501 400.888452
L 548.133501 400.888452
L 558.992737 400.888452
L 558.992737 400.888452
z
" clip-path="url(#pe9573c00c5)" style="fill: #023047"/>
    <path d="M 558.992737 457.71
L 558.992737 443.821614
L 569.851973 443.821614
L 569.851973 457.71
z
" clip-path="url(#pe9573c00c5)" style="fill: #fc9706"/>
    <path d="M 558.992737 443.821614
L 558.992737 435.600334
L 569.851973 435.600334
L 569.851973 443.821614
z
" clip-path="url(#pe9573c00c5)" style="fill: #ffc729"/>
    <path d="M 558.992737 435.600334
L 558.992737 429.444086
L 569.851973 429.444086
L 569.851973 435.600334
z
" clip-path="url(#pe9573c00c5)" style="fill: #68bed8"/>
    <path d="M 558.992737 429.444086
L 558.992737 429.444086
L 569.851973 429.444086
L 569.851973 429.444086
z
" clip-path="url(#pe9573c00c5)" style="fill: #023047"/>
    <path d="M 569.851973 457.71
L 569.851973 444.517453
L 580.711209 444.517453
L 580.711209 457.71
z
" clip-path="url(#pe9573c00c5)" style="fill: #fc9706"/>
    <path d="M 569.851973 444.517453
L 569.851973 444.517453
L 580.711209 444.517453
L 580.711209 444.517453
z
" clip-path="url(#pe9573c00c5)" style="fill: #ffc729"/>
    <path d="M 569.851973 444.517453
L 569.851973 442.669998
L 580.711209 442.669998
L 580.711209 444.517453
z
" clip-path="url(#pe9573c00c5)" style="fill: #68bed8"/>
    <path d="M 569.851973 442.669998
L 569.851973 442.669998
L 580.711209 442.669998
L 580.711209 442.669998
z
" clip-path="url(#pe9573c00c5)" style="fill: #023047"/>
    <path d="M 580.711209 457.71
L 580.711209 445.249951
L 591.570445 445.249951
L 591.570445 457.71
z
" clip-path="url(#pe9573c00c5)" style="fill: #fc9706"/>
    <path d="M 580.711209 445.249951
L 580.711209 445.249951
L 591.570445 445.249951
L 591.570445 445.249951
z
" clip-path="url(#pe9573c00c5)" style="fill: #ffc729"/>
    <path d="M 580.711209 445.249951
L 580.711209 445.249951
L 591.570445 445.249951
L 591.570445 445.249951
z
" clip-path="url(#pe9573c00c5)" style="fill: #68bed8"/>
    <path d="M 580.711209 445.249951
L 580.711209 445.249951
L 591.570445 445.249951
L 591.570445 445.249951
z
" clip-path="url(#pe9573c00c5)" style="fill: #023047"/>
    <path d="M 591.570445 457.71
L 591.570445 445.90271
L 602.429681 445.90271
L 602.429681 457.71
z
" clip-path="url(#pe9573c00c5)" style="fill: #fc9706"/>
    <path d="M 591.570445 445.90271
L 591.570445 445.90271
L 602.429681 445.90271
L 602.429681 445.90271
z
" clip-path="url(#pe9573c00c5)" style="fill: #ffc729"/>
    <path d="M 591.570445 445.90271
L 591.570445 445.90271
L 602.429681 445.90271
L 602.429681 445.90271
z
" clip-path="url(#pe9573c00c5)" style="fill: #68bed8"/>
    <path d="M 591.570445 445.90271
L 591.570445 445.90271
L 602.429681 445.90271
L 602.429681 445.90271
z
" clip-path="url(#pe9573c00c5)" style="fill: #023047"/>
    <path d="M 602.429681 457.71
L 602.429681 446.178686
L 613.288917 446.178686
L 613.288917 457.71
z
" clip-path="url(#pe9573c00c5)" style="fill: #fc9706"/>
    <path d="M 602.429681 446.178686
L 602.429681 446.178686
L 613.288917 446.178686
L 613.288917 446.178686
z
" clip-path="url(#pe9573c00c5)" style="fill: #ffc729"/>
    <path d="M 602.429681 446.178686
L 602.429681 446.178686
L 613.288917 446.178686
L 613.288917 446.178686
z
" clip-path="url(#pe9573c00c5)" style="fill: #68bed8"/>
    <path d="M 602.429681 446.178686
L 602.429681 446.178686
L 613.288917 446.178686
L 613.288917 446.178686
z
" clip-path="url(#pe9573c00c5)" style="fill: #023047"/>
   </g>
   <g id="line2d_58">
    <path d="M 352.667255 446.167767
L 363.526491 446.167767
L 363.526491 446.167767
L 374.385727 446.167767
L 374.385727 446.167767
L 385.244963 446.167767
L 385.244963 446.167767
L 396.104199 446.167767
L 396.104199 446.167767
L 406.963435 446.167767
L 406.963435 446.167767
L 417.82267 446.167767
L 417.82267 446.167767
L 428.681906 446.167767
L 428.681906 446.167767
L 439.541142 446.167767
L 439.541142 446.167767
L 450.400378 446.167767
L 450.400378 446.167767
L 461.259614 446.167767
L 461.259614 446.167767
L 472.11885 446.167767
L 472.11885 446.167767
L 482.978086 446.167767
L 482.978086 446.167767
L 493.837322 446.167767
L 493.837322 446.167767
L 504.696558 446.167767
L 504.696558 446.167767
L 515.555794 446.167767
L 515.555794 446.167767
L 526.41503 446.167767
L 526.41503 439.616991
L 537.274266 439.616991
L 537.274266 439.616991
L 548.133501 439.616991
L 548.133501 439.616991
L 558.992737 439.616991
L 558.992737 439.616991
L 569.851973 439.616991
L 569.851973 439.616991
L 580.711209 439.616991
L 580.711209 446.167767
L 591.570445 446.167767
L 591.570445 446.167767
L 602.429681 446.167767
L 602.429681 446.167767
" clip-path="url(#pe9573c00c5)" style="fill: none; stroke: #000000; stroke-width: 1.240718; stroke-linejoin: miter"/>
   </g>
   <g id="patch_9">
    <path d="M 339.636172 457.71
L 626.32 457.71
" style="fill: none; stroke: #000000; stroke-width: 0.5; stroke-linejoin: miter; stroke-linecap: square"/>
   </g>
  </g>
  <g id="text_25">
   <text style="font-weight: 700; font-size: 15px; font-family: 'GT Planar'; text-anchor: start" x="45.392344" y="19.829531" transform="rotate(-0 45.392344 19.829531)">Central Hudson:  Time-of-use Prices vs. Marginal Costs ($/kWh, 2025)</text>
  </g>
  <g id="text_26">
   <text style="font-size: 13px; font-family: 'GT Planar'; text-anchor: start; fill: #333333" x="299.827891" y="494.1" transform="rotate(-0 299.827891 494.1)">Hour of Day</text>
  </g>
  <g id="text_27">
   <text style="font-size: 13px; font-family: 'GT Planar'; fill: #333333" transform="translate(16.66 272.093359) rotate(-90)">$/kWh</text>
  </g>
  <g id="text_28">
   <text style="font-size: 13px; font-family: 'GT Planar'; text-anchor: middle; fill: #333333" x="188.734258" y="40.927531" transform="rotate(-0 188.734258 40.927531)">Low-cost Day</text>
  </g>
  <g id="text_29">
   <text style="font-size: 13px; font-family: 'GT Planar'; text-anchor: middle; fill: #333333" x="482.978086" y="40.927531" transform="rotate(-0 482.978086 40.927531)">High-cost Day</text>
  </g>
  <g id="text_30">
   <text style="font-size: 13px; font-family: 'GT Planar'; text-anchor: middle; fill: #333333" x="631.362" y="147.014648" transform="rotate(-270 631.362 147.014648)">Summer</text>
  </g>
  <g id="text_31">
   <text style="font-size: 13px; font-family: 'GT Planar'; text-anchor: middle; fill: #333333" x="631.362" y="356.664883" transform="rotate(-270 631.362 356.664883)">Winter</text>
  </g>
  <g id="patch_10">
   <path d="M 662.44 238.979766
L 676.28 238.979766
L 676.28 225.139766
L 662.44 225.139766
z
" clip-path="url(#p0f80f9e2c0)" style="fill: #ffffff; stroke: #ffffff; stroke-linejoin: miter"/>
  </g>
  <g id="patch_11">
   <path d="M 661.44 239.979766
L 677.28 239.979766
L 677.28 224.139766
L 661.44 224.139766
z
" clip-path="url(#p0f80f9e2c0)" style="fill: #023047"/>
  </g>
  <g id="text_32">
   <text style="font-size: 11px; font-family: 'IBM Plex Sans'; text-anchor: middle; fill: #4d4d4d" x="712.932656" y="235.029766" transform="rotate(-0 712.932656 235.029766)">Dist+Sub-Tx</text>
  </g>
  <g id="patch_12">
   <path d="M 662.44 256.819766
L 676.28 256.819766
L 676.28 242.979766
L 662.44 242.979766
z
" clip-path="url(#p22ce27ac85)" style="fill: #ffffff; stroke: #ffffff; stroke-linejoin: miter"/>
  </g>
  <g id="patch_13">
   <path d="M 661.44 257.819766
L 677.28 257.819766
L 677.28 241.979766
L 661.44 241.979766
z
" clip-path="url(#p22ce27ac85)" style="fill: #68bed8"/>
  </g>
  <g id="text_33">
   <text style="font-size: 11px; font-family: 'IBM Plex Sans'; text-anchor: middle; fill: #4d4d4d" x="700.6625" y="252.869766" transform="rotate(-0 700.6625 252.869766)">Bulk Tx</text>
  </g>
  <g id="patch_14">
   <path d="M 662.44 274.659766
L 676.28 274.659766
L 676.28 260.819766
L 662.44 260.819766
z
" clip-path="url(#pb278d2b8a9)" style="fill: #ffffff; stroke: #ffffff; stroke-linejoin: miter"/>
  </g>
  <g id="patch_15">
   <path d="M 661.44 275.659766
L 677.28 275.659766
L 677.28 259.819766
L 661.44 259.819766
z
" clip-path="url(#pb278d2b8a9)" style="fill: #ffc729"/>
  </g>
  <g id="text_34">
   <text style="font-size: 11px; font-family: 'IBM Plex Sans'; text-anchor: middle; fill: #4d4d4d" x="714.88" y="270.709766" transform="rotate(-0 714.88 270.709766)">Gen Capacity</text>
  </g>
  <g id="patch_16">
   <path d="M 662.44 292.499766
L 676.28 292.499766
L 676.28 278.659766
L 662.44 278.659766
z
" clip-path="url(#p3a11cf7a6a)" style="fill: #ffffff; stroke: #ffffff; stroke-linejoin: miter"/>
  </g>
  <g id="patch_17">
   <path d="M 661.44 293.499766
L 677.28 293.499766
L 677.28 277.659766
L 661.44 277.659766
z
" clip-path="url(#p3a11cf7a6a)" style="fill: #fc9706"/>
  </g>
  <g id="text_35">
   <text style="font-size: 11px; font-family: 'IBM Plex Sans'; text-anchor: middle; fill: #4d4d4d" x="699.337344" y="288.483594" transform="rotate(-0 699.337344 288.483594)">Energy</text>
  </g>
 </g>
 <defs>
  <clipPath id="p47f6282321">
   <rect x="45.392344" y="45.969531" width="286.683828" height="202.090234"/>
  </clipPath>
  <clipPath id="p1d25665b05">
   <rect x="339.636172" y="45.969531" width="286.683828" height="202.090234"/>
  </clipPath>
  <clipPath id="p3d5354a0cc">
   <rect x="45.392344" y="255.619766" width="286.683828" height="202.090234"/>
  </clipPath>
  <clipPath id="pe9573c00c5">
   <rect x="339.636172" y="255.619766" width="286.683828" height="202.090234"/>
  </clipPath>
  <clipPath id="p0f80f9e2c0">
   <path d="M 661.44 239.979766
L 661.44 224.139766
L 677.28 224.139766
L 677.28 239.979766
"/>
  </clipPath>
  <clipPath id="p22ce27ac85">
   <path d="M 661.44 257.819766
L 661.44 241.979766
L 677.28 241.979766
L 677.28 257.819766
"/>
  </clipPath>
  <clipPath id="pb278d2b8a9">
   <path d="M 661.44 275.659766
L 661.44 259.819766
L 677.28 259.819766
L 677.28 275.659766
"/>
  </clipPath>
  <clipPath id="p3a11cf7a6a">
   <path d="M 661.44 293.499766
L 661.44 277.659766
L 677.28 277.659766
L 677.28 293.499766
"/>
  </clipPath>
 </defs>
</svg>
