<svg xmlns:xlink="http://www.w3.org/1999/xlink" xmlns="http://www.w3.org/2000/svg" width="871.898586pt" height="387.643636pt" viewBox="0 0 871.898586 387.643636" version="1.1">
 <metadata>
  <rdf:RDF xmlns:dc="http://purl.org/dc/elements/1.1/" xmlns:cc="http://creativecommons.org/ns#" xmlns:rdf="http://www.w3.org/1999/02/22-rdf-syntax-ns#">
   <cc:Work>
    <dc:type rdf:resource="http://purl.org/dc/dcmitype/StillImage"/>
    <dc:date>2026-04-11T12:05:43.095332</dc:date>
    <dc:format>image/svg+xml</dc:format>
    <dc:creator>
     <cc:Agent>
      <dc:title>Matplotlib v3.10.8, https://matplotlib.org/</dc:title>
     </cc:Agent>
    </dc:creator>
   </cc:Work>
  </rdf:RDF>
 </metadata>
 <defs>
  <style type="text/css">*{stroke-linejoin: round; stroke-linecap: butt}</style>
 </defs>
 <g id="figure_1">
  <g id="patch_1">
   <path d="M 0 387.643636  L 871.898586 387.643636  L 871.898586 0  L 0 0  z " style="fill: #ffffff"/>
  </g>
  <g id="axes_1">
   <g id="patch_2">
    <path d="M 66.055156 365.153636  L 734.88 365.153636  L 734.88 62.639062  L 66.055156 62.639062  z " style="fill: #ffffff"/>
   </g>
   <g id="matplotlib.axis_1">
    <g id="xtick_1">
     <g id="line2d_1">
      <path d="M 66.055156 365.153636  " style="fill: none; stroke: #000000; stroke-width: 1.5; stroke-linecap: square"/>
      <defs>
       <path id="ma6cbfe4c6f" d="M 0 0  L 0 2.75  " style="stroke: #000000"/>
      </defs>
      <g>
       <use xlink:href="#ma6cbfe4c6f" x="66.055156" y="365.153636" style="stroke: #000000"/>
      </g>
     </g>
     <g id="text_1">
      <text style="font-size: 11px; font-family: 'IBM Plex Sans'; text-anchor: middle; fill: #4d4d4d" x="66.055156" y="378.243636" transform="rotate(-0 66.055156 378.243636)">2025</text>
     </g>
    </g>
    <g id="xtick_2">
     <g id="line2d_2">
      <path d="M 177.525964 365.153636  " style="fill: none; stroke: #000000; stroke-width: 1.5; stroke-linecap: square"/>
      <g>
       <use xlink:href="#ma6cbfe4c6f" x="177.525964" y="365.153636" style="stroke: #000000"/>
      </g>
     </g>
     <g id="text_2">
      <text style="font-size: 11px; font-family: 'IBM Plex Sans'; text-anchor: middle; fill: #4d4d4d" x="177.525964" y="378.243636" transform="rotate(-0 177.525964 378.243636)">2030</text>
     </g>
    </g>
    <g id="xtick_3">
     <g id="line2d_3">
      <path d="M 288.996771 365.153636  " style="fill: none; stroke: #000000; stroke-width: 1.5; stroke-linecap: square"/>
      <g>
       <use xlink:href="#ma6cbfe4c6f" x="288.996771" y="365.153636" style="stroke: #000000"/>
      </g>
     </g>
     <g id="text_3">
      <text style="font-size: 11px; font-family: 'IBM Plex Sans'; text-anchor: middle; fill: #4d4d4d" x="288.996771" y="378.243636" transform="rotate(-0 288.996771 378.243636)">2035</text>
     </g>
    </g>
    <g id="xtick_4">
     <g id="line2d_4">
      <path d="M 400.467578 365.153636  " style="fill: none; stroke: #000000; stroke-width: 1.5; stroke-linecap: square"/>
      <g>
       <use xlink:href="#ma6cbfe4c6f" x="400.467578" y="365.153636" style="stroke: #000000"/>
      </g>
     </g>
     <g id="text_4">
      <text style="font-size: 11px; font-family: 'IBM Plex Sans'; text-anchor: middle; fill: #4d4d4d" x="400.467578" y="378.243636" transform="rotate(-0 400.467578 378.243636)">2040</text>
     </g>
    </g>
    <g id="xtick_5">
     <g id="line2d_5">
      <path d="M 511.938385 365.153636  " style="fill: none; stroke: #000000; stroke-width: 1.5; stroke-linecap: square"/>
      <g>
       <use xlink:href="#ma6cbfe4c6f" x="511.938385" y="365.153636" style="stroke: #000000"/>
      </g>
     </g>
     <g id="text_5">
      <text style="font-size: 11px; font-family: 'IBM Plex Sans'; text-anchor: middle; fill: #4d4d4d" x="511.938385" y="378.243636" transform="rotate(-0 511.938385 378.243636)">2045</text>
     </g>
    </g>
    <g id="xtick_6">
     <g id="line2d_6">
      <path d="M 623.409193 365.153636  " style="fill: none; stroke: #000000; stroke-width: 1.5; stroke-linecap: square"/>
      <g>
       <use xlink:href="#ma6cbfe4c6f" x="623.409193" y="365.153636" style="stroke: #000000"/>
      </g>
     </g>
     <g id="text_6">
      <text style="font-size: 11px; font-family: 'IBM Plex Sans'; text-anchor: middle; fill: #4d4d4d" x="623.409193" y="378.243636" transform="rotate(-0 623.409193 378.243636)">2050</text>
     </g>
    </g>
    <g id="xtick_7">
     <g id="line2d_7">
      <path d="M 734.88 365.153636  " style="fill: none; stroke: #000000; stroke-width: 1.5; stroke-linecap: square"/>
      <g>
       <use xlink:href="#ma6cbfe4c6f" x="734.88" y="365.153636" style="stroke: #000000"/>
      </g>
     </g>
     <g id="text_7">
      <text style="font-size: 11px; font-family: 'IBM Plex Sans'; text-anchor: middle; fill: #4d4d4d" x="734.88" y="378.243636" transform="rotate(-0 734.88 378.243636)">2055</text>
     </g>
    </g>
    <g id="xtick_8">
     <g id="line2d_8">
      <path d="M 121.79056 365.153636  " style="fill: none; stroke: #000000; stroke-width: 1.5; stroke-linecap: square"/>
      <defs>
       <path id="mcc53d77748" d="M 0 0  L 0 1.375  " style="stroke: #000000"/>
      </defs>
      <g>
       <use xlink:href="#mcc53d77748" x="121.79056" y="365.153636" style="stroke: #000000"/>
      </g>
     </g>
    </g>
    <g id="xtick_9">
     <g id="line2d_9">
      <path d="M 233.261367 365.153636  " style="fill: none; stroke: #000000; stroke-width: 1.5; stroke-linecap: square"/>
      <g>
       <use xlink:href="#mcc53d77748" x="233.261367" y="365.153636" style="stroke: #000000"/>
      </g>
     </g>
    </g>
    <g id="xtick_10">
     <g id="line2d_10">
      <path d="M 344.732174 365.153636  " style="fill: none; stroke: #000000; stroke-width: 1.5; stroke-linecap: square"/>
      <g>
       <use xlink:href="#mcc53d77748" x="344.732174" y="365.153636" style="stroke: #000000"/>
      </g>
     </g>
    </g>
    <g id="xtick_11">
     <g id="line2d_11">
      <path d="M 456.202982 365.153636  " style="fill: none; stroke: #000000; stroke-width: 1.5; stroke-linecap: square"/>
      <g>
       <use xlink:href="#mcc53d77748" x="456.202982" y="365.153636" style="stroke: #000000"/>
      </g>
     </g>
    </g>
    <g id="xtick_12">
     <g id="line2d_12">
      <path d="M 567.673789 365.153636  " style="fill: none; stroke: #000000; stroke-width: 1.5; stroke-linecap: square"/>
      <g>
       <use xlink:href="#mcc53d77748" x="567.673789" y="365.153636" style="stroke: #000000"/>
      </g>
     </g>
    </g>
    <g id="xtick_13">
     <g id="line2d_13">
      <path d="M 679.144596 365.153636  " style="fill: none; stroke: #000000; stroke-width: 1.5; stroke-linecap: square"/>
      <g>
       <use xlink:href="#mcc53d77748" x="679.144596" y="365.153636" style="stroke: #000000"/>
      </g>
     </g>
    </g>
   </g>
   <g id="matplotlib.axis_2">
    <g id="ytick_1">
     <g id="line2d_14">
      <path d="M 66.055156 365.153636  L 734.88 365.153636  " clip-path="url(#p989804c2ee)" style="fill: none; stroke: #e5e5e5; stroke-linecap: square"/>
     </g>
    </g>
    <g id="ytick_2">
     <g id="line2d_15">
      <path d="M 66.055156 307.531813  L 734.88 307.531813  " clip-path="url(#p989804c2ee)" style="fill: none; stroke: #e5e5e5; stroke-linecap: square"/>
     </g>
     <g id="text_8">
      <text style="font-size: 11px; font-family: 'IBM Plex Sans'; text-anchor: start; fill: #4d4d4d" x="27.862812" y="311.601813" transform="rotate(-0 27.862812 311.601813)">10,000</text>
     </g>
    </g>
    <g id="ytick_3">
     <g id="line2d_16">
      <path d="M 66.055156 249.909989  L 734.88 249.909989  " clip-path="url(#p989804c2ee)" style="fill: none; stroke: #e5e5e5; stroke-linecap: square"/>
     </g>
     <g id="text_9">
      <text style="font-size: 11px; font-family: 'IBM Plex Sans'; text-anchor: start; fill: #4d4d4d" x="27.862812" y="253.979989" transform="rotate(-0 27.862812 253.979989)">20,000</text>
     </g>
    </g>
    <g id="ytick_4">
     <g id="line2d_17">
      <path d="M 66.055156 192.288166  L 734.88 192.288166  " clip-path="url(#p989804c2ee)" style="fill: none; stroke: #e5e5e5; stroke-linecap: square"/>
     </g>
     <g id="text_10">
      <text style="font-size: 11px; font-family: 'IBM Plex Sans'; text-anchor: start; fill: #4d4d4d" x="27.862812" y="196.358166" transform="rotate(-0 27.862812 196.358166)">30,000</text>
     </g>
    </g>
    <g id="ytick_5">
     <g id="line2d_18">
      <path d="M 66.055156 134.666342  L 734.88 134.666342  " clip-path="url(#p989804c2ee)" style="fill: none; stroke: #e5e5e5; stroke-linecap: square"/>
     </g>
     <g id="text_11">
      <text style="font-size: 11px; font-family: 'IBM Plex Sans'; text-anchor: start; fill: #4d4d4d" x="27.862812" y="138.736342" transform="rotate(-0 27.862812 138.736342)">40,000</text>
     </g>
    </g>
    <g id="ytick_6">
     <g id="line2d_19">
      <path d="M 66.055156 77.044518  L 734.88 77.044518  " clip-path="url(#p989804c2ee)" style="fill: none; stroke: #e5e5e5; stroke-linecap: square"/>
     </g>
     <g id="text_12">
      <text style="font-size: 11px; font-family: 'IBM Plex Sans'; text-anchor: start; fill: #4d4d4d" x="27.862812" y="81.114518" transform="rotate(-0 27.862812 81.114518)">50,000</text>
     </g>
    </g>
    <g id="ytick_7">
     <g id="line2d_20">
      <path d="M 66.055156 336.342725  L 734.88 336.342725  " clip-path="url(#p989804c2ee)" style="fill: none; stroke: #fafafa; stroke-width: 0.5; stroke-linecap: square"/>
     </g>
    </g>
    <g id="ytick_8">
     <g id="line2d_21">
      <path d="M 66.055156 278.720901  L 734.88 278.720901  " clip-path="url(#p989804c2ee)" style="fill: none; stroke: #fafafa; stroke-width: 0.5; stroke-linecap: square"/>
     </g>
    </g>
    <g id="ytick_9">
     <g id="line2d_22">
      <path d="M 66.055156 221.099077  L 734.88 221.099077  " clip-path="url(#p989804c2ee)" style="fill: none; stroke: #fafafa; stroke-width: 0.5; stroke-linecap: square"/>
     </g>
    </g>
    <g id="ytick_10">
     <g id="line2d_23">
      <path d="M 66.055156 163.477254  L 734.88 163.477254  " clip-path="url(#p989804c2ee)" style="fill: none; stroke: #fafafa; stroke-width: 0.5; stroke-linecap: square"/>
     </g>
    </g>
    <g id="ytick_11">
     <g id="line2d_24">
      <path d="M 66.055156 105.85543  L 734.88 105.85543  " clip-path="url(#p989804c2ee)" style="fill: none; stroke: #fafafa; stroke-width: 0.5; stroke-linecap: square"/>
     </g>
    </g>
   </g>
   <g id="FillBetweenPolyCollection_1">
    <path d="M 66.055156 183.811995  L 66.055156 183.811995  L 88.349318 180.885736  L 110.643479 179.283  L 132.937641 178.591494  L 155.231802 177.465796  L 177.525964 175.909382  L 199.820125 174.429628  L 222.114286 172.693787  L 244.408448 170.873619  L 266.702609 169.355905  L 288.996771 167.696112  L 311.290932 165.955771  L 333.585094 164.346318  L 355.879255 162.735899  L 378.173417 161.320375  L 400.467578 159.937947  L 422.76174 158.522833  L 445.055901 157.329722  L 467.350062 156.03799  L 489.644224 154.821845  L 511.938385 153.732656  L 534.232547 152.803582  L 556.526708 152.099032  L 578.82087 151.488583  L 601.115031 150.971702  L 623.409193 150.634438  L 645.703354 150.200682  L 667.997516 149.753845  L 690.291677 149.468496  L 712.585839 149.229202  L 734.88 148.940231  L 734.88 143.712968  L 734.88 143.712968  L 712.585839 144.058699  L 690.291677 144.40443  L 667.997516 144.807783  L 645.703354 145.326379  L 623.409193 145.844976  L 601.115031 146.30595  L 578.82087 146.93979  L 556.526708 147.688874  L 534.232547 148.553201  L 511.938385 149.648016  L 489.644224 150.973318  L 467.350062 152.413864  L 445.055901 153.969653  L 422.76174 155.410198  L 400.467578 157.138853  L 378.173417 158.809886  L 355.879255 160.538541  L 333.585094 162.440061  L 311.290932 164.341581  L 288.996771 166.358345  L 266.702609 168.259865  L 244.408448 169.98852  L 222.114286 172.005284  L 199.820125 173.906804  L 177.525964 175.520215  L 155.231802 177.191248  L 132.937641 178.401306  L 110.643479 179.15039  L 88.349318 180.821423  L 66.055156 183.811995  z " clip-path="url(#p989804c2ee)" style="fill: #ffc729; fill-opacity: 0.85098"/>
   </g>
   <g id="line2d_25">
    <path d="M 66.055156 183.811995  L 88.349318 180.821423  L 110.643479 179.15039  L 132.937641 178.401306  L 155.231802 177.191248  L 177.525964 175.520215  L 199.820125 173.906804  L 222.114286 172.005284  L 244.408448 169.98852  L 266.702609 168.259865  L 288.996771 166.358345  L 311.290932 164.341581  L 333.585094 162.440061  L 355.879255 160.538541  L 378.173417 158.809886  L 400.467578 157.138853  L 422.76174 155.410198  L 445.055901 153.969653  L 467.350062 152.413864  L 489.644224 150.973318  L 511.938385 149.648016  L 534.232547 148.553201  L 556.526708 147.688874  L 578.82087 146.93979  L 601.115031 146.30595  L 623.409193 145.844976  L 645.703354 145.326379  L 667.997516 144.807783  L 690.291677 144.40443  L 712.585839 144.058699  L 734.88 143.712968  " clip-path="url(#p989804c2ee)" style="fill: none; stroke: #000000; stroke-opacity: 0; stroke-width: 0.886227; stroke-linejoin: miter"/>
   </g>
   <g id="FillBetweenPolyCollection_2">
    <path d="M 66.055156 183.811995  L 66.055156 183.811995  L 88.349318 181.108359  L 110.643479 179.641352  L 132.937641 179.08883  L 155.231802 178.151076  L 177.525964 176.899769  L 199.820125 175.723748  L 222.114286 174.438835  L 244.408448 173.160751  L 266.702609 172.304363  L 288.996771 171.430642  L 311.290932 170.516938  L 333.585094 169.796349  L 355.879255 169.01645  L 378.173417 168.41027  L 400.467578 167.877795  L 422.76174 167.393046  L 445.055901 166.936849  L 467.350062 166.544462  L 489.644224 166.146318  L 511.938385 165.876751  L 534.232547 165.510029  L 556.526708 165.402152  L 578.82087 165.139244  L 601.115031 164.917521  L 623.409193 164.750408  L 645.703354 164.455881  L 667.997516 164.126068  L 690.291677 163.8821  L 712.585839 163.651289  L 734.88 163.35712  L 734.88 148.940231  L 734.88 148.940231  L 712.585839 149.229202  L 690.291677 149.468496  L 667.997516 149.753845  L 645.703354 150.200682  L 623.409193 150.634438  L 601.115031 150.971702  L 578.82087 151.488583  L 556.526708 152.099032  L 534.232547 152.803582  L 511.938385 153.732656  L 489.644224 154.821845  L 467.350062 156.03799  L 445.055901 157.329722  L 422.76174 158.522833  L 400.467578 159.937947  L 378.173417 161.320375  L 355.879255 162.735899  L 333.585094 164.346318  L 311.290932 165.955771  L 288.996771 167.696112  L 266.702609 169.355905  L 244.408448 170.873619  L 222.114286 172.693787  L 199.820125 174.429628  L 177.525964 175.909382  L 155.231802 177.465796  L 132.937641 178.591494  L 110.643479 179.283  L 88.349318 180.885736  L 66.055156 183.811995  z " clip-path="url(#p989804c2ee)" style="fill: #fc9706; fill-opacity: 0.85098"/>
   </g>
   <g id="line2d_26">
    <path d="M 66.055156 183.811995  L 88.349318 180.885736  L 110.643479 179.283  L 132.937641 178.591494  L 155.231802 177.465796  L 177.525964 175.909382  L 199.820125 174.429628  L 222.114286 172.693787  L 244.408448 170.873619  L 266.702609 169.355905  L 288.996771 167.696112  L 311.290932 165.955771  L 333.585094 164.346318  L 355.879255 162.735899  L 378.173417 161.320375  L 400.467578 159.937947  L 422.76174 158.522833  L 445.055901 157.329722  L 467.350062 156.03799  L 489.644224 154.821845  L 511.938385 153.732656  L 534.232547 152.803582  L 556.526708 152.099032  L 578.82087 151.488583  L 601.115031 150.971702  L 623.409193 150.634438  L 645.703354 150.200682  L 667.997516 149.753845  L 690.291677 149.468496  L 712.585839 149.229202  L 734.88 148.940231  " clip-path="url(#p989804c2ee)" style="fill: none; stroke: #000000; stroke-opacity: 0; stroke-width: 0.886227; stroke-linejoin: miter"/>
   </g>
   <g id="FillBetweenPolyCollection_3">
    <path d="M 66.055156 183.811995  L 66.055156 183.811995  L 88.349318 181.951854  L 110.643479 180.986688  L 132.937641 180.6144  L 155.231802 180.022797  L 177.525964 179.315494  L 199.820125 178.53587  L 222.114286 177.707826  L 244.408448 176.893495  L 266.702609 176.281242  L 288.996771 175.664979  L 311.290932 174.957256  L 333.585094 174.411497  L 355.879255 173.800571  L 378.173417 173.328468  L 400.467578 172.909546  L 422.76174 172.53765  L 445.055901 172.162949  L 467.350062 171.85834  L 489.644224 171.538428  L 511.938385 171.336314  L 534.232547 171.0119  L 556.526708 170.925532  L 578.82087 170.675322  L 601.115031 170.4577  L 623.409193 170.280001  L 645.703354 169.982229  L 667.997516 169.65138  L 690.291677 169.396258  L 712.585839 169.151598  L 734.88 168.843305  L 734.88 163.35712  L 734.88 163.35712  L 712.585839 163.651289  L 690.291677 163.8821  L 667.997516 164.126068  L 645.703354 164.455881  L 623.409193 164.750408  L 601.115031 164.917521  L 578.82087 165.139244  L 556.526708 165.402152  L 534.232547 165.510029  L 511.938385 165.876751  L 489.644224 166.146318  L 467.350062 166.544462  L 445.055901 166.936849  L 422.76174 167.393046  L 400.467578 167.877795  L 378.173417 168.41027  L 355.879255 169.01645  L 333.585094 169.796349  L 311.290932 170.516938  L 288.996771 171.430642  L 266.702609 172.304363  L 244.408448 173.160751  L 222.114286 174.438835  L 199.820125 175.723748  L 177.525964 176.899769  L 155.231802 178.151076  L 132.937641 179.08883  L 110.643479 179.641352  L 88.349318 181.108359  L 66.055156 183.811995  z " clip-path="url(#p989804c2ee)" style="fill: #68bed8; fill-opacity: 0.85098"/>
   </g>
   <g id="line2d_27">
    <path d="M 66.055156 183.811995  L 88.349318 181.108359  L 110.643479 179.641352  L 132.937641 179.08883  L 155.231802 178.151076  L 177.525964 176.899769  L 199.820125 175.723748  L 222.114286 174.438835  L 244.408448 173.160751  L 266.702609 172.304363  L 288.996771 171.430642  L 311.290932 170.516938  L 333.585094 169.796349  L 355.879255 169.01645  L 378.173417 168.41027  L 400.467578 167.877795  L 422.76174 167.393046  L 445.055901 166.936849  L 467.350062 166.544462  L 489.644224 166.146318  L 511.938385 165.876751  L 534.232547 165.510029  L 556.526708 165.402152  L 578.82087 165.139244  L 601.115031 164.917521  L 623.409193 164.750408  L 645.703354 164.455881  L 667.997516 164.126068  L 690.291677 163.8821  L 712.585839 163.651289  L 734.88 163.35712  " clip-path="url(#p989804c2ee)" style="fill: none; stroke: #000000; stroke-opacity: 0; stroke-width: 0.886227; stroke-linejoin: miter"/>
   </g>
   <g id="FillBetweenPolyCollection_4">
    <path d="M 66.055156 183.811995  L 66.055156 183.811995  L 88.349318 183.811995  L 110.643479 183.811995  L 132.937641 183.811995  L 155.231802 183.811995  L 177.525964 183.811995  L 199.820125 183.811995  L 222.114286 183.811995  L 244.408448 183.811995  L 266.702609 183.811995  L 288.996771 183.811995  L 311.290932 183.811995  L 333.585094 183.811995  L 355.879255 183.811995  L 378.173417 183.811995  L 400.467578 183.811995  L 422.76174 183.811995  L 445.055901 183.811995  L 467.350062 183.811995  L 489.644224 183.811995  L 511.938385 183.811995  L 534.232547 183.811995  L 556.526708 183.811995  L 578.82087 183.811995  L 601.115031 183.811995  L 623.409193 183.811995  L 645.703354 183.811995  L 667.997516 183.811995  L 690.291677 183.811995  L 712.585839 183.811995  L 734.88 183.811995  L 734.88 168.843305  L 734.88 168.843305  L 712.585839 169.151598  L 690.291677 169.396258  L 667.997516 169.65138  L 645.703354 169.982229  L 623.409193 170.280001  L 601.115031 170.4577  L 578.82087 170.675322  L 556.526708 170.925532  L 534.232547 171.0119  L 511.938385 171.336314  L 489.644224 171.538428  L 467.350062 171.85834  L 445.055901 172.162949  L 422.76174 172.53765  L 400.467578 172.909546  L 378.173417 173.328468  L 355.879255 173.800571  L 333.585094 174.411497  L 311.290932 174.957256  L 288.996771 175.664979  L 266.702609 176.281242  L 244.408448 176.893495  L 222.114286 177.707826  L 199.820125 178.53587  L 177.525964 179.315494  L 155.231802 180.022797  L 132.937641 180.6144  L 110.643479 180.986688  L 88.349318 181.951854  L 66.055156 183.811995  z " clip-path="url(#p989804c2ee)" style="fill: #999999; fill-opacity: 0.85098"/>
   </g>
   <g id="line2d_28">
    <path d="M 66.055156 183.811995  L 88.349318 181.951854  L 110.643479 180.986688  L 132.937641 180.6144  L 155.231802 180.022797  L 177.525964 179.315494  L 199.820125 178.53587  L 222.114286 177.707826  L 244.408448 176.893495  L 266.702609 176.281242  L 288.996771 175.664979  L 311.290932 174.957256  L 333.585094 174.411497  L 355.879255 173.800571  L 378.173417 173.328468  L 400.467578 172.909546  L 422.76174 172.53765  L 445.055901 172.162949  L 467.350062 171.85834  L 489.644224 171.538428  L 511.938385 171.336314  L 534.232547 171.0119  L 556.526708 170.925532  L 578.82087 170.675322  L 601.115031 170.4577  L 623.409193 170.280001  L 645.703354 169.982229  L 667.997516 169.65138  L 690.291677 169.396258  L 712.585839 169.151598  L 734.88 168.843305  " clip-path="url(#p989804c2ee)" style="fill: none; stroke: #000000; stroke-opacity: 0; stroke-width: 0.886227; stroke-linejoin: miter"/>
   </g>
   <g id="FillBetweenPolyCollection_5">
    <path d="M 66.055156 183.811995  L 66.055156 365.153636  L 88.349318 365.153636  L 110.643479 365.153636  L 132.937641 365.153636  L 155.231802 365.153636  L 177.525964 365.153636  L 199.820125 365.153636  L 222.114286 365.153636  L 244.408448 365.153636  L 266.702609 365.153636  L 288.996771 365.153636  L 311.290932 365.153636  L 333.585094 365.153636  L 355.879255 365.153636  L 378.173417 365.153636  L 400.467578 365.153636  L 422.76174 365.153636  L 445.055901 365.153636  L 467.350062 365.153636  L 489.644224 365.153636  L 511.938385 365.153636  L 534.232547 365.153636  L 556.526708 365.153636  L 578.82087 365.153636  L 601.115031 365.153636  L 623.409193 365.153636  L 645.703354 365.153636  L 667.997516 365.153636  L 690.291677 365.153636  L 712.585839 365.153636  L 734.88 365.153636  L 734.88 183.811995  L 734.88 183.811995  L 712.585839 183.811995  L 690.291677 183.811995  L 667.997516 183.811995  L 645.703354 183.811995  L 623.409193 183.811995  L 601.115031 183.811995  L 578.82087 183.811995  L 556.526708 183.811995  L 534.232547 183.811995  L 511.938385 183.811995  L 489.644224 183.811995  L 467.350062 183.811995  L 445.055901 183.811995  L 422.76174 183.811995  L 400.467578 183.811995  L 378.173417 183.811995  L 355.879255 183.811995  L 333.585094 183.811995  L 311.290932 183.811995  L 288.996771 183.811995  L 266.702609 183.811995  L 244.408448 183.811995  L 222.114286 183.811995  L 199.820125 183.811995  L 177.525964 183.811995  L 155.231802 183.811995  L 132.937641 183.811995  L 110.643479 183.811995  L 88.349318 183.811995  L 66.055156 183.811995  z " clip-path="url(#p989804c2ee)" style="fill: #e0e0e0; fill-opacity: 0.85098"/>
   </g>
   <g id="line2d_29">
    <path d="M 66.055156 183.811995  L 88.349318 183.811995  L 110.643479 183.811995  L 132.937641 183.811995  L 155.231802 183.811995  L 177.525964 183.811995  L 199.820125 183.811995  L 222.114286 183.811995  L 244.408448 183.811995  L 266.702609 183.811995  L 288.996771 183.811995  L 311.290932 183.811995  L 333.585094 183.811995  L 355.879255 183.811995  L 378.173417 183.811995  L 400.467578 183.811995  L 422.76174 183.811995  L 445.055901 183.811995  L 467.350062 183.811995  L 489.644224 183.811995  L 511.938385 183.811995  L 534.232547 183.811995  L 556.526708 183.811995  L 578.82087 183.811995  L 601.115031 183.811995  L 623.409193 183.811995  L 645.703354 183.811995  L 667.997516 183.811995  L 690.291677 183.811995  L 712.585839 183.811995  L 734.88 183.811995  " clip-path="url(#p989804c2ee)" style="fill: none; stroke: #000000; stroke-opacity: 0; stroke-width: 0.886227; stroke-linejoin: miter"/>
   </g>
   <g id="line2d_30">
    <path d="M 734.88 274.482816  L 752.715329 274.482816  " style="fill: none; stroke: #e0e0e0; stroke-linecap: round"/>
   </g>
   <g id="line2d_31">
    <path d="M 752.715329 274.482816  L 761.632994 274.482816  " style="fill: none; stroke: #e0e0e0; stroke-linecap: round"/>
   </g>
   <g id="line2d_32">
    <path d="M 734.88 176.32765  L 752.715329 176.32765  " style="fill: none; stroke: #999999; stroke-linecap: round"/>
   </g>
   <g id="line2d_33">
    <path d="M 752.715329 176.32765  L 761.632994 176.32765  " style="fill: none; stroke: #999999; stroke-linecap: round"/>
   </g>
   <g id="line2d_34">
    <path d="M 734.88 166.100212  L 752.715329 162.714494  " style="fill: none; stroke: #68bed8; stroke-linecap: round"/>
   </g>
   <g id="line2d_35">
    <path d="M 752.715329 162.714494  L 761.632994 162.714494  " style="fill: none; stroke: #68bed8; stroke-linecap: round"/>
   </g>
   <g id="line2d_36">
    <path d="M 734.88 156.148675  L 752.715329 149.101338  " style="fill: none; stroke: #fc9706; stroke-linecap: round"/>
   </g>
   <g id="line2d_37">
    <path d="M 752.715329 149.101338  L 761.632994 149.101338  " style="fill: none; stroke: #fc9706; stroke-linecap: round"/>
   </g>
   <g id="line2d_38">
    <path d="M 734.88 146.3266  L 752.715329 135.488183  " style="fill: none; stroke: #ffc729; stroke-linecap: round"/>
   </g>
   <g id="line2d_39">
    <path d="M 752.715329 135.488183  L 761.632994 135.488183  " style="fill: none; stroke: #ffc729; stroke-linecap: round"/>
   </g>
   <g id="text_13">
    <text style="font-weight: 700; font-size: 9px; font-family: 'IBM Plex Sans'; text-anchor: start; fill: #e0e0e0" x="768.321242" y="276.912816" transform="rotate(-0 768.321242 276.912816)">Base (2025 level)</text>
   </g>
   <g id="text_14">
    <text style="font-weight: 700; font-size: 9px; font-family: 'IBM Plex Sans'; text-anchor: start; fill: #999999" x="768.321242" y="178.744291" transform="rotate(-0 768.321242 178.744291)">Organic growth</text>
   </g>
   <g id="text_15">
    <text style="font-weight: 700; font-size: 9px; font-family: 'IBM Plex Sans'; text-anchor: start; fill: #68bed8" x="768.321242" y="165.090354" transform="rotate(-0 768.321242 165.090354)">Large loads</text>
   </g>
   <g id="text_16">
    <text style="font-weight: 700; font-size: 9px; font-family: 'IBM Plex Sans'; text-anchor: start; fill: #fc9706" x="768.321242" y="151.531338" transform="rotate(-0 768.321242 151.531338)">EV load</text>
   </g>
   <g id="text_17">
    <text style="font-weight: 700; font-size: 9px; font-family: 'IBM Plex Sans'; text-anchor: start; fill: #ffc729" x="768.321242" y="137.904823" transform="rotate(-0 768.321242 137.904823)">Building electrification</text>
   </g>
   <g id="patch_3">
    <path d="M 66.055156 365.153636  L 734.88 365.153636  " style="fill: none; stroke: #000000; stroke-width: 0.5; stroke-linejoin: miter; stroke-linecap: square"/>
   </g>
  </g>
  <g id="text_18">
   <text style="font-weight: 700; font-size: 15px; font-family: 'GT Planar'; text-anchor: start" x="66.055156" y="17.939062" transform="rotate(-0 66.055156 17.939062)">NYISO summer peak forecasted to grow 22% by 2055</text>
  </g>
  <g id="text_19">
   <text style="font-size: 13px; font-family: 'GT Planar'; fill: #333333" transform="translate(17.522813 260.39674) rotate(-90)">Net peak (MW)</text>
  </g>
  <g id="text_20">
   <text style="font-size: 13px; font-family: 'GT Planar'; text-anchor: start; fill: #ffc729" x="66.05625" y="41.495636" transform="rotate(-0 66.05625 41.495636)">Building electrification</text>
  </g>
  <g id="text_21">
   <text style="font-size: 13px; font-family: 'GT Planar'; text-anchor: start; fill: #333333" x="206.49375" y="41.495636" transform="rotate(-0 206.49375 41.495636)">only accounts for</text>
  </g>
  <g id="text_22">
   <text style="font-size: 13px; font-family: 'GT Planar'; text-anchor: start; fill: #333333" x="314.9625" y="41.495636" transform="rotate(-0 314.9625 41.495636)">13%</text>
  </g>
  <g id="text_23">
   <text style="font-size: 13px; font-family: 'GT Planar'; text-anchor: start; fill: #333333" x="342.61875" y="41.495636" transform="rotate(-0 342.61875 41.495636)">of this growth</text>
  </g>
 </g>
 <defs>
  <clipPath id="p989804c2ee">
   <rect x="66.055156" y="62.639062" width="668.824844" height="302.514574"/>
  </clipPath>
 </defs>
</svg>
