<svg xmlns:xlink="http://www.w3.org/1999/xlink" xmlns="http://www.w3.org/2000/svg" width="871.898586pt" height="387.613168pt" viewBox="0 0 871.898586 387.613168" version="1.1">
 <metadata>
  <rdf:RDF xmlns:dc="http://purl.org/dc/elements/1.1/" xmlns:cc="http://creativecommons.org/ns#" xmlns:rdf="http://www.w3.org/1999/02/22-rdf-syntax-ns#">
   <cc:Work>
    <dc:type rdf:resource="http://purl.org/dc/dcmitype/StillImage"/>
    <dc:date>2026-04-11T12:05:43.561601</dc:date>
    <dc:format>image/svg+xml</dc:format>
    <dc:creator>
     <cc:Agent>
      <dc:title>Matplotlib v3.10.8, https://matplotlib.org/</dc:title>
     </cc:Agent>
    </dc:creator>
   </cc:Work>
  </rdf:RDF>
 </metadata>
 <defs>
  <style type="text/css">*{stroke-linejoin: round; stroke-linecap: butt}</style>
 </defs>
 <g id="figure_1">
  <g id="patch_1">
   <path d="M 0 387.613168  L 871.898586 387.613168  L 871.898586 0  L 0 0  z " style="fill: #ffffff"/>
  </g>
  <g id="axes_1">
   <g id="patch_2">
    <path d="M 66.055156 365.123168  L 734.88 365.123168  L 734.88 50.169531  L 66.055156 50.169531  z " style="fill: #ffffff"/>
   </g>
   <g id="matplotlib.axis_1">
    <g id="xtick_1">
     <g id="line2d_1">
      <path d="M 66.055156 365.123168  " style="fill: none; stroke: #000000; stroke-width: 1.5; stroke-linecap: square"/>
      <defs>
       <path id="mb0f63f67ed" d="M 0 0  L 0 2.75  " style="stroke: #000000"/>
      </defs>
      <g>
       <use xlink:href="#mb0f63f67ed" x="66.055156" y="365.123168" style="stroke: #000000"/>
      </g>
     </g>
     <g id="text_1">
      <text style="font-size: 11px; font-family: 'IBM Plex Sans'; text-anchor: middle; fill: #4d4d4d" x="66.055156" y="378.213168" transform="rotate(-0 66.055156 378.213168)">2025</text>
     </g>
    </g>
    <g id="xtick_2">
     <g id="line2d_2">
      <path d="M 177.525964 365.123168  " style="fill: none; stroke: #000000; stroke-width: 1.5; stroke-linecap: square"/>
      <g>
       <use xlink:href="#mb0f63f67ed" x="177.525964" y="365.123168" style="stroke: #000000"/>
      </g>
     </g>
     <g id="text_2">
      <text style="font-size: 11px; font-family: 'IBM Plex Sans'; text-anchor: middle; fill: #4d4d4d" x="177.525964" y="378.213168" transform="rotate(-0 177.525964 378.213168)">2030</text>
     </g>
    </g>
    <g id="xtick_3">
     <g id="line2d_3">
      <path d="M 288.996771 365.123168  " style="fill: none; stroke: #000000; stroke-width: 1.5; stroke-linecap: square"/>
      <g>
       <use xlink:href="#mb0f63f67ed" x="288.996771" y="365.123168" style="stroke: #000000"/>
      </g>
     </g>
     <g id="text_3">
      <text style="font-size: 11px; font-family: 'IBM Plex Sans'; text-anchor: middle; fill: #4d4d4d" x="288.996771" y="378.213168" transform="rotate(-0 288.996771 378.213168)">2035</text>
     </g>
    </g>
    <g id="xtick_4">
     <g id="line2d_4">
      <path d="M 400.467578 365.123168  " style="fill: none; stroke: #000000; stroke-width: 1.5; stroke-linecap: square"/>
      <g>
       <use xlink:href="#mb0f63f67ed" x="400.467578" y="365.123168" style="stroke: #000000"/>
      </g>
     </g>
     <g id="text_4">
      <text style="font-size: 11px; font-family: 'IBM Plex Sans'; text-anchor: middle; fill: #4d4d4d" x="400.467578" y="378.213168" transform="rotate(-0 400.467578 378.213168)">2040</text>
     </g>
    </g>
    <g id="xtick_5">
     <g id="line2d_5">
      <path d="M 511.938385 365.123168  " style="fill: none; stroke: #000000; stroke-width: 1.5; stroke-linecap: square"/>
      <g>
       <use xlink:href="#mb0f63f67ed" x="511.938385" y="365.123168" style="stroke: #000000"/>
      </g>
     </g>
     <g id="text_5">
      <text style="font-size: 11px; font-family: 'IBM Plex Sans'; text-anchor: middle; fill: #4d4d4d" x="511.938385" y="378.213168" transform="rotate(-0 511.938385 378.213168)">2045</text>
     </g>
    </g>
    <g id="xtick_6">
     <g id="line2d_6">
      <path d="M 623.409193 365.123168  " style="fill: none; stroke: #000000; stroke-width: 1.5; stroke-linecap: square"/>
      <g>
       <use xlink:href="#mb0f63f67ed" x="623.409193" y="365.123168" style="stroke: #000000"/>
      </g>
     </g>
     <g id="text_6">
      <text style="font-size: 11px; font-family: 'IBM Plex Sans'; text-anchor: middle; fill: #4d4d4d" x="623.409193" y="378.213168" transform="rotate(-0 623.409193 378.213168)">2050</text>
     </g>
    </g>
    <g id="xtick_7">
     <g id="line2d_7">
      <path d="M 734.88 365.123168  " style="fill: none; stroke: #000000; stroke-width: 1.5; stroke-linecap: square"/>
      <g>
       <use xlink:href="#mb0f63f67ed" x="734.88" y="365.123168" style="stroke: #000000"/>
      </g>
     </g>
     <g id="text_7">
      <text style="font-size: 11px; font-family: 'IBM Plex Sans'; text-anchor: middle; fill: #4d4d4d" x="734.88" y="378.213168" transform="rotate(-0 734.88 378.213168)">2055</text>
     </g>
    </g>
    <g id="xtick_8">
     <g id="line2d_8">
      <path d="M 121.79056 365.123168  " style="fill: none; stroke: #000000; stroke-width: 1.5; stroke-linecap: square"/>
      <defs>
       <path id="m243f37daca" d="M 0 0  L 0 1.375  " style="stroke: #000000"/>
      </defs>
      <g>
       <use xlink:href="#m243f37daca" x="121.79056" y="365.123168" style="stroke: #000000"/>
      </g>
     </g>
    </g>
    <g id="xtick_9">
     <g id="line2d_9">
      <path d="M 233.261367 365.123168  " style="fill: none; stroke: #000000; stroke-width: 1.5; stroke-linecap: square"/>
      <g>
       <use xlink:href="#m243f37daca" x="233.261367" y="365.123168" style="stroke: #000000"/>
      </g>
     </g>
    </g>
    <g id="xtick_10">
     <g id="line2d_10">
      <path d="M 344.732174 365.123168  " style="fill: none; stroke: #000000; stroke-width: 1.5; stroke-linecap: square"/>
      <g>
       <use xlink:href="#m243f37daca" x="344.732174" y="365.123168" style="stroke: #000000"/>
      </g>
     </g>
    </g>
    <g id="xtick_11">
     <g id="line2d_11">
      <path d="M 456.202982 365.123168  " style="fill: none; stroke: #000000; stroke-width: 1.5; stroke-linecap: square"/>
      <g>
       <use xlink:href="#m243f37daca" x="456.202982" y="365.123168" style="stroke: #000000"/>
      </g>
     </g>
    </g>
    <g id="xtick_12">
     <g id="line2d_12">
      <path d="M 567.673789 365.123168  " style="fill: none; stroke: #000000; stroke-width: 1.5; stroke-linecap: square"/>
      <g>
       <use xlink:href="#m243f37daca" x="567.673789" y="365.123168" style="stroke: #000000"/>
      </g>
     </g>
    </g>
    <g id="xtick_13">
     <g id="line2d_13">
      <path d="M 679.144596 365.123168  " style="fill: none; stroke: #000000; stroke-width: 1.5; stroke-linecap: square"/>
      <g>
       <use xlink:href="#m243f37daca" x="679.144596" y="365.123168" style="stroke: #000000"/>
      </g>
     </g>
    </g>
   </g>
   <g id="matplotlib.axis_2">
    <g id="ytick_1">
     <g id="line2d_14">
      <path d="M 66.055156 365.123168  L 734.88 365.123168  " clip-path="url(#paa0903d4f0)" style="fill: none; stroke: #e5e5e5; stroke-linecap: square"/>
     </g>
    </g>
    <g id="ytick_2">
     <g id="line2d_15">
      <path d="M 66.055156 305.131999  L 734.88 305.131999  " clip-path="url(#paa0903d4f0)" style="fill: none; stroke: #e5e5e5; stroke-linecap: square"/>
     </g>
     <g id="text_8">
      <text style="font-size: 11px; font-family: 'IBM Plex Sans'; text-anchor: start; fill: #4d4d4d" x="27.862813" y="309.201999" transform="rotate(-0 27.862813 309.201999)">10,000</text>
     </g>
    </g>
    <g id="ytick_3">
     <g id="line2d_16">
      <path d="M 66.055156 245.14083  L 734.88 245.14083  " clip-path="url(#paa0903d4f0)" style="fill: none; stroke: #e5e5e5; stroke-linecap: square"/>
     </g>
     <g id="text_9">
      <text style="font-size: 11px; font-family: 'IBM Plex Sans'; text-anchor: start; fill: #4d4d4d" x="27.862813" y="249.21083" transform="rotate(-0 27.862813 249.21083)">20,000</text>
     </g>
    </g>
    <g id="ytick_4">
     <g id="line2d_17">
      <path d="M 66.055156 185.149661  L 734.88 185.149661  " clip-path="url(#paa0903d4f0)" style="fill: none; stroke: #e5e5e5; stroke-linecap: square"/>
     </g>
     <g id="text_10">
      <text style="font-size: 11px; font-family: 'IBM Plex Sans'; text-anchor: start; fill: #4d4d4d" x="27.862813" y="189.219661" transform="rotate(-0 27.862813 189.219661)">30,000</text>
     </g>
    </g>
    <g id="ytick_5">
     <g id="line2d_18">
      <path d="M 66.055156 125.158492  L 734.88 125.158492  " clip-path="url(#paa0903d4f0)" style="fill: none; stroke: #e5e5e5; stroke-linecap: square"/>
     </g>
     <g id="text_11">
      <text style="font-size: 11px; font-family: 'IBM Plex Sans'; text-anchor: start; fill: #4d4d4d" x="27.862813" y="129.228492" transform="rotate(-0 27.862813 129.228492)">40,000</text>
     </g>
    </g>
    <g id="ytick_6">
     <g id="line2d_19">
      <path d="M 66.055156 65.167323  L 734.88 65.167323  " clip-path="url(#paa0903d4f0)" style="fill: none; stroke: #e5e5e5; stroke-linecap: square"/>
     </g>
     <g id="text_12">
      <text style="font-size: 11px; font-family: 'IBM Plex Sans'; text-anchor: start; fill: #4d4d4d" x="27.862813" y="69.237323" transform="rotate(-0 27.862813 69.237323)">50,000</text>
     </g>
    </g>
    <g id="ytick_7">
     <g id="line2d_20">
      <path d="M 66.055156 335.127583  L 734.88 335.127583  " clip-path="url(#paa0903d4f0)" style="fill: none; stroke: #fafafa; stroke-width: 0.5; stroke-linecap: square"/>
     </g>
    </g>
    <g id="ytick_8">
     <g id="line2d_21">
      <path d="M 66.055156 275.136414  L 734.88 275.136414  " clip-path="url(#paa0903d4f0)" style="fill: none; stroke: #fafafa; stroke-width: 0.5; stroke-linecap: square"/>
     </g>
    </g>
    <g id="ytick_9">
     <g id="line2d_22">
      <path d="M 66.055156 215.145246  L 734.88 215.145246  " clip-path="url(#paa0903d4f0)" style="fill: none; stroke: #fafafa; stroke-width: 0.5; stroke-linecap: square"/>
     </g>
    </g>
    <g id="ytick_10">
     <g id="line2d_23">
      <path d="M 66.055156 155.154077  L 734.88 155.154077  " clip-path="url(#paa0903d4f0)" style="fill: none; stroke: #fafafa; stroke-width: 0.5; stroke-linecap: square"/>
     </g>
    </g>
    <g id="ytick_11">
     <g id="line2d_24">
      <path d="M 66.055156 95.162908  L 734.88 95.162908  " clip-path="url(#paa0903d4f0)" style="fill: none; stroke: #fafafa; stroke-width: 0.5; stroke-linecap: square"/>
     </g>
    </g>
   </g>
   <g id="FillBetweenPolyCollection_1">
    <path d="M 66.055156 176.32496  L 66.055156 176.32496  L 88.349318 173.278376  L 110.643479 171.609738  L 132.937641 170.889798  L 155.231802 169.717812  L 177.525964 168.0974  L 199.820125 166.556801  L 222.114286 164.749583  L 244.408448 162.854572  L 266.702609 161.274452  L 288.996771 159.546409  L 311.290932 157.734508  L 333.585094 156.058876  L 355.879255 154.382238  L 378.173417 152.908509  L 400.467578 151.469237  L 422.76174 149.995936  L 445.055901 148.753765  L 467.350062 147.408919  L 489.644224 146.142767  L 511.938385 145.008792  L 534.232547 144.041516  L 556.526708 143.307995  L 578.82087 142.672445  L 601.115031 142.134311  L 623.409193 141.783178  L 645.703354 141.331588  L 667.997516 140.866377  L 690.291677 140.569295  L 712.585839 140.320161  L 734.88 140.019308  L 734.88 134.577106  L 734.88 134.577106  L 712.585839 134.937053  L 690.291677 135.297  L 667.997516 135.716938  L 645.703354 136.256859  L 623.409193 136.796779  L 601.115031 137.276708  L 578.82087 137.936611  L 556.526708 138.716496  L 534.232547 139.616364  L 511.938385 140.756196  L 489.644224 142.135993  L 467.350062 143.635772  L 445.055901 145.255534  L 422.76174 146.755313  L 400.467578 148.555048  L 378.173417 150.294792  L 355.879255 152.094527  L 333.585094 154.074236  L 311.290932 156.053944  L 288.996771 158.153635  L 266.702609 160.133344  L 244.408448 161.933079  L 222.114286 164.03277  L 199.820125 166.012478  L 177.525964 167.692231  L 155.231802 169.431975  L 132.937641 170.691789  L 110.643479 171.471675  L 88.349318 173.211419  L 66.055156 176.32496  z " clip-path="url(#paa0903d4f0)" style="fill: #ffc729; fill-opacity: 0.219608"/>
   </g>
   <g id="line2d_25">
    <path d="M 66.055156 176.32496  L 88.349318 173.278376  L 110.643479 171.609738  L 132.937641 170.889798  L 155.231802 169.717812  L 177.525964 168.0974  L 199.820125 166.556801  L 222.114286 164.749583  L 244.408448 162.854572  L 266.702609 161.274452  L 288.996771 159.546409  L 311.290932 157.734508  L 333.585094 156.058876  L 355.879255 154.382238  L 378.173417 152.908509  L 400.467578 151.469237  L 422.76174 149.995936  L 445.055901 148.753765  L 467.350062 147.408919  L 489.644224 146.142767  L 511.938385 145.008792  L 534.232547 144.041516  L 556.526708 143.307995  L 578.82087 142.672445  L 601.115031 142.134311  L 623.409193 141.783178  L 645.703354 141.331588  L 667.997516 140.866377  L 690.291677 140.569295  L 712.585839 140.320161  L 734.88 140.019308  " clip-path="url(#paa0903d4f0)" style="fill: none; stroke: #000000; stroke-opacity: 0; stroke-width: 0.886227; stroke-linejoin: miter"/>
   </g>
   <g id="line2d_26">
    <path d="M 66.055156 176.32496  L 88.349318 173.211419  L 110.643479 171.471675  L 132.937641 170.691789  L 155.231802 169.431975  L 177.525964 167.692231  L 199.820125 166.012478  L 222.114286 164.03277  L 244.408448 161.933079  L 266.702609 160.133344  L 288.996771 158.153635  L 311.290932 156.053944  L 333.585094 154.074236  L 355.879255 152.094527  L 378.173417 150.294792  L 400.467578 148.555048  L 422.76174 146.755313  L 445.055901 145.255534  L 467.350062 143.635772  L 489.644224 142.135993  L 511.938385 140.756196  L 534.232547 139.616364  L 556.526708 138.716496  L 578.82087 137.936611  L 601.115031 137.276708  L 623.409193 136.796779  L 645.703354 136.256859  L 667.997516 135.716938  L 690.291677 135.297  L 712.585839 134.937053  L 734.88 134.577106  " clip-path="url(#paa0903d4f0)" style="fill: none; stroke: #000000; stroke-opacity: 0; stroke-width: 0.886227; stroke-linejoin: miter"/>
   </g>
   <g id="FillBetweenPolyCollection_2">
    <path d="M 66.055156 176.32496  L 66.055156 176.32496  L 88.349318 173.510154  L 110.643479 171.982824  L 132.937641 171.407583  L 155.231802 170.431271  L 177.525964 169.12851  L 199.820125 167.904133  L 222.114286 166.566386  L 244.408448 165.235749  L 266.702609 164.344146  L 288.996771 163.434499  L 311.290932 162.483225  L 333.585094 161.733006  L 355.879255 160.921038  L 378.173417 160.289933  L 400.467578 159.735564  L 422.76174 159.230882  L 445.055901 158.755927  L 467.350062 158.347405  L 489.644224 157.93289  L 511.938385 157.652239  L 534.232547 157.270438  L 556.526708 157.158125  L 578.82087 156.884406  L 601.115031 156.653567  L 623.409193 156.479582  L 645.703354 156.172944  L 667.997516 155.82957  L 690.291677 155.57557  L 712.585839 155.335268  L 734.88 155.029003  L 734.88 140.019308  L 734.88 140.019308  L 712.585839 140.320161  L 690.291677 140.569295  L 667.997516 140.866377  L 645.703354 141.331588  L 623.409193 141.783178  L 601.115031 142.134311  L 578.82087 142.672445  L 556.526708 143.307995  L 534.232547 144.041516  L 511.938385 145.008792  L 489.644224 146.142767  L 467.350062 147.408919  L 445.055901 148.753765  L 422.76174 149.995936  L 400.467578 151.469237  L 378.173417 152.908509  L 355.879255 154.382238  L 333.585094 156.058876  L 311.290932 157.734508  L 288.996771 159.546409  L 266.702609 161.274452  L 244.408448 162.854572  L 222.114286 164.749583  L 199.820125 166.556801  L 177.525964 168.0974  L 155.231802 169.717812  L 132.937641 170.889798  L 110.643479 171.609738  L 88.349318 173.278376  L 66.055156 176.32496  z " clip-path="url(#paa0903d4f0)" style="fill: #fc9706; fill-opacity: 0.219608"/>
   </g>
   <g id="line2d_27">
    <path d="M 66.055156 176.32496  L 88.349318 173.510154  L 110.643479 171.982824  L 132.937641 171.407583  L 155.231802 170.431271  L 177.525964 169.12851  L 199.820125 167.904133  L 222.114286 166.566386  L 244.408448 165.235749  L 266.702609 164.344146  L 288.996771 163.434499  L 311.290932 162.483225  L 333.585094 161.733006  L 355.879255 160.921038  L 378.173417 160.289933  L 400.467578 159.735564  L 422.76174 159.230882  L 445.055901 158.755927  L 467.350062 158.347405  L 489.644224 157.93289  L 511.938385 157.652239  L 534.232547 157.270438  L 556.526708 157.158125  L 578.82087 156.884406  L 601.115031 156.653567  L 623.409193 156.479582  L 645.703354 156.172944  L 667.997516 155.82957  L 690.291677 155.57557  L 712.585839 155.335268  L 734.88 155.029003  " clip-path="url(#paa0903d4f0)" style="fill: none; stroke: #000000; stroke-opacity: 0; stroke-width: 0.886227; stroke-linejoin: miter"/>
   </g>
   <g id="line2d_28">
    <path d="M 66.055156 176.32496  L 88.349318 173.278376  L 110.643479 171.609738  L 132.937641 170.889798  L 155.231802 169.717812  L 177.525964 168.0974  L 199.820125 166.556801  L 222.114286 164.749583  L 244.408448 162.854572  L 266.702609 161.274452  L 288.996771 159.546409  L 311.290932 157.734508  L 333.585094 156.058876  L 355.879255 154.382238  L 378.173417 152.908509  L 400.467578 151.469237  L 422.76174 149.995936  L 445.055901 148.753765  L 467.350062 147.408919  L 489.644224 146.142767  L 511.938385 145.008792  L 534.232547 144.041516  L 556.526708 143.307995  L 578.82087 142.672445  L 601.115031 142.134311  L 623.409193 141.783178  L 645.703354 141.331588  L 667.997516 140.866377  L 690.291677 140.569295  L 712.585839 140.320161  L 734.88 140.019308  " clip-path="url(#paa0903d4f0)" style="fill: none; stroke: #000000; stroke-opacity: 0; stroke-width: 0.886227; stroke-linejoin: miter"/>
   </g>
   <g id="FillBetweenPolyCollection_3">
    <path d="M 66.055156 176.32496  L 66.055156 176.32496  L 88.349318 174.388332  L 110.643479 173.383479  L 132.937641 172.995883  L 155.231802 172.379954  L 177.525964 171.643567  L 199.820125 170.831886  L 222.114286 169.969794  L 244.408448 169.121979  L 266.702609 168.484551  L 288.996771 167.842948  L 311.290932 167.106123  L 333.585094 166.537924  L 355.879255 165.901878  L 378.173417 165.410362  L 400.467578 164.974214  L 422.76174 164.587027  L 445.055901 164.196918  L 467.350062 163.879784  L 489.644224 163.546717  L 511.938385 163.336292  L 534.232547 162.998539  L 556.526708 162.90862  L 578.82087 162.648121  L 601.115031 162.421551  L 623.409193 162.236545  L 645.703354 161.926529  L 667.997516 161.582076  L 690.291677 161.316464  L 712.585839 161.061743  L 734.88 160.740774  L 734.88 155.029003  L 734.88 155.029003  L 712.585839 155.335268  L 690.291677 155.57557  L 667.997516 155.82957  L 645.703354 156.172944  L 623.409193 156.479582  L 601.115031 156.653567  L 578.82087 156.884406  L 556.526708 157.158125  L 534.232547 157.270438  L 511.938385 157.652239  L 489.644224 157.93289  L 467.350062 158.347405  L 445.055901 158.755927  L 422.76174 159.230882  L 400.467578 159.735564  L 378.173417 160.289933  L 355.879255 160.921038  L 333.585094 161.733006  L 311.290932 162.483225  L 288.996771 163.434499  L 266.702609 164.344146  L 244.408448 165.235749  L 222.114286 166.566386  L 199.820125 167.904133  L 177.525964 169.12851  L 155.231802 170.431271  L 132.937641 171.407583  L 110.643479 171.982824  L 88.349318 173.510154  L 66.055156 176.32496  z " clip-path="url(#paa0903d4f0)" style="fill: #68bed8; fill-opacity: 0.219608"/>
   </g>
   <g id="line2d_29">
    <path d="M 66.055156 176.32496  L 88.349318 174.388332  L 110.643479 173.383479  L 132.937641 172.995883  L 155.231802 172.379954  L 177.525964 171.643567  L 199.820125 170.831886  L 222.114286 169.969794  L 244.408448 169.121979  L 266.702609 168.484551  L 288.996771 167.842948  L 311.290932 167.106123  L 333.585094 166.537924  L 355.879255 165.901878  L 378.173417 165.410362  L 400.467578 164.974214  L 422.76174 164.587027  L 445.055901 164.196918  L 467.350062 163.879784  L 489.644224 163.546717  L 511.938385 163.336292  L 534.232547 162.998539  L 556.526708 162.90862  L 578.82087 162.648121  L 601.115031 162.421551  L 623.409193 162.236545  L 645.703354 161.926529  L 667.997516 161.582076  L 690.291677 161.316464  L 712.585839 161.061743  L 734.88 160.740774  " clip-path="url(#paa0903d4f0)" style="fill: none; stroke: #000000; stroke-opacity: 0; stroke-width: 0.886227; stroke-linejoin: miter"/>
   </g>
   <g id="line2d_30">
    <path d="M 66.055156 176.32496  L 88.349318 173.510154  L 110.643479 171.982824  L 132.937641 171.407583  L 155.231802 170.431271  L 177.525964 169.12851  L 199.820125 167.904133  L 222.114286 166.566386  L 244.408448 165.235749  L 266.702609 164.344146  L 288.996771 163.434499  L 311.290932 162.483225  L 333.585094 161.733006  L 355.879255 160.921038  L 378.173417 160.289933  L 400.467578 159.735564  L 422.76174 159.230882  L 445.055901 158.755927  L 467.350062 158.347405  L 489.644224 157.93289  L 511.938385 157.652239  L 534.232547 157.270438  L 556.526708 157.158125  L 578.82087 156.884406  L 601.115031 156.653567  L 623.409193 156.479582  L 645.703354 156.172944  L 667.997516 155.82957  L 690.291677 155.57557  L 712.585839 155.335268  L 734.88 155.029003  " clip-path="url(#paa0903d4f0)" style="fill: none; stroke: #000000; stroke-opacity: 0; stroke-width: 0.886227; stroke-linejoin: miter"/>
   </g>
   <g id="FillBetweenPolyCollection_4">
    <path d="M 66.055156 176.32496  L 66.055156 176.32496  L 88.349318 176.32496  L 110.643479 176.32496  L 132.937641 176.32496  L 155.231802 176.32496  L 177.525964 176.32496  L 199.820125 176.32496  L 222.114286 176.32496  L 244.408448 176.32496  L 266.702609 176.32496  L 288.996771 176.32496  L 311.290932 176.32496  L 333.585094 176.32496  L 355.879255 176.32496  L 378.173417 176.32496  L 400.467578 176.32496  L 422.76174 176.32496  L 445.055901 176.32496  L 467.350062 176.32496  L 489.644224 176.32496  L 511.938385 176.32496  L 534.232547 176.32496  L 556.526708 176.32496  L 578.82087 176.32496  L 601.115031 176.32496  L 623.409193 176.32496  L 645.703354 176.32496  L 667.997516 176.32496  L 690.291677 176.32496  L 712.585839 176.32496  L 734.88 176.32496  L 734.88 160.740774  L 734.88 160.740774  L 712.585839 161.061743  L 690.291677 161.316464  L 667.997516 161.582076  L 645.703354 161.926529  L 623.409193 162.236545  L 601.115031 162.421551  L 578.82087 162.648121  L 556.526708 162.90862  L 534.232547 162.998539  L 511.938385 163.336292  L 489.644224 163.546717  L 467.350062 163.879784  L 445.055901 164.196918  L 422.76174 164.587027  L 400.467578 164.974214  L 378.173417 165.410362  L 355.879255 165.901878  L 333.585094 166.537924  L 311.290932 167.106123  L 288.996771 167.842948  L 266.702609 168.484551  L 244.408448 169.121979  L 222.114286 169.969794  L 199.820125 170.831886  L 177.525964 171.643567  L 155.231802 172.379954  L 132.937641 172.995883  L 110.643479 173.383479  L 88.349318 174.388332  L 66.055156 176.32496  z " clip-path="url(#paa0903d4f0)" style="fill: #999999; fill-opacity: 0.219608"/>
   </g>
   <g id="line2d_31">
    <path d="M 66.055156 176.32496  L 88.349318 176.32496  L 110.643479 176.32496  L 132.937641 176.32496  L 155.231802 176.32496  L 177.525964 176.32496  L 199.820125 176.32496  L 222.114286 176.32496  L 244.408448 176.32496  L 266.702609 176.32496  L 288.996771 176.32496  L 311.290932 176.32496  L 333.585094 176.32496  L 355.879255 176.32496  L 378.173417 176.32496  L 400.467578 176.32496  L 422.76174 176.32496  L 445.055901 176.32496  L 467.350062 176.32496  L 489.644224 176.32496  L 511.938385 176.32496  L 534.232547 176.32496  L 556.526708 176.32496  L 578.82087 176.32496  L 601.115031 176.32496  L 623.409193 176.32496  L 645.703354 176.32496  L 667.997516 176.32496  L 690.291677 176.32496  L 712.585839 176.32496  L 734.88 176.32496  " clip-path="url(#paa0903d4f0)" style="fill: none; stroke: #000000; stroke-opacity: 0; stroke-width: 0.886227; stroke-linejoin: miter"/>
   </g>
   <g id="line2d_32">
    <path d="M 66.055156 176.32496  L 88.349318 174.388332  L 110.643479 173.383479  L 132.937641 172.995883  L 155.231802 172.379954  L 177.525964 171.643567  L 199.820125 170.831886  L 222.114286 169.969794  L 244.408448 169.121979  L 266.702609 168.484551  L 288.996771 167.842948  L 311.290932 167.106123  L 333.585094 166.537924  L 355.879255 165.901878  L 378.173417 165.410362  L 400.467578 164.974214  L 422.76174 164.587027  L 445.055901 164.196918  L 467.350062 163.879784  L 489.644224 163.546717  L 511.938385 163.336292  L 534.232547 162.998539  L 556.526708 162.90862  L 578.82087 162.648121  L 601.115031 162.421551  L 623.409193 162.236545  L 645.703354 161.926529  L 667.997516 161.582076  L 690.291677 161.316464  L 712.585839 161.061743  L 734.88 160.740774  " clip-path="url(#paa0903d4f0)" style="fill: none; stroke: #000000; stroke-opacity: 0; stroke-width: 0.886227; stroke-linejoin: miter"/>
   </g>
   <g id="FillBetweenPolyCollection_5">
    <path d="M 66.055156 176.32496  L 66.055156 365.123168  L 88.349318 365.123168  L 110.643479 365.123168  L 132.937641 365.123168  L 155.231802 365.123168  L 177.525964 365.123168  L 199.820125 365.123168  L 222.114286 365.123168  L 244.408448 365.123168  L 266.702609 365.123168  L 288.996771 365.123168  L 311.290932 365.123168  L 333.585094 365.123168  L 355.879255 365.123168  L 378.173417 365.123168  L 400.467578 365.123168  L 422.76174 365.123168  L 445.055901 365.123168  L 467.350062 365.123168  L 489.644224 365.123168  L 511.938385 365.123168  L 534.232547 365.123168  L 556.526708 365.123168  L 578.82087 365.123168  L 601.115031 365.123168  L 623.409193 365.123168  L 645.703354 365.123168  L 667.997516 365.123168  L 690.291677 365.123168  L 712.585839 365.123168  L 734.88 365.123168  L 734.88 176.32496  L 734.88 176.32496  L 712.585839 176.32496  L 690.291677 176.32496  L 667.997516 176.32496  L 645.703354 176.32496  L 623.409193 176.32496  L 601.115031 176.32496  L 578.82087 176.32496  L 556.526708 176.32496  L 534.232547 176.32496  L 511.938385 176.32496  L 489.644224 176.32496  L 467.350062 176.32496  L 445.055901 176.32496  L 422.76174 176.32496  L 400.467578 176.32496  L 378.173417 176.32496  L 355.879255 176.32496  L 333.585094 176.32496  L 311.290932 176.32496  L 288.996771 176.32496  L 266.702609 176.32496  L 244.408448 176.32496  L 222.114286 176.32496  L 199.820125 176.32496  L 177.525964 176.32496  L 155.231802 176.32496  L 132.937641 176.32496  L 110.643479 176.32496  L 88.349318 176.32496  L 66.055156 176.32496  z " clip-path="url(#paa0903d4f0)" style="fill: #e0e0e0; fill-opacity: 0.219608"/>
   </g>
   <g id="line2d_33">
    <path d="M 66.055156 365.123168  L 88.349318 365.123168  L 110.643479 365.123168  L 132.937641 365.123168  L 155.231802 365.123168  L 177.525964 365.123168  L 199.820125 365.123168  L 222.114286 365.123168  L 244.408448 365.123168  L 266.702609 365.123168  L 288.996771 365.123168  L 311.290932 365.123168  L 333.585094 365.123168  L 355.879255 365.123168  L 378.173417 365.123168  L 400.467578 365.123168  L 422.76174 365.123168  L 445.055901 365.123168  L 467.350062 365.123168  L 489.644224 365.123168  L 511.938385 365.123168  L 534.232547 365.123168  L 556.526708 365.123168  L 578.82087 365.123168  L 601.115031 365.123168  L 623.409193 365.123168  L 645.703354 365.123168  L 667.997516 365.123168  L 690.291677 365.123168  L 712.585839 365.123168  L 734.88 365.123168  " clip-path="url(#paa0903d4f0)" style="fill: none; stroke: #000000; stroke-opacity: 0; stroke-width: 0.886227; stroke-linejoin: miter"/>
   </g>
   <g id="line2d_34">
    <path d="M 66.055156 176.32496  L 88.349318 176.32496  L 110.643479 176.32496  L 132.937641 176.32496  L 155.231802 176.32496  L 177.525964 176.32496  L 199.820125 176.32496  L 222.114286 176.32496  L 244.408448 176.32496  L 266.702609 176.32496  L 288.996771 176.32496  L 311.290932 176.32496  L 333.585094 176.32496  L 355.879255 176.32496  L 378.173417 176.32496  L 400.467578 176.32496  L 422.76174 176.32496  L 445.055901 176.32496  L 467.350062 176.32496  L 489.644224 176.32496  L 511.938385 176.32496  L 534.232547 176.32496  L 556.526708 176.32496  L 578.82087 176.32496  L 601.115031 176.32496  L 623.409193 176.32496  L 645.703354 176.32496  L 667.997516 176.32496  L 690.291677 176.32496  L 712.585839 176.32496  L 734.88 176.32496  " clip-path="url(#paa0903d4f0)" style="fill: none; stroke: #000000; stroke-opacity: 0; stroke-width: 0.886227; stroke-linejoin: miter"/>
   </g>
   <g id="FillBetweenPolyCollection_6">
    <path d="M 66.055156 219.944539  L 66.055156 219.944539  L 88.349318 216.384672  L 110.643479 214.82718  L 132.937641 212.841073  L 155.231802 210.768838  L 177.525964 208.180436  L 199.820125 205.792199  L 222.114286 203.276755  L 244.408448 200.625811  L 266.702609 198.354046  L 288.996771 195.712712  L 311.290932 192.75674  L 333.585094 189.584123  L 355.879255 186.46074  L 378.173417 183.37597  L 400.467578 180.335863  L 422.76174 177.744267  L 445.055901 175.158439  L 467.350062 172.330548  L 489.644224 170.323363  L 511.938385 168.163383  L 534.232547 166.217255  L 556.526708 164.322419  L 578.82087 163.101306  L 601.115031 162.452971  L 623.409193 161.728794  L 645.703354 161.196352  L 667.997516 160.914451  L 690.291677 160.750651  L 712.585839 160.724367  L 734.88 160.657558  L 734.88 65.167323  L 734.88 65.167323  L 712.585839 65.52727  L 690.291677 66.967059  L 667.997516 69.546679  L 645.703354 72.846193  L 623.409193 76.505654  L 601.115031 80.465072  L 578.82087 84.544471  L 556.526708 89.823694  L 534.232547 95.582846  L 511.938385 101.581963  L 489.644224 108.121  L 467.350062 115.019985  L 445.055901 122.938819  L 422.76174 130.67768  L 400.467578 138.596514  L 378.173417 147.475207  L 355.879255 156.173927  L 333.585094 164.932637  L 311.290932 173.031445  L 288.996771 180.050412  L 266.702609 185.329635  L 244.408448 189.888963  L 222.114286 194.508283  L 199.820125 198.767656  L 177.525964 202.667082  L 155.231802 206.686491  L 132.937641 210.045996  L 110.643479 213.165537  L 88.349318 215.585201  L 66.055156 219.944539  z " clip-path="url(#paa0903d4f0)" style="fill: #ffc729"/>
   </g>
   <g id="line2d_35">
    <path d="M 66.055156 219.944539  L 88.349318 216.384672  L 110.643479 214.82718  L 132.937641 212.841073  L 155.231802 210.768838  L 177.525964 208.180436  L 199.820125 205.792199  L 222.114286 203.276755  L 244.408448 200.625811  L 266.702609 198.354046  L 288.996771 195.712712  L 311.290932 192.75674  L 333.585094 189.584123  L 355.879255 186.46074  L 378.173417 183.37597  L 400.467578 180.335863  L 422.76174 177.744267  L 445.055901 175.158439  L 467.350062 172.330548  L 489.644224 170.323363  L 511.938385 168.163383  L 534.232547 166.217255  L 556.526708 164.322419  L 578.82087 163.101306  L 601.115031 162.452971  L 623.409193 161.728794  L 645.703354 161.196352  L 667.997516 160.914451  L 690.291677 160.750651  L 712.585839 160.724367  L 734.88 160.657558  " clip-path="url(#paa0903d4f0)" style="fill: none; stroke: #000000; stroke-opacity: 0; stroke-width: 0.886227; stroke-linejoin: miter"/>
   </g>
   <g id="line2d_36">
    <path d="M 66.055156 219.944539  L 88.349318 215.585201  L 110.643479 213.165537  L 132.937641 210.045996  L 155.231802 206.686491  L 177.525964 202.667082  L 199.820125 198.767656  L 222.114286 194.508283  L 244.408448 189.888963  L 266.702609 185.329635  L 288.996771 180.050412  L 311.290932 173.031445  L 333.585094 164.932637  L 355.879255 156.173927  L 378.173417 147.475207  L 400.467578 138.596514  L 422.76174 130.67768  L 445.055901 122.938819  L 467.350062 115.019985  L 489.644224 108.121  L 511.938385 101.581963  L 534.232547 95.582846  L 556.526708 89.823694  L 578.82087 84.544471  L 601.115031 80.465072  L 623.409193 76.505654  L 645.703354 72.846193  L 667.997516 69.546679  L 690.291677 66.967059  L 712.585839 65.52727  L 734.88 65.167323  " clip-path="url(#paa0903d4f0)" style="fill: none; stroke: #000000; stroke-opacity: 0; stroke-width: 0.886227; stroke-linejoin: miter"/>
   </g>
   <g id="FillBetweenPolyCollection_7">
    <path d="M 66.055156 219.944539  L 66.055156 219.944539  L 88.349318 217.512815  L 110.643479 216.413861  L 132.937641 215.109662  L 155.231802 213.843125  L 177.525964 212.31234  L 199.820125 211.303416  L 222.114286 210.293538  L 244.408448 209.294028  L 266.702609 208.68717  L 288.996771 208.09415  L 311.290932 207.504518  L 333.585094 206.851488  L 355.879255 206.294938  L 378.173417 205.788698  L 400.467578 205.37443  L 422.76174 205.094403  L 445.055901 204.871012  L 467.350062 204.496058  L 489.644224 204.339324  L 511.938385 204.160226  L 534.232547 204.002653  L 556.526708 203.861194  L 578.82087 203.79217  L 601.115031 203.73907  L 623.409193 203.640943  L 645.703354 203.616994  L 667.997516 203.649706  L 690.291677 203.574109  L 712.585839 203.593389  L 734.88 203.398725  L 734.88 160.657558  L 734.88 160.657558  L 712.585839 160.724367  L 690.291677 160.750651  L 667.997516 160.914451  L 645.703354 161.196352  L 623.409193 161.728794  L 601.115031 162.452971  L 578.82087 163.101306  L 556.526708 164.322419  L 534.232547 166.217255  L 511.938385 168.163383  L 489.644224 170.323363  L 467.350062 172.330548  L 445.055901 175.158439  L 422.76174 177.744267  L 400.467578 180.335863  L 378.173417 183.37597  L 355.879255 186.46074  L 333.585094 189.584123  L 311.290932 192.75674  L 288.996771 195.712712  L 266.702609 198.354046  L 244.408448 200.625811  L 222.114286 203.276755  L 199.820125 205.792199  L 177.525964 208.180436  L 155.231802 210.768838  L 132.937641 212.841073  L 110.643479 214.82718  L 88.349318 216.384672  L 66.055156 219.944539  z " clip-path="url(#paa0903d4f0)" style="fill: #fc9706"/>
   </g>
   <g id="line2d_37">
    <path d="M 66.055156 219.944539  L 88.349318 217.512815  L 110.643479 216.413861  L 132.937641 215.109662  L 155.231802 213.843125  L 177.525964 212.31234  L 199.820125 211.303416  L 222.114286 210.293538  L 244.408448 209.294028  L 266.702609 208.68717  L 288.996771 208.09415  L 311.290932 207.504518  L 333.585094 206.851488  L 355.879255 206.294938  L 378.173417 205.788698  L 400.467578 205.37443  L 422.76174 205.094403  L 445.055901 204.871012  L 467.350062 204.496058  L 489.644224 204.339324  L 511.938385 204.160226  L 534.232547 204.002653  L 556.526708 203.861194  L 578.82087 203.79217  L 601.115031 203.73907  L 623.409193 203.640943  L 645.703354 203.616994  L 667.997516 203.649706  L 690.291677 203.574109  L 712.585839 203.593389  L 734.88 203.398725  " clip-path="url(#paa0903d4f0)" style="fill: none; stroke: #000000; stroke-opacity: 0; stroke-width: 0.886227; stroke-linejoin: miter"/>
   </g>
   <g id="line2d_38">
    <path d="M 66.055156 219.944539  L 88.349318 216.384672  L 110.643479 214.82718  L 132.937641 212.841073  L 155.231802 210.768838  L 177.525964 208.180436  L 199.820125 205.792199  L 222.114286 203.276755  L 244.408448 200.625811  L 266.702609 198.354046  L 288.996771 195.712712  L 311.290932 192.75674  L 333.585094 189.584123  L 355.879255 186.46074  L 378.173417 183.37597  L 400.467578 180.335863  L 422.76174 177.744267  L 445.055901 175.158439  L 467.350062 172.330548  L 489.644224 170.323363  L 511.938385 168.163383  L 534.232547 166.217255  L 556.526708 164.322419  L 578.82087 163.101306  L 601.115031 162.452971  L 623.409193 161.728794  L 645.703354 161.196352  L 667.997516 160.914451  L 690.291677 160.750651  L 712.585839 160.724367  L 734.88 160.657558  " clip-path="url(#paa0903d4f0)" style="fill: none; stroke: #000000; stroke-opacity: 0; stroke-width: 0.886227; stroke-linejoin: miter"/>
   </g>
   <g id="FillBetweenPolyCollection_8">
    <path d="M 66.055156 219.944539  L 66.055156 219.944539  L 88.349318 219.944539  L 110.643479 219.779624  L 132.937641 219.429076  L 155.231802 219.213548  L 177.525964 218.864892  L 199.820125 218.624816  L 222.114286 218.390083  L 244.408448 218.131466  L 266.702609 217.894204  L 288.996771 217.682126  L 311.290932 217.459552  L 333.585094 217.175982  L 355.879255 216.952901  L 378.173417 216.712687  L 400.467578 216.515289  L 422.76174 216.381017  L 445.055901 216.275099  L 467.350062 216.012909  L 489.644224 215.924153  L 511.938385 215.806264  L 534.232547 215.686905  L 556.526708 215.57786  L 578.82087 215.530089  L 601.115031 215.47376  L 623.409193 215.376168  L 645.703354 215.347163  L 667.997516 215.369077  L 690.291677 215.271686  L 712.585839 215.245781  L 734.88 214.984291  L 734.88 203.398725  L 734.88 203.398725  L 712.585839 203.593389  L 690.291677 203.574109  L 667.997516 203.649706  L 645.703354 203.616994  L 623.409193 203.640943  L 601.115031 203.73907  L 578.82087 203.79217  L 556.526708 203.861194  L 534.232547 204.002653  L 511.938385 204.160226  L 489.644224 204.339324  L 467.350062 204.496058  L 445.055901 204.871012  L 422.76174 205.094403  L 400.467578 205.37443  L 378.173417 205.788698  L 355.879255 206.294938  L 333.585094 206.851488  L 311.290932 207.504518  L 288.996771 208.09415  L 266.702609 208.68717  L 244.408448 209.294028  L 222.114286 210.293538  L 199.820125 211.303416  L 177.525964 212.31234  L 155.231802 213.843125  L 132.937641 215.109662  L 110.643479 216.413861  L 88.349318 217.512815  L 66.055156 219.944539  z " clip-path="url(#paa0903d4f0)" style="fill: #68bed8"/>
   </g>
   <g id="line2d_39">
    <path d="M 66.055156 219.944539  L 88.349318 219.944539  L 110.643479 219.779624  L 132.937641 219.429076  L 155.231802 219.213548  L 177.525964 218.864892  L 199.820125 218.624816  L 222.114286 218.390083  L 244.408448 218.131466  L 266.702609 217.894204  L 288.996771 217.682126  L 311.290932 217.459552  L 333.585094 217.175982  L 355.879255 216.952901  L 378.173417 216.712687  L 400.467578 216.515289  L 422.76174 216.381017  L 445.055901 216.275099  L 467.350062 216.012909  L 489.644224 215.924153  L 511.938385 215.806264  L 534.232547 215.686905  L 556.526708 215.57786  L 578.82087 215.530089  L 601.115031 215.47376  L 623.409193 215.376168  L 645.703354 215.347163  L 667.997516 215.369077  L 690.291677 215.271686  L 712.585839 215.245781  L 734.88 214.984291  " clip-path="url(#paa0903d4f0)" style="fill: none; stroke: #000000; stroke-opacity: 0; stroke-width: 0.886227; stroke-linejoin: miter"/>
   </g>
   <g id="line2d_40">
    <path d="M 66.055156 219.944539  L 88.349318 217.512815  L 110.643479 216.413861  L 132.937641 215.109662  L 155.231802 213.843125  L 177.525964 212.31234  L 199.820125 211.303416  L 222.114286 210.293538  L 244.408448 209.294028  L 266.702609 208.68717  L 288.996771 208.09415  L 311.290932 207.504518  L 333.585094 206.851488  L 355.879255 206.294938  L 378.173417 205.788698  L 400.467578 205.37443  L 422.76174 205.094403  L 445.055901 204.871012  L 467.350062 204.496058  L 489.644224 204.339324  L 511.938385 204.160226  L 534.232547 204.002653  L 556.526708 203.861194  L 578.82087 203.79217  L 601.115031 203.73907  L 623.409193 203.640943  L 645.703354 203.616994  L 667.997516 203.649706  L 690.291677 203.574109  L 712.585839 203.593389  L 734.88 203.398725  " clip-path="url(#paa0903d4f0)" style="fill: none; stroke: #000000; stroke-opacity: 0; stroke-width: 0.886227; stroke-linejoin: miter"/>
   </g>
   <g id="FillBetweenPolyCollection_9">
    <path d="M 66.055156 219.944539  L 66.055156 219.944539  L 88.349318 219.944539  L 110.643479 219.944539  L 132.937641 219.944539  L 155.231802 219.944539  L 177.525964 219.944539  L 199.820125 219.944539  L 222.114286 219.944539  L 244.408448 219.944539  L 266.702609 219.944539  L 288.996771 219.944539  L 311.290932 219.944539  L 333.585094 219.944539  L 355.879255 219.944539  L 378.173417 219.944539  L 400.467578 219.944539  L 422.76174 219.944539  L 445.055901 219.944539  L 467.350062 219.944539  L 489.644224 219.944539  L 511.938385 219.944539  L 534.232547 219.944539  L 556.526708 219.944539  L 578.82087 219.944539  L 601.115031 219.944539  L 623.409193 219.944539  L 645.703354 219.944539  L 667.997516 219.944539  L 690.291677 219.944539  L 712.585839 219.944539  L 734.88 219.944539  L 734.88 214.984291  L 734.88 214.984291  L 712.585839 215.245781  L 690.291677 215.271686  L 667.997516 215.369077  L 645.703354 215.347163  L 623.409193 215.376168  L 601.115031 215.47376  L 578.82087 215.530089  L 556.526708 215.57786  L 534.232547 215.686905  L 511.938385 215.806264  L 489.644224 215.924153  L 467.350062 216.012909  L 445.055901 216.275099  L 422.76174 216.381017  L 400.467578 216.515289  L 378.173417 216.712687  L 355.879255 216.952901  L 333.585094 217.175982  L 311.290932 217.459552  L 288.996771 217.682126  L 266.702609 217.894204  L 244.408448 218.131466  L 222.114286 218.390083  L 199.820125 218.624816  L 177.525964 218.864892  L 155.231802 219.213548  L 132.937641 219.429076  L 110.643479 219.779624  L 88.349318 219.944539  L 66.055156 219.944539  z " clip-path="url(#paa0903d4f0)" style="fill: #999999"/>
   </g>
   <g id="line2d_41">
    <path d="M 66.055156 219.944539  L 88.349318 219.944539  L 110.643479 219.944539  L 132.937641 219.944539  L 155.231802 219.944539  L 177.525964 219.944539  L 199.820125 219.944539  L 222.114286 219.944539  L 244.408448 219.944539  L 266.702609 219.944539  L 288.996771 219.944539  L 311.290932 219.944539  L 333.585094 219.944539  L 355.879255 219.944539  L 378.173417 219.944539  L 400.467578 219.944539  L 422.76174 219.944539  L 445.055901 219.944539  L 467.350062 219.944539  L 489.644224 219.944539  L 511.938385 219.944539  L 534.232547 219.944539  L 556.526708 219.944539  L 578.82087 219.944539  L 601.115031 219.944539  L 623.409193 219.944539  L 645.703354 219.944539  L 667.997516 219.944539  L 690.291677 219.944539  L 712.585839 219.944539  L 734.88 219.944539  " clip-path="url(#paa0903d4f0)" style="fill: none; stroke: #000000; stroke-opacity: 0; stroke-width: 0.886227; stroke-linejoin: miter"/>
   </g>
   <g id="line2d_42">
    <path d="M 66.055156 219.944539  L 88.349318 219.944539  L 110.643479 219.779624  L 132.937641 219.429076  L 155.231802 219.213548  L 177.525964 218.864892  L 199.820125 218.624816  L 222.114286 218.390083  L 244.408448 218.131466  L 266.702609 217.894204  L 288.996771 217.682126  L 311.290932 217.459552  L 333.585094 217.175982  L 355.879255 216.952901  L 378.173417 216.712687  L 400.467578 216.515289  L 422.76174 216.381017  L 445.055901 216.275099  L 467.350062 216.012909  L 489.644224 215.924153  L 511.938385 215.806264  L 534.232547 215.686905  L 556.526708 215.57786  L 578.82087 215.530089  L 601.115031 215.47376  L 623.409193 215.376168  L 645.703354 215.347163  L 667.997516 215.369077  L 690.291677 215.271686  L 712.585839 215.245781  L 734.88 214.984291  " clip-path="url(#paa0903d4f0)" style="fill: none; stroke: #000000; stroke-opacity: 0; stroke-width: 0.886227; stroke-linejoin: miter"/>
   </g>
   <g id="FillBetweenPolyCollection_10">
    <path d="M 66.055156 219.944539  L 66.055156 365.123168  L 88.349318 365.123168  L 110.643479 365.123168  L 132.937641 365.123168  L 155.231802 365.123168  L 177.525964 365.123168  L 199.820125 365.123168  L 222.114286 365.123168  L 244.408448 365.123168  L 266.702609 365.123168  L 288.996771 365.123168  L 311.290932 365.123168  L 333.585094 365.123168  L 355.879255 365.123168  L 378.173417 365.123168  L 400.467578 365.123168  L 422.76174 365.123168  L 445.055901 365.123168  L 467.350062 365.123168  L 489.644224 365.123168  L 511.938385 365.123168  L 534.232547 365.123168  L 556.526708 365.123168  L 578.82087 365.123168  L 601.115031 365.123168  L 623.409193 365.123168  L 645.703354 365.123168  L 667.997516 365.123168  L 690.291677 365.123168  L 712.585839 365.123168  L 734.88 365.123168  L 734.88 219.944539  L 734.88 219.944539  L 712.585839 219.944539  L 690.291677 219.944539  L 667.997516 219.944539  L 645.703354 219.944539  L 623.409193 219.944539  L 601.115031 219.944539  L 578.82087 219.944539  L 556.526708 219.944539  L 534.232547 219.944539  L 511.938385 219.944539  L 489.644224 219.944539  L 467.350062 219.944539  L 445.055901 219.944539  L 422.76174 219.944539  L 400.467578 219.944539  L 378.173417 219.944539  L 355.879255 219.944539  L 333.585094 219.944539  L 311.290932 219.944539  L 288.996771 219.944539  L 266.702609 219.944539  L 244.408448 219.944539  L 222.114286 219.944539  L 199.820125 219.944539  L 177.525964 219.944539  L 155.231802 219.944539  L 132.937641 219.944539  L 110.643479 219.944539  L 88.349318 219.944539  L 66.055156 219.944539  z " clip-path="url(#paa0903d4f0)" style="fill: #e0e0e0"/>
   </g>
   <g id="line2d_43">
    <path d="M 66.055156 365.123168  L 88.349318 365.123168  L 110.643479 365.123168  L 132.937641 365.123168  L 155.231802 365.123168  L 177.525964 365.123168  L 199.820125 365.123168  L 222.114286 365.123168  L 244.408448 365.123168  L 266.702609 365.123168  L 288.996771 365.123168  L 311.290932 365.123168  L 333.585094 365.123168  L 355.879255 365.123168  L 378.173417 365.123168  L 400.467578 365.123168  L 422.76174 365.123168  L 445.055901 365.123168  L 467.350062 365.123168  L 489.644224 365.123168  L 511.938385 365.123168  L 534.232547 365.123168  L 556.526708 365.123168  L 578.82087 365.123168  L 601.115031 365.123168  L 623.409193 365.123168  L 645.703354 365.123168  L 667.997516 365.123168  L 690.291677 365.123168  L 712.585839 365.123168  L 734.88 365.123168  " clip-path="url(#paa0903d4f0)" style="fill: none; stroke: #000000; stroke-opacity: 0; stroke-width: 0.886227; stroke-linejoin: miter"/>
   </g>
   <g id="line2d_44">
    <path d="M 66.055156 219.944539  L 88.349318 219.944539  L 110.643479 219.944539  L 132.937641 219.944539  L 155.231802 219.944539  L 177.525964 219.944539  L 199.820125 219.944539  L 222.114286 219.944539  L 244.408448 219.944539  L 266.702609 219.944539  L 288.996771 219.944539  L 311.290932 219.944539  L 333.585094 219.944539  L 355.879255 219.944539  L 378.173417 219.944539  L 400.467578 219.944539  L 422.76174 219.944539  L 445.055901 219.944539  L 467.350062 219.944539  L 489.644224 219.944539  L 511.938385 219.944539  L 534.232547 219.944539  L 556.526708 219.944539  L 578.82087 219.944539  L 601.115031 219.944539  L 623.409193 219.944539  L 645.703354 219.944539  L 667.997516 219.944539  L 690.291677 219.944539  L 712.585839 219.944539  L 734.88 219.944539  " clip-path="url(#paa0903d4f0)" style="fill: none; stroke: #000000; stroke-opacity: 0; stroke-width: 0.886227; stroke-linejoin: miter"/>
   </g>
   <g id="line2d_45">
    <path d="M 734.88 292.533853  L 752.715329 292.533853  " style="fill: none; stroke: #e0e0e0; stroke-linecap: round"/>
   </g>
   <g id="line2d_46">
    <path d="M 752.715329 292.533853  L 761.632994 292.533853  " style="fill: none; stroke: #e0e0e0; stroke-linecap: round"/>
   </g>
   <g id="line2d_47">
    <path d="M 734.88 217.464415  L 752.715329 217.464415  " style="fill: none; stroke: #999999; stroke-linecap: round"/>
   </g>
   <g id="line2d_48">
    <path d="M 752.715329 217.464415  L 761.632994 217.464415  " style="fill: none; stroke: #999999; stroke-linecap: round"/>
   </g>
   <g id="line2d_49">
    <path d="M 734.88 209.191508  L 752.715329 208.645713  " style="fill: none; stroke: #68bed8; stroke-linecap: round"/>
   </g>
   <g id="line2d_50">
    <path d="M 752.715329 208.645713  L 761.632994 208.645713  " style="fill: none; stroke: #68bed8; stroke-linecap: round"/>
   </g>
   <g id="line2d_51">
    <path d="M 734.88 182.028142  L 752.715329 182.028142  " style="fill: none; stroke: #fc9706; stroke-linecap: round"/>
   </g>
   <g id="line2d_52">
    <path d="M 752.715329 182.028142  L 761.632994 182.028142  " style="fill: none; stroke: #fc9706; stroke-linecap: round"/>
   </g>
   <g id="line2d_53">
    <path d="M 734.88 112.912441  L 752.715329 112.912441  " style="fill: none; stroke: #ffc729; stroke-linecap: round"/>
   </g>
   <g id="line2d_54">
    <path d="M 752.715329 112.912441  L 761.632994 112.912441  " style="fill: none; stroke: #ffc729; stroke-linecap: round"/>
   </g>
   <g id="LineCollection_1">
    <path d="M 369.06189 365.123168  L 369.06189 50.169531  " clip-path="url(#paa0903d4f0)" style="fill: none; stroke-dasharray: 3.27904,1.417963; stroke-dashoffset: 0; stroke: #a0af12; stroke-width: 0.886227"/>
   </g>
   <g id="text_13">
    <text style="font-weight: 700; font-size: 9px; font-family: 'IBM Plex Sans'; text-anchor: start; fill: #e0e0e0" x="768.321242" y="294.963853" transform="rotate(-0 768.321242 294.963853)">Base (2025 level)</text>
   </g>
   <g id="text_14">
    <text style="font-weight: 700; font-size: 9px; font-family: 'IBM Plex Sans'; text-anchor: start; fill: #999999" x="768.321242" y="219.881056" transform="rotate(-0 768.321242 219.881056)">Organic growth</text>
   </g>
   <g id="text_15">
    <text style="font-weight: 700; font-size: 9px; font-family: 'IBM Plex Sans'; text-anchor: start; fill: #68bed8" x="768.321242" y="211.021573" transform="rotate(-0 768.321242 211.021573)">Large loads</text>
   </g>
   <g id="text_16">
    <text style="font-weight: 700; font-size: 9px; font-family: 'IBM Plex Sans'; text-anchor: start; fill: #fc9706" x="768.321242" y="184.458142" transform="rotate(-0 768.321242 184.458142)">EV load</text>
   </g>
   <g id="text_17">
    <text style="font-weight: 700; font-size: 9px; font-family: 'IBM Plex Sans'; text-anchor: start; fill: #ffc729" x="768.321242" y="115.329082" transform="rotate(-0 768.321242 115.329082)">Building electrification</text>
   </g>
   <g id="text_18">
    <g clip-path="url(#paa0903d4f0)">
     <text style="font-size: 9px; font-family: 'IBM Plex Sans'; text-anchor: end; fill: #a0af12" x="364.603058" y="58.898604" transform="rotate(-0 364.603058 58.898604)">Crossover</text>
    </g>
   </g>
   <g id="line2d_55">
    <path d="M 369.06189 151.030336  L 378.173417 150.294792  L 400.467578 148.555048  L 422.76174 146.755313  L 445.055901 145.255534  L 467.350062 143.635772  L 489.644224 142.135993  L 511.938385 140.756196  L 534.232547 139.616364  L 556.526708 138.716496  L 578.82087 137.936611  L 601.115031 137.276708  L 623.409193 136.796779  L 645.703354 136.256859  L 667.997516 135.716938  L 690.291677 135.297  L 712.585839 134.937053  L 734.88 134.577106  " clip-path="url(#paa0903d4f0)" style="fill: none; stroke-dasharray: 0.35,1.25; stroke-dashoffset: 0; stroke: #999999"/>
   </g>
   <g id="patch_3">
    <path d="M 66.055156 365.123168  L 734.88 365.123168  " style="fill: none; stroke: #000000; stroke-width: 0.5; stroke-linejoin: miter; stroke-linecap: square"/>
   </g>
  </g>
  <g id="text_19">
   <text style="font-size: 13px; font-family: 'GT Planar'; fill: #333333" transform="translate(17.522813 254.14674) rotate(-90)">Net peak (MW)</text>
  </g>
  <g id="text_20">
   <text style="font-weight: 700; font-size: 15px; font-family: 'GT Planar'; text-anchor: start" x="66.05625" y="17.939062" transform="rotate(-0 66.05625 17.939062)">NYISO forecasted to become winter peaking in </text>
  </g>
  <g id="text_21">
   <text style="font-weight: 700; font-size: 15px; font-family: 'GT Planar'; text-anchor: start; fill: #a0af12" x="403.74375" y="17.819531" transform="rotate(-0 403.74375 17.819531)">2039</text>
  </g>
  <g id="text_22">
   <text style="font-size: 13px; font-family: 'GT Planar'; text-anchor: start; fill: #ffc729" x="66.05625" y="34.521531" transform="rotate(-0 66.05625 34.521531)">Building electrification</text>
  </g>
  <g id="text_23">
   <text style="font-size: 13px; font-family: 'GT Planar'; text-anchor: start; fill: #333333" x="206.49375" y="34.521531" transform="rotate(-0 206.49375 34.521531)">accounts for</text>
  </g>
  <g id="text_24">
   <text style="font-size: 13px; font-family: 'GT Planar'; text-anchor: start; fill: #333333" x="285.80625" y="34.521531" transform="rotate(-0 285.80625 34.521531)">72%</text>
  </g>
  <g id="text_25">
   <text style="font-size: 13px; font-family: 'GT Planar'; text-anchor: start; fill: #333333" x="313.93125" y="34.521531" transform="rotate(-0 313.93125 34.521531)">after the transition</text>
  </g>
 </g>
 <defs>
  <clipPath id="paa0903d4f0">
   <rect x="66.055156" y="50.169531" width="668.824844" height="314.953636"/>
  </clipPath>
 </defs>
</svg>
