<?xml version="1.0" encoding="utf-8" standalone="no"?>
<!DOCTYPE svg PUBLIC "-//W3C//DTD SVG 1.1//EN"
  "http://www.w3.org/Graphics/SVG/1.1/DTD/svg11.dtd">
<svg xmlns:xlink="http://www.w3.org/1999/xlink" width="756pt" height="396pt" viewBox="0 0 756 396" xmlns="http://www.w3.org/2000/svg" version="1.1">
 <metadata>
  <rdf:RDF xmlns:dc="http://purl.org/dc/elements/1.1/" xmlns:cc="http://creativecommons.org/ns#" xmlns:rdf="http://www.w3.org/1999/02/22-rdf-syntax-ns#">
   <cc:Work>
    <dc:type rdf:resource="http://purl.org/dc/dcmitype/StillImage"/>
    <dc:date>2026-04-29T16:06:08.564905</dc:date>
    <dc:format>image/svg+xml</dc:format>
    <dc:creator>
     <cc:Agent>
      <dc:title>Matplotlib v3.10.8, https://matplotlib.org/</dc:title>
     </cc:Agent>
    </dc:creator>
   </cc:Work>
  </rdf:RDF>
 </metadata>
 <defs>
  <style type="text/css">*{stroke-linejoin: round; stroke-linecap: butt}</style>
 </defs>
 <g id="figure_1">
  <g id="patch_1">
   <path d="M 0 396
L 756 396
L 756 0
L 0 0
z
" style="fill: #ffffff"/>
  </g>
  <g id="axes_1">
   <g id="patch_2">
    <path d="M 66.415156 346.437273
L 735.24 346.437273
L 735.24 65.74554
L 66.415156 65.74554
z
" style="fill: #ffffff"/>
   </g>
   <g id="matplotlib.axis_1">
    <g id="xtick_1">
     <g id="line2d_1">
      <path d="M 66.415156 346.437273
" style="fill: none; stroke: #000000; stroke-width: 1.5; stroke-linecap: square"/>
      <defs>
       <path id="m9396229431" d="M 0 0
L 0 2.75
" style="stroke: #000000"/>
      </defs>
      <g>
       <use xlink:href="#m9396229431" x="66.415156" y="346.437273" style="stroke: #000000"/>
      </g>
     </g>
     <g id="text_1">
      <text style="font-size: 11px; font-family: 'IBM Plex Sans'; text-anchor: middle; fill: #4d4d4d" x="66.415156" y="359.527273" transform="rotate(-0 66.415156 359.527273)">2025</text>
     </g>
    </g>
    <g id="xtick_2">
     <g id="line2d_2">
      <path d="M 177.885964 346.437273
" style="fill: none; stroke: #000000; stroke-width: 1.5; stroke-linecap: square"/>
      <g>
       <use xlink:href="#m9396229431" x="177.885964" y="346.437273" style="stroke: #000000"/>
      </g>
     </g>
     <g id="text_2">
      <text style="font-size: 11px; font-family: 'IBM Plex Sans'; text-anchor: middle; fill: #4d4d4d" x="177.885964" y="359.527273" transform="rotate(-0 177.885964 359.527273)">2030</text>
     </g>
    </g>
    <g id="xtick_3">
     <g id="line2d_3">
      <path d="M 289.356771 346.437273
" style="fill: none; stroke: #000000; stroke-width: 1.5; stroke-linecap: square"/>
      <g>
       <use xlink:href="#m9396229431" x="289.356771" y="346.437273" style="stroke: #000000"/>
      </g>
     </g>
     <g id="text_3">
      <text style="font-size: 11px; font-family: 'IBM Plex Sans'; text-anchor: middle; fill: #4d4d4d" x="289.356771" y="359.527273" transform="rotate(-0 289.356771 359.527273)">2035</text>
     </g>
    </g>
    <g id="xtick_4">
     <g id="line2d_4">
      <path d="M 400.827578 346.437273
" style="fill: none; stroke: #000000; stroke-width: 1.5; stroke-linecap: square"/>
      <g>
       <use xlink:href="#m9396229431" x="400.827578" y="346.437273" style="stroke: #000000"/>
      </g>
     </g>
     <g id="text_4">
      <text style="font-size: 11px; font-family: 'IBM Plex Sans'; text-anchor: middle; fill: #4d4d4d" x="400.827578" y="359.527273" transform="rotate(-0 400.827578 359.527273)">2040</text>
     </g>
    </g>
    <g id="xtick_5">
     <g id="line2d_5">
      <path d="M 512.298385 346.437273
" style="fill: none; stroke: #000000; stroke-width: 1.5; stroke-linecap: square"/>
      <g>
       <use xlink:href="#m9396229431" x="512.298385" y="346.437273" style="stroke: #000000"/>
      </g>
     </g>
     <g id="text_5">
      <text style="font-size: 11px; font-family: 'IBM Plex Sans'; text-anchor: middle; fill: #4d4d4d" x="512.298385" y="359.527273" transform="rotate(-0 512.298385 359.527273)">2045</text>
     </g>
    </g>
    <g id="xtick_6">
     <g id="line2d_6">
      <path d="M 623.769193 346.437273
" style="fill: none; stroke: #000000; stroke-width: 1.5; stroke-linecap: square"/>
      <g>
       <use xlink:href="#m9396229431" x="623.769193" y="346.437273" style="stroke: #000000"/>
      </g>
     </g>
     <g id="text_6">
      <text style="font-size: 11px; font-family: 'IBM Plex Sans'; text-anchor: middle; fill: #4d4d4d" x="623.769193" y="359.527273" transform="rotate(-0 623.769193 359.527273)">2050</text>
     </g>
    </g>
    <g id="xtick_7">
     <g id="line2d_7">
      <path d="M 735.24 346.437273
" style="fill: none; stroke: #000000; stroke-width: 1.5; stroke-linecap: square"/>
      <g>
       <use xlink:href="#m9396229431" x="735.24" y="346.437273" style="stroke: #000000"/>
      </g>
     </g>
     <g id="text_7">
      <text style="font-size: 11px; font-family: 'IBM Plex Sans'; text-anchor: middle; fill: #4d4d4d" x="735.24" y="359.527273" transform="rotate(-0 735.24 359.527273)">2055</text>
     </g>
    </g>
    <g id="xtick_8">
     <g id="line2d_8">
      <path d="M 122.15056 346.437273
" style="fill: none; stroke: #000000; stroke-width: 1.5; stroke-linecap: square"/>
      <defs>
       <path id="m22b1c5e019" d="M 0 0
L 0 1.375
" style="stroke: #000000"/>
      </defs>
      <g>
       <use xlink:href="#m22b1c5e019" x="122.15056" y="346.437273" style="stroke: #000000"/>
      </g>
     </g>
    </g>
    <g id="xtick_9">
     <g id="line2d_9">
      <path d="M 233.621367 346.437273
" style="fill: none; stroke: #000000; stroke-width: 1.5; stroke-linecap: square"/>
      <g>
       <use xlink:href="#m22b1c5e019" x="233.621367" y="346.437273" style="stroke: #000000"/>
      </g>
     </g>
    </g>
    <g id="xtick_10">
     <g id="line2d_10">
      <path d="M 345.092174 346.437273
" style="fill: none; stroke: #000000; stroke-width: 1.5; stroke-linecap: square"/>
      <g>
       <use xlink:href="#m22b1c5e019" x="345.092174" y="346.437273" style="stroke: #000000"/>
      </g>
     </g>
    </g>
    <g id="xtick_11">
     <g id="line2d_11">
      <path d="M 456.562982 346.437273
" style="fill: none; stroke: #000000; stroke-width: 1.5; stroke-linecap: square"/>
      <g>
       <use xlink:href="#m22b1c5e019" x="456.562982" y="346.437273" style="stroke: #000000"/>
      </g>
     </g>
    </g>
    <g id="xtick_12">
     <g id="line2d_12">
      <path d="M 568.033789 346.437273
" style="fill: none; stroke: #000000; stroke-width: 1.5; stroke-linecap: square"/>
      <g>
       <use xlink:href="#m22b1c5e019" x="568.033789" y="346.437273" style="stroke: #000000"/>
      </g>
     </g>
    </g>
    <g id="xtick_13">
     <g id="line2d_13">
      <path d="M 679.504596 346.437273
" style="fill: none; stroke: #000000; stroke-width: 1.5; stroke-linecap: square"/>
      <g>
       <use xlink:href="#m22b1c5e019" x="679.504596" y="346.437273" style="stroke: #000000"/>
      </g>
     </g>
    </g>
   </g>
   <g id="matplotlib.axis_2">
    <g id="ytick_1">
     <g id="line2d_14">
      <path d="M 66.415156 346.437273
L 735.24 346.437273
" clip-path="url(#p985a7baf4f)" style="fill: none; stroke: #e5e5e5; stroke-linecap: square"/>
     </g>
    </g>
    <g id="ytick_2">
     <g id="line2d_15">
      <path d="M 66.415156 292.972181
L 735.24 292.972181
" clip-path="url(#p985a7baf4f)" style="fill: none; stroke: #e5e5e5; stroke-linecap: square"/>
     </g>
     <g id="text_8">
      <text style="font-size: 11px; font-family: 'IBM Plex Sans'; text-anchor: start; fill: #4d4d4d" x="28.222812" y="297.042181" transform="rotate(-0 28.222812 297.042181)">10,000</text>
     </g>
    </g>
    <g id="ytick_3">
     <g id="line2d_16">
      <path d="M 66.415156 239.507089
L 735.24 239.507089
" clip-path="url(#p985a7baf4f)" style="fill: none; stroke: #e5e5e5; stroke-linecap: square"/>
     </g>
     <g id="text_9">
      <text style="font-size: 11px; font-family: 'IBM Plex Sans'; text-anchor: start; fill: #4d4d4d" x="28.222812" y="243.577089" transform="rotate(-0 28.222812 243.577089)">20,000</text>
     </g>
    </g>
    <g id="ytick_4">
     <g id="line2d_17">
      <path d="M 66.415156 186.041997
L 735.24 186.041997
" clip-path="url(#p985a7baf4f)" style="fill: none; stroke: #e5e5e5; stroke-linecap: square"/>
     </g>
     <g id="text_10">
      <text style="font-size: 11px; font-family: 'IBM Plex Sans'; text-anchor: start; fill: #4d4d4d" x="28.222812" y="190.111997" transform="rotate(-0 28.222812 190.111997)">30,000</text>
     </g>
    </g>
    <g id="ytick_5">
     <g id="line2d_18">
      <path d="M 66.415156 132.576905
L 735.24 132.576905
" clip-path="url(#p985a7baf4f)" style="fill: none; stroke: #e5e5e5; stroke-linecap: square"/>
     </g>
     <g id="text_11">
      <text style="font-size: 11px; font-family: 'IBM Plex Sans'; text-anchor: start; fill: #4d4d4d" x="28.222812" y="136.646905" transform="rotate(-0 28.222812 136.646905)">40,000</text>
     </g>
    </g>
    <g id="ytick_6">
     <g id="line2d_19">
      <path d="M 66.415156 79.111813
L 735.24 79.111813
" clip-path="url(#p985a7baf4f)" style="fill: none; stroke: #e5e5e5; stroke-linecap: square"/>
     </g>
     <g id="text_12">
      <text style="font-size: 11px; font-family: 'IBM Plex Sans'; text-anchor: start; fill: #4d4d4d" x="28.222812" y="83.181813" transform="rotate(-0 28.222812 83.181813)">50,000</text>
     </g>
    </g>
    <g id="ytick_7">
     <g id="line2d_20">
      <path d="M 66.415156 319.704727
L 735.24 319.704727
" clip-path="url(#p985a7baf4f)" style="fill: none; stroke: #fafafa; stroke-width: 0.5; stroke-linecap: square"/>
     </g>
    </g>
    <g id="ytick_8">
     <g id="line2d_21">
      <path d="M 66.415156 266.239635
L 735.24 266.239635
" clip-path="url(#p985a7baf4f)" style="fill: none; stroke: #fafafa; stroke-width: 0.5; stroke-linecap: square"/>
     </g>
    </g>
    <g id="ytick_9">
     <g id="line2d_22">
      <path d="M 66.415156 212.774543
L 735.24 212.774543
" clip-path="url(#p985a7baf4f)" style="fill: none; stroke: #fafafa; stroke-width: 0.5; stroke-linecap: square"/>
     </g>
    </g>
    <g id="ytick_10">
     <g id="line2d_23">
      <path d="M 66.415156 159.309451
L 735.24 159.309451
" clip-path="url(#p985a7baf4f)" style="fill: none; stroke: #fafafa; stroke-width: 0.5; stroke-linecap: square"/>
     </g>
    </g>
    <g id="ytick_11">
     <g id="line2d_24">
      <path d="M 66.415156 105.844359
L 735.24 105.844359
" clip-path="url(#p985a7baf4f)" style="fill: none; stroke: #fafafa; stroke-width: 0.5; stroke-linecap: square"/>
     </g>
    </g>
   </g>
   <g id="FillBetweenPolyCollection_1">
    <path d="M 66.415156 217.05175
L 66.415156 217.677601
L 88.709318 215.036825
L 111.003479 214.356496
L 133.297641 213.272728
L 155.591802 212.05051
L 177.885964 210.276676
L 200.180125 208.670371
L 222.474286 206.921126
L 244.768448 205.022366
L 267.062609 203.548791
L 289.356771 201.692835
L 311.650932 199.68249
L 333.945094 197.441346
L 356.239255 195.203588
L 378.533417 192.899057
L 400.827578 190.587334
L 423.12174 188.635888
L 445.415901 186.642856
L 467.710062 184.354582
L 490.004224 182.873522
L 512.298385 181.168438
L 534.592547 179.664589
L 556.886708 178.184484
L 579.18087 177.368583
L 601.475031 177.090783
L 623.769193 176.703424
L 646.063354 176.49644
L 668.357516 176.527696
L 690.651677 176.651571
L 712.945839 176.899141
L 735.24 177.089894
L 735.24 79.111813
L 735.24 79.111813
L 712.945839 79.432603
L 690.651677 80.715766
L 668.357516 83.014764
L 646.063354 85.955345
L 623.769193 89.216715
L 601.475031 92.745411
L 579.18087 96.381037
L 556.886708 101.085966
L 534.592547 106.218614
L 512.298385 111.565124
L 490.004224 117.392819
L 467.710062 123.541304
L 445.415901 130.598696
L 423.12174 137.495693
L 400.827578 144.553085
L 378.533417 152.465919
L 356.239255 160.218357
L 333.945094 168.024261
L 311.650932 175.242048
L 289.356771 181.497464
L 267.062609 186.202392
L 244.768448 190.265739
L 222.474286 194.382551
L 200.180125 198.178573
L 177.885964 201.653804
L 155.591802 205.235965
L 133.297641 208.23001
L 111.003479 211.010195
L 88.709318 213.202263
L 66.415156 217.05175
z
" clip-path="url(#p985a7baf4f)" style="fill: #68bed8; fill-opacity: 0.25098"/>
   </g>
   <g id="line2d_25">
    <path d="M 66.415156 217.677601
L 88.709318 215.036825
L 111.003479 214.356496
L 133.297641 213.272728
L 155.591802 212.05051
L 177.885964 210.276676
L 200.180125 208.670371
L 222.474286 206.921126
L 244.768448 205.022366
L 267.062609 203.548791
L 289.356771 201.692835
L 311.650932 199.68249
L 333.945094 197.441346
L 356.239255 195.203588
L 378.533417 192.899057
L 400.827578 190.587334
L 423.12174 188.635888
L 445.415901 186.642856
L 467.710062 184.354582
L 490.004224 182.873522
L 512.298385 181.168438
L 534.592547 179.664589
L 556.886708 178.184484
L 579.18087 177.368583
L 601.475031 177.090783
L 623.769193 176.703424
L 646.063354 176.49644
L 668.357516 176.527696
L 690.651677 176.651571
L 712.945839 176.899141
L 735.24 177.089894
" clip-path="url(#p985a7baf4f)" style="fill: none; stroke: #000000; stroke-opacity: 0; stroke-width: 0.886227; stroke-linejoin: miter"/>
   </g>
   <g id="line2d_26">
    <path d="M 66.415156 217.05175
L 88.709318 213.202263
L 111.003479 211.010195
L 133.297641 208.23001
L 155.591802 205.235965
L 177.885964 201.653804
L 200.180125 198.178573
L 222.474286 194.382551
L 244.768448 190.265739
L 267.062609 186.202392
L 289.356771 181.497464
L 311.650932 175.242048
L 333.945094 168.024261
L 356.239255 160.218357
L 378.533417 152.465919
L 400.827578 144.553085
L 423.12174 137.495693
L 445.415901 130.598696
L 467.710062 123.541304
L 490.004224 117.392819
L 512.298385 111.565124
L 534.592547 106.218614
L 556.886708 101.085966
L 579.18087 96.381037
L 601.475031 92.745411
L 623.769193 89.216715
L 646.063354 85.955345
L 668.357516 83.014764
L 690.651677 80.715766
L 712.945839 79.432603
L 735.24 79.111813
" clip-path="url(#p985a7baf4f)" style="fill: none; stroke: #000000; stroke-opacity: 0; stroke-width: 0.886227; stroke-linejoin: miter"/>
   </g>
   <g id="FillBetweenPolyCollection_2">
    <path d="M 66.415156 178.177282
L 66.415156 178.341152
L 88.709318 175.782543
L 111.003479 174.478652
L 133.297641 174.037653
L 155.591802 173.204633
L 177.885964 171.965495
L 200.180125 170.818966
L 222.474286 169.43171
L 244.768448 167.973573
L 267.062609 166.82568
L 289.356771 165.540031
L 311.650932 164.186719
L 333.945094 162.958323
L 356.239255 161.693304
L 378.533417 160.640082
L 400.827578 159.572243
L 423.12174 158.478499
L 445.415901 157.531926
L 467.710062 156.488887
L 490.004224 155.473366
L 512.298385 154.594217
L 534.592547 153.816961
L 556.886708 153.268823
L 579.18087 152.797765
L 601.475031 152.40388
L 623.769193 152.205735
L 646.063354 151.868025
L 668.357516 151.502207
L 690.651677 151.348295
L 712.945839 151.231175
L 735.24 151.018847
L 735.24 140.970924
L 735.24 140.970924
L 712.945839 141.291715
L 690.651677 141.612505
L 668.357516 141.986761
L 646.063354 142.467947
L 623.769193 142.949133
L 601.475031 143.376853
L 579.18087 143.964969
L 556.886708 144.660016
L 534.592547 145.461992
L 512.298385 146.477829
L 490.004224 147.707526
L 467.710062 149.044153
L 445.415901 150.487711
L 423.12174 151.824338
L 400.827578 153.428291
L 378.533417 154.978778
L 356.239255 156.582731
L 333.945094 158.347079
L 311.650932 160.111427
L 289.356771 161.982705
L 267.062609 163.747053
L 244.768448 165.351006
L 222.474286 167.222284
L 200.180125 168.986632
L 177.885964 170.483655
L 155.591802 172.034143
L 133.297641 173.15691
L 111.003479 173.851956
L 88.709318 175.402443
L 66.415156 178.177282
z
" clip-path="url(#p985a7baf4f)" style="fill: #fc9706; fill-opacity: 0.25098"/>
   </g>
   <g id="line2d_27">
    <path d="M 66.415156 178.341152
L 88.709318 175.782543
L 111.003479 174.478652
L 133.297641 174.037653
L 155.591802 173.204633
L 177.885964 171.965495
L 200.180125 170.818966
L 222.474286 169.43171
L 244.768448 167.973573
L 267.062609 166.82568
L 289.356771 165.540031
L 311.650932 164.186719
L 333.945094 162.958323
L 356.239255 161.693304
L 378.533417 160.640082
L 400.827578 159.572243
L 423.12174 158.478499
L 445.415901 157.531926
L 467.710062 156.488887
L 490.004224 155.473366
L 512.298385 154.594217
L 534.592547 153.816961
L 556.886708 153.268823
L 579.18087 152.797765
L 601.475031 152.40388
L 623.769193 152.205735
L 646.063354 151.868025
L 668.357516 151.502207
L 690.651677 151.348295
L 712.945839 151.231175
L 735.24 151.018847
" clip-path="url(#p985a7baf4f)" style="fill: none; stroke: #000000; stroke-opacity: 0; stroke-width: 0.886227; stroke-linejoin: miter"/>
   </g>
   <g id="line2d_28">
    <path d="M 66.415156 178.177282
L 88.709318 175.402443
L 111.003479 173.851956
L 133.297641 173.15691
L 155.591802 172.034143
L 177.885964 170.483655
L 200.180125 168.986632
L 222.474286 167.222284
L 244.768448 165.351006
L 267.062609 163.747053
L 289.356771 161.982705
L 311.650932 160.111427
L 333.945094 158.347079
L 356.239255 156.582731
L 378.533417 154.978778
L 400.827578 153.428291
L 423.12174 151.824338
L 445.415901 150.487711
L 467.710062 149.044153
L 490.004224 147.707526
L 512.298385 146.477829
L 534.592547 145.461992
L 556.886708 144.660016
L 579.18087 143.964969
L 601.475031 143.376853
L 623.769193 142.949133
L 646.063354 142.467947
L 668.357516 141.986761
L 690.651677 141.612505
L 712.945839 141.291715
L 735.24 140.970924
" clip-path="url(#p985a7baf4f)" style="fill: none; stroke: #000000; stroke-opacity: 0; stroke-width: 0.886227; stroke-linejoin: miter"/>
   </g>
   <g id="line2d_29">
    <path d="M 66.415156 217.05175
L 88.709318 213.202263
L 111.003479 211.010195
L 133.297641 208.23001
L 155.591802 205.235965
L 177.885964 201.653804
L 200.180125 198.178573
L 222.474286 194.382551
L 244.768448 190.265739
L 267.062609 186.202392
L 289.356771 181.497464
L 311.650932 175.242048
L 333.945094 168.024261
L 356.239255 160.218357
L 378.533417 152.465919
L 400.827578 144.553085
L 423.12174 137.495693
L 445.415901 130.598696
L 467.710062 123.541304
L 490.004224 117.392819
L 512.298385 111.565124
L 534.592547 106.218614
L 556.886708 101.085966
L 579.18087 96.381037
L 601.475031 92.745411
L 623.769193 89.216715
L 646.063354 85.955345
L 668.357516 83.014764
L 690.651677 80.715766
L 712.945839 79.432603
L 735.24 79.111813
" clip-path="url(#p985a7baf4f)" style="fill: none; stroke: #68bed8; stroke-width: 2.30419"/>
   </g>
   <g id="line2d_30">
    <path d="M 66.415156 178.177282
L 88.709318 175.402443
L 111.003479 173.851956
L 133.297641 173.15691
L 155.591802 172.034143
L 177.885964 170.483655
L 200.180125 168.986632
L 222.474286 167.222284
L 244.768448 165.351006
L 267.062609 163.747053
L 289.356771 161.982705
L 311.650932 160.111427
L 333.945094 158.347079
L 356.239255 156.582731
L 378.533417 154.978778
L 400.827578 153.428291
L 423.12174 151.824338
L 445.415901 150.487711
L 467.710062 149.044153
L 490.004224 147.707526
L 512.298385 146.477829
L 534.592547 145.461992
L 556.886708 144.660016
L 579.18087 143.964969
L 601.475031 143.376853
L 623.769193 142.949133
L 646.063354 142.467947
L 668.357516 141.986761
L 690.651677 141.612505
L 712.945839 141.291715
L 735.24 140.970924
" clip-path="url(#p985a7baf4f)" style="fill: none; stroke: #fc9706; stroke-width: 2.30419"/>
   </g>
   <g id="line2d_31">
    <path d="M 66.415156 217.677601
L 88.709318 215.036825
L 111.003479 214.356496
L 133.297641 213.272728
L 155.591802 212.05051
L 177.885964 210.276676
L 200.180125 208.670371
L 222.474286 206.921126
L 244.768448 205.022366
L 267.062609 203.548791
L 289.356771 201.692835
L 311.650932 199.68249
L 333.945094 197.441346
L 356.239255 195.203588
L 378.533417 192.899057
L 400.827578 190.587334
L 423.12174 188.635888
L 445.415901 186.642856
L 467.710062 184.354582
L 490.004224 182.873522
L 512.298385 181.168438
L 534.592547 179.664589
L 556.886708 178.184484
L 579.18087 177.368583
L 601.475031 177.090783
L 623.769193 176.703424
L 646.063354 176.49644
L 668.357516 176.527696
L 690.651677 176.651571
L 712.945839 176.899141
L 735.24 177.089894
" clip-path="url(#p985a7baf4f)" style="fill: none; stroke-dasharray: 6.558079,2.835926; stroke-dashoffset: 0; stroke: #68bed8; stroke-width: 1.772454"/>
   </g>
   <g id="line2d_32">
    <path d="M 66.415156 178.341152
L 88.709318 175.782543
L 111.003479 174.478652
L 133.297641 174.037653
L 155.591802 173.204633
L 177.885964 171.965495
L 200.180125 170.818966
L 222.474286 169.43171
L 244.768448 167.973573
L 267.062609 166.82568
L 289.356771 165.540031
L 311.650932 164.186719
L 333.945094 162.958323
L 356.239255 161.693304
L 378.533417 160.640082
L 400.827578 159.572243
L 423.12174 158.478499
L 445.415901 157.531926
L 467.710062 156.488887
L 490.004224 155.473366
L 512.298385 154.594217
L 534.592547 153.816961
L 556.886708 153.268823
L 579.18087 152.797765
L 601.475031 152.40388
L 623.769193 152.205735
L 646.063354 151.868025
L 668.357516 151.502207
L 690.651677 151.348295
L 712.945839 151.231175
L 735.24 151.018847
" clip-path="url(#p985a7baf4f)" style="fill: none; stroke-dasharray: 6.558079,2.835926; stroke-dashoffset: 0; stroke: #fc9706; stroke-width: 1.772454"/>
   </g>
   <g id="LineCollection_1">
    <path d="M 66.415156 217.05175
L 66.415156 178.177282
" clip-path="url(#p985a7baf4f)" style="fill: none; stroke: #555555; stroke-width: 1.240718"/>
   </g>
   <g id="text_13">
    <g clip-path="url(#p985a7baf4f)">
     <text style="font-size: 11px; font-family: 'IBM Plex Sans'; text-anchor: start; fill: #333333" x="79.791653" y="200.584516" transform="rotate(-0 79.791653 200.584516)">77%</text>
    </g>
   </g>
   <g id="patch_3">
    <path d="M 66.415156 346.437273
L 735.24 346.437273
" style="fill: none; stroke: #000000; stroke-width: 0.5; stroke-linejoin: miter; stroke-linecap: square"/>
   </g>
  </g>
  <g id="text_14">
   <text style="font-weight: 700; font-size: 15px; font-family: 'GT Planar'; text-anchor: start" x="66.415156" y="18.06" transform="rotate(-0 66.415156 18.06)">NYCA Coincident Peak Demand Forecast — Baseline Scenario</text>
  </g>
  <g id="text_15">
   <text style="font-size: 13px; font-family: 'GT Planar'; fill: #333333" transform="translate(66.415156 45.31554)">Solid = with building electrification; dashed = without; ribbon = electrification contribution</text>
   <text style="font-size: 13px; font-family: 'GT Planar'; fill: #333333" transform="translate(66.415156 55.84554)">Source: NYISO Gold Book 2025, Tables I-3a, I-3b, I-13b, I-13c</text>
  </g>
  <g id="text_16">
   <text style="font-size: 13px; font-family: 'GT Planar'; text-anchor: start; fill: #333333" x="387.1075" y="386.1" transform="rotate(-0 387.1075 386.1)">Year</text>
  </g>
  <g id="text_17">
   <text style="font-size: 13px; font-family: 'GT Planar'; fill: #333333" transform="translate(17.882812 252.591797) rotate(-90)">Net peak (MW)</text>
  </g>
 </g>
 <defs>
  <clipPath id="p985a7baf4f">
   <rect x="66.415156" y="65.74554" width="668.824844" height="280.691733"/>
  </clipPath>
 </defs>
</svg>
