<svg xmlns:xlink="http://www.w3.org/1999/xlink" xmlns="http://www.w3.org/2000/svg" width="871.959727pt" height="678.708947pt" viewBox="0 0 871.959727 678.708947" version="1.1">
 <metadata>
  <rdf:RDF xmlns:dc="http://purl.org/dc/elements/1.1/" xmlns:cc="http://creativecommons.org/ns#" xmlns:rdf="http://www.w3.org/1999/02/22-rdf-syntax-ns#">
   <cc:Work>
    <dc:type rdf:resource="http://purl.org/dc/dcmitype/StillImage"/>
    <dc:date>2026-04-29T16:06:10.811209</dc:date>
    <dc:format>image/svg+xml</dc:format>
    <dc:creator>
     <cc:Agent>
      <dc:title>Matplotlib v3.10.8, https://matplotlib.org/</dc:title>
     </cc:Agent>
    </dc:creator>
   </cc:Work>
  </rdf:RDF>
 </metadata>
 <defs>
  <style type="text/css">*{stroke-linejoin: round; stroke-linecap: butt}</style>
 </defs>
 <g id="figure_1">
  <g id="patch_1">
   <path d="M 0 678.708947  L 871.959727 678.708947  L 871.959727 0  L 0 0  z " style="fill: #ffffff"/>
  </g>
  <g id="axes_1">
   <g id="patch_2">
    <path d="M 64.832344 340.512368  L 734.88 340.512368  L 734.88 42.925789  L 64.832344 42.925789  z " style="fill: #ffffff"/>
   </g>
   <g id="matplotlib.axis_1">
    <g id="xtick_1"/>
    <g id="xtick_2"/>
    <g id="xtick_3"/>
    <g id="xtick_4"/>
    <g id="xtick_5"/>
    <g id="xtick_6"/>
    <g id="xtick_7"/>
    <g id="xtick_8"/>
    <g id="xtick_9"/>
    <g id="xtick_10"/>
    <g id="xtick_11"/>
    <g id="xtick_12"/>
    <g id="xtick_13"/>
   </g>
   <g id="matplotlib.axis_2">
    <g id="ytick_1">
     <g id="line2d_1">
      <path d="M 64.832344 340.512368  L 734.88 340.512368  " clip-path="url(#pb760f113c1)" style="fill: none; stroke: #e5e5e5; stroke-linecap: square"/>
     </g>
    </g>
    <g id="ytick_2">
     <g id="line2d_2">
      <path d="M 64.832344 264.263837  L 734.88 264.263837  " clip-path="url(#pb760f113c1)" style="fill: none; stroke: #e5e5e5; stroke-linecap: square"/>
     </g>
     <g id="text_1">
      <text style="font-size: 11px; font-family: 'IBM Plex Sans'; text-anchor: start; fill: #4d4d4d" x="33.24" y="268.333837" transform="rotate(-0 33.24 268.333837)">5,000</text>
     </g>
    </g>
    <g id="ytick_3">
     <g id="line2d_3">
      <path d="M 64.832344 188.015307  L 734.88 188.015307  " clip-path="url(#pb760f113c1)" style="fill: none; stroke: #e5e5e5; stroke-linecap: square"/>
     </g>
     <g id="text_2">
      <text style="font-size: 11px; font-family: 'IBM Plex Sans'; text-anchor: start; fill: #4d4d4d" x="26.64" y="192.085307" transform="rotate(-0 26.64 192.085307)">10,000</text>
     </g>
    </g>
    <g id="ytick_4">
     <g id="line2d_4">
      <path d="M 64.832344 111.766776  L 734.88 111.766776  " clip-path="url(#pb760f113c1)" style="fill: none; stroke: #e5e5e5; stroke-linecap: square"/>
     </g>
     <g id="text_3">
      <text style="font-size: 11px; font-family: 'IBM Plex Sans'; text-anchor: start; fill: #4d4d4d" x="26.64" y="115.836776" transform="rotate(-0 26.64 115.836776)">15,000</text>
     </g>
    </g>
    <g id="ytick_5">
     <g id="line2d_5">
      <path d="M 64.832344 302.388103  L 734.88 302.388103  " clip-path="url(#pb760f113c1)" style="fill: none; stroke: #fafafa; stroke-width: 0.5; stroke-linecap: square"/>
     </g>
    </g>
    <g id="ytick_6">
     <g id="line2d_6">
      <path d="M 64.832344 226.139572  L 734.88 226.139572  " clip-path="url(#pb760f113c1)" style="fill: none; stroke: #fafafa; stroke-width: 0.5; stroke-linecap: square"/>
     </g>
    </g>
    <g id="ytick_7">
     <g id="line2d_7">
      <path d="M 64.832344 149.891041  L 734.88 149.891041  " clip-path="url(#pb760f113c1)" style="fill: none; stroke: #fafafa; stroke-width: 0.5; stroke-linecap: square"/>
     </g>
    </g>
    <g id="ytick_8">
     <g id="line2d_8">
      <path d="M 64.832344 73.64251  L 734.88 73.64251  " clip-path="url(#pb760f113c1)" style="fill: none; stroke: #fafafa; stroke-width: 0.5; stroke-linecap: square"/>
     </g>
    </g>
   </g>
   <g id="line2d_9">
    <path d="M 64.832344 143.455665  L 734.88 143.455665  " clip-path="url(#pb760f113c1)" style="fill: none; stroke: #cc2222; stroke-width: 0.75; stroke-linecap: square"/>
   </g>
   <g id="FillBetweenPolyCollection_1">
    <path d="M 64.832344 171.682871  L 64.832344 171.682871  L 87.167266 171.767058  L 109.502187 171.915065  L 131.837109 172.11457  L 154.172031 172.310673  L 176.506953 172.56097  L 198.841875 172.606694  L 221.176797 172.602624  L 243.511719 172.455682  L 265.846641 172.118718  L 288.181563 171.504478  L 310.516484 169.540607  L 332.851406 167.576843  L 355.186328 165.717278  L 377.52125 163.922705  L 399.856172 162.1723  L 422.191094 160.359497  L 444.526016 158.846043  L 466.860938 157.214266  L 489.195859 155.828249  L 511.530781 154.620209  L 533.865703 153.806833  L 556.200625 153.300339  L 578.535547 153.030073  L 600.870469 152.788169  L 623.205391 152.649131  L 645.540313 152.431621  L 667.875234 152.052889  L 690.210156 151.875451  L 712.545078 151.736546  L 734.88 151.583105  L 734.88 148.167824  L 734.88 148.167824  L 712.545078 148.36607  L 690.210156 148.579566  L 667.875234 148.838811  L 645.540313 149.281053  L 623.205391 149.555548  L 600.870469 149.784293  L 578.535547 150.104537  L 556.200625 150.45528  L 533.865703 151.080518  L 511.530781 152.026  L 489.195859 153.428973  L 466.860938 155.030192  L 444.526016 156.936405  L 422.191094 158.690122  L 399.856172 160.82508  L 377.52125 162.853291  L 355.186328 164.942501  L 332.851406 167.06221  L 310.516484 169.288667  L 288.181563 171.484625  L 265.846641 172.237272  L 243.511719 172.674949  L 221.176797 172.87615  L 198.841875 172.892834  L 176.506953 172.834917  L 154.172031 172.515238  L 131.837109 172.254042  L 109.502187 171.989098  L 87.167266 171.788105  L 64.832344 171.682871  z " clip-path="url(#pb760f113c1)" style="fill: #ffc729; fill-opacity: 0.219608"/>
   </g>
   <g id="line2d_10">
    <path d="M 64.832344 171.682871  L 87.167266 171.767058  L 109.502187 171.915065  L 131.837109 172.11457  L 154.172031 172.310673  L 176.506953 172.56097  L 198.841875 172.606694  L 221.176797 172.602624  L 243.511719 172.455682  L 265.846641 172.118718  L 288.181563 171.504478  L 310.516484 169.540607  L 332.851406 167.576843  L 355.186328 165.717278  L 377.52125 163.922705  L 399.856172 162.1723  L 422.191094 160.359497  L 444.526016 158.846043  L 466.860938 157.214266  L 489.195859 155.828249  L 511.530781 154.620209  L 533.865703 153.806833  L 556.200625 153.300339  L 578.535547 153.030073  L 600.870469 152.788169  L 623.205391 152.649131  L 645.540313 152.431621  L 667.875234 152.052889  L 690.210156 151.875451  L 712.545078 151.736546  L 734.88 151.583105  " clip-path="url(#pb760f113c1)" style="fill: none; stroke: #000000; stroke-opacity: 0; stroke-width: 0.886227; stroke-linejoin: miter"/>
   </g>
   <g id="line2d_11">
    <path d="M 64.832344 171.682871  L 87.167266 171.788105  L 109.502187 171.989098  L 131.837109 172.254042  L 154.172031 172.515238  L 176.506953 172.834917  L 198.841875 172.892834  L 221.176797 172.87615  L 243.511719 172.674949  L 265.846641 172.237272  L 288.181563 171.484625  L 310.516484 169.288667  L 332.851406 167.06221  L 355.186328 164.942501  L 377.52125 162.853291  L 399.856172 160.82508  L 422.191094 158.690122  L 444.526016 156.936405  L 466.860938 155.030192  L 489.195859 153.428973  L 511.530781 152.026  L 533.865703 151.080518  L 556.200625 150.45528  L 578.535547 150.104537  L 600.870469 149.784293  L 623.205391 149.555548  L 645.540313 149.281053  L 667.875234 148.838811  L 690.210156 148.579566  L 712.545078 148.36607  L 734.88 148.167824  " clip-path="url(#pb760f113c1)" style="fill: none; stroke: #000000; stroke-opacity: 0; stroke-width: 0.886227; stroke-linejoin: miter"/>
   </g>
   <g id="FillBetweenPolyCollection_2">
    <path d="M 64.832344 171.682871  L 64.832344 171.682871  L 87.167266 171.682871  L 109.502187 171.682871  L 131.837109 171.682871  L 154.172031 171.682871  L 176.506953 171.682871  L 198.841875 171.682871  L 221.176797 171.682871  L 243.511719 171.682871  L 265.846641 171.682871  L 288.181563 171.580851  L 310.516484 170.511819  L 332.851406 169.56777  L 355.186328 168.74885  L 377.52125 168.080513  L 399.856172 167.438462  L 422.191094 166.961528  L 444.526016 166.543554  L 466.860938 166.215619  L 489.195859 165.981327  L 511.530781 165.864375  L 533.865703 165.725516  L 556.200625 165.743961  L 578.535547 165.707394  L 600.870469 165.638976  L 623.205391 165.607762  L 645.540313 165.509677  L 667.875234 165.331049  L 690.210156 165.223581  L 712.545078 165.11425  L 734.88 164.968286  L 734.88 151.583105  L 734.88 151.583105  L 712.545078 151.736546  L 690.210156 151.875451  L 667.875234 152.052889  L 645.540313 152.431621  L 623.205391 152.649131  L 600.870469 152.788169  L 578.535547 153.030073  L 556.200625 153.300339  L 533.865703 153.806833  L 511.530781 154.620209  L 489.195859 155.828249  L 466.860938 157.214266  L 444.526016 158.846043  L 422.191094 160.359497  L 399.856172 162.1723  L 377.52125 163.922705  L 355.186328 165.717278  L 332.851406 167.576843  L 310.516484 169.540607  L 288.181563 171.504478  L 265.846641 172.118718  L 243.511719 172.455682  L 221.176797 172.602624  L 198.841875 172.606694  L 176.506953 172.56097  L 154.172031 172.310673  L 131.837109 172.11457  L 109.502187 171.915065  L 87.167266 171.767058  L 64.832344 171.682871  z " clip-path="url(#pb760f113c1)" style="fill: #fc9706; fill-opacity: 0.219608"/>
   </g>
   <g id="line2d_12">
    <path d="M 64.832344 171.682871  L 87.167266 171.682871  L 109.502187 171.682871  L 131.837109 171.682871  L 154.172031 171.682871  L 176.506953 171.682871  L 198.841875 171.682871  L 221.176797 171.682871  L 243.511719 171.682871  L 265.846641 171.682871  L 288.181563 171.580851  L 310.516484 170.511819  L 332.851406 169.56777  L 355.186328 168.74885  L 377.52125 168.080513  L 399.856172 167.438462  L 422.191094 166.961528  L 444.526016 166.543554  L 466.860938 166.215619  L 489.195859 165.981327  L 511.530781 165.864375  L 533.865703 165.725516  L 556.200625 165.743961  L 578.535547 165.707394  L 600.870469 165.638976  L 623.205391 165.607762  L 645.540313 165.509677  L 667.875234 165.331049  L 690.210156 165.223581  L 712.545078 165.11425  L 734.88 164.968286  " clip-path="url(#pb760f113c1)" style="fill: none; stroke: #000000; stroke-opacity: 0; stroke-width: 0.886227; stroke-linejoin: miter"/>
   </g>
   <g id="line2d_13">
    <path d="M 64.832344 171.682871  L 87.167266 171.767058  L 109.502187 171.915065  L 131.837109 172.11457  L 154.172031 172.310673  L 176.506953 172.56097  L 198.841875 172.606694  L 221.176797 172.602624  L 243.511719 172.455682  L 265.846641 172.118718  L 288.181563 171.504478  L 310.516484 169.540607  L 332.851406 167.576843  L 355.186328 165.717278  L 377.52125 163.922705  L 399.856172 162.1723  L 422.191094 160.359497  L 444.526016 158.846043  L 466.860938 157.214266  L 489.195859 155.828249  L 511.530781 154.620209  L 533.865703 153.806833  L 556.200625 153.300339  L 578.535547 153.030073  L 600.870469 152.788169  L 623.205391 152.649131  L 645.540313 152.431621  L 667.875234 152.052889  L 690.210156 151.875451  L 712.545078 151.736546  L 734.88 151.583105  " clip-path="url(#pb760f113c1)" style="fill: none; stroke: #000000; stroke-opacity: 0; stroke-width: 0.886227; stroke-linejoin: miter"/>
   </g>
   <g id="FillBetweenPolyCollection_3">
    <path d="M 64.832344 171.682871  L 64.832344 171.682871  L 87.167266 171.682871  L 109.502187 171.682871  L 131.837109 171.682871  L 154.172031 171.682871  L 176.506953 171.682871  L 198.841875 171.682871  L 221.176797 171.682871  L 243.511719 171.682871  L 265.846641 171.682871  L 288.181563 171.682871  L 310.516484 171.682871  L 332.851406 171.682871  L 355.186328 171.682871  L 377.52125 171.682871  L 399.856172 171.682871  L 422.191094 171.682871  L 444.526016 171.682871  L 466.860938 171.682871  L 489.195859 171.682871  L 511.530781 171.682871  L 533.865703 171.682871  L 556.200625 171.682871  L 578.535547 171.682871  L 600.870469 171.682871  L 623.205391 171.682871  L 645.540313 171.682871  L 667.875234 171.682871  L 690.210156 171.682871  L 712.545078 171.682871  L 734.88 171.682871  L 734.88 164.968286  L 734.88 164.968286  L 712.545078 165.11425  L 690.210156 165.223581  L 667.875234 165.331049  L 645.540313 165.509677  L 623.205391 165.607762  L 600.870469 165.638976  L 578.535547 165.707394  L 556.200625 165.743961  L 533.865703 165.725516  L 511.530781 165.864375  L 489.195859 165.981327  L 466.860938 166.215619  L 444.526016 166.543554  L 422.191094 166.961528  L 399.856172 167.438462  L 377.52125 168.080513  L 355.186328 168.74885  L 332.851406 169.56777  L 310.516484 170.511819  L 288.181563 171.580851  L 265.846641 171.682871  L 243.511719 171.682871  L 221.176797 171.682871  L 198.841875 171.682871  L 176.506953 171.682871  L 154.172031 171.682871  L 131.837109 171.682871  L 109.502187 171.682871  L 87.167266 171.682871  L 64.832344 171.682871  z " clip-path="url(#pb760f113c1)" style="fill: #999999; fill-opacity: 0.219608"/>
   </g>
   <g id="line2d_14">
    <path d="M 64.832344 171.682871  L 87.167266 171.682871  L 109.502187 171.682871  L 131.837109 171.682871  L 154.172031 171.682871  L 176.506953 171.682871  L 198.841875 171.682871  L 221.176797 171.682871  L 243.511719 171.682871  L 265.846641 171.682871  L 288.181563 171.682871  L 310.516484 171.682871  L 332.851406 171.682871  L 355.186328 171.682871  L 377.52125 171.682871  L 399.856172 171.682871  L 422.191094 171.682871  L 444.526016 171.682871  L 466.860938 171.682871  L 489.195859 171.682871  L 511.530781 171.682871  L 533.865703 171.682871  L 556.200625 171.682871  L 578.535547 171.682871  L 600.870469 171.682871  L 623.205391 171.682871  L 645.540313 171.682871  L 667.875234 171.682871  L 690.210156 171.682871  L 712.545078 171.682871  L 734.88 171.682871  " clip-path="url(#pb760f113c1)" style="fill: none; stroke: #000000; stroke-opacity: 0; stroke-width: 0.886227; stroke-linejoin: miter"/>
   </g>
   <g id="line2d_15">
    <path d="M 64.832344 171.682871  L 87.167266 171.682871  L 109.502187 171.682871  L 131.837109 171.682871  L 154.172031 171.682871  L 176.506953 171.682871  L 198.841875 171.682871  L 221.176797 171.682871  L 243.511719 171.682871  L 265.846641 171.682871  L 288.181563 171.580851  L 310.516484 170.511819  L 332.851406 169.56777  L 355.186328 168.74885  L 377.52125 168.080513  L 399.856172 167.438462  L 422.191094 166.961528  L 444.526016 166.543554  L 466.860938 166.215619  L 489.195859 165.981327  L 511.530781 165.864375  L 533.865703 165.725516  L 556.200625 165.743961  L 578.535547 165.707394  L 600.870469 165.638976  L 623.205391 165.607762  L 645.540313 165.509677  L 667.875234 165.331049  L 690.210156 165.223581  L 712.545078 165.11425  L 734.88 164.968286  " clip-path="url(#pb760f113c1)" style="fill: none; stroke: #000000; stroke-opacity: 0; stroke-width: 0.886227; stroke-linejoin: miter"/>
   </g>
   <g id="FillBetweenPolyCollection_4">
    <path d="M 64.832344 171.682871  L 64.832344 340.512368  L 87.167266 340.512368  L 109.502187 340.512368  L 131.837109 340.512368  L 154.172031 340.512368  L 176.506953 340.512368  L 198.841875 340.512368  L 221.176797 340.512368  L 243.511719 340.512368  L 265.846641 340.512368  L 288.181563 340.512368  L 310.516484 340.512368  L 332.851406 340.512368  L 355.186328 340.512368  L 377.52125 340.512368  L 399.856172 340.512368  L 422.191094 340.512368  L 444.526016 340.512368  L 466.860938 340.512368  L 489.195859 340.512368  L 511.530781 340.512368  L 533.865703 340.512368  L 556.200625 340.512368  L 578.535547 340.512368  L 600.870469 340.512368  L 623.205391 340.512368  L 645.540313 340.512368  L 667.875234 340.512368  L 690.210156 340.512368  L 712.545078 340.512368  L 734.88 340.512368  L 734.88 171.682871  L 734.88 171.682871  L 712.545078 171.682871  L 690.210156 171.682871  L 667.875234 171.682871  L 645.540313 171.682871  L 623.205391 171.682871  L 600.870469 171.682871  L 578.535547 171.682871  L 556.200625 171.682871  L 533.865703 171.682871  L 511.530781 171.682871  L 489.195859 171.682871  L 466.860938 171.682871  L 444.526016 171.682871  L 422.191094 171.682871  L 399.856172 171.682871  L 377.52125 171.682871  L 355.186328 171.682871  L 332.851406 171.682871  L 310.516484 171.682871  L 288.181563 171.682871  L 265.846641 171.682871  L 243.511719 171.682871  L 221.176797 171.682871  L 198.841875 171.682871  L 176.506953 171.682871  L 154.172031 171.682871  L 131.837109 171.682871  L 109.502187 171.682871  L 87.167266 171.682871  L 64.832344 171.682871  z " clip-path="url(#pb760f113c1)" style="fill: #e0e0e0; fill-opacity: 0.219608"/>
   </g>
   <g id="line2d_16">
    <path d="M 64.832344 340.512368  L 87.167266 340.512368  L 109.502187 340.512368  L 131.837109 340.512368  L 154.172031 340.512368  L 176.506953 340.512368  L 198.841875 340.512368  L 221.176797 340.512368  L 243.511719 340.512368  L 265.846641 340.512368  L 288.181563 340.512368  L 310.516484 340.512368  L 332.851406 340.512368  L 355.186328 340.512368  L 377.52125 340.512368  L 399.856172 340.512368  L 422.191094 340.512368  L 444.526016 340.512368  L 466.860938 340.512368  L 489.195859 340.512368  L 511.530781 340.512368  L 533.865703 340.512368  L 556.200625 340.512368  L 578.535547 340.512368  L 600.870469 340.512368  L 623.205391 340.512368  L 645.540313 340.512368  L 667.875234 340.512368  L 690.210156 340.512368  L 712.545078 340.512368  L 734.88 340.512368  " clip-path="url(#pb760f113c1)" style="fill: none; stroke: #000000; stroke-opacity: 0; stroke-width: 0.886227; stroke-linejoin: miter"/>
   </g>
   <g id="line2d_17">
    <path d="M 64.832344 171.682871  L 87.167266 171.682871  L 109.502187 171.682871  L 131.837109 171.682871  L 154.172031 171.682871  L 176.506953 171.682871  L 198.841875 171.682871  L 221.176797 171.682871  L 243.511719 171.682871  L 265.846641 171.682871  L 288.181563 171.682871  L 310.516484 171.682871  L 332.851406 171.682871  L 355.186328 171.682871  L 377.52125 171.682871  L 399.856172 171.682871  L 422.191094 171.682871  L 444.526016 171.682871  L 466.860938 171.682871  L 489.195859 171.682871  L 511.530781 171.682871  L 533.865703 171.682871  L 556.200625 171.682871  L 578.535547 171.682871  L 600.870469 171.682871  L 623.205391 171.682871  L 645.540313 171.682871  L 667.875234 171.682871  L 690.210156 171.682871  L 712.545078 171.682871  L 734.88 171.682871  " clip-path="url(#pb760f113c1)" style="fill: none; stroke: #000000; stroke-opacity: 0; stroke-width: 0.886227; stroke-linejoin: miter"/>
   </g>
   <g id="FillBetweenPolyCollection_5">
    <path d="M 64.832344 189.570777  L 64.832344 189.570777  L 87.167266 189.474112  L 109.502187 189.472525  L 131.837109 189.083158  L 154.172031 188.638237  L 176.506953 187.726839  L 198.841875 186.530595  L 221.176797 184.838182  L 243.511719 182.835564  L 265.846641 180.371528  L 288.181563 177.717971  L 310.516484 174.586915  L 332.851406 171.197985  L 355.186328 167.284794  L 377.52125 163.689064  L 399.856172 160.084435  L 422.191094 157.239666  L 444.526016 154.319167  L 466.860938 151.09763  L 489.195859 149.081977  L 511.530781 146.681616  L 533.865703 143.796071  L 556.200625 141.705559  L 578.535547 139.629021  L 600.870469 138.313185  L 623.205391 137.228141  L 645.540313 136.608514  L 667.875234 137.011636  L 690.210156 137.071022  L 712.545078 136.739862  L 734.88 136.458612  L 734.88 57.096579  L 734.88 57.096579  L 712.545078 57.371074  L 690.210156 58.835045  L 667.875234 60.527763  L 645.540313 63.394708  L 623.205391 66.505648  L 600.870469 70.272325  L 578.535547 74.465994  L 556.200625 80.199884  L 533.865703 86.559011  L 511.530781 93.146884  L 489.195859 99.917754  L 466.860938 106.414129  L 444.526016 114.359226  L 422.191094 121.785833  L 399.856172 129.21244  L 377.52125 137.798024  L 355.186328 146.109114  L 332.851406 154.755697  L 310.516484 162.182304  L 288.181563 168.61768  L 265.846641 173.345089  L 243.511719 177.660756  L 221.176797 181.168188  L 198.841875 184.141881  L 176.506953 186.29209  L 154.172031 187.862809  L 131.837109 188.701543  L 109.502187 189.40303  L 87.167266 189.433529  L 64.832344 189.570777  z " clip-path="url(#pb760f113c1)" style="fill: #ffc729"/>
   </g>
   <g id="line2d_18">
    <path d="M 64.832344 189.570777  L 87.167266 189.474112  L 109.502187 189.472525  L 131.837109 189.083158  L 154.172031 188.638237  L 176.506953 187.726839  L 198.841875 186.530595  L 221.176797 184.838182  L 243.511719 182.835564  L 265.846641 180.371528  L 288.181563 177.717971  L 310.516484 174.586915  L 332.851406 171.197985  L 355.186328 167.284794  L 377.52125 163.689064  L 399.856172 160.084435  L 422.191094 157.239666  L 444.526016 154.319167  L 466.860938 151.09763  L 489.195859 149.081977  L 511.530781 146.681616  L 533.865703 143.796071  L 556.200625 141.705559  L 578.535547 139.629021  L 600.870469 138.313185  L 623.205391 137.228141  L 645.540313 136.608514  L 667.875234 137.011636  L 690.210156 137.071022  L 712.545078 136.739862  L 734.88 136.458612  " clip-path="url(#pb760f113c1)" style="fill: none; stroke: #000000; stroke-opacity: 0; stroke-width: 0.886227; stroke-linejoin: miter"/>
   </g>
   <g id="line2d_19">
    <path d="M 64.832344 189.570777  L 87.167266 189.433529  L 109.502187 189.40303  L 131.837109 188.701543  L 154.172031 187.862809  L 176.506953 186.29209  L 198.841875 184.141881  L 221.176797 181.168188  L 243.511719 177.660756  L 265.846641 173.345089  L 288.181563 168.61768  L 310.516484 162.182304  L 332.851406 154.755697  L 355.186328 146.109114  L 377.52125 137.798024  L 399.856172 129.21244  L 422.191094 121.785833  L 444.526016 114.359226  L 466.860938 106.414129  L 489.195859 99.917754  L 511.530781 93.146884  L 533.865703 86.559011  L 556.200625 80.199884  L 578.535547 74.465994  L 600.870469 70.272325  L 623.205391 66.505648  L 645.540313 63.394708  L 667.875234 60.527763  L 690.210156 58.835045  L 712.545078 57.371074  L 734.88 57.096579  " clip-path="url(#pb760f113c1)" style="fill: none; stroke: #000000; stroke-opacity: 0; stroke-width: 0.886227; stroke-linejoin: miter"/>
   </g>
   <g id="FillBetweenPolyCollection_6">
    <path d="M 64.832344 189.570777  L 64.832344 189.570777  L 87.167266 189.532449  L 109.502187 189.543351  L 131.837109 189.446752  L 154.172031 189.413664  L 176.506953 189.239282  L 198.841875 189.220525  L 221.176797 189.079658  L 243.511719 189.082487  L 265.846641 188.934235  L 288.181563 188.993088  L 310.516484 188.942982  L 332.851406 188.968525  L 355.186328 188.762477  L 377.52125 188.563488  L 399.856172 188.456439  L 422.191094 188.705564  L 444.526016 188.728553  L 466.860938 188.58747  L 489.195859 188.942881  L 511.530781 189.43321  L 533.865703 189.069165  L 556.200625 189.388044  L 578.535547 189.052238  L 600.870469 188.630568  L 623.205391 188.156111  L 645.540313 188.051102  L 667.875234 188.710562  L 690.210156 188.757491  L 712.545078 188.304027  L 734.88 187.70182  L 734.88 136.458612  L 734.88 136.458612  L 712.545078 136.739862  L 690.210156 137.071022  L 667.875234 137.011636  L 645.540313 136.608514  L 623.205391 137.228141  L 600.870469 138.313185  L 578.535547 139.629021  L 556.200625 141.705559  L 533.865703 143.796071  L 511.530781 146.681616  L 489.195859 149.081977  L 466.860938 151.09763  L 444.526016 154.319167  L 422.191094 157.239666  L 399.856172 160.084435  L 377.52125 163.689064  L 355.186328 167.284794  L 332.851406 171.197985  L 310.516484 174.586915  L 288.181563 177.717971  L 265.846641 180.371528  L 243.511719 182.835564  L 221.176797 184.838182  L 198.841875 186.530595  L 176.506953 187.726839  L 154.172031 188.638237  L 131.837109 189.083158  L 109.502187 189.472525  L 87.167266 189.474112  L 64.832344 189.570777  z " clip-path="url(#pb760f113c1)" style="fill: #fc9706"/>
   </g>
   <g id="line2d_20">
    <path d="M 64.832344 189.570777  L 87.167266 189.532449  L 109.502187 189.543351  L 131.837109 189.446752  L 154.172031 189.413664  L 176.506953 189.239282  L 198.841875 189.220525  L 221.176797 189.079658  L 243.511719 189.082487  L 265.846641 188.934235  L 288.181563 188.993088  L 310.516484 188.942982  L 332.851406 188.968525  L 355.186328 188.762477  L 377.52125 188.563488  L 399.856172 188.456439  L 422.191094 188.705564  L 444.526016 188.728553  L 466.860938 188.58747  L 489.195859 188.942881  L 511.530781 189.43321  L 533.865703 189.069165  L 556.200625 189.388044  L 578.535547 189.052238  L 600.870469 188.630568  L 623.205391 188.156111  L 645.540313 188.051102  L 667.875234 188.710562  L 690.210156 188.757491  L 712.545078 188.304027  L 734.88 187.70182  " clip-path="url(#pb760f113c1)" style="fill: none; stroke: #000000; stroke-opacity: 0; stroke-width: 0.886227; stroke-linejoin: miter"/>
   </g>
   <g id="line2d_21">
    <path d="M 64.832344 189.570777  L 87.167266 189.474112  L 109.502187 189.472525  L 131.837109 189.083158  L 154.172031 188.638237  L 176.506953 187.726839  L 198.841875 186.530595  L 221.176797 184.838182  L 243.511719 182.835564  L 265.846641 180.371528  L 288.181563 177.717971  L 310.516484 174.586915  L 332.851406 171.197985  L 355.186328 167.284794  L 377.52125 163.689064  L 399.856172 160.084435  L 422.191094 157.239666  L 444.526016 154.319167  L 466.860938 151.09763  L 489.195859 149.081977  L 511.530781 146.681616  L 533.865703 143.796071  L 556.200625 141.705559  L 578.535547 139.629021  L 600.870469 138.313185  L 623.205391 137.228141  L 645.540313 136.608514  L 667.875234 137.011636  L 690.210156 137.071022  L 712.545078 136.739862  L 734.88 136.458612  " clip-path="url(#pb760f113c1)" style="fill: none; stroke: #000000; stroke-opacity: 0; stroke-width: 0.886227; stroke-linejoin: miter"/>
   </g>
   <g id="FillBetweenPolyCollection_7">
    <path d="M 64.832344 189.570777  L 64.832344 189.570777  L 87.167266 189.570777  L 109.502187 189.570777  L 131.837109 189.570777  L 154.172031 189.570777  L 176.506953 189.570777  L 198.841875 189.570777  L 221.176797 189.570777  L 243.511719 189.570777  L 265.846641 189.570777  L 288.181563 189.570777  L 310.516484 189.570777  L 332.851406 189.570777  L 355.186328 189.570777  L 377.52125 189.570777  L 399.856172 189.570777  L 422.191094 189.570777  L 444.526016 189.570777  L 466.860938 189.570777  L 489.195859 189.570777  L 511.530781 189.570777  L 533.865703 189.570777  L 556.200625 189.570777  L 578.535547 189.570777  L 600.870469 189.570777  L 623.205391 189.570777  L 645.540313 189.570777  L 667.875234 189.570777  L 690.210156 189.570777  L 712.545078 189.570777  L 734.88 189.570777  L 734.88 187.70182  L 734.88 187.70182  L 712.545078 188.304027  L 690.210156 188.757491  L 667.875234 188.710562  L 645.540313 188.051102  L 623.205391 188.156111  L 600.870469 188.630568  L 578.535547 189.052238  L 556.200625 189.388044  L 533.865703 189.069165  L 511.530781 189.43321  L 489.195859 188.942881  L 466.860938 188.58747  L 444.526016 188.728553  L 422.191094 188.705564  L 399.856172 188.456439  L 377.52125 188.563488  L 355.186328 188.762477  L 332.851406 188.968525  L 310.516484 188.942982  L 288.181563 188.993088  L 265.846641 188.934235  L 243.511719 189.082487  L 221.176797 189.079658  L 198.841875 189.220525  L 176.506953 189.239282  L 154.172031 189.413664  L 131.837109 189.446752  L 109.502187 189.543351  L 87.167266 189.532449  L 64.832344 189.570777  z " clip-path="url(#pb760f113c1)" style="fill: #999999"/>
   </g>
   <g id="line2d_22">
    <path d="M 64.832344 189.570777  L 87.167266 189.570777  L 109.502187 189.570777  L 131.837109 189.570777  L 154.172031 189.570777  L 176.506953 189.570777  L 198.841875 189.570777  L 221.176797 189.570777  L 243.511719 189.570777  L 265.846641 189.570777  L 288.181563 189.570777  L 310.516484 189.570777  L 332.851406 189.570777  L 355.186328 189.570777  L 377.52125 189.570777  L 399.856172 189.570777  L 422.191094 189.570777  L 444.526016 189.570777  L 466.860938 189.570777  L 489.195859 189.570777  L 511.530781 189.570777  L 533.865703 189.570777  L 556.200625 189.570777  L 578.535547 189.570777  L 600.870469 189.570777  L 623.205391 189.570777  L 645.540313 189.570777  L 667.875234 189.570777  L 690.210156 189.570777  L 712.545078 189.570777  L 734.88 189.570777  " clip-path="url(#pb760f113c1)" style="fill: none; stroke: #000000; stroke-opacity: 0; stroke-width: 0.886227; stroke-linejoin: miter"/>
   </g>
   <g id="line2d_23">
    <path d="M 64.832344 189.570777  L 87.167266 189.532449  L 109.502187 189.543351  L 131.837109 189.446752  L 154.172031 189.413664  L 176.506953 189.239282  L 198.841875 189.220525  L 221.176797 189.079658  L 243.511719 189.082487  L 265.846641 188.934235  L 288.181563 188.993088  L 310.516484 188.942982  L 332.851406 188.968525  L 355.186328 188.762477  L 377.52125 188.563488  L 399.856172 188.456439  L 422.191094 188.705564  L 444.526016 188.728553  L 466.860938 188.58747  L 489.195859 188.942881  L 511.530781 189.43321  L 533.865703 189.069165  L 556.200625 189.388044  L 578.535547 189.052238  L 600.870469 188.630568  L 623.205391 188.156111  L 645.540313 188.051102  L 667.875234 188.710562  L 690.210156 188.757491  L 712.545078 188.304027  L 734.88 187.70182  " clip-path="url(#pb760f113c1)" style="fill: none; stroke: #000000; stroke-opacity: 0; stroke-width: 0.886227; stroke-linejoin: miter"/>
   </g>
   <g id="FillBetweenPolyCollection_8">
    <path d="M 64.832344 189.570777  L 64.832344 340.512368  L 87.167266 340.512368  L 109.502187 340.512368  L 131.837109 340.512368  L 154.172031 340.512368  L 176.506953 340.512368  L 198.841875 340.512368  L 221.176797 340.512368  L 243.511719 340.512368  L 265.846641 340.512368  L 288.181563 340.512368  L 310.516484 340.512368  L 332.851406 340.512368  L 355.186328 340.512368  L 377.52125 340.512368  L 399.856172 340.512368  L 422.191094 340.512368  L 444.526016 340.512368  L 466.860938 340.512368  L 489.195859 340.512368  L 511.530781 340.512368  L 533.865703 340.512368  L 556.200625 340.512368  L 578.535547 340.512368  L 600.870469 340.512368  L 623.205391 340.512368  L 645.540313 340.512368  L 667.875234 340.512368  L 690.210156 340.512368  L 712.545078 340.512368  L 734.88 340.512368  L 734.88 189.570777  L 734.88 189.570777  L 712.545078 189.570777  L 690.210156 189.570777  L 667.875234 189.570777  L 645.540313 189.570777  L 623.205391 189.570777  L 600.870469 189.570777  L 578.535547 189.570777  L 556.200625 189.570777  L 533.865703 189.570777  L 511.530781 189.570777  L 489.195859 189.570777  L 466.860938 189.570777  L 444.526016 189.570777  L 422.191094 189.570777  L 399.856172 189.570777  L 377.52125 189.570777  L 355.186328 189.570777  L 332.851406 189.570777  L 310.516484 189.570777  L 288.181563 189.570777  L 265.846641 189.570777  L 243.511719 189.570777  L 221.176797 189.570777  L 198.841875 189.570777  L 176.506953 189.570777  L 154.172031 189.570777  L 131.837109 189.570777  L 109.502187 189.570777  L 87.167266 189.570777  L 64.832344 189.570777  z " clip-path="url(#pb760f113c1)" style="fill: #e0e0e0"/>
   </g>
   <g id="line2d_24">
    <path d="M 64.832344 340.512368  L 87.167266 340.512368  L 109.502187 340.512368  L 131.837109 340.512368  L 154.172031 340.512368  L 176.506953 340.512368  L 198.841875 340.512368  L 221.176797 340.512368  L 243.511719 340.512368  L 265.846641 340.512368  L 288.181563 340.512368  L 310.516484 340.512368  L 332.851406 340.512368  L 355.186328 340.512368  L 377.52125 340.512368  L 399.856172 340.512368  L 422.191094 340.512368  L 444.526016 340.512368  L 466.860938 340.512368  L 489.195859 340.512368  L 511.530781 340.512368  L 533.865703 340.512368  L 556.200625 340.512368  L 578.535547 340.512368  L 600.870469 340.512368  L 623.205391 340.512368  L 645.540313 340.512368  L 667.875234 340.512368  L 690.210156 340.512368  L 712.545078 340.512368  L 734.88 340.512368  " clip-path="url(#pb760f113c1)" style="fill: none; stroke: #000000; stroke-opacity: 0; stroke-width: 0.886227; stroke-linejoin: miter"/>
   </g>
   <g id="line2d_25">
    <path d="M 64.832344 189.570777  L 87.167266 189.570777  L 109.502187 189.570777  L 131.837109 189.570777  L 154.172031 189.570777  L 176.506953 189.570777  L 198.841875 189.570777  L 221.176797 189.570777  L 243.511719 189.570777  L 265.846641 189.570777  L 288.181563 189.570777  L 310.516484 189.570777  L 332.851406 189.570777  L 355.186328 189.570777  L 377.52125 189.570777  L 399.856172 189.570777  L 422.191094 189.570777  L 444.526016 189.570777  L 466.860938 189.570777  L 489.195859 189.570777  L 511.530781 189.570777  L 533.865703 189.570777  L 556.200625 189.570777  L 578.535547 189.570777  L 600.870469 189.570777  L 623.205391 189.570777  L 645.540313 189.570777  L 667.875234 189.570777  L 690.210156 189.570777  L 712.545078 189.570777  L 734.88 189.570777  " clip-path="url(#pb760f113c1)" style="fill: none; stroke: #000000; stroke-opacity: 0; stroke-width: 0.886227; stroke-linejoin: miter"/>
   </g>
   <g id="line2d_26">
    <path d="M 734.88 265.041573  L 752.747938 265.041573  " style="fill: none; stroke: #e0e0e0; stroke-linecap: round"/>
   </g>
   <g id="line2d_27">
    <path d="M 752.747938 265.041573  L 761.681906 265.041573  " style="fill: none; stroke: #e0e0e0; stroke-linecap: round"/>
   </g>
   <g id="line2d_28">
    <path d="M 734.88 188.636298  L 752.747938 188.636298  " style="fill: none; stroke: #999999; stroke-linecap: round"/>
   </g>
   <g id="line2d_29">
    <path d="M 752.747938 188.636298  L 761.681906 188.636298  " style="fill: none; stroke: #999999; stroke-linecap: round"/>
   </g>
   <g id="line2d_30">
    <path d="M 734.88 162.080216  L 752.747938 162.080216  " style="fill: none; stroke: #fc9706; stroke-linecap: round"/>
   </g>
   <g id="line2d_31">
    <path d="M 752.747938 162.080216  L 761.681906 162.080216  " style="fill: none; stroke: #fc9706; stroke-linecap: round"/>
   </g>
   <g id="line2d_32">
    <path d="M 734.88 96.777596  L 752.747938 96.777596  " style="fill: none; stroke: #ffc729; stroke-linecap: round"/>
   </g>
   <g id="line2d_33">
    <path d="M 752.747938 96.777596  L 761.681906 96.777596  " style="fill: none; stroke: #ffc729; stroke-linecap: round"/>
   </g>
   <g id="text_4">
    <text style="font-size: 9px; font-family: 'IBM Plex Sans'; fill: #a0af12" transform="translate(320.768353 38.221118)">Capacity</text>
    <text style="font-size: 9px; font-family: 'IBM Plex Sans'; fill: #a0af12" transform="translate(313.378509 48.013118)">exhausted</text>
    <text style="font-size: 9px; font-family: 'IBM Plex Sans'; fill: #a0af12" transform="translate(328.616634 57.805118)">~2038</text>
   </g>
   <g id="text_5">
    <g clip-path="url(#pb760f113c1)">
     <text style="font-weight: 700; font-size: 9px; font-family: 'IBM Plex Sans'; text-anchor: start; fill: #cc2222" x="75.999805" y="137.191866" transform="rotate(-0 75.999805 137.191866)">Distribution capacity</text>
    </g>
   </g>
   <g id="text_6">
    <text style="font-weight: 700; font-size: 9px; font-family: 'IBM Plex Sans'; text-anchor: start; fill: #e0e0e0" x="768.382383" y="267.471573" transform="rotate(-0 768.382383 267.471573)">Base (2025 level)</text>
   </g>
   <g id="text_7">
    <text style="font-weight: 700; font-size: 9px; font-family: 'IBM Plex Sans'; text-anchor: start; fill: #999999" x="768.382383" y="191.052939" transform="rotate(-0 768.382383 191.052939)">Organic growth</text>
   </g>
   <g id="text_8">
    <text style="font-weight: 700; font-size: 9px; font-family: 'IBM Plex Sans'; text-anchor: start; fill: #fc9706" x="768.382383" y="164.510216" transform="rotate(-0 768.382383 164.510216)">EV load</text>
   </g>
   <g id="text_9">
    <text style="font-weight: 700; font-size: 9px; font-family: 'IBM Plex Sans'; text-anchor: start; fill: #ffc729" x="768.382383" y="99.194236" transform="rotate(-0 768.382383 99.194236)">Building electrification</text>
   </g>
   <g id="line2d_34">
    <path d="M 362.317111 340.512368  L 362.317111 42.925789  " clip-path="url(#pb760f113c1)" style="fill: none; stroke-dasharray: 2.775,1.2; stroke-dashoffset: 0; stroke: #a0af12; stroke-width: 0.75"/>
   </g>
   <g id="line2d_35">
    <path d="M 268.560229 171.658785  L 288.181563 171.484625  L 310.516484 169.288667  L 332.851406 167.06221  L 355.186328 164.942501  L 377.52125 162.853291  L 399.856172 160.82508  L 422.191094 158.690122  L 444.526016 156.936405  L 466.860938 155.030192  L 489.195859 153.428973  L 511.530781 152.026  L 533.865703 151.080518  L 556.200625 150.45528  L 578.535547 150.104537  L 600.870469 149.784293  L 623.205391 149.555548  L 645.540313 149.281053  L 667.875234 148.838811  L 690.210156 148.579566  L 712.545078 148.36607  L 734.88 148.167824  " clip-path="url(#pb760f113c1)" style="fill: none; stroke-dasharray: 0.35,1.25; stroke-dashoffset: 0; stroke: #999999"/>
   </g>
   <g id="patch_3">
    <path d="M 64.832344 340.512368  L 734.88 340.512368  " style="fill: none; stroke: #000000; stroke-width: 0.5; stroke-linejoin: miter; stroke-linecap: square"/>
   </g>
  </g>
  <g id="axes_2">
   <g id="patch_4">
    <path d="M 64.832344 656.218947  L 734.88 656.218947  L 734.88 358.632368  L 64.832344 358.632368  z " style="fill: #ffffff"/>
   </g>
   <g id="matplotlib.axis_3">
    <g id="xtick_14">
     <g id="line2d_36">
      <path d="M 64.832344 656.218947  " style="fill: none; stroke: #000000; stroke-width: 1.5; stroke-linecap: square"/>
      <defs>
       <path id="m84872e38c9" d="M 0 0  L 0 2.75  " style="stroke: #000000"/>
      </defs>
      <g>
       <use xlink:href="#m84872e38c9" x="64.832344" y="656.218947" style="stroke: #000000"/>
      </g>
     </g>
     <g id="text_10">
      <text style="font-size: 11px; font-family: 'IBM Plex Sans'; text-anchor: middle; fill: #4d4d4d" x="64.832344" y="669.308947" transform="rotate(-0 64.832344 669.308947)">2025</text>
     </g>
    </g>
    <g id="xtick_15">
     <g id="line2d_37">
      <path d="M 176.506953 656.218947  " style="fill: none; stroke: #000000; stroke-width: 1.5; stroke-linecap: square"/>
      <g>
       <use xlink:href="#m84872e38c9" x="176.506953" y="656.218947" style="stroke: #000000"/>
      </g>
     </g>
     <g id="text_11">
      <text style="font-size: 11px; font-family: 'IBM Plex Sans'; text-anchor: middle; fill: #4d4d4d" x="176.506953" y="669.308947" transform="rotate(-0 176.506953 669.308947)">2030</text>
     </g>
    </g>
    <g id="xtick_16">
     <g id="line2d_38">
      <path d="M 288.181563 656.218947  " style="fill: none; stroke: #000000; stroke-width: 1.5; stroke-linecap: square"/>
      <g>
       <use xlink:href="#m84872e38c9" x="288.181563" y="656.218947" style="stroke: #000000"/>
      </g>
     </g>
     <g id="text_12">
      <text style="font-size: 11px; font-family: 'IBM Plex Sans'; text-anchor: middle; fill: #4d4d4d" x="288.181563" y="669.308947" transform="rotate(-0 288.181563 669.308947)">2035</text>
     </g>
    </g>
    <g id="xtick_17">
     <g id="line2d_39">
      <path d="M 399.856172 656.218947  " style="fill: none; stroke: #000000; stroke-width: 1.5; stroke-linecap: square"/>
      <g>
       <use xlink:href="#m84872e38c9" x="399.856172" y="656.218947" style="stroke: #000000"/>
      </g>
     </g>
     <g id="text_13">
      <text style="font-size: 11px; font-family: 'IBM Plex Sans'; text-anchor: middle; fill: #4d4d4d" x="399.856172" y="669.308947" transform="rotate(-0 399.856172 669.308947)">2040</text>
     </g>
    </g>
    <g id="xtick_18">
     <g id="line2d_40">
      <path d="M 511.530781 656.218947  " style="fill: none; stroke: #000000; stroke-width: 1.5; stroke-linecap: square"/>
      <g>
       <use xlink:href="#m84872e38c9" x="511.530781" y="656.218947" style="stroke: #000000"/>
      </g>
     </g>
     <g id="text_14">
      <text style="font-size: 11px; font-family: 'IBM Plex Sans'; text-anchor: middle; fill: #4d4d4d" x="511.530781" y="669.308947" transform="rotate(-0 511.530781 669.308947)">2045</text>
     </g>
    </g>
    <g id="xtick_19">
     <g id="line2d_41">
      <path d="M 623.205391 656.218947  " style="fill: none; stroke: #000000; stroke-width: 1.5; stroke-linecap: square"/>
      <g>
       <use xlink:href="#m84872e38c9" x="623.205391" y="656.218947" style="stroke: #000000"/>
      </g>
     </g>
     <g id="text_15">
      <text style="font-size: 11px; font-family: 'IBM Plex Sans'; text-anchor: middle; fill: #4d4d4d" x="623.205391" y="669.308947" transform="rotate(-0 623.205391 669.308947)">2050</text>
     </g>
    </g>
    <g id="xtick_20">
     <g id="line2d_42">
      <path d="M 734.88 656.218947  " style="fill: none; stroke: #000000; stroke-width: 1.5; stroke-linecap: square"/>
      <g>
       <use xlink:href="#m84872e38c9" x="734.88" y="656.218947" style="stroke: #000000"/>
      </g>
     </g>
     <g id="text_16">
      <text style="font-size: 11px; font-family: 'IBM Plex Sans'; text-anchor: middle; fill: #4d4d4d" x="734.88" y="669.308947" transform="rotate(-0 734.88 669.308947)">2055</text>
     </g>
    </g>
    <g id="xtick_21">
     <g id="line2d_43">
      <path d="M 120.669648 656.218947  " style="fill: none; stroke: #000000; stroke-width: 1.5; stroke-linecap: square"/>
      <defs>
       <path id="m9973055dca" d="M 0 0  L 0 1.375  " style="stroke: #000000"/>
      </defs>
      <g>
       <use xlink:href="#m9973055dca" x="120.669648" y="656.218947" style="stroke: #000000"/>
      </g>
     </g>
    </g>
    <g id="xtick_22">
     <g id="line2d_44">
      <path d="M 232.344258 656.218947  " style="fill: none; stroke: #000000; stroke-width: 1.5; stroke-linecap: square"/>
      <g>
       <use xlink:href="#m9973055dca" x="232.344258" y="656.218947" style="stroke: #000000"/>
      </g>
     </g>
    </g>
    <g id="xtick_23">
     <g id="line2d_45">
      <path d="M 344.018867 656.218947  " style="fill: none; stroke: #000000; stroke-width: 1.5; stroke-linecap: square"/>
      <g>
       <use xlink:href="#m9973055dca" x="344.018867" y="656.218947" style="stroke: #000000"/>
      </g>
     </g>
    </g>
    <g id="xtick_24">
     <g id="line2d_46">
      <path d="M 455.693477 656.218947  " style="fill: none; stroke: #000000; stroke-width: 1.5; stroke-linecap: square"/>
      <g>
       <use xlink:href="#m9973055dca" x="455.693477" y="656.218947" style="stroke: #000000"/>
      </g>
     </g>
    </g>
    <g id="xtick_25">
     <g id="line2d_47">
      <path d="M 567.368086 656.218947  " style="fill: none; stroke: #000000; stroke-width: 1.5; stroke-linecap: square"/>
      <g>
       <use xlink:href="#m9973055dca" x="567.368086" y="656.218947" style="stroke: #000000"/>
      </g>
     </g>
    </g>
    <g id="xtick_26">
     <g id="line2d_48">
      <path d="M 679.042695 656.218947  " style="fill: none; stroke: #000000; stroke-width: 1.5; stroke-linecap: square"/>
      <g>
       <use xlink:href="#m9973055dca" x="679.042695" y="656.218947" style="stroke: #000000"/>
      </g>
     </g>
    </g>
   </g>
   <g id="matplotlib.axis_4">
    <g id="ytick_9">
     <g id="line2d_49">
      <path d="M 64.832344 656.218947  L 734.88 656.218947  " clip-path="url(#pf04a8685f8)" style="fill: none; stroke: #e5e5e5; stroke-linecap: square"/>
     </g>
    </g>
    <g id="ytick_10">
     <g id="line2d_50">
      <path d="M 64.832344 579.970416  L 734.88 579.970416  " clip-path="url(#pf04a8685f8)" style="fill: none; stroke: #e5e5e5; stroke-linecap: square"/>
     </g>
     <g id="text_17">
      <text style="font-size: 11px; font-family: 'IBM Plex Sans'; text-anchor: start; fill: #4d4d4d" x="33.24" y="584.040416" transform="rotate(-0 33.24 584.040416)">5,000</text>
     </g>
    </g>
    <g id="ytick_11">
     <g id="line2d_51">
      <path d="M 64.832344 503.721886  L 734.88 503.721886  " clip-path="url(#pf04a8685f8)" style="fill: none; stroke: #e5e5e5; stroke-linecap: square"/>
     </g>
     <g id="text_18">
      <text style="font-size: 11px; font-family: 'IBM Plex Sans'; text-anchor: start; fill: #4d4d4d" x="26.64" y="507.791886" transform="rotate(-0 26.64 507.791886)">10,000</text>
     </g>
    </g>
    <g id="ytick_12">
     <g id="line2d_52">
      <path d="M 64.832344 427.473355  L 734.88 427.473355  " clip-path="url(#pf04a8685f8)" style="fill: none; stroke: #e5e5e5; stroke-linecap: square"/>
     </g>
     <g id="text_19">
      <text style="font-size: 11px; font-family: 'IBM Plex Sans'; text-anchor: start; fill: #4d4d4d" x="26.64" y="431.543355" transform="rotate(-0 26.64 431.543355)">15,000</text>
     </g>
    </g>
    <g id="ytick_13">
     <g id="line2d_53">
      <path d="M 64.832344 618.094682  L 734.88 618.094682  " clip-path="url(#pf04a8685f8)" style="fill: none; stroke: #fafafa; stroke-width: 0.5; stroke-linecap: square"/>
     </g>
    </g>
    <g id="ytick_14">
     <g id="line2d_54">
      <path d="M 64.832344 541.846151  L 734.88 541.846151  " clip-path="url(#pf04a8685f8)" style="fill: none; stroke: #fafafa; stroke-width: 0.5; stroke-linecap: square"/>
     </g>
    </g>
    <g id="ytick_15">
     <g id="line2d_55">
      <path d="M 64.832344 465.59762  L 734.88 465.59762  " clip-path="url(#pf04a8685f8)" style="fill: none; stroke: #fafafa; stroke-width: 0.5; stroke-linecap: square"/>
     </g>
    </g>
    <g id="ytick_16">
     <g id="line2d_56">
      <path d="M 64.832344 389.349089  L 734.88 389.349089  " clip-path="url(#pf04a8685f8)" style="fill: none; stroke: #fafafa; stroke-width: 0.5; stroke-linecap: square"/>
     </g>
    </g>
   </g>
   <g id="line2d_57">
    <path d="M 64.832344 459.162244  L 734.88 459.162244  " clip-path="url(#pf04a8685f8)" style="fill: none; stroke: #cc2222; stroke-width: 0.75; stroke-linecap: square"/>
   </g>
   <g id="FillBetweenPolyCollection_9">
    <path d="M 64.832344 480.984574  L 64.832344 480.984574  L 87.167266 482.204822  L 109.502187 482.564131  L 131.837109 483.176015  L 154.172031 483.747013  L 176.506953 484.980668  L 198.841875 485.333486  L 221.176797 486.180899  L 243.511719 487.222523  L 265.846641 487.634173  L 288.181563 488.310344  L 310.516484 488.528824  L 332.851406 488.763069  L 355.186328 488.868619  L 377.52125 489.064076  L 399.856172 489.140419  L 422.191094 489.405119  L 444.526016 489.386478  L 466.860938 489.486013  L 489.195859 489.436336  L 511.530781 489.393367  L 533.865703 488.948856  L 556.200625 488.505532  L 578.535547 488.106003  L 600.870469 487.690485  L 623.205391 487.360213  L 645.540313 487.064655  L 667.875234 486.838047  L 690.210156 486.535973  L 712.545078 486.370458  L 734.88 486.159334  L 734.88 487.610503  L 734.88 487.610503  L 712.545078 487.879677  L 690.210156 488.09356  L 667.875234 488.483157  L 645.540313 488.778933  L 623.205391 489.160835  L 600.870469 489.580932  L 578.535547 490.097124  L 556.200625 490.612616  L 533.865703 491.179534  L 511.530781 491.760707  L 489.195859 491.874742  L 466.860938 491.975479  L 444.526016 491.91443  L 422.191094 491.95538  L 399.856172 491.634296  L 377.52125 491.533033  L 355.186328 491.25458  L 332.851406 491.099467  L 310.516484 490.766881  L 288.181563 490.44799  L 265.846641 489.599389  L 243.511719 489.055605  L 221.176797 487.708427  L 198.841875 486.593839  L 176.506953 486.12897  L 154.172031 484.540188  L 131.837109 483.78629  L 109.502187 482.965713  L 87.167266 482.431259  L 64.832344 480.984574  z " clip-path="url(#pf04a8685f8)" style="fill: #ffc729; fill-opacity: 0.219608"/>
   </g>
   <g id="line2d_58">
    <path d="M 64.832344 480.984574  L 87.167266 482.204822  L 109.502187 482.564131  L 131.837109 483.176015  L 154.172031 483.747013  L 176.506953 484.980668  L 198.841875 485.333486  L 221.176797 486.180899  L 243.511719 487.222523  L 265.846641 487.634173  L 288.181563 488.310344  L 310.516484 488.528824  L 332.851406 488.763069  L 355.186328 488.868619  L 377.52125 489.064076  L 399.856172 489.140419  L 422.191094 489.405119  L 444.526016 489.386478  L 466.860938 489.486013  L 489.195859 489.436336  L 511.530781 489.393367  L 533.865703 488.948856  L 556.200625 488.505532  L 578.535547 488.106003  L 600.870469 487.690485  L 623.205391 487.360213  L 645.540313 487.064655  L 667.875234 486.838047  L 690.210156 486.535973  L 712.545078 486.370458  L 734.88 486.159334  " clip-path="url(#pf04a8685f8)" style="fill: none; stroke: #000000; stroke-opacity: 0; stroke-width: 0.886227; stroke-linejoin: miter"/>
   </g>
   <g id="line2d_59">
    <path d="M 64.832344 480.984574  L 87.167266 482.431259  L 109.502187 482.965713  L 131.837109 483.78629  L 154.172031 484.540188  L 176.506953 486.12897  L 198.841875 486.593839  L 221.176797 487.708427  L 243.511719 489.055605  L 265.846641 489.599389  L 288.181563 490.44799  L 310.516484 490.766881  L 332.851406 491.099467  L 355.186328 491.25458  L 377.52125 491.533033  L 399.856172 491.634296  L 422.191094 491.95538  L 444.526016 491.91443  L 466.860938 491.975479  L 489.195859 491.874742  L 511.530781 491.760707  L 533.865703 491.179534  L 556.200625 490.612616  L 578.535547 490.097124  L 600.870469 489.580932  L 623.205391 489.160835  L 645.540313 488.778933  L 667.875234 488.483157  L 690.210156 488.09356  L 712.545078 487.879677  L 734.88 487.610503  " clip-path="url(#pf04a8685f8)" style="fill: none; stroke: #000000; stroke-opacity: 0; stroke-width: 0.886227; stroke-linejoin: miter"/>
   </g>
   <g id="FillBetweenPolyCollection_10">
    <path d="M 64.832344 480.984574  L 64.832344 480.984574  L 87.167266 480.984574  L 109.502187 480.984574  L 131.837109 480.984574  L 154.172031 480.984574  L 176.506953 480.984574  L 198.841875 480.984574  L 221.176797 480.984574  L 243.511719 480.984574  L 265.846641 480.984574  L 288.181563 480.984574  L 310.516484 480.984574  L 332.851406 480.984574  L 355.186328 480.984574  L 377.52125 480.984574  L 399.856172 480.984574  L 422.191094 480.984574  L 444.526016 480.984574  L 466.860938 480.984574  L 489.195859 480.984574  L 511.530781 480.984574  L 533.865703 480.984574  L 556.200625 480.984574  L 578.535547 480.984574  L 600.870469 480.984574  L 623.205391 480.984574  L 645.540313 480.984574  L 667.875234 480.984574  L 690.210156 480.984574  L 712.545078 480.984574  L 734.88 480.984574  L 734.88 486.159334  L 734.88 486.159334  L 712.545078 486.370458  L 690.210156 486.535973  L 667.875234 486.838047  L 645.540313 487.064655  L 623.205391 487.360213  L 600.870469 487.690485  L 578.535547 488.106003  L 556.200625 488.505532  L 533.865703 488.948856  L 511.530781 489.393367  L 489.195859 489.436336  L 466.860938 489.486013  L 444.526016 489.386478  L 422.191094 489.405119  L 399.856172 489.140419  L 377.52125 489.064076  L 355.186328 488.868619  L 332.851406 488.763069  L 310.516484 488.528824  L 288.181563 488.310344  L 265.846641 487.634173  L 243.511719 487.222523  L 221.176797 486.180899  L 198.841875 485.333486  L 176.506953 484.980668  L 154.172031 483.747013  L 131.837109 483.176015  L 109.502187 482.564131  L 87.167266 482.204822  L 64.832344 480.984574  z " clip-path="url(#pf04a8685f8)" style="fill: #fc9706; fill-opacity: 0.219608"/>
   </g>
   <g id="line2d_60">
    <path d="M 64.832344 480.984574  L 87.167266 480.984574  L 109.502187 480.984574  L 131.837109 480.984574  L 154.172031 480.984574  L 176.506953 480.984574  L 198.841875 480.984574  L 221.176797 480.984574  L 243.511719 480.984574  L 265.846641 480.984574  L 288.181563 480.984574  L 310.516484 480.984574  L 332.851406 480.984574  L 355.186328 480.984574  L 377.52125 480.984574  L 399.856172 480.984574  L 422.191094 480.984574  L 444.526016 480.984574  L 466.860938 480.984574  L 489.195859 480.984574  L 511.530781 480.984574  L 533.865703 480.984574  L 556.200625 480.984574  L 578.535547 480.984574  L 600.870469 480.984574  L 623.205391 480.984574  L 645.540313 480.984574  L 667.875234 480.984574  L 690.210156 480.984574  L 712.545078 480.984574  L 734.88 480.984574  " clip-path="url(#pf04a8685f8)" style="fill: none; stroke: #000000; stroke-opacity: 0; stroke-width: 0.886227; stroke-linejoin: miter"/>
   </g>
   <g id="line2d_61">
    <path d="M 64.832344 480.984574  L 87.167266 482.204822  L 109.502187 482.564131  L 131.837109 483.176015  L 154.172031 483.747013  L 176.506953 484.980668  L 198.841875 485.333486  L 221.176797 486.180899  L 243.511719 487.222523  L 265.846641 487.634173  L 288.181563 488.310344  L 310.516484 488.528824  L 332.851406 488.763069  L 355.186328 488.868619  L 377.52125 489.064076  L 399.856172 489.140419  L 422.191094 489.405119  L 444.526016 489.386478  L 466.860938 489.486013  L 489.195859 489.436336  L 511.530781 489.393367  L 533.865703 488.948856  L 556.200625 488.505532  L 578.535547 488.106003  L 600.870469 487.690485  L 623.205391 487.360213  L 645.540313 487.064655  L 667.875234 486.838047  L 690.210156 486.535973  L 712.545078 486.370458  L 734.88 486.159334  " clip-path="url(#pf04a8685f8)" style="fill: none; stroke: #000000; stroke-opacity: 0; stroke-width: 0.886227; stroke-linejoin: miter"/>
   </g>
   <g id="FillBetweenPolyCollection_11">
    <path d="M 64.832344 480.984574  L 64.832344 480.984574  L 87.167266 480.984574  L 109.502187 480.984574  L 131.837109 480.984574  L 154.172031 480.984574  L 176.506953 480.984574  L 198.841875 480.984574  L 221.176797 480.984574  L 243.511719 480.984574  L 265.846641 480.984574  L 288.181563 480.984574  L 310.516484 480.984574  L 332.851406 480.984574  L 355.186328 480.984574  L 377.52125 480.984574  L 399.856172 480.984574  L 422.191094 480.984574  L 444.526016 480.984574  L 466.860938 480.984574  L 489.195859 480.984574  L 511.530781 480.984574  L 533.865703 480.984574  L 556.200625 480.984574  L 578.535547 480.984574  L 600.870469 480.984574  L 623.205391 480.984574  L 645.540313 480.984574  L 667.875234 480.984574  L 690.210156 480.984574  L 712.545078 480.984574  L 734.88 480.984574  L 734.88 480.984574  L 734.88 480.984574  L 712.545078 480.984574  L 690.210156 480.984574  L 667.875234 480.984574  L 645.540313 480.984574  L 623.205391 480.984574  L 600.870469 480.984574  L 578.535547 480.984574  L 556.200625 480.984574  L 533.865703 480.984574  L 511.530781 480.984574  L 489.195859 480.984574  L 466.860938 480.984574  L 444.526016 480.984574  L 422.191094 480.984574  L 399.856172 480.984574  L 377.52125 480.984574  L 355.186328 480.984574  L 332.851406 480.984574  L 310.516484 480.984574  L 288.181563 480.984574  L 265.846641 480.984574  L 243.511719 480.984574  L 221.176797 480.984574  L 198.841875 480.984574  L 176.506953 480.984574  L 154.172031 480.984574  L 131.837109 480.984574  L 109.502187 480.984574  L 87.167266 480.984574  L 64.832344 480.984574  z " clip-path="url(#pf04a8685f8)" style="fill: #999999; fill-opacity: 0.219608"/>
   </g>
   <g id="line2d_62">
    <path d="M 64.832344 480.984574  L 87.167266 480.984574  L 109.502187 480.984574  L 131.837109 480.984574  L 154.172031 480.984574  L 176.506953 480.984574  L 198.841875 480.984574  L 221.176797 480.984574  L 243.511719 480.984574  L 265.846641 480.984574  L 288.181563 480.984574  L 310.516484 480.984574  L 332.851406 480.984574  L 355.186328 480.984574  L 377.52125 480.984574  L 399.856172 480.984574  L 422.191094 480.984574  L 444.526016 480.984574  L 466.860938 480.984574  L 489.195859 480.984574  L 511.530781 480.984574  L 533.865703 480.984574  L 556.200625 480.984574  L 578.535547 480.984574  L 600.870469 480.984574  L 623.205391 480.984574  L 645.540313 480.984574  L 667.875234 480.984574  L 690.210156 480.984574  L 712.545078 480.984574  L 734.88 480.984574  " clip-path="url(#pf04a8685f8)" style="fill: none; stroke: #000000; stroke-opacity: 0; stroke-width: 0.886227; stroke-linejoin: miter"/>
   </g>
   <g id="line2d_63">
    <path d="M 64.832344 480.984574  L 87.167266 480.984574  L 109.502187 480.984574  L 131.837109 480.984574  L 154.172031 480.984574  L 176.506953 480.984574  L 198.841875 480.984574  L 221.176797 480.984574  L 243.511719 480.984574  L 265.846641 480.984574  L 288.181563 480.984574  L 310.516484 480.984574  L 332.851406 480.984574  L 355.186328 480.984574  L 377.52125 480.984574  L 399.856172 480.984574  L 422.191094 480.984574  L 444.526016 480.984574  L 466.860938 480.984574  L 489.195859 480.984574  L 511.530781 480.984574  L 533.865703 480.984574  L 556.200625 480.984574  L 578.535547 480.984574  L 600.870469 480.984574  L 623.205391 480.984574  L 645.540313 480.984574  L 667.875234 480.984574  L 690.210156 480.984574  L 712.545078 480.984574  L 734.88 480.984574  " clip-path="url(#pf04a8685f8)" style="fill: none; stroke: #000000; stroke-opacity: 0; stroke-width: 0.886227; stroke-linejoin: miter"/>
   </g>
   <g id="FillBetweenPolyCollection_12">
    <path d="M 64.832344 480.984574  L 64.832344 656.218947  L 87.167266 656.218947  L 109.502187 656.218947  L 131.837109 656.218947  L 154.172031 656.218947  L 176.506953 656.218947  L 198.841875 656.218947  L 221.176797 656.218947  L 243.511719 656.218947  L 265.846641 656.218947  L 288.181563 656.218947  L 310.516484 656.218947  L 332.851406 656.218947  L 355.186328 656.218947  L 377.52125 656.218947  L 399.856172 656.218947  L 422.191094 656.218947  L 444.526016 656.218947  L 466.860938 656.218947  L 489.195859 656.218947  L 511.530781 656.218947  L 533.865703 656.218947  L 556.200625 656.218947  L 578.535547 656.218947  L 600.870469 656.218947  L 623.205391 656.218947  L 645.540313 656.218947  L 667.875234 656.218947  L 690.210156 656.218947  L 712.545078 656.218947  L 734.88 656.218947  L 734.88 480.984574  L 734.88 480.984574  L 712.545078 480.984574  L 690.210156 480.984574  L 667.875234 480.984574  L 645.540313 480.984574  L 623.205391 480.984574  L 600.870469 480.984574  L 578.535547 480.984574  L 556.200625 480.984574  L 533.865703 480.984574  L 511.530781 480.984574  L 489.195859 480.984574  L 466.860938 480.984574  L 444.526016 480.984574  L 422.191094 480.984574  L 399.856172 480.984574  L 377.52125 480.984574  L 355.186328 480.984574  L 332.851406 480.984574  L 310.516484 480.984574  L 288.181563 480.984574  L 265.846641 480.984574  L 243.511719 480.984574  L 221.176797 480.984574  L 198.841875 480.984574  L 176.506953 480.984574  L 154.172031 480.984574  L 131.837109 480.984574  L 109.502187 480.984574  L 87.167266 480.984574  L 64.832344 480.984574  z " clip-path="url(#pf04a8685f8)" style="fill: #e0e0e0; fill-opacity: 0.219608"/>
   </g>
   <g id="line2d_64">
    <path d="M 64.832344 656.218947  L 87.167266 656.218947  L 109.502187 656.218947  L 131.837109 656.218947  L 154.172031 656.218947  L 176.506953 656.218947  L 198.841875 656.218947  L 221.176797 656.218947  L 243.511719 656.218947  L 265.846641 656.218947  L 288.181563 656.218947  L 310.516484 656.218947  L 332.851406 656.218947  L 355.186328 656.218947  L 377.52125 656.218947  L 399.856172 656.218947  L 422.191094 656.218947  L 444.526016 656.218947  L 466.860938 656.218947  L 489.195859 656.218947  L 511.530781 656.218947  L 533.865703 656.218947  L 556.200625 656.218947  L 578.535547 656.218947  L 600.870469 656.218947  L 623.205391 656.218947  L 645.540313 656.218947  L 667.875234 656.218947  L 690.210156 656.218947  L 712.545078 656.218947  L 734.88 656.218947  " clip-path="url(#pf04a8685f8)" style="fill: none; stroke: #000000; stroke-opacity: 0; stroke-width: 0.886227; stroke-linejoin: miter"/>
   </g>
   <g id="line2d_65">
    <path d="M 64.832344 480.984574  L 87.167266 480.984574  L 109.502187 480.984574  L 131.837109 480.984574  L 154.172031 480.984574  L 176.506953 480.984574  L 198.841875 480.984574  L 221.176797 480.984574  L 243.511719 480.984574  L 265.846641 480.984574  L 288.181563 480.984574  L 310.516484 480.984574  L 332.851406 480.984574  L 355.186328 480.984574  L 377.52125 480.984574  L 399.856172 480.984574  L 422.191094 480.984574  L 444.526016 480.984574  L 466.860938 480.984574  L 489.195859 480.984574  L 511.530781 480.984574  L 533.865703 480.984574  L 556.200625 480.984574  L 578.535547 480.984574  L 600.870469 480.984574  L 623.205391 480.984574  L 645.540313 480.984574  L 667.875234 480.984574  L 690.210156 480.984574  L 712.545078 480.984574  L 734.88 480.984574  " clip-path="url(#pf04a8685f8)" style="fill: none; stroke: #000000; stroke-opacity: 0; stroke-width: 0.886227; stroke-linejoin: miter"/>
   </g>
   <g id="FillBetweenPolyCollection_13">
    <path d="M 64.832344 506.283836  L 64.832344 506.283836  L 87.167266 506.53851  L 109.502187 506.770469  L 131.837109 507.127806  L 154.172031 507.244991  L 176.506953 507.167823  L 198.841875 507.416017  L 221.176797 506.858957  L 243.511719 506.037632  L 265.846641 504.907548  L 288.181563 503.757321  L 310.516484 502.141166  L 332.851406 500.354592  L 355.186328 498.560458  L 377.52125 496.786302  L 399.856172 494.700635  L 422.191094 492.823469  L 444.526016 490.812053  L 466.860938 488.38346  L 489.195859 486.49686  L 511.530781 483.82563  L 533.865703 480.443378  L 556.200625 477.039128  L 578.535547 474.030364  L 600.870469 470.766198  L 623.205391 468.292089  L 645.540313 466.868796  L 667.875234 466.056624  L 690.210156 465.407016  L 712.545078 465.008421  L 734.88 464.895707  L 734.88 393.672606  L 734.88 393.672606  L 712.545078 395.523191  L 690.210156 398.318728  L 667.875234 401.500914  L 645.540313 405.072352  L 623.205391 409.844759  L 600.870469 416.103544  L 578.535547 423.648544  L 556.200625 430.814517  L 533.865703 438.666471  L 511.530781 446.810219  L 489.195859 453.804609  L 466.860938 459.432671  L 444.526016 465.815047  L 422.191094 471.440964  L 399.856172 476.651913  L 377.52125 482.12938  L 355.186328 486.82523  L 332.851406 491.46807  L 310.516484 496.25625  L 288.181563 500.480829  L 265.846641 503.179225  L 243.511719 505.732281  L 221.176797 507.519062  L 198.841875 508.649039  L 176.506953 508.132173  L 154.172031 508.300544  L 131.837109 508.050799  L 109.502187 507.266155  L 87.167266 506.713061  L 64.832344 506.283836  z " clip-path="url(#pf04a8685f8)" style="fill: #ffc729"/>
   </g>
   <g id="line2d_66">
    <path d="M 64.832344 506.283836  L 87.167266 506.53851  L 109.502187 506.770469  L 131.837109 507.127806  L 154.172031 507.244991  L 176.506953 507.167823  L 198.841875 507.416017  L 221.176797 506.858957  L 243.511719 506.037632  L 265.846641 504.907548  L 288.181563 503.757321  L 310.516484 502.141166  L 332.851406 500.354592  L 355.186328 498.560458  L 377.52125 496.786302  L 399.856172 494.700635  L 422.191094 492.823469  L 444.526016 490.812053  L 466.860938 488.38346  L 489.195859 486.49686  L 511.530781 483.82563  L 533.865703 480.443378  L 556.200625 477.039128  L 578.535547 474.030364  L 600.870469 470.766198  L 623.205391 468.292089  L 645.540313 466.868796  L 667.875234 466.056624  L 690.210156 465.407016  L 712.545078 465.008421  L 734.88 464.895707  " clip-path="url(#pf04a8685f8)" style="fill: none; stroke: #000000; stroke-opacity: 0; stroke-width: 0.886227; stroke-linejoin: miter"/>
   </g>
   <g id="line2d_67">
    <path d="M 64.832344 506.283836  L 87.167266 506.713061  L 109.502187 507.266155  L 131.837109 508.050799  L 154.172031 508.300544  L 176.506953 508.132173  L 198.841875 508.649039  L 221.176797 507.519062  L 243.511719 505.732281  L 265.846641 503.179225  L 288.181563 500.480829  L 310.516484 496.25625  L 332.851406 491.46807  L 355.186328 486.82523  L 377.52125 482.12938  L 399.856172 476.651913  L 422.191094 471.440964  L 444.526016 465.815047  L 466.860938 459.432671  L 489.195859 453.804609  L 511.530781 446.810219  L 533.865703 438.666471  L 556.200625 430.814517  L 578.535547 423.648544  L 600.870469 416.103544  L 623.205391 409.844759  L 645.540313 405.072352  L 667.875234 401.500914  L 690.210156 398.318728  L 712.545078 395.523191  L 734.88 393.672606  " clip-path="url(#pf04a8685f8)" style="fill: none; stroke: #000000; stroke-opacity: 0; stroke-width: 0.886227; stroke-linejoin: miter"/>
   </g>
   <g id="FillBetweenPolyCollection_14">
    <path d="M 64.832344 506.283836  L 64.832344 506.283836  L 87.167266 506.283836  L 109.502187 506.283836  L 131.837109 506.283836  L 154.172031 506.283836  L 176.506953 506.283836  L 198.841875 506.283836  L 221.176797 506.276919  L 243.511719 506.283836  L 265.846641 506.283836  L 288.181563 506.283836  L 310.516484 506.283836  L 332.851406 506.283836  L 355.186328 506.283836  L 377.52125 506.283836  L 399.856172 506.283836  L 422.191094 506.283836  L 444.526016 506.283836  L 466.860938 506.283836  L 489.195859 506.283836  L 511.530781 506.283836  L 533.865703 506.283836  L 556.200625 506.283836  L 578.535547 506.283836  L 600.870469 506.283836  L 623.205391 506.283836  L 645.540313 506.283836  L 667.875234 506.283836  L 690.210156 506.283836  L 712.545078 506.283836  L 734.88 506.283836  L 734.88 464.895707  L 734.88 464.895707  L 712.545078 465.008421  L 690.210156 465.407016  L 667.875234 466.056624  L 645.540313 466.868796  L 623.205391 468.292089  L 600.870469 470.766198  L 578.535547 474.030364  L 556.200625 477.039128  L 533.865703 480.443378  L 511.530781 483.82563  L 489.195859 486.49686  L 466.860938 488.38346  L 444.526016 490.812053  L 422.191094 492.823469  L 399.856172 494.700635  L 377.52125 496.786302  L 355.186328 498.560458  L 332.851406 500.354592  L 310.516484 502.141166  L 288.181563 503.757321  L 265.846641 504.907548  L 243.511719 506.037632  L 221.176797 506.858957  L 198.841875 507.416017  L 176.506953 507.167823  L 154.172031 507.244991  L 131.837109 507.127806  L 109.502187 506.770469  L 87.167266 506.53851  L 64.832344 506.283836  z " clip-path="url(#pf04a8685f8)" style="fill: #fc9706"/>
   </g>
   <g id="line2d_68">
    <path d="M 64.832344 506.283836  L 87.167266 506.283836  L 109.502187 506.283836  L 131.837109 506.283836  L 154.172031 506.283836  L 176.506953 506.283836  L 198.841875 506.283836  L 221.176797 506.276919  L 243.511719 506.283836  L 265.846641 506.283836  L 288.181563 506.283836  L 310.516484 506.283836  L 332.851406 506.283836  L 355.186328 506.283836  L 377.52125 506.283836  L 399.856172 506.283836  L 422.191094 506.283836  L 444.526016 506.283836  L 466.860938 506.283836  L 489.195859 506.283836  L 511.530781 506.283836  L 533.865703 506.283836  L 556.200625 506.283836  L 578.535547 506.283836  L 600.870469 506.283836  L 623.205391 506.283836  L 645.540313 506.283836  L 667.875234 506.283836  L 690.210156 506.283836  L 712.545078 506.283836  L 734.88 506.283836  " clip-path="url(#pf04a8685f8)" style="fill: none; stroke: #000000; stroke-opacity: 0; stroke-width: 0.886227; stroke-linejoin: miter"/>
   </g>
   <g id="line2d_69">
    <path d="M 64.832344 506.283836  L 87.167266 506.53851  L 109.502187 506.770469  L 131.837109 507.127806  L 154.172031 507.244991  L 176.506953 507.167823  L 198.841875 507.416017  L 221.176797 506.858957  L 243.511719 506.037632  L 265.846641 504.907548  L 288.181563 503.757321  L 310.516484 502.141166  L 332.851406 500.354592  L 355.186328 498.560458  L 377.52125 496.786302  L 399.856172 494.700635  L 422.191094 492.823469  L 444.526016 490.812053  L 466.860938 488.38346  L 489.195859 486.49686  L 511.530781 483.82563  L 533.865703 480.443378  L 556.200625 477.039128  L 578.535547 474.030364  L 600.870469 470.766198  L 623.205391 468.292089  L 645.540313 466.868796  L 667.875234 466.056624  L 690.210156 465.407016  L 712.545078 465.008421  L 734.88 464.895707  " clip-path="url(#pf04a8685f8)" style="fill: none; stroke: #000000; stroke-opacity: 0; stroke-width: 0.886227; stroke-linejoin: miter"/>
   </g>
   <g id="FillBetweenPolyCollection_15">
    <path d="M 64.832344 506.283836  L 64.832344 506.283836  L 87.167266 506.283836  L 109.502187 506.283836  L 131.837109 506.283836  L 154.172031 506.283836  L 176.506953 506.283836  L 198.841875 506.283836  L 221.176797 506.283836  L 243.511719 506.283836  L 265.846641 506.283836  L 288.181563 506.283836  L 310.516484 506.283836  L 332.851406 506.283836  L 355.186328 506.283836  L 377.52125 506.283836  L 399.856172 506.283836  L 422.191094 506.283836  L 444.526016 506.283836  L 466.860938 506.283836  L 489.195859 506.283836  L 511.530781 506.283836  L 533.865703 506.283836  L 556.200625 506.283836  L 578.535547 506.283836  L 600.870469 506.283836  L 623.205391 506.283836  L 645.540313 506.283836  L 667.875234 506.283836  L 690.210156 506.283836  L 712.545078 506.283836  L 734.88 506.283836  L 734.88 506.283836  L 734.88 506.283836  L 712.545078 506.283836  L 690.210156 506.283836  L 667.875234 506.283836  L 645.540313 506.283836  L 623.205391 506.283836  L 600.870469 506.283836  L 578.535547 506.283836  L 556.200625 506.283836  L 533.865703 506.283836  L 511.530781 506.283836  L 489.195859 506.283836  L 466.860938 506.283836  L 444.526016 506.283836  L 422.191094 506.283836  L 399.856172 506.283836  L 377.52125 506.283836  L 355.186328 506.283836  L 332.851406 506.283836  L 310.516484 506.283836  L 288.181563 506.283836  L 265.846641 506.283836  L 243.511719 506.283836  L 221.176797 506.276919  L 198.841875 506.283836  L 176.506953 506.283836  L 154.172031 506.283836  L 131.837109 506.283836  L 109.502187 506.283836  L 87.167266 506.283836  L 64.832344 506.283836  z " clip-path="url(#pf04a8685f8)" style="fill: #999999"/>
   </g>
   <g id="line2d_70">
    <path d="M 64.832344 506.283836  L 87.167266 506.283836  L 109.502187 506.283836  L 131.837109 506.283836  L 154.172031 506.283836  L 176.506953 506.283836  L 198.841875 506.283836  L 221.176797 506.283836  L 243.511719 506.283836  L 265.846641 506.283836  L 288.181563 506.283836  L 310.516484 506.283836  L 332.851406 506.283836  L 355.186328 506.283836  L 377.52125 506.283836  L 399.856172 506.283836  L 422.191094 506.283836  L 444.526016 506.283836  L 466.860938 506.283836  L 489.195859 506.283836  L 511.530781 506.283836  L 533.865703 506.283836  L 556.200625 506.283836  L 578.535547 506.283836  L 600.870469 506.283836  L 623.205391 506.283836  L 645.540313 506.283836  L 667.875234 506.283836  L 690.210156 506.283836  L 712.545078 506.283836  L 734.88 506.283836  " clip-path="url(#pf04a8685f8)" style="fill: none; stroke: #000000; stroke-opacity: 0; stroke-width: 0.886227; stroke-linejoin: miter"/>
   </g>
   <g id="line2d_71">
    <path d="M 64.832344 506.283836  L 87.167266 506.283836  L 109.502187 506.283836  L 131.837109 506.283836  L 154.172031 506.283836  L 176.506953 506.283836  L 198.841875 506.283836  L 221.176797 506.276919  L 243.511719 506.283836  L 265.846641 506.283836  L 288.181563 506.283836  L 310.516484 506.283836  L 332.851406 506.283836  L 355.186328 506.283836  L 377.52125 506.283836  L 399.856172 506.283836  L 422.191094 506.283836  L 444.526016 506.283836  L 466.860938 506.283836  L 489.195859 506.283836  L 511.530781 506.283836  L 533.865703 506.283836  L 556.200625 506.283836  L 578.535547 506.283836  L 600.870469 506.283836  L 623.205391 506.283836  L 645.540313 506.283836  L 667.875234 506.283836  L 690.210156 506.283836  L 712.545078 506.283836  L 734.88 506.283836  " clip-path="url(#pf04a8685f8)" style="fill: none; stroke: #000000; stroke-opacity: 0; stroke-width: 0.886227; stroke-linejoin: miter"/>
   </g>
   <g id="FillBetweenPolyCollection_16">
    <path d="M 64.832344 506.283836  L 64.832344 656.218947  L 87.167266 656.218947  L 109.502187 656.218947  L 131.837109 656.218947  L 154.172031 656.218947  L 176.506953 656.218947  L 198.841875 656.218947  L 221.176797 656.218947  L 243.511719 656.218947  L 265.846641 656.218947  L 288.181563 656.218947  L 310.516484 656.218947  L 332.851406 656.218947  L 355.186328 656.218947  L 377.52125 656.218947  L 399.856172 656.218947  L 422.191094 656.218947  L 444.526016 656.218947  L 466.860938 656.218947  L 489.195859 656.218947  L 511.530781 656.218947  L 533.865703 656.218947  L 556.200625 656.218947  L 578.535547 656.218947  L 600.870469 656.218947  L 623.205391 656.218947  L 645.540313 656.218947  L 667.875234 656.218947  L 690.210156 656.218947  L 712.545078 656.218947  L 734.88 656.218947  L 734.88 506.283836  L 734.88 506.283836  L 712.545078 506.283836  L 690.210156 506.283836  L 667.875234 506.283836  L 645.540313 506.283836  L 623.205391 506.283836  L 600.870469 506.283836  L 578.535547 506.283836  L 556.200625 506.283836  L 533.865703 506.283836  L 511.530781 506.283836  L 489.195859 506.283836  L 466.860938 506.283836  L 444.526016 506.283836  L 422.191094 506.283836  L 399.856172 506.283836  L 377.52125 506.283836  L 355.186328 506.283836  L 332.851406 506.283836  L 310.516484 506.283836  L 288.181563 506.283836  L 265.846641 506.283836  L 243.511719 506.283836  L 221.176797 506.283836  L 198.841875 506.283836  L 176.506953 506.283836  L 154.172031 506.283836  L 131.837109 506.283836  L 109.502187 506.283836  L 87.167266 506.283836  L 64.832344 506.283836  z " clip-path="url(#pf04a8685f8)" style="fill: #e0e0e0"/>
   </g>
   <g id="line2d_72">
    <path d="M 64.832344 656.218947  L 87.167266 656.218947  L 109.502187 656.218947  L 131.837109 656.218947  L 154.172031 656.218947  L 176.506953 656.218947  L 198.841875 656.218947  L 221.176797 656.218947  L 243.511719 656.218947  L 265.846641 656.218947  L 288.181563 656.218947  L 310.516484 656.218947  L 332.851406 656.218947  L 355.186328 656.218947  L 377.52125 656.218947  L 399.856172 656.218947  L 422.191094 656.218947  L 444.526016 656.218947  L 466.860938 656.218947  L 489.195859 656.218947  L 511.530781 656.218947  L 533.865703 656.218947  L 556.200625 656.218947  L 578.535547 656.218947  L 600.870469 656.218947  L 623.205391 656.218947  L 645.540313 656.218947  L 667.875234 656.218947  L 690.210156 656.218947  L 712.545078 656.218947  L 734.88 656.218947  " clip-path="url(#pf04a8685f8)" style="fill: none; stroke: #000000; stroke-opacity: 0; stroke-width: 0.886227; stroke-linejoin: miter"/>
   </g>
   <g id="line2d_73">
    <path d="M 64.832344 506.283836  L 87.167266 506.283836  L 109.502187 506.283836  L 131.837109 506.283836  L 154.172031 506.283836  L 176.506953 506.283836  L 198.841875 506.283836  L 221.176797 506.283836  L 243.511719 506.283836  L 265.846641 506.283836  L 288.181563 506.283836  L 310.516484 506.283836  L 332.851406 506.283836  L 355.186328 506.283836  L 377.52125 506.283836  L 399.856172 506.283836  L 422.191094 506.283836  L 444.526016 506.283836  L 466.860938 506.283836  L 489.195859 506.283836  L 511.530781 506.283836  L 533.865703 506.283836  L 556.200625 506.283836  L 578.535547 506.283836  L 600.870469 506.283836  L 623.205391 506.283836  L 645.540313 506.283836  L 667.875234 506.283836  L 690.210156 506.283836  L 712.545078 506.283836  L 734.88 506.283836  " clip-path="url(#pf04a8685f8)" style="fill: none; stroke: #000000; stroke-opacity: 0; stroke-width: 0.886227; stroke-linejoin: miter"/>
   </g>
   <g id="text_20">
    <text style="font-size: 9px; font-family: 'IBM Plex Sans'; fill: #a0af12" transform="translate(437.697909 353.927697)">Capacity</text>
    <text style="font-size: 9px; font-family: 'IBM Plex Sans'; fill: #a0af12" transform="translate(430.308065 363.719697)">exhausted</text>
    <text style="font-size: 9px; font-family: 'IBM Plex Sans'; fill: #a0af12" transform="translate(445.54619 373.511697)">~2044</text>
   </g>
   <g id="line2d_74">
    <path d="M 479.246667 656.218947  L 479.246667 358.632368  " clip-path="url(#pf04a8685f8)" style="fill: none; stroke-dasharray: 2.775,1.2; stroke-dashoffset: 0; stroke: #a0af12; stroke-width: 0.75"/>
   </g>
   <g id="line2d_75">
    <path d="M 296.647218 480.984574  L 310.516484 480.984574  L 332.851406 480.984574  L 355.186328 480.984574  L 377.52125 480.984574  L 399.856172 480.984574  L 422.191094 480.984574  L 444.526016 480.984574  L 466.860938 480.984574  L 489.195859 480.984574  L 511.530781 480.984574  L 533.865703 480.984574  L 556.200625 480.984574  L 578.535547 480.984574  L 600.870469 480.984574  L 623.205391 480.984574  L 645.540313 480.984574  L 667.875234 480.984574  L 690.210156 480.984574  L 712.545078 480.984574  L 734.88 480.984574  " clip-path="url(#pf04a8685f8)" style="fill: none; stroke-dasharray: 0.35,1.25; stroke-dashoffset: 0; stroke: #999999"/>
   </g>
   <g id="patch_5">
    <path d="M 64.832344 656.218947  L 734.88 656.218947  " style="fill: none; stroke: #000000; stroke-width: 0.5; stroke-linejoin: miter; stroke-linecap: square"/>
   </g>
  </g>
  <g id="text_21">
   <text style="font-size: 13px; font-family: 'GT Planar'; fill: #333333" transform="translate(16.3 361.590259) rotate(-90)">MW</text>
  </g>
  <g id="text_22">
   <text style="font-weight: 700; font-size: 15px; font-family: 'GT Planar'; text-anchor: start" x="65.2125" y="17.7" transform="rotate(-0 65.2125 17.7)">NYSEG &amp; RGE: </text>
  </g>
  <g id="text_23">
   <text style="font-weight: 700; font-size: 15px; font-family: 'GT Planar'; text-anchor: start; fill: #ffc729" x="173.49375" y="17.7" transform="rotate(-0 173.49375 17.7)">building electrification </text>
  </g>
  <g id="text_24">
   <text style="font-weight: 700; font-size: 15px; font-family: 'GT Planar'; text-anchor: start" x="340.74375" y="17.7" transform="rotate(-0 340.74375 17.7)"> starts causing distribution upgrades around </text>
  </g>
  <g id="text_25">
   <text style="font-weight: 700; font-size: 15px; font-family: 'GT Planar'; text-anchor: start; fill: #a0af12" x="659.9625" y="17.7" transform="rotate(-0 659.9625 17.7)">2038</text>
  </g>
  <g id="text_26">
   <text style="font-size: 12px; font-family: 'GT Planar'; text-anchor: middle; fill: #333333" x="96.991811" y="37.973789" transform="rotate(-0 96.991811 37.973789)">Baseline</text>
  </g>
  <g id="text_27">
   <text style="font-size: 12px; font-family: 'GT Planar'; text-anchor: middle; fill: #333333" x="114.187436" y="353.680368" transform="rotate(-0 114.187436 353.680368)">Lower demand</text>
  </g>
 </g>
 <defs>
  <clipPath id="pb760f113c1">
   <rect x="64.832344" y="42.925789" width="670.047656" height="297.586579"/>
  </clipPath>
  <clipPath id="pf04a8685f8">
   <rect x="64.832344" y="358.632368" width="670.047656" height="297.586579"/>
  </clipPath>
 </defs>
</svg>
