<?xml version="1.0" encoding="utf-8" standalone="no"?>
<!DOCTYPE svg PUBLIC "-//W3C//DTD SVG 1.1//EN"
  "http://www.w3.org/Graphics/SVG/1.1/DTD/svg11.dtd">
<svg xmlns:xlink="http://www.w3.org/1999/xlink" width="756pt" height="360pt" viewBox="0 0 756 360" xmlns="http://www.w3.org/2000/svg" version="1.1">
 <metadata>
  <rdf:RDF xmlns:dc="http://purl.org/dc/elements/1.1/" xmlns:cc="http://creativecommons.org/ns#" xmlns:rdf="http://www.w3.org/1999/02/22-rdf-syntax-ns#">
   <cc:Work>
    <dc:type rdf:resource="http://purl.org/dc/dcmitype/StillImage"/>
    <dc:date>2026-04-24T21:09:50.411162</dc:date>
    <dc:format>image/svg+xml</dc:format>
    <dc:creator>
     <cc:Agent>
      <dc:title>Matplotlib v3.10.8, https://matplotlib.org/</dc:title>
     </cc:Agent>
    </dc:creator>
   </cc:Work>
  </rdf:RDF>
 </metadata>
 <defs>
  <style type="text/css">*{stroke-linejoin: round; stroke-linecap: butt}</style>
 </defs>
 <g id="figure_1">
  <g id="patch_1">
   <path d="M 0 360
L 756 360
L 756 0
L 0 0
z
" style="fill: #ffffff"/>
  </g>
  <g id="axes_1">
   <g id="patch_2">
    <path d="M 65.192344 308.91
L 660.395938 308.91
L 660.395938 67.511875
L 65.192344 67.511875
z
" style="fill: #ffffff"/>
   </g>
   <g id="matplotlib.axis_1">
    <g id="xtick_1">
     <g id="line2d_1">
      <path d="M 92.247053 308.91
" style="fill: none; stroke: #000000; stroke-width: 1.5; stroke-linecap: square"/>
      <defs>
       <path id="m60775bc028" d="M 0 0
L 0 2.75
" style="stroke: #000000"/>
      </defs>
      <g>
       <use xlink:href="#m60775bc028" x="92.247053" y="308.91" style="stroke: #000000"/>
      </g>
     </g>
     <g id="text_1">
      <text style="font-size: 11px; font-family: 'IBM Plex Sans'; text-anchor: middle; fill: #4d4d4d" x="92.247053" y="322" transform="rotate(-0 92.247053 322)">2025</text>
     </g>
    </g>
    <g id="xtick_2">
     <g id="line2d_2">
      <path d="M 182.429415 308.91
" style="fill: none; stroke: #000000; stroke-width: 1.5; stroke-linecap: square"/>
      <g>
       <use xlink:href="#m60775bc028" x="182.429415" y="308.91" style="stroke: #000000"/>
      </g>
     </g>
     <g id="text_2">
      <text style="font-size: 11px; font-family: 'IBM Plex Sans'; text-anchor: middle; fill: #4d4d4d" x="182.429415" y="322" transform="rotate(-0 182.429415 322)">2030</text>
     </g>
    </g>
    <g id="xtick_3">
     <g id="line2d_3">
      <path d="M 272.611778 308.91
" style="fill: none; stroke: #000000; stroke-width: 1.5; stroke-linecap: square"/>
      <g>
       <use xlink:href="#m60775bc028" x="272.611778" y="308.91" style="stroke: #000000"/>
      </g>
     </g>
     <g id="text_3">
      <text style="font-size: 11px; font-family: 'IBM Plex Sans'; text-anchor: middle; fill: #4d4d4d" x="272.611778" y="322" transform="rotate(-0 272.611778 322)">2035</text>
     </g>
    </g>
    <g id="xtick_4">
     <g id="line2d_4">
      <path d="M 362.794141 308.91
" style="fill: none; stroke: #000000; stroke-width: 1.5; stroke-linecap: square"/>
      <g>
       <use xlink:href="#m60775bc028" x="362.794141" y="308.91" style="stroke: #000000"/>
      </g>
     </g>
     <g id="text_4">
      <text style="font-size: 11px; font-family: 'IBM Plex Sans'; text-anchor: middle; fill: #4d4d4d" x="362.794141" y="322" transform="rotate(-0 362.794141 322)">2040</text>
     </g>
    </g>
    <g id="xtick_5">
     <g id="line2d_5">
      <path d="M 452.976503 308.91
" style="fill: none; stroke: #000000; stroke-width: 1.5; stroke-linecap: square"/>
      <g>
       <use xlink:href="#m60775bc028" x="452.976503" y="308.91" style="stroke: #000000"/>
      </g>
     </g>
     <g id="text_5">
      <text style="font-size: 11px; font-family: 'IBM Plex Sans'; text-anchor: middle; fill: #4d4d4d" x="452.976503" y="322" transform="rotate(-0 452.976503 322)">2045</text>
     </g>
    </g>
    <g id="xtick_6">
     <g id="line2d_6">
      <path d="M 543.158866 308.91
" style="fill: none; stroke: #000000; stroke-width: 1.5; stroke-linecap: square"/>
      <g>
       <use xlink:href="#m60775bc028" x="543.158866" y="308.91" style="stroke: #000000"/>
      </g>
     </g>
     <g id="text_6">
      <text style="font-size: 11px; font-family: 'IBM Plex Sans'; text-anchor: middle; fill: #4d4d4d" x="543.158866" y="322" transform="rotate(-0 543.158866 322)">2050</text>
     </g>
    </g>
    <g id="xtick_7">
     <g id="line2d_7">
      <path d="M 633.341229 308.91
" style="fill: none; stroke: #000000; stroke-width: 1.5; stroke-linecap: square"/>
      <g>
       <use xlink:href="#m60775bc028" x="633.341229" y="308.91" style="stroke: #000000"/>
      </g>
     </g>
     <g id="text_7">
      <text style="font-size: 11px; font-family: 'IBM Plex Sans'; text-anchor: middle; fill: #4d4d4d" x="633.341229" y="322" transform="rotate(-0 633.341229 322)">2055</text>
     </g>
    </g>
    <g id="xtick_8">
     <g id="line2d_8">
      <path d="M 137.338234 308.91
" style="fill: none; stroke: #000000; stroke-width: 1.5; stroke-linecap: square"/>
      <defs>
       <path id="mf0a835a1c2" d="M 0 0
L 0 1.375
" style="stroke: #000000"/>
      </defs>
      <g>
       <use xlink:href="#mf0a835a1c2" x="137.338234" y="308.91" style="stroke: #000000"/>
      </g>
     </g>
    </g>
    <g id="xtick_9">
     <g id="line2d_9">
      <path d="M 227.520597 308.91
" style="fill: none; stroke: #000000; stroke-width: 1.5; stroke-linecap: square"/>
      <g>
       <use xlink:href="#mf0a835a1c2" x="227.520597" y="308.91" style="stroke: #000000"/>
      </g>
     </g>
    </g>
    <g id="xtick_10">
     <g id="line2d_10">
      <path d="M 317.702959 308.91
" style="fill: none; stroke: #000000; stroke-width: 1.5; stroke-linecap: square"/>
      <g>
       <use xlink:href="#mf0a835a1c2" x="317.702959" y="308.91" style="stroke: #000000"/>
      </g>
     </g>
    </g>
    <g id="xtick_11">
     <g id="line2d_11">
      <path d="M 407.885322 308.91
" style="fill: none; stroke: #000000; stroke-width: 1.5; stroke-linecap: square"/>
      <g>
       <use xlink:href="#mf0a835a1c2" x="407.885322" y="308.91" style="stroke: #000000"/>
      </g>
     </g>
    </g>
    <g id="xtick_12">
     <g id="line2d_12">
      <path d="M 498.067685 308.91
" style="fill: none; stroke: #000000; stroke-width: 1.5; stroke-linecap: square"/>
      <g>
       <use xlink:href="#mf0a835a1c2" x="498.067685" y="308.91" style="stroke: #000000"/>
      </g>
     </g>
    </g>
    <g id="xtick_13">
     <g id="line2d_13">
      <path d="M 588.250047 308.91
" style="fill: none; stroke: #000000; stroke-width: 1.5; stroke-linecap: square"/>
      <g>
       <use xlink:href="#mf0a835a1c2" x="588.250047" y="308.91" style="stroke: #000000"/>
      </g>
     </g>
    </g>
   </g>
   <g id="matplotlib.axis_2">
    <g id="ytick_1">
     <g id="line2d_14">
      <path d="M 65.192344 298.986889
L 660.395938 298.986889
" clip-path="url(#peaeae1f674)" style="fill: none; stroke: #e5e5e5; stroke-linecap: square"/>
     </g>
     <g id="text_8">
      <text style="font-size: 11px; font-family: 'IBM Plex Sans'; text-anchor: start; fill: #4d4d4d" x="56.392344" y="303.056889" transform="rotate(-0 56.392344 303.056889)">0</text>
     </g>
    </g>
    <g id="ytick_2">
     <g id="line2d_15">
      <path d="M 65.192344 248.52868
L 660.395938 248.52868
" clip-path="url(#peaeae1f674)" style="fill: none; stroke: #e5e5e5; stroke-linecap: square"/>
     </g>
     <g id="text_9">
      <text style="font-size: 11px; font-family: 'IBM Plex Sans'; text-anchor: start; fill: #4d4d4d" x="33.6" y="252.59868" transform="rotate(-0 33.6 252.59868)">5,000</text>
     </g>
    </g>
    <g id="ytick_3">
     <g id="line2d_16">
      <path d="M 65.192344 198.070471
L 660.395938 198.070471
" clip-path="url(#peaeae1f674)" style="fill: none; stroke: #e5e5e5; stroke-linecap: square"/>
     </g>
     <g id="text_10">
      <text style="font-size: 11px; font-family: 'IBM Plex Sans'; text-anchor: start; fill: #4d4d4d" x="27" y="202.140471" transform="rotate(-0 27 202.140471)">10,000</text>
     </g>
    </g>
    <g id="ytick_4">
     <g id="line2d_17">
      <path d="M 65.192344 147.612263
L 660.395938 147.612263
" clip-path="url(#peaeae1f674)" style="fill: none; stroke: #e5e5e5; stroke-linecap: square"/>
     </g>
     <g id="text_11">
      <text style="font-size: 11px; font-family: 'IBM Plex Sans'; text-anchor: start; fill: #4d4d4d" x="27" y="151.682263" transform="rotate(-0 27 151.682263)">15,000</text>
     </g>
    </g>
    <g id="ytick_5">
     <g id="line2d_18">
      <path d="M 65.192344 97.154054
L 660.395938 97.154054
" clip-path="url(#peaeae1f674)" style="fill: none; stroke: #e5e5e5; stroke-linecap: square"/>
     </g>
     <g id="text_12">
      <text style="font-size: 11px; font-family: 'IBM Plex Sans'; text-anchor: start; fill: #4d4d4d" x="27" y="101.224054" transform="rotate(-0 27 101.224054)">20,000</text>
     </g>
    </g>
    <g id="ytick_6">
     <g id="line2d_19">
      <path d="M 65.192344 273.757784
L 660.395938 273.757784
" clip-path="url(#peaeae1f674)" style="fill: none; stroke: #fafafa; stroke-width: 0.5; stroke-linecap: square"/>
     </g>
    </g>
    <g id="ytick_7">
     <g id="line2d_20">
      <path d="M 65.192344 223.299576
L 660.395938 223.299576
" clip-path="url(#peaeae1f674)" style="fill: none; stroke: #fafafa; stroke-width: 0.5; stroke-linecap: square"/>
     </g>
    </g>
    <g id="ytick_8">
     <g id="line2d_21">
      <path d="M 65.192344 172.841367
L 660.395938 172.841367
" clip-path="url(#peaeae1f674)" style="fill: none; stroke: #fafafa; stroke-width: 0.5; stroke-linecap: square"/>
     </g>
    </g>
    <g id="ytick_9">
     <g id="line2d_22">
      <path d="M 65.192344 122.383159
L 660.395938 122.383159
" clip-path="url(#peaeae1f674)" style="fill: none; stroke: #fafafa; stroke-width: 0.5; stroke-linecap: square"/>
     </g>
    </g>
    <g id="ytick_10">
     <g id="line2d_23">
      <path d="M 65.192344 71.92495
L 660.395938 71.92495
" clip-path="url(#peaeae1f674)" style="fill: none; stroke: #fafafa; stroke-width: 0.5; stroke-linecap: square"/>
     </g>
    </g>
   </g>
   <g id="line2d_24">
    <path d="M 92.247053 297.7658
L 110.283525 295.353898
L 128.319998 292.275947
L 146.35647 288.753964
L 164.392943 285.009965
L 182.429415 281.1045
L 200.465888 277.017385
L 218.50236 272.516512
L 236.538833 267.611975
L 254.575305 261.86983
L 272.611778 255.532279
L 290.64825 246.197511
L 308.684723 235.278354
L 326.721196 223.07756
L 344.757668 211.098781
L 362.794141 198.756703
L 380.830613 187.423789
L 398.867086 176.48445
L 416.903558 165.857951
L 434.940031 155.34246
L 452.976503 146.037967
L 471.012976 137.258238
L 489.049448 128.882176
L 507.085921 119.940981
L 525.122393 112.069501
L 543.158866 104.702602
L 561.195339 97.487078
L 579.231811 90.412838
L 597.268284 84.499136
L 615.304756 80.422112
L 633.341229 78.484517
" clip-path="url(#peaeae1f674)" style="fill: none; stroke: #f8766d; stroke-width: 2.30419"/>
   </g>
   <g id="line2d_25">
    <path d="M 92.247053 297.937358
L 110.283525 296.252054
L 128.319998 294.052076
L 146.35647 292.41723
L 164.392943 290.651193
L 182.429415 288.723689
L 200.465888 286.120045
L 218.50236 282.799895
L 236.538833 277.259584
L 254.575305 272.13303
L 272.611778 266.683544
L 290.64825 258.842338
L 308.684723 250.849758
L 326.721196 244.027808
L 344.757668 236.943475
L 362.794141 228.678421
L 380.830613 220.635382
L 398.867086 212.158403
L 416.903558 203.600691
L 434.940031 194.61913
L 452.976503 185.688027
L 471.012976 176.272525
L 489.049448 167.583622
L 507.085921 158.914902
L 525.122393 150.579206
L 543.158866 142.233418
L 561.195339 134.543587
L 579.231811 127.348246
L 597.268284 120.697854
L 615.304756 114.40067
L 633.341229 109.264024
" clip-path="url(#peaeae1f674)" style="fill: none; stroke: #00bfc4; stroke-width: 2.30419"/>
   </g>
   <g id="patch_3">
    <path d="M 65.192344 308.91
L 660.395937 308.91
" style="fill: none; stroke: #000000; stroke-width: 0.5; stroke-linejoin: miter; stroke-linecap: square"/>
   </g>
  </g>
  <g id="text_13">
   <text style="font-weight: 700; font-size: 15px; font-family: 'GT Planar'; text-anchor: start" x="65.192344" y="18.299062" transform="rotate(-0 65.192344 18.299062)">NYCA Building Electrification Winter Coincident Peak Demand</text>
  </g>
  <g id="text_14">
   <text style="font-size: 13px; font-family: 'GT Planar'; fill: #333333" transform="translate(65.192344 47.081875)">Cumulative incremental load additions by scenario</text>
   <text style="font-size: 13px; font-family: 'GT Planar'; fill: #333333" transform="translate(65.192344 57.611875)">NYISO Gold Book 2025, Table I-13c / I-13c-L</text>
  </g>
  <g id="text_15">
   <text style="font-size: 13px; font-family: 'GT Planar'; text-anchor: start; fill: #333333" x="280.3975" y="350.1" transform="rotate(-0 280.3975 350.1)">Winter season starting year</text>
  </g>
  <g id="text_16">
   <text style="font-size: 13px; font-family: 'GT Planar'; fill: #333333" transform="translate(16.66 200.228828) rotate(-90)">MW</text>
  </g>
  <g id="text_17">
   <text style="font-size: 13px; font-family: 'GT Planar'; text-anchor: start; fill: #333333" x="684.075937" y="173.850937" transform="rotate(-0 684.075937 173.850937)">Scenario</text>
  </g>
  <g id="patch_4">
   <path d="M 685.075937 192.830938
L 698.915937 192.830938
L 698.915937 178.990938
L 685.075937 178.990938
z
" clip-path="url(#pa9551dc88a)" style="fill: #ffffff; stroke: #ffffff; stroke-linejoin: miter"/>
  </g>
  <g id="line2d_26">
   <path d="M 684.075937 185.910938
L 699.915937 185.910938
" clip-path="url(#pa9551dc88a)" style="fill: none; stroke: #f8766d; stroke-width: 2.30419"/>
  </g>
  <g id="text_18">
   <text style="font-size: 11px; font-family: 'IBM Plex Sans'; text-anchor: middle; fill: #4d4d4d" x="726.197969" y="188.880938" transform="rotate(-0 726.197969 188.880938)">Baseline</text>
  </g>
  <g id="patch_5">
   <path d="M 685.075937 210.670938
L 698.915937 210.670938
L 698.915937 196.830938
L 685.075937 196.830938
z
" clip-path="url(#pedfbd8883d)" style="fill: #ffffff; stroke: #ffffff; stroke-linejoin: miter"/>
  </g>
  <g id="line2d_27">
   <path d="M 684.075937 203.750938
L 699.915937 203.750938
" clip-path="url(#pedfbd8883d)" style="fill: none; stroke: #00bfc4; stroke-width: 2.30419"/>
  </g>
  <g id="text_19">
   <text style="font-size: 11px; font-family: 'IBM Plex Sans'; text-anchor: middle; fill: #4d4d4d" x="720.053437" y="206.720938" transform="rotate(-0 720.053437 206.720938)">Lower</text>
  </g>
 </g>
 <defs>
  <clipPath id="peaeae1f674">
   <rect x="65.192344" y="67.511875" width="595.203594" height="241.398125"/>
  </clipPath>
  <clipPath id="pa9551dc88a">
   <path d="M 684.075937 193.830938
L 684.075937 177.990938
L 699.915937 177.990938
L 699.915937 193.830938
"/>
  </clipPath>
  <clipPath id="pedfbd8883d">
   <path d="M 684.075937 211.670938
L 684.075937 195.830938
L 699.915937 195.830938
L 699.915937 211.670938
"/>
  </clipPath>
 </defs>
</svg>
