<svg xmlns:xlink="http://www.w3.org/1999/xlink" xmlns="http://www.w3.org/2000/svg" width="872.289727pt" height="678.828479pt" viewBox="0 0 872.289727 678.828479" version="1.1">
 <metadata>
  <rdf:RDF xmlns:dc="http://purl.org/dc/elements/1.1/" xmlns:cc="http://creativecommons.org/ns#" xmlns:rdf="http://www.w3.org/1999/02/22-rdf-syntax-ns#">
   <cc:Work>
    <dc:type rdf:resource="http://purl.org/dc/dcmitype/StillImage"/>
    <dc:date>2026-04-11T12:05:46.078361</dc:date>
    <dc:format>image/svg+xml</dc:format>
    <dc:creator>
     <cc:Agent>
      <dc:title>Matplotlib v3.10.8, https://matplotlib.org/</dc:title>
     </cc:Agent>
    </dc:creator>
   </cc:Work>
  </rdf:RDF>
 </metadata>
 <defs>
  <style type="text/css">*{stroke-linejoin: round; stroke-linecap: butt}</style>
 </defs>
 <g id="figure_1">
  <g id="patch_1">
   <path d="M 0 678.828479  L 872.289727 678.828479  L 872.289727 0  L 0 0  z " style="fill: #ffffff"/>
  </g>
  <g id="axes_1">
   <g id="patch_2">
    <path d="M 58.232344 340.6319  L 734.88 340.6319  L 734.88 43.045321  L 58.232344 43.045321  z " style="fill: #ffffff"/>
   </g>
   <g id="matplotlib.axis_1">
    <g id="xtick_1"/>
    <g id="xtick_2"/>
    <g id="xtick_3"/>
    <g id="xtick_4"/>
    <g id="xtick_5"/>
    <g id="xtick_6"/>
    <g id="xtick_7"/>
    <g id="xtick_8"/>
    <g id="xtick_9"/>
    <g id="xtick_10"/>
    <g id="xtick_11"/>
    <g id="xtick_12"/>
    <g id="xtick_13"/>
   </g>
   <g id="matplotlib.axis_2">
    <g id="ytick_1">
     <g id="line2d_1">
      <path d="M 58.232344 340.6319  L 734.88 340.6319  " clip-path="url(#pfc7bbe3371)" style="fill: none; stroke: #e5e5e5; stroke-linecap: square"/>
     </g>
    </g>
    <g id="ytick_2">
     <g id="line2d_2">
      <path d="M 58.232344 266.594337  L 734.88 266.594337  " clip-path="url(#pfc7bbe3371)" style="fill: none; stroke: #e5e5e5; stroke-linecap: square"/>
     </g>
     <g id="text_1">
      <text style="font-size: 11px; font-family: 'IBM Plex Sans'; text-anchor: start; fill: #4d4d4d" x="26.64" y="270.664337" transform="rotate(-0 26.64 270.664337)">1,000</text>
     </g>
    </g>
    <g id="ytick_3">
     <g id="line2d_3">
      <path d="M 58.232344 192.556775  L 734.88 192.556775  " clip-path="url(#pfc7bbe3371)" style="fill: none; stroke: #e5e5e5; stroke-linecap: square"/>
     </g>
     <g id="text_2">
      <text style="font-size: 11px; font-family: 'IBM Plex Sans'; text-anchor: start; fill: #4d4d4d" x="26.64" y="196.626775" transform="rotate(-0 26.64 196.626775)">2,000</text>
     </g>
    </g>
    <g id="ytick_4">
     <g id="line2d_4">
      <path d="M 58.232344 118.519212  L 734.88 118.519212  " clip-path="url(#pfc7bbe3371)" style="fill: none; stroke: #e5e5e5; stroke-linecap: square"/>
     </g>
     <g id="text_3">
      <text style="font-size: 11px; font-family: 'IBM Plex Sans'; text-anchor: start; fill: #4d4d4d" x="26.64" y="122.589212" transform="rotate(-0 26.64 122.589212)">3,000</text>
     </g>
    </g>
    <g id="ytick_5">
     <g id="line2d_5">
      <path d="M 58.232344 44.481649  L 734.88 44.481649  " clip-path="url(#pfc7bbe3371)" style="fill: none; stroke: #e5e5e5; stroke-linecap: square"/>
     </g>
     <g id="text_4">
      <text style="font-size: 11px; font-family: 'IBM Plex Sans'; text-anchor: start; fill: #4d4d4d" x="26.64" y="48.551649" transform="rotate(-0 26.64 48.551649)">4,000</text>
     </g>
    </g>
    <g id="ytick_6">
     <g id="line2d_6">
      <path d="M 58.232344 303.613118  L 734.88 303.613118  " clip-path="url(#pfc7bbe3371)" style="fill: none; stroke: #fafafa; stroke-width: 0.5; stroke-linecap: square"/>
     </g>
    </g>
    <g id="ytick_7">
     <g id="line2d_7">
      <path d="M 58.232344 229.575556  L 734.88 229.575556  " clip-path="url(#pfc7bbe3371)" style="fill: none; stroke: #fafafa; stroke-width: 0.5; stroke-linecap: square"/>
     </g>
    </g>
    <g id="ytick_8">
     <g id="line2d_8">
      <path d="M 58.232344 155.537993  L 734.88 155.537993  " clip-path="url(#pfc7bbe3371)" style="fill: none; stroke: #fafafa; stroke-width: 0.5; stroke-linecap: square"/>
     </g>
    </g>
    <g id="ytick_9">
     <g id="line2d_9">
      <path d="M 58.232344 81.500431  L 734.88 81.500431  " clip-path="url(#pfc7bbe3371)" style="fill: none; stroke: #fafafa; stroke-width: 0.5; stroke-linecap: square"/>
     </g>
    </g>
   </g>
   <g id="FillBetweenPolyCollection_1">
    <path d="M 58.232344 175.38006  L 58.232344 175.38006  L 80.787266 175.38006  L 103.342187 174.949574  L 125.897109 174.808626  L 148.452031 174.882925  L 171.006953 175.027424  L 193.561875 174.258518  L 216.116797 172.656765  L 238.671719 170.792604  L 261.226641 168.809102  L 283.781563 166.770252  L 306.336484 164.337073  L 328.891406 161.767117  L 351.446328 159.221521  L 374.00125 157.247515  L 396.556172 154.502468  L 419.111094 151.830456  L 441.666016 149.467698  L 464.220937 147.070322  L 486.775859 143.939114  L 509.330781 141.183669  L 531.885703 138.63748  L 554.440625 136.20507  L 576.995547 134.05608  L 599.550469 132.642655  L 622.105391 131.673219  L 644.660312 130.881102  L 667.215234 130.231259  L 689.770156 129.721438  L 712.325078 129.284187  L 734.88 128.914854  L 734.88 124.516255  L 734.88 124.516255  L 712.325078 124.886442  L 689.770156 125.330668  L 667.215234 125.848931  L 644.660312 126.515269  L 622.105391 127.329682  L 599.550469 128.366208  L 576.995547 129.920997  L 554.440625 132.290199  L 531.885703 134.955551  L 509.330781 137.768978  L 486.775859 140.804518  L 464.220937 144.284284  L 441.666016 146.949636  L 419.111094 149.614988  L 396.556172 152.576491  L 374.00125 155.612031  L 351.446328 157.833158  L 328.891406 160.646585  L 306.336484 163.460012  L 283.781563 166.125365  L 261.226641 168.346492  L 238.671719 170.493581  L 216.116797 172.492595  L 193.561875 174.195459  L 171.006953 175.009872  L 148.452031 174.861797  L 125.897109 174.78776  L 103.342187 174.935835  L 80.787266 175.38006  L 58.232344 175.38006  z " clip-path="url(#pfc7bbe3371)" style="fill: #ffc729; fill-opacity: 0.219608"/>
   </g>
   <g id="line2d_10">
    <path d="M 58.232344 175.38006  L 80.787266 175.38006  L 103.342187 174.949574  L 125.897109 174.808626  L 148.452031 174.882925  L 171.006953 175.027424  L 193.561875 174.258518  L 216.116797 172.656765  L 238.671719 170.792604  L 261.226641 168.809102  L 283.781563 166.770252  L 306.336484 164.337073  L 328.891406 161.767117  L 351.446328 159.221521  L 374.00125 157.247515  L 396.556172 154.502468  L 419.111094 151.830456  L 441.666016 149.467698  L 464.220937 147.070322  L 486.775859 143.939114  L 509.330781 141.183669  L 531.885703 138.63748  L 554.440625 136.20507  L 576.995547 134.05608  L 599.550469 132.642655  L 622.105391 131.673219  L 644.660312 130.881102  L 667.215234 130.231259  L 689.770156 129.721438  L 712.325078 129.284187  L 734.88 128.914854  " clip-path="url(#pfc7bbe3371)" style="fill: none; stroke: #000000; stroke-opacity: 0; stroke-width: 0.886227; stroke-linejoin: miter"/>
   </g>
   <g id="line2d_11">
    <path d="M 58.232344 175.38006  L 80.787266 175.38006  L 103.342187 174.935835  L 125.897109 174.78776  L 148.452031 174.861797  L 171.006953 175.009872  L 193.561875 174.195459  L 216.116797 172.492595  L 238.671719 170.493581  L 261.226641 168.346492  L 283.781563 166.125365  L 306.336484 163.460012  L 328.891406 160.646585  L 351.446328 157.833158  L 374.00125 155.612031  L 396.556172 152.576491  L 419.111094 149.614988  L 441.666016 146.949636  L 464.220937 144.284284  L 486.775859 140.804518  L 509.330781 137.768978  L 531.885703 134.955551  L 554.440625 132.290199  L 576.995547 129.920997  L 599.550469 128.366208  L 622.105391 127.329682  L 644.660312 126.515269  L 667.215234 125.848931  L 689.770156 125.330668  L 712.325078 124.886442  L 734.88 124.516255  " clip-path="url(#pfc7bbe3371)" style="fill: none; stroke: #000000; stroke-opacity: 0; stroke-width: 0.886227; stroke-linejoin: miter"/>
   </g>
   <g id="FillBetweenPolyCollection_2">
    <path d="M 58.232344 175.38006  L 58.232344 175.38006  L 80.787266 175.38006  L 103.342187 175.012162  L 125.897109 174.90012  L 148.452031 174.966195  L 171.006953 175.089654  L 193.561875 174.485979  L 216.116797 173.33276  L 238.671719 172.156442  L 261.226641 170.89557  L 283.781563 169.779725  L 306.336484 168.576198  L 328.891406 167.066928  L 351.446328 165.8957  L 374.00125 165.264944  L 396.556172 163.881977  L 419.111094 162.271875  L 441.666016 161.778222  L 464.220937 160.910638  L 486.775859 159.208395  L 509.330781 158.232376  L 531.885703 157.584071  L 554.440625 156.541383  L 576.995547 155.617585  L 599.550469 154.972205  L 622.105391 154.449641  L 644.660312 153.957649  L 667.215234 153.441368  L 689.770156 152.941339  L 712.325078 152.452793  L 734.88 151.974179  L 734.88 128.914854  L 734.88 128.914854  L 712.325078 129.284187  L 689.770156 129.721438  L 667.215234 130.231259  L 644.660312 130.881102  L 622.105391 131.673219  L 599.550469 132.642655  L 576.995547 134.05608  L 554.440625 136.20507  L 531.885703 138.63748  L 509.330781 141.183669  L 486.775859 143.939114  L 464.220937 147.070322  L 441.666016 149.467698  L 419.111094 151.830456  L 396.556172 154.502468  L 374.00125 157.247515  L 351.446328 159.221521  L 328.891406 161.767117  L 306.336484 164.337073  L 283.781563 166.770252  L 261.226641 168.809102  L 238.671719 170.792604  L 216.116797 172.656765  L 193.561875 174.258518  L 171.006953 175.027424  L 148.452031 174.882925  L 125.897109 174.808626  L 103.342187 174.949574  L 80.787266 175.38006  L 58.232344 175.38006  z " clip-path="url(#pfc7bbe3371)" style="fill: #fc9706; fill-opacity: 0.219608"/>
   </g>
   <g id="line2d_12">
    <path d="M 58.232344 175.38006  L 80.787266 175.38006  L 103.342187 175.012162  L 125.897109 174.90012  L 148.452031 174.966195  L 171.006953 175.089654  L 193.561875 174.485979  L 216.116797 173.33276  L 238.671719 172.156442  L 261.226641 170.89557  L 283.781563 169.779725  L 306.336484 168.576198  L 328.891406 167.066928  L 351.446328 165.8957  L 374.00125 165.264944  L 396.556172 163.881977  L 419.111094 162.271875  L 441.666016 161.778222  L 464.220937 160.910638  L 486.775859 159.208395  L 509.330781 158.232376  L 531.885703 157.584071  L 554.440625 156.541383  L 576.995547 155.617585  L 599.550469 154.972205  L 622.105391 154.449641  L 644.660312 153.957649  L 667.215234 153.441368  L 689.770156 152.941339  L 712.325078 152.452793  L 734.88 151.974179  " clip-path="url(#pfc7bbe3371)" style="fill: none; stroke: #000000; stroke-opacity: 0; stroke-width: 0.886227; stroke-linejoin: miter"/>
   </g>
   <g id="line2d_13">
    <path d="M 58.232344 175.38006  L 80.787266 175.38006  L 103.342187 174.949574  L 125.897109 174.808626  L 148.452031 174.882925  L 171.006953 175.027424  L 193.561875 174.258518  L 216.116797 172.656765  L 238.671719 170.792604  L 261.226641 168.809102  L 283.781563 166.770252  L 306.336484 164.337073  L 328.891406 161.767117  L 351.446328 159.221521  L 374.00125 157.247515  L 396.556172 154.502468  L 419.111094 151.830456  L 441.666016 149.467698  L 464.220937 147.070322  L 486.775859 143.939114  L 509.330781 141.183669  L 531.885703 138.63748  L 554.440625 136.20507  L 576.995547 134.05608  L 599.550469 132.642655  L 622.105391 131.673219  L 644.660312 130.881102  L 667.215234 130.231259  L 689.770156 129.721438  L 712.325078 129.284187  L 734.88 128.914854  " clip-path="url(#pfc7bbe3371)" style="fill: none; stroke: #000000; stroke-opacity: 0; stroke-width: 0.886227; stroke-linejoin: miter"/>
   </g>
   <g id="FillBetweenPolyCollection_3">
    <path d="M 58.232344 175.38006  L 58.232344 175.38006  L 80.787266 175.38006  L 103.342187 175.38006  L 125.897109 175.38006  L 148.452031 175.38006  L 171.006953 175.38006  L 193.561875 175.38006  L 216.116797 175.38006  L 238.671719 175.38006  L 261.226641 175.38006  L 283.781563 175.38006  L 306.336484 175.38006  L 328.891406 175.38006  L 351.446328 175.38006  L 374.00125 175.38006  L 396.556172 175.38006  L 419.111094 175.38006  L 441.666016 175.38006  L 464.220937 175.38006  L 486.775859 175.38006  L 509.330781 175.38006  L 531.885703 175.38006  L 554.440625 175.38006  L 576.995547 175.38006  L 599.550469 175.38006  L 622.105391 175.38006  L 644.660312 175.38006  L 667.215234 175.38006  L 689.770156 175.38006  L 712.325078 175.38006  L 734.88 175.38006  L 734.88 151.974179  L 734.88 151.974179  L 712.325078 152.452793  L 689.770156 152.941339  L 667.215234 153.441368  L 644.660312 153.957649  L 622.105391 154.449641  L 599.550469 154.972205  L 576.995547 155.617585  L 554.440625 156.541383  L 531.885703 157.584071  L 509.330781 158.232376  L 486.775859 159.208395  L 464.220937 160.910638  L 441.666016 161.778222  L 419.111094 162.271875  L 396.556172 163.881977  L 374.00125 165.264944  L 351.446328 165.8957  L 328.891406 167.066928  L 306.336484 168.576198  L 283.781563 169.779725  L 261.226641 170.89557  L 238.671719 172.156442  L 216.116797 173.33276  L 193.561875 174.485979  L 171.006953 175.089654  L 148.452031 174.966195  L 125.897109 174.90012  L 103.342187 175.012162  L 80.787266 175.38006  L 58.232344 175.38006  z " clip-path="url(#pfc7bbe3371)" style="fill: #999999; fill-opacity: 0.219608"/>
   </g>
   <g id="line2d_14">
    <path d="M 58.232344 175.38006  L 80.787266 175.38006  L 103.342187 175.38006  L 125.897109 175.38006  L 148.452031 175.38006  L 171.006953 175.38006  L 193.561875 175.38006  L 216.116797 175.38006  L 238.671719 175.38006  L 261.226641 175.38006  L 283.781563 175.38006  L 306.336484 175.38006  L 328.891406 175.38006  L 351.446328 175.38006  L 374.00125 175.38006  L 396.556172 175.38006  L 419.111094 175.38006  L 441.666016 175.38006  L 464.220937 175.38006  L 486.775859 175.38006  L 509.330781 175.38006  L 531.885703 175.38006  L 554.440625 175.38006  L 576.995547 175.38006  L 599.550469 175.38006  L 622.105391 175.38006  L 644.660312 175.38006  L 667.215234 175.38006  L 689.770156 175.38006  L 712.325078 175.38006  L 734.88 175.38006  " clip-path="url(#pfc7bbe3371)" style="fill: none; stroke: #000000; stroke-opacity: 0; stroke-width: 0.886227; stroke-linejoin: miter"/>
   </g>
   <g id="line2d_15">
    <path d="M 58.232344 175.38006  L 80.787266 175.38006  L 103.342187 175.012162  L 125.897109 174.90012  L 148.452031 174.966195  L 171.006953 175.089654  L 193.561875 174.485979  L 216.116797 173.33276  L 238.671719 172.156442  L 261.226641 170.89557  L 283.781563 169.779725  L 306.336484 168.576198  L 328.891406 167.066928  L 351.446328 165.8957  L 374.00125 165.264944  L 396.556172 163.881977  L 419.111094 162.271875  L 441.666016 161.778222  L 464.220937 160.910638  L 486.775859 159.208395  L 509.330781 158.232376  L 531.885703 157.584071  L 554.440625 156.541383  L 576.995547 155.617585  L 599.550469 154.972205  L 622.105391 154.449641  L 644.660312 153.957649  L 667.215234 153.441368  L 689.770156 152.941339  L 712.325078 152.452793  L 734.88 151.974179  " clip-path="url(#pfc7bbe3371)" style="fill: none; stroke: #000000; stroke-opacity: 0; stroke-width: 0.886227; stroke-linejoin: miter"/>
   </g>
   <g id="FillBetweenPolyCollection_4">
    <path d="M 58.232344 175.38006  L 58.232344 340.6319  L 80.787266 340.6319  L 103.342187 340.6319  L 125.897109 340.6319  L 148.452031 340.6319  L 171.006953 340.6319  L 193.561875 340.6319  L 216.116797 340.6319  L 238.671719 340.6319  L 261.226641 340.6319  L 283.781563 340.6319  L 306.336484 340.6319  L 328.891406 340.6319  L 351.446328 340.6319  L 374.00125 340.6319  L 396.556172 340.6319  L 419.111094 340.6319  L 441.666016 340.6319  L 464.220937 340.6319  L 486.775859 340.6319  L 509.330781 340.6319  L 531.885703 340.6319  L 554.440625 340.6319  L 576.995547 340.6319  L 599.550469 340.6319  L 622.105391 340.6319  L 644.660312 340.6319  L 667.215234 340.6319  L 689.770156 340.6319  L 712.325078 340.6319  L 734.88 340.6319  L 734.88 175.38006  L 734.88 175.38006  L 712.325078 175.38006  L 689.770156 175.38006  L 667.215234 175.38006  L 644.660312 175.38006  L 622.105391 175.38006  L 599.550469 175.38006  L 576.995547 175.38006  L 554.440625 175.38006  L 531.885703 175.38006  L 509.330781 175.38006  L 486.775859 175.38006  L 464.220937 175.38006  L 441.666016 175.38006  L 419.111094 175.38006  L 396.556172 175.38006  L 374.00125 175.38006  L 351.446328 175.38006  L 328.891406 175.38006  L 306.336484 175.38006  L 283.781563 175.38006  L 261.226641 175.38006  L 238.671719 175.38006  L 216.116797 175.38006  L 193.561875 175.38006  L 171.006953 175.38006  L 148.452031 175.38006  L 125.897109 175.38006  L 103.342187 175.38006  L 80.787266 175.38006  L 58.232344 175.38006  z " clip-path="url(#pfc7bbe3371)" style="fill: #e0e0e0; fill-opacity: 0.219608"/>
   </g>
   <g id="line2d_16">
    <path d="M 58.232344 340.6319  L 80.787266 340.6319  L 103.342187 340.6319  L 125.897109 340.6319  L 148.452031 340.6319  L 171.006953 340.6319  L 193.561875 340.6319  L 216.116797 340.6319  L 238.671719 340.6319  L 261.226641 340.6319  L 283.781563 340.6319  L 306.336484 340.6319  L 328.891406 340.6319  L 351.446328 340.6319  L 374.00125 340.6319  L 396.556172 340.6319  L 419.111094 340.6319  L 441.666016 340.6319  L 464.220937 340.6319  L 486.775859 340.6319  L 509.330781 340.6319  L 531.885703 340.6319  L 554.440625 340.6319  L 576.995547 340.6319  L 599.550469 340.6319  L 622.105391 340.6319  L 644.660312 340.6319  L 667.215234 340.6319  L 689.770156 340.6319  L 712.325078 340.6319  L 734.88 340.6319  " clip-path="url(#pfc7bbe3371)" style="fill: none; stroke: #000000; stroke-opacity: 0; stroke-width: 0.886227; stroke-linejoin: miter"/>
   </g>
   <g id="line2d_17">
    <path d="M 58.232344 175.38006  L 80.787266 175.38006  L 103.342187 175.38006  L 125.897109 175.38006  L 148.452031 175.38006  L 171.006953 175.38006  L 193.561875 175.38006  L 216.116797 175.38006  L 238.671719 175.38006  L 261.226641 175.38006  L 283.781563 175.38006  L 306.336484 175.38006  L 328.891406 175.38006  L 351.446328 175.38006  L 374.00125 175.38006  L 396.556172 175.38006  L 419.111094 175.38006  L 441.666016 175.38006  L 464.220937 175.38006  L 486.775859 175.38006  L 509.330781 175.38006  L 531.885703 175.38006  L 554.440625 175.38006  L 576.995547 175.38006  L 599.550469 175.38006  L 622.105391 175.38006  L 644.660312 175.38006  L 667.215234 175.38006  L 689.770156 175.38006  L 712.325078 175.38006  L 734.88 175.38006  " clip-path="url(#pfc7bbe3371)" style="fill: none; stroke: #000000; stroke-opacity: 0; stroke-width: 0.886227; stroke-linejoin: miter"/>
   </g>
   <g id="FillBetweenPolyCollection_5">
    <path d="M 58.232344 223.726588  L 58.232344 223.726588  L 80.787266 223.082089  L 103.342187 222.197954  L 125.897109 220.931357  L 148.452031 219.48135  L 171.006953 217.4223  L 193.561875 215.203969  L 216.116797 212.506356  L 238.671719 209.416371  L 261.226641 206.362216  L 283.781563 203.128766  L 306.336484 198.398009  L 328.891406 193.35822  L 351.446328 189.256172  L 374.00125 184.317022  L 396.556172 179.934516  L 419.111094 175.488128  L 441.666016 171.967364  L 464.220937 167.148135  L 486.775859 161.984122  L 509.330781 157.956879  L 531.885703 154.457256  L 554.440625 151.306059  L 576.995547 149.36309  L 599.550469 149.24828  L 622.105391 148.097819  L 644.660312 146.778824  L 667.215234 143.237876  L 689.770156 143.396931  L 712.325078 142.957637  L 734.88 142.15085  L 734.88 57.21611  L 734.88 57.21611  L 712.325078 58.104561  L 689.770156 59.65935  L 667.215234 62.69489  L 644.660312 67.877519  L 622.105391 73.282261  L 599.550469 78.612966  L 576.995547 82.907144  L 554.440625 89.570525  L 531.885703 95.567568  L 509.330781 101.934798  L 486.775859 108.598179  L 464.220937 118.074987  L 441.666016 127.033532  L 419.111094 135.399776  L 396.556172 144.950622  L 374.00125 154.72358  L 351.446328 164.866726  L 328.891406 173.899309  L 306.336484 183.376117  L 283.781563 191.668324  L 261.226641 197.221141  L 238.671719 202.329733  L 216.116797 207.068137  L 193.561875 211.140203  L 171.006953 214.471893  L 148.452031 217.433396  L 125.897109 219.654522  L 103.342187 221.579499  L 80.787266 222.912175  L 58.232344 223.726588  z " clip-path="url(#pfc7bbe3371)" style="fill: #ffc729"/>
   </g>
   <g id="line2d_18">
    <path d="M 58.232344 223.726588  L 80.787266 223.082089  L 103.342187 222.197954  L 125.897109 220.931357  L 148.452031 219.48135  L 171.006953 217.4223  L 193.561875 215.203969  L 216.116797 212.506356  L 238.671719 209.416371  L 261.226641 206.362216  L 283.781563 203.128766  L 306.336484 198.398009  L 328.891406 193.35822  L 351.446328 189.256172  L 374.00125 184.317022  L 396.556172 179.934516  L 419.111094 175.488128  L 441.666016 171.967364  L 464.220937 167.148135  L 486.775859 161.984122  L 509.330781 157.956879  L 531.885703 154.457256  L 554.440625 151.306059  L 576.995547 149.36309  L 599.550469 149.24828  L 622.105391 148.097819  L 644.660312 146.778824  L 667.215234 143.237876  L 689.770156 143.396931  L 712.325078 142.957637  L 734.88 142.15085  " clip-path="url(#pfc7bbe3371)" style="fill: none; stroke: #000000; stroke-opacity: 0; stroke-width: 0.886227; stroke-linejoin: miter"/>
   </g>
   <g id="line2d_19">
    <path d="M 58.232344 223.726588  L 80.787266 222.912175  L 103.342187 221.579499  L 125.897109 219.654522  L 148.452031 217.433396  L 171.006953 214.471893  L 193.561875 211.140203  L 216.116797 207.068137  L 238.671719 202.329733  L 261.226641 197.221141  L 283.781563 191.668324  L 306.336484 183.376117  L 328.891406 173.899309  L 351.446328 164.866726  L 374.00125 154.72358  L 396.556172 144.950622  L 419.111094 135.399776  L 441.666016 127.033532  L 464.220937 118.074987  L 486.775859 108.598179  L 509.330781 101.934798  L 531.885703 95.567568  L 554.440625 89.570525  L 576.995547 82.907144  L 599.550469 78.612966  L 622.105391 73.282261  L 644.660312 67.877519  L 667.215234 62.69489  L 689.770156 59.65935  L 712.325078 58.104561  L 734.88 57.21611  " clip-path="url(#pfc7bbe3371)" style="fill: none; stroke: #000000; stroke-opacity: 0; stroke-width: 0.886227; stroke-linejoin: miter"/>
   </g>
   <g id="FillBetweenPolyCollection_6">
    <path d="M 58.232344 223.726588  L 58.232344 223.726588  L 80.787266 223.398479  L 103.342187 222.968106  L 125.897109 222.363482  L 148.452031 221.998627  L 171.006953 221.381393  L 193.561875 220.96097  L 216.116797 220.132363  L 238.671719 219.755332  L 261.226641 219.431384  L 283.781563 218.499697  L 306.336484 217.676104  L 328.891406 216.824686  L 351.446328 216.154246  L 374.00125 215.554543  L 396.556172 215.117465  L 419.111094 214.863344  L 441.666016 214.419235  L 464.220937 213.754505  L 486.775859 212.761978  L 509.330781 211.568833  L 531.885703 210.657918  L 554.440625 210.073538  L 576.995547 210.077935  L 599.550469 210.194919  L 622.105391 210.335688  L 644.660312 210.485929  L 667.215234 208.204153  L 689.770156 208.309786  L 712.325078 208.787288  L 734.88 208.104568  L 734.88 142.15085  L 734.88 142.15085  L 712.325078 142.957637  L 689.770156 143.396931  L 667.215234 143.237876  L 644.660312 146.778824  L 622.105391 148.097819  L 599.550469 149.24828  L 576.995547 149.36309  L 554.440625 151.306059  L 531.885703 154.457256  L 509.330781 157.956879  L 486.775859 161.984122  L 464.220937 167.148135  L 441.666016 171.967364  L 419.111094 175.488128  L 396.556172 179.934516  L 374.00125 184.317022  L 351.446328 189.256172  L 328.891406 193.35822  L 306.336484 198.398009  L 283.781563 203.128766  L 261.226641 206.362216  L 238.671719 209.416371  L 216.116797 212.506356  L 193.561875 215.203969  L 171.006953 217.4223  L 148.452031 219.48135  L 125.897109 220.931357  L 103.342187 222.197954  L 80.787266 223.082089  L 58.232344 223.726588  z " clip-path="url(#pfc7bbe3371)" style="fill: #fc9706"/>
   </g>
   <g id="line2d_20">
    <path d="M 58.232344 223.726588  L 80.787266 223.398479  L 103.342187 222.968106  L 125.897109 222.363482  L 148.452031 221.998627  L 171.006953 221.381393  L 193.561875 220.96097  L 216.116797 220.132363  L 238.671719 219.755332  L 261.226641 219.431384  L 283.781563 218.499697  L 306.336484 217.676104  L 328.891406 216.824686  L 351.446328 216.154246  L 374.00125 215.554543  L 396.556172 215.117465  L 419.111094 214.863344  L 441.666016 214.419235  L 464.220937 213.754505  L 486.775859 212.761978  L 509.330781 211.568833  L 531.885703 210.657918  L 554.440625 210.073538  L 576.995547 210.077935  L 599.550469 210.194919  L 622.105391 210.335688  L 644.660312 210.485929  L 667.215234 208.204153  L 689.770156 208.309786  L 712.325078 208.787288  L 734.88 208.104568  " clip-path="url(#pfc7bbe3371)" style="fill: none; stroke: #000000; stroke-opacity: 0; stroke-width: 0.886227; stroke-linejoin: miter"/>
   </g>
   <g id="line2d_21">
    <path d="M 58.232344 223.726588  L 80.787266 223.082089  L 103.342187 222.197954  L 125.897109 220.931357  L 148.452031 219.48135  L 171.006953 217.4223  L 193.561875 215.203969  L 216.116797 212.506356  L 238.671719 209.416371  L 261.226641 206.362216  L 283.781563 203.128766  L 306.336484 198.398009  L 328.891406 193.35822  L 351.446328 189.256172  L 374.00125 184.317022  L 396.556172 179.934516  L 419.111094 175.488128  L 441.666016 171.967364  L 464.220937 167.148135  L 486.775859 161.984122  L 509.330781 157.956879  L 531.885703 154.457256  L 554.440625 151.306059  L 576.995547 149.36309  L 599.550469 149.24828  L 622.105391 148.097819  L 644.660312 146.778824  L 667.215234 143.237876  L 689.770156 143.396931  L 712.325078 142.957637  L 734.88 142.15085  " clip-path="url(#pfc7bbe3371)" style="fill: none; stroke: #000000; stroke-opacity: 0; stroke-width: 0.886227; stroke-linejoin: miter"/>
   </g>
   <g id="FillBetweenPolyCollection_7">
    <path d="M 58.232344 223.726588  L 58.232344 223.726588  L 80.787266 223.726588  L 103.342187 223.726588  L 125.897109 223.726588  L 148.452031 223.726588  L 171.006953 223.726588  L 193.561875 223.726588  L 216.116797 223.726588  L 238.671719 223.726588  L 261.226641 223.726588  L 283.781563 223.726588  L 306.336484 223.726588  L 328.891406 223.726588  L 351.446328 223.726588  L 374.00125 223.726588  L 396.556172 223.726588  L 419.111094 223.726588  L 441.666016 223.726588  L 464.220937 223.726588  L 486.775859 223.726588  L 509.330781 223.726588  L 531.885703 223.726588  L 554.440625 223.726588  L 576.995547 223.726588  L 599.550469 223.726588  L 622.105391 223.726588  L 644.660312 223.726588  L 667.215234 223.726588  L 689.770156 223.726588  L 712.325078 223.726588  L 734.88 223.726588  L 734.88 208.104568  L 734.88 208.104568  L 712.325078 208.787288  L 689.770156 208.309786  L 667.215234 208.204153  L 644.660312 210.485929  L 622.105391 210.335688  L 599.550469 210.194919  L 576.995547 210.077935  L 554.440625 210.073538  L 531.885703 210.657918  L 509.330781 211.568833  L 486.775859 212.761978  L 464.220937 213.754505  L 441.666016 214.419235  L 419.111094 214.863344  L 396.556172 215.117465  L 374.00125 215.554543  L 351.446328 216.154246  L 328.891406 216.824686  L 306.336484 217.676104  L 283.781563 218.499697  L 261.226641 219.431384  L 238.671719 219.755332  L 216.116797 220.132363  L 193.561875 220.96097  L 171.006953 221.381393  L 148.452031 221.998627  L 125.897109 222.363482  L 103.342187 222.968106  L 80.787266 223.398479  L 58.232344 223.726588  z " clip-path="url(#pfc7bbe3371)" style="fill: #999999"/>
   </g>
   <g id="line2d_22">
    <path d="M 58.232344 223.726588  L 80.787266 223.726588  L 103.342187 223.726588  L 125.897109 223.726588  L 148.452031 223.726588  L 171.006953 223.726588  L 193.561875 223.726588  L 216.116797 223.726588  L 238.671719 223.726588  L 261.226641 223.726588  L 283.781563 223.726588  L 306.336484 223.726588  L 328.891406 223.726588  L 351.446328 223.726588  L 374.00125 223.726588  L 396.556172 223.726588  L 419.111094 223.726588  L 441.666016 223.726588  L 464.220937 223.726588  L 486.775859 223.726588  L 509.330781 223.726588  L 531.885703 223.726588  L 554.440625 223.726588  L 576.995547 223.726588  L 599.550469 223.726588  L 622.105391 223.726588  L 644.660312 223.726588  L 667.215234 223.726588  L 689.770156 223.726588  L 712.325078 223.726588  L 734.88 223.726588  " clip-path="url(#pfc7bbe3371)" style="fill: none; stroke: #000000; stroke-opacity: 0; stroke-width: 0.886227; stroke-linejoin: miter"/>
   </g>
   <g id="line2d_23">
    <path d="M 58.232344 223.726588  L 80.787266 223.398479  L 103.342187 222.968106  L 125.897109 222.363482  L 148.452031 221.998627  L 171.006953 221.381393  L 193.561875 220.96097  L 216.116797 220.132363  L 238.671719 219.755332  L 261.226641 219.431384  L 283.781563 218.499697  L 306.336484 217.676104  L 328.891406 216.824686  L 351.446328 216.154246  L 374.00125 215.554543  L 396.556172 215.117465  L 419.111094 214.863344  L 441.666016 214.419235  L 464.220937 213.754505  L 486.775859 212.761978  L 509.330781 211.568833  L 531.885703 210.657918  L 554.440625 210.073538  L 576.995547 210.077935  L 599.550469 210.194919  L 622.105391 210.335688  L 644.660312 210.485929  L 667.215234 208.204153  L 689.770156 208.309786  L 712.325078 208.787288  L 734.88 208.104568  " clip-path="url(#pfc7bbe3371)" style="fill: none; stroke: #000000; stroke-opacity: 0; stroke-width: 0.886227; stroke-linejoin: miter"/>
   </g>
   <g id="FillBetweenPolyCollection_8">
    <path d="M 58.232344 223.726588  L 58.232344 340.6319  L 80.787266 340.6319  L 103.342187 340.6319  L 125.897109 340.6319  L 148.452031 340.6319  L 171.006953 340.6319  L 193.561875 340.6319  L 216.116797 340.6319  L 238.671719 340.6319  L 261.226641 340.6319  L 283.781563 340.6319  L 306.336484 340.6319  L 328.891406 340.6319  L 351.446328 340.6319  L 374.00125 340.6319  L 396.556172 340.6319  L 419.111094 340.6319  L 441.666016 340.6319  L 464.220937 340.6319  L 486.775859 340.6319  L 509.330781 340.6319  L 531.885703 340.6319  L 554.440625 340.6319  L 576.995547 340.6319  L 599.550469 340.6319  L 622.105391 340.6319  L 644.660312 340.6319  L 667.215234 340.6319  L 689.770156 340.6319  L 712.325078 340.6319  L 734.88 340.6319  L 734.88 223.726588  L 734.88 223.726588  L 712.325078 223.726588  L 689.770156 223.726588  L 667.215234 223.726588  L 644.660312 223.726588  L 622.105391 223.726588  L 599.550469 223.726588  L 576.995547 223.726588  L 554.440625 223.726588  L 531.885703 223.726588  L 509.330781 223.726588  L 486.775859 223.726588  L 464.220937 223.726588  L 441.666016 223.726588  L 419.111094 223.726588  L 396.556172 223.726588  L 374.00125 223.726588  L 351.446328 223.726588  L 328.891406 223.726588  L 306.336484 223.726588  L 283.781563 223.726588  L 261.226641 223.726588  L 238.671719 223.726588  L 216.116797 223.726588  L 193.561875 223.726588  L 171.006953 223.726588  L 148.452031 223.726588  L 125.897109 223.726588  L 103.342187 223.726588  L 80.787266 223.726588  L 58.232344 223.726588  z " clip-path="url(#pfc7bbe3371)" style="fill: #e0e0e0"/>
   </g>
   <g id="line2d_24">
    <path d="M 58.232344 340.6319  L 80.787266 340.6319  L 103.342187 340.6319  L 125.897109 340.6319  L 148.452031 340.6319  L 171.006953 340.6319  L 193.561875 340.6319  L 216.116797 340.6319  L 238.671719 340.6319  L 261.226641 340.6319  L 283.781563 340.6319  L 306.336484 340.6319  L 328.891406 340.6319  L 351.446328 340.6319  L 374.00125 340.6319  L 396.556172 340.6319  L 419.111094 340.6319  L 441.666016 340.6319  L 464.220937 340.6319  L 486.775859 340.6319  L 509.330781 340.6319  L 531.885703 340.6319  L 554.440625 340.6319  L 576.995547 340.6319  L 599.550469 340.6319  L 622.105391 340.6319  L 644.660312 340.6319  L 667.215234 340.6319  L 689.770156 340.6319  L 712.325078 340.6319  L 734.88 340.6319  " clip-path="url(#pfc7bbe3371)" style="fill: none; stroke: #000000; stroke-opacity: 0; stroke-width: 0.886227; stroke-linejoin: miter"/>
   </g>
   <g id="line2d_25">
    <path d="M 58.232344 223.726588  L 80.787266 223.726588  L 103.342187 223.726588  L 125.897109 223.726588  L 148.452031 223.726588  L 171.006953 223.726588  L 193.561875 223.726588  L 216.116797 223.726588  L 238.671719 223.726588  L 261.226641 223.726588  L 283.781563 223.726588  L 306.336484 223.726588  L 328.891406 223.726588  L 351.446328 223.726588  L 374.00125 223.726588  L 396.556172 223.726588  L 419.111094 223.726588  L 441.666016 223.726588  L 464.220937 223.726588  L 486.775859 223.726588  L 509.330781 223.726588  L 531.885703 223.726588  L 554.440625 223.726588  L 576.995547 223.726588  L 599.550469 223.726588  L 622.105391 223.726588  L 644.660312 223.726588  L 667.215234 223.726588  L 689.770156 223.726588  L 712.325078 223.726588  L 734.88 223.726588  " clip-path="url(#pfc7bbe3371)" style="fill: none; stroke: #000000; stroke-opacity: 0; stroke-width: 0.886227; stroke-linejoin: miter"/>
   </g>
   <g id="line2d_26">
    <path d="M 734.88 282.179244  L 752.923938 282.179244  " style="fill: none; stroke: #e0e0e0; stroke-linecap: round"/>
   </g>
   <g id="line2d_27">
    <path d="M 752.923938 282.179244  L 761.945906 282.179244  " style="fill: none; stroke: #e0e0e0; stroke-linecap: round"/>
   </g>
   <g id="line2d_28">
    <path d="M 734.88 215.915578  L 752.923938 215.915578  " style="fill: none; stroke: #999999; stroke-linecap: round"/>
   </g>
   <g id="line2d_29">
    <path d="M 752.923938 215.915578  L 761.945906 215.915578  " style="fill: none; stroke: #999999; stroke-linecap: round"/>
   </g>
   <g id="line2d_30">
    <path d="M 734.88 175.127709  L 752.923938 175.127709  " style="fill: none; stroke: #fc9706; stroke-linecap: round"/>
   </g>
   <g id="line2d_31">
    <path d="M 752.923938 175.127709  L 761.945906 175.127709  " style="fill: none; stroke: #fc9706; stroke-linecap: round"/>
   </g>
   <g id="line2d_32">
    <path d="M 734.88 99.68348  L 752.923938 99.68348  " style="fill: none; stroke: #ffc729; stroke-linecap: round"/>
   </g>
   <g id="line2d_33">
    <path d="M 752.923938 99.68348  L 761.945906 99.68348  " style="fill: none; stroke: #ffc729; stroke-linecap: round"/>
   </g>
   <g id="text_5">
    <text style="font-size: 9px; font-family: 'IBM Plex Sans'; text-anchor: end; fill: #a0af12" x="364.705249" y="57.92465" transform="rotate(-0 364.705249 57.92465)">Crossover</text>
   </g>
   <g id="text_6">
    <text style="font-weight: 700; font-size: 9px; font-family: 'IBM Plex Sans'; text-anchor: start; fill: #e0e0e0" x="768.712383" y="284.609244" transform="rotate(-0 768.712383 284.609244)">Base (2025 level)</text>
   </g>
   <g id="text_7">
    <text style="font-weight: 700; font-size: 9px; font-family: 'IBM Plex Sans'; text-anchor: start; fill: #999999" x="768.712383" y="218.332219" transform="rotate(-0 768.712383 218.332219)">Organic growth</text>
   </g>
   <g id="text_8">
    <text style="font-weight: 700; font-size: 9px; font-family: 'IBM Plex Sans'; text-anchor: start; fill: #fc9706" x="768.712383" y="177.557709" transform="rotate(-0 768.712383 177.557709)">EV load</text>
   </g>
   <g id="text_9">
    <text style="font-weight: 700; font-size: 9px; font-family: 'IBM Plex Sans'; text-anchor: start; fill: #ffc729" x="768.712383" y="102.100121" transform="rotate(-0 768.712383 102.100121)">Building electrification</text>
   </g>
   <g id="line2d_34">
    <path d="M 371.471726 340.6319  L 371.471726 43.045321  " clip-path="url(#pfc7bbe3371)" style="fill: none; stroke-dasharray: 2.775,1.2; stroke-dashoffset: 0; stroke: #a0af12; stroke-width: 0.75"/>
   </g>
   <g id="line2d_35">
    <path d="M 371.471726 155.861129  L 374.00125 155.612031  L 396.556172 152.576491  L 419.111094 149.614988  L 441.666016 146.949636  L 464.220937 144.284284  L 486.775859 140.804518  L 509.330781 137.768978  L 531.885703 134.955551  L 554.440625 132.290199  L 576.995547 129.920997  L 599.550469 128.366208  L 622.105391 127.329682  L 644.660312 126.515269  L 667.215234 125.848931  L 689.770156 125.330668  L 712.325078 124.886442  L 734.88 124.516255  " clip-path="url(#pfc7bbe3371)" style="fill: none; stroke-dasharray: 0.35,1.25; stroke-dashoffset: 0; stroke: #999999"/>
   </g>
   <g id="patch_3">
    <path d="M 58.232344 340.6319  L 734.88 340.6319  " style="fill: none; stroke: #000000; stroke-width: 0.5; stroke-linejoin: miter; stroke-linecap: square"/>
   </g>
  </g>
  <g id="axes_2">
   <g id="patch_4">
    <path d="M 58.232344 656.338479  L 734.88 656.338479  L 734.88 358.7519  L 58.232344 358.7519  z " style="fill: #ffffff"/>
   </g>
   <g id="matplotlib.axis_3">
    <g id="xtick_14">
     <g id="line2d_36">
      <path d="M 58.232344 656.338479  " style="fill: none; stroke: #000000; stroke-width: 1.5; stroke-linecap: square"/>
      <defs>
       <path id="m17c01e1010" d="M 0 0  L 0 2.75  " style="stroke: #000000"/>
      </defs>
      <g>
       <use xlink:href="#m17c01e1010" x="58.232344" y="656.338479" style="stroke: #000000"/>
      </g>
     </g>
     <g id="text_10">
      <text style="font-size: 11px; font-family: 'IBM Plex Sans'; text-anchor: middle; fill: #4d4d4d" x="58.232344" y="669.428479" transform="rotate(-0 58.232344 669.428479)">2025</text>
     </g>
    </g>
    <g id="xtick_15">
     <g id="line2d_37">
      <path d="M 171.006953 656.338479  " style="fill: none; stroke: #000000; stroke-width: 1.5; stroke-linecap: square"/>
      <g>
       <use xlink:href="#m17c01e1010" x="171.006953" y="656.338479" style="stroke: #000000"/>
      </g>
     </g>
     <g id="text_11">
      <text style="font-size: 11px; font-family: 'IBM Plex Sans'; text-anchor: middle; fill: #4d4d4d" x="171.006953" y="669.428479" transform="rotate(-0 171.006953 669.428479)">2030</text>
     </g>
    </g>
    <g id="xtick_16">
     <g id="line2d_38">
      <path d="M 283.781563 656.338479  " style="fill: none; stroke: #000000; stroke-width: 1.5; stroke-linecap: square"/>
      <g>
       <use xlink:href="#m17c01e1010" x="283.781563" y="656.338479" style="stroke: #000000"/>
      </g>
     </g>
     <g id="text_12">
      <text style="font-size: 11px; font-family: 'IBM Plex Sans'; text-anchor: middle; fill: #4d4d4d" x="283.781563" y="669.428479" transform="rotate(-0 283.781563 669.428479)">2035</text>
     </g>
    </g>
    <g id="xtick_17">
     <g id="line2d_39">
      <path d="M 396.556172 656.338479  " style="fill: none; stroke: #000000; stroke-width: 1.5; stroke-linecap: square"/>
      <g>
       <use xlink:href="#m17c01e1010" x="396.556172" y="656.338479" style="stroke: #000000"/>
      </g>
     </g>
     <g id="text_13">
      <text style="font-size: 11px; font-family: 'IBM Plex Sans'; text-anchor: middle; fill: #4d4d4d" x="396.556172" y="669.428479" transform="rotate(-0 396.556172 669.428479)">2040</text>
     </g>
    </g>
    <g id="xtick_18">
     <g id="line2d_40">
      <path d="M 509.330781 656.338479  " style="fill: none; stroke: #000000; stroke-width: 1.5; stroke-linecap: square"/>
      <g>
       <use xlink:href="#m17c01e1010" x="509.330781" y="656.338479" style="stroke: #000000"/>
      </g>
     </g>
     <g id="text_14">
      <text style="font-size: 11px; font-family: 'IBM Plex Sans'; text-anchor: middle; fill: #4d4d4d" x="509.330781" y="669.428479" transform="rotate(-0 509.330781 669.428479)">2045</text>
     </g>
    </g>
    <g id="xtick_19">
     <g id="line2d_41">
      <path d="M 622.105391 656.338479  " style="fill: none; stroke: #000000; stroke-width: 1.5; stroke-linecap: square"/>
      <g>
       <use xlink:href="#m17c01e1010" x="622.105391" y="656.338479" style="stroke: #000000"/>
      </g>
     </g>
     <g id="text_15">
      <text style="font-size: 11px; font-family: 'IBM Plex Sans'; text-anchor: middle; fill: #4d4d4d" x="622.105391" y="669.428479" transform="rotate(-0 622.105391 669.428479)">2050</text>
     </g>
    </g>
    <g id="xtick_20">
     <g id="line2d_42">
      <path d="M 734.88 656.338479  " style="fill: none; stroke: #000000; stroke-width: 1.5; stroke-linecap: square"/>
      <g>
       <use xlink:href="#m17c01e1010" x="734.88" y="656.338479" style="stroke: #000000"/>
      </g>
     </g>
     <g id="text_16">
      <text style="font-size: 11px; font-family: 'IBM Plex Sans'; text-anchor: middle; fill: #4d4d4d" x="734.88" y="669.428479" transform="rotate(-0 734.88 669.428479)">2055</text>
     </g>
    </g>
    <g id="xtick_21">
     <g id="line2d_43">
      <path d="M 114.619648 656.338479  " style="fill: none; stroke: #000000; stroke-width: 1.5; stroke-linecap: square"/>
      <defs>
       <path id="m907335e7c5" d="M 0 0  L 0 1.375  " style="stroke: #000000"/>
      </defs>
      <g>
       <use xlink:href="#m907335e7c5" x="114.619648" y="656.338479" style="stroke: #000000"/>
      </g>
     </g>
    </g>
    <g id="xtick_22">
     <g id="line2d_44">
      <path d="M 227.394258 656.338479  " style="fill: none; stroke: #000000; stroke-width: 1.5; stroke-linecap: square"/>
      <g>
       <use xlink:href="#m907335e7c5" x="227.394258" y="656.338479" style="stroke: #000000"/>
      </g>
     </g>
    </g>
    <g id="xtick_23">
     <g id="line2d_45">
      <path d="M 340.168867 656.338479  " style="fill: none; stroke: #000000; stroke-width: 1.5; stroke-linecap: square"/>
      <g>
       <use xlink:href="#m907335e7c5" x="340.168867" y="656.338479" style="stroke: #000000"/>
      </g>
     </g>
    </g>
    <g id="xtick_24">
     <g id="line2d_46">
      <path d="M 452.943477 656.338479  " style="fill: none; stroke: #000000; stroke-width: 1.5; stroke-linecap: square"/>
      <g>
       <use xlink:href="#m907335e7c5" x="452.943477" y="656.338479" style="stroke: #000000"/>
      </g>
     </g>
    </g>
    <g id="xtick_25">
     <g id="line2d_47">
      <path d="M 565.718086 656.338479  " style="fill: none; stroke: #000000; stroke-width: 1.5; stroke-linecap: square"/>
      <g>
       <use xlink:href="#m907335e7c5" x="565.718086" y="656.338479" style="stroke: #000000"/>
      </g>
     </g>
    </g>
    <g id="xtick_26">
     <g id="line2d_48">
      <path d="M 678.492695 656.338479  " style="fill: none; stroke: #000000; stroke-width: 1.5; stroke-linecap: square"/>
      <g>
       <use xlink:href="#m907335e7c5" x="678.492695" y="656.338479" style="stroke: #000000"/>
      </g>
     </g>
    </g>
   </g>
   <g id="matplotlib.axis_4">
    <g id="ytick_10">
     <g id="line2d_49">
      <path d="M 58.232344 656.338479  L 734.88 656.338479  " clip-path="url(#p20c0639251)" style="fill: none; stroke: #e5e5e5; stroke-linecap: square"/>
     </g>
    </g>
    <g id="ytick_11">
     <g id="line2d_50">
      <path d="M 58.232344 582.300916  L 734.88 582.300916  " clip-path="url(#p20c0639251)" style="fill: none; stroke: #e5e5e5; stroke-linecap: square"/>
     </g>
     <g id="text_17">
      <text style="font-size: 11px; font-family: 'IBM Plex Sans'; text-anchor: start; fill: #4d4d4d" x="26.64" y="586.370916" transform="rotate(-0 26.64 586.370916)">1,000</text>
     </g>
    </g>
    <g id="ytick_12">
     <g id="line2d_51">
      <path d="M 58.232344 508.263354  L 734.88 508.263354  " clip-path="url(#p20c0639251)" style="fill: none; stroke: #e5e5e5; stroke-linecap: square"/>
     </g>
     <g id="text_18">
      <text style="font-size: 11px; font-family: 'IBM Plex Sans'; text-anchor: start; fill: #4d4d4d" x="26.64" y="512.333354" transform="rotate(-0 26.64 512.333354)">2,000</text>
     </g>
    </g>
    <g id="ytick_13">
     <g id="line2d_52">
      <path d="M 58.232344 434.225791  L 734.88 434.225791  " clip-path="url(#p20c0639251)" style="fill: none; stroke: #e5e5e5; stroke-linecap: square"/>
     </g>
     <g id="text_19">
      <text style="font-size: 11px; font-family: 'IBM Plex Sans'; text-anchor: start; fill: #4d4d4d" x="26.64" y="438.295791" transform="rotate(-0 26.64 438.295791)">3,000</text>
     </g>
    </g>
    <g id="ytick_14">
     <g id="line2d_53">
      <path d="M 58.232344 360.188228  L 734.88 360.188228  " clip-path="url(#p20c0639251)" style="fill: none; stroke: #e5e5e5; stroke-linecap: square"/>
     </g>
     <g id="text_20">
      <text style="font-size: 11px; font-family: 'IBM Plex Sans'; text-anchor: start; fill: #4d4d4d" x="26.64" y="364.258228" transform="rotate(-0 26.64 364.258228)">4,000</text>
     </g>
    </g>
    <g id="ytick_15">
     <g id="line2d_54">
      <path d="M 58.232344 619.319697  L 734.88 619.319697  " clip-path="url(#p20c0639251)" style="fill: none; stroke: #fafafa; stroke-width: 0.5; stroke-linecap: square"/>
     </g>
    </g>
    <g id="ytick_16">
     <g id="line2d_55">
      <path d="M 58.232344 545.282135  L 734.88 545.282135  " clip-path="url(#p20c0639251)" style="fill: none; stroke: #fafafa; stroke-width: 0.5; stroke-linecap: square"/>
     </g>
    </g>
    <g id="ytick_17">
     <g id="line2d_56">
      <path d="M 58.232344 471.244572  L 734.88 471.244572  " clip-path="url(#p20c0639251)" style="fill: none; stroke: #fafafa; stroke-width: 0.5; stroke-linecap: square"/>
     </g>
    </g>
    <g id="ytick_18">
     <g id="line2d_57">
      <path d="M 58.232344 397.20701  L 734.88 397.20701  " clip-path="url(#p20c0639251)" style="fill: none; stroke: #fafafa; stroke-width: 0.5; stroke-linecap: square"/>
     </g>
    </g>
   </g>
   <g id="FillBetweenPolyCollection_9">
    <path d="M 58.232344 488.93955  L 58.232344 488.93955  L 80.787266 489.360638  L 103.342187 489.452546  L 125.897109 489.578305  L 148.452031 489.638345  L 171.006953 489.673143  L 193.561875 489.813665  L 216.116797 490.052408  L 238.671719 490.261008  L 261.226641 490.29154  L 283.781563 490.351756  L 306.336484 490.174969  L 328.891406 489.999731  L 351.446328 489.794956  L 374.00125 489.570046  L 396.556172 489.226445  L 419.111094 488.803841  L 441.666016 487.656438  L 464.220937 486.516744  L 486.775859 485.186235  L 509.330781 483.793565  L 531.885703 482.205586  L 554.440625 480.623623  L 576.995547 479.174563  L 599.550469 477.928739  L 622.105391 476.975171  L 644.660312 476.173565  L 667.215234 475.508029  L 689.770156 475.03422  L 712.325078 474.606536  L 734.88 474.256375  L 734.88 472.651286  L 734.88 472.651286  L 712.325078 473.021474  L 689.770156 473.465699  L 667.215234 473.983962  L 644.660312 474.724338  L 622.105391 475.612788  L 599.550469 476.649314  L 576.995547 478.056028  L 554.440625 479.684854  L 531.885703 481.461756  L 509.330781 483.238657  L 486.775859 484.793446  L 464.220937 486.274197  L 441.666016 487.532836  L 419.111094 488.791475  L 396.556172 489.298426  L 374.00125 489.724004  L 351.446328 490.004139  L 328.891406 490.260859  L 306.336484 490.46411  L 283.781563 490.683015  L 261.226641 490.600566  L 238.671719 490.548745  L 216.116797 490.316281  L 193.561875 490.0292  L 171.006953 489.85965  L 148.452031 489.793633  L 125.897109 489.698072  L 103.342187 489.538046  L 80.787266 489.425421  L 58.232344 488.93955  z " clip-path="url(#p20c0639251)" style="fill: #ffc729; fill-opacity: 0.219608"/>
   </g>
   <g id="line2d_58">
    <path d="M 58.232344 488.93955  L 80.787266 489.360638  L 103.342187 489.452546  L 125.897109 489.578305  L 148.452031 489.638345  L 171.006953 489.673143  L 193.561875 489.813665  L 216.116797 490.052408  L 238.671719 490.261008  L 261.226641 490.29154  L 283.781563 490.351756  L 306.336484 490.174969  L 328.891406 489.999731  L 351.446328 489.794956  L 374.00125 489.570046  L 396.556172 489.226445  L 419.111094 488.803841  L 441.666016 487.656438  L 464.220937 486.516744  L 486.775859 485.186235  L 509.330781 483.793565  L 531.885703 482.205586  L 554.440625 480.623623  L 576.995547 479.174563  L 599.550469 477.928739  L 622.105391 476.975171  L 644.660312 476.173565  L 667.215234 475.508029  L 689.770156 475.03422  L 712.325078 474.606536  L 734.88 474.256375  " clip-path="url(#p20c0639251)" style="fill: none; stroke: #000000; stroke-opacity: 0; stroke-width: 0.886227; stroke-linejoin: miter"/>
   </g>
   <g id="line2d_59">
    <path d="M 58.232344 488.93955  L 80.787266 489.425421  L 103.342187 489.538046  L 125.897109 489.698072  L 148.452031 489.793633  L 171.006953 489.85965  L 193.561875 490.0292  L 216.116797 490.316281  L 238.671719 490.548745  L 261.226641 490.600566  L 283.781563 490.683015  L 306.336484 490.46411  L 328.891406 490.260859  L 351.446328 490.004139  L 374.00125 489.724004  L 396.556172 489.298426  L 419.111094 488.791475  L 441.666016 487.532836  L 464.220937 486.274197  L 486.775859 484.793446  L 509.330781 483.238657  L 531.885703 481.461756  L 554.440625 479.684854  L 576.995547 478.056028  L 599.550469 476.649314  L 622.105391 475.612788  L 644.660312 474.724338  L 667.215234 473.983962  L 689.770156 473.465699  L 712.325078 473.021474  L 734.88 472.651286  " clip-path="url(#p20c0639251)" style="fill: none; stroke: #000000; stroke-opacity: 0; stroke-width: 0.886227; stroke-linejoin: miter"/>
   </g>
   <g id="FillBetweenPolyCollection_10">
    <path d="M 58.232344 488.93955  L 58.232344 488.93955  L 80.787266 488.93955  L 103.342187 488.93955  L 125.897109 488.93955  L 148.452031 488.93955  L 171.006953 488.93955  L 193.561875 488.93955  L 216.116797 488.93955  L 238.671719 488.93955  L 261.226641 488.93955  L 283.781563 488.93955  L 306.336484 488.93955  L 328.891406 488.93955  L 351.446328 488.93955  L 374.00125 488.93955  L 396.556172 488.93955  L 419.111094 488.851518  L 441.666016 488.143491  L 464.220937 487.478937  L 486.775859 486.701844  L 509.330781 485.971316  L 531.885703 485.200653  L 554.440625 484.402167  L 576.995547 483.755229  L 599.550469 483.143366  L 622.105391 482.670543  L 644.660312 482.268843  L 667.215234 481.834549  L 689.770156 481.475169  L 712.325078 481.160377  L 734.88 480.86889  L 734.88 474.256375  L 734.88 474.256375  L 712.325078 474.606536  L 689.770156 475.03422  L 667.215234 475.508029  L 644.660312 476.173565  L 622.105391 476.975171  L 599.550469 477.928739  L 576.995547 479.174563  L 554.440625 480.623623  L 531.885703 482.205586  L 509.330781 483.793565  L 486.775859 485.186235  L 464.220937 486.516744  L 441.666016 487.656438  L 419.111094 488.803841  L 396.556172 489.226445  L 374.00125 489.570046  L 351.446328 489.794956  L 328.891406 489.999731  L 306.336484 490.174969  L 283.781563 490.351756  L 261.226641 490.29154  L 238.671719 490.261008  L 216.116797 490.052408  L 193.561875 489.813665  L 171.006953 489.673143  L 148.452031 489.638345  L 125.897109 489.578305  L 103.342187 489.452546  L 80.787266 489.360638  L 58.232344 488.93955  z " clip-path="url(#p20c0639251)" style="fill: #fc9706; fill-opacity: 0.219608"/>
   </g>
   <g id="line2d_60">
    <path d="M 58.232344 488.93955  L 80.787266 488.93955  L 103.342187 488.93955  L 125.897109 488.93955  L 148.452031 488.93955  L 171.006953 488.93955  L 193.561875 488.93955  L 216.116797 488.93955  L 238.671719 488.93955  L 261.226641 488.93955  L 283.781563 488.93955  L 306.336484 488.93955  L 328.891406 488.93955  L 351.446328 488.93955  L 374.00125 488.93955  L 396.556172 488.93955  L 419.111094 488.851518  L 441.666016 488.143491  L 464.220937 487.478937  L 486.775859 486.701844  L 509.330781 485.971316  L 531.885703 485.200653  L 554.440625 484.402167  L 576.995547 483.755229  L 599.550469 483.143366  L 622.105391 482.670543  L 644.660312 482.268843  L 667.215234 481.834549  L 689.770156 481.475169  L 712.325078 481.160377  L 734.88 480.86889  " clip-path="url(#p20c0639251)" style="fill: none; stroke: #000000; stroke-opacity: 0; stroke-width: 0.886227; stroke-linejoin: miter"/>
   </g>
   <g id="line2d_61">
    <path d="M 58.232344 488.93955  L 80.787266 489.360638  L 103.342187 489.452546  L 125.897109 489.578305  L 148.452031 489.638345  L 171.006953 489.673143  L 193.561875 489.813665  L 216.116797 490.052408  L 238.671719 490.261008  L 261.226641 490.29154  L 283.781563 490.351756  L 306.336484 490.174969  L 328.891406 489.999731  L 351.446328 489.794956  L 374.00125 489.570046  L 396.556172 489.226445  L 419.111094 488.803841  L 441.666016 487.656438  L 464.220937 486.516744  L 486.775859 485.186235  L 509.330781 483.793565  L 531.885703 482.205586  L 554.440625 480.623623  L 576.995547 479.174563  L 599.550469 477.928739  L 622.105391 476.975171  L 644.660312 476.173565  L 667.215234 475.508029  L 689.770156 475.03422  L 712.325078 474.606536  L 734.88 474.256375  " clip-path="url(#p20c0639251)" style="fill: none; stroke: #000000; stroke-opacity: 0; stroke-width: 0.886227; stroke-linejoin: miter"/>
   </g>
   <g id="FillBetweenPolyCollection_11">
    <path d="M 58.232344 488.93955  L 58.232344 488.93955  L 80.787266 488.93955  L 103.342187 488.93955  L 125.897109 488.93955  L 148.452031 488.93955  L 171.006953 488.93955  L 193.561875 488.93955  L 216.116797 488.93955  L 238.671719 488.93955  L 261.226641 488.93955  L 283.781563 488.93955  L 306.336484 488.93955  L 328.891406 488.93955  L 351.446328 488.93955  L 374.00125 488.93955  L 396.556172 488.93955  L 419.111094 488.93955  L 441.666016 488.93955  L 464.220937 488.93955  L 486.775859 488.93955  L 509.330781 488.93955  L 531.885703 488.93955  L 554.440625 488.93955  L 576.995547 488.93955  L 599.550469 488.93955  L 622.105391 488.93955  L 644.660312 488.93955  L 667.215234 488.93955  L 689.770156 488.93955  L 712.325078 488.93955  L 734.88 488.93955  L 734.88 480.86889  L 734.88 480.86889  L 712.325078 481.160377  L 689.770156 481.475169  L 667.215234 481.834549  L 644.660312 482.268843  L 622.105391 482.670543  L 599.550469 483.143366  L 576.995547 483.755229  L 554.440625 484.402167  L 531.885703 485.200653  L 509.330781 485.971316  L 486.775859 486.701844  L 464.220937 487.478937  L 441.666016 488.143491  L 419.111094 488.851518  L 396.556172 488.93955  L 374.00125 488.93955  L 351.446328 488.93955  L 328.891406 488.93955  L 306.336484 488.93955  L 283.781563 488.93955  L 261.226641 488.93955  L 238.671719 488.93955  L 216.116797 488.93955  L 193.561875 488.93955  L 171.006953 488.93955  L 148.452031 488.93955  L 125.897109 488.93955  L 103.342187 488.93955  L 80.787266 488.93955  L 58.232344 488.93955  z " clip-path="url(#p20c0639251)" style="fill: #999999; fill-opacity: 0.219608"/>
   </g>
   <g id="line2d_62">
    <path d="M 58.232344 488.93955  L 80.787266 488.93955  L 103.342187 488.93955  L 125.897109 488.93955  L 148.452031 488.93955  L 171.006953 488.93955  L 193.561875 488.93955  L 216.116797 488.93955  L 238.671719 488.93955  L 261.226641 488.93955  L 283.781563 488.93955  L 306.336484 488.93955  L 328.891406 488.93955  L 351.446328 488.93955  L 374.00125 488.93955  L 396.556172 488.93955  L 419.111094 488.93955  L 441.666016 488.93955  L 464.220937 488.93955  L 486.775859 488.93955  L 509.330781 488.93955  L 531.885703 488.93955  L 554.440625 488.93955  L 576.995547 488.93955  L 599.550469 488.93955  L 622.105391 488.93955  L 644.660312 488.93955  L 667.215234 488.93955  L 689.770156 488.93955  L 712.325078 488.93955  L 734.88 488.93955  " clip-path="url(#p20c0639251)" style="fill: none; stroke: #000000; stroke-opacity: 0; stroke-width: 0.886227; stroke-linejoin: miter"/>
   </g>
   <g id="line2d_63">
    <path d="M 58.232344 488.93955  L 80.787266 488.93955  L 103.342187 488.93955  L 125.897109 488.93955  L 148.452031 488.93955  L 171.006953 488.93955  L 193.561875 488.93955  L 216.116797 488.93955  L 238.671719 488.93955  L 261.226641 488.93955  L 283.781563 488.93955  L 306.336484 488.93955  L 328.891406 488.93955  L 351.446328 488.93955  L 374.00125 488.93955  L 396.556172 488.93955  L 419.111094 488.851518  L 441.666016 488.143491  L 464.220937 487.478937  L 486.775859 486.701844  L 509.330781 485.971316  L 531.885703 485.200653  L 554.440625 484.402167  L 576.995547 483.755229  L 599.550469 483.143366  L 622.105391 482.670543  L 644.660312 482.268843  L 667.215234 481.834549  L 689.770156 481.475169  L 712.325078 481.160377  L 734.88 480.86889  " clip-path="url(#p20c0639251)" style="fill: none; stroke: #000000; stroke-opacity: 0; stroke-width: 0.886227; stroke-linejoin: miter"/>
   </g>
   <g id="FillBetweenPolyCollection_12">
    <path d="M 58.232344 488.93955  L 58.232344 656.338479  L 80.787266 656.338479  L 103.342187 656.338479  L 125.897109 656.338479  L 148.452031 656.338479  L 171.006953 656.338479  L 193.561875 656.338479  L 216.116797 656.338479  L 238.671719 656.338479  L 261.226641 656.338479  L 283.781563 656.338479  L 306.336484 656.338479  L 328.891406 656.338479  L 351.446328 656.338479  L 374.00125 656.338479  L 396.556172 656.338479  L 419.111094 656.338479  L 441.666016 656.338479  L 464.220937 656.338479  L 486.775859 656.338479  L 509.330781 656.338479  L 531.885703 656.338479  L 554.440625 656.338479  L 576.995547 656.338479  L 599.550469 656.338479  L 622.105391 656.338479  L 644.660312 656.338479  L 667.215234 656.338479  L 689.770156 656.338479  L 712.325078 656.338479  L 734.88 656.338479  L 734.88 488.93955  L 734.88 488.93955  L 712.325078 488.93955  L 689.770156 488.93955  L 667.215234 488.93955  L 644.660312 488.93955  L 622.105391 488.93955  L 599.550469 488.93955  L 576.995547 488.93955  L 554.440625 488.93955  L 531.885703 488.93955  L 509.330781 488.93955  L 486.775859 488.93955  L 464.220937 488.93955  L 441.666016 488.93955  L 419.111094 488.93955  L 396.556172 488.93955  L 374.00125 488.93955  L 351.446328 488.93955  L 328.891406 488.93955  L 306.336484 488.93955  L 283.781563 488.93955  L 261.226641 488.93955  L 238.671719 488.93955  L 216.116797 488.93955  L 193.561875 488.93955  L 171.006953 488.93955  L 148.452031 488.93955  L 125.897109 488.93955  L 103.342187 488.93955  L 80.787266 488.93955  L 58.232344 488.93955  z " clip-path="url(#p20c0639251)" style="fill: #e0e0e0; fill-opacity: 0.219608"/>
   </g>
   <g id="line2d_64">
    <path d="M 58.232344 656.338479  L 80.787266 656.338479  L 103.342187 656.338479  L 125.897109 656.338479  L 148.452031 656.338479  L 171.006953 656.338479  L 193.561875 656.338479  L 216.116797 656.338479  L 238.671719 656.338479  L 261.226641 656.338479  L 283.781563 656.338479  L 306.336484 656.338479  L 328.891406 656.338479  L 351.446328 656.338479  L 374.00125 656.338479  L 396.556172 656.338479  L 419.111094 656.338479  L 441.666016 656.338479  L 464.220937 656.338479  L 486.775859 656.338479  L 509.330781 656.338479  L 531.885703 656.338479  L 554.440625 656.338479  L 576.995547 656.338479  L 599.550469 656.338479  L 622.105391 656.338479  L 644.660312 656.338479  L 667.215234 656.338479  L 689.770156 656.338479  L 712.325078 656.338479  L 734.88 656.338479  " clip-path="url(#p20c0639251)" style="fill: none; stroke: #000000; stroke-opacity: 0; stroke-width: 0.886227; stroke-linejoin: miter"/>
   </g>
   <g id="line2d_65">
    <path d="M 58.232344 488.93955  L 80.787266 488.93955  L 103.342187 488.93955  L 125.897109 488.93955  L 148.452031 488.93955  L 171.006953 488.93955  L 193.561875 488.93955  L 216.116797 488.93955  L 238.671719 488.93955  L 261.226641 488.93955  L 283.781563 488.93955  L 306.336484 488.93955  L 328.891406 488.93955  L 351.446328 488.93955  L 374.00125 488.93955  L 396.556172 488.93955  L 419.111094 488.93955  L 441.666016 488.93955  L 464.220937 488.93955  L 486.775859 488.93955  L 509.330781 488.93955  L 531.885703 488.93955  L 554.440625 488.93955  L 576.995547 488.93955  L 599.550469 488.93955  L 622.105391 488.93955  L 644.660312 488.93955  L 667.215234 488.93955  L 689.770156 488.93955  L 712.325078 488.93955  L 734.88 488.93955  " clip-path="url(#p20c0639251)" style="fill: none; stroke: #000000; stroke-opacity: 0; stroke-width: 0.886227; stroke-linejoin: miter"/>
   </g>
   <g id="FillBetweenPolyCollection_13">
    <path d="M 58.232344 540.469693  L 58.232344 540.469693  L 80.787266 540.526103  L 103.342187 540.414165  L 125.897109 539.709574  L 148.452031 539.474551  L 171.006953 538.600112  L 193.561875 538.33797  L 216.116797 537.02783  L 238.671719 535.569753  L 261.226641 534.282395  L 283.781563 532.741877  L 306.336484 529.900476  L 328.891406 527.108848  L 351.446328 525.168483  L 374.00125 522.675641  L 396.556172 520.336675  L 419.111094 517.844927  L 441.666016 515.547976  L 464.220937 511.972212  L 486.775859 508.229138  L 509.330781 504.506059  L 531.885703 499.547747  L 554.440625 495.275017  L 576.995547 492.153676  L 599.550469 489.37652  L 622.105391 486.580995  L 644.660312 484.830686  L 667.215234 481.298621  L 689.770156 479.844188  L 712.325078 479.804753  L 734.88 478.986604  L 734.88 407.646306  L 734.88 407.646306  L 712.325078 410.237621  L 689.770156 412.532785  L 667.215234 416.752926  L 644.660312 423.712457  L 622.105391 428.672974  L 599.550469 435.188279  L 576.995547 440.518984  L 554.440625 447.478515  L 531.885703 455.030346  L 509.330781 464.877342  L 486.775859 472.058985  L 464.220937 480.203117  L 441.666016 487.903024  L 419.111094 493.826029  L 396.556172 499.823071  L 374.00125 505.746076  L 351.446328 511.150818  L 328.891406 515.593072  L 306.336484 521.590115  L 283.781563 527.291007  L 261.226641 530.25251  L 238.671719 532.769787  L 216.116797 535.361101  L 193.561875 537.360116  L 171.006953 537.804341  L 148.452031 539.06298  L 125.897109 539.433167  L 103.342187 540.395656  L 80.787266 540.551957  L 58.232344 540.469693  z " clip-path="url(#p20c0639251)" style="fill: #ffc729"/>
   </g>
   <g id="line2d_66">
    <path d="M 58.232344 540.469693  L 80.787266 540.526103  L 103.342187 540.414165  L 125.897109 539.709574  L 148.452031 539.474551  L 171.006953 538.600112  L 193.561875 538.33797  L 216.116797 537.02783  L 238.671719 535.569753  L 261.226641 534.282395  L 283.781563 532.741877  L 306.336484 529.900476  L 328.891406 527.108848  L 351.446328 525.168483  L 374.00125 522.675641  L 396.556172 520.336675  L 419.111094 517.844927  L 441.666016 515.547976  L 464.220937 511.972212  L 486.775859 508.229138  L 509.330781 504.506059  L 531.885703 499.547747  L 554.440625 495.275017  L 576.995547 492.153676  L 599.550469 489.37652  L 622.105391 486.580995  L 644.660312 484.830686  L 667.215234 481.298621  L 689.770156 479.844188  L 712.325078 479.804753  L 734.88 478.986604  " clip-path="url(#p20c0639251)" style="fill: none; stroke: #000000; stroke-opacity: 0; stroke-width: 0.886227; stroke-linejoin: miter"/>
   </g>
   <g id="line2d_67">
    <path d="M 58.232344 540.469693  L 80.787266 540.551957  L 103.342187 540.395656  L 125.897109 539.433167  L 148.452031 539.06298  L 171.006953 537.804341  L 193.561875 537.360116  L 216.116797 535.361101  L 238.671719 532.769787  L 261.226641 530.25251  L 283.781563 527.291007  L 306.336484 521.590115  L 328.891406 515.593072  L 351.446328 511.150818  L 374.00125 505.746076  L 396.556172 499.823071  L 419.111094 493.826029  L 441.666016 487.903024  L 464.220937 480.203117  L 486.775859 472.058985  L 509.330781 464.877342  L 531.885703 455.030346  L 554.440625 447.478515  L 576.995547 440.518984  L 599.550469 435.188279  L 622.105391 428.672974  L 644.660312 423.712457  L 667.215234 416.752926  L 689.770156 412.532785  L 712.325078 410.237621  L 734.88 407.646306  " clip-path="url(#p20c0639251)" style="fill: none; stroke: #000000; stroke-opacity: 0; stroke-width: 0.886227; stroke-linejoin: miter"/>
   </g>
   <g id="FillBetweenPolyCollection_14">
    <path d="M 58.232344 540.469693  L 58.232344 540.469693  L 80.787266 540.469693  L 103.342187 540.440743  L 125.897109 540.086976  L 148.452031 540.033551  L 171.006953 539.702685  L 193.561875 539.677631  L 216.116797 539.195933  L 238.671719 538.877213  L 261.226641 538.678633  L 283.781563 538.123749  L 306.336484 537.457885  L 328.891406 536.843178  L 351.446328 536.483948  L 374.00125 536.147251  L 396.556172 535.902657  L 419.111094 535.80931  L 441.666016 535.55962  L 464.220937 535.088749  L 486.775859 534.352025  L 509.330781 533.414407  L 531.885703 532.616464  L 554.440625 532.182396  L 576.995547 532.319416  L 599.550469 532.560077  L 622.105391 532.828018  L 644.660312 533.14746  L 667.215234 531.679424  L 689.770156 531.42111  L 712.325078 532.017612  L 734.88 531.508595  L 734.88 478.986604  L 734.88 478.986604  L 712.325078 479.804753  L 689.770156 479.844188  L 667.215234 481.298621  L 644.660312 484.830686  L 622.105391 486.580995  L 599.550469 489.37652  L 576.995547 492.153676  L 554.440625 495.275017  L 531.885703 499.547747  L 509.330781 504.506059  L 486.775859 508.229138  L 464.220937 511.972212  L 441.666016 515.547976  L 419.111094 517.844927  L 396.556172 520.336675  L 374.00125 522.675641  L 351.446328 525.168483  L 328.891406 527.108848  L 306.336484 529.900476  L 283.781563 532.741877  L 261.226641 534.282395  L 238.671719 535.569753  L 216.116797 537.02783  L 193.561875 538.33797  L 171.006953 538.600112  L 148.452031 539.474551  L 125.897109 539.709574  L 103.342187 540.414165  L 80.787266 540.526103  L 58.232344 540.469693  z " clip-path="url(#p20c0639251)" style="fill: #fc9706"/>
   </g>
   <g id="line2d_68">
    <path d="M 58.232344 540.469693  L 80.787266 540.469693  L 103.342187 540.440743  L 125.897109 540.086976  L 148.452031 540.033551  L 171.006953 539.702685  L 193.561875 539.677631  L 216.116797 539.195933  L 238.671719 538.877213  L 261.226641 538.678633  L 283.781563 538.123749  L 306.336484 537.457885  L 328.891406 536.843178  L 351.446328 536.483948  L 374.00125 536.147251  L 396.556172 535.902657  L 419.111094 535.80931  L 441.666016 535.55962  L 464.220937 535.088749  L 486.775859 534.352025  L 509.330781 533.414407  L 531.885703 532.616464  L 554.440625 532.182396  L 576.995547 532.319416  L 599.550469 532.560077  L 622.105391 532.828018  L 644.660312 533.14746  L 667.215234 531.679424  L 689.770156 531.42111  L 712.325078 532.017612  L 734.88 531.508595  " clip-path="url(#p20c0639251)" style="fill: none; stroke: #000000; stroke-opacity: 0; stroke-width: 0.886227; stroke-linejoin: miter"/>
   </g>
   <g id="line2d_69">
    <path d="M 58.232344 540.469693  L 80.787266 540.526103  L 103.342187 540.414165  L 125.897109 539.709574  L 148.452031 539.474551  L 171.006953 538.600112  L 193.561875 538.33797  L 216.116797 537.02783  L 238.671719 535.569753  L 261.226641 534.282395  L 283.781563 532.741877  L 306.336484 529.900476  L 328.891406 527.108848  L 351.446328 525.168483  L 374.00125 522.675641  L 396.556172 520.336675  L 419.111094 517.844927  L 441.666016 515.547976  L 464.220937 511.972212  L 486.775859 508.229138  L 509.330781 504.506059  L 531.885703 499.547747  L 554.440625 495.275017  L 576.995547 492.153676  L 599.550469 489.37652  L 622.105391 486.580995  L 644.660312 484.830686  L 667.215234 481.298621  L 689.770156 479.844188  L 712.325078 479.804753  L 734.88 478.986604  " clip-path="url(#p20c0639251)" style="fill: none; stroke: #000000; stroke-opacity: 0; stroke-width: 0.886227; stroke-linejoin: miter"/>
   </g>
   <g id="FillBetweenPolyCollection_15">
    <path d="M 58.232344 540.469693  L 58.232344 540.469693  L 80.787266 540.469693  L 103.342187 540.469693  L 125.897109 540.469693  L 148.452031 540.469693  L 171.006953 540.469693  L 193.561875 540.469693  L 216.116797 540.469693  L 238.671719 540.469693  L 261.226641 540.469693  L 283.781563 540.469693  L 306.336484 540.469693  L 328.891406 540.469693  L 351.446328 540.469693  L 374.00125 540.469693  L 396.556172 540.469693  L 419.111094 540.469693  L 441.666016 540.469693  L 464.220937 540.469693  L 486.775859 540.469693  L 509.330781 540.469693  L 531.885703 540.469693  L 554.440625 540.469693  L 576.995547 540.469693  L 599.550469 540.469693  L 622.105391 540.469693  L 644.660312 540.469693  L 667.215234 540.469693  L 689.770156 540.469693  L 712.325078 540.469693  L 734.88 540.469693  L 734.88 531.508595  L 734.88 531.508595  L 712.325078 532.017612  L 689.770156 531.42111  L 667.215234 531.679424  L 644.660312 533.14746  L 622.105391 532.828018  L 599.550469 532.560077  L 576.995547 532.319416  L 554.440625 532.182396  L 531.885703 532.616464  L 509.330781 533.414407  L 486.775859 534.352025  L 464.220937 535.088749  L 441.666016 535.55962  L 419.111094 535.80931  L 396.556172 535.902657  L 374.00125 536.147251  L 351.446328 536.483948  L 328.891406 536.843178  L 306.336484 537.457885  L 283.781563 538.123749  L 261.226641 538.678633  L 238.671719 538.877213  L 216.116797 539.195933  L 193.561875 539.677631  L 171.006953 539.702685  L 148.452031 540.033551  L 125.897109 540.086976  L 103.342187 540.440743  L 80.787266 540.469693  L 58.232344 540.469693  z " clip-path="url(#p20c0639251)" style="fill: #999999"/>
   </g>
   <g id="line2d_70">
    <path d="M 58.232344 540.469693  L 80.787266 540.469693  L 103.342187 540.469693  L 125.897109 540.469693  L 148.452031 540.469693  L 171.006953 540.469693  L 193.561875 540.469693  L 216.116797 540.469693  L 238.671719 540.469693  L 261.226641 540.469693  L 283.781563 540.469693  L 306.336484 540.469693  L 328.891406 540.469693  L 351.446328 540.469693  L 374.00125 540.469693  L 396.556172 540.469693  L 419.111094 540.469693  L 441.666016 540.469693  L 464.220937 540.469693  L 486.775859 540.469693  L 509.330781 540.469693  L 531.885703 540.469693  L 554.440625 540.469693  L 576.995547 540.469693  L 599.550469 540.469693  L 622.105391 540.469693  L 644.660312 540.469693  L 667.215234 540.469693  L 689.770156 540.469693  L 712.325078 540.469693  L 734.88 540.469693  " clip-path="url(#p20c0639251)" style="fill: none; stroke: #000000; stroke-opacity: 0; stroke-width: 0.886227; stroke-linejoin: miter"/>
   </g>
   <g id="line2d_71">
    <path d="M 58.232344 540.469693  L 80.787266 540.469693  L 103.342187 540.440743  L 125.897109 540.086976  L 148.452031 540.033551  L 171.006953 539.702685  L 193.561875 539.677631  L 216.116797 539.195933  L 238.671719 538.877213  L 261.226641 538.678633  L 283.781563 538.123749  L 306.336484 537.457885  L 328.891406 536.843178  L 351.446328 536.483948  L 374.00125 536.147251  L 396.556172 535.902657  L 419.111094 535.80931  L 441.666016 535.55962  L 464.220937 535.088749  L 486.775859 534.352025  L 509.330781 533.414407  L 531.885703 532.616464  L 554.440625 532.182396  L 576.995547 532.319416  L 599.550469 532.560077  L 622.105391 532.828018  L 644.660312 533.14746  L 667.215234 531.679424  L 689.770156 531.42111  L 712.325078 532.017612  L 734.88 531.508595  " clip-path="url(#p20c0639251)" style="fill: none; stroke: #000000; stroke-opacity: 0; stroke-width: 0.886227; stroke-linejoin: miter"/>
   </g>
   <g id="FillBetweenPolyCollection_16">
    <path d="M 58.232344 540.469693  L 58.232344 656.338479  L 80.787266 656.338479  L 103.342187 656.338479  L 125.897109 656.338479  L 148.452031 656.338479  L 171.006953 656.338479  L 193.561875 656.338479  L 216.116797 656.338479  L 238.671719 656.338479  L 261.226641 656.338479  L 283.781563 656.338479  L 306.336484 656.338479  L 328.891406 656.338479  L 351.446328 656.338479  L 374.00125 656.338479  L 396.556172 656.338479  L 419.111094 656.338479  L 441.666016 656.338479  L 464.220937 656.338479  L 486.775859 656.338479  L 509.330781 656.338479  L 531.885703 656.338479  L 554.440625 656.338479  L 576.995547 656.338479  L 599.550469 656.338479  L 622.105391 656.338479  L 644.660312 656.338479  L 667.215234 656.338479  L 689.770156 656.338479  L 712.325078 656.338479  L 734.88 656.338479  L 734.88 540.469693  L 734.88 540.469693  L 712.325078 540.469693  L 689.770156 540.469693  L 667.215234 540.469693  L 644.660312 540.469693  L 622.105391 540.469693  L 599.550469 540.469693  L 576.995547 540.469693  L 554.440625 540.469693  L 531.885703 540.469693  L 509.330781 540.469693  L 486.775859 540.469693  L 464.220937 540.469693  L 441.666016 540.469693  L 419.111094 540.469693  L 396.556172 540.469693  L 374.00125 540.469693  L 351.446328 540.469693  L 328.891406 540.469693  L 306.336484 540.469693  L 283.781563 540.469693  L 261.226641 540.469693  L 238.671719 540.469693  L 216.116797 540.469693  L 193.561875 540.469693  L 171.006953 540.469693  L 148.452031 540.469693  L 125.897109 540.469693  L 103.342187 540.469693  L 80.787266 540.469693  L 58.232344 540.469693  z " clip-path="url(#p20c0639251)" style="fill: #e0e0e0"/>
   </g>
   <g id="line2d_72">
    <path d="M 58.232344 656.338479  L 80.787266 656.338479  L 103.342187 656.338479  L 125.897109 656.338479  L 148.452031 656.338479  L 171.006953 656.338479  L 193.561875 656.338479  L 216.116797 656.338479  L 238.671719 656.338479  L 261.226641 656.338479  L 283.781563 656.338479  L 306.336484 656.338479  L 328.891406 656.338479  L 351.446328 656.338479  L 374.00125 656.338479  L 396.556172 656.338479  L 419.111094 656.338479  L 441.666016 656.338479  L 464.220937 656.338479  L 486.775859 656.338479  L 509.330781 656.338479  L 531.885703 656.338479  L 554.440625 656.338479  L 576.995547 656.338479  L 599.550469 656.338479  L 622.105391 656.338479  L 644.660312 656.338479  L 667.215234 656.338479  L 689.770156 656.338479  L 712.325078 656.338479  L 734.88 656.338479  " clip-path="url(#p20c0639251)" style="fill: none; stroke: #000000; stroke-opacity: 0; stroke-width: 0.886227; stroke-linejoin: miter"/>
   </g>
   <g id="line2d_73">
    <path d="M 58.232344 540.469693  L 80.787266 540.469693  L 103.342187 540.469693  L 125.897109 540.469693  L 148.452031 540.469693  L 171.006953 540.469693  L 193.561875 540.469693  L 216.116797 540.469693  L 238.671719 540.469693  L 261.226641 540.469693  L 283.781563 540.469693  L 306.336484 540.469693  L 328.891406 540.469693  L 351.446328 540.469693  L 374.00125 540.469693  L 396.556172 540.469693  L 419.111094 540.469693  L 441.666016 540.469693  L 464.220937 540.469693  L 486.775859 540.469693  L 509.330781 540.469693  L 531.885703 540.469693  L 554.440625 540.469693  L 576.995547 540.469693  L 599.550469 540.469693  L 622.105391 540.469693  L 644.660312 540.469693  L 667.215234 540.469693  L 689.770156 540.469693  L 712.325078 540.469693  L 734.88 540.469693  " clip-path="url(#p20c0639251)" style="fill: none; stroke: #000000; stroke-opacity: 0; stroke-width: 0.886227; stroke-linejoin: miter"/>
   </g>
   <g id="text_21">
    <text style="font-size: 9px; font-family: 'IBM Plex Sans'; text-anchor: end; fill: #a0af12" x="436.195799" y="373.631229" transform="rotate(-0 436.195799 373.631229)">Crossover</text>
   </g>
   <g id="line2d_74">
    <path d="M 442.962276 656.338479  L 442.962276 358.7519  " clip-path="url(#p20c0639251)" style="fill: none; stroke-dasharray: 2.775,1.2; stroke-dashoffset: 0; stroke: #a0af12; stroke-width: 0.75"/>
   </g>
   <g id="line2d_75">
    <path d="M 442.962276 487.4605  L 464.220937 486.274197  L 486.775859 484.793446  L 509.330781 483.238657  L 531.885703 481.461756  L 554.440625 479.684854  L 576.995547 478.056028  L 599.550469 476.649314  L 622.105391 475.612788  L 644.660312 474.724338  L 667.215234 473.983962  L 689.770156 473.465699  L 712.325078 473.021474  L 734.88 472.651286  " clip-path="url(#p20c0639251)" style="fill: none; stroke-dasharray: 0.35,1.25; stroke-dashoffset: 0; stroke: #999999"/>
   </g>
   <g id="patch_5">
    <path d="M 58.232344 656.338479  L 734.88 656.338479  " style="fill: none; stroke: #000000; stroke-width: 0.5; stroke-linejoin: miter; stroke-linecap: square"/>
   </g>
  </g>
  <g id="text_22">
   <text style="font-size: 13px; font-family: 'GT Planar'; fill: #333333" transform="translate(16.3 361.70979) rotate(-90)">MW</text>
  </g>
  <g id="text_23">
   <text style="font-weight: 700; font-size: 15px; font-family: 'GT Planar'; text-anchor: start" x="58.74375" y="17.939062" transform="rotate(-0 58.74375 17.939062)">Orange &amp; Rockland: </text>
  </g>
  <g id="text_24">
   <text style="font-weight: 700; font-size: 15px; font-family: 'GT Planar'; text-anchor: start; fill: #ffc729" x="204.05625" y="17.819531" transform="rotate(-0 204.05625 17.819531)">building electrification </text>
  </g>
  <g id="text_25">
   <text style="font-weight: 700; font-size: 15px; font-family: 'GT Planar'; text-anchor: start" x="371.30625" y="17.819531" transform="rotate(-0 371.30625 17.819531)"> starts causing distribution upgrades only after </text>
  </g>
  <g id="text_26">
   <text style="font-weight: 700; font-size: 15px; font-family: 'GT Planar'; text-anchor: start; fill: #a0af12" x="711.24375" y="17.819531" transform="rotate(-0 711.24375 17.819531)">2039</text>
  </g>
  <g id="text_27">
   <text style="font-size: 12px; font-family: 'GT Planar'; text-anchor: middle; fill: #333333" x="90.477686" y="38.093321" transform="rotate(-0 90.477686 38.093321)">Baseline</text>
  </g>
  <g id="text_28">
   <text style="font-size: 12px; font-family: 'GT Planar'; text-anchor: middle; fill: #333333" x="107.673311" y="353.7999" transform="rotate(-0 107.673311 353.7999)">Lower demand</text>
  </g>
 </g>
 <defs>
  <clipPath id="pfc7bbe3371">
   <rect x="58.232344" y="43.045321" width="676.647656" height="297.586579"/>
  </clipPath>
  <clipPath id="p20c0639251">
   <rect x="58.232344" y="358.7519" width="676.647656" height="297.586579"/>
  </clipPath>
 </defs>
</svg>
