<svg xmlns:xlink="http://www.w3.org/1999/xlink" xmlns="http://www.w3.org/2000/svg" width="871.959727pt" height="678.708947pt" viewBox="0 0 871.959727 678.708947" version="1.1">
 <metadata>
  <rdf:RDF xmlns:dc="http://purl.org/dc/elements/1.1/" xmlns:cc="http://creativecommons.org/ns#" xmlns:rdf="http://www.w3.org/1999/02/22-rdf-syntax-ns#">
   <cc:Work>
    <dc:type rdf:resource="http://purl.org/dc/dcmitype/StillImage"/>
    <dc:date>2026-04-28T07:48:08.940453</dc:date>
    <dc:format>image/svg+xml</dc:format>
    <dc:creator>
     <cc:Agent>
      <dc:title>Matplotlib v3.10.8, https://matplotlib.org/</dc:title>
     </cc:Agent>
    </dc:creator>
   </cc:Work>
  </rdf:RDF>
 </metadata>
 <defs>
  <style type="text/css">*{stroke-linejoin: round; stroke-linecap: butt}</style>
 </defs>
 <g id="figure_1">
  <g id="patch_1">
   <path d="M 0 678.708947  L 871.959727 678.708947  L 871.959727 0  L 0 0  z " style="fill: #ffffff"/>
  </g>
  <g id="axes_1">
   <g id="patch_2">
    <path d="M 64.832344 340.512368  L 734.88 340.512368  L 734.88 42.925789  L 64.832344 42.925789  z " style="fill: #ffffff"/>
   </g>
   <g id="matplotlib.axis_1">
    <g id="xtick_1"/>
    <g id="xtick_2"/>
    <g id="xtick_3"/>
    <g id="xtick_4"/>
    <g id="xtick_5"/>
    <g id="xtick_6"/>
    <g id="xtick_7"/>
    <g id="xtick_8"/>
    <g id="xtick_9"/>
    <g id="xtick_10"/>
    <g id="xtick_11"/>
    <g id="xtick_12"/>
    <g id="xtick_13"/>
   </g>
   <g id="matplotlib.axis_2">
    <g id="ytick_1">
     <g id="line2d_1">
      <path d="M 64.832344 340.512368  L 734.88 340.512368  " clip-path="url(#pea5e26b448)" style="fill: none; stroke: #e5e5e5; stroke-linecap: square"/>
     </g>
    </g>
    <g id="ytick_2">
     <g id="line2d_2">
      <path d="M 64.832344 275.583207  L 734.88 275.583207  " clip-path="url(#pea5e26b448)" style="fill: none; stroke: #e5e5e5; stroke-linecap: square"/>
     </g>
     <g id="text_1">
      <text style="font-size: 11px; font-family: 'IBM Plex Sans'; text-anchor: start; fill: #4d4d4d" x="33.24" y="279.653207" transform="rotate(-0 33.24 279.653207)">5,000</text>
     </g>
    </g>
    <g id="ytick_3">
     <g id="line2d_3">
      <path d="M 64.832344 210.654046  L 734.88 210.654046  " clip-path="url(#pea5e26b448)" style="fill: none; stroke: #e5e5e5; stroke-linecap: square"/>
     </g>
     <g id="text_2">
      <text style="font-size: 11px; font-family: 'IBM Plex Sans'; text-anchor: start; fill: #4d4d4d" x="26.64" y="214.724046" transform="rotate(-0 26.64 214.724046)">10,000</text>
     </g>
    </g>
    <g id="ytick_4">
     <g id="line2d_4">
      <path d="M 64.832344 145.724884  L 734.88 145.724884  " clip-path="url(#pea5e26b448)" style="fill: none; stroke: #e5e5e5; stroke-linecap: square"/>
     </g>
     <g id="text_3">
      <text style="font-size: 11px; font-family: 'IBM Plex Sans'; text-anchor: start; fill: #4d4d4d" x="26.64" y="149.794884" transform="rotate(-0 26.64 149.794884)">15,000</text>
     </g>
    </g>
    <g id="ytick_5">
     <g id="line2d_5">
      <path d="M 64.832344 80.795723  L 734.88 80.795723  " clip-path="url(#pea5e26b448)" style="fill: none; stroke: #e5e5e5; stroke-linecap: square"/>
     </g>
     <g id="text_4">
      <text style="font-size: 11px; font-family: 'IBM Plex Sans'; text-anchor: start; fill: #4d4d4d" x="26.64" y="84.865723" transform="rotate(-0 26.64 84.865723)">20,000</text>
     </g>
    </g>
    <g id="ytick_6">
     <g id="line2d_6">
      <path d="M 64.832344 308.047788  L 734.88 308.047788  " clip-path="url(#pea5e26b448)" style="fill: none; stroke: #fafafa; stroke-width: 0.5; stroke-linecap: square"/>
     </g>
    </g>
    <g id="ytick_7">
     <g id="line2d_7">
      <path d="M 64.832344 243.118626  L 734.88 243.118626  " clip-path="url(#pea5e26b448)" style="fill: none; stroke: #fafafa; stroke-width: 0.5; stroke-linecap: square"/>
     </g>
    </g>
    <g id="ytick_8">
     <g id="line2d_8">
      <path d="M 64.832344 178.189465  L 734.88 178.189465  " clip-path="url(#pea5e26b448)" style="fill: none; stroke: #fafafa; stroke-width: 0.5; stroke-linecap: square"/>
     </g>
    </g>
    <g id="ytick_9">
     <g id="line2d_9">
      <path d="M 64.832344 113.260304  L 734.88 113.260304  " clip-path="url(#pea5e26b448)" style="fill: none; stroke: #fafafa; stroke-width: 0.5; stroke-linecap: square"/>
     </g>
    </g>
    <g id="ytick_10">
     <g id="line2d_10">
      <path d="M 64.832344 48.331142  L 734.88 48.331142  " clip-path="url(#pea5e26b448)" style="fill: none; stroke: #fafafa; stroke-width: 0.5; stroke-linecap: square"/>
     </g>
    </g>
   </g>
   <g id="FillBetweenPolyCollection_1">
    <path d="M 64.832344 146.620907  L 64.832344 146.620907  L 87.167266 146.22933  L 109.502188 145.631782  L 131.837109 145.255937  L 154.172031 144.924369  L 176.506953 144.623601  L 198.841875 143.770654  L 221.176797 142.389734  L 243.511719 141.10687  L 265.846641 139.587652  L 288.181563 138.115721  L 310.516484 136.520965  L 332.851406 135.168384  L 355.186328 133.683095  L 377.52125 132.496712  L 399.856172 131.269128  L 422.191094 130.004295  L 444.526016 129.005258  L 466.860938 127.885753  L 489.195859 126.721222  L 511.530781 125.689095  L 533.865703 124.623998  L 556.200625 123.740677  L 578.535547 122.793218  L 600.870469 121.96803  L 623.205391 121.372413  L 645.540313 120.664911  L 667.875234 120.091911  L 690.210156 119.720465  L 712.545078 119.349158  L 734.88 118.931117  L 734.88 113.481063  L 734.88 113.481063  L 712.545078 113.98751  L 690.210156 114.506943  L 667.875234 115.039363  L 645.540313 115.714626  L 623.205391 116.558705  L 600.870469 117.324869  L 578.535547 118.324778  L 556.200625 119.480517  L 533.865703 120.571327  L 511.530781 121.843939  L 489.195859 123.168494  L 466.860938 124.583949  L 444.526016 125.986419  L 422.191094 127.246045  L 399.856172 128.843302  L 377.52125 130.37563  L 355.186328 131.869001  L 332.851406 133.661046  L 310.516484 135.297261  L 288.181563 137.167221  L 265.846641 138.868365  L 243.511719 140.59548  L 221.176797 142.036908  L 198.841875 143.55625  L 176.506953 144.49123  L 154.172031 144.828862  L 131.837109 145.192465  L 109.502188 145.595026  L 87.167266 146.218346  L 64.832344 146.620907  z " clip-path="url(#pea5e26b448)" style="fill: #ffc729; fill-opacity: 0.219608"/>
   </g>
   <g id="line2d_11">
    <path d="M 64.832344 146.620907  L 87.167266 146.22933  L 109.502188 145.631782  L 131.837109 145.255937  L 154.172031 144.924369  L 176.506953 144.623601  L 198.841875 143.770654  L 221.176797 142.389734  L 243.511719 141.10687  L 265.846641 139.587652  L 288.181563 138.115721  L 310.516484 136.520965  L 332.851406 135.168384  L 355.186328 133.683095  L 377.52125 132.496712  L 399.856172 131.269128  L 422.191094 130.004295  L 444.526016 129.005258  L 466.860938 127.885753  L 489.195859 126.721222  L 511.530781 125.689095  L 533.865703 124.623998  L 556.200625 123.740677  L 578.535547 122.793218  L 600.870469 121.96803  L 623.205391 121.372413  L 645.540313 120.664911  L 667.875234 120.091911  L 690.210156 119.720465  L 712.545078 119.349158  L 734.88 118.931117  " clip-path="url(#pea5e26b448)" style="fill: none; stroke: #000000; stroke-opacity: 0; stroke-width: 0.886227; stroke-linejoin: miter"/>
   </g>
   <g id="line2d_12">
    <path d="M 64.832344 146.620907  L 87.167266 146.218346  L 109.502188 145.595026  L 131.837109 145.192465  L 154.172031 144.828862  L 176.506953 144.49123  L 198.841875 143.55625  L 221.176797 142.036908  L 243.511719 140.59548  L 265.846641 138.868365  L 288.181563 137.167221  L 310.516484 135.297261  L 332.851406 133.661046  L 355.186328 131.869001  L 377.52125 130.37563  L 399.856172 128.843302  L 422.191094 127.246045  L 444.526016 125.986419  L 466.860938 124.583949  L 489.195859 123.168494  L 511.530781 121.843939  L 533.865703 120.571327  L 556.200625 119.480517  L 578.535547 118.324778  L 600.870469 117.324869  L 623.205391 116.558705  L 645.540313 115.714626  L 667.875234 115.039363  L 690.210156 114.506943  L 712.545078 113.98751  L 734.88 113.481063  " clip-path="url(#pea5e26b448)" style="fill: none; stroke: #000000; stroke-opacity: 0; stroke-width: 0.886227; stroke-linejoin: miter"/>
   </g>
   <g id="FillBetweenPolyCollection_2">
    <path d="M 64.832344 146.620907  L 64.832344 146.620907  L 87.167266 146.254318  L 109.502188 145.698163  L 131.837109 145.36783  L 154.172031 145.076744  L 176.506953 144.830381  L 198.841875 144.093784  L 221.176797 142.942999  L 243.511719 141.945349  L 265.846641 140.793691  L 288.181563 139.746516  L 310.516484 138.658069  L 332.851406 137.758191  L 355.186328 136.815469  L 377.52125 136.098259  L 399.856172 135.378572  L 422.191094 134.618156  L 444.526016 134.144882  L 466.860938 133.467119  L 489.195859 132.77701  L 511.530781 132.253353  L 533.865703 131.639124  L 556.200625 131.179299  L 578.535547 130.695849  L 600.870469 130.205896  L 623.205391 129.860709  L 645.540313 129.365037  L 667.875234 128.922455  L 690.210156 128.623429  L 712.545078 128.306118  L 734.88 127.930822  L 734.88 118.931117  L 734.88 118.931117  L 712.545078 119.349158  L 690.210156 119.720465  L 667.875234 120.091911  L 645.540313 120.664911  L 623.205391 121.372413  L 600.870469 121.96803  L 578.535547 122.793218  L 556.200625 123.740677  L 533.865703 124.623998  L 511.530781 125.689095  L 489.195859 126.721222  L 466.860938 127.885753  L 444.526016 129.005258  L 422.191094 130.004295  L 399.856172 131.269128  L 377.52125 132.496712  L 355.186328 133.683095  L 332.851406 135.168384  L 310.516484 136.520965  L 288.181563 138.115721  L 265.846641 139.587652  L 243.511719 141.10687  L 221.176797 142.389734  L 198.841875 143.770654  L 176.506953 144.623601  L 154.172031 144.924369  L 131.837109 145.255937  L 109.502188 145.631782  L 87.167266 146.22933  L 64.832344 146.620907  z " clip-path="url(#pea5e26b448)" style="fill: #fc9706; fill-opacity: 0.219608"/>
   </g>
   <g id="line2d_13">
    <path d="M 64.832344 146.620907  L 87.167266 146.254318  L 109.502188 145.698163  L 131.837109 145.36783  L 154.172031 145.076744  L 176.506953 144.830381  L 198.841875 144.093784  L 221.176797 142.942999  L 243.511719 141.945349  L 265.846641 140.793691  L 288.181563 139.746516  L 310.516484 138.658069  L 332.851406 137.758191  L 355.186328 136.815469  L 377.52125 136.098259  L 399.856172 135.378572  L 422.191094 134.618156  L 444.526016 134.144882  L 466.860938 133.467119  L 489.195859 132.77701  L 511.530781 132.253353  L 533.865703 131.639124  L 556.200625 131.179299  L 578.535547 130.695849  L 600.870469 130.205896  L 623.205391 129.860709  L 645.540313 129.365037  L 667.875234 128.922455  L 690.210156 128.623429  L 712.545078 128.306118  L 734.88 127.930822  " clip-path="url(#pea5e26b448)" style="fill: none; stroke: #000000; stroke-opacity: 0; stroke-width: 0.886227; stroke-linejoin: miter"/>
   </g>
   <g id="line2d_14">
    <path d="M 64.832344 146.620907  L 87.167266 146.22933  L 109.502188 145.631782  L 131.837109 145.255937  L 154.172031 144.924369  L 176.506953 144.623601  L 198.841875 143.770654  L 221.176797 142.389734  L 243.511719 141.10687  L 265.846641 139.587652  L 288.181563 138.115721  L 310.516484 136.520965  L 332.851406 135.168384  L 355.186328 133.683095  L 377.52125 132.496712  L 399.856172 131.269128  L 422.191094 130.004295  L 444.526016 129.005258  L 466.860938 127.885753  L 489.195859 126.721222  L 511.530781 125.689095  L 533.865703 124.623998  L 556.200625 123.740677  L 578.535547 122.793218  L 600.870469 121.96803  L 623.205391 121.372413  L 645.540313 120.664911  L 667.875234 120.091911  L 690.210156 119.720465  L 712.545078 119.349158  L 734.88 118.931117  " clip-path="url(#pea5e26b448)" style="fill: none; stroke: #000000; stroke-opacity: 0; stroke-width: 0.886227; stroke-linejoin: miter"/>
   </g>
   <g id="FillBetweenPolyCollection_3">
    <path d="M 64.832344 146.620907  L 64.832344 146.620907  L 87.167266 146.620907  L 109.502188 146.620907  L 131.837109 146.620907  L 154.172031 146.620907  L 176.506953 146.620907  L 198.841875 146.620907  L 221.176797 146.620907  L 243.511719 146.620907  L 265.846641 146.620907  L 288.181563 146.620907  L 310.516484 146.620907  L 332.851406 146.620907  L 355.186328 146.620907  L 377.52125 146.620907  L 399.856172 146.620907  L 422.191094 146.620907  L 444.526016 146.620907  L 466.860938 146.620907  L 489.195859 146.620907  L 511.530781 146.620907  L 533.865703 146.620907  L 556.200625 146.620907  L 578.535547 146.620907  L 600.870469 146.620907  L 623.205391 146.620907  L 645.540313 146.620907  L 667.875234 146.620907  L 690.210156 146.620907  L 712.545078 146.620907  L 734.88 146.620907  L 734.88 127.930822  L 734.88 127.930822  L 712.545078 128.306118  L 690.210156 128.623429  L 667.875234 128.922455  L 645.540313 129.365037  L 623.205391 129.860709  L 600.870469 130.205896  L 578.535547 130.695849  L 556.200625 131.179299  L 533.865703 131.639124  L 511.530781 132.253353  L 489.195859 132.77701  L 466.860938 133.467119  L 444.526016 134.144882  L 422.191094 134.618156  L 399.856172 135.378572  L 377.52125 136.098259  L 355.186328 136.815469  L 332.851406 137.758191  L 310.516484 138.658069  L 288.181563 139.746516  L 265.846641 140.793691  L 243.511719 141.945349  L 221.176797 142.942999  L 198.841875 144.093784  L 176.506953 144.830381  L 154.172031 145.076744  L 131.837109 145.36783  L 109.502188 145.698163  L 87.167266 146.254318  L 64.832344 146.620907  z " clip-path="url(#pea5e26b448)" style="fill: #999999; fill-opacity: 0.219608"/>
   </g>
   <g id="line2d_15">
    <path d="M 64.832344 146.620907  L 87.167266 146.620907  L 109.502188 146.620907  L 131.837109 146.620907  L 154.172031 146.620907  L 176.506953 146.620907  L 198.841875 146.620907  L 221.176797 146.620907  L 243.511719 146.620907  L 265.846641 146.620907  L 288.181563 146.620907  L 310.516484 146.620907  L 332.851406 146.620907  L 355.186328 146.620907  L 377.52125 146.620907  L 399.856172 146.620907  L 422.191094 146.620907  L 444.526016 146.620907  L 466.860938 146.620907  L 489.195859 146.620907  L 511.530781 146.620907  L 533.865703 146.620907  L 556.200625 146.620907  L 578.535547 146.620907  L 600.870469 146.620907  L 623.205391 146.620907  L 645.540313 146.620907  L 667.875234 146.620907  L 690.210156 146.620907  L 712.545078 146.620907  L 734.88 146.620907  " clip-path="url(#pea5e26b448)" style="fill: none; stroke: #000000; stroke-opacity: 0; stroke-width: 0.886227; stroke-linejoin: miter"/>
   </g>
   <g id="line2d_16">
    <path d="M 64.832344 146.620907  L 87.167266 146.254318  L 109.502188 145.698163  L 131.837109 145.36783  L 154.172031 145.076744  L 176.506953 144.830381  L 198.841875 144.093784  L 221.176797 142.942999  L 243.511719 141.945349  L 265.846641 140.793691  L 288.181563 139.746516  L 310.516484 138.658069  L 332.851406 137.758191  L 355.186328 136.815469  L 377.52125 136.098259  L 399.856172 135.378572  L 422.191094 134.618156  L 444.526016 134.144882  L 466.860938 133.467119  L 489.195859 132.77701  L 511.530781 132.253353  L 533.865703 131.639124  L 556.200625 131.179299  L 578.535547 130.695849  L 600.870469 130.205896  L 623.205391 129.860709  L 645.540313 129.365037  L 667.875234 128.922455  L 690.210156 128.623429  L 712.545078 128.306118  L 734.88 127.930822  " clip-path="url(#pea5e26b448)" style="fill: none; stroke: #000000; stroke-opacity: 0; stroke-width: 0.886227; stroke-linejoin: miter"/>
   </g>
   <g id="FillBetweenPolyCollection_4">
    <path d="M 64.832344 146.620907  L 64.832344 340.512368  L 87.167266 340.512368  L 109.502188 340.512368  L 131.837109 340.512368  L 154.172031 340.512368  L 176.506953 340.512368  L 198.841875 340.512368  L 221.176797 340.512368  L 243.511719 340.512368  L 265.846641 340.512368  L 288.181563 340.512368  L 310.516484 340.512368  L 332.851406 340.512368  L 355.186328 340.512368  L 377.52125 340.512368  L 399.856172 340.512368  L 422.191094 340.512368  L 444.526016 340.512368  L 466.860938 340.512368  L 489.195859 340.512368  L 511.530781 340.512368  L 533.865703 340.512368  L 556.200625 340.512368  L 578.535547 340.512368  L 600.870469 340.512368  L 623.205391 340.512368  L 645.540313 340.512368  L 667.875234 340.512368  L 690.210156 340.512368  L 712.545078 340.512368  L 734.88 340.512368  L 734.88 146.620907  L 734.88 146.620907  L 712.545078 146.620907  L 690.210156 146.620907  L 667.875234 146.620907  L 645.540313 146.620907  L 623.205391 146.620907  L 600.870469 146.620907  L 578.535547 146.620907  L 556.200625 146.620907  L 533.865703 146.620907  L 511.530781 146.620907  L 489.195859 146.620907  L 466.860938 146.620907  L 444.526016 146.620907  L 422.191094 146.620907  L 399.856172 146.620907  L 377.52125 146.620907  L 355.186328 146.620907  L 332.851406 146.620907  L 310.516484 146.620907  L 288.181563 146.620907  L 265.846641 146.620907  L 243.511719 146.620907  L 221.176797 146.620907  L 198.841875 146.620907  L 176.506953 146.620907  L 154.172031 146.620907  L 131.837109 146.620907  L 109.502188 146.620907  L 87.167266 146.620907  L 64.832344 146.620907  z " clip-path="url(#pea5e26b448)" style="fill: #e0e0e0; fill-opacity: 0.219608"/>
   </g>
   <g id="line2d_17">
    <path d="M 64.832344 340.512368  L 87.167266 340.512368  L 109.502188 340.512368  L 131.837109 340.512368  L 154.172031 340.512368  L 176.506953 340.512368  L 198.841875 340.512368  L 221.176797 340.512368  L 243.511719 340.512368  L 265.846641 340.512368  L 288.181563 340.512368  L 310.516484 340.512368  L 332.851406 340.512368  L 355.186328 340.512368  L 377.52125 340.512368  L 399.856172 340.512368  L 422.191094 340.512368  L 444.526016 340.512368  L 466.860938 340.512368  L 489.195859 340.512368  L 511.530781 340.512368  L 533.865703 340.512368  L 556.200625 340.512368  L 578.535547 340.512368  L 600.870469 340.512368  L 623.205391 340.512368  L 645.540313 340.512368  L 667.875234 340.512368  L 690.210156 340.512368  L 712.545078 340.512368  L 734.88 340.512368  " clip-path="url(#pea5e26b448)" style="fill: none; stroke: #000000; stroke-opacity: 0; stroke-width: 0.886227; stroke-linejoin: miter"/>
   </g>
   <g id="line2d_18">
    <path d="M 64.832344 146.620907  L 87.167266 146.620907  L 109.502188 146.620907  L 131.837109 146.620907  L 154.172031 146.620907  L 176.506953 146.620907  L 198.841875 146.620907  L 221.176797 146.620907  L 243.511719 146.620907  L 265.846641 146.620907  L 288.181563 146.620907  L 310.516484 146.620907  L 332.851406 146.620907  L 355.186328 146.620907  L 377.52125 146.620907  L 399.856172 146.620907  L 422.191094 146.620907  L 444.526016 146.620907  L 466.860938 146.620907  L 489.195859 146.620907  L 511.530781 146.620907  L 533.865703 146.620907  L 556.200625 146.620907  L 578.535547 146.620907  L 600.870469 146.620907  L 623.205391 146.620907  L 645.540313 146.620907  L 667.875234 146.620907  L 690.210156 146.620907  L 712.545078 146.620907  L 734.88 146.620907  " clip-path="url(#pea5e26b448)" style="fill: none; stroke: #000000; stroke-opacity: 0; stroke-width: 0.886227; stroke-linejoin: miter"/>
   </g>
   <g id="FillBetweenPolyCollection_5">
    <path d="M 64.832344 203.22615  L 64.832344 203.22615  L 87.167266 202.58058  L 109.502188 201.861683  L 131.837109 200.533984  L 154.172031 199.546004  L 176.506953 198.434497  L 198.841875 197.008134  L 221.176797 195.632188  L 243.511719 194.030738  L 265.846641 192.462947  L 288.181563 190.404547  L 310.516484 187.523231  L 332.851406 184.568067  L 355.186328 182.128045  L 377.52125 179.771115  L 399.856172 177.695255  L 422.191094 175.911853  L 444.526016 174.189766  L 466.860938 171.98191  L 489.195859 170.206463  L 511.530781 168.511317  L 533.865703 167.793092  L 556.200625 165.657911  L 578.535547 165.308779  L 600.870469 165.384409  L 623.205391 165.29617  L 645.540313 165.173848  L 667.875234 163.517267  L 690.210156 163.598027  L 712.545078 164.05915  L 734.88 164.157311  L 734.88 57.096579  L 734.88 57.096579  L 712.545078 57.564069  L 690.210156 58.615921  L 667.875234 61.758493  L 645.540313 65.524384  L 623.205391 69.498049  L 600.870469 73.588586  L 578.535547 77.601208  L 556.200625 82.535824  L 533.865703 87.626271  L 511.530781 93.028377  L 489.195859 98.768115  L 466.860938 105.767478  L 444.526016 113.403148  L 422.191094 121.038817  L 399.856172 128.908231  L 377.52125 137.764569  L 355.186328 146.919581  L 332.851406 156.100564  L 310.516484 165.268562  L 288.181563 173.28082  L 265.846641 178.656955  L 243.511719 183.020195  L 221.176797 186.92893  L 198.841875 190.279275  L 176.506953 193.421846  L 154.172031 196.083942  L 131.837109 198.447363  L 109.502188 201.018558  L 87.167266 202.317141  L 64.832344 203.22615  z " clip-path="url(#pea5e26b448)" style="fill: #ffc729"/>
   </g>
   <g id="line2d_19">
    <path d="M 64.832344 203.22615  L 87.167266 202.58058  L 109.502188 201.861683  L 131.837109 200.533984  L 154.172031 199.546004  L 176.506953 198.434497  L 198.841875 197.008134  L 221.176797 195.632188  L 243.511719 194.030738  L 265.846641 192.462947  L 288.181563 190.404547  L 310.516484 187.523231  L 332.851406 184.568067  L 355.186328 182.128045  L 377.52125 179.771115  L 399.856172 177.695255  L 422.191094 175.911853  L 444.526016 174.189766  L 466.860938 171.98191  L 489.195859 170.206463  L 511.530781 168.511317  L 533.865703 167.793092  L 556.200625 165.657911  L 578.535547 165.308779  L 600.870469 165.384409  L 623.205391 165.29617  L 645.540313 165.173848  L 667.875234 163.517267  L 690.210156 163.598027  L 712.545078 164.05915  L 734.88 164.157311  " clip-path="url(#pea5e26b448)" style="fill: none; stroke: #000000; stroke-opacity: 0; stroke-width: 0.886227; stroke-linejoin: miter"/>
   </g>
   <g id="line2d_20">
    <path d="M 64.832344 203.22615  L 87.167266 202.317141  L 109.502188 201.018558  L 131.837109 198.447363  L 154.172031 196.083942  L 176.506953 193.421846  L 198.841875 190.279275  L 221.176797 186.92893  L 243.511719 183.020195  L 265.846641 178.656955  L 288.181563 173.28082  L 310.516484 165.268562  L 332.851406 156.100564  L 355.186328 146.919581  L 377.52125 137.764569  L 399.856172 128.908231  L 422.191094 121.038817  L 444.526016 113.403148  L 466.860938 105.767478  L 489.195859 98.768115  L 511.530781 93.028377  L 533.865703 87.626271  L 556.200625 82.535824  L 578.535547 77.601208  L 600.870469 73.588586  L 623.205391 69.498049  L 645.540313 65.524384  L 667.875234 61.758493  L 690.210156 58.615921  L 712.545078 57.564069  L 734.88 57.096579  " clip-path="url(#pea5e26b448)" style="fill: none; stroke: #000000; stroke-opacity: 0; stroke-width: 0.886227; stroke-linejoin: miter"/>
   </g>
   <g id="FillBetweenPolyCollection_6">
    <path d="M 64.832344 203.22615  L 64.832344 203.22615  L 87.167266 202.829544  L 109.502188 202.390508  L 131.837109 201.602365  L 154.172031 201.145277  L 176.506953 200.714801  L 198.841875 200.155593  L 221.176797 199.727145  L 243.511719 199.079076  L 265.846641 198.702001  L 288.181563 198.111637  L 310.516484 197.130438  L 332.851406 196.185973  L 355.186328 195.462924  L 377.52125 194.716841  L 399.856172 194.314422  L 422.191094 193.982564  L 444.526016 193.718499  L 466.860938 193.188324  L 489.195859 192.941942  L 511.530781 192.508567  L 533.865703 192.946421  L 556.200625 191.965117  L 578.535547 192.412887  L 600.870469 192.844536  L 623.205391 193.228585  L 645.540313 193.532326  L 667.875234 192.212842  L 690.210156 192.394208  L 712.545078 193.037597  L 734.88 193.156081  L 734.88 164.157311  L 734.88 164.157311  L 712.545078 164.05915  L 690.210156 163.598027  L 667.875234 163.517267  L 645.540313 165.173848  L 623.205391 165.29617  L 600.870469 165.384409  L 578.535547 165.308779  L 556.200625 165.657911  L 533.865703 167.793092  L 511.530781 168.511317  L 489.195859 170.206463  L 466.860938 171.98191  L 444.526016 174.189766  L 422.191094 175.911853  L 399.856172 177.695255  L 377.52125 179.771115  L 355.186328 182.128045  L 332.851406 184.568067  L 310.516484 187.523231  L 288.181563 190.404547  L 265.846641 192.462947  L 243.511719 194.030738  L 221.176797 195.632188  L 198.841875 197.008134  L 176.506953 198.434497  L 154.172031 199.546004  L 131.837109 200.533984  L 109.502188 201.861683  L 87.167266 202.58058  L 64.832344 203.22615  z " clip-path="url(#pea5e26b448)" style="fill: #fc9706"/>
   </g>
   <g id="line2d_21">
    <path d="M 64.832344 203.22615  L 87.167266 202.829544  L 109.502188 202.390508  L 131.837109 201.602365  L 154.172031 201.145277  L 176.506953 200.714801  L 198.841875 200.155593  L 221.176797 199.727145  L 243.511719 199.079076  L 265.846641 198.702001  L 288.181563 198.111637  L 310.516484 197.130438  L 332.851406 196.185973  L 355.186328 195.462924  L 377.52125 194.716841  L 399.856172 194.314422  L 422.191094 193.982564  L 444.526016 193.718499  L 466.860938 193.188324  L 489.195859 192.941942  L 511.530781 192.508567  L 533.865703 192.946421  L 556.200625 191.965117  L 578.535547 192.412887  L 600.870469 192.844536  L 623.205391 193.228585  L 645.540313 193.532326  L 667.875234 192.212842  L 690.210156 192.394208  L 712.545078 193.037597  L 734.88 193.156081  " clip-path="url(#pea5e26b448)" style="fill: none; stroke: #000000; stroke-opacity: 0; stroke-width: 0.886227; stroke-linejoin: miter"/>
   </g>
   <g id="line2d_22">
    <path d="M 64.832344 203.22615  L 87.167266 202.58058  L 109.502188 201.861683  L 131.837109 200.533984  L 154.172031 199.546004  L 176.506953 198.434497  L 198.841875 197.008134  L 221.176797 195.632188  L 243.511719 194.030738  L 265.846641 192.462947  L 288.181563 190.404547  L 310.516484 187.523231  L 332.851406 184.568067  L 355.186328 182.128045  L 377.52125 179.771115  L 399.856172 177.695255  L 422.191094 175.911853  L 444.526016 174.189766  L 466.860938 171.98191  L 489.195859 170.206463  L 511.530781 168.511317  L 533.865703 167.793092  L 556.200625 165.657911  L 578.535547 165.308779  L 600.870469 165.384409  L 623.205391 165.29617  L 645.540313 165.173848  L 667.875234 163.517267  L 690.210156 163.598027  L 712.545078 164.05915  L 734.88 164.157311  " clip-path="url(#pea5e26b448)" style="fill: none; stroke: #000000; stroke-opacity: 0; stroke-width: 0.886227; stroke-linejoin: miter"/>
   </g>
   <g id="FillBetweenPolyCollection_7">
    <path d="M 64.832344 203.22615  L 64.832344 203.22615  L 87.167266 203.22615  L 109.502188 203.22615  L 131.837109 203.22615  L 154.172031 203.22615  L 176.506953 203.22615  L 198.841875 203.22615  L 221.176797 203.22615  L 243.511719 203.22615  L 265.846641 203.22615  L 288.181563 203.22615  L 310.516484 203.22615  L 332.851406 203.22615  L 355.186328 203.22615  L 377.52125 203.22615  L 399.856172 203.22615  L 422.191094 203.22615  L 444.526016 203.22615  L 466.860938 203.22615  L 489.195859 203.22615  L 511.530781 203.22615  L 533.865703 203.22615  L 556.200625 203.22615  L 578.535547 203.22615  L 600.870469 203.22615  L 623.205391 203.22615  L 645.540313 203.22615  L 667.875234 203.22615  L 690.210156 203.22615  L 712.545078 203.22615  L 734.88 203.22615  L 734.88 193.156081  L 734.88 193.156081  L 712.545078 193.037597  L 690.210156 192.394208  L 667.875234 192.212842  L 645.540313 193.532326  L 623.205391 193.228585  L 600.870469 192.844536  L 578.535547 192.412887  L 556.200625 191.965117  L 533.865703 192.946421  L 511.530781 192.508567  L 489.195859 192.941942  L 466.860938 193.188324  L 444.526016 193.718499  L 422.191094 193.982564  L 399.856172 194.314422  L 377.52125 194.716841  L 355.186328 195.462924  L 332.851406 196.185973  L 310.516484 197.130438  L 288.181563 198.111637  L 265.846641 198.702001  L 243.511719 199.079076  L 221.176797 199.727145  L 198.841875 200.155593  L 176.506953 200.714801  L 154.172031 201.145277  L 131.837109 201.602365  L 109.502188 202.390508  L 87.167266 202.829544  L 64.832344 203.22615  z " clip-path="url(#pea5e26b448)" style="fill: #999999"/>
   </g>
   <g id="line2d_23">
    <path d="M 64.832344 203.22615  L 87.167266 203.22615  L 109.502188 203.22615  L 131.837109 203.22615  L 154.172031 203.22615  L 176.506953 203.22615  L 198.841875 203.22615  L 221.176797 203.22615  L 243.511719 203.22615  L 265.846641 203.22615  L 288.181563 203.22615  L 310.516484 203.22615  L 332.851406 203.22615  L 355.186328 203.22615  L 377.52125 203.22615  L 399.856172 203.22615  L 422.191094 203.22615  L 444.526016 203.22615  L 466.860938 203.22615  L 489.195859 203.22615  L 511.530781 203.22615  L 533.865703 203.22615  L 556.200625 203.22615  L 578.535547 203.22615  L 600.870469 203.22615  L 623.205391 203.22615  L 645.540313 203.22615  L 667.875234 203.22615  L 690.210156 203.22615  L 712.545078 203.22615  L 734.88 203.22615  " clip-path="url(#pea5e26b448)" style="fill: none; stroke: #000000; stroke-opacity: 0; stroke-width: 0.886227; stroke-linejoin: miter"/>
   </g>
   <g id="line2d_24">
    <path d="M 64.832344 203.22615  L 87.167266 202.829544  L 109.502188 202.390508  L 131.837109 201.602365  L 154.172031 201.145277  L 176.506953 200.714801  L 198.841875 200.155593  L 221.176797 199.727145  L 243.511719 199.079076  L 265.846641 198.702001  L 288.181563 198.111637  L 310.516484 197.130438  L 332.851406 196.185973  L 355.186328 195.462924  L 377.52125 194.716841  L 399.856172 194.314422  L 422.191094 193.982564  L 444.526016 193.718499  L 466.860938 193.188324  L 489.195859 192.941942  L 511.530781 192.508567  L 533.865703 192.946421  L 556.200625 191.965117  L 578.535547 192.412887  L 600.870469 192.844536  L 623.205391 193.228585  L 645.540313 193.532326  L 667.875234 192.212842  L 690.210156 192.394208  L 712.545078 193.037597  L 734.88 193.156081  " clip-path="url(#pea5e26b448)" style="fill: none; stroke: #000000; stroke-opacity: 0; stroke-width: 0.886227; stroke-linejoin: miter"/>
   </g>
   <g id="FillBetweenPolyCollection_8">
    <path d="M 64.832344 203.22615  L 64.832344 340.512368  L 87.167266 340.512368  L 109.502188 340.512368  L 131.837109 340.512368  L 154.172031 340.512368  L 176.506953 340.512368  L 198.841875 340.512368  L 221.176797 340.512368  L 243.511719 340.512368  L 265.846641 340.512368  L 288.181563 340.512368  L 310.516484 340.512368  L 332.851406 340.512368  L 355.186328 340.512368  L 377.52125 340.512368  L 399.856172 340.512368  L 422.191094 340.512368  L 444.526016 340.512368  L 466.860938 340.512368  L 489.195859 340.512368  L 511.530781 340.512368  L 533.865703 340.512368  L 556.200625 340.512368  L 578.535547 340.512368  L 600.870469 340.512368  L 623.205391 340.512368  L 645.540313 340.512368  L 667.875234 340.512368  L 690.210156 340.512368  L 712.545078 340.512368  L 734.88 340.512368  L 734.88 203.22615  L 734.88 203.22615  L 712.545078 203.22615  L 690.210156 203.22615  L 667.875234 203.22615  L 645.540313 203.22615  L 623.205391 203.22615  L 600.870469 203.22615  L 578.535547 203.22615  L 556.200625 203.22615  L 533.865703 203.22615  L 511.530781 203.22615  L 489.195859 203.22615  L 466.860938 203.22615  L 444.526016 203.22615  L 422.191094 203.22615  L 399.856172 203.22615  L 377.52125 203.22615  L 355.186328 203.22615  L 332.851406 203.22615  L 310.516484 203.22615  L 288.181563 203.22615  L 265.846641 203.22615  L 243.511719 203.22615  L 221.176797 203.22615  L 198.841875 203.22615  L 176.506953 203.22615  L 154.172031 203.22615  L 131.837109 203.22615  L 109.502188 203.22615  L 87.167266 203.22615  L 64.832344 203.22615  z " clip-path="url(#pea5e26b448)" style="fill: #e0e0e0"/>
   </g>
   <g id="line2d_25">
    <path d="M 64.832344 340.512368  L 87.167266 340.512368  L 109.502188 340.512368  L 131.837109 340.512368  L 154.172031 340.512368  L 176.506953 340.512368  L 198.841875 340.512368  L 221.176797 340.512368  L 243.511719 340.512368  L 265.846641 340.512368  L 288.181563 340.512368  L 310.516484 340.512368  L 332.851406 340.512368  L 355.186328 340.512368  L 377.52125 340.512368  L 399.856172 340.512368  L 422.191094 340.512368  L 444.526016 340.512368  L 466.860938 340.512368  L 489.195859 340.512368  L 511.530781 340.512368  L 533.865703 340.512368  L 556.200625 340.512368  L 578.535547 340.512368  L 600.870469 340.512368  L 623.205391 340.512368  L 645.540313 340.512368  L 667.875234 340.512368  L 690.210156 340.512368  L 712.545078 340.512368  L 734.88 340.512368  " clip-path="url(#pea5e26b448)" style="fill: none; stroke: #000000; stroke-opacity: 0; stroke-width: 0.886227; stroke-linejoin: miter"/>
   </g>
   <g id="line2d_26">
    <path d="M 64.832344 203.22615  L 87.167266 203.22615  L 109.502188 203.22615  L 131.837109 203.22615  L 154.172031 203.22615  L 176.506953 203.22615  L 198.841875 203.22615  L 221.176797 203.22615  L 243.511719 203.22615  L 265.846641 203.22615  L 288.181563 203.22615  L 310.516484 203.22615  L 332.851406 203.22615  L 355.186328 203.22615  L 377.52125 203.22615  L 399.856172 203.22615  L 422.191094 203.22615  L 444.526016 203.22615  L 466.860938 203.22615  L 489.195859 203.22615  L 511.530781 203.22615  L 533.865703 203.22615  L 556.200625 203.22615  L 578.535547 203.22615  L 600.870469 203.22615  L 623.205391 203.22615  L 645.540313 203.22615  L 667.875234 203.22615  L 690.210156 203.22615  L 712.545078 203.22615  L 734.88 203.22615  " clip-path="url(#pea5e26b448)" style="fill: none; stroke: #000000; stroke-opacity: 0; stroke-width: 0.886227; stroke-linejoin: miter"/>
   </g>
   <g id="line2d_27">
    <path d="M 734.88 271.869259  L 752.747938 271.869259  " style="fill: none; stroke: #e0e0e0; stroke-linecap: round"/>
   </g>
   <g id="line2d_28">
    <path d="M 752.747938 271.869259  L 761.681906 271.869259  " style="fill: none; stroke: #e0e0e0; stroke-linecap: round"/>
   </g>
   <g id="line2d_29">
    <path d="M 734.88 198.191115  L 752.747938 198.191115  " style="fill: none; stroke: #999999; stroke-linecap: round"/>
   </g>
   <g id="line2d_30">
    <path d="M 752.747938 198.191115  L 761.681906 198.191115  " style="fill: none; stroke: #999999; stroke-linecap: round"/>
   </g>
   <g id="line2d_31">
    <path d="M 734.88 178.656696  L 752.747938 178.656696  " style="fill: none; stroke: #fc9706; stroke-linecap: round"/>
   </g>
   <g id="line2d_32">
    <path d="M 752.747938 178.656696  L 761.681906 178.656696  " style="fill: none; stroke: #fc9706; stroke-linecap: round"/>
   </g>
   <g id="line2d_33">
    <path d="M 734.88 110.626945  L 752.747938 110.626945  " style="fill: none; stroke: #ffc729; stroke-linecap: round"/>
   </g>
   <g id="line2d_34">
    <path d="M 752.747938 110.626945  L 761.681906 110.626945  " style="fill: none; stroke: #ffc729; stroke-linecap: round"/>
   </g>
   <g id="text_5">
    <text style="font-size: 9px; font-family: 'IBM Plex Sans'; text-anchor: end; fill: #a0af12" x="393.386906" y="57.805118" transform="rotate(-0 393.386906 57.805118)">Crossover</text>
   </g>
   <g id="text_6">
    <text style="font-weight: 700; font-size: 9px; font-family: 'IBM Plex Sans'; text-anchor: start; fill: #e0e0e0" x="768.382383" y="274.299259" transform="rotate(-0 768.382383 274.299259)">Base (2025 level)</text>
   </g>
   <g id="text_7">
    <text style="font-weight: 700; font-size: 9px; font-family: 'IBM Plex Sans'; text-anchor: start; fill: #999999" x="768.382383" y="200.607756" transform="rotate(-0 768.382383 200.607756)">Organic growth</text>
   </g>
   <g id="text_8">
    <text style="font-weight: 700; font-size: 9px; font-family: 'IBM Plex Sans'; text-anchor: start; fill: #fc9706" x="768.382383" y="181.086696" transform="rotate(-0 768.382383 181.086696)">EV load</text>
   </g>
   <g id="text_9">
    <text style="font-weight: 700; font-size: 9px; font-family: 'IBM Plex Sans'; text-anchor: start; fill: #ffc729" x="768.382383" y="113.043586" transform="rotate(-0 768.382383 113.043586)">Building electrification</text>
   </g>
   <g id="line2d_35">
    <path d="M 400.087382 340.512368  L 400.087382 42.925789  " clip-path="url(#pea5e26b448)" style="fill: none; stroke-dasharray: 2.775,1.2; stroke-dashoffset: 0; stroke: #a0af12; stroke-width: 0.75"/>
   </g>
   <g id="line2d_36">
    <path d="M 400.087382 128.826768  L 422.191094 127.246045  L 444.526016 125.986419  L 466.860938 124.583949  L 489.195859 123.168494  L 511.530781 121.843939  L 533.865703 120.571327  L 556.200625 119.480517  L 578.535547 118.324778  L 600.870469 117.324869  L 623.205391 116.558705  L 645.540313 115.714626  L 667.875234 115.039363  L 690.210156 114.506943  L 712.545078 113.98751  L 734.88 113.481063  " clip-path="url(#pea5e26b448)" style="fill: none; stroke-dasharray: 0.35,1.25; stroke-dashoffset: 0; stroke: #999999"/>
   </g>
   <g id="patch_3">
    <path d="M 64.832344 340.512368  L 734.88 340.512368  " style="fill: none; stroke: #000000; stroke-width: 0.5; stroke-linejoin: miter; stroke-linecap: square"/>
   </g>
  </g>
  <g id="axes_2">
   <g id="patch_4">
    <path d="M 64.832344 656.218947  L 734.88 656.218947  L 734.88 358.632368  L 64.832344 358.632368  z " style="fill: #ffffff"/>
   </g>
   <g id="matplotlib.axis_3">
    <g id="xtick_14">
     <g id="line2d_37">
      <path d="M 64.832344 656.218947  " style="fill: none; stroke: #000000; stroke-width: 1.5; stroke-linecap: square"/>
      <defs>
       <path id="m500b113b85" d="M 0 0  L 0 2.75  " style="stroke: #000000"/>
      </defs>
      <g>
       <use xlink:href="#m500b113b85" x="64.832344" y="656.218947" style="stroke: #000000"/>
      </g>
     </g>
     <g id="text_10">
      <text style="font-size: 11px; font-family: 'IBM Plex Sans'; text-anchor: middle; fill: #4d4d4d" x="64.832344" y="669.308947" transform="rotate(-0 64.832344 669.308947)">2025</text>
     </g>
    </g>
    <g id="xtick_15">
     <g id="line2d_38">
      <path d="M 176.506953 656.218947  " style="fill: none; stroke: #000000; stroke-width: 1.5; stroke-linecap: square"/>
      <g>
       <use xlink:href="#m500b113b85" x="176.506953" y="656.218947" style="stroke: #000000"/>
      </g>
     </g>
     <g id="text_11">
      <text style="font-size: 11px; font-family: 'IBM Plex Sans'; text-anchor: middle; fill: #4d4d4d" x="176.506953" y="669.308947" transform="rotate(-0 176.506953 669.308947)">2030</text>
     </g>
    </g>
    <g id="xtick_16">
     <g id="line2d_39">
      <path d="M 288.181563 656.218947  " style="fill: none; stroke: #000000; stroke-width: 1.5; stroke-linecap: square"/>
      <g>
       <use xlink:href="#m500b113b85" x="288.181563" y="656.218947" style="stroke: #000000"/>
      </g>
     </g>
     <g id="text_12">
      <text style="font-size: 11px; font-family: 'IBM Plex Sans'; text-anchor: middle; fill: #4d4d4d" x="288.181563" y="669.308947" transform="rotate(-0 288.181563 669.308947)">2035</text>
     </g>
    </g>
    <g id="xtick_17">
     <g id="line2d_40">
      <path d="M 399.856172 656.218947  " style="fill: none; stroke: #000000; stroke-width: 1.5; stroke-linecap: square"/>
      <g>
       <use xlink:href="#m500b113b85" x="399.856172" y="656.218947" style="stroke: #000000"/>
      </g>
     </g>
     <g id="text_13">
      <text style="font-size: 11px; font-family: 'IBM Plex Sans'; text-anchor: middle; fill: #4d4d4d" x="399.856172" y="669.308947" transform="rotate(-0 399.856172 669.308947)">2040</text>
     </g>
    </g>
    <g id="xtick_18">
     <g id="line2d_41">
      <path d="M 511.530781 656.218947  " style="fill: none; stroke: #000000; stroke-width: 1.5; stroke-linecap: square"/>
      <g>
       <use xlink:href="#m500b113b85" x="511.530781" y="656.218947" style="stroke: #000000"/>
      </g>
     </g>
     <g id="text_14">
      <text style="font-size: 11px; font-family: 'IBM Plex Sans'; text-anchor: middle; fill: #4d4d4d" x="511.530781" y="669.308947" transform="rotate(-0 511.530781 669.308947)">2045</text>
     </g>
    </g>
    <g id="xtick_19">
     <g id="line2d_42">
      <path d="M 623.205391 656.218947  " style="fill: none; stroke: #000000; stroke-width: 1.5; stroke-linecap: square"/>
      <g>
       <use xlink:href="#m500b113b85" x="623.205391" y="656.218947" style="stroke: #000000"/>
      </g>
     </g>
     <g id="text_15">
      <text style="font-size: 11px; font-family: 'IBM Plex Sans'; text-anchor: middle; fill: #4d4d4d" x="623.205391" y="669.308947" transform="rotate(-0 623.205391 669.308947)">2050</text>
     </g>
    </g>
    <g id="xtick_20">
     <g id="line2d_43">
      <path d="M 734.88 656.218947  " style="fill: none; stroke: #000000; stroke-width: 1.5; stroke-linecap: square"/>
      <g>
       <use xlink:href="#m500b113b85" x="734.88" y="656.218947" style="stroke: #000000"/>
      </g>
     </g>
     <g id="text_16">
      <text style="font-size: 11px; font-family: 'IBM Plex Sans'; text-anchor: middle; fill: #4d4d4d" x="734.88" y="669.308947" transform="rotate(-0 734.88 669.308947)">2055</text>
     </g>
    </g>
    <g id="xtick_21">
     <g id="line2d_44">
      <path d="M 120.669648 656.218947  " style="fill: none; stroke: #000000; stroke-width: 1.5; stroke-linecap: square"/>
      <defs>
       <path id="m48e1832a24" d="M 0 0  L 0 1.375  " style="stroke: #000000"/>
      </defs>
      <g>
       <use xlink:href="#m48e1832a24" x="120.669648" y="656.218947" style="stroke: #000000"/>
      </g>
     </g>
    </g>
    <g id="xtick_22">
     <g id="line2d_45">
      <path d="M 232.344258 656.218947  " style="fill: none; stroke: #000000; stroke-width: 1.5; stroke-linecap: square"/>
      <g>
       <use xlink:href="#m48e1832a24" x="232.344258" y="656.218947" style="stroke: #000000"/>
      </g>
     </g>
    </g>
    <g id="xtick_23">
     <g id="line2d_46">
      <path d="M 344.018867 656.218947  " style="fill: none; stroke: #000000; stroke-width: 1.5; stroke-linecap: square"/>
      <g>
       <use xlink:href="#m48e1832a24" x="344.018867" y="656.218947" style="stroke: #000000"/>
      </g>
     </g>
    </g>
    <g id="xtick_24">
     <g id="line2d_47">
      <path d="M 455.693477 656.218947  " style="fill: none; stroke: #000000; stroke-width: 1.5; stroke-linecap: square"/>
      <g>
       <use xlink:href="#m48e1832a24" x="455.693477" y="656.218947" style="stroke: #000000"/>
      </g>
     </g>
    </g>
    <g id="xtick_25">
     <g id="line2d_48">
      <path d="M 567.368086 656.218947  " style="fill: none; stroke: #000000; stroke-width: 1.5; stroke-linecap: square"/>
      <g>
       <use xlink:href="#m48e1832a24" x="567.368086" y="656.218947" style="stroke: #000000"/>
      </g>
     </g>
    </g>
    <g id="xtick_26">
     <g id="line2d_49">
      <path d="M 679.042695 656.218947  " style="fill: none; stroke: #000000; stroke-width: 1.5; stroke-linecap: square"/>
      <g>
       <use xlink:href="#m48e1832a24" x="679.042695" y="656.218947" style="stroke: #000000"/>
      </g>
     </g>
    </g>
   </g>
   <g id="matplotlib.axis_4">
    <g id="ytick_11">
     <g id="line2d_50">
      <path d="M 64.832344 656.218947  L 734.88 656.218947  " clip-path="url(#pdb9223f7ad)" style="fill: none; stroke: #e5e5e5; stroke-linecap: square"/>
     </g>
    </g>
    <g id="ytick_12">
     <g id="line2d_51">
      <path d="M 64.832344 591.289786  L 734.88 591.289786  " clip-path="url(#pdb9223f7ad)" style="fill: none; stroke: #e5e5e5; stroke-linecap: square"/>
     </g>
     <g id="text_17">
      <text style="font-size: 11px; font-family: 'IBM Plex Sans'; text-anchor: start; fill: #4d4d4d" x="33.24" y="595.359786" transform="rotate(-0 33.24 595.359786)">5,000</text>
     </g>
    </g>
    <g id="ytick_13">
     <g id="line2d_52">
      <path d="M 64.832344 526.360625  L 734.88 526.360625  " clip-path="url(#pdb9223f7ad)" style="fill: none; stroke: #e5e5e5; stroke-linecap: square"/>
     </g>
     <g id="text_18">
      <text style="font-size: 11px; font-family: 'IBM Plex Sans'; text-anchor: start; fill: #4d4d4d" x="26.64" y="530.430625" transform="rotate(-0 26.64 530.430625)">10,000</text>
     </g>
    </g>
    <g id="ytick_14">
     <g id="line2d_53">
      <path d="M 64.832344 461.431463  L 734.88 461.431463  " clip-path="url(#pdb9223f7ad)" style="fill: none; stroke: #e5e5e5; stroke-linecap: square"/>
     </g>
     <g id="text_19">
      <text style="font-size: 11px; font-family: 'IBM Plex Sans'; text-anchor: start; fill: #4d4d4d" x="26.64" y="465.501463" transform="rotate(-0 26.64 465.501463)">15,000</text>
     </g>
    </g>
    <g id="ytick_15">
     <g id="line2d_54">
      <path d="M 64.832344 396.502302  L 734.88 396.502302  " clip-path="url(#pdb9223f7ad)" style="fill: none; stroke: #e5e5e5; stroke-linecap: square"/>
     </g>
     <g id="text_20">
      <text style="font-size: 11px; font-family: 'IBM Plex Sans'; text-anchor: start; fill: #4d4d4d" x="26.64" y="400.572302" transform="rotate(-0 26.64 400.572302)">20,000</text>
     </g>
    </g>
    <g id="ytick_16">
     <g id="line2d_55">
      <path d="M 64.832344 623.754367  L 734.88 623.754367  " clip-path="url(#pdb9223f7ad)" style="fill: none; stroke: #fafafa; stroke-width: 0.5; stroke-linecap: square"/>
     </g>
    </g>
    <g id="ytick_17">
     <g id="line2d_56">
      <path d="M 64.832344 558.825205  L 734.88 558.825205  " clip-path="url(#pdb9223f7ad)" style="fill: none; stroke: #fafafa; stroke-width: 0.5; stroke-linecap: square"/>
     </g>
    </g>
    <g id="ytick_18">
     <g id="line2d_57">
      <path d="M 64.832344 493.896044  L 734.88 493.896044  " clip-path="url(#pdb9223f7ad)" style="fill: none; stroke: #fafafa; stroke-width: 0.5; stroke-linecap: square"/>
     </g>
    </g>
    <g id="ytick_19">
     <g id="line2d_58">
      <path d="M 64.832344 428.966882  L 734.88 428.966882  " clip-path="url(#pdb9223f7ad)" style="fill: none; stroke: #fafafa; stroke-width: 0.5; stroke-linecap: square"/>
     </g>
    </g>
    <g id="ytick_20">
     <g id="line2d_59">
      <path d="M 64.832344 364.037721  L 734.88 364.037721  " clip-path="url(#pdb9223f7ad)" style="fill: none; stroke: #fafafa; stroke-width: 0.5; stroke-linecap: square"/>
     </g>
    </g>
   </g>
   <g id="FillBetweenPolyCollection_9">
    <path d="M 64.832344 462.171656  L 64.832344 462.171656  L 87.167266 462.369543  L 109.502188 462.491908  L 131.837109 462.737406  L 154.172031 462.951975  L 176.506953 463.169423  L 198.841875 463.429279  L 221.176797 463.693989  L 243.511719 463.955096  L 265.846641 464.165821  L 288.181563 464.359468  L 310.516484 464.510972  L 332.851406 464.637856  L 355.186328 464.747757  L 377.52125 464.858146  L 399.856172 464.943044  L 422.191094 465.047014  L 444.526016 465.136207  L 466.860938 465.212563  L 489.195859 465.294924  L 511.530781 465.454754  L 533.865703 465.508709  L 556.200625 465.566934  L 578.535547 465.61966  L 600.870469 465.671569  L 623.205391 465.680954  L 645.540313 465.684189  L 667.875234 465.713936  L 690.210156 465.680252  L 712.545078 465.652761  L 734.88 465.601414  L 734.88 467.741514  L 734.88 467.741514  L 712.545078 467.831471  L 690.210156 467.864978  L 667.875234 467.911801  L 645.540313 467.864461  L 623.205391 467.869498  L 600.870469 467.86982  L 578.535547 467.798554  L 556.200625 467.731458  L 533.865703 467.642418  L 511.530781 467.566978  L 489.195859 467.301891  L 466.860938 467.165891  L 444.526016 467.012586  L 422.191094 466.870985  L 399.856172 466.662494  L 377.52125 466.50399  L 355.186328 466.268774  L 332.851406 466.077495  L 310.516484 465.823897  L 288.181563 465.557772  L 265.846641 465.241433  L 243.511719 464.90131  L 221.176797 464.503524  L 198.841875 464.096277  L 176.506953 463.621683  L 154.172031 463.339931  L 131.837109 462.976615  L 109.502188 462.617097  L 87.167266 462.431671  L 64.832344 462.171656  z " clip-path="url(#pdb9223f7ad)" style="fill: #ffc729; fill-opacity: 0.219608"/>
   </g>
   <g id="line2d_60">
    <path d="M 64.832344 462.171656  L 87.167266 462.369543  L 109.502188 462.491908  L 131.837109 462.737406  L 154.172031 462.951975  L 176.506953 463.169423  L 198.841875 463.429279  L 221.176797 463.693989  L 243.511719 463.955096  L 265.846641 464.165821  L 288.181563 464.359468  L 310.516484 464.510972  L 332.851406 464.637856  L 355.186328 464.747757  L 377.52125 464.858146  L 399.856172 464.943044  L 422.191094 465.047014  L 444.526016 465.136207  L 466.860938 465.212563  L 489.195859 465.294924  L 511.530781 465.454754  L 533.865703 465.508709  L 556.200625 465.566934  L 578.535547 465.61966  L 600.870469 465.671569  L 623.205391 465.680954  L 645.540313 465.684189  L 667.875234 465.713936  L 690.210156 465.680252  L 712.545078 465.652761  L 734.88 465.601414  " clip-path="url(#pdb9223f7ad)" style="fill: none; stroke: #000000; stroke-opacity: 0; stroke-width: 0.886227; stroke-linejoin: miter"/>
   </g>
   <g id="line2d_61">
    <path d="M 64.832344 462.171656  L 87.167266 462.431671  L 109.502188 462.617097  L 131.837109 462.976615  L 154.172031 463.339931  L 176.506953 463.621683  L 198.841875 464.096277  L 221.176797 464.503524  L 243.511719 464.90131  L 265.846641 465.241433  L 288.181563 465.557772  L 310.516484 465.823897  L 332.851406 466.077495  L 355.186328 466.268774  L 377.52125 466.50399  L 399.856172 466.662494  L 422.191094 466.870985  L 444.526016 467.012586  L 466.860938 467.165891  L 489.195859 467.301891  L 511.530781 467.566978  L 533.865703 467.642418  L 556.200625 467.731458  L 578.535547 467.798554  L 600.870469 467.86982  L 623.205391 467.869498  L 645.540313 467.864461  L 667.875234 467.911801  L 690.210156 467.864978  L 712.545078 467.831471  L 734.88 467.741514  " clip-path="url(#pdb9223f7ad)" style="fill: none; stroke: #000000; stroke-opacity: 0; stroke-width: 0.886227; stroke-linejoin: miter"/>
   </g>
   <g id="FillBetweenPolyCollection_10">
    <path d="M 64.832344 462.171656  L 64.832344 462.171656  L 87.167266 462.171656  L 109.502188 462.171656  L 131.837109 462.171656  L 154.172031 462.171656  L 176.506953 462.171656  L 198.841875 462.171656  L 221.176797 462.171656  L 243.511719 462.171656  L 265.846641 462.171656  L 288.181563 462.171656  L 310.516484 462.171656  L 332.851406 462.171656  L 355.186328 462.171656  L 377.52125 462.171656  L 399.856172 462.171656  L 422.191094 462.171656  L 444.526016 462.171656  L 466.860938 462.171656  L 489.195859 462.171656  L 511.530781 462.171656  L 533.865703 462.171656  L 556.200625 462.171656  L 578.535547 462.171656  L 600.870469 462.171656  L 623.205391 462.171656  L 645.540313 462.171656  L 667.875234 462.171656  L 690.210156 462.171656  L 712.545078 462.171656  L 734.88 462.171656  L 734.88 465.601414  L 734.88 465.601414  L 712.545078 465.652761  L 690.210156 465.680252  L 667.875234 465.713936  L 645.540313 465.684189  L 623.205391 465.680954  L 600.870469 465.671569  L 578.535547 465.61966  L 556.200625 465.566934  L 533.865703 465.508709  L 511.530781 465.454754  L 489.195859 465.294924  L 466.860938 465.212563  L 444.526016 465.136207  L 422.191094 465.047014  L 399.856172 464.943044  L 377.52125 464.858146  L 355.186328 464.747757  L 332.851406 464.637856  L 310.516484 464.510972  L 288.181563 464.359468  L 265.846641 464.165821  L 243.511719 463.955096  L 221.176797 463.693989  L 198.841875 463.429279  L 176.506953 463.169423  L 154.172031 462.951975  L 131.837109 462.737406  L 109.502188 462.491908  L 87.167266 462.369543  L 64.832344 462.171656  z " clip-path="url(#pdb9223f7ad)" style="fill: #fc9706; fill-opacity: 0.219608"/>
   </g>
   <g id="line2d_62">
    <path d="M 64.832344 462.171656  L 87.167266 462.171656  L 109.502188 462.171656  L 131.837109 462.171656  L 154.172031 462.171656  L 176.506953 462.171656  L 198.841875 462.171656  L 221.176797 462.171656  L 243.511719 462.171656  L 265.846641 462.171656  L 288.181563 462.171656  L 310.516484 462.171656  L 332.851406 462.171656  L 355.186328 462.171656  L 377.52125 462.171656  L 399.856172 462.171656  L 422.191094 462.171656  L 444.526016 462.171656  L 466.860938 462.171656  L 489.195859 462.171656  L 511.530781 462.171656  L 533.865703 462.171656  L 556.200625 462.171656  L 578.535547 462.171656  L 600.870469 462.171656  L 623.205391 462.171656  L 645.540313 462.171656  L 667.875234 462.171656  L 690.210156 462.171656  L 712.545078 462.171656  L 734.88 462.171656  " clip-path="url(#pdb9223f7ad)" style="fill: none; stroke: #000000; stroke-opacity: 0; stroke-width: 0.886227; stroke-linejoin: miter"/>
   </g>
   <g id="line2d_63">
    <path d="M 64.832344 462.171656  L 87.167266 462.369543  L 109.502188 462.491908  L 131.837109 462.737406  L 154.172031 462.951975  L 176.506953 463.169423  L 198.841875 463.429279  L 221.176797 463.693989  L 243.511719 463.955096  L 265.846641 464.165821  L 288.181563 464.359468  L 310.516484 464.510972  L 332.851406 464.637856  L 355.186328 464.747757  L 377.52125 464.858146  L 399.856172 464.943044  L 422.191094 465.047014  L 444.526016 465.136207  L 466.860938 465.212563  L 489.195859 465.294924  L 511.530781 465.454754  L 533.865703 465.508709  L 556.200625 465.566934  L 578.535547 465.61966  L 600.870469 465.671569  L 623.205391 465.680954  L 645.540313 465.684189  L 667.875234 465.713936  L 690.210156 465.680252  L 712.545078 465.652761  L 734.88 465.601414  " clip-path="url(#pdb9223f7ad)" style="fill: none; stroke: #000000; stroke-opacity: 0; stroke-width: 0.886227; stroke-linejoin: miter"/>
   </g>
   <g id="FillBetweenPolyCollection_11">
    <path d="M 64.832344 462.171656  L 64.832344 462.171656  L 87.167266 462.171656  L 109.502188 462.171656  L 131.837109 462.171656  L 154.172031 462.171656  L 176.506953 462.171656  L 198.841875 462.171656  L 221.176797 462.171656  L 243.511719 462.171656  L 265.846641 462.171656  L 288.181563 462.171656  L 310.516484 462.171656  L 332.851406 462.171656  L 355.186328 462.171656  L 377.52125 462.171656  L 399.856172 462.171656  L 422.191094 462.171656  L 444.526016 462.171656  L 466.860938 462.171656  L 489.195859 462.171656  L 511.530781 462.171656  L 533.865703 462.171656  L 556.200625 462.171656  L 578.535547 462.171656  L 600.870469 462.171656  L 623.205391 462.171656  L 645.540313 462.171656  L 667.875234 462.171656  L 690.210156 462.171656  L 712.545078 462.171656  L 734.88 462.171656  L 734.88 462.171656  L 734.88 462.171656  L 712.545078 462.171656  L 690.210156 462.171656  L 667.875234 462.171656  L 645.540313 462.171656  L 623.205391 462.171656  L 600.870469 462.171656  L 578.535547 462.171656  L 556.200625 462.171656  L 533.865703 462.171656  L 511.530781 462.171656  L 489.195859 462.171656  L 466.860938 462.171656  L 444.526016 462.171656  L 422.191094 462.171656  L 399.856172 462.171656  L 377.52125 462.171656  L 355.186328 462.171656  L 332.851406 462.171656  L 310.516484 462.171656  L 288.181563 462.171656  L 265.846641 462.171656  L 243.511719 462.171656  L 221.176797 462.171656  L 198.841875 462.171656  L 176.506953 462.171656  L 154.172031 462.171656  L 131.837109 462.171656  L 109.502188 462.171656  L 87.167266 462.171656  L 64.832344 462.171656  z " clip-path="url(#pdb9223f7ad)" style="fill: #999999; fill-opacity: 0.219608"/>
   </g>
   <g id="line2d_64">
    <path d="M 64.832344 462.171656  L 87.167266 462.171656  L 109.502188 462.171656  L 131.837109 462.171656  L 154.172031 462.171656  L 176.506953 462.171656  L 198.841875 462.171656  L 221.176797 462.171656  L 243.511719 462.171656  L 265.846641 462.171656  L 288.181563 462.171656  L 310.516484 462.171656  L 332.851406 462.171656  L 355.186328 462.171656  L 377.52125 462.171656  L 399.856172 462.171656  L 422.191094 462.171656  L 444.526016 462.171656  L 466.860938 462.171656  L 489.195859 462.171656  L 511.530781 462.171656  L 533.865703 462.171656  L 556.200625 462.171656  L 578.535547 462.171656  L 600.870469 462.171656  L 623.205391 462.171656  L 645.540313 462.171656  L 667.875234 462.171656  L 690.210156 462.171656  L 712.545078 462.171656  L 734.88 462.171656  " clip-path="url(#pdb9223f7ad)" style="fill: none; stroke: #000000; stroke-opacity: 0; stroke-width: 0.886227; stroke-linejoin: miter"/>
   </g>
   <g id="line2d_65">
    <path d="M 64.832344 462.171656  L 87.167266 462.171656  L 109.502188 462.171656  L 131.837109 462.171656  L 154.172031 462.171656  L 176.506953 462.171656  L 198.841875 462.171656  L 221.176797 462.171656  L 243.511719 462.171656  L 265.846641 462.171656  L 288.181563 462.171656  L 310.516484 462.171656  L 332.851406 462.171656  L 355.186328 462.171656  L 377.52125 462.171656  L 399.856172 462.171656  L 422.191094 462.171656  L 444.526016 462.171656  L 466.860938 462.171656  L 489.195859 462.171656  L 511.530781 462.171656  L 533.865703 462.171656  L 556.200625 462.171656  L 578.535547 462.171656  L 600.870469 462.171656  L 623.205391 462.171656  L 645.540313 462.171656  L 667.875234 462.171656  L 690.210156 462.171656  L 712.545078 462.171656  L 734.88 462.171656  " clip-path="url(#pdb9223f7ad)" style="fill: none; stroke: #000000; stroke-opacity: 0; stroke-width: 0.886227; stroke-linejoin: miter"/>
   </g>
   <g id="FillBetweenPolyCollection_12">
    <path d="M 64.832344 462.171656  L 64.832344 656.218947  L 87.167266 656.218947  L 109.502188 656.218947  L 131.837109 656.218947  L 154.172031 656.218947  L 176.506953 656.218947  L 198.841875 656.218947  L 221.176797 656.218947  L 243.511719 656.218947  L 265.846641 656.218947  L 288.181563 656.218947  L 310.516484 656.218947  L 332.851406 656.218947  L 355.186328 656.218947  L 377.52125 656.218947  L 399.856172 656.218947  L 422.191094 656.218947  L 444.526016 656.218947  L 466.860938 656.218947  L 489.195859 656.218947  L 511.530781 656.218947  L 533.865703 656.218947  L 556.200625 656.218947  L 578.535547 656.218947  L 600.870469 656.218947  L 623.205391 656.218947  L 645.540313 656.218947  L 667.875234 656.218947  L 690.210156 656.218947  L 712.545078 656.218947  L 734.88 656.218947  L 734.88 462.171656  L 734.88 462.171656  L 712.545078 462.171656  L 690.210156 462.171656  L 667.875234 462.171656  L 645.540313 462.171656  L 623.205391 462.171656  L 600.870469 462.171656  L 578.535547 462.171656  L 556.200625 462.171656  L 533.865703 462.171656  L 511.530781 462.171656  L 489.195859 462.171656  L 466.860938 462.171656  L 444.526016 462.171656  L 422.191094 462.171656  L 399.856172 462.171656  L 377.52125 462.171656  L 355.186328 462.171656  L 332.851406 462.171656  L 310.516484 462.171656  L 288.181563 462.171656  L 265.846641 462.171656  L 243.511719 462.171656  L 221.176797 462.171656  L 198.841875 462.171656  L 176.506953 462.171656  L 154.172031 462.171656  L 131.837109 462.171656  L 109.502188 462.171656  L 87.167266 462.171656  L 64.832344 462.171656  z " clip-path="url(#pdb9223f7ad)" style="fill: #e0e0e0; fill-opacity: 0.219608"/>
   </g>
   <g id="line2d_66">
    <path d="M 64.832344 656.218947  L 87.167266 656.218947  L 109.502188 656.218947  L 131.837109 656.218947  L 154.172031 656.218947  L 176.506953 656.218947  L 198.841875 656.218947  L 221.176797 656.218947  L 243.511719 656.218947  L 265.846641 656.218947  L 288.181563 656.218947  L 310.516484 656.218947  L 332.851406 656.218947  L 355.186328 656.218947  L 377.52125 656.218947  L 399.856172 656.218947  L 422.191094 656.218947  L 444.526016 656.218947  L 466.860938 656.218947  L 489.195859 656.218947  L 511.530781 656.218947  L 533.865703 656.218947  L 556.200625 656.218947  L 578.535547 656.218947  L 600.870469 656.218947  L 623.205391 656.218947  L 645.540313 656.218947  L 667.875234 656.218947  L 690.210156 656.218947  L 712.545078 656.218947  L 734.88 656.218947  " clip-path="url(#pdb9223f7ad)" style="fill: none; stroke: #000000; stroke-opacity: 0; stroke-width: 0.886227; stroke-linejoin: miter"/>
   </g>
   <g id="line2d_67">
    <path d="M 64.832344 462.171656  L 87.167266 462.171656  L 109.502188 462.171656  L 131.837109 462.171656  L 154.172031 462.171656  L 176.506953 462.171656  L 198.841875 462.171656  L 221.176797 462.171656  L 243.511719 462.171656  L 265.846641 462.171656  L 288.181563 462.171656  L 310.516484 462.171656  L 332.851406 462.171656  L 355.186328 462.171656  L 377.52125 462.171656  L 399.856172 462.171656  L 422.191094 462.171656  L 444.526016 462.171656  L 466.860938 462.171656  L 489.195859 462.171656  L 511.530781 462.171656  L 533.865703 462.171656  L 556.200625 462.171656  L 578.535547 462.171656  L 600.870469 462.171656  L 623.205391 462.171656  L 645.540313 462.171656  L 667.875234 462.171656  L 690.210156 462.171656  L 712.545078 462.171656  L 734.88 462.171656  " clip-path="url(#pdb9223f7ad)" style="fill: none; stroke: #000000; stroke-opacity: 0; stroke-width: 0.886227; stroke-linejoin: miter"/>
   </g>
   <g id="FillBetweenPolyCollection_13">
    <path d="M 64.832344 521.60781  L 64.832344 521.60781  L 87.167266 521.8142  L 109.502188 521.979318  L 131.837109 522.046116  L 154.172031 522.235252  L 176.506953 522.448396  L 198.841875 522.216401  L 221.176797 521.85679  L 243.511719 520.602584  L 265.846641 519.610375  L 288.181563 518.477358  L 310.516484 516.651001  L 332.851406 514.988246  L 355.186328 513.817111  L 377.52125 512.525694  L 399.856172 511.353331  L 422.191094 510.357914  L 444.526016 509.247257  L 466.860938 507.616074  L 489.195859 506.288164  L 511.530781 504.747389  L 533.865703 503.555149  L 556.200625 500.96962  L 578.535547 500.16366  L 600.870469 499.144479  L 623.205391 498.262686  L 645.540313 497.665742  L 667.875234 496.143133  L 690.210156 495.363073  L 712.545078 495.605398  L 734.88 495.736494  L 734.88 421.837661  L 734.88 421.837661  L 712.545078 423.642691  L 690.210156 425.88924  L 667.875234 429.720061  L 645.540313 434.77155  L 623.205391 438.849101  L 600.870469 443.952533  L 578.535547 448.653404  L 556.200625 453.536077  L 533.865703 460.184823  L 511.530781 465.625887  L 489.195859 470.950078  L 466.860938 476.300241  L 444.526016 481.884149  L 422.191094 486.610992  L 399.856172 490.844373  L 377.52125 495.519273  L 355.186328 499.76564  L 332.851406 503.635418  L 310.516484 508.699893  L 288.181563 513.829296  L 265.846641 516.829024  L 243.511719 519.374247  L 221.176797 522.236238  L 198.841875 523.062563  L 176.506953 523.486905  L 154.172031 523.002125  L 131.837109 522.564444  L 109.502188 522.401932  L 87.167266 521.96834  L 64.832344 521.60781  z " clip-path="url(#pdb9223f7ad)" style="fill: #ffc729"/>
   </g>
   <g id="line2d_68">
    <path d="M 64.832344 521.60781  L 87.167266 521.8142  L 109.502188 521.979318  L 131.837109 522.046116  L 154.172031 522.235252  L 176.506953 522.448396  L 198.841875 522.216401  L 221.176797 521.85679  L 243.511719 520.602584  L 265.846641 519.610375  L 288.181563 518.477358  L 310.516484 516.651001  L 332.851406 514.988246  L 355.186328 513.817111  L 377.52125 512.525694  L 399.856172 511.353331  L 422.191094 510.357914  L 444.526016 509.247257  L 466.860938 507.616074  L 489.195859 506.288164  L 511.530781 504.747389  L 533.865703 503.555149  L 556.200625 500.96962  L 578.535547 500.16366  L 600.870469 499.144479  L 623.205391 498.262686  L 645.540313 497.665742  L 667.875234 496.143133  L 690.210156 495.363073  L 712.545078 495.605398  L 734.88 495.736494  " clip-path="url(#pdb9223f7ad)" style="fill: none; stroke: #000000; stroke-opacity: 0; stroke-width: 0.886227; stroke-linejoin: miter"/>
   </g>
   <g id="line2d_69">
    <path d="M 64.832344 521.60781  L 87.167266 521.96834  L 109.502188 522.401932  L 131.837109 522.564444  L 154.172031 523.002125  L 176.506953 523.486905  L 198.841875 523.062563  L 221.176797 522.236238  L 243.511719 519.374247  L 265.846641 516.829024  L 288.181563 513.829296  L 310.516484 508.699893  L 332.851406 503.635418  L 355.186328 499.76564  L 377.52125 495.519273  L 399.856172 490.844373  L 422.191094 486.610992  L 444.526016 481.884149  L 466.860938 476.300241  L 489.195859 470.950078  L 511.530781 465.625887  L 533.865703 460.184823  L 556.200625 453.536077  L 578.535547 448.653404  L 600.870469 443.952533  L 623.205391 438.849101  L 645.540313 434.77155  L 667.875234 429.720061  L 690.210156 425.88924  L 712.545078 423.642691  L 734.88 421.837661  " clip-path="url(#pdb9223f7ad)" style="fill: none; stroke: #000000; stroke-opacity: 0; stroke-width: 0.886227; stroke-linejoin: miter"/>
   </g>
   <g id="FillBetweenPolyCollection_14">
    <path d="M 64.832344 521.60781  L 64.832344 521.60781  L 87.167266 521.60781  L 109.502188 521.60781  L 131.837109 521.60781  L 154.172031 521.60781  L 176.506953 521.60781  L 198.841875 521.60781  L 221.176797 521.60781  L 243.511719 521.255981  L 265.846641 520.970048  L 288.181563 520.624743  L 310.516484 520.00327  L 332.851406 519.481344  L 355.186328 519.155584  L 377.52125 518.727831  L 399.856172 518.554336  L 422.191094 518.432125  L 444.526016 518.310325  L 466.860938 517.982647  L 489.195859 517.822871  L 511.530781 517.553615  L 533.865703 518.02455  L 556.200625 517.26662  L 578.535547 517.763525  L 600.870469 518.255553  L 623.205391 518.68356  L 645.540313 519.049932  L 667.875234 518.392447  L 690.210156 518.367097  L 712.545078 518.968056  L 734.88 519.29637  L 734.88 495.736494  L 734.88 495.736494  L 712.545078 495.605398  L 690.210156 495.363073  L 667.875234 496.143133  L 645.540313 497.665742  L 623.205391 498.262686  L 600.870469 499.144479  L 578.535547 500.16366  L 556.200625 500.96962  L 533.865703 503.555149  L 511.530781 504.747389  L 489.195859 506.288164  L 466.860938 507.616074  L 444.526016 509.247257  L 422.191094 510.357914  L 399.856172 511.353331  L 377.52125 512.525694  L 355.186328 513.817111  L 332.851406 514.988246  L 310.516484 516.651001  L 288.181563 518.477358  L 265.846641 519.610375  L 243.511719 520.602584  L 221.176797 521.85679  L 198.841875 522.216401  L 176.506953 522.448396  L 154.172031 522.235252  L 131.837109 522.046116  L 109.502188 521.979318  L 87.167266 521.8142  L 64.832344 521.60781  z " clip-path="url(#pdb9223f7ad)" style="fill: #fc9706"/>
   </g>
   <g id="line2d_70">
    <path d="M 64.832344 521.60781  L 87.167266 521.60781  L 109.502188 521.60781  L 131.837109 521.60781  L 154.172031 521.60781  L 176.506953 521.60781  L 198.841875 521.60781  L 221.176797 521.60781  L 243.511719 521.255981  L 265.846641 520.970048  L 288.181563 520.624743  L 310.516484 520.00327  L 332.851406 519.481344  L 355.186328 519.155584  L 377.52125 518.727831  L 399.856172 518.554336  L 422.191094 518.432125  L 444.526016 518.310325  L 466.860938 517.982647  L 489.195859 517.822871  L 511.530781 517.553615  L 533.865703 518.02455  L 556.200625 517.26662  L 578.535547 517.763525  L 600.870469 518.255553  L 623.205391 518.68356  L 645.540313 519.049932  L 667.875234 518.392447  L 690.210156 518.367097  L 712.545078 518.968056  L 734.88 519.29637  " clip-path="url(#pdb9223f7ad)" style="fill: none; stroke: #000000; stroke-opacity: 0; stroke-width: 0.886227; stroke-linejoin: miter"/>
   </g>
   <g id="line2d_71">
    <path d="M 64.832344 521.60781  L 87.167266 521.8142  L 109.502188 521.979318  L 131.837109 522.046116  L 154.172031 522.235252  L 176.506953 522.448396  L 198.841875 522.216401  L 221.176797 521.85679  L 243.511719 520.602584  L 265.846641 519.610375  L 288.181563 518.477358  L 310.516484 516.651001  L 332.851406 514.988246  L 355.186328 513.817111  L 377.52125 512.525694  L 399.856172 511.353331  L 422.191094 510.357914  L 444.526016 509.247257  L 466.860938 507.616074  L 489.195859 506.288164  L 511.530781 504.747389  L 533.865703 503.555149  L 556.200625 500.96962  L 578.535547 500.16366  L 600.870469 499.144479  L 623.205391 498.262686  L 645.540313 497.665742  L 667.875234 496.143133  L 690.210156 495.363073  L 712.545078 495.605398  L 734.88 495.736494  " clip-path="url(#pdb9223f7ad)" style="fill: none; stroke: #000000; stroke-opacity: 0; stroke-width: 0.886227; stroke-linejoin: miter"/>
   </g>
   <g id="FillBetweenPolyCollection_15">
    <path d="M 64.832344 521.60781  L 64.832344 521.60781  L 87.167266 521.60781  L 109.502188 521.60781  L 131.837109 521.60781  L 154.172031 521.60781  L 176.506953 521.60781  L 198.841875 521.60781  L 221.176797 521.60781  L 243.511719 521.60781  L 265.846641 521.60781  L 288.181563 521.60781  L 310.516484 521.60781  L 332.851406 521.60781  L 355.186328 521.60781  L 377.52125 521.60781  L 399.856172 521.60781  L 422.191094 521.60781  L 444.526016 521.60781  L 466.860938 521.60781  L 489.195859 521.60781  L 511.530781 521.60781  L 533.865703 521.60781  L 556.200625 521.60781  L 578.535547 521.60781  L 600.870469 521.60781  L 623.205391 521.60781  L 645.540313 521.60781  L 667.875234 521.60781  L 690.210156 521.60781  L 712.545078 521.60781  L 734.88 521.60781  L 734.88 519.29637  L 734.88 519.29637  L 712.545078 518.968056  L 690.210156 518.367097  L 667.875234 518.392447  L 645.540313 519.049932  L 623.205391 518.68356  L 600.870469 518.255553  L 578.535547 517.763525  L 556.200625 517.26662  L 533.865703 518.02455  L 511.530781 517.553615  L 489.195859 517.822871  L 466.860938 517.982647  L 444.526016 518.310325  L 422.191094 518.432125  L 399.856172 518.554336  L 377.52125 518.727831  L 355.186328 519.155584  L 332.851406 519.481344  L 310.516484 520.00327  L 288.181563 520.624743  L 265.846641 520.970048  L 243.511719 521.255981  L 221.176797 521.60781  L 198.841875 521.60781  L 176.506953 521.60781  L 154.172031 521.60781  L 131.837109 521.60781  L 109.502188 521.60781  L 87.167266 521.60781  L 64.832344 521.60781  z " clip-path="url(#pdb9223f7ad)" style="fill: #999999"/>
   </g>
   <g id="line2d_72">
    <path d="M 64.832344 521.60781  L 87.167266 521.60781  L 109.502188 521.60781  L 131.837109 521.60781  L 154.172031 521.60781  L 176.506953 521.60781  L 198.841875 521.60781  L 221.176797 521.60781  L 243.511719 521.60781  L 265.846641 521.60781  L 288.181563 521.60781  L 310.516484 521.60781  L 332.851406 521.60781  L 355.186328 521.60781  L 377.52125 521.60781  L 399.856172 521.60781  L 422.191094 521.60781  L 444.526016 521.60781  L 466.860938 521.60781  L 489.195859 521.60781  L 511.530781 521.60781  L 533.865703 521.60781  L 556.200625 521.60781  L 578.535547 521.60781  L 600.870469 521.60781  L 623.205391 521.60781  L 645.540313 521.60781  L 667.875234 521.60781  L 690.210156 521.60781  L 712.545078 521.60781  L 734.88 521.60781  " clip-path="url(#pdb9223f7ad)" style="fill: none; stroke: #000000; stroke-opacity: 0; stroke-width: 0.886227; stroke-linejoin: miter"/>
   </g>
   <g id="line2d_73">
    <path d="M 64.832344 521.60781  L 87.167266 521.60781  L 109.502188 521.60781  L 131.837109 521.60781  L 154.172031 521.60781  L 176.506953 521.60781  L 198.841875 521.60781  L 221.176797 521.60781  L 243.511719 521.255981  L 265.846641 520.970048  L 288.181563 520.624743  L 310.516484 520.00327  L 332.851406 519.481344  L 355.186328 519.155584  L 377.52125 518.727831  L 399.856172 518.554336  L 422.191094 518.432125  L 444.526016 518.310325  L 466.860938 517.982647  L 489.195859 517.822871  L 511.530781 517.553615  L 533.865703 518.02455  L 556.200625 517.26662  L 578.535547 517.763525  L 600.870469 518.255553  L 623.205391 518.68356  L 645.540313 519.049932  L 667.875234 518.392447  L 690.210156 518.367097  L 712.545078 518.968056  L 734.88 519.29637  " clip-path="url(#pdb9223f7ad)" style="fill: none; stroke: #000000; stroke-opacity: 0; stroke-width: 0.886227; stroke-linejoin: miter"/>
   </g>
   <g id="FillBetweenPolyCollection_16">
    <path d="M 64.832344 521.60781  L 64.832344 656.218947  L 87.167266 656.218947  L 109.502188 656.218947  L 131.837109 656.218947  L 154.172031 656.218947  L 176.506953 656.218947  L 198.841875 656.218947  L 221.176797 656.218947  L 243.511719 656.218947  L 265.846641 656.218947  L 288.181563 656.218947  L 310.516484 656.218947  L 332.851406 656.218947  L 355.186328 656.218947  L 377.52125 656.218947  L 399.856172 656.218947  L 422.191094 656.218947  L 444.526016 656.218947  L 466.860938 656.218947  L 489.195859 656.218947  L 511.530781 656.218947  L 533.865703 656.218947  L 556.200625 656.218947  L 578.535547 656.218947  L 600.870469 656.218947  L 623.205391 656.218947  L 645.540313 656.218947  L 667.875234 656.218947  L 690.210156 656.218947  L 712.545078 656.218947  L 734.88 656.218947  L 734.88 521.60781  L 734.88 521.60781  L 712.545078 521.60781  L 690.210156 521.60781  L 667.875234 521.60781  L 645.540313 521.60781  L 623.205391 521.60781  L 600.870469 521.60781  L 578.535547 521.60781  L 556.200625 521.60781  L 533.865703 521.60781  L 511.530781 521.60781  L 489.195859 521.60781  L 466.860938 521.60781  L 444.526016 521.60781  L 422.191094 521.60781  L 399.856172 521.60781  L 377.52125 521.60781  L 355.186328 521.60781  L 332.851406 521.60781  L 310.516484 521.60781  L 288.181563 521.60781  L 265.846641 521.60781  L 243.511719 521.60781  L 221.176797 521.60781  L 198.841875 521.60781  L 176.506953 521.60781  L 154.172031 521.60781  L 131.837109 521.60781  L 109.502188 521.60781  L 87.167266 521.60781  L 64.832344 521.60781  z " clip-path="url(#pdb9223f7ad)" style="fill: #e0e0e0"/>
   </g>
   <g id="line2d_74">
    <path d="M 64.832344 656.218947  L 87.167266 656.218947  L 109.502188 656.218947  L 131.837109 656.218947  L 154.172031 656.218947  L 176.506953 656.218947  L 198.841875 656.218947  L 221.176797 656.218947  L 243.511719 656.218947  L 265.846641 656.218947  L 288.181563 656.218947  L 310.516484 656.218947  L 332.851406 656.218947  L 355.186328 656.218947  L 377.52125 656.218947  L 399.856172 656.218947  L 422.191094 656.218947  L 444.526016 656.218947  L 466.860938 656.218947  L 489.195859 656.218947  L 511.530781 656.218947  L 533.865703 656.218947  L 556.200625 656.218947  L 578.535547 656.218947  L 600.870469 656.218947  L 623.205391 656.218947  L 645.540313 656.218947  L 667.875234 656.218947  L 690.210156 656.218947  L 712.545078 656.218947  L 734.88 656.218947  " clip-path="url(#pdb9223f7ad)" style="fill: none; stroke: #000000; stroke-opacity: 0; stroke-width: 0.886227; stroke-linejoin: miter"/>
   </g>
   <g id="line2d_75">
    <path d="M 64.832344 521.60781  L 87.167266 521.60781  L 109.502188 521.60781  L 131.837109 521.60781  L 154.172031 521.60781  L 176.506953 521.60781  L 198.841875 521.60781  L 221.176797 521.60781  L 243.511719 521.60781  L 265.846641 521.60781  L 288.181563 521.60781  L 310.516484 521.60781  L 332.851406 521.60781  L 355.186328 521.60781  L 377.52125 521.60781  L 399.856172 521.60781  L 422.191094 521.60781  L 444.526016 521.60781  L 466.860938 521.60781  L 489.195859 521.60781  L 511.530781 521.60781  L 533.865703 521.60781  L 556.200625 521.60781  L 578.535547 521.60781  L 600.870469 521.60781  L 623.205391 521.60781  L 645.540313 521.60781  L 667.875234 521.60781  L 690.210156 521.60781  L 712.545078 521.60781  L 734.88 521.60781  " clip-path="url(#pdb9223f7ad)" style="fill: none; stroke: #000000; stroke-opacity: 0; stroke-width: 0.886227; stroke-linejoin: miter"/>
   </g>
   <g id="text_21">
    <text style="font-size: 9px; font-family: 'IBM Plex Sans'; text-anchor: end; fill: #a0af12" x="472.710033" y="373.511697" transform="rotate(-0 472.710033 373.511697)">Crossover</text>
   </g>
   <g id="line2d_76">
    <path d="M 479.41051 656.218947  L 479.41051 358.632368  " clip-path="url(#pdb9223f7ad)" style="fill: none; stroke-dasharray: 2.775,1.2; stroke-dashoffset: 0; stroke: #a0af12; stroke-width: 0.75"/>
   </g>
   <g id="line2d_77">
    <path d="M 479.41051 462.171656  L 489.195859 462.171656  L 511.530781 462.171656  L 533.865703 462.171656  L 556.200625 462.171656  L 578.535547 462.171656  L 600.870469 462.171656  L 623.205391 462.171656  L 645.540313 462.171656  L 667.875234 462.171656  L 690.210156 462.171656  L 712.545078 462.171656  L 734.88 462.171656  " clip-path="url(#pdb9223f7ad)" style="fill: none; stroke-dasharray: 0.35,1.25; stroke-dashoffset: 0; stroke: #999999"/>
   </g>
   <g id="patch_5">
    <path d="M 64.832344 656.218947  L 734.88 656.218947  " style="fill: none; stroke: #000000; stroke-width: 0.5; stroke-linejoin: miter; stroke-linecap: square"/>
   </g>
  </g>
  <g id="text_22">
   <text style="font-size: 13px; font-family: 'GT Planar'; fill: #333333" transform="translate(16.3 361.590259) rotate(-90)">MW</text>
  </g>
  <g id="text_23">
   <text style="font-weight: 700; font-size: 15px; font-family: 'GT Planar'; text-anchor: start" x="65.30625" y="17.7" transform="rotate(-0 65.30625 17.7)">Con Edison: </text>
  </g>
  <g id="text_24">
   <text style="font-weight: 700; font-size: 15px; font-family: 'GT Planar'; text-anchor: start; fill: #ffc729" x="153.15" y="17.7" transform="rotate(-0 153.15 17.7)">building electrification </text>
  </g>
  <g id="text_25">
   <text style="font-weight: 700; font-size: 15px; font-family: 'GT Planar'; text-anchor: start" x="320.4" y="17.7" transform="rotate(-0 320.4 17.7)"> starts causing distribution upgrades only after </text>
  </g>
  <g id="text_26">
   <text style="font-weight: 700; font-size: 15px; font-family: 'GT Planar'; text-anchor: start; fill: #a0af12" x="660.3375" y="17.7" transform="rotate(-0 660.3375 17.7)">2040</text>
  </g>
  <g id="text_27">
   <text style="font-size: 12px; font-family: 'GT Planar'; text-anchor: middle; fill: #333333" x="96.991811" y="37.973789" transform="rotate(-0 96.991811 37.973789)">Baseline</text>
  </g>
  <g id="text_28">
   <text style="font-size: 12px; font-family: 'GT Planar'; text-anchor: middle; fill: #333333" x="114.187436" y="353.680368" transform="rotate(-0 114.187436 353.680368)">Lower demand</text>
  </g>
 </g>
 <defs>
  <clipPath id="pea5e26b448">
   <rect x="64.832344" y="42.925789" width="670.047656" height="297.586579"/>
  </clipPath>
  <clipPath id="pdb9223f7ad">
   <rect x="64.832344" y="358.632368" width="670.047656" height="297.586579"/>
  </clipPath>
 </defs>
</svg>
