<svg xmlns:xlink="http://www.w3.org/1999/xlink" xmlns="http://www.w3.org/2000/svg" width="872.289727pt" height="678.708947pt" viewBox="0 0 872.289727 678.708947" version="1.1">
 <metadata>
  <rdf:RDF xmlns:dc="http://purl.org/dc/elements/1.1/" xmlns:cc="http://creativecommons.org/ns#" xmlns:rdf="http://www.w3.org/1999/02/22-rdf-syntax-ns#">
   <cc:Work>
    <dc:type rdf:resource="http://purl.org/dc/dcmitype/StillImage"/>
    <dc:date>2026-04-24T21:09:54.002116</dc:date>
    <dc:format>image/svg+xml</dc:format>
    <dc:creator>
     <cc:Agent>
      <dc:title>Matplotlib v3.10.8, https://matplotlib.org/</dc:title>
     </cc:Agent>
    </dc:creator>
   </cc:Work>
  </rdf:RDF>
 </metadata>
 <defs>
  <style type="text/css">*{stroke-linejoin: round; stroke-linecap: butt}</style>
 </defs>
 <g id="figure_1">
  <g id="patch_1">
   <path d="M 0 678.708947  L 872.289727 678.708947  L 872.289727 0  L 0 0  z " style="fill: #ffffff"/>
  </g>
  <g id="axes_1">
   <g id="patch_2">
    <path d="M 58.232344 340.512368  L 734.88 340.512368  L 734.88 42.925789  L 58.232344 42.925789  z " style="fill: #ffffff"/>
   </g>
   <g id="matplotlib.axis_1">
    <g id="xtick_1"/>
    <g id="xtick_2"/>
    <g id="xtick_3"/>
    <g id="xtick_4"/>
    <g id="xtick_5"/>
    <g id="xtick_6"/>
    <g id="xtick_7"/>
    <g id="xtick_8"/>
    <g id="xtick_9"/>
    <g id="xtick_10"/>
    <g id="xtick_11"/>
    <g id="xtick_12"/>
    <g id="xtick_13"/>
   </g>
   <g id="matplotlib.axis_2">
    <g id="ytick_1">
     <g id="line2d_1">
      <path d="M 58.232344 340.512368  L 734.88 340.512368  " clip-path="url(#p4a77e9566a)" style="fill: none; stroke: #e5e5e5; stroke-linecap: square"/>
     </g>
    </g>
    <g id="ytick_2">
     <g id="line2d_2">
      <path d="M 58.232344 266.474806  L 734.88 266.474806  " clip-path="url(#p4a77e9566a)" style="fill: none; stroke: #e5e5e5; stroke-linecap: square"/>
     </g>
     <g id="text_1">
      <text style="font-size: 11px; font-family: 'IBM Plex Sans'; text-anchor: start; fill: #4d4d4d" x="26.64" y="270.544806" transform="rotate(-0 26.64 270.544806)">1,000</text>
     </g>
    </g>
    <g id="ytick_3">
     <g id="line2d_3">
      <path d="M 58.232344 192.437243  L 734.88 192.437243  " clip-path="url(#p4a77e9566a)" style="fill: none; stroke: #e5e5e5; stroke-linecap: square"/>
     </g>
     <g id="text_2">
      <text style="font-size: 11px; font-family: 'IBM Plex Sans'; text-anchor: start; fill: #4d4d4d" x="26.64" y="196.507243" transform="rotate(-0 26.64 196.507243)">2,000</text>
     </g>
    </g>
    <g id="ytick_4">
     <g id="line2d_4">
      <path d="M 58.232344 118.399681  L 734.88 118.399681  " clip-path="url(#p4a77e9566a)" style="fill: none; stroke: #e5e5e5; stroke-linecap: square"/>
     </g>
     <g id="text_3">
      <text style="font-size: 11px; font-family: 'IBM Plex Sans'; text-anchor: start; fill: #4d4d4d" x="26.64" y="122.469681" transform="rotate(-0 26.64 122.469681)">3,000</text>
     </g>
    </g>
    <g id="ytick_5">
     <g id="line2d_5">
      <path d="M 58.232344 44.362118  L 734.88 44.362118  " clip-path="url(#p4a77e9566a)" style="fill: none; stroke: #e5e5e5; stroke-linecap: square"/>
     </g>
     <g id="text_4">
      <text style="font-size: 11px; font-family: 'IBM Plex Sans'; text-anchor: start; fill: #4d4d4d" x="26.64" y="48.432118" transform="rotate(-0 26.64 48.432118)">4,000</text>
     </g>
    </g>
    <g id="ytick_6">
     <g id="line2d_6">
      <path d="M 58.232344 303.493587  L 734.88 303.493587  " clip-path="url(#p4a77e9566a)" style="fill: none; stroke: #fafafa; stroke-width: 0.5; stroke-linecap: square"/>
     </g>
    </g>
    <g id="ytick_7">
     <g id="line2d_7">
      <path d="M 58.232344 229.456025  L 734.88 229.456025  " clip-path="url(#p4a77e9566a)" style="fill: none; stroke: #fafafa; stroke-width: 0.5; stroke-linecap: square"/>
     </g>
    </g>
    <g id="ytick_8">
     <g id="line2d_8">
      <path d="M 58.232344 155.418462  L 734.88 155.418462  " clip-path="url(#p4a77e9566a)" style="fill: none; stroke: #fafafa; stroke-width: 0.5; stroke-linecap: square"/>
     </g>
    </g>
    <g id="ytick_9">
     <g id="line2d_9">
      <path d="M 58.232344 81.380899  L 734.88 81.380899  " clip-path="url(#p4a77e9566a)" style="fill: none; stroke: #fafafa; stroke-width: 0.5; stroke-linecap: square"/>
     </g>
    </g>
   </g>
   <g id="FillBetweenPolyCollection_1">
    <path d="M 58.232344 175.260529  L 58.232344 175.260529  L 80.787266 175.260529  L 103.342187 174.830042  L 125.897109 174.689095  L 148.452031 174.763394  L 171.006953 174.907893  L 193.561875 174.138986  L 216.116797 172.537234  L 238.671719 170.673073  L 261.226641 168.689571  L 283.781563 166.650721  L 306.336484 164.217542  L 328.891406 161.647585  L 351.446328 159.10199  L 374.00125 157.127984  L 396.556172 154.382937  L 419.111094 151.710925  L 441.666016 149.348167  L 464.220937 146.95079  L 486.775859 143.819583  L 509.330781 141.064137  L 531.885703 138.517948  L 554.440625 136.085539  L 576.995547 133.936549  L 599.550469 132.523124  L 622.105391 131.553688  L 644.660312 130.761571  L 667.215234 130.111728  L 689.770156 129.601907  L 712.325078 129.164656  L 734.88 128.795323  L 734.88 124.396723  L 734.88 124.396723  L 712.325078 124.766911  L 689.770156 125.211137  L 667.215234 125.729399  L 644.660312 126.395738  L 622.105391 127.210151  L 599.550469 128.246677  L 576.995547 129.801465  L 554.440625 132.170667  L 531.885703 134.83602  L 509.330781 137.649447  L 486.775859 140.684987  L 464.220937 144.164753  L 441.666016 146.830105  L 419.111094 149.495457  L 396.556172 152.45696  L 374.00125 155.4925  L 351.446328 157.713626  L 328.891406 160.527054  L 306.336484 163.340481  L 283.781563 166.005833  L 261.226641 168.22696  L 238.671719 170.37405  L 216.116797 172.373064  L 193.561875 174.075928  L 171.006953 174.890341  L 148.452031 174.742266  L 125.897109 174.668228  L 103.342187 174.816303  L 80.787266 175.260529  L 58.232344 175.260529  z " clip-path="url(#p4a77e9566a)" style="fill: #ffc729; fill-opacity: 0.219608"/>
   </g>
   <g id="line2d_10">
    <path d="M 58.232344 175.260529  L 80.787266 175.260529  L 103.342187 174.830042  L 125.897109 174.689095  L 148.452031 174.763394  L 171.006953 174.907893  L 193.561875 174.138986  L 216.116797 172.537234  L 238.671719 170.673073  L 261.226641 168.689571  L 283.781563 166.650721  L 306.336484 164.217542  L 328.891406 161.647585  L 351.446328 159.10199  L 374.00125 157.127984  L 396.556172 154.382937  L 419.111094 151.710925  L 441.666016 149.348167  L 464.220937 146.95079  L 486.775859 143.819583  L 509.330781 141.064137  L 531.885703 138.517948  L 554.440625 136.085539  L 576.995547 133.936549  L 599.550469 132.523124  L 622.105391 131.553688  L 644.660312 130.761571  L 667.215234 130.111728  L 689.770156 129.601907  L 712.325078 129.164656  L 734.88 128.795323  " clip-path="url(#p4a77e9566a)" style="fill: none; stroke: #000000; stroke-opacity: 0; stroke-width: 0.886227; stroke-linejoin: miter"/>
   </g>
   <g id="line2d_11">
    <path d="M 58.232344 175.260529  L 80.787266 175.260529  L 103.342187 174.816303  L 125.897109 174.668228  L 148.452031 174.742266  L 171.006953 174.890341  L 193.561875 174.075928  L 216.116797 172.373064  L 238.671719 170.37405  L 261.226641 168.22696  L 283.781563 166.005833  L 306.336484 163.340481  L 328.891406 160.527054  L 351.446328 157.713626  L 374.00125 155.4925  L 396.556172 152.45696  L 419.111094 149.495457  L 441.666016 146.830105  L 464.220937 144.164753  L 486.775859 140.684987  L 509.330781 137.649447  L 531.885703 134.83602  L 554.440625 132.170667  L 576.995547 129.801465  L 599.550469 128.246677  L 622.105391 127.210151  L 644.660312 126.395738  L 667.215234 125.729399  L 689.770156 125.211137  L 712.325078 124.766911  L 734.88 124.396723  " clip-path="url(#p4a77e9566a)" style="fill: none; stroke: #000000; stroke-opacity: 0; stroke-width: 0.886227; stroke-linejoin: miter"/>
   </g>
   <g id="FillBetweenPolyCollection_2">
    <path d="M 58.232344 175.260529  L 58.232344 175.260529  L 80.787266 175.260529  L 103.342187 174.892631  L 125.897109 174.780589  L 148.452031 174.846664  L 171.006953 174.970123  L 193.561875 174.366448  L 216.116797 173.213229  L 238.671719 172.036911  L 261.226641 170.776039  L 283.781563 169.660194  L 306.336484 168.456667  L 328.891406 166.947396  L 351.446328 165.776169  L 374.00125 165.145413  L 396.556172 163.762445  L 419.111094 162.152343  L 441.666016 161.658691  L 464.220937 160.791107  L 486.775859 159.088864  L 509.330781 158.112845  L 531.885703 157.46454  L 554.440625 156.421852  L 576.995547 155.498053  L 599.550469 154.852674  L 622.105391 154.33011  L 644.660312 153.838118  L 667.215234 153.321836  L 689.770156 152.821808  L 712.325078 152.333262  L 734.88 151.854648  L 734.88 128.795323  L 734.88 128.795323  L 712.325078 129.164656  L 689.770156 129.601907  L 667.215234 130.111728  L 644.660312 130.761571  L 622.105391 131.553688  L 599.550469 132.523124  L 576.995547 133.936549  L 554.440625 136.085539  L 531.885703 138.517948  L 509.330781 141.064137  L 486.775859 143.819583  L 464.220937 146.95079  L 441.666016 149.348167  L 419.111094 151.710925  L 396.556172 154.382937  L 374.00125 157.127984  L 351.446328 159.10199  L 328.891406 161.647585  L 306.336484 164.217542  L 283.781563 166.650721  L 261.226641 168.689571  L 238.671719 170.673073  L 216.116797 172.537234  L 193.561875 174.138986  L 171.006953 174.907893  L 148.452031 174.763394  L 125.897109 174.689095  L 103.342187 174.830042  L 80.787266 175.260529  L 58.232344 175.260529  z " clip-path="url(#p4a77e9566a)" style="fill: #fc9706; fill-opacity: 0.219608"/>
   </g>
   <g id="line2d_12">
    <path d="M 58.232344 175.260529  L 80.787266 175.260529  L 103.342187 174.892631  L 125.897109 174.780589  L 148.452031 174.846664  L 171.006953 174.970123  L 193.561875 174.366448  L 216.116797 173.213229  L 238.671719 172.036911  L 261.226641 170.776039  L 283.781563 169.660194  L 306.336484 168.456667  L 328.891406 166.947396  L 351.446328 165.776169  L 374.00125 165.145413  L 396.556172 163.762445  L 419.111094 162.152343  L 441.666016 161.658691  L 464.220937 160.791107  L 486.775859 159.088864  L 509.330781 158.112845  L 531.885703 157.46454  L 554.440625 156.421852  L 576.995547 155.498053  L 599.550469 154.852674  L 622.105391 154.33011  L 644.660312 153.838118  L 667.215234 153.321836  L 689.770156 152.821808  L 712.325078 152.333262  L 734.88 151.854648  " clip-path="url(#p4a77e9566a)" style="fill: none; stroke: #000000; stroke-opacity: 0; stroke-width: 0.886227; stroke-linejoin: miter"/>
   </g>
   <g id="line2d_13">
    <path d="M 58.232344 175.260529  L 80.787266 175.260529  L 103.342187 174.830042  L 125.897109 174.689095  L 148.452031 174.763394  L 171.006953 174.907893  L 193.561875 174.138986  L 216.116797 172.537234  L 238.671719 170.673073  L 261.226641 168.689571  L 283.781563 166.650721  L 306.336484 164.217542  L 328.891406 161.647585  L 351.446328 159.10199  L 374.00125 157.127984  L 396.556172 154.382937  L 419.111094 151.710925  L 441.666016 149.348167  L 464.220937 146.95079  L 486.775859 143.819583  L 509.330781 141.064137  L 531.885703 138.517948  L 554.440625 136.085539  L 576.995547 133.936549  L 599.550469 132.523124  L 622.105391 131.553688  L 644.660312 130.761571  L 667.215234 130.111728  L 689.770156 129.601907  L 712.325078 129.164656  L 734.88 128.795323  " clip-path="url(#p4a77e9566a)" style="fill: none; stroke: #000000; stroke-opacity: 0; stroke-width: 0.886227; stroke-linejoin: miter"/>
   </g>
   <g id="FillBetweenPolyCollection_3">
    <path d="M 58.232344 175.260529  L 58.232344 175.260529  L 80.787266 175.260529  L 103.342187 175.260529  L 125.897109 175.260529  L 148.452031 175.260529  L 171.006953 175.260529  L 193.561875 175.260529  L 216.116797 175.260529  L 238.671719 175.260529  L 261.226641 175.260529  L 283.781563 175.260529  L 306.336484 175.260529  L 328.891406 175.260529  L 351.446328 175.260529  L 374.00125 175.260529  L 396.556172 175.260529  L 419.111094 175.260529  L 441.666016 175.260529  L 464.220937 175.260529  L 486.775859 175.260529  L 509.330781 175.260529  L 531.885703 175.260529  L 554.440625 175.260529  L 576.995547 175.260529  L 599.550469 175.260529  L 622.105391 175.260529  L 644.660312 175.260529  L 667.215234 175.260529  L 689.770156 175.260529  L 712.325078 175.260529  L 734.88 175.260529  L 734.88 151.854648  L 734.88 151.854648  L 712.325078 152.333262  L 689.770156 152.821808  L 667.215234 153.321836  L 644.660312 153.838118  L 622.105391 154.33011  L 599.550469 154.852674  L 576.995547 155.498053  L 554.440625 156.421852  L 531.885703 157.46454  L 509.330781 158.112845  L 486.775859 159.088864  L 464.220937 160.791107  L 441.666016 161.658691  L 419.111094 162.152343  L 396.556172 163.762445  L 374.00125 165.145413  L 351.446328 165.776169  L 328.891406 166.947396  L 306.336484 168.456667  L 283.781563 169.660194  L 261.226641 170.776039  L 238.671719 172.036911  L 216.116797 173.213229  L 193.561875 174.366448  L 171.006953 174.970123  L 148.452031 174.846664  L 125.897109 174.780589  L 103.342187 174.892631  L 80.787266 175.260529  L 58.232344 175.260529  z " clip-path="url(#p4a77e9566a)" style="fill: #999999; fill-opacity: 0.219608"/>
   </g>
   <g id="line2d_14">
    <path d="M 58.232344 175.260529  L 80.787266 175.260529  L 103.342187 175.260529  L 125.897109 175.260529  L 148.452031 175.260529  L 171.006953 175.260529  L 193.561875 175.260529  L 216.116797 175.260529  L 238.671719 175.260529  L 261.226641 175.260529  L 283.781563 175.260529  L 306.336484 175.260529  L 328.891406 175.260529  L 351.446328 175.260529  L 374.00125 175.260529  L 396.556172 175.260529  L 419.111094 175.260529  L 441.666016 175.260529  L 464.220937 175.260529  L 486.775859 175.260529  L 509.330781 175.260529  L 531.885703 175.260529  L 554.440625 175.260529  L 576.995547 175.260529  L 599.550469 175.260529  L 622.105391 175.260529  L 644.660312 175.260529  L 667.215234 175.260529  L 689.770156 175.260529  L 712.325078 175.260529  L 734.88 175.260529  " clip-path="url(#p4a77e9566a)" style="fill: none; stroke: #000000; stroke-opacity: 0; stroke-width: 0.886227; stroke-linejoin: miter"/>
   </g>
   <g id="line2d_15">
    <path d="M 58.232344 175.260529  L 80.787266 175.260529  L 103.342187 174.892631  L 125.897109 174.780589  L 148.452031 174.846664  L 171.006953 174.970123  L 193.561875 174.366448  L 216.116797 173.213229  L 238.671719 172.036911  L 261.226641 170.776039  L 283.781563 169.660194  L 306.336484 168.456667  L 328.891406 166.947396  L 351.446328 165.776169  L 374.00125 165.145413  L 396.556172 163.762445  L 419.111094 162.152343  L 441.666016 161.658691  L 464.220937 160.791107  L 486.775859 159.088864  L 509.330781 158.112845  L 531.885703 157.46454  L 554.440625 156.421852  L 576.995547 155.498053  L 599.550469 154.852674  L 622.105391 154.33011  L 644.660312 153.838118  L 667.215234 153.321836  L 689.770156 152.821808  L 712.325078 152.333262  L 734.88 151.854648  " clip-path="url(#p4a77e9566a)" style="fill: none; stroke: #000000; stroke-opacity: 0; stroke-width: 0.886227; stroke-linejoin: miter"/>
   </g>
   <g id="FillBetweenPolyCollection_4">
    <path d="M 58.232344 175.260529  L 58.232344 340.512368  L 80.787266 340.512368  L 103.342187 340.512368  L 125.897109 340.512368  L 148.452031 340.512368  L 171.006953 340.512368  L 193.561875 340.512368  L 216.116797 340.512368  L 238.671719 340.512368  L 261.226641 340.512368  L 283.781563 340.512368  L 306.336484 340.512368  L 328.891406 340.512368  L 351.446328 340.512368  L 374.00125 340.512368  L 396.556172 340.512368  L 419.111094 340.512368  L 441.666016 340.512368  L 464.220937 340.512368  L 486.775859 340.512368  L 509.330781 340.512368  L 531.885703 340.512368  L 554.440625 340.512368  L 576.995547 340.512368  L 599.550469 340.512368  L 622.105391 340.512368  L 644.660312 340.512368  L 667.215234 340.512368  L 689.770156 340.512368  L 712.325078 340.512368  L 734.88 340.512368  L 734.88 175.260529  L 734.88 175.260529  L 712.325078 175.260529  L 689.770156 175.260529  L 667.215234 175.260529  L 644.660312 175.260529  L 622.105391 175.260529  L 599.550469 175.260529  L 576.995547 175.260529  L 554.440625 175.260529  L 531.885703 175.260529  L 509.330781 175.260529  L 486.775859 175.260529  L 464.220937 175.260529  L 441.666016 175.260529  L 419.111094 175.260529  L 396.556172 175.260529  L 374.00125 175.260529  L 351.446328 175.260529  L 328.891406 175.260529  L 306.336484 175.260529  L 283.781563 175.260529  L 261.226641 175.260529  L 238.671719 175.260529  L 216.116797 175.260529  L 193.561875 175.260529  L 171.006953 175.260529  L 148.452031 175.260529  L 125.897109 175.260529  L 103.342187 175.260529  L 80.787266 175.260529  L 58.232344 175.260529  z " clip-path="url(#p4a77e9566a)" style="fill: #e0e0e0; fill-opacity: 0.219608"/>
   </g>
   <g id="line2d_16">
    <path d="M 58.232344 340.512368  L 80.787266 340.512368  L 103.342187 340.512368  L 125.897109 340.512368  L 148.452031 340.512368  L 171.006953 340.512368  L 193.561875 340.512368  L 216.116797 340.512368  L 238.671719 340.512368  L 261.226641 340.512368  L 283.781563 340.512368  L 306.336484 340.512368  L 328.891406 340.512368  L 351.446328 340.512368  L 374.00125 340.512368  L 396.556172 340.512368  L 419.111094 340.512368  L 441.666016 340.512368  L 464.220937 340.512368  L 486.775859 340.512368  L 509.330781 340.512368  L 531.885703 340.512368  L 554.440625 340.512368  L 576.995547 340.512368  L 599.550469 340.512368  L 622.105391 340.512368  L 644.660312 340.512368  L 667.215234 340.512368  L 689.770156 340.512368  L 712.325078 340.512368  L 734.88 340.512368  " clip-path="url(#p4a77e9566a)" style="fill: none; stroke: #000000; stroke-opacity: 0; stroke-width: 0.886227; stroke-linejoin: miter"/>
   </g>
   <g id="line2d_17">
    <path d="M 58.232344 175.260529  L 80.787266 175.260529  L 103.342187 175.260529  L 125.897109 175.260529  L 148.452031 175.260529  L 171.006953 175.260529  L 193.561875 175.260529  L 216.116797 175.260529  L 238.671719 175.260529  L 261.226641 175.260529  L 283.781563 175.260529  L 306.336484 175.260529  L 328.891406 175.260529  L 351.446328 175.260529  L 374.00125 175.260529  L 396.556172 175.260529  L 419.111094 175.260529  L 441.666016 175.260529  L 464.220937 175.260529  L 486.775859 175.260529  L 509.330781 175.260529  L 531.885703 175.260529  L 554.440625 175.260529  L 576.995547 175.260529  L 599.550469 175.260529  L 622.105391 175.260529  L 644.660312 175.260529  L 667.215234 175.260529  L 689.770156 175.260529  L 712.325078 175.260529  L 734.88 175.260529  " clip-path="url(#p4a77e9566a)" style="fill: none; stroke: #000000; stroke-opacity: 0; stroke-width: 0.886227; stroke-linejoin: miter"/>
   </g>
   <g id="FillBetweenPolyCollection_5">
    <path d="M 58.232344 223.607057  L 58.232344 223.607057  L 80.787266 222.962557  L 103.342187 222.078423  L 125.897109 220.811825  L 148.452031 219.361819  L 171.006953 217.302769  L 193.561875 215.084437  L 216.116797 212.386824  L 238.671719 209.29684  L 261.226641 206.242685  L 283.781563 203.009235  L 306.336484 198.278478  L 328.891406 193.238688  L 351.446328 189.136641  L 374.00125 184.19749  L 396.556172 179.814985  L 419.111094 175.368596  L 441.666016 171.847833  L 464.220937 167.028604  L 486.775859 161.864591  L 509.330781 157.837348  L 531.885703 154.337725  L 554.440625 151.186527  L 576.995547 149.243558  L 599.550469 149.128749  L 622.105391 147.978287  L 644.660312 146.659292  L 667.215234 143.118345  L 689.770156 143.2774  L 712.325078 142.838106  L 734.88 142.031319  L 734.88 57.096579  L 734.88 57.096579  L 712.325078 57.98503  L 689.770156 59.539819  L 667.215234 62.575359  L 644.660312 67.757988  L 622.105391 73.16273  L 599.550469 78.493435  L 576.995547 82.787613  L 554.440625 89.450994  L 531.885703 95.448036  L 509.330781 101.815267  L 486.775859 108.478647  L 464.220937 117.955455  L 441.666016 126.914  L 419.111094 135.280245  L 396.556172 144.831091  L 374.00125 154.604049  L 351.446328 164.747195  L 328.891406 173.779778  L 306.336484 183.256586  L 283.781563 191.548793  L 261.226641 197.10161  L 238.671719 202.210202  L 216.116797 206.948606  L 193.561875 211.020672  L 171.006953 214.352362  L 148.452031 217.313864  L 125.897109 219.534991  L 103.342187 221.459968  L 80.787266 222.792644  L 58.232344 223.607057  z " clip-path="url(#p4a77e9566a)" style="fill: #ffc729"/>
   </g>
   <g id="line2d_18">
    <path d="M 58.232344 223.607057  L 80.787266 222.962557  L 103.342187 222.078423  L 125.897109 220.811825  L 148.452031 219.361819  L 171.006953 217.302769  L 193.561875 215.084437  L 216.116797 212.386824  L 238.671719 209.29684  L 261.226641 206.242685  L 283.781563 203.009235  L 306.336484 198.278478  L 328.891406 193.238688  L 351.446328 189.136641  L 374.00125 184.19749  L 396.556172 179.814985  L 419.111094 175.368596  L 441.666016 171.847833  L 464.220937 167.028604  L 486.775859 161.864591  L 509.330781 157.837348  L 531.885703 154.337725  L 554.440625 151.186527  L 576.995547 149.243558  L 599.550469 149.128749  L 622.105391 147.978287  L 644.660312 146.659292  L 667.215234 143.118345  L 689.770156 143.2774  L 712.325078 142.838106  L 734.88 142.031319  " clip-path="url(#p4a77e9566a)" style="fill: none; stroke: #000000; stroke-opacity: 0; stroke-width: 0.886227; stroke-linejoin: miter"/>
   </g>
   <g id="line2d_19">
    <path d="M 58.232344 223.607057  L 80.787266 222.792644  L 103.342187 221.459968  L 125.897109 219.534991  L 148.452031 217.313864  L 171.006953 214.352362  L 193.561875 211.020672  L 216.116797 206.948606  L 238.671719 202.210202  L 261.226641 197.10161  L 283.781563 191.548793  L 306.336484 183.256586  L 328.891406 173.779778  L 351.446328 164.747195  L 374.00125 154.604049  L 396.556172 144.831091  L 419.111094 135.280245  L 441.666016 126.914  L 464.220937 117.955455  L 486.775859 108.478647  L 509.330781 101.815267  L 531.885703 95.448036  L 554.440625 89.450994  L 576.995547 82.787613  L 599.550469 78.493435  L 622.105391 73.16273  L 644.660312 67.757988  L 667.215234 62.575359  L 689.770156 59.539819  L 712.325078 57.98503  L 734.88 57.096579  " clip-path="url(#p4a77e9566a)" style="fill: none; stroke: #000000; stroke-opacity: 0; stroke-width: 0.886227; stroke-linejoin: miter"/>
   </g>
   <g id="FillBetweenPolyCollection_6">
    <path d="M 58.232344 223.607057  L 58.232344 223.607057  L 80.787266 223.278948  L 103.342187 222.848575  L 125.897109 222.24395  L 148.452031 221.879096  L 171.006953 221.261862  L 193.561875 220.841439  L 216.116797 220.012832  L 238.671719 219.635801  L 261.226641 219.311853  L 283.781563 218.380166  L 306.336484 217.556573  L 328.891406 216.705155  L 351.446328 216.034715  L 374.00125 215.435012  L 396.556172 214.997934  L 419.111094 214.743813  L 441.666016 214.299704  L 464.220937 213.634974  L 486.775859 212.642447  L 509.330781 211.449301  L 531.885703 210.538387  L 554.440625 209.954006  L 576.995547 209.958403  L 599.550469 210.075388  L 622.105391 210.216157  L 644.660312 210.366398  L 667.215234 208.084622  L 689.770156 208.190254  L 712.325078 208.667757  L 734.88 207.985037  L 734.88 142.031319  L 734.88 142.031319  L 712.325078 142.838106  L 689.770156 143.2774  L 667.215234 143.118345  L 644.660312 146.659292  L 622.105391 147.978287  L 599.550469 149.128749  L 576.995547 149.243558  L 554.440625 151.186527  L 531.885703 154.337725  L 509.330781 157.837348  L 486.775859 161.864591  L 464.220937 167.028604  L 441.666016 171.847833  L 419.111094 175.368596  L 396.556172 179.814985  L 374.00125 184.19749  L 351.446328 189.136641  L 328.891406 193.238688  L 306.336484 198.278478  L 283.781563 203.009235  L 261.226641 206.242685  L 238.671719 209.29684  L 216.116797 212.386824  L 193.561875 215.084437  L 171.006953 217.302769  L 148.452031 219.361819  L 125.897109 220.811825  L 103.342187 222.078423  L 80.787266 222.962557  L 58.232344 223.607057  z " clip-path="url(#p4a77e9566a)" style="fill: #fc9706"/>
   </g>
   <g id="line2d_20">
    <path d="M 58.232344 223.607057  L 80.787266 223.278948  L 103.342187 222.848575  L 125.897109 222.24395  L 148.452031 221.879096  L 171.006953 221.261862  L 193.561875 220.841439  L 216.116797 220.012832  L 238.671719 219.635801  L 261.226641 219.311853  L 283.781563 218.380166  L 306.336484 217.556573  L 328.891406 216.705155  L 351.446328 216.034715  L 374.00125 215.435012  L 396.556172 214.997934  L 419.111094 214.743813  L 441.666016 214.299704  L 464.220937 213.634974  L 486.775859 212.642447  L 509.330781 211.449301  L 531.885703 210.538387  L 554.440625 209.954006  L 576.995547 209.958403  L 599.550469 210.075388  L 622.105391 210.216157  L 644.660312 210.366398  L 667.215234 208.084622  L 689.770156 208.190254  L 712.325078 208.667757  L 734.88 207.985037  " clip-path="url(#p4a77e9566a)" style="fill: none; stroke: #000000; stroke-opacity: 0; stroke-width: 0.886227; stroke-linejoin: miter"/>
   </g>
   <g id="line2d_21">
    <path d="M 58.232344 223.607057  L 80.787266 222.962557  L 103.342187 222.078423  L 125.897109 220.811825  L 148.452031 219.361819  L 171.006953 217.302769  L 193.561875 215.084437  L 216.116797 212.386824  L 238.671719 209.29684  L 261.226641 206.242685  L 283.781563 203.009235  L 306.336484 198.278478  L 328.891406 193.238688  L 351.446328 189.136641  L 374.00125 184.19749  L 396.556172 179.814985  L 419.111094 175.368596  L 441.666016 171.847833  L 464.220937 167.028604  L 486.775859 161.864591  L 509.330781 157.837348  L 531.885703 154.337725  L 554.440625 151.186527  L 576.995547 149.243558  L 599.550469 149.128749  L 622.105391 147.978287  L 644.660312 146.659292  L 667.215234 143.118345  L 689.770156 143.2774  L 712.325078 142.838106  L 734.88 142.031319  " clip-path="url(#p4a77e9566a)" style="fill: none; stroke: #000000; stroke-opacity: 0; stroke-width: 0.886227; stroke-linejoin: miter"/>
   </g>
   <g id="FillBetweenPolyCollection_7">
    <path d="M 58.232344 223.607057  L 58.232344 223.607057  L 80.787266 223.607057  L 103.342187 223.607057  L 125.897109 223.607057  L 148.452031 223.607057  L 171.006953 223.607057  L 193.561875 223.607057  L 216.116797 223.607057  L 238.671719 223.607057  L 261.226641 223.607057  L 283.781563 223.607057  L 306.336484 223.607057  L 328.891406 223.607057  L 351.446328 223.607057  L 374.00125 223.607057  L 396.556172 223.607057  L 419.111094 223.607057  L 441.666016 223.607057  L 464.220937 223.607057  L 486.775859 223.607057  L 509.330781 223.607057  L 531.885703 223.607057  L 554.440625 223.607057  L 576.995547 223.607057  L 599.550469 223.607057  L 622.105391 223.607057  L 644.660312 223.607057  L 667.215234 223.607057  L 689.770156 223.607057  L 712.325078 223.607057  L 734.88 223.607057  L 734.88 207.985037  L 734.88 207.985037  L 712.325078 208.667757  L 689.770156 208.190254  L 667.215234 208.084622  L 644.660312 210.366398  L 622.105391 210.216157  L 599.550469 210.075388  L 576.995547 209.958403  L 554.440625 209.954006  L 531.885703 210.538387  L 509.330781 211.449301  L 486.775859 212.642447  L 464.220937 213.634974  L 441.666016 214.299704  L 419.111094 214.743813  L 396.556172 214.997934  L 374.00125 215.435012  L 351.446328 216.034715  L 328.891406 216.705155  L 306.336484 217.556573  L 283.781563 218.380166  L 261.226641 219.311853  L 238.671719 219.635801  L 216.116797 220.012832  L 193.561875 220.841439  L 171.006953 221.261862  L 148.452031 221.879096  L 125.897109 222.24395  L 103.342187 222.848575  L 80.787266 223.278948  L 58.232344 223.607057  z " clip-path="url(#p4a77e9566a)" style="fill: #999999"/>
   </g>
   <g id="line2d_22">
    <path d="M 58.232344 223.607057  L 80.787266 223.607057  L 103.342187 223.607057  L 125.897109 223.607057  L 148.452031 223.607057  L 171.006953 223.607057  L 193.561875 223.607057  L 216.116797 223.607057  L 238.671719 223.607057  L 261.226641 223.607057  L 283.781563 223.607057  L 306.336484 223.607057  L 328.891406 223.607057  L 351.446328 223.607057  L 374.00125 223.607057  L 396.556172 223.607057  L 419.111094 223.607057  L 441.666016 223.607057  L 464.220937 223.607057  L 486.775859 223.607057  L 509.330781 223.607057  L 531.885703 223.607057  L 554.440625 223.607057  L 576.995547 223.607057  L 599.550469 223.607057  L 622.105391 223.607057  L 644.660312 223.607057  L 667.215234 223.607057  L 689.770156 223.607057  L 712.325078 223.607057  L 734.88 223.607057  " clip-path="url(#p4a77e9566a)" style="fill: none; stroke: #000000; stroke-opacity: 0; stroke-width: 0.886227; stroke-linejoin: miter"/>
   </g>
   <g id="line2d_23">
    <path d="M 58.232344 223.607057  L 80.787266 223.278948  L 103.342187 222.848575  L 125.897109 222.24395  L 148.452031 221.879096  L 171.006953 221.261862  L 193.561875 220.841439  L 216.116797 220.012832  L 238.671719 219.635801  L 261.226641 219.311853  L 283.781563 218.380166  L 306.336484 217.556573  L 328.891406 216.705155  L 351.446328 216.034715  L 374.00125 215.435012  L 396.556172 214.997934  L 419.111094 214.743813  L 441.666016 214.299704  L 464.220937 213.634974  L 486.775859 212.642447  L 509.330781 211.449301  L 531.885703 210.538387  L 554.440625 209.954006  L 576.995547 209.958403  L 599.550469 210.075388  L 622.105391 210.216157  L 644.660312 210.366398  L 667.215234 208.084622  L 689.770156 208.190254  L 712.325078 208.667757  L 734.88 207.985037  " clip-path="url(#p4a77e9566a)" style="fill: none; stroke: #000000; stroke-opacity: 0; stroke-width: 0.886227; stroke-linejoin: miter"/>
   </g>
   <g id="FillBetweenPolyCollection_8">
    <path d="M 58.232344 223.607057  L 58.232344 340.512368  L 80.787266 340.512368  L 103.342187 340.512368  L 125.897109 340.512368  L 148.452031 340.512368  L 171.006953 340.512368  L 193.561875 340.512368  L 216.116797 340.512368  L 238.671719 340.512368  L 261.226641 340.512368  L 283.781563 340.512368  L 306.336484 340.512368  L 328.891406 340.512368  L 351.446328 340.512368  L 374.00125 340.512368  L 396.556172 340.512368  L 419.111094 340.512368  L 441.666016 340.512368  L 464.220937 340.512368  L 486.775859 340.512368  L 509.330781 340.512368  L 531.885703 340.512368  L 554.440625 340.512368  L 576.995547 340.512368  L 599.550469 340.512368  L 622.105391 340.512368  L 644.660312 340.512368  L 667.215234 340.512368  L 689.770156 340.512368  L 712.325078 340.512368  L 734.88 340.512368  L 734.88 223.607057  L 734.88 223.607057  L 712.325078 223.607057  L 689.770156 223.607057  L 667.215234 223.607057  L 644.660312 223.607057  L 622.105391 223.607057  L 599.550469 223.607057  L 576.995547 223.607057  L 554.440625 223.607057  L 531.885703 223.607057  L 509.330781 223.607057  L 486.775859 223.607057  L 464.220937 223.607057  L 441.666016 223.607057  L 419.111094 223.607057  L 396.556172 223.607057  L 374.00125 223.607057  L 351.446328 223.607057  L 328.891406 223.607057  L 306.336484 223.607057  L 283.781563 223.607057  L 261.226641 223.607057  L 238.671719 223.607057  L 216.116797 223.607057  L 193.561875 223.607057  L 171.006953 223.607057  L 148.452031 223.607057  L 125.897109 223.607057  L 103.342187 223.607057  L 80.787266 223.607057  L 58.232344 223.607057  z " clip-path="url(#p4a77e9566a)" style="fill: #e0e0e0"/>
   </g>
   <g id="line2d_24">
    <path d="M 58.232344 340.512368  L 80.787266 340.512368  L 103.342187 340.512368  L 125.897109 340.512368  L 148.452031 340.512368  L 171.006953 340.512368  L 193.561875 340.512368  L 216.116797 340.512368  L 238.671719 340.512368  L 261.226641 340.512368  L 283.781563 340.512368  L 306.336484 340.512368  L 328.891406 340.512368  L 351.446328 340.512368  L 374.00125 340.512368  L 396.556172 340.512368  L 419.111094 340.512368  L 441.666016 340.512368  L 464.220937 340.512368  L 486.775859 340.512368  L 509.330781 340.512368  L 531.885703 340.512368  L 554.440625 340.512368  L 576.995547 340.512368  L 599.550469 340.512368  L 622.105391 340.512368  L 644.660312 340.512368  L 667.215234 340.512368  L 689.770156 340.512368  L 712.325078 340.512368  L 734.88 340.512368  " clip-path="url(#p4a77e9566a)" style="fill: none; stroke: #000000; stroke-opacity: 0; stroke-width: 0.886227; stroke-linejoin: miter"/>
   </g>
   <g id="line2d_25">
    <path d="M 58.232344 223.607057  L 80.787266 223.607057  L 103.342187 223.607057  L 125.897109 223.607057  L 148.452031 223.607057  L 171.006953 223.607057  L 193.561875 223.607057  L 216.116797 223.607057  L 238.671719 223.607057  L 261.226641 223.607057  L 283.781563 223.607057  L 306.336484 223.607057  L 328.891406 223.607057  L 351.446328 223.607057  L 374.00125 223.607057  L 396.556172 223.607057  L 419.111094 223.607057  L 441.666016 223.607057  L 464.220937 223.607057  L 486.775859 223.607057  L 509.330781 223.607057  L 531.885703 223.607057  L 554.440625 223.607057  L 576.995547 223.607057  L 599.550469 223.607057  L 622.105391 223.607057  L 644.660312 223.607057  L 667.215234 223.607057  L 689.770156 223.607057  L 712.325078 223.607057  L 734.88 223.607057  " clip-path="url(#p4a77e9566a)" style="fill: none; stroke: #000000; stroke-opacity: 0; stroke-width: 0.886227; stroke-linejoin: miter"/>
   </g>
   <g id="line2d_26">
    <path d="M 734.88 282.059713  L 752.923938 282.059713  " style="fill: none; stroke: #e0e0e0; stroke-linecap: round"/>
   </g>
   <g id="line2d_27">
    <path d="M 752.923938 282.059713  L 761.945906 282.059713  " style="fill: none; stroke: #e0e0e0; stroke-linecap: round"/>
   </g>
   <g id="line2d_28">
    <path d="M 734.88 215.796047  L 752.923938 215.796047  " style="fill: none; stroke: #999999; stroke-linecap: round"/>
   </g>
   <g id="line2d_29">
    <path d="M 752.923938 215.796047  L 761.945906 215.796047  " style="fill: none; stroke: #999999; stroke-linecap: round"/>
   </g>
   <g id="line2d_30">
    <path d="M 734.88 175.008178  L 752.923938 175.008178  " style="fill: none; stroke: #fc9706; stroke-linecap: round"/>
   </g>
   <g id="line2d_31">
    <path d="M 752.923938 175.008178  L 761.945906 175.008178  " style="fill: none; stroke: #fc9706; stroke-linecap: round"/>
   </g>
   <g id="line2d_32">
    <path d="M 734.88 99.563949  L 752.923938 99.563949  " style="fill: none; stroke: #ffc729; stroke-linecap: round"/>
   </g>
   <g id="line2d_33">
    <path d="M 752.923938 99.563949  L 761.945906 99.563949  " style="fill: none; stroke: #ffc729; stroke-linecap: round"/>
   </g>
   <g id="text_5">
    <text style="font-size: 9px; font-family: 'IBM Plex Sans'; text-anchor: end; fill: #a0af12" x="364.705249" y="57.805118" transform="rotate(-0 364.705249 57.805118)">Crossover</text>
   </g>
   <g id="text_6">
    <text style="font-weight: 700; font-size: 9px; font-family: 'IBM Plex Sans'; text-anchor: start; fill: #e0e0e0" x="768.712383" y="284.489713" transform="rotate(-0 768.712383 284.489713)">Base (2025 level)</text>
   </g>
   <g id="text_7">
    <text style="font-weight: 700; font-size: 9px; font-family: 'IBM Plex Sans'; text-anchor: start; fill: #999999" x="768.712383" y="218.212688" transform="rotate(-0 768.712383 218.212688)">Organic growth</text>
   </g>
   <g id="text_8">
    <text style="font-weight: 700; font-size: 9px; font-family: 'IBM Plex Sans'; text-anchor: start; fill: #fc9706" x="768.712383" y="177.438178" transform="rotate(-0 768.712383 177.438178)">EV load</text>
   </g>
   <g id="text_9">
    <text style="font-weight: 700; font-size: 9px; font-family: 'IBM Plex Sans'; text-anchor: start; fill: #ffc729" x="768.712383" y="101.980589" transform="rotate(-0 768.712383 101.980589)">Building electrification</text>
   </g>
   <g id="line2d_34">
    <path d="M 371.471726 340.512368  L 371.471726 42.925789  " clip-path="url(#p4a77e9566a)" style="fill: none; stroke-dasharray: 2.775,1.2; stroke-dashoffset: 0; stroke: #a0af12; stroke-width: 0.75"/>
   </g>
   <g id="line2d_35">
    <path d="M 371.471726 155.741598  L 374.00125 155.4925  L 396.556172 152.45696  L 419.111094 149.495457  L 441.666016 146.830105  L 464.220937 144.164753  L 486.775859 140.684987  L 509.330781 137.649447  L 531.885703 134.83602  L 554.440625 132.170667  L 576.995547 129.801465  L 599.550469 128.246677  L 622.105391 127.210151  L 644.660312 126.395738  L 667.215234 125.729399  L 689.770156 125.211137  L 712.325078 124.766911  L 734.88 124.396723  " clip-path="url(#p4a77e9566a)" style="fill: none; stroke-dasharray: 0.35,1.25; stroke-dashoffset: 0; stroke: #999999"/>
   </g>
   <g id="patch_3">
    <path d="M 58.232344 340.512368  L 734.88 340.512368  " style="fill: none; stroke: #000000; stroke-width: 0.5; stroke-linejoin: miter; stroke-linecap: square"/>
   </g>
  </g>
  <g id="axes_2">
   <g id="patch_4">
    <path d="M 58.232344 656.218947  L 734.88 656.218947  L 734.88 358.632368  L 58.232344 358.632368  z " style="fill: #ffffff"/>
   </g>
   <g id="matplotlib.axis_3">
    <g id="xtick_14">
     <g id="line2d_36">
      <path d="M 58.232344 656.218947  " style="fill: none; stroke: #000000; stroke-width: 1.5; stroke-linecap: square"/>
      <defs>
       <path id="mdccbb78525" d="M 0 0  L 0 2.75  " style="stroke: #000000"/>
      </defs>
      <g>
       <use xlink:href="#mdccbb78525" x="58.232344" y="656.218947" style="stroke: #000000"/>
      </g>
     </g>
     <g id="text_10">
      <text style="font-size: 11px; font-family: 'IBM Plex Sans'; text-anchor: middle; fill: #4d4d4d" x="58.232344" y="669.308947" transform="rotate(-0 58.232344 669.308947)">2025</text>
     </g>
    </g>
    <g id="xtick_15">
     <g id="line2d_37">
      <path d="M 171.006953 656.218947  " style="fill: none; stroke: #000000; stroke-width: 1.5; stroke-linecap: square"/>
      <g>
       <use xlink:href="#mdccbb78525" x="171.006953" y="656.218947" style="stroke: #000000"/>
      </g>
     </g>
     <g id="text_11">
      <text style="font-size: 11px; font-family: 'IBM Plex Sans'; text-anchor: middle; fill: #4d4d4d" x="171.006953" y="669.308947" transform="rotate(-0 171.006953 669.308947)">2030</text>
     </g>
    </g>
    <g id="xtick_16">
     <g id="line2d_38">
      <path d="M 283.781563 656.218947  " style="fill: none; stroke: #000000; stroke-width: 1.5; stroke-linecap: square"/>
      <g>
       <use xlink:href="#mdccbb78525" x="283.781563" y="656.218947" style="stroke: #000000"/>
      </g>
     </g>
     <g id="text_12">
      <text style="font-size: 11px; font-family: 'IBM Plex Sans'; text-anchor: middle; fill: #4d4d4d" x="283.781563" y="669.308947" transform="rotate(-0 283.781563 669.308947)">2035</text>
     </g>
    </g>
    <g id="xtick_17">
     <g id="line2d_39">
      <path d="M 396.556172 656.218947  " style="fill: none; stroke: #000000; stroke-width: 1.5; stroke-linecap: square"/>
      <g>
       <use xlink:href="#mdccbb78525" x="396.556172" y="656.218947" style="stroke: #000000"/>
      </g>
     </g>
     <g id="text_13">
      <text style="font-size: 11px; font-family: 'IBM Plex Sans'; text-anchor: middle; fill: #4d4d4d" x="396.556172" y="669.308947" transform="rotate(-0 396.556172 669.308947)">2040</text>
     </g>
    </g>
    <g id="xtick_18">
     <g id="line2d_40">
      <path d="M 509.330781 656.218947  " style="fill: none; stroke: #000000; stroke-width: 1.5; stroke-linecap: square"/>
      <g>
       <use xlink:href="#mdccbb78525" x="509.330781" y="656.218947" style="stroke: #000000"/>
      </g>
     </g>
     <g id="text_14">
      <text style="font-size: 11px; font-family: 'IBM Plex Sans'; text-anchor: middle; fill: #4d4d4d" x="509.330781" y="669.308947" transform="rotate(-0 509.330781 669.308947)">2045</text>
     </g>
    </g>
    <g id="xtick_19">
     <g id="line2d_41">
      <path d="M 622.105391 656.218947  " style="fill: none; stroke: #000000; stroke-width: 1.5; stroke-linecap: square"/>
      <g>
       <use xlink:href="#mdccbb78525" x="622.105391" y="656.218947" style="stroke: #000000"/>
      </g>
     </g>
     <g id="text_15">
      <text style="font-size: 11px; font-family: 'IBM Plex Sans'; text-anchor: middle; fill: #4d4d4d" x="622.105391" y="669.308947" transform="rotate(-0 622.105391 669.308947)">2050</text>
     </g>
    </g>
    <g id="xtick_20">
     <g id="line2d_42">
      <path d="M 734.88 656.218947  " style="fill: none; stroke: #000000; stroke-width: 1.5; stroke-linecap: square"/>
      <g>
       <use xlink:href="#mdccbb78525" x="734.88" y="656.218947" style="stroke: #000000"/>
      </g>
     </g>
     <g id="text_16">
      <text style="font-size: 11px; font-family: 'IBM Plex Sans'; text-anchor: middle; fill: #4d4d4d" x="734.88" y="669.308947" transform="rotate(-0 734.88 669.308947)">2055</text>
     </g>
    </g>
    <g id="xtick_21">
     <g id="line2d_43">
      <path d="M 114.619648 656.218947  " style="fill: none; stroke: #000000; stroke-width: 1.5; stroke-linecap: square"/>
      <defs>
       <path id="m307a19dd33" d="M 0 0  L 0 1.375  " style="stroke: #000000"/>
      </defs>
      <g>
       <use xlink:href="#m307a19dd33" x="114.619648" y="656.218947" style="stroke: #000000"/>
      </g>
     </g>
    </g>
    <g id="xtick_22">
     <g id="line2d_44">
      <path d="M 227.394258 656.218947  " style="fill: none; stroke: #000000; stroke-width: 1.5; stroke-linecap: square"/>
      <g>
       <use xlink:href="#m307a19dd33" x="227.394258" y="656.218947" style="stroke: #000000"/>
      </g>
     </g>
    </g>
    <g id="xtick_23">
     <g id="line2d_45">
      <path d="M 340.168867 656.218947  " style="fill: none; stroke: #000000; stroke-width: 1.5; stroke-linecap: square"/>
      <g>
       <use xlink:href="#m307a19dd33" x="340.168867" y="656.218947" style="stroke: #000000"/>
      </g>
     </g>
    </g>
    <g id="xtick_24">
     <g id="line2d_46">
      <path d="M 452.943477 656.218947  " style="fill: none; stroke: #000000; stroke-width: 1.5; stroke-linecap: square"/>
      <g>
       <use xlink:href="#m307a19dd33" x="452.943477" y="656.218947" style="stroke: #000000"/>
      </g>
     </g>
    </g>
    <g id="xtick_25">
     <g id="line2d_47">
      <path d="M 565.718086 656.218947  " style="fill: none; stroke: #000000; stroke-width: 1.5; stroke-linecap: square"/>
      <g>
       <use xlink:href="#m307a19dd33" x="565.718086" y="656.218947" style="stroke: #000000"/>
      </g>
     </g>
    </g>
    <g id="xtick_26">
     <g id="line2d_48">
      <path d="M 678.492695 656.218947  " style="fill: none; stroke: #000000; stroke-width: 1.5; stroke-linecap: square"/>
      <g>
       <use xlink:href="#m307a19dd33" x="678.492695" y="656.218947" style="stroke: #000000"/>
      </g>
     </g>
    </g>
   </g>
   <g id="matplotlib.axis_4">
    <g id="ytick_10">
     <g id="line2d_49">
      <path d="M 58.232344 656.218947  L 734.88 656.218947  " clip-path="url(#pc691719211)" style="fill: none; stroke: #e5e5e5; stroke-linecap: square"/>
     </g>
    </g>
    <g id="ytick_11">
     <g id="line2d_50">
      <path d="M 58.232344 582.181385  L 734.88 582.181385  " clip-path="url(#pc691719211)" style="fill: none; stroke: #e5e5e5; stroke-linecap: square"/>
     </g>
     <g id="text_17">
      <text style="font-size: 11px; font-family: 'IBM Plex Sans'; text-anchor: start; fill: #4d4d4d" x="26.64" y="586.251385" transform="rotate(-0 26.64 586.251385)">1,000</text>
     </g>
    </g>
    <g id="ytick_12">
     <g id="line2d_51">
      <path d="M 58.232344 508.143822  L 734.88 508.143822  " clip-path="url(#pc691719211)" style="fill: none; stroke: #e5e5e5; stroke-linecap: square"/>
     </g>
     <g id="text_18">
      <text style="font-size: 11px; font-family: 'IBM Plex Sans'; text-anchor: start; fill: #4d4d4d" x="26.64" y="512.213822" transform="rotate(-0 26.64 512.213822)">2,000</text>
     </g>
    </g>
    <g id="ytick_13">
     <g id="line2d_52">
      <path d="M 58.232344 434.10626  L 734.88 434.10626  " clip-path="url(#pc691719211)" style="fill: none; stroke: #e5e5e5; stroke-linecap: square"/>
     </g>
     <g id="text_19">
      <text style="font-size: 11px; font-family: 'IBM Plex Sans'; text-anchor: start; fill: #4d4d4d" x="26.64" y="438.17626" transform="rotate(-0 26.64 438.17626)">3,000</text>
     </g>
    </g>
    <g id="ytick_14">
     <g id="line2d_53">
      <path d="M 58.232344 360.068697  L 734.88 360.068697  " clip-path="url(#pc691719211)" style="fill: none; stroke: #e5e5e5; stroke-linecap: square"/>
     </g>
     <g id="text_20">
      <text style="font-size: 11px; font-family: 'IBM Plex Sans'; text-anchor: start; fill: #4d4d4d" x="26.64" y="364.138697" transform="rotate(-0 26.64 364.138697)">4,000</text>
     </g>
    </g>
    <g id="ytick_15">
     <g id="line2d_54">
      <path d="M 58.232344 619.200166  L 734.88 619.200166  " clip-path="url(#pc691719211)" style="fill: none; stroke: #fafafa; stroke-width: 0.5; stroke-linecap: square"/>
     </g>
    </g>
    <g id="ytick_16">
     <g id="line2d_55">
      <path d="M 58.232344 545.162604  L 734.88 545.162604  " clip-path="url(#pc691719211)" style="fill: none; stroke: #fafafa; stroke-width: 0.5; stroke-linecap: square"/>
     </g>
    </g>
    <g id="ytick_17">
     <g id="line2d_56">
      <path d="M 58.232344 471.125041  L 734.88 471.125041  " clip-path="url(#pc691719211)" style="fill: none; stroke: #fafafa; stroke-width: 0.5; stroke-linecap: square"/>
     </g>
    </g>
    <g id="ytick_18">
     <g id="line2d_57">
      <path d="M 58.232344 397.087478  L 734.88 397.087478  " clip-path="url(#pc691719211)" style="fill: none; stroke: #fafafa; stroke-width: 0.5; stroke-linecap: square"/>
     </g>
    </g>
   </g>
   <g id="FillBetweenPolyCollection_9">
    <path d="M 58.232344 488.820018  L 58.232344 488.820018  L 80.787266 489.241107  L 103.342187 489.333015  L 125.897109 489.458774  L 148.452031 489.518814  L 171.006953 489.553612  L 193.561875 489.694134  L 216.116797 489.932876  L 238.671719 490.141477  L 261.226641 490.172009  L 283.781563 490.232225  L 306.336484 490.055438  L 328.891406 489.880199  L 351.446328 489.675425  L 374.00125 489.450514  L 396.556172 489.106914  L 419.111094 488.68431  L 441.666016 487.536907  L 464.220937 486.397213  L 486.775859 485.066704  L 509.330781 483.674034  L 531.885703 482.086054  L 554.440625 480.504092  L 576.995547 479.055032  L 599.550469 477.809208  L 622.105391 476.855639  L 644.660312 476.054033  L 667.215234 475.388497  L 689.770156 474.914689  L 712.325078 474.487005  L 734.88 474.136844  L 734.88 472.531755  L 734.88 472.531755  L 712.325078 472.901942  L 689.770156 473.346168  L 667.215234 473.864431  L 644.660312 474.604806  L 622.105391 475.493257  L 599.550469 476.529783  L 576.995547 477.936497  L 554.440625 479.565323  L 531.885703 481.342225  L 509.330781 483.119126  L 486.775859 484.673915  L 464.220937 486.154666  L 441.666016 487.413305  L 419.111094 488.671943  L 396.556172 489.178895  L 374.00125 489.604473  L 351.446328 489.884608  L 328.891406 490.141328  L 306.336484 490.344579  L 283.781563 490.563484  L 261.226641 490.481035  L 238.671719 490.429214  L 216.116797 490.19675  L 193.561875 489.909669  L 171.006953 489.740119  L 148.452031 489.674102  L 125.897109 489.578541  L 103.342187 489.418515  L 80.787266 489.30589  L 58.232344 488.820018  z " clip-path="url(#pc691719211)" style="fill: #ffc729; fill-opacity: 0.219608"/>
   </g>
   <g id="line2d_58">
    <path d="M 58.232344 488.820018  L 80.787266 489.241107  L 103.342187 489.333015  L 125.897109 489.458774  L 148.452031 489.518814  L 171.006953 489.553612  L 193.561875 489.694134  L 216.116797 489.932876  L 238.671719 490.141477  L 261.226641 490.172009  L 283.781563 490.232225  L 306.336484 490.055438  L 328.891406 489.880199  L 351.446328 489.675425  L 374.00125 489.450514  L 396.556172 489.106914  L 419.111094 488.68431  L 441.666016 487.536907  L 464.220937 486.397213  L 486.775859 485.066704  L 509.330781 483.674034  L 531.885703 482.086054  L 554.440625 480.504092  L 576.995547 479.055032  L 599.550469 477.809208  L 622.105391 476.855639  L 644.660312 476.054033  L 667.215234 475.388497  L 689.770156 474.914689  L 712.325078 474.487005  L 734.88 474.136844  " clip-path="url(#pc691719211)" style="fill: none; stroke: #000000; stroke-opacity: 0; stroke-width: 0.886227; stroke-linejoin: miter"/>
   </g>
   <g id="line2d_59">
    <path d="M 58.232344 488.820018  L 80.787266 489.30589  L 103.342187 489.418515  L 125.897109 489.578541  L 148.452031 489.674102  L 171.006953 489.740119  L 193.561875 489.909669  L 216.116797 490.19675  L 238.671719 490.429214  L 261.226641 490.481035  L 283.781563 490.563484  L 306.336484 490.344579  L 328.891406 490.141328  L 351.446328 489.884608  L 374.00125 489.604473  L 396.556172 489.178895  L 419.111094 488.671943  L 441.666016 487.413305  L 464.220937 486.154666  L 486.775859 484.673915  L 509.330781 483.119126  L 531.885703 481.342225  L 554.440625 479.565323  L 576.995547 477.936497  L 599.550469 476.529783  L 622.105391 475.493257  L 644.660312 474.604806  L 667.215234 473.864431  L 689.770156 473.346168  L 712.325078 472.901942  L 734.88 472.531755  " clip-path="url(#pc691719211)" style="fill: none; stroke: #000000; stroke-opacity: 0; stroke-width: 0.886227; stroke-linejoin: miter"/>
   </g>
   <g id="FillBetweenPolyCollection_10">
    <path d="M 58.232344 488.820018  L 58.232344 488.820018  L 80.787266 488.820018  L 103.342187 488.820018  L 125.897109 488.820018  L 148.452031 488.820018  L 171.006953 488.820018  L 193.561875 488.820018  L 216.116797 488.820018  L 238.671719 488.820018  L 261.226641 488.820018  L 283.781563 488.820018  L 306.336484 488.820018  L 328.891406 488.820018  L 351.446328 488.820018  L 374.00125 488.820018  L 396.556172 488.820018  L 419.111094 488.731987  L 441.666016 488.02396  L 464.220937 487.359405  L 486.775859 486.582313  L 509.330781 485.851785  L 531.885703 485.081122  L 554.440625 484.282636  L 576.995547 483.635698  L 599.550469 483.023835  L 622.105391 482.551012  L 644.660312 482.149312  L 667.215234 481.715018  L 689.770156 481.355638  L 712.325078 481.040846  L 734.88 480.749359  L 734.88 474.136844  L 734.88 474.136844  L 712.325078 474.487005  L 689.770156 474.914689  L 667.215234 475.388497  L 644.660312 476.054033  L 622.105391 476.855639  L 599.550469 477.809208  L 576.995547 479.055032  L 554.440625 480.504092  L 531.885703 482.086054  L 509.330781 483.674034  L 486.775859 485.066704  L 464.220937 486.397213  L 441.666016 487.536907  L 419.111094 488.68431  L 396.556172 489.106914  L 374.00125 489.450514  L 351.446328 489.675425  L 328.891406 489.880199  L 306.336484 490.055438  L 283.781563 490.232225  L 261.226641 490.172009  L 238.671719 490.141477  L 216.116797 489.932876  L 193.561875 489.694134  L 171.006953 489.553612  L 148.452031 489.518814  L 125.897109 489.458774  L 103.342187 489.333015  L 80.787266 489.241107  L 58.232344 488.820018  z " clip-path="url(#pc691719211)" style="fill: #fc9706; fill-opacity: 0.219608"/>
   </g>
   <g id="line2d_60">
    <path d="M 58.232344 488.820018  L 80.787266 488.820018  L 103.342187 488.820018  L 125.897109 488.820018  L 148.452031 488.820018  L 171.006953 488.820018  L 193.561875 488.820018  L 216.116797 488.820018  L 238.671719 488.820018  L 261.226641 488.820018  L 283.781563 488.820018  L 306.336484 488.820018  L 328.891406 488.820018  L 351.446328 488.820018  L 374.00125 488.820018  L 396.556172 488.820018  L 419.111094 488.731987  L 441.666016 488.02396  L 464.220937 487.359405  L 486.775859 486.582313  L 509.330781 485.851785  L 531.885703 485.081122  L 554.440625 484.282636  L 576.995547 483.635698  L 599.550469 483.023835  L 622.105391 482.551012  L 644.660312 482.149312  L 667.215234 481.715018  L 689.770156 481.355638  L 712.325078 481.040846  L 734.88 480.749359  " clip-path="url(#pc691719211)" style="fill: none; stroke: #000000; stroke-opacity: 0; stroke-width: 0.886227; stroke-linejoin: miter"/>
   </g>
   <g id="line2d_61">
    <path d="M 58.232344 488.820018  L 80.787266 489.241107  L 103.342187 489.333015  L 125.897109 489.458774  L 148.452031 489.518814  L 171.006953 489.553612  L 193.561875 489.694134  L 216.116797 489.932876  L 238.671719 490.141477  L 261.226641 490.172009  L 283.781563 490.232225  L 306.336484 490.055438  L 328.891406 489.880199  L 351.446328 489.675425  L 374.00125 489.450514  L 396.556172 489.106914  L 419.111094 488.68431  L 441.666016 487.536907  L 464.220937 486.397213  L 486.775859 485.066704  L 509.330781 483.674034  L 531.885703 482.086054  L 554.440625 480.504092  L 576.995547 479.055032  L 599.550469 477.809208  L 622.105391 476.855639  L 644.660312 476.054033  L 667.215234 475.388497  L 689.770156 474.914689  L 712.325078 474.487005  L 734.88 474.136844  " clip-path="url(#pc691719211)" style="fill: none; stroke: #000000; stroke-opacity: 0; stroke-width: 0.886227; stroke-linejoin: miter"/>
   </g>
   <g id="FillBetweenPolyCollection_11">
    <path d="M 58.232344 488.820018  L 58.232344 488.820018  L 80.787266 488.820018  L 103.342187 488.820018  L 125.897109 488.820018  L 148.452031 488.820018  L 171.006953 488.820018  L 193.561875 488.820018  L 216.116797 488.820018  L 238.671719 488.820018  L 261.226641 488.820018  L 283.781563 488.820018  L 306.336484 488.820018  L 328.891406 488.820018  L 351.446328 488.820018  L 374.00125 488.820018  L 396.556172 488.820018  L 419.111094 488.820018  L 441.666016 488.820018  L 464.220937 488.820018  L 486.775859 488.820018  L 509.330781 488.820018  L 531.885703 488.820018  L 554.440625 488.820018  L 576.995547 488.820018  L 599.550469 488.820018  L 622.105391 488.820018  L 644.660312 488.820018  L 667.215234 488.820018  L 689.770156 488.820018  L 712.325078 488.820018  L 734.88 488.820018  L 734.88 480.749359  L 734.88 480.749359  L 712.325078 481.040846  L 689.770156 481.355638  L 667.215234 481.715018  L 644.660312 482.149312  L 622.105391 482.551012  L 599.550469 483.023835  L 576.995547 483.635698  L 554.440625 484.282636  L 531.885703 485.081122  L 509.330781 485.851785  L 486.775859 486.582313  L 464.220937 487.359405  L 441.666016 488.02396  L 419.111094 488.731987  L 396.556172 488.820018  L 374.00125 488.820018  L 351.446328 488.820018  L 328.891406 488.820018  L 306.336484 488.820018  L 283.781563 488.820018  L 261.226641 488.820018  L 238.671719 488.820018  L 216.116797 488.820018  L 193.561875 488.820018  L 171.006953 488.820018  L 148.452031 488.820018  L 125.897109 488.820018  L 103.342187 488.820018  L 80.787266 488.820018  L 58.232344 488.820018  z " clip-path="url(#pc691719211)" style="fill: #999999; fill-opacity: 0.219608"/>
   </g>
   <g id="line2d_62">
    <path d="M 58.232344 488.820018  L 80.787266 488.820018  L 103.342187 488.820018  L 125.897109 488.820018  L 148.452031 488.820018  L 171.006953 488.820018  L 193.561875 488.820018  L 216.116797 488.820018  L 238.671719 488.820018  L 261.226641 488.820018  L 283.781563 488.820018  L 306.336484 488.820018  L 328.891406 488.820018  L 351.446328 488.820018  L 374.00125 488.820018  L 396.556172 488.820018  L 419.111094 488.820018  L 441.666016 488.820018  L 464.220937 488.820018  L 486.775859 488.820018  L 509.330781 488.820018  L 531.885703 488.820018  L 554.440625 488.820018  L 576.995547 488.820018  L 599.550469 488.820018  L 622.105391 488.820018  L 644.660312 488.820018  L 667.215234 488.820018  L 689.770156 488.820018  L 712.325078 488.820018  L 734.88 488.820018  " clip-path="url(#pc691719211)" style="fill: none; stroke: #000000; stroke-opacity: 0; stroke-width: 0.886227; stroke-linejoin: miter"/>
   </g>
   <g id="line2d_63">
    <path d="M 58.232344 488.820018  L 80.787266 488.820018  L 103.342187 488.820018  L 125.897109 488.820018  L 148.452031 488.820018  L 171.006953 488.820018  L 193.561875 488.820018  L 216.116797 488.820018  L 238.671719 488.820018  L 261.226641 488.820018  L 283.781563 488.820018  L 306.336484 488.820018  L 328.891406 488.820018  L 351.446328 488.820018  L 374.00125 488.820018  L 396.556172 488.820018  L 419.111094 488.731987  L 441.666016 488.02396  L 464.220937 487.359405  L 486.775859 486.582313  L 509.330781 485.851785  L 531.885703 485.081122  L 554.440625 484.282636  L 576.995547 483.635698  L 599.550469 483.023835  L 622.105391 482.551012  L 644.660312 482.149312  L 667.215234 481.715018  L 689.770156 481.355638  L 712.325078 481.040846  L 734.88 480.749359  " clip-path="url(#pc691719211)" style="fill: none; stroke: #000000; stroke-opacity: 0; stroke-width: 0.886227; stroke-linejoin: miter"/>
   </g>
   <g id="FillBetweenPolyCollection_12">
    <path d="M 58.232344 488.820018  L 58.232344 656.218947  L 80.787266 656.218947  L 103.342187 656.218947  L 125.897109 656.218947  L 148.452031 656.218947  L 171.006953 656.218947  L 193.561875 656.218947  L 216.116797 656.218947  L 238.671719 656.218947  L 261.226641 656.218947  L 283.781563 656.218947  L 306.336484 656.218947  L 328.891406 656.218947  L 351.446328 656.218947  L 374.00125 656.218947  L 396.556172 656.218947  L 419.111094 656.218947  L 441.666016 656.218947  L 464.220937 656.218947  L 486.775859 656.218947  L 509.330781 656.218947  L 531.885703 656.218947  L 554.440625 656.218947  L 576.995547 656.218947  L 599.550469 656.218947  L 622.105391 656.218947  L 644.660312 656.218947  L 667.215234 656.218947  L 689.770156 656.218947  L 712.325078 656.218947  L 734.88 656.218947  L 734.88 488.820018  L 734.88 488.820018  L 712.325078 488.820018  L 689.770156 488.820018  L 667.215234 488.820018  L 644.660312 488.820018  L 622.105391 488.820018  L 599.550469 488.820018  L 576.995547 488.820018  L 554.440625 488.820018  L 531.885703 488.820018  L 509.330781 488.820018  L 486.775859 488.820018  L 464.220937 488.820018  L 441.666016 488.820018  L 419.111094 488.820018  L 396.556172 488.820018  L 374.00125 488.820018  L 351.446328 488.820018  L 328.891406 488.820018  L 306.336484 488.820018  L 283.781563 488.820018  L 261.226641 488.820018  L 238.671719 488.820018  L 216.116797 488.820018  L 193.561875 488.820018  L 171.006953 488.820018  L 148.452031 488.820018  L 125.897109 488.820018  L 103.342187 488.820018  L 80.787266 488.820018  L 58.232344 488.820018  z " clip-path="url(#pc691719211)" style="fill: #e0e0e0; fill-opacity: 0.219608"/>
   </g>
   <g id="line2d_64">
    <path d="M 58.232344 656.218947  L 80.787266 656.218947  L 103.342187 656.218947  L 125.897109 656.218947  L 148.452031 656.218947  L 171.006953 656.218947  L 193.561875 656.218947  L 216.116797 656.218947  L 238.671719 656.218947  L 261.226641 656.218947  L 283.781563 656.218947  L 306.336484 656.218947  L 328.891406 656.218947  L 351.446328 656.218947  L 374.00125 656.218947  L 396.556172 656.218947  L 419.111094 656.218947  L 441.666016 656.218947  L 464.220937 656.218947  L 486.775859 656.218947  L 509.330781 656.218947  L 531.885703 656.218947  L 554.440625 656.218947  L 576.995547 656.218947  L 599.550469 656.218947  L 622.105391 656.218947  L 644.660312 656.218947  L 667.215234 656.218947  L 689.770156 656.218947  L 712.325078 656.218947  L 734.88 656.218947  " clip-path="url(#pc691719211)" style="fill: none; stroke: #000000; stroke-opacity: 0; stroke-width: 0.886227; stroke-linejoin: miter"/>
   </g>
   <g id="line2d_65">
    <path d="M 58.232344 488.820018  L 80.787266 488.820018  L 103.342187 488.820018  L 125.897109 488.820018  L 148.452031 488.820018  L 171.006953 488.820018  L 193.561875 488.820018  L 216.116797 488.820018  L 238.671719 488.820018  L 261.226641 488.820018  L 283.781563 488.820018  L 306.336484 488.820018  L 328.891406 488.820018  L 351.446328 488.820018  L 374.00125 488.820018  L 396.556172 488.820018  L 419.111094 488.820018  L 441.666016 488.820018  L 464.220937 488.820018  L 486.775859 488.820018  L 509.330781 488.820018  L 531.885703 488.820018  L 554.440625 488.820018  L 576.995547 488.820018  L 599.550469 488.820018  L 622.105391 488.820018  L 644.660312 488.820018  L 667.215234 488.820018  L 689.770156 488.820018  L 712.325078 488.820018  L 734.88 488.820018  " clip-path="url(#pc691719211)" style="fill: none; stroke: #000000; stroke-opacity: 0; stroke-width: 0.886227; stroke-linejoin: miter"/>
   </g>
   <g id="FillBetweenPolyCollection_13">
    <path d="M 58.232344 540.350162  L 58.232344 540.350162  L 80.787266 540.406572  L 103.342187 540.294634  L 125.897109 539.590043  L 148.452031 539.35502  L 171.006953 538.48058  L 193.561875 538.218439  L 216.116797 536.908299  L 238.671719 535.450221  L 261.226641 534.162864  L 283.781563 532.622346  L 306.336484 529.780944  L 328.891406 526.989317  L 351.446328 525.048952  L 374.00125 522.556109  L 396.556172 520.217144  L 419.111094 517.725396  L 441.666016 515.428444  L 464.220937 511.852681  L 486.775859 508.109606  L 509.330781 504.386528  L 531.885703 499.428215  L 554.440625 495.155486  L 576.995547 492.034145  L 599.550469 489.256989  L 622.105391 486.461464  L 644.660312 484.711155  L 667.215234 481.179089  L 689.770156 479.724657  L 712.325078 479.685222  L 734.88 478.867072  L 734.88 407.526775  L 734.88 407.526775  L 712.325078 410.118089  L 689.770156 412.413254  L 667.215234 416.633395  L 644.660312 423.592926  L 622.105391 428.553443  L 599.550469 435.068748  L 576.995547 440.399453  L 554.440625 447.358983  L 531.885703 454.910815  L 509.330781 464.757811  L 486.775859 471.939454  L 464.220937 480.083586  L 441.666016 487.783493  L 419.111094 493.706498  L 396.556172 499.70354  L 374.00125 505.626545  L 351.446328 511.031287  L 328.891406 515.473541  L 306.336484 521.470584  L 283.781563 527.171476  L 261.226641 530.132978  L 238.671719 532.650255  L 216.116797 535.24157  L 193.561875 537.240584  L 171.006953 537.68481  L 148.452031 538.943448  L 125.897109 539.313636  L 103.342187 540.276124  L 80.787266 540.432426  L 58.232344 540.350162  z " clip-path="url(#pc691719211)" style="fill: #ffc729"/>
   </g>
   <g id="line2d_66">
    <path d="M 58.232344 540.350162  L 80.787266 540.406572  L 103.342187 540.294634  L 125.897109 539.590043  L 148.452031 539.35502  L 171.006953 538.48058  L 193.561875 538.218439  L 216.116797 536.908299  L 238.671719 535.450221  L 261.226641 534.162864  L 283.781563 532.622346  L 306.336484 529.780944  L 328.891406 526.989317  L 351.446328 525.048952  L 374.00125 522.556109  L 396.556172 520.217144  L 419.111094 517.725396  L 441.666016 515.428444  L 464.220937 511.852681  L 486.775859 508.109606  L 509.330781 504.386528  L 531.885703 499.428215  L 554.440625 495.155486  L 576.995547 492.034145  L 599.550469 489.256989  L 622.105391 486.461464  L 644.660312 484.711155  L 667.215234 481.179089  L 689.770156 479.724657  L 712.325078 479.685222  L 734.88 478.867072  " clip-path="url(#pc691719211)" style="fill: none; stroke: #000000; stroke-opacity: 0; stroke-width: 0.886227; stroke-linejoin: miter"/>
   </g>
   <g id="line2d_67">
    <path d="M 58.232344 540.350162  L 80.787266 540.432426  L 103.342187 540.276124  L 125.897109 539.313636  L 148.452031 538.943448  L 171.006953 537.68481  L 193.561875 537.240584  L 216.116797 535.24157  L 238.671719 532.650255  L 261.226641 530.132978  L 283.781563 527.171476  L 306.336484 521.470584  L 328.891406 515.473541  L 351.446328 511.031287  L 374.00125 505.626545  L 396.556172 499.70354  L 419.111094 493.706498  L 441.666016 487.783493  L 464.220937 480.083586  L 486.775859 471.939454  L 509.330781 464.757811  L 531.885703 454.910815  L 554.440625 447.358983  L 576.995547 440.399453  L 599.550469 435.068748  L 622.105391 428.553443  L 644.660312 423.592926  L 667.215234 416.633395  L 689.770156 412.413254  L 712.325078 410.118089  L 734.88 407.526775  " clip-path="url(#pc691719211)" style="fill: none; stroke: #000000; stroke-opacity: 0; stroke-width: 0.886227; stroke-linejoin: miter"/>
   </g>
   <g id="FillBetweenPolyCollection_14">
    <path d="M 58.232344 540.350162  L 58.232344 540.350162  L 80.787266 540.350162  L 103.342187 540.321211  L 125.897109 539.967445  L 148.452031 539.914019  L 171.006953 539.583154  L 193.561875 539.5581  L 216.116797 539.076402  L 238.671719 538.757681  L 261.226641 538.559102  L 283.781563 538.004218  L 306.336484 537.338353  L 328.891406 536.723647  L 351.446328 536.364416  L 374.00125 536.02772  L 396.556172 535.783126  L 419.111094 535.689779  L 441.666016 535.440088  L 464.220937 534.969218  L 486.775859 534.232494  L 509.330781 533.294876  L 531.885703 532.496933  L 554.440625 532.062865  L 576.995547 532.199884  L 599.550469 532.440546  L 622.105391 532.708487  L 644.660312 533.027929  L 667.215234 531.559892  L 689.770156 531.301579  L 712.325078 531.89808  L 734.88 531.389064  L 734.88 478.867072  L 734.88 478.867072  L 712.325078 479.685222  L 689.770156 479.724657  L 667.215234 481.179089  L 644.660312 484.711155  L 622.105391 486.461464  L 599.550469 489.256989  L 576.995547 492.034145  L 554.440625 495.155486  L 531.885703 499.428215  L 509.330781 504.386528  L 486.775859 508.109606  L 464.220937 511.852681  L 441.666016 515.428444  L 419.111094 517.725396  L 396.556172 520.217144  L 374.00125 522.556109  L 351.446328 525.048952  L 328.891406 526.989317  L 306.336484 529.780944  L 283.781563 532.622346  L 261.226641 534.162864  L 238.671719 535.450221  L 216.116797 536.908299  L 193.561875 538.218439  L 171.006953 538.48058  L 148.452031 539.35502  L 125.897109 539.590043  L 103.342187 540.294634  L 80.787266 540.406572  L 58.232344 540.350162  z " clip-path="url(#pc691719211)" style="fill: #fc9706"/>
   </g>
   <g id="line2d_68">
    <path d="M 58.232344 540.350162  L 80.787266 540.350162  L 103.342187 540.321211  L 125.897109 539.967445  L 148.452031 539.914019  L 171.006953 539.583154  L 193.561875 539.5581  L 216.116797 539.076402  L 238.671719 538.757681  L 261.226641 538.559102  L 283.781563 538.004218  L 306.336484 537.338353  L 328.891406 536.723647  L 351.446328 536.364416  L 374.00125 536.02772  L 396.556172 535.783126  L 419.111094 535.689779  L 441.666016 535.440088  L 464.220937 534.969218  L 486.775859 534.232494  L 509.330781 533.294876  L 531.885703 532.496933  L 554.440625 532.062865  L 576.995547 532.199884  L 599.550469 532.440546  L 622.105391 532.708487  L 644.660312 533.027929  L 667.215234 531.559892  L 689.770156 531.301579  L 712.325078 531.89808  L 734.88 531.389064  " clip-path="url(#pc691719211)" style="fill: none; stroke: #000000; stroke-opacity: 0; stroke-width: 0.886227; stroke-linejoin: miter"/>
   </g>
   <g id="line2d_69">
    <path d="M 58.232344 540.350162  L 80.787266 540.406572  L 103.342187 540.294634  L 125.897109 539.590043  L 148.452031 539.35502  L 171.006953 538.48058  L 193.561875 538.218439  L 216.116797 536.908299  L 238.671719 535.450221  L 261.226641 534.162864  L 283.781563 532.622346  L 306.336484 529.780944  L 328.891406 526.989317  L 351.446328 525.048952  L 374.00125 522.556109  L 396.556172 520.217144  L 419.111094 517.725396  L 441.666016 515.428444  L 464.220937 511.852681  L 486.775859 508.109606  L 509.330781 504.386528  L 531.885703 499.428215  L 554.440625 495.155486  L 576.995547 492.034145  L 599.550469 489.256989  L 622.105391 486.461464  L 644.660312 484.711155  L 667.215234 481.179089  L 689.770156 479.724657  L 712.325078 479.685222  L 734.88 478.867072  " clip-path="url(#pc691719211)" style="fill: none; stroke: #000000; stroke-opacity: 0; stroke-width: 0.886227; stroke-linejoin: miter"/>
   </g>
   <g id="FillBetweenPolyCollection_15">
    <path d="M 58.232344 540.350162  L 58.232344 540.350162  L 80.787266 540.350162  L 103.342187 540.350162  L 125.897109 540.350162  L 148.452031 540.350162  L 171.006953 540.350162  L 193.561875 540.350162  L 216.116797 540.350162  L 238.671719 540.350162  L 261.226641 540.350162  L 283.781563 540.350162  L 306.336484 540.350162  L 328.891406 540.350162  L 351.446328 540.350162  L 374.00125 540.350162  L 396.556172 540.350162  L 419.111094 540.350162  L 441.666016 540.350162  L 464.220937 540.350162  L 486.775859 540.350162  L 509.330781 540.350162  L 531.885703 540.350162  L 554.440625 540.350162  L 576.995547 540.350162  L 599.550469 540.350162  L 622.105391 540.350162  L 644.660312 540.350162  L 667.215234 540.350162  L 689.770156 540.350162  L 712.325078 540.350162  L 734.88 540.350162  L 734.88 531.389064  L 734.88 531.389064  L 712.325078 531.89808  L 689.770156 531.301579  L 667.215234 531.559892  L 644.660312 533.027929  L 622.105391 532.708487  L 599.550469 532.440546  L 576.995547 532.199884  L 554.440625 532.062865  L 531.885703 532.496933  L 509.330781 533.294876  L 486.775859 534.232494  L 464.220937 534.969218  L 441.666016 535.440088  L 419.111094 535.689779  L 396.556172 535.783126  L 374.00125 536.02772  L 351.446328 536.364416  L 328.891406 536.723647  L 306.336484 537.338353  L 283.781563 538.004218  L 261.226641 538.559102  L 238.671719 538.757681  L 216.116797 539.076402  L 193.561875 539.5581  L 171.006953 539.583154  L 148.452031 539.914019  L 125.897109 539.967445  L 103.342187 540.321211  L 80.787266 540.350162  L 58.232344 540.350162  z " clip-path="url(#pc691719211)" style="fill: #999999"/>
   </g>
   <g id="line2d_70">
    <path d="M 58.232344 540.350162  L 80.787266 540.350162  L 103.342187 540.350162  L 125.897109 540.350162  L 148.452031 540.350162  L 171.006953 540.350162  L 193.561875 540.350162  L 216.116797 540.350162  L 238.671719 540.350162  L 261.226641 540.350162  L 283.781563 540.350162  L 306.336484 540.350162  L 328.891406 540.350162  L 351.446328 540.350162  L 374.00125 540.350162  L 396.556172 540.350162  L 419.111094 540.350162  L 441.666016 540.350162  L 464.220937 540.350162  L 486.775859 540.350162  L 509.330781 540.350162  L 531.885703 540.350162  L 554.440625 540.350162  L 576.995547 540.350162  L 599.550469 540.350162  L 622.105391 540.350162  L 644.660312 540.350162  L 667.215234 540.350162  L 689.770156 540.350162  L 712.325078 540.350162  L 734.88 540.350162  " clip-path="url(#pc691719211)" style="fill: none; stroke: #000000; stroke-opacity: 0; stroke-width: 0.886227; stroke-linejoin: miter"/>
   </g>
   <g id="line2d_71">
    <path d="M 58.232344 540.350162  L 80.787266 540.350162  L 103.342187 540.321211  L 125.897109 539.967445  L 148.452031 539.914019  L 171.006953 539.583154  L 193.561875 539.5581  L 216.116797 539.076402  L 238.671719 538.757681  L 261.226641 538.559102  L 283.781563 538.004218  L 306.336484 537.338353  L 328.891406 536.723647  L 351.446328 536.364416  L 374.00125 536.02772  L 396.556172 535.783126  L 419.111094 535.689779  L 441.666016 535.440088  L 464.220937 534.969218  L 486.775859 534.232494  L 509.330781 533.294876  L 531.885703 532.496933  L 554.440625 532.062865  L 576.995547 532.199884  L 599.550469 532.440546  L 622.105391 532.708487  L 644.660312 533.027929  L 667.215234 531.559892  L 689.770156 531.301579  L 712.325078 531.89808  L 734.88 531.389064  " clip-path="url(#pc691719211)" style="fill: none; stroke: #000000; stroke-opacity: 0; stroke-width: 0.886227; stroke-linejoin: miter"/>
   </g>
   <g id="FillBetweenPolyCollection_16">
    <path d="M 58.232344 540.350162  L 58.232344 656.218947  L 80.787266 656.218947  L 103.342187 656.218947  L 125.897109 656.218947  L 148.452031 656.218947  L 171.006953 656.218947  L 193.561875 656.218947  L 216.116797 656.218947  L 238.671719 656.218947  L 261.226641 656.218947  L 283.781563 656.218947  L 306.336484 656.218947  L 328.891406 656.218947  L 351.446328 656.218947  L 374.00125 656.218947  L 396.556172 656.218947  L 419.111094 656.218947  L 441.666016 656.218947  L 464.220937 656.218947  L 486.775859 656.218947  L 509.330781 656.218947  L 531.885703 656.218947  L 554.440625 656.218947  L 576.995547 656.218947  L 599.550469 656.218947  L 622.105391 656.218947  L 644.660312 656.218947  L 667.215234 656.218947  L 689.770156 656.218947  L 712.325078 656.218947  L 734.88 656.218947  L 734.88 540.350162  L 734.88 540.350162  L 712.325078 540.350162  L 689.770156 540.350162  L 667.215234 540.350162  L 644.660312 540.350162  L 622.105391 540.350162  L 599.550469 540.350162  L 576.995547 540.350162  L 554.440625 540.350162  L 531.885703 540.350162  L 509.330781 540.350162  L 486.775859 540.350162  L 464.220937 540.350162  L 441.666016 540.350162  L 419.111094 540.350162  L 396.556172 540.350162  L 374.00125 540.350162  L 351.446328 540.350162  L 328.891406 540.350162  L 306.336484 540.350162  L 283.781563 540.350162  L 261.226641 540.350162  L 238.671719 540.350162  L 216.116797 540.350162  L 193.561875 540.350162  L 171.006953 540.350162  L 148.452031 540.350162  L 125.897109 540.350162  L 103.342187 540.350162  L 80.787266 540.350162  L 58.232344 540.350162  z " clip-path="url(#pc691719211)" style="fill: #e0e0e0"/>
   </g>
   <g id="line2d_72">
    <path d="M 58.232344 656.218947  L 80.787266 656.218947  L 103.342187 656.218947  L 125.897109 656.218947  L 148.452031 656.218947  L 171.006953 656.218947  L 193.561875 656.218947  L 216.116797 656.218947  L 238.671719 656.218947  L 261.226641 656.218947  L 283.781563 656.218947  L 306.336484 656.218947  L 328.891406 656.218947  L 351.446328 656.218947  L 374.00125 656.218947  L 396.556172 656.218947  L 419.111094 656.218947  L 441.666016 656.218947  L 464.220937 656.218947  L 486.775859 656.218947  L 509.330781 656.218947  L 531.885703 656.218947  L 554.440625 656.218947  L 576.995547 656.218947  L 599.550469 656.218947  L 622.105391 656.218947  L 644.660312 656.218947  L 667.215234 656.218947  L 689.770156 656.218947  L 712.325078 656.218947  L 734.88 656.218947  " clip-path="url(#pc691719211)" style="fill: none; stroke: #000000; stroke-opacity: 0; stroke-width: 0.886227; stroke-linejoin: miter"/>
   </g>
   <g id="line2d_73">
    <path d="M 58.232344 540.350162  L 80.787266 540.350162  L 103.342187 540.350162  L 125.897109 540.350162  L 148.452031 540.350162  L 171.006953 540.350162  L 193.561875 540.350162  L 216.116797 540.350162  L 238.671719 540.350162  L 261.226641 540.350162  L 283.781563 540.350162  L 306.336484 540.350162  L 328.891406 540.350162  L 351.446328 540.350162  L 374.00125 540.350162  L 396.556172 540.350162  L 419.111094 540.350162  L 441.666016 540.350162  L 464.220937 540.350162  L 486.775859 540.350162  L 509.330781 540.350162  L 531.885703 540.350162  L 554.440625 540.350162  L 576.995547 540.350162  L 599.550469 540.350162  L 622.105391 540.350162  L 644.660312 540.350162  L 667.215234 540.350162  L 689.770156 540.350162  L 712.325078 540.350162  L 734.88 540.350162  " clip-path="url(#pc691719211)" style="fill: none; stroke: #000000; stroke-opacity: 0; stroke-width: 0.886227; stroke-linejoin: miter"/>
   </g>
   <g id="text_21">
    <text style="font-size: 9px; font-family: 'IBM Plex Sans'; text-anchor: end; fill: #a0af12" x="436.195799" y="373.511697" transform="rotate(-0 436.195799 373.511697)">Crossover</text>
   </g>
   <g id="line2d_74">
    <path d="M 442.962276 656.218947  L 442.962276 358.632368  " clip-path="url(#pc691719211)" style="fill: none; stroke-dasharray: 2.775,1.2; stroke-dashoffset: 0; stroke: #a0af12; stroke-width: 0.75"/>
   </g>
   <g id="line2d_75">
    <path d="M 442.962276 487.340969  L 464.220937 486.154666  L 486.775859 484.673915  L 509.330781 483.119126  L 531.885703 481.342225  L 554.440625 479.565323  L 576.995547 477.936497  L 599.550469 476.529783  L 622.105391 475.493257  L 644.660312 474.604806  L 667.215234 473.864431  L 689.770156 473.346168  L 712.325078 472.901942  L 734.88 472.531755  " clip-path="url(#pc691719211)" style="fill: none; stroke-dasharray: 0.35,1.25; stroke-dashoffset: 0; stroke: #999999"/>
   </g>
   <g id="patch_5">
    <path d="M 58.232344 656.218947  L 734.88 656.218947  " style="fill: none; stroke: #000000; stroke-width: 0.5; stroke-linejoin: miter; stroke-linecap: square"/>
   </g>
  </g>
  <g id="text_22">
   <text style="font-size: 13px; font-family: 'GT Planar'; fill: #333333" transform="translate(16.3 361.590259) rotate(-90)">MW</text>
  </g>
  <g id="text_23">
   <text style="font-weight: 700; font-size: 15px; font-family: 'GT Planar'; text-anchor: start" x="58.74375" y="17.7" transform="rotate(-0 58.74375 17.7)">Central Hudson: </text>
  </g>
  <g id="text_24">
   <text style="font-weight: 700; font-size: 15px; font-family: 'GT Planar'; text-anchor: start; fill: #ffc729" x="177.99375" y="17.7" transform="rotate(-0 177.99375 17.7)">building electrification </text>
  </g>
  <g id="text_25">
   <text style="font-weight: 700; font-size: 15px; font-family: 'GT Planar'; text-anchor: start" x="345.24375" y="17.7" transform="rotate(-0 345.24375 17.7)"> starts causing distribution upgrades only after </text>
  </g>
  <g id="text_26">
   <text style="font-weight: 700; font-size: 15px; font-family: 'GT Planar'; text-anchor: start; fill: #a0af12" x="685.18125" y="17.7" transform="rotate(-0 685.18125 17.7)">2039</text>
  </g>
  <g id="text_27">
   <text style="font-size: 12px; font-family: 'GT Planar'; text-anchor: middle; fill: #333333" x="90.477686" y="37.973789" transform="rotate(-0 90.477686 37.973789)">Baseline</text>
  </g>
  <g id="text_28">
   <text style="font-size: 12px; font-family: 'GT Planar'; text-anchor: middle; fill: #333333" x="107.673311" y="353.680368" transform="rotate(-0 107.673311 353.680368)">Lower demand</text>
  </g>
 </g>
 <defs>
  <clipPath id="p4a77e9566a">
   <rect x="58.232344" y="42.925789" width="676.647656" height="297.586579"/>
  </clipPath>
  <clipPath id="pc691719211">
   <rect x="58.232344" y="358.632368" width="676.647656" height="297.586579"/>
  </clipPath>
 </defs>
</svg>
