<?xml version="1.0" encoding="utf-8" standalone="no"?>
<!DOCTYPE svg PUBLIC "-//W3C//DTD SVG 1.1//EN"
  "http://www.w3.org/Graphics/SVG/1.1/DTD/svg11.dtd">
<svg xmlns:xlink="http://www.w3.org/1999/xlink" width="756pt" height="396pt" viewBox="0 0 756 396" xmlns="http://www.w3.org/2000/svg" version="1.1">
 <metadata>
  <rdf:RDF xmlns:dc="http://purl.org/dc/elements/1.1/" xmlns:cc="http://creativecommons.org/ns#" xmlns:rdf="http://www.w3.org/1999/02/22-rdf-syntax-ns#">
   <cc:Work>
    <dc:type rdf:resource="http://purl.org/dc/dcmitype/StillImage"/>
    <dc:date>2026-04-11T12:05:43.719058</dc:date>
    <dc:format>image/svg+xml</dc:format>
    <dc:creator>
     <cc:Agent>
      <dc:title>Matplotlib v3.10.8, https://matplotlib.org/</dc:title>
     </cc:Agent>
    </dc:creator>
   </cc:Work>
  </rdf:RDF>
 </metadata>
 <defs>
  <style type="text/css">*{stroke-linejoin: round; stroke-linecap: butt}</style>
 </defs>
 <g id="figure_1">
  <g id="patch_1">
   <path d="M 0 396
L 756 396
L 756 0
L 0 0
z
" style="fill: #ffffff"/>
  </g>
  <g id="axes_1">
   <g id="patch_2">
    <path d="M 59.815156 346.437273
L 591.934687 346.437273
L 591.934687 55.27179
L 59.815156 55.27179
z
" style="fill: #ffffff"/>
   </g>
   <g id="matplotlib.axis_1">
    <g id="xtick_1">
     <g id="line2d_1">
      <path d="M 68.397729 346.437273
" style="fill: none; stroke: #000000; stroke-width: 1.5; stroke-linecap: square"/>
      <defs>
       <path id="m782e66e5d6" d="M 0 0
L 0 2.75
" style="stroke: #000000"/>
      </defs>
      <g>
       <use xlink:href="#m782e66e5d6" x="68.397729" y="346.437273" style="stroke: #000000"/>
      </g>
     </g>
     <g id="text_1">
      <text style="font-size: 11px; font-family: 'IBM Plex Sans'; text-anchor: middle; fill: #4d4d4d" x="68.397729" y="359.527273" transform="rotate(-0 68.397729 359.527273)">2025</text>
     </g>
    </g>
    <g id="xtick_2">
     <g id="line2d_2">
      <path d="M 154.22346 346.437273
" style="fill: none; stroke: #000000; stroke-width: 1.5; stroke-linecap: square"/>
      <g>
       <use xlink:href="#m782e66e5d6" x="154.22346" y="346.437273" style="stroke: #000000"/>
      </g>
     </g>
     <g id="text_2">
      <text style="font-size: 11px; font-family: 'IBM Plex Sans'; text-anchor: middle; fill: #4d4d4d" x="154.22346" y="359.527273" transform="rotate(-0 154.22346 359.527273)">2030</text>
     </g>
    </g>
    <g id="xtick_3">
     <g id="line2d_3">
      <path d="M 240.049191 346.437273
" style="fill: none; stroke: #000000; stroke-width: 1.5; stroke-linecap: square"/>
      <g>
       <use xlink:href="#m782e66e5d6" x="240.049191" y="346.437273" style="stroke: #000000"/>
      </g>
     </g>
     <g id="text_3">
      <text style="font-size: 11px; font-family: 'IBM Plex Sans'; text-anchor: middle; fill: #4d4d4d" x="240.049191" y="359.527273" transform="rotate(-0 240.049191 359.527273)">2035</text>
     </g>
    </g>
    <g id="xtick_4">
     <g id="line2d_4">
      <path d="M 325.874922 346.437273
" style="fill: none; stroke: #000000; stroke-width: 1.5; stroke-linecap: square"/>
      <g>
       <use xlink:href="#m782e66e5d6" x="325.874922" y="346.437273" style="stroke: #000000"/>
      </g>
     </g>
     <g id="text_4">
      <text style="font-size: 11px; font-family: 'IBM Plex Sans'; text-anchor: middle; fill: #4d4d4d" x="325.874922" y="359.527273" transform="rotate(-0 325.874922 359.527273)">2040</text>
     </g>
    </g>
    <g id="xtick_5">
     <g id="line2d_5">
      <path d="M 411.700653 346.437273
" style="fill: none; stroke: #000000; stroke-width: 1.5; stroke-linecap: square"/>
      <g>
       <use xlink:href="#m782e66e5d6" x="411.700653" y="346.437273" style="stroke: #000000"/>
      </g>
     </g>
     <g id="text_5">
      <text style="font-size: 11px; font-family: 'IBM Plex Sans'; text-anchor: middle; fill: #4d4d4d" x="411.700653" y="359.527273" transform="rotate(-0 411.700653 359.527273)">2045</text>
     </g>
    </g>
    <g id="xtick_6">
     <g id="line2d_6">
      <path d="M 497.526384 346.437273
" style="fill: none; stroke: #000000; stroke-width: 1.5; stroke-linecap: square"/>
      <g>
       <use xlink:href="#m782e66e5d6" x="497.526384" y="346.437273" style="stroke: #000000"/>
      </g>
     </g>
     <g id="text_6">
      <text style="font-size: 11px; font-family: 'IBM Plex Sans'; text-anchor: middle; fill: #4d4d4d" x="497.526384" y="359.527273" transform="rotate(-0 497.526384 359.527273)">2050</text>
     </g>
    </g>
    <g id="xtick_7">
     <g id="line2d_7">
      <path d="M 583.352114 346.437273
" style="fill: none; stroke: #000000; stroke-width: 1.5; stroke-linecap: square"/>
      <g>
       <use xlink:href="#m782e66e5d6" x="583.352114" y="346.437273" style="stroke: #000000"/>
      </g>
     </g>
     <g id="text_7">
      <text style="font-size: 11px; font-family: 'IBM Plex Sans'; text-anchor: middle; fill: #4d4d4d" x="583.352114" y="359.527273" transform="rotate(-0 583.352114 359.527273)">2055</text>
     </g>
    </g>
    <g id="xtick_8">
     <g id="line2d_8">
      <path d="M 111.310595 346.437273
" style="fill: none; stroke: #000000; stroke-width: 1.5; stroke-linecap: square"/>
      <defs>
       <path id="mdb403449f6" d="M 0 0
L 0 1.375
" style="stroke: #000000"/>
      </defs>
      <g>
       <use xlink:href="#mdb403449f6" x="111.310595" y="346.437273" style="stroke: #000000"/>
      </g>
     </g>
    </g>
    <g id="xtick_9">
     <g id="line2d_9">
      <path d="M 197.136326 346.437273
" style="fill: none; stroke: #000000; stroke-width: 1.5; stroke-linecap: square"/>
      <g>
       <use xlink:href="#mdb403449f6" x="197.136326" y="346.437273" style="stroke: #000000"/>
      </g>
     </g>
    </g>
    <g id="xtick_10">
     <g id="line2d_10">
      <path d="M 282.962056 346.437273
" style="fill: none; stroke: #000000; stroke-width: 1.5; stroke-linecap: square"/>
      <g>
       <use xlink:href="#mdb403449f6" x="282.962056" y="346.437273" style="stroke: #000000"/>
      </g>
     </g>
    </g>
    <g id="xtick_11">
     <g id="line2d_11">
      <path d="M 368.787787 346.437273
" style="fill: none; stroke: #000000; stroke-width: 1.5; stroke-linecap: square"/>
      <g>
       <use xlink:href="#mdb403449f6" x="368.787787" y="346.437273" style="stroke: #000000"/>
      </g>
     </g>
    </g>
    <g id="xtick_12">
     <g id="line2d_12">
      <path d="M 454.613518 346.437273
" style="fill: none; stroke: #000000; stroke-width: 1.5; stroke-linecap: square"/>
      <g>
       <use xlink:href="#mdb403449f6" x="454.613518" y="346.437273" style="stroke: #000000"/>
      </g>
     </g>
    </g>
    <g id="xtick_13">
     <g id="line2d_13">
      <path d="M 540.439249 346.437273
" style="fill: none; stroke: #000000; stroke-width: 1.5; stroke-linecap: square"/>
      <g>
       <use xlink:href="#mdb403449f6" x="540.439249" y="346.437273" style="stroke: #000000"/>
      </g>
     </g>
    </g>
   </g>
   <g id="matplotlib.axis_2">
    <g id="ytick_1">
     <g id="line2d_14">
      <path d="M 59.815156 333.202478
L 591.934687 333.202478
" clip-path="url(#pdd8f98060c)" style="fill: none; stroke: #e5e5e5; stroke-linecap: square"/>
     </g>
    </g>
    <g id="ytick_2">
     <g id="line2d_15">
      <path d="M 59.815156 243.77819
L 591.934687 243.77819
" clip-path="url(#pdd8f98060c)" style="fill: none; stroke: #e5e5e5; stroke-linecap: square"/>
     </g>
     <g id="text_8">
      <text style="font-size: 11px; font-family: 'IBM Plex Sans'; text-anchor: start; fill: #4d4d4d" x="37.815156" y="247.84819" transform="rotate(-0 37.815156 247.84819)">500</text>
     </g>
    </g>
    <g id="ytick_3">
     <g id="line2d_16">
      <path d="M 59.815156 154.353901
L 591.934687 154.353901
" clip-path="url(#pdd8f98060c)" style="fill: none; stroke: #e5e5e5; stroke-linecap: square"/>
     </g>
     <g id="text_9">
      <text style="font-size: 11px; font-family: 'IBM Plex Sans'; text-anchor: start; fill: #4d4d4d" x="28.222812" y="158.423901" transform="rotate(-0 28.222812 158.423901)">1,000</text>
     </g>
    </g>
    <g id="ytick_4">
     <g id="line2d_17">
      <path d="M 59.815156 64.929613
L 591.934687 64.929613
" clip-path="url(#pdd8f98060c)" style="fill: none; stroke: #e5e5e5; stroke-linecap: square"/>
     </g>
     <g id="text_10">
      <text style="font-size: 11px; font-family: 'IBM Plex Sans'; text-anchor: start; fill: #4d4d4d" x="28.222812" y="68.999613" transform="rotate(-0 28.222812 68.999613)">1,500</text>
     </g>
    </g>
    <g id="ytick_5">
     <g id="line2d_18">
      <path d="M 59.815156 288.490334
L 591.934687 288.490334
" clip-path="url(#pdd8f98060c)" style="fill: none; stroke: #fafafa; stroke-width: 0.5; stroke-linecap: square"/>
     </g>
    </g>
    <g id="ytick_6">
     <g id="line2d_19">
      <path d="M 59.815156 199.066045
L 591.934687 199.066045
" clip-path="url(#pdd8f98060c)" style="fill: none; stroke: #fafafa; stroke-width: 0.5; stroke-linecap: square"/>
     </g>
    </g>
    <g id="ytick_7">
     <g id="line2d_20">
      <path d="M 59.815156 109.641757
L 591.934687 109.641757
" clip-path="url(#pdd8f98060c)" style="fill: none; stroke: #fafafa; stroke-width: 0.5; stroke-linecap: square"/>
     </g>
    </g>
   </g>
   <g id="PolyCollection_1">
    <path d="M 77.83856 333.202478
L 77.83856 275.466785
L 93.287191 275.466785
L 93.287191 333.202478
z
" clip-path="url(#pdd8f98060c)" style="fill: #999999; fill-opacity: 0.85098"/>
    <path d="M 77.83856 275.466785
L 77.83856 249.286105
L 93.287191 249.286105
L 93.287191 275.466785
z
" clip-path="url(#pdd8f98060c)" style="fill: #68bed8; fill-opacity: 0.85098"/>
    <path d="M 77.83856 249.286105
L 77.83856 242.376248
L 93.287191 242.376248
L 93.287191 249.286105
z
" clip-path="url(#pdd8f98060c)" style="fill: #fc9706; fill-opacity: 0.85098"/>
    <path d="M 77.83856 242.376248
L 77.83856 240.380067
L 93.287191 240.380067
L 93.287191 242.376248
z
" clip-path="url(#pdd8f98060c)" style="fill: #ffc729; fill-opacity: 0.85098"/>
    <path d="M 95.003706 333.202478
L 95.003706 301.767462
L 110.452337 301.767462
L 110.452337 333.202478
z
" clip-path="url(#pdd8f98060c)" style="fill: #999999; fill-opacity: 0.85098"/>
    <path d="M 95.003706 301.767462
L 95.003706 286.798943
L 110.452337 286.798943
L 110.452337 301.767462
z
" clip-path="url(#pdd8f98060c)" style="fill: #68bed8; fill-opacity: 0.85098"/>
    <path d="M 95.003706 286.798943
L 95.003706 282.811843
L 110.452337 282.811843
L 110.452337 286.798943
z
" clip-path="url(#pdd8f98060c)" style="fill: #fc9706; fill-opacity: 0.85098"/>
    <path d="M 95.003706 282.811843
L 95.003706 281.336391
L 110.452337 281.336391
L 110.452337 282.811843
z
" clip-path="url(#pdd8f98060c)" style="fill: #ffc729; fill-opacity: 0.85098"/>
    <path d="M 112.168852 333.202478
L 112.168852 319.462066
L 127.617484 319.462066
L 127.617484 333.202478
z
" clip-path="url(#pdd8f98060c)" style="fill: #999999; fill-opacity: 0.85098"/>
    <path d="M 112.168852 319.462066
L 112.168852 312.906526
L 127.617484 312.906526
L 127.617484 319.462066
z
" clip-path="url(#pdd8f98060c)" style="fill: #68bed8; fill-opacity: 0.85098"/>
    <path d="M 112.168852 312.906526
L 112.168852 310.76942
L 127.617484 310.76942
L 127.617484 312.906526
z
" clip-path="url(#pdd8f98060c)" style="fill: #fc9706; fill-opacity: 0.85098"/>
    <path d="M 112.168852 310.76942
L 112.168852 309.952163
L 127.617484 309.952163
L 127.617484 310.76942
z
" clip-path="url(#pdd8f98060c)" style="fill: #ffc729; fill-opacity: 0.85098"/>
    <path d="M 129.333998 333.202478
L 129.333998 311.707098
L 144.78263 311.707098
L 144.78263 333.202478
z
" clip-path="url(#pdd8f98060c)" style="fill: #999999; fill-opacity: 0.85098"/>
    <path d="M 129.333998 311.707098
L 129.333998 301.089196
L 144.78263 301.089196
L 144.78263 311.707098
z
" clip-path="url(#pdd8f98060c)" style="fill: #68bed8; fill-opacity: 0.85098"/>
    <path d="M 129.333998 301.089196
L 129.333998 297.201734
L 144.78263 297.201734
L 144.78263 301.089196
z
" clip-path="url(#pdd8f98060c)" style="fill: #fc9706; fill-opacity: 0.85098"/>
    <path d="M 129.333998 297.201734
L 129.333998 295.644277
L 144.78263 295.644277
L 144.78263 297.201734
z
" clip-path="url(#pdd8f98060c)" style="fill: #ffc729; fill-opacity: 0.85098"/>
    <path d="M 146.499144 333.202478
L 146.499144 305.076317
L 161.947776 305.076317
L 161.947776 333.202478
z
" clip-path="url(#pdd8f98060c)" style="fill: #999999; fill-opacity: 0.85098"/>
    <path d="M 146.499144 305.076317
L 146.499144 289.965666
L 161.947776 289.965666
L 161.947776 305.076317
z
" clip-path="url(#pdd8f98060c)" style="fill: #68bed8; fill-opacity: 0.85098"/>
    <path d="M 146.499144 289.965666
L 146.499144 283.770675
L 161.947776 283.770675
L 161.947776 289.965666
z
" clip-path="url(#pdd8f98060c)" style="fill: #fc9706; fill-opacity: 0.85098"/>
    <path d="M 146.499144 283.770675
L 146.499144 281.336391
L 161.947776 281.336391
L 161.947776 283.770675
z
" clip-path="url(#pdd8f98060c)" style="fill: #ffc729; fill-opacity: 0.85098"/>
    <path d="M 163.664291 333.202478
L 163.664291 306.52801
L 179.112922 306.52801
L 179.112922 333.202478
z
" clip-path="url(#pdd8f98060c)" style="fill: #999999; fill-opacity: 0.85098"/>
    <path d="M 163.664291 306.52801
L 163.664291 292.310786
L 179.112922 292.310786
L 179.112922 306.52801
z
" clip-path="url(#pdd8f98060c)" style="fill: #68bed8; fill-opacity: 0.85098"/>
    <path d="M 163.664291 292.310786
L 163.664291 285.768116
L 179.112922 285.768116
L 179.112922 292.310786
z
" clip-path="url(#pdd8f98060c)" style="fill: #fc9706; fill-opacity: 0.85098"/>
    <path d="M 163.664291 285.768116
L 163.664291 283.124877
L 179.112922 283.124877
L 179.112922 285.768116
z
" clip-path="url(#pdd8f98060c)" style="fill: #ffc729; fill-opacity: 0.85098"/>
    <path d="M 180.829437 333.202478
L 180.829437 302.688626
L 196.278068 302.688626
L 196.278068 333.202478
z
" clip-path="url(#pdd8f98060c)" style="fill: #999999; fill-opacity: 0.85098"/>
    <path d="M 180.829437 302.688626
L 180.829437 286.347415
L 196.278068 286.347415
L 196.278068 302.688626
z
" clip-path="url(#pdd8f98060c)" style="fill: #68bed8; fill-opacity: 0.85098"/>
    <path d="M 180.829437 286.347415
L 180.829437 277.624175
L 196.278068 277.624175
L 196.278068 286.347415
z
" clip-path="url(#pdd8f98060c)" style="fill: #fc9706; fill-opacity: 0.85098"/>
    <path d="M 180.829437 277.624175
L 180.829437 274.182448
L 196.278068 274.182448
L 196.278068 277.624175
z
" clip-path="url(#pdd8f98060c)" style="fill: #ffc729; fill-opacity: 0.85098"/>
    <path d="M 197.994583 333.202478
L 197.994583 301.873356
L 213.443214 301.873356
L 213.443214 333.202478
z
" clip-path="url(#pdd8f98060c)" style="fill: #999999; fill-opacity: 0.85098"/>
    <path d="M 197.994583 301.873356
L 197.994583 284.970328
L 213.443214 284.970328
L 213.443214 301.873356
z
" clip-path="url(#pdd8f98060c)" style="fill: #68bed8; fill-opacity: 0.85098"/>
    <path d="M 197.994583 284.970328
L 197.994583 274.613481
L 213.443214 274.613481
L 213.443214 284.970328
z
" clip-path="url(#pdd8f98060c)" style="fill: #fc9706; fill-opacity: 0.85098"/>
    <path d="M 197.994583 274.613481
L 197.994583 270.605476
L 213.443214 270.605476
L 213.443214 274.613481
z
" clip-path="url(#pdd8f98060c)" style="fill: #ffc729; fill-opacity: 0.85098"/>
    <path d="M 215.159729 333.202478
L 215.159729 307.221512
L 230.608361 307.221512
L 230.608361 333.202478
z
" clip-path="url(#pdd8f98060c)" style="fill: #999999; fill-opacity: 0.85098"/>
    <path d="M 215.159729 307.221512
L 215.159729 293.501349
L 230.608361 293.501349
L 230.608361 307.221512
z
" clip-path="url(#pdd8f98060c)" style="fill: #68bed8; fill-opacity: 0.85098"/>
    <path d="M 215.159729 293.501349
L 215.159729 283.329223
L 230.608361 283.329223
L 230.608361 293.501349
z
" clip-path="url(#pdd8f98060c)" style="fill: #fc9706; fill-opacity: 0.85098"/>
    <path d="M 215.159729 283.329223
L 215.159729 279.547905
L 230.608361 279.547905
L 230.608361 283.329223
z
" clip-path="url(#pdd8f98060c)" style="fill: #ffc729; fill-opacity: 0.85098"/>
    <path d="M 232.324875 333.202478
L 232.324875 305.653104
L 247.773507 305.653104
L 247.773507 333.202478
z
" clip-path="url(#pdd8f98060c)" style="fill: #999999; fill-opacity: 0.85098"/>
    <path d="M 232.324875 305.653104
L 232.324875 291.334569
L 247.773507 291.334569
L 247.773507 305.653104
z
" clip-path="url(#pdd8f98060c)" style="fill: #68bed8; fill-opacity: 0.85098"/>
    <path d="M 232.324875 291.334569
L 232.324875 278.706145
L 247.773507 278.706145
L 247.773507 291.334569
z
" clip-path="url(#pdd8f98060c)" style="fill: #fc9706; fill-opacity: 0.85098"/>
    <path d="M 232.324875 278.706145
L 232.324875 274.182448
L 247.773507 274.182448
L 247.773507 278.706145
z
" clip-path="url(#pdd8f98060c)" style="fill: #ffc729; fill-opacity: 0.85098"/>
    <path d="M 249.490021 333.202478
L 249.490021 304.734663
L 264.938653 304.734663
L 264.938653 333.202478
z
" clip-path="url(#pdd8f98060c)" style="fill: #999999; fill-opacity: 0.85098"/>
    <path d="M 249.490021 304.734663
L 249.490021 290.459127
L 264.938653 290.459127
L 264.938653 304.734663
z
" clip-path="url(#pdd8f98060c)" style="fill: #68bed8; fill-opacity: 0.85098"/>
    <path d="M 249.490021 290.459127
L 249.490021 275.795066
L 264.938653 275.795066
L 264.938653 290.459127
z
" clip-path="url(#pdd8f98060c)" style="fill: #fc9706; fill-opacity: 0.85098"/>
    <path d="M 249.490021 275.795066
L 249.490021 270.605476
L 264.938653 270.605476
L 264.938653 275.795066
z
" clip-path="url(#pdd8f98060c)" style="fill: #ffc729; fill-opacity: 0.85098"/>
    <path d="M 266.655168 333.202478
L 266.655168 307.242372
L 282.103799 307.242372
L 282.103799 333.202478
z
" clip-path="url(#pdd8f98060c)" style="fill: #999999; fill-opacity: 0.85098"/>
    <path d="M 266.655168 307.242372
L 266.655168 294.497331
L 282.103799 294.497331
L 282.103799 307.242372
z
" clip-path="url(#pdd8f98060c)" style="fill: #68bed8; fill-opacity: 0.85098"/>
    <path d="M 266.655168 294.497331
L 266.655168 279.446704
L 282.103799 279.446704
L 282.103799 294.497331
z
" clip-path="url(#pdd8f98060c)" style="fill: #fc9706; fill-opacity: 0.85098"/>
    <path d="M 266.655168 279.446704
L 266.655168 274.182448
L 282.103799 274.182448
L 282.103799 279.446704
z
" clip-path="url(#pdd8f98060c)" style="fill: #ffc729; fill-opacity: 0.85098"/>
    <path d="M 283.820314 333.202478
L 283.820314 307.814131
L 299.268945 307.814131
L 299.268945 333.202478
z
" clip-path="url(#pdd8f98060c)" style="fill: #999999; fill-opacity: 0.85098"/>
    <path d="M 283.820314 307.814131
L 283.820314 295.681896
L 299.268945 295.681896
L 299.268945 307.814131
z
" clip-path="url(#pdd8f98060c)" style="fill: #68bed8; fill-opacity: 0.85098"/>
    <path d="M 283.820314 295.681896
L 283.820314 279.754811
L 299.268945 279.754811
L 299.268945 295.681896
z
" clip-path="url(#pdd8f98060c)" style="fill: #fc9706; fill-opacity: 0.85098"/>
    <path d="M 283.820314 279.754811
L 283.820314 274.182448
L 299.268945 274.182448
L 299.268945 279.754811
z
" clip-path="url(#pdd8f98060c)" style="fill: #ffc729; fill-opacity: 0.85098"/>
    <path d="M 300.98546 333.202478
L 300.98546 327.060993
L 316.434091 327.060993
L 316.434091 333.202478
z
" clip-path="url(#pdd8f98060c)" style="fill: #999999; fill-opacity: 0.85098"/>
    <path d="M 300.98546 327.060993
L 300.98546 306.302146
L 316.434091 306.302146
L 316.434091 327.060993
z
" clip-path="url(#pdd8f98060c)" style="fill: #68bed8; fill-opacity: 0.85098"/>
    <path d="M 300.98546 306.302146
L 300.98546 263.71126
L 316.434091 263.71126
L 316.434091 306.302146
z
" clip-path="url(#pdd8f98060c)" style="fill: #fc9706; fill-opacity: 0.85098"/>
    <path d="M 300.98546 263.71126
L 300.98546 195.489074
L 316.434091 195.489074
L 316.434091 263.71126
z
" clip-path="url(#pdd8f98060c)" style="fill: #ffc729; fill-opacity: 0.85098"/>
    <path d="M 318.150606 333.202478
L 318.150606 322.044145
L 333.599238 322.044145
L 333.599238 333.202478
z
" clip-path="url(#pdd8f98060c)" style="fill: #999999; fill-opacity: 0.85098"/>
    <path d="M 318.150606 322.044145
L 318.150606 285.793238
L 333.599238 285.793238
L 333.599238 322.044145
z
" clip-path="url(#pdd8f98060c)" style="fill: #68bed8; fill-opacity: 0.85098"/>
    <path d="M 318.150606 285.793238
L 318.150606 204.320999
L 333.599238 204.320999
L 333.599238 285.793238
z
" clip-path="url(#pdd8f98060c)" style="fill: #fc9706; fill-opacity: 0.85098"/>
    <path d="M 318.150606 204.320999
L 318.150606 68.506584
L 333.599238 68.506584
L 333.599238 204.320999
z
" clip-path="url(#pdd8f98060c)" style="fill: #ffc729; fill-opacity: 0.85098"/>
    <path d="M 335.315752 333.202478
L 335.315752 323.778189
L 350.764384 323.778189
L 350.764384 333.202478
z
" clip-path="url(#pdd8f98060c)" style="fill: #999999; fill-opacity: 0.85098"/>
    <path d="M 335.315752 323.778189
L 335.315752 293.928979
L 350.764384 293.928979
L 350.764384 323.778189
z
" clip-path="url(#pdd8f98060c)" style="fill: #68bed8; fill-opacity: 0.85098"/>
    <path d="M 335.315752 293.928979
L 335.315752 221.597281
L 350.764384 221.597281
L 350.764384 293.928979
z
" clip-path="url(#pdd8f98060c)" style="fill: #fc9706; fill-opacity: 0.85098"/>
    <path d="M 335.315752 221.597281
L 335.315752 97.122357
L 350.764384 97.122357
L 350.764384 221.597281
z
" clip-path="url(#pdd8f98060c)" style="fill: #ffc729; fill-opacity: 0.85098"/>
    <path d="M 352.480898 333.202478
L 352.480898 324.475223
L 367.92953 324.475223
L 367.92953 333.202478
z
" clip-path="url(#pdd8f98060c)" style="fill: #999999; fill-opacity: 0.85098"/>
    <path d="M 352.480898 324.475223
L 352.480898 297.352182
L 367.92953 297.352182
L 367.92953 324.475223
z
" clip-path="url(#pdd8f98060c)" style="fill: #68bed8; fill-opacity: 0.85098"/>
    <path d="M 352.480898 297.352182
L 352.480898 226.684945
L 367.92953 226.684945
L 367.92953 297.352182
z
" clip-path="url(#pdd8f98060c)" style="fill: #fc9706; fill-opacity: 0.85098"/>
    <path d="M 352.480898 226.684945
L 352.480898 102.487814
L 367.92953 102.487814
L 367.92953 226.684945
z
" clip-path="url(#pdd8f98060c)" style="fill: #ffc729; fill-opacity: 0.85098"/>
    <path d="M 369.646045 333.202478
L 369.646045 324.356316
L 385.094676 324.356316
L 385.094676 333.202478
z
" clip-path="url(#pdd8f98060c)" style="fill: #999999; fill-opacity: 0.85098"/>
    <path d="M 369.646045 324.356316
L 369.646045 298.443414
L 385.094676 298.443414
L 385.094676 324.356316
z
" clip-path="url(#pdd8f98060c)" style="fill: #68bed8; fill-opacity: 0.85098"/>
    <path d="M 369.646045 298.443414
L 369.646045 226.071055
L 385.094676 226.071055
L 385.094676 298.443414
z
" clip-path="url(#pdd8f98060c)" style="fill: #fc9706; fill-opacity: 0.85098"/>
    <path d="M 369.646045 226.071055
L 369.646045 97.122357
L 385.094676 97.122357
L 385.094676 226.071055
z
" clip-path="url(#pdd8f98060c)" style="fill: #ffc729; fill-opacity: 0.85098"/>
    <path d="M 386.811191 333.202478
L 386.811191 325.807824
L 402.259822 325.807824
L 402.259822 333.202478
z
" clip-path="url(#pdd8f98060c)" style="fill: #999999; fill-opacity: 0.85098"/>
    <path d="M 386.811191 325.807824
L 386.811191 304.499969
L 402.259822 304.499969
L 402.259822 325.807824
z
" clip-path="url(#pdd8f98060c)" style="fill: #68bed8; fill-opacity: 0.85098"/>
    <path d="M 386.811191 304.499969
L 386.811191 241.934768
L 402.259822 241.934768
L 402.259822 304.499969
z
" clip-path="url(#pdd8f98060c)" style="fill: #fc9706; fill-opacity: 0.85098"/>
    <path d="M 386.811191 241.934768
L 386.811191 127.526615
L 402.259822 127.526615
L 402.259822 241.934768
z
" clip-path="url(#pdd8f98060c)" style="fill: #ffc729; fill-opacity: 0.85098"/>
    <path d="M 403.976337 333.202478
L 403.976337 326.386676
L 419.424968 326.386676
L 419.424968 333.202478
z
" clip-path="url(#pdd8f98060c)" style="fill: #999999; fill-opacity: 0.85098"/>
    <path d="M 403.976337 326.386676
L 403.976337 307.205477
L 419.424968 307.205477
L 419.424968 326.386676
z
" clip-path="url(#pdd8f98060c)" style="fill: #68bed8; fill-opacity: 0.85098"/>
    <path d="M 403.976337 307.205477
L 403.976337 247.918133
L 419.424968 247.918133
L 419.424968 307.205477
z
" clip-path="url(#pdd8f98060c)" style="fill: #fc9706; fill-opacity: 0.85098"/>
    <path d="M 403.976337 247.918133
L 403.976337 138.257529
L 419.424968 138.257529
L 419.424968 247.918133
z
" clip-path="url(#pdd8f98060c)" style="fill: #ffc729; fill-opacity: 0.85098"/>
    <path d="M 421.141483 333.202478
L 421.141483 327.079437
L 436.590115 327.079437
L 436.590115 333.202478
z
" clip-path="url(#pdd8f98060c)" style="fill: #999999; fill-opacity: 0.85098"/>
    <path d="M 421.141483 327.079437
L 421.141483 310.275936
L 436.590115 310.275936
L 436.590115 327.079437
z
" clip-path="url(#pdd8f98060c)" style="fill: #68bed8; fill-opacity: 0.85098"/>
    <path d="M 421.141483 310.275936
L 421.141483 255.935532
L 436.590115 255.935532
L 436.590115 310.275936
z
" clip-path="url(#pdd8f98060c)" style="fill: #fc9706; fill-opacity: 0.85098"/>
    <path d="M 421.141483 255.935532
L 421.141483 154.353901
L 436.590115 154.353901
L 436.590115 255.935532
z
" clip-path="url(#pdd8f98060c)" style="fill: #ffc729; fill-opacity: 0.85098"/>
    <path d="M 438.306629 333.202478
L 438.306629 327.440639
L 453.755261 327.440639
L 453.755261 333.202478
z
" clip-path="url(#pdd8f98060c)" style="fill: #999999; fill-opacity: 0.85098"/>
    <path d="M 438.306629 327.440639
L 438.306629 311.980482
L 453.755261 311.980482
L 453.755261 327.440639
z
" clip-path="url(#pdd8f98060c)" style="fill: #68bed8; fill-opacity: 0.85098"/>
    <path d="M 438.306629 311.980482
L 438.306629 259.809014
L 453.755261 259.809014
L 453.755261 311.980482
z
" clip-path="url(#pdd8f98060c)" style="fill: #fc9706; fill-opacity: 0.85098"/>
    <path d="M 438.306629 259.809014
L 438.306629 161.507844
L 453.755261 161.507844
L 453.755261 259.809014
z
" clip-path="url(#pdd8f98060c)" style="fill: #ffc729; fill-opacity: 0.85098"/>
    <path d="M 455.471775 333.202478
L 455.471775 328.071197
L 470.920407 328.071197
L 470.920407 333.202478
z
" clip-path="url(#pdd8f98060c)" style="fill: #999999; fill-opacity: 0.85098"/>
    <path d="M 455.471775 328.071197
L 455.471775 314.427238
L 470.920407 314.427238
L 470.920407 328.071197
z
" clip-path="url(#pdd8f98060c)" style="fill: #68bed8; fill-opacity: 0.85098"/>
    <path d="M 455.471775 314.427238
L 455.471775 267.128866
L 470.920407 267.128866
L 470.920407 314.427238
z
" clip-path="url(#pdd8f98060c)" style="fill: #fc9706; fill-opacity: 0.85098"/>
    <path d="M 455.471775 267.128866
L 455.471775 175.815731
L 470.920407 175.815731
L 470.920407 267.128866
z
" clip-path="url(#pdd8f98060c)" style="fill: #ffc729; fill-opacity: 0.85098"/>
    <path d="M 472.636922 333.202478
L 472.636922 329.304249
L 488.085553 329.304249
L 488.085553 333.202478
z
" clip-path="url(#pdd8f98060c)" style="fill: #999999; fill-opacity: 0.85098"/>
    <path d="M 472.636922 329.304249
L 472.636922 319.072362
L 488.085553 319.072362
L 488.085553 329.304249
z
" clip-path="url(#pdd8f98060c)" style="fill: #68bed8; fill-opacity: 0.85098"/>
    <path d="M 472.636922 319.072362
L 472.636922 283.073566
L 488.085553 283.073566
L 488.085553 319.072362
z
" clip-path="url(#pdd8f98060c)" style="fill: #fc9706; fill-opacity: 0.85098"/>
    <path d="M 472.636922 283.073566
L 472.636922 211.585446
L 488.085553 211.585446
L 488.085553 283.073566
z
" clip-path="url(#pdd8f98060c)" style="fill: #ffc729; fill-opacity: 0.85098"/>
    <path d="M 489.802068 333.202478
L 489.802068 329.443032
L 505.250699 329.443032
L 505.250699 333.202478
z
" clip-path="url(#pdd8f98060c)" style="fill: #999999; fill-opacity: 0.85098"/>
    <path d="M 489.802068 329.443032
L 489.802068 319.785771
L 505.250699 319.785771
L 505.250699 329.443032
z
" clip-path="url(#pdd8f98060c)" style="fill: #68bed8; fill-opacity: 0.85098"/>
    <path d="M 489.802068 319.785771
L 489.802068 285.295036
L 505.250699 285.295036
L 505.250699 319.785771
z
" clip-path="url(#pdd8f98060c)" style="fill: #fc9706; fill-opacity: 0.85098"/>
    <path d="M 489.802068 285.295036
L 489.802068 215.162417
L 505.250699 215.162417
L 505.250699 285.295036
z
" clip-path="url(#pdd8f98060c)" style="fill: #ffc729; fill-opacity: 0.85098"/>
    <path d="M 506.967214 333.202478
L 506.967214 329.792767
L 522.415846 329.792767
L 522.415846 333.202478
z
" clip-path="url(#pdd8f98060c)" style="fill: #999999; fill-opacity: 0.85098"/>
    <path d="M 506.967214 329.792767
L 506.967214 321.092917
L 522.415846 321.092917
L 522.415846 329.792767
z
" clip-path="url(#pdd8f98060c)" style="fill: #68bed8; fill-opacity: 0.85098"/>
    <path d="M 506.967214 321.092917
L 506.967214 289.631029
L 522.415846 289.631029
L 522.415846 321.092917
z
" clip-path="url(#pdd8f98060c)" style="fill: #fc9706; fill-opacity: 0.85098"/>
    <path d="M 506.967214 289.631029
L 506.967214 224.104846
L 522.415846 224.104846
L 522.415846 289.631029
z
" clip-path="url(#pdd8f98060c)" style="fill: #ffc729; fill-opacity: 0.85098"/>
    <path d="M 524.13236 333.202478
L 524.13236 330.209928
L 539.580992 330.209928
L 539.580992 333.202478
z
" clip-path="url(#pdd8f98060c)" style="fill: #999999; fill-opacity: 0.85098"/>
    <path d="M 524.13236 330.209928
L 524.13236 322.544951
L 539.580992 322.544951
L 539.580992 330.209928
z
" clip-path="url(#pdd8f98060c)" style="fill: #68bed8; fill-opacity: 0.85098"/>
    <path d="M 524.13236 322.544951
L 524.13236 294.594243
L 539.580992 294.594243
L 539.580992 322.544951
z
" clip-path="url(#pdd8f98060c)" style="fill: #fc9706; fill-opacity: 0.85098"/>
    <path d="M 524.13236 294.594243
L 524.13236 234.835761
L 539.580992 234.835761
L 539.580992 294.594243
z
" clip-path="url(#pdd8f98060c)" style="fill: #ffc729; fill-opacity: 0.85098"/>
    <path d="M 541.297506 333.202478
L 541.297506 330.85334
L 556.746138 330.85334
L 556.746138 333.202478
z
" clip-path="url(#pdd8f98060c)" style="fill: #999999; fill-opacity: 0.85098"/>
    <path d="M 541.297506 330.85334
L 541.297506 324.97273
L 556.746138 324.97273
L 556.746138 330.85334
z
" clip-path="url(#pdd8f98060c)" style="fill: #68bed8; fill-opacity: 0.85098"/>
    <path d="M 541.297506 324.97273
L 541.297506 303.444508
L 556.746138 303.444508
L 556.746138 324.97273
z
" clip-path="url(#pdd8f98060c)" style="fill: #fc9706; fill-opacity: 0.85098"/>
    <path d="M 541.297506 303.444508
L 541.297506 256.29759
L 556.746138 256.29759
L 556.746138 303.444508
z
" clip-path="url(#pdd8f98060c)" style="fill: #ffc729; fill-opacity: 0.85098"/>
    <path d="M 558.462652 333.202478
L 558.462652 331.896356
L 573.911284 331.896356
L 573.911284 333.202478
z
" clip-path="url(#pdd8f98060c)" style="fill: #999999; fill-opacity: 0.85098"/>
    <path d="M 558.462652 331.896356
L 558.462652 328.657318
L 573.911284 328.657318
L 573.911284 331.896356
z
" clip-path="url(#pdd8f98060c)" style="fill: #68bed8; fill-opacity: 0.85098"/>
    <path d="M 558.462652 328.657318
L 558.462652 316.740936
L 573.911284 316.740936
L 573.911284 328.657318
z
" clip-path="url(#pdd8f98060c)" style="fill: #fc9706; fill-opacity: 0.85098"/>
    <path d="M 558.462652 316.740936
L 558.462652 290.27882
L 573.911284 290.27882
L 573.911284 316.740936
z
" clip-path="url(#pdd8f98060c)" style="fill: #ffc729; fill-opacity: 0.85098"/>
    <path d="M 575.627799 333.202478
L 575.627799 332.858577
L 591.07643 332.858577
L 591.07643 333.202478
z
" clip-path="url(#pdd8f98060c)" style="fill: #999999; fill-opacity: 0.85098"/>
    <path d="M 575.627799 332.858577
L 575.627799 332.055334
L 591.07643 332.055334
L 591.07643 332.858577
z
" clip-path="url(#pdd8f98060c)" style="fill: #68bed8; fill-opacity: 0.85098"/>
    <path d="M 575.627799 332.055334
L 575.627799 329.092031
L 591.07643 329.092031
L 591.07643 332.055334
z
" clip-path="url(#pdd8f98060c)" style="fill: #fc9706; fill-opacity: 0.85098"/>
    <path d="M 575.627799 329.092031
L 575.627799 322.471563
L 591.07643 322.471563
L 591.07643 329.092031
z
" clip-path="url(#pdd8f98060c)" style="fill: #ffc729; fill-opacity: 0.85098"/>
   </g>
   <g id="LineCollection_1">
    <path d="M 59.815156 333.202478
L 591.934687 333.202478
" clip-path="url(#pdd8f98060c)" style="fill: none; stroke: #000000; stroke-width: 0.886227"/>
   </g>
   <g id="patch_3">
    <path d="M 59.815156 346.437273
L 591.934687 346.437273
" style="fill: none; stroke: #000000; stroke-width: 0.5; stroke-linejoin: miter; stroke-linecap: square"/>
   </g>
  </g>
  <g id="text_11">
   <text style="font-weight: 700; font-size: 15px; font-family: 'GT Planar'; text-anchor: start" x="59.815156" y="18.299062" transform="rotate(-0 59.815156 18.299062)">Annual Increase in Binding Peak — Growth Decomposition</text>
  </g>
  <g id="text_12">
   <text style="font-size: 13px; font-family: 'GT Planar'; text-anchor: start; fill: #333333" x="59.815156" y="45.37179" transform="rotate(-0 59.815156 45.37179)">Before crossover = summer drivers; after = winter drivers; NYISO Gold Book 2025</text>
  </g>
  <g id="text_13">
   <text style="font-size: 13px; font-family: 'GT Planar'; text-anchor: start; fill: #333333" x="312.154844" y="386.1" transform="rotate(-0 312.154844 386.1)">Year</text>
  </g>
  <g id="text_14">
   <text style="font-size: 13px; font-family: 'GT Planar'; fill: #333333" transform="translate(17.882812 288.145469) rotate(-90)">MW (year-over-year change)</text>
  </g>
  <g id="text_15">
   <text style="font-size: 13px; font-family: 'GT Planar'; text-anchor: start; fill: #333333" x="615.614687" y="168.564531" transform="rotate(-0 615.614687 168.564531)">component</text>
  </g>
  <g id="patch_4">
   <path d="M 616.614687 187.724531
L 630.454687 187.724531
L 630.454687 173.884531
L 616.614687 173.884531
z
" clip-path="url(#pd3235e372e)" style="fill: #ffffff; stroke: #ffffff; stroke-linejoin: miter"/>
  </g>
  <g id="patch_5">
   <path d="M 615.614687 188.724531
L 631.454687 188.724531
L 631.454687 172.884531
L 615.614687 172.884531
z
" clip-path="url(#pd3235e372e)" style="fill: #ffc729; fill-opacity: 0.85098"/>
  </g>
  <g id="text_16">
   <text style="font-size: 11px; font-family: 'IBM Plex Sans'; text-anchor: middle; fill: #4d4d4d" x="691.967344" y="183.708359" transform="rotate(-0 691.967344 183.708359)">Building electrification</text>
  </g>
  <g id="patch_6">
   <path d="M 616.614687 205.564531
L 630.454687 205.564531
L 630.454687 191.724531
L 616.614687 191.724531
z
" clip-path="url(#pfbaefff504)" style="fill: #ffffff; stroke: #ffffff; stroke-linejoin: miter"/>
  </g>
  <g id="patch_7">
   <path d="M 615.614687 206.564531
L 631.454687 206.564531
L 631.454687 190.724531
L 615.614687 190.724531
z
" clip-path="url(#pfbaefff504)" style="fill: #fc9706; fill-opacity: 0.85098"/>
  </g>
  <g id="text_17">
   <text style="font-size: 11px; font-family: 'IBM Plex Sans'; text-anchor: middle; fill: #4d4d4d" x="655.052031" y="201.614531" transform="rotate(-0 655.052031 201.614531)">EV load</text>
  </g>
  <g id="patch_8">
   <path d="M 616.614687 223.404531
L 630.454687 223.404531
L 630.454687 209.564531
L 616.614687 209.564531
z
" clip-path="url(#p1a74a339d0)" style="fill: #ffffff; stroke: #ffffff; stroke-linejoin: miter"/>
  </g>
  <g id="patch_9">
   <path d="M 615.614687 224.404531
L 631.454687 224.404531
L 631.454687 208.564531
L 615.614687 208.564531
z
" clip-path="url(#p1a74a339d0)" style="fill: #68bed8; fill-opacity: 0.85098"/>
  </g>
  <g id="text_18">
   <text style="font-size: 11px; font-family: 'IBM Plex Sans'; text-anchor: middle; fill: #4d4d4d" x="664.809375" y="219.388359" transform="rotate(-0 664.809375 219.388359)">Large loads</text>
  </g>
  <g id="patch_10">
   <path d="M 616.614687 241.244531
L 630.454687 241.244531
L 630.454687 227.404531
L 616.614687 227.404531
z
" clip-path="url(#p7167f5c984)" style="fill: #ffffff; stroke: #ffffff; stroke-linejoin: miter"/>
  </g>
  <g id="patch_11">
   <path d="M 615.614687 242.244531
L 631.454687 242.244531
L 631.454687 226.404531
L 615.614687 226.404531
z
" clip-path="url(#p7167f5c984)" style="fill: #999999; fill-opacity: 0.85098"/>
  </g>
  <g id="text_19">
   <text style="font-size: 11px; font-family: 'IBM Plex Sans'; text-anchor: middle; fill: #4d4d4d" x="674.091484" y="237.228359" transform="rotate(-0 674.091484 237.228359)">Organic growth</text>
  </g>
 </g>
 <defs>
  <clipPath id="pdd8f98060c">
   <rect x="59.815156" y="55.27179" width="532.119531" height="291.165483"/>
  </clipPath>
  <clipPath id="pd3235e372e">
   <path d="M 615.614687 188.724531
L 615.614687 172.884531
L 631.454687 172.884531
L 631.454687 188.724531
"/>
  </clipPath>
  <clipPath id="pfbaefff504">
   <path d="M 615.614687 206.564531
L 615.614687 190.724531
L 631.454687 190.724531
L 631.454687 206.564531
"/>
  </clipPath>
  <clipPath id="p1a74a339d0">
   <path d="M 615.614687 224.404531
L 615.614687 208.564531
L 631.454687 208.564531
L 631.454687 224.404531
"/>
  </clipPath>
  <clipPath id="p7167f5c984">
   <path d="M 615.614687 242.244531
L 615.614687 226.404531
L 631.454687 226.404531
L 631.454687 242.244531
"/>
  </clipPath>
 </defs>
</svg>
