<svg xmlns:xlink="http://www.w3.org/1999/xlink" xmlns="http://www.w3.org/2000/svg" width="887.727449pt" height="1230.912pt" viewBox="0 0 887.727449 1230.912" version="1.1">
 <metadata>
  <rdf:RDF xmlns:dc="http://purl.org/dc/elements/1.1/" xmlns:cc="http://creativecommons.org/ns#" xmlns:rdf="http://www.w3.org/1999/02/22-rdf-syntax-ns#">
   <cc:Work>
    <dc:type rdf:resource="http://purl.org/dc/dcmitype/StillImage"/>
    <dc:date>2026-04-24T02:22:45.260532</dc:date>
    <dc:format>image/svg+xml</dc:format>
    <dc:creator>
     <cc:Agent>
      <dc:title>Matplotlib v3.10.8, https://matplotlib.org/</dc:title>
     </cc:Agent>
    </dc:creator>
   </cc:Work>
  </rdf:RDF>
 </metadata>
 <defs>
  <style type="text/css">*{stroke-linejoin: round; stroke-linecap: butt}</style>
 </defs>
 <g id="figure_1">
  <g id="patch_1">
   <path d="M 0 1230.912  L 887.727449 1230.912  L 887.727449 0  L 0 0  z " style="fill: #ffffff"/>
  </g>
  <g id="axes_1">
   <g id="patch_2">
    <path d="M 20.459324 1223.712  L 767.459324 1223.712  L 767.459324 32.544  L 20.459324 32.544  z " style="fill: #ffffff"/>
   </g>
   <g id="patch_3">
    <path d="M 20.459324 93.194102  L 20.459324 93.194102  L 20.459324 120.486648  L 20.459324 120.486648  z " clip-path="url(#p3c51917ca2)" style="fill: #b71c1c"/>
   </g>
   <g id="patch_4">
    <path d="M 20.459324 93.194102  L 30.160622 93.194102  L 30.160622 120.486648  L 20.459324 120.486648  z " clip-path="url(#p3c51917ca2)" style="fill: #ef9a9a"/>
   </g>
   <g id="patch_5">
    <path d="M 30.160622 93.194102  L 405.277506 93.194102  L 405.277506 120.486648  L 30.160622 120.486648  z " clip-path="url(#p3c51917ca2)" style="fill: #81c784"/>
   </g>
   <g id="patch_6">
    <path d="M 405.277506 93.194102  L 767.459324 93.194102  L 767.459324 120.486648  L 405.277506 120.486648  z " clip-path="url(#p3c51917ca2)" style="fill: #1b5e20"/>
   </g>
   <g id="patch_7">
    <path d="M 20.459324 127.76466  L 20.459324 127.76466  L 20.459324 155.057206  L 20.459324 155.057206  z " clip-path="url(#p3c51917ca2)" style="fill: #b71c1c"/>
   </g>
   <g id="patch_8">
    <path d="M 20.459324 127.76466  L 21.537246 127.76466  L 21.537246 155.057206  L 20.459324 155.057206  z " clip-path="url(#p3c51917ca2)" style="fill: #ef9a9a"/>
   </g>
   <g id="patch_9">
    <path d="M 21.537246 127.76466  L 309.342441 127.76466  L 309.342441 155.057206  L 21.537246 155.057206  z " clip-path="url(#p3c51917ca2)" style="fill: #81c784"/>
   </g>
   <g id="patch_10">
    <path d="M 309.342441 127.76466  L 767.459324 127.76466  L 767.459324 155.057206  L 309.342441 155.057206  z " clip-path="url(#p3c51917ca2)" style="fill: #1b5e20"/>
   </g>
   <g id="patch_11">
    <path d="M 20.459324 270.292399  L 20.459324 270.292399  L 20.459324 297.584945  L 20.459324 297.584945  z " clip-path="url(#p3c51917ca2)" style="fill: #b71c1c"/>
   </g>
   <g id="patch_12">
    <path d="M 20.459324 270.292399  L 25.406344 270.292399  L 25.406344 297.584945  L 20.459324 297.584945  z " clip-path="url(#p3c51917ca2)" style="fill: #ef9a9a"/>
   </g>
   <g id="patch_13">
    <path d="M 25.406344 270.292399  L 421.167933 270.292399  L 421.167933 297.584945  L 25.406344 297.584945  z " clip-path="url(#p3c51917ca2)" style="fill: #81c784"/>
   </g>
   <g id="patch_14">
    <path d="M 421.167933 270.292399  L 767.459324 270.292399  L 767.459324 297.584945  L 421.167933 297.584945  z " clip-path="url(#p3c51917ca2)" style="fill: #1b5e20"/>
   </g>
   <g id="patch_15">
    <path d="M 20.459324 304.862957  L 20.459324 304.862957  L 20.459324 332.155503  L 20.459324 332.155503  z " clip-path="url(#p3c51917ca2)" style="fill: #b71c1c"/>
   </g>
   <g id="patch_16">
    <path d="M 20.459324 304.862957  L 20.459324 304.862957  L 20.459324 332.155503  L 20.459324 332.155503  z " clip-path="url(#p3c51917ca2)" style="fill: #ef9a9a"/>
   </g>
   <g id="patch_17">
    <path d="M 20.459324 304.862957  L 337.068595 304.862957  L 337.068595 332.155503  L 20.459324 332.155503  z " clip-path="url(#p3c51917ca2)" style="fill: #81c784"/>
   </g>
   <g id="patch_18">
    <path d="M 337.068595 304.862957  L 767.459324 304.862957  L 767.459324 332.155503  L 337.068595 332.155503  z " clip-path="url(#p3c51917ca2)" style="fill: #1b5e20"/>
   </g>
   <g id="patch_19">
    <path d="M 20.459324 447.390697  L 20.459324 447.390697  L 20.459324 474.683242  L 20.459324 474.683242  z " clip-path="url(#p3c51917ca2)" style="fill: #b71c1c"/>
   </g>
   <g id="patch_20">
    <path d="M 20.459324 447.390697  L 31.010171 447.390697  L 31.010171 474.683242  L 20.459324 474.683242  z " clip-path="url(#p3c51917ca2)" style="fill: #ef9a9a"/>
   </g>
   <g id="patch_21">
    <path d="M 31.010171 447.390697  L 305.332205 447.390697  L 305.332205 474.683242  L 31.010171 474.683242  z " clip-path="url(#p3c51917ca2)" style="fill: #81c784"/>
   </g>
   <g id="patch_22">
    <path d="M 305.332205 447.390697  L 767.459324 447.390697  L 767.459324 474.683242  L 305.332205 474.683242  z " clip-path="url(#p3c51917ca2)" style="fill: #1b5e20"/>
   </g>
   <g id="patch_23">
    <path d="M 20.459324 481.961255  L 20.459324 481.961255  L 20.459324 509.2538  L 20.459324 509.2538  z " clip-path="url(#p3c51917ca2)" style="fill: #b71c1c"/>
   </g>
   <g id="patch_24">
    <path d="M 20.459324 481.961255  L 22.569493 481.961255  L 22.569493 509.2538  L 20.459324 509.2538  z " clip-path="url(#p3c51917ca2)" style="fill: #ef9a9a"/>
   </g>
   <g id="patch_25">
    <path d="M 22.569493 481.961255  L 204.04407 481.961255  L 204.04407 509.2538  L 22.569493 509.2538  z " clip-path="url(#p3c51917ca2)" style="fill: #81c784"/>
   </g>
   <g id="patch_26">
    <path d="M 204.04407 481.961255  L 767.459324 481.961255  L 767.459324 509.2538  L 204.04407 509.2538  z " clip-path="url(#p3c51917ca2)" style="fill: #1b5e20"/>
   </g>
   <g id="patch_27">
    <path d="M 20.459324 624.488994  L 20.459324 624.488994  L 20.459324 651.78154  L 20.459324 651.78154  z " clip-path="url(#p3c51917ca2)" style="fill: #b71c1c"/>
   </g>
   <g id="patch_28">
    <path d="M 20.459324 624.488994  L 38.828176 624.488994  L 38.828176 651.78154  L 20.459324 651.78154  z " clip-path="url(#p3c51917ca2)" style="fill: #ef9a9a"/>
   </g>
   <g id="patch_29">
    <path d="M 38.828176 624.488994  L 344.975717 624.488994  L 344.975717 651.78154  L 38.828176 651.78154  z " clip-path="url(#p3c51917ca2)" style="fill: #81c784"/>
   </g>
   <g id="patch_30">
    <path d="M 344.975717 624.488994  L 767.459324 624.488994  L 767.459324 651.78154  L 344.975717 651.78154  z " clip-path="url(#p3c51917ca2)" style="fill: #1b5e20"/>
   </g>
   <g id="patch_31">
    <path d="M 20.459324 659.059552  L 20.459324 659.059552  L 20.459324 686.352098  L 20.459324 686.352098  z " clip-path="url(#p3c51917ca2)" style="fill: #b71c1c"/>
   </g>
   <g id="patch_32">
    <path d="M 20.459324 659.059552  L 26.582275 659.059552  L 26.582275 686.352098  L 20.459324 686.352098  z " clip-path="url(#p3c51917ca2)" style="fill: #ef9a9a"/>
   </g>
   <g id="patch_33">
    <path d="M 26.582275 659.059552  L 228.639652 659.059552  L 228.639652 686.352098  L 26.582275 686.352098  z " clip-path="url(#p3c51917ca2)" style="fill: #81c784"/>
   </g>
   <g id="patch_34">
    <path d="M 228.639652 659.059552  L 767.459324 659.059552  L 767.459324 686.352098  L 228.639652 686.352098  z " clip-path="url(#p3c51917ca2)" style="fill: #1b5e20"/>
   </g>
   <g id="patch_35">
    <path d="M 20.459324 801.587291  L 20.459324 801.587291  L 20.459324 828.879837  L 20.459324 828.879837  z " clip-path="url(#p3c51917ca2)" style="fill: #b71c1c"/>
   </g>
   <g id="patch_36">
    <path d="M 20.459324 801.587291  L 35.106383 801.587291  L 35.106383 828.879837  L 20.459324 828.879837  z " clip-path="url(#p3c51917ca2)" style="fill: #ef9a9a"/>
   </g>
   <g id="patch_37">
    <path d="M 35.106383 801.587291  L 474.518147 801.587291  L 474.518147 828.879837  L 35.106383 828.879837  z " clip-path="url(#p3c51917ca2)" style="fill: #81c784"/>
   </g>
   <g id="patch_38">
    <path d="M 474.518147 801.587291  L 767.459324 801.587291  L 767.459324 828.879837  L 474.518147 828.879837  z " clip-path="url(#p3c51917ca2)" style="fill: #1b5e20"/>
   </g>
   <g id="patch_39">
    <path d="M 20.459324 836.157849  L 20.459324 836.157849  L 20.459324 863.450395  L 20.459324 863.450395  z " clip-path="url(#p3c51917ca2)" style="fill: #b71c1c"/>
   </g>
   <g id="patch_40">
    <path d="M 20.459324 836.157849  L 20.459324 836.157849  L 20.459324 863.450395  L 20.459324 863.450395  z " clip-path="url(#p3c51917ca2)" style="fill: #ef9a9a"/>
   </g>
   <g id="patch_41">
    <path d="M 20.459324 836.157849  L 298.753441 836.157849  L 298.753441 863.450395  L 20.459324 863.450395  z " clip-path="url(#p3c51917ca2)" style="fill: #81c784"/>
   </g>
   <g id="patch_42">
    <path d="M 298.753441 836.157849  L 767.459324 836.157849  L 767.459324 863.450395  L 298.753441 863.450395  z " clip-path="url(#p3c51917ca2)" style="fill: #1b5e20"/>
   </g>
   <g id="patch_43">
    <path d="M 20.459324 978.685589  L 20.459324 978.685589  L 20.459324 1005.978134  L 20.459324 1005.978134  z " clip-path="url(#p3c51917ca2)" style="fill: #b71c1c"/>
   </g>
   <g id="patch_44">
    <path d="M 20.459324 978.685589  L 65.959324 978.685589  L 65.959324 1005.978134  L 20.459324 1005.978134  z " clip-path="url(#p3c51917ca2)" style="fill: #ef9a9a"/>
   </g>
   <g id="patch_45">
    <path d="M 65.959324 978.685589  L 487.459324 978.685589  L 487.459324 1005.978134  L 65.959324 1005.978134  z " clip-path="url(#p3c51917ca2)" style="fill: #81c784"/>
   </g>
   <g id="patch_46">
    <path d="M 487.459324 978.685589  L 767.459324 978.685589  L 767.459324 1005.978134  L 487.459324 1005.978134  z " clip-path="url(#p3c51917ca2)" style="fill: #1b5e20"/>
   </g>
   <g id="patch_47">
    <path d="M 20.459324 1013.256147  L 20.459324 1013.256147  L 20.459324 1040.548692  L 20.459324 1040.548692  z " clip-path="url(#p3c51917ca2)" style="fill: #b71c1c"/>
   </g>
   <g id="patch_48">
    <path d="M 20.459324 1013.256147  L 33.459324 1013.256147  L 33.459324 1040.548692  L 20.459324 1040.548692  z " clip-path="url(#p3c51917ca2)" style="fill: #ef9a9a"/>
   </g>
   <g id="patch_49">
    <path d="M 33.459324 1013.256147  L 396.959324 1013.256147  L 396.959324 1040.548692  L 33.459324 1040.548692  z " clip-path="url(#p3c51917ca2)" style="fill: #81c784"/>
   </g>
   <g id="patch_50">
    <path d="M 396.959324 1013.256147  L 767.459324 1013.256147  L 767.459324 1040.548692  L 396.959324 1040.548692  z " clip-path="url(#p3c51917ca2)" style="fill: #1b5e20"/>
   </g>
   <g id="patch_51">
    <path d="M 20.459324 1155.783886  L 20.459324 1155.783886  L 20.459324 1183.076432  L 20.459324 1183.076432  z " clip-path="url(#p3c51917ca2)" style="fill: #b71c1c"/>
   </g>
   <g id="patch_52">
    <path d="M 20.459324 1155.783886  L 31.391031 1155.783886  L 31.391031 1183.076432  L 20.459324 1183.076432  z " clip-path="url(#p3c51917ca2)" style="fill: #ef9a9a"/>
   </g>
   <g id="patch_53">
    <path d="M 31.391031 1155.783886  L 421.288592 1155.783886  L 421.288592 1183.076432  L 31.391031 1183.076432  z " clip-path="url(#p3c51917ca2)" style="fill: #81c784"/>
   </g>
   <g id="patch_54">
    <path d="M 421.288592 1155.783886  L 767.459324 1155.783886  L 767.459324 1183.076432  L 421.288592 1183.076432  z " clip-path="url(#p3c51917ca2)" style="fill: #1b5e20"/>
   </g>
   <g id="patch_55">
    <path d="M 20.459324 1190.354444  L 20.459324 1190.354444  L 20.459324 1217.64699  L 20.459324 1217.64699  z " clip-path="url(#p3c51917ca2)" style="fill: #b71c1c"/>
   </g>
   <g id="patch_56">
    <path d="M 20.459324 1190.354444  L 20.459324 1190.354444  L 20.459324 1217.64699  L 20.459324 1217.64699  z " clip-path="url(#p3c51917ca2)" style="fill: #ef9a9a"/>
   </g>
   <g id="patch_57">
    <path d="M 20.459324 1190.354444  L 311.971519 1190.354444  L 311.971519 1217.64699  L 20.459324 1217.64699  z " clip-path="url(#p3c51917ca2)" style="fill: #81c784"/>
   </g>
   <g id="patch_58">
    <path d="M 311.971519 1190.354444  L 767.459324 1190.354444  L 767.459324 1217.64699  L 311.971519 1217.64699  z " clip-path="url(#p3c51917ca2)" style="fill: #1b5e20"/>
   </g>
   <g id="matplotlib.axis_1"/>
   <g id="matplotlib.axis_2"/>
   <g id="text_1">
    <text style="font-weight: 700; font-size: 10px; font-family: 'IBM Plex Sans'; text-anchor: middle; fill: #ffffff" x="217.719064" y="109.540375" transform="rotate(-0 217.719064 109.540375)">50.2%</text>
   </g>
   <g id="text_2">
    <text style="font-weight: 700; font-size: 10px; font-family: 'IBM Plex Sans'; text-anchor: middle; fill: #ffffff" x="586.368415" y="109.540375" transform="rotate(-0 586.368415 109.540375)">48.5%</text>
   </g>
   <g id="text_3">
    <text style="font-weight: 700; font-size: 10px; font-family: 'IBM Plex Sans'; text-anchor: middle; fill: #ffffff" x="165.439843" y="144.110933" transform="rotate(-0 165.439843 144.110933)">38.5%</text>
   </g>
   <g id="text_4">
    <text style="font-weight: 700; font-size: 10px; font-family: 'IBM Plex Sans'; text-anchor: middle; fill: #ffffff" x="538.400882" y="144.110933" transform="rotate(-0 538.400882 144.110933)">61.3%</text>
   </g>
   <g id="text_5">
    <text style="font-weight: 700; font-size: 10px; font-family: 'IBM Plex Sans'; text-anchor: middle; fill: #ffffff" x="223.287138" y="286.638672" transform="rotate(-0 223.287138 286.638672)">53.0%</text>
   </g>
   <g id="text_6">
    <text style="font-weight: 700; font-size: 10px; font-family: 'IBM Plex Sans'; text-anchor: middle; fill: #ffffff" x="594.313628" y="286.638672" transform="rotate(-0 594.313628 286.638672)">46.4%</text>
   </g>
   <g id="text_7">
    <text style="font-weight: 700; font-size: 10px; font-family: 'IBM Plex Sans'; text-anchor: middle; fill: #ffffff" x="178.76396" y="321.20923" transform="rotate(-0 178.76396 321.20923)">42.4%</text>
   </g>
   <g id="text_8">
    <text style="font-weight: 700; font-size: 10px; font-family: 'IBM Plex Sans'; text-anchor: middle; fill: #ffffff" x="552.26396" y="321.20923" transform="rotate(-0 552.26396 321.20923)">57.6%</text>
   </g>
   <g id="text_9">
    <text style="font-weight: 700; font-size: 10px; font-family: 'IBM Plex Sans'; text-anchor: middle; fill: #ffffff" x="168.171188" y="463.736969" transform="rotate(-0 168.171188 463.736969)">36.7%</text>
   </g>
   <g id="text_10">
    <text style="font-weight: 700; font-size: 10px; font-family: 'IBM Plex Sans'; text-anchor: middle; fill: #ffffff" x="536.395764" y="463.736969" transform="rotate(-0 536.395764 463.736969)">61.9%</text>
   </g>
   <g id="text_11">
    <text style="font-weight: 700; font-size: 10px; font-family: 'IBM Plex Sans'; text-anchor: middle; fill: #ffffff" x="113.306781" y="498.307527" transform="rotate(-0 113.306781 498.307527)">24.3%</text>
   </g>
   <g id="text_12">
    <text style="font-weight: 700; font-size: 10px; font-family: 'IBM Plex Sans'; text-anchor: middle; fill: #ffffff" x="485.751697" y="498.307527" transform="rotate(-0 485.751697 498.307527)">75.4%</text>
   </g>
   <g id="text_13">
    <text style="font-weight: 700; font-size: 10px; font-family: 'IBM Plex Sans'; text-anchor: middle; fill: #ffffff" x="191.901947" y="640.835267" transform="rotate(-0 191.901947 640.835267)">41.0%</text>
   </g>
   <g id="text_14">
    <text style="font-weight: 700; font-size: 10px; font-family: 'IBM Plex Sans'; text-anchor: middle; fill: #ffffff" x="556.21752" y="640.835267" transform="rotate(-0 556.21752 640.835267)">56.6%</text>
   </g>
   <g id="text_15">
    <text style="font-weight: 700; font-size: 10px; font-family: 'IBM Plex Sans'; text-anchor: middle; fill: #ffffff" x="127.610963" y="675.405825" transform="rotate(-0 127.610963 675.405825)">27.0%</text>
   </g>
   <g id="text_16">
    <text style="font-weight: 700; font-size: 10px; font-family: 'IBM Plex Sans'; text-anchor: middle; fill: #ffffff" x="498.049488" y="675.405825" transform="rotate(-0 498.049488 675.405825)">72.1%</text>
   </g>
   <g id="text_17">
    <text style="font-weight: 700; font-size: 10px; font-family: 'IBM Plex Sans'; text-anchor: middle; fill: #ffffff" x="254.812265" y="817.933564" transform="rotate(-0 254.812265 817.933564)">58.8%</text>
   </g>
   <g id="text_18">
    <text style="font-weight: 700; font-size: 10px; font-family: 'IBM Plex Sans'; text-anchor: middle; fill: #ffffff" x="620.988736" y="817.933564" transform="rotate(-0 620.988736 817.933564)">39.2%</text>
   </g>
   <g id="text_19">
    <text style="font-weight: 700; font-size: 10px; font-family: 'IBM Plex Sans'; text-anchor: middle; fill: #ffffff" x="159.606383" y="852.504122" transform="rotate(-0 159.606383 852.504122)">37.3%</text>
   </g>
   <g id="text_20">
    <text style="font-weight: 700; font-size: 10px; font-family: 'IBM Plex Sans'; text-anchor: middle; fill: #ffffff" x="533.106383" y="852.504122" transform="rotate(-0 533.106383 852.504122)">62.7%</text>
   </g>
   <g id="text_21">
    <text style="font-weight: 700; font-size: 10px; font-family: 'IBM Plex Sans'; text-anchor: middle; fill: #ffffff" x="43.209324" y="995.031862" transform="rotate(-0 43.209324 995.031862)">6.1%</text>
   </g>
   <g id="text_22">
    <text style="font-weight: 700; font-size: 10px; font-family: 'IBM Plex Sans'; text-anchor: middle; fill: #ffffff" x="276.709324" y="995.031862" transform="rotate(-0 276.709324 995.031862)">56.4%</text>
   </g>
   <g id="text_23">
    <text style="font-weight: 700; font-size: 10px; font-family: 'IBM Plex Sans'; text-anchor: middle; fill: #ffffff" x="627.459324" y="995.031862" transform="rotate(-0 627.459324 995.031862)">37.5%</text>
   </g>
   <g id="text_24">
    <text style="font-weight: 700; font-size: 10px; font-family: 'IBM Plex Sans'; text-anchor: middle; fill: #ffffff" x="215.209324" y="1029.60242" transform="rotate(-0 215.209324 1029.60242)">48.7%</text>
   </g>
   <g id="text_25">
    <text style="font-weight: 700; font-size: 10px; font-family: 'IBM Plex Sans'; text-anchor: middle; fill: #ffffff" x="582.209324" y="1029.60242" transform="rotate(-0 582.209324 1029.60242)">49.6%</text>
   </g>
   <g id="text_26">
    <text style="font-weight: 700; font-size: 10px; font-family: 'IBM Plex Sans'; text-anchor: middle; fill: #ffffff" x="226.339812" y="1172.130159" transform="rotate(-0 226.339812 1172.130159)">52.2%</text>
   </g>
   <g id="text_27">
    <text style="font-weight: 700; font-size: 10px; font-family: 'IBM Plex Sans'; text-anchor: middle; fill: #ffffff" x="594.373958" y="1172.130159" transform="rotate(-0 594.373958 1172.130159)">46.3%</text>
   </g>
   <g id="text_28">
    <text style="font-weight: 700; font-size: 10px; font-family: 'IBM Plex Sans'; text-anchor: middle; fill: #ffffff" x="166.215421" y="1206.700717" transform="rotate(-0 166.215421 1206.700717)">39.0%</text>
   </g>
   <g id="text_29">
    <text style="font-weight: 700; font-size: 10px; font-family: 'IBM Plex Sans'; text-anchor: middle; fill: #ffffff" x="539.715421" y="1206.700717" transform="rotate(-0 539.715421 1206.700717)">61.0%</text>
   </g>
   <g id="text_30">
    <text style="font-weight: 700; font-size: 9px; font-family: 'IBM Plex Sans'; text-anchor: start" x="774.929324" y="109.270375" transform="rotate(-0 774.929324 109.270375)">Default rate</text>
   </g>
   <g id="text_31">
    <text style="font-weight: 700; font-size: 9px; font-family: 'IBM Plex Sans'; text-anchor: start" x="774.929324" y="143.840933" transform="rotate(-0 774.929324 143.840933)">Seasonal heat pump rate</text>
   </g>
   <g id="text_32">
    <text style="font-weight: 700; font-size: 9px; font-family: 'IBM Plex Sans'; text-anchor: start" x="774.929324" y="286.368672" transform="rotate(-0 774.929324 286.368672)">Default rate</text>
   </g>
   <g id="text_33">
    <text style="font-weight: 700; font-size: 9px; font-family: 'IBM Plex Sans'; text-anchor: start" x="774.929324" y="320.93923" transform="rotate(-0 774.929324 320.93923)">Seasonal heat pump rate</text>
   </g>
   <g id="text_34">
    <text style="font-weight: 700; font-size: 9px; font-family: 'IBM Plex Sans'; text-anchor: start" x="774.929324" y="463.466969" transform="rotate(-0 774.929324 463.466969)">Default rate</text>
   </g>
   <g id="text_35">
    <text style="font-weight: 700; font-size: 9px; font-family: 'IBM Plex Sans'; text-anchor: start" x="774.929324" y="498.037527" transform="rotate(-0 774.929324 498.037527)">Seasonal heat pump rate</text>
   </g>
   <g id="text_36">
    <text style="font-weight: 700; font-size: 9px; font-family: 'IBM Plex Sans'; text-anchor: start" x="774.929324" y="640.565267" transform="rotate(-0 774.929324 640.565267)">Default rate</text>
   </g>
   <g id="text_37">
    <text style="font-weight: 700; font-size: 9px; font-family: 'IBM Plex Sans'; text-anchor: start" x="774.929324" y="675.135825" transform="rotate(-0 774.929324 675.135825)">Seasonal heat pump rate</text>
   </g>
   <g id="text_38">
    <text style="font-weight: 700; font-size: 9px; font-family: 'IBM Plex Sans'; text-anchor: start" x="774.929324" y="817.663564" transform="rotate(-0 774.929324 817.663564)">Default rate</text>
   </g>
   <g id="text_39">
    <text style="font-weight: 700; font-size: 9px; font-family: 'IBM Plex Sans'; text-anchor: start" x="774.929324" y="852.234122" transform="rotate(-0 774.929324 852.234122)">Seasonal heat pump rate</text>
   </g>
   <g id="text_40">
    <text style="font-weight: 700; font-size: 9px; font-family: 'IBM Plex Sans'; text-anchor: start" x="774.929324" y="994.761862" transform="rotate(-0 774.929324 994.761862)">Default rate</text>
   </g>
   <g id="text_41">
    <text style="font-weight: 700; font-size: 9px; font-family: 'IBM Plex Sans'; text-anchor: start" x="774.929324" y="1029.33242" transform="rotate(-0 774.929324 1029.33242)">Seasonal heat pump rate</text>
   </g>
   <g id="text_42">
    <text style="font-weight: 700; font-size: 9px; font-family: 'IBM Plex Sans'; text-anchor: start" x="774.929324" y="1171.860159" transform="rotate(-0 774.929324 1171.860159)">Default rate</text>
   </g>
   <g id="text_43">
    <text style="font-weight: 700; font-size: 9px; font-family: 'IBM Plex Sans'; text-anchor: start" x="774.929324" y="1206.430717" transform="rotate(-0 774.929324 1206.430717)">Seasonal heat pump rate</text>
   </g>
   <g id="text_44">
    <text style="font-weight: 700; font-size: 11px; font-family: 'GT Planar'; text-anchor: start; fill: #333333" x="20.459324" y="46.30901" transform="rotate(-0 20.459324 46.30901)">National Grid</text>
   </g>
   <g id="text_45">
    <text style="font-weight: 700; font-size: 11px; font-family: 'GT Planar'; text-anchor: start; fill: #333333" x="20.459324" y="223.407308" transform="rotate(-0 20.459324 223.407308)">RG&amp;E</text>
   </g>
   <g id="text_46">
    <text style="font-weight: 700; font-size: 11px; font-family: 'GT Planar'; text-anchor: start; fill: #333333" x="20.459324" y="400.505605" transform="rotate(-0 20.459324 400.505605)">NYSEG</text>
   </g>
   <g id="text_47">
    <text style="font-weight: 700; font-size: 11px; font-family: 'GT Planar'; text-anchor: start; fill: #333333" x="20.459324" y="577.603902" transform="rotate(-0 20.459324 577.603902)">Central Hudson</text>
   </g>
   <g id="text_48">
    <text style="font-weight: 700; font-size: 11px; font-family: 'GT Planar'; text-anchor: start; fill: #333333" x="20.459324" y="754.7022" transform="rotate(-0 20.459324 754.7022)">O&amp;R</text>
   </g>
   <g id="text_49">
    <text style="font-weight: 700; font-size: 11px; font-family: 'GT Planar'; text-anchor: start; fill: #333333" x="20.459324" y="931.800497" transform="rotate(-0 20.459324 931.800497)">Con Edison</text>
   </g>
   <g id="text_50">
    <text style="font-weight: 700; font-size: 11px; font-family: 'GT Planar'; text-anchor: start; fill: #333333" x="20.459324" y="1108.898794" transform="rotate(-0 20.459324 1108.898794)">PSEG-LI</text>
   </g>
   <g id="text_51">
    <text style="font-weight: 700; font-size: 8px; font-family: 'IBM Plex Sans'; text-anchor: middle; fill: #81c784" x="217.719064" y="70.366566" transform="rotate(-0 217.719064 70.366566)">SAVE $0-1K</text>
   </g>
   <g id="text_52">
    <text style="font-weight: 700; font-size: 8px; font-family: 'IBM Plex Sans'; text-anchor: middle; fill: #1b5e20" x="586.368415" y="70.366566" transform="rotate(-0 586.368415 70.366566)">SAVE &gt; $1K</text>
   </g>
   <g id="text_53">
    <text style="font-weight: 700; font-size: 8px; font-family: 'IBM Plex Sans'; text-anchor: middle; fill: #81c784" x="223.287138" y="247.464864" transform="rotate(-0 223.287138 247.464864)">SAVE $0-1K</text>
   </g>
   <g id="text_54">
    <text style="font-weight: 700; font-size: 8px; font-family: 'IBM Plex Sans'; text-anchor: middle; fill: #1b5e20" x="594.313628" y="247.464864" transform="rotate(-0 594.313628 247.464864)">SAVE &gt; $1K</text>
   </g>
   <g id="text_55">
    <text style="font-weight: 700; font-size: 8px; font-family: 'IBM Plex Sans'; text-anchor: middle; fill: #81c784" x="168.171188" y="424.563161" transform="rotate(-0 168.171188 424.563161)">SAVE $0-1K</text>
   </g>
   <g id="text_56">
    <text style="font-weight: 700; font-size: 8px; font-family: 'IBM Plex Sans'; text-anchor: middle; fill: #1b5e20" x="536.395764" y="424.563161" transform="rotate(-0 536.395764 424.563161)">SAVE &gt; $1K</text>
   </g>
   <g id="text_57">
    <text style="font-weight: 700; font-size: 8px; font-family: 'IBM Plex Sans'; text-anchor: middle; fill: #ef9a9a" x="29.64375" y="601.661458" transform="rotate(-0 29.64375 601.661458)">LOSE $0-1K</text>
   </g>
   <g id="text_58">
    <text style="font-weight: 700; font-size: 8px; font-family: 'IBM Plex Sans'; text-anchor: middle; fill: #81c784" x="191.901947" y="601.661458" transform="rotate(-0 191.901947 601.661458)">SAVE $0-1K</text>
   </g>
   <g id="text_59">
    <text style="font-weight: 700; font-size: 8px; font-family: 'IBM Plex Sans'; text-anchor: middle; fill: #1b5e20" x="556.21752" y="601.661458" transform="rotate(-0 556.21752 601.661458)">SAVE &gt; $1K</text>
   </g>
   <g id="text_60">
    <text style="font-weight: 700; font-size: 8px; font-family: 'IBM Plex Sans'; text-anchor: middle; fill: #81c784" x="254.812265" y="778.759756" transform="rotate(-0 254.812265 778.759756)">SAVE $0-1K</text>
   </g>
   <g id="text_61">
    <text style="font-weight: 700; font-size: 8px; font-family: 'IBM Plex Sans'; text-anchor: middle; fill: #1b5e20" x="620.988736" y="778.759756" transform="rotate(-0 620.988736 778.759756)">SAVE &gt; $1K</text>
   </g>
   <g id="text_62">
    <text style="font-weight: 700; font-size: 8px; font-family: 'IBM Plex Sans'; text-anchor: middle; fill: #ef9a9a" x="43.209324" y="955.858053" transform="rotate(-0 43.209324 955.858053)">LOSE $0-1K</text>
   </g>
   <g id="text_63">
    <text style="font-weight: 700; font-size: 8px; font-family: 'IBM Plex Sans'; text-anchor: middle; fill: #81c784" x="276.709324" y="955.858053" transform="rotate(-0 276.709324 955.858053)">SAVE $0-1K</text>
   </g>
   <g id="text_64">
    <text style="font-weight: 700; font-size: 8px; font-family: 'IBM Plex Sans'; text-anchor: middle; fill: #1b5e20" x="627.459324" y="955.858053" transform="rotate(-0 627.459324 955.858053)">SAVE &gt; $1K</text>
   </g>
   <g id="text_65">
    <text style="font-weight: 700; font-size: 8px; font-family: 'IBM Plex Sans'; text-anchor: middle; fill: #81c784" x="226.339812" y="1132.95635" transform="rotate(-0 226.339812 1132.95635)">SAVE $0-1K</text>
   </g>
   <g id="text_66">
    <text style="font-weight: 700; font-size: 8px; font-family: 'IBM Plex Sans'; text-anchor: middle; fill: #1b5e20" x="594.373958" y="1132.95635" transform="rotate(-0 594.373958 1132.95635)">SAVE &gt; $1K</text>
   </g>
  </g>
  <g id="text_67">
   <text style="font-weight: 700; font-size: 12px; font-family: 'GT Planar'; text-anchor: start" x="20.459324" y="15.6" transform="rotate(-0 20.459324 15.6)">How bills would change for</text>
  </g>
  <g id="text_68">
   <text style="font-weight: 700; font-size: 12px; font-family: 'GT Planar'; text-anchor: start; fill: #b08e00" x="179.553074" y="15.6" transform="rotate(-0 179.553074 15.6)">electric resistance</text>
  </g>
  <g id="text_69">
   <text style="font-weight: 700; font-size: 12px; font-family: 'GT Planar'; text-anchor: start" x="288.771824" y="15.6" transform="rotate(-0 288.771824 15.6)">heated homes after switching to</text>
  </g>
  <g id="text_70">
   <text style="font-weight: 700; font-size: 12px; font-family: 'GT Planar'; text-anchor: start; fill: #c47600" x="477.584324" y="15.6" transform="rotate(-0 477.584324 15.6)">heat pumps</text>
  </g>
 </g>
 <defs>
  <clipPath id="p3c51917ca2">
   <rect x="20.459324" y="32.544" width="747" height="1191.168"/>
  </clipPath>
 </defs>
</svg>
