<?xml version="1.0" encoding="utf-8" standalone="no"?>
<!DOCTYPE svg PUBLIC "-//W3C//DTD SVG 1.1//EN"
  "http://www.w3.org/Graphics/SVG/1.1/DTD/svg11.dtd">
<svg xmlns:xlink="http://www.w3.org/1999/xlink" width="936pt" height="511.2pt" viewBox="0 0 936 511.2" xmlns="http://www.w3.org/2000/svg" version="1.1">
 <metadata>
  <rdf:RDF xmlns:dc="http://purl.org/dc/elements/1.1/" xmlns:cc="http://creativecommons.org/ns#" xmlns:rdf="http://www.w3.org/1999/02/22-rdf-syntax-ns#">
   <cc:Work>
    <dc:type rdf:resource="http://purl.org/dc/dcmitype/StillImage"/>
    <dc:date>2026-04-11T12:05:09.555939</dc:date>
    <dc:format>image/svg+xml</dc:format>
    <dc:creator>
     <cc:Agent>
      <dc:title>Matplotlib v3.10.8, https://matplotlib.org/</dc:title>
     </cc:Agent>
    </dc:creator>
   </cc:Work>
  </rdf:RDF>
 </metadata>
 <defs>
  <style type="text/css">*{stroke-linejoin: round; stroke-linecap: butt}</style>
 </defs>
 <g id="figure_1">
  <g id="patch_1">
   <path d="M 0 511.2
L 936 511.2
L 936 0
L 0 0
z
" style="fill: #ffffff"/>
  </g>
  <g id="axes_1">
   <g id="patch_2">
    <path d="M 9.36 501.84
L 926.64 501.84
L 926.64 9.36
L 9.36 9.36
z
" style="fill: #ffffff"/>
   </g>
   <g id="matplotlib.axis_1">
    <g id="xtick_1"/>
    <g id="xtick_2"/>
    <g id="xtick_3"/>
    <g id="xtick_4"/>
    <g id="xtick_5"/>
    <g id="xtick_6"/>
    <g id="xtick_7"/>
    <g id="xtick_8"/>
   </g>
   <g id="matplotlib.axis_2">
    <g id="ytick_1"/>
    <g id="ytick_2"/>
    <g id="ytick_3"/>
    <g id="ytick_4"/>
    <g id="ytick_5"/>
    <g id="ytick_6"/>
    <g id="ytick_7"/>
   </g>
   <g id="PolyCollection_1">
    <path d="M 9.36 480.690552
L 9.36 438.391656
L 412.126078 438.391656
L 412.126078 480.690552
z
" clip-path="url(#p3066230d85)" style="fill: #c8d66a"/>
    <path d="M 412.126078 480.690552
L 412.126078 438.391656
L 427.920827 438.391656
L 427.920827 480.690552
z
" clip-path="url(#p3066230d85)" style="fill: #68bed8"/>
    <path d="M 427.920827 480.690552
L 427.920827 438.391656
L 743.81579 438.391656
L 743.81579 480.690552
z
" clip-path="url(#p3066230d85)" style="fill: #4a8fa0"/>
    <path d="M 743.81579 480.690552
L 743.81579 438.391656
L 751.713164 438.391656
L 751.713164 480.690552
z
" clip-path="url(#p3066230d85)" style="fill: #fc9706"/>
    <path d="M 751.713164 480.690552
L 751.713164 438.391656
L 791.200034 438.391656
L 791.200034 480.690552
z
" clip-path="url(#p3066230d85)" style="fill: #ffc729"/>
    <path d="M 791.200034 480.690552
L 791.200034 438.391656
L 799.097409 438.391656
L 799.097409 480.690552
z
" clip-path="url(#p3066230d85)" style="fill: #b0b0b0"/>
    <path d="M 9.36 420.263558
L 9.36 377.964663
L 522.689316 377.964663
L 522.689316 420.263558
z
" clip-path="url(#p3066230d85)" style="fill: #c8d66a"/>
    <path d="M 522.689316 420.263558
L 522.689316 377.964663
L 530.58669 377.964663
L 530.58669 420.263558
z
" clip-path="url(#p3066230d85)" style="fill: #68bed8"/>
    <path d="M 530.58669 420.263558
L 530.58669 377.964663
L 680.636797 377.964663
L 680.636797 420.263558
z
" clip-path="url(#p3066230d85)" style="fill: #4a8fa0"/>
    <path d="M 680.636797 420.263558
L 680.636797 377.964663
L 696.431545 377.964663
L 696.431545 420.263558
z
" clip-path="url(#p3066230d85)" style="fill: #fc9706"/>
    <path d="M 696.431545 420.263558
L 696.431545 377.964663
L 775.405286 377.964663
L 775.405286 420.263558
z
" clip-path="url(#p3066230d85)" style="fill: #ffc729"/>
    <path d="M 775.405286 420.263558
L 775.405286 377.964663
L 799.097409 377.964663
L 799.097409 420.263558
z
" clip-path="url(#p3066230d85)" style="fill: #b0b0b0"/>
    <path d="M 9.36 359.836564
L 9.36 317.537669
L 546.381438 317.537669
L 546.381438 359.836564
z
" clip-path="url(#p3066230d85)" style="fill: #c8d66a"/>
    <path d="M 546.381438 359.836564
L 546.381438 317.537669
L 577.970934 317.537669
L 577.970934 359.836564
z
" clip-path="url(#p3066230d85)" style="fill: #68bed8"/>
    <path d="M 577.970934 359.836564
L 577.970934 317.537669
L 712.226294 317.537669
L 712.226294 359.836564
z
" clip-path="url(#p3066230d85)" style="fill: #4a8fa0"/>
    <path d="M 712.226294 359.836564
L 712.226294 317.537669
L 735.918416 317.537669
L 735.918416 359.836564
z
" clip-path="url(#p3066230d85)" style="fill: #fc9706"/>
    <path d="M 735.918416 359.836564
L 735.918416 317.537669
L 783.30266 317.537669
L 783.30266 359.836564
z
" clip-path="url(#p3066230d85)" style="fill: #ffc729"/>
    <path d="M 783.30266 359.836564
L 783.30266 317.537669
L 799.097409 317.537669
L 799.097409 359.836564
z
" clip-path="url(#p3066230d85)" style="fill: #b0b0b0"/>
    <path d="M 9.36 299.409571
L 9.36 257.110675
L 262.075971 257.110675
L 262.075971 299.409571
z
" clip-path="url(#p3066230d85)" style="fill: #c8d66a"/>
    <path d="M 262.075971 299.409571
L 262.075971 257.110675
L 317.357589 257.110675
L 317.357589 299.409571
z
" clip-path="url(#p3066230d85)" style="fill: #68bed8"/>
    <path d="M 317.357589 299.409571
L 317.357589 257.110675
L 656.944675 257.110675
L 656.944675 299.409571
z
" clip-path="url(#p3066230d85)" style="fill: #4a8fa0"/>
    <path d="M 656.944675 299.409571
L 656.944675 257.110675
L 688.534171 257.110675
L 688.534171 299.409571
z
" clip-path="url(#p3066230d85)" style="fill: #fc9706"/>
    <path d="M 688.534171 299.409571
L 688.534171 257.110675
L 767.507912 257.110675
L 767.507912 299.409571
z
" clip-path="url(#p3066230d85)" style="fill: #ffc729"/>
    <path d="M 767.507912 299.409571
L 767.507912 257.110675
L 799.097409 257.110675
L 799.097409 299.409571
z
" clip-path="url(#p3066230d85)" style="fill: #b0b0b0"/>
    <path d="M 9.36 238.982577
L 9.36 196.683681
L 372.639208 196.683681
L 372.639208 238.982577
z
" clip-path="url(#p3066230d85)" style="fill: #c8d66a"/>
    <path d="M 372.639208 238.982577
L 372.639208 196.683681
L 451.612949 196.683681
L 451.612949 238.982577
z
" clip-path="url(#p3066230d85)" style="fill: #68bed8"/>
    <path d="M 451.612949 238.982577
L 451.612949 196.683681
L 625.355179 196.683681
L 625.355179 238.982577
z
" clip-path="url(#p3066230d85)" style="fill: #4a8fa0"/>
    <path d="M 625.355179 238.982577
L 625.355179 196.683681
L 649.047301 196.683681
L 649.047301 238.982577
z
" clip-path="url(#p3066230d85)" style="fill: #fc9706"/>
    <path d="M 649.047301 238.982577
L 649.047301 196.683681
L 728.021042 196.683681
L 728.021042 238.982577
z
" clip-path="url(#p3066230d85)" style="fill: #ffc729"/>
    <path d="M 728.021042 238.982577
L 728.021042 196.683681
L 799.097409 196.683681
L 799.097409 238.982577
z
" clip-path="url(#p3066230d85)" style="fill: #b0b0b0"/>
    <path d="M 9.36 178.555583
L 9.36 136.256687
L 601.663056 136.256687
L 601.663056 178.555583
z
" clip-path="url(#p3066230d85)" style="fill: #c8d66a"/>
    <path d="M 601.663056 178.555583
L 601.663056 136.256687
L 633.252553 136.256687
L 633.252553 178.555583
z
" clip-path="url(#p3066230d85)" style="fill: #68bed8"/>
    <path d="M 633.252553 178.555583
L 633.252553 136.256687
L 656.944675 136.256687
L 656.944675 178.555583
z
" clip-path="url(#p3066230d85)" style="fill: #4a8fa0"/>
    <path d="M 656.944675 178.555583
L 656.944675 136.256687
L 688.534171 136.256687
L 688.534171 178.555583
z
" clip-path="url(#p3066230d85)" style="fill: #fc9706"/>
    <path d="M 688.534171 178.555583
L 688.534171 136.256687
L 767.507912 136.256687
L 767.507912 178.555583
z
" clip-path="url(#p3066230d85)" style="fill: #ffc729"/>
    <path d="M 767.507912 178.555583
L 767.507912 136.256687
L 791.200034 136.256687
L 791.200034 178.555583
z
" clip-path="url(#p3066230d85)" style="fill: #b0b0b0"/>
    <path d="M 9.36 118.128589
L 9.36 75.829693
L 498.997193 75.829693
L 498.997193 118.128589
z
" clip-path="url(#p3066230d85)" style="fill: #c8d66a"/>
    <path d="M 498.997193 118.128589
L 498.997193 75.829693
L 554.278812 75.829693
L 554.278812 118.128589
z
" clip-path="url(#p3066230d85)" style="fill: #68bed8"/>
    <path d="M 554.278812 118.128589
L 554.278812 75.829693
L 649.047301 75.829693
L 649.047301 118.128589
z
" clip-path="url(#p3066230d85)" style="fill: #4a8fa0"/>
    <path d="M 649.047301 118.128589
L 649.047301 75.829693
L 672.739423 75.829693
L 672.739423 118.128589
z
" clip-path="url(#p3066230d85)" style="fill: #fc9706"/>
    <path d="M 672.739423 118.128589
L 672.739423 75.829693
L 751.713164 75.829693
L 751.713164 118.128589
z
" clip-path="url(#p3066230d85)" style="fill: #ffc729"/>
    <path d="M 751.713164 118.128589
L 751.713164 75.829693
L 799.097409 75.829693
L 799.097409 118.128589
z
" clip-path="url(#p3066230d85)" style="fill: #b0b0b0"/>
   </g>
   <g id="text_1">
    <g clip-path="url(#p3066230d85)">
     <text style="font-weight: 700; font-size: 10px; font-family: 'IBM Plex Sans'; text-anchor: middle; fill: #ffffff" x="210.743039" y="462.241104" transform="rotate(-0 210.743039 462.241104)">51%</text>
    </g>
   </g>
   <g id="text_2">
    <g clip-path="url(#p3066230d85)">
     <text style="font-weight: 700; font-size: 10px; font-family: 'IBM Plex Sans'; text-anchor: middle; fill: #ffffff" x="266.024658" y="401.81411" transform="rotate(-0 266.024658 401.81411)">65%</text>
    </g>
   </g>
   <g id="text_3">
    <g clip-path="url(#p3066230d85)">
     <text style="font-weight: 700; font-size: 10px; font-family: 'IBM Plex Sans'; text-anchor: middle; fill: #ffffff" x="277.870719" y="341.387117" transform="rotate(-0 277.870719 341.387117)">68%</text>
    </g>
   </g>
   <g id="text_4">
    <g clip-path="url(#p3066230d85)">
     <text style="font-weight: 700; font-size: 10px; font-family: 'IBM Plex Sans'; text-anchor: middle; fill: #ffffff" x="135.717985" y="280.960123" transform="rotate(-0 135.717985 280.960123)">32%</text>
    </g>
   </g>
   <g id="text_5">
    <g clip-path="url(#p3066230d85)">
     <text style="font-weight: 700; font-size: 10px; font-family: 'IBM Plex Sans'; text-anchor: middle; fill: #ffffff" x="190.999604" y="220.533129" transform="rotate(-0 190.999604 220.533129)">46%</text>
    </g>
   </g>
   <g id="text_6">
    <g clip-path="url(#p3066230d85)">
     <text style="font-weight: 700; font-size: 10px; font-family: 'IBM Plex Sans'; text-anchor: middle; fill: #ffffff" x="305.511528" y="160.106135" transform="rotate(-0 305.511528 160.106135)">75%</text>
    </g>
   </g>
   <g id="text_7">
    <g clip-path="url(#p3066230d85)">
     <text style="font-weight: 700; font-size: 10px; font-family: 'IBM Plex Sans'; text-anchor: middle; fill: #ffffff" x="254.178597" y="99.679141" transform="rotate(-0 254.178597 99.679141)">62%</text>
    </g>
   </g>
   <g id="text_8">
    <g clip-path="url(#p3066230d85)">
     <text style="font-weight: 700; font-size: 10px; font-family: 'IBM Plex Sans'; text-anchor: middle; fill: #ffffff" x="562.176186" y="341.387117" transform="rotate(-0 562.176186 341.387117)">4%</text>
    </g>
   </g>
   <g id="text_9">
    <g clip-path="url(#p3066230d85)">
     <text style="font-weight: 700; font-size: 10px; font-family: 'IBM Plex Sans'; text-anchor: middle; fill: #ffffff" x="289.71678" y="280.960123" transform="rotate(-0 289.71678 280.960123)">7%</text>
    </g>
   </g>
   <g id="text_10">
    <g clip-path="url(#p3066230d85)">
     <text style="font-weight: 700; font-size: 10px; font-family: 'IBM Plex Sans'; text-anchor: middle; fill: #ffffff" x="412.126078" y="220.533129" transform="rotate(-0 412.126078 220.533129)">10%</text>
    </g>
   </g>
   <g id="text_11">
    <g clip-path="url(#p3066230d85)">
     <text style="font-weight: 700; font-size: 10px; font-family: 'IBM Plex Sans'; text-anchor: middle; fill: #ffffff" x="617.457805" y="160.106135" transform="rotate(-0 617.457805 160.106135)">4%</text>
    </g>
   </g>
   <g id="text_12">
    <g clip-path="url(#p3066230d85)">
     <text style="font-weight: 700; font-size: 10px; font-family: 'IBM Plex Sans'; text-anchor: middle; fill: #ffffff" x="526.638003" y="99.679141" transform="rotate(-0 526.638003 99.679141)">7%</text>
    </g>
   </g>
   <g id="text_13">
    <g clip-path="url(#p3066230d85)">
     <text style="font-weight: 700; font-size: 10px; font-family: 'IBM Plex Sans'; text-anchor: middle; fill: #ffffff" x="570.07356" y="462.241104" transform="rotate(-0 570.07356 462.241104)">40%</text>
    </g>
   </g>
   <g id="text_14">
    <g clip-path="url(#p3066230d85)">
     <text style="font-weight: 700; font-size: 10px; font-family: 'IBM Plex Sans'; text-anchor: middle; fill: #ffffff" x="597.714369" y="401.81411" transform="rotate(-0 597.714369 401.81411)">19%</text>
    </g>
   </g>
   <g id="text_15">
    <g clip-path="url(#p3066230d85)">
     <text style="font-weight: 700; font-size: 10px; font-family: 'IBM Plex Sans'; text-anchor: middle; fill: #ffffff" x="645.098614" y="341.387117" transform="rotate(-0 645.098614 341.387117)">17%</text>
    </g>
   </g>
   <g id="text_16">
    <g clip-path="url(#p3066230d85)">
     <text style="font-weight: 700; font-size: 10px; font-family: 'IBM Plex Sans'; text-anchor: middle; fill: #ffffff" x="487.151132" y="280.960123" transform="rotate(-0 487.151132 280.960123)">43%</text>
    </g>
   </g>
   <g id="text_17">
    <g clip-path="url(#p3066230d85)">
     <text style="font-weight: 700; font-size: 10px; font-family: 'IBM Plex Sans'; text-anchor: middle; fill: #ffffff" x="538.484064" y="220.533129" transform="rotate(-0 538.484064 220.533129)">22%</text>
    </g>
   </g>
   <g id="text_18">
    <g clip-path="url(#p3066230d85)">
     <text style="font-weight: 700; font-size: 10px; font-family: 'IBM Plex Sans'; text-anchor: middle; fill: #ffffff" x="645.098614" y="160.106135" transform="rotate(-0 645.098614 160.106135)">3%</text>
    </g>
   </g>
   <g id="text_19">
    <g clip-path="url(#p3066230d85)">
     <text style="font-weight: 700; font-size: 10px; font-family: 'IBM Plex Sans'; text-anchor: middle; fill: #ffffff" x="601.663056" y="99.679141" transform="rotate(-0 601.663056 99.679141)">12%</text>
    </g>
   </g>
   <g id="text_20">
    <g clip-path="url(#p3066230d85)">
     <text style="font-weight: 700; font-size: 10px; font-family: 'IBM Plex Sans'; text-anchor: middle; fill: #ffffff" x="724.072355" y="341.387117" transform="rotate(-0 724.072355 341.387117)">3%</text>
    </g>
   </g>
   <g id="text_21">
    <g clip-path="url(#p3066230d85)">
     <text style="font-weight: 700; font-size: 10px; font-family: 'IBM Plex Sans'; text-anchor: middle; fill: #ffffff" x="672.739423" y="280.960123" transform="rotate(-0 672.739423 280.960123)">4%</text>
    </g>
   </g>
   <g id="text_22">
    <g clip-path="url(#p3066230d85)">
     <text style="font-weight: 700; font-size: 10px; font-family: 'IBM Plex Sans'; text-anchor: middle; fill: #ffffff" x="637.20124" y="220.533129" transform="rotate(-0 637.20124 220.533129)">3%</text>
    </g>
   </g>
   <g id="text_23">
    <g clip-path="url(#p3066230d85)">
     <text style="font-weight: 700; font-size: 10px; font-family: 'IBM Plex Sans'; text-anchor: middle; fill: #ffffff" x="672.739423" y="160.106135" transform="rotate(-0 672.739423 160.106135)">4%</text>
    </g>
   </g>
   <g id="text_24">
    <g clip-path="url(#p3066230d85)">
     <text style="font-weight: 700; font-size: 10px; font-family: 'IBM Plex Sans'; text-anchor: middle; fill: #ffffff" x="660.893362" y="99.679141" transform="rotate(-0 660.893362 99.679141)">3%</text>
    </g>
   </g>
   <g id="text_25">
    <g clip-path="url(#p3066230d85)">
     <text style="font-weight: 700; font-size: 10px; font-family: 'IBM Plex Sans'; text-anchor: middle; fill: #ffffff" x="747.764477" y="462.241104" transform="rotate(-0 747.764477 462.241104)">5%</text>
    </g>
   </g>
   <g id="text_26">
    <g clip-path="url(#p3066230d85)">
     <text style="font-weight: 700; font-size: 10px; font-family: 'IBM Plex Sans'; text-anchor: middle; fill: #ffffff" x="712.226294" y="401.81411" transform="rotate(-0 712.226294 401.81411)">10%</text>
    </g>
   </g>
   <g id="text_27">
    <g clip-path="url(#p3066230d85)">
     <text style="font-weight: 700; font-size: 10px; font-family: 'IBM Plex Sans'; text-anchor: middle; fill: #ffffff" x="759.610538" y="341.387117" transform="rotate(-0 759.610538 341.387117)">6%</text>
    </g>
   </g>
   <g id="text_28">
    <g clip-path="url(#p3066230d85)">
     <text style="font-weight: 700; font-size: 10px; font-family: 'IBM Plex Sans'; text-anchor: middle; fill: #ffffff" x="728.021042" y="280.960123" transform="rotate(-0 728.021042 280.960123)">10%</text>
    </g>
   </g>
   <g id="text_29">
    <g clip-path="url(#p3066230d85)">
     <text style="font-weight: 700; font-size: 10px; font-family: 'IBM Plex Sans'; text-anchor: middle; fill: #ffffff" x="688.534171" y="220.533129" transform="rotate(-0 688.534171 220.533129)">10%</text>
    </g>
   </g>
   <g id="text_30">
    <g clip-path="url(#p3066230d85)">
     <text style="font-weight: 700; font-size: 10px; font-family: 'IBM Plex Sans'; text-anchor: middle; fill: #ffffff" x="728.021042" y="160.106135" transform="rotate(-0 728.021042 160.106135)">10%</text>
    </g>
   </g>
   <g id="text_31">
    <g clip-path="url(#p3066230d85)">
     <text style="font-weight: 700; font-size: 10px; font-family: 'IBM Plex Sans'; text-anchor: middle; fill: #ffffff" x="712.226294" y="99.679141" transform="rotate(-0 712.226294 99.679141)">10%</text>
    </g>
   </g>
   <g id="text_32">
    <g clip-path="url(#p3066230d85)">
     <text style="font-weight: 700; font-size: 10px; font-family: 'IBM Plex Sans'; text-anchor: middle; fill: #ffffff" x="763.559225" y="401.81411" transform="rotate(-0 763.559225 401.81411)">3%</text>
    </g>
   </g>
   <g id="text_33">
    <g clip-path="url(#p3066230d85)">
     <text style="font-weight: 700; font-size: 10px; font-family: 'IBM Plex Sans'; text-anchor: middle; fill: #ffffff" x="783.30266" y="280.960123" transform="rotate(-0 783.30266 280.960123)">4%</text>
    </g>
   </g>
   <g id="text_34">
    <g clip-path="url(#p3066230d85)">
     <text style="font-weight: 700; font-size: 10px; font-family: 'IBM Plex Sans'; text-anchor: middle; fill: #ffffff" x="763.559225" y="220.533129" transform="rotate(-0 763.559225 220.533129)">9%</text>
    </g>
   </g>
   <g id="text_35">
    <g clip-path="url(#p3066230d85)">
     <text style="font-weight: 700; font-size: 10px; font-family: 'IBM Plex Sans'; text-anchor: middle; fill: #ffffff" x="779.353973" y="160.106135" transform="rotate(-0 779.353973 160.106135)">3%</text>
    </g>
   </g>
   <g id="text_36">
    <g clip-path="url(#p3066230d85)">
     <text style="font-weight: 700; font-size: 10px; font-family: 'IBM Plex Sans'; text-anchor: middle; fill: #ffffff" x="775.405286" y="99.679141" transform="rotate(-0 775.405286 99.679141)">6%</text>
    </g>
   </g>
   <g id="text_37">
    <g clip-path="url(#p3066230d85)">
     <text style="font-weight: 700; font-size: 8px; font-family: 'IBM Plex Sans'; text-anchor: middle; fill: #7a8a10" x="254.178597" y="68.186994" transform="rotate(-0 254.178597 68.186994)">Natural Gas</text>
    </g>
   </g>
   <g id="text_38">
    <g clip-path="url(#p3066230d85)">
     <text style="font-weight: 700; font-size: 8px; font-family: 'IBM Plex Sans'; text-anchor: middle; fill: #3a8fa0" x="526.638003" y="68.186994" transform="rotate(-0 526.638003 68.186994)">Propane</text>
    </g>
   </g>
   <g id="text_39">
    <g clip-path="url(#p3066230d85)">
     <text style="font-weight: 700; font-size: 8px; font-family: 'IBM Plex Sans'; text-anchor: middle; fill: #4a8fa0" x="601.663056" y="68.186994" transform="rotate(-0 601.663056 68.186994)">Fuel Oil</text>
    </g>
   </g>
   <g id="text_40">
    <g clip-path="url(#p3066230d85)">
     <text style="font-weight: 700; font-size: 8px; font-family: 'IBM Plex Sans'; text-anchor: middle; fill: #c47600" x="660.893362" y="68.186994" transform="rotate(-0 660.893362 68.186994)">Heat Pump</text>
    </g>
   </g>
   <g id="text_41">
    <g clip-path="url(#p3066230d85)">
     <text style="font-weight: 700; font-size: 8px; font-family: 'IBM Plex Sans'; text-anchor: middle; fill: #b08e00" x="712.226294" y="68.186994" transform="rotate(-0 712.226294 68.186994)">Resistance</text>
    </g>
   </g>
   <g id="text_42">
    <g clip-path="url(#p3066230d85)">
     <text style="font-weight: 700; font-size: 8px; font-family: 'IBM Plex Sans'; text-anchor: middle; fill: #666666" x="775.405286" y="68.186994" transform="rotate(-0 775.405286 68.186994)">Other</text>
    </g>
   </g>
   <g id="text_43">
    <g clip-path="url(#p3066230d85)">
     <text style="font-weight: 700; font-size: 9px; font-family: 'IBM Plex Sans'; text-anchor: start" x="806.994783" y="461.971104" transform="rotate(-0 806.994783 461.971104)">PSEG-LI</text>
    </g>
   </g>
   <g id="text_44">
    <g clip-path="url(#p3066230d85)">
     <text style="font-weight: 700; font-size: 9px; font-family: 'IBM Plex Sans'; text-anchor: start" x="806.994783" y="401.54411" transform="rotate(-0 806.994783 401.54411)">Con Edison</text>
    </g>
   </g>
   <g id="text_45">
    <g clip-path="url(#p3066230d85)">
     <text style="font-weight: 700; font-size: 9px; font-family: 'IBM Plex Sans'; text-anchor: start" x="806.994783" y="341.117117" transform="rotate(-0 806.994783 341.117117)">O&amp;R</text>
    </g>
   </g>
   <g id="text_46">
    <g clip-path="url(#p3066230d85)">
     <text style="font-weight: 700; font-size: 9px; font-family: 'IBM Plex Sans'; text-anchor: start" x="806.994783" y="280.690123" transform="rotate(-0 806.994783 280.690123)">Central Hudson</text>
    </g>
   </g>
   <g id="text_47">
    <g clip-path="url(#p3066230d85)">
     <text style="font-weight: 700; font-size: 9px; font-family: 'IBM Plex Sans'; text-anchor: start" x="806.994783" y="220.263129" transform="rotate(-0 806.994783 220.263129)">NYSEG</text>
    </g>
   </g>
   <g id="text_48">
    <g clip-path="url(#p3066230d85)">
     <text style="font-weight: 700; font-size: 9px; font-family: 'IBM Plex Sans'; text-anchor: start" x="806.994783" y="159.836135" transform="rotate(-0 806.994783 159.836135)">RG&amp;E</text>
    </g>
   </g>
   <g id="text_49">
    <g clip-path="url(#p3066230d85)">
     <text style="font-weight: 700; font-size: 9px; font-family: 'IBM Plex Sans'; text-anchor: start" x="806.994783" y="99.409141" transform="rotate(-0 806.994783 99.409141)">National Grid</text>
    </g>
   </g>
  </g>
 </g>
 <defs>
  <clipPath id="p3066230d85">
   <rect x="9.36" y="9.36" width="917.28" height="492.48"/>
  </clipPath>
 </defs>
</svg>
