<?xml version="1.0" encoding="utf-8" standalone="no"?>
<!DOCTYPE svg PUBLIC "-//W3C//DTD SVG 1.1//EN"
  "http://www.w3.org/Graphics/SVG/1.1/DTD/svg11.dtd">
<svg xmlns:xlink="http://www.w3.org/1999/xlink" width="1008pt" height="360pt" viewBox="0 0 1008 360" xmlns="http://www.w3.org/2000/svg" version="1.1">
 <metadata>
  <rdf:RDF xmlns:dc="http://purl.org/dc/elements/1.1/" xmlns:cc="http://creativecommons.org/ns#" xmlns:rdf="http://www.w3.org/1999/02/22-rdf-syntax-ns#">
   <cc:Work>
    <dc:type rdf:resource="http://purl.org/dc/dcmitype/StillImage"/>
    <dc:date>2026-04-24T21:08:57.950484</dc:date>
    <dc:format>image/svg+xml</dc:format>
    <dc:creator>
     <cc:Agent>
      <dc:title>Matplotlib v3.10.8, https://matplotlib.org/</dc:title>
     </cc:Agent>
    </dc:creator>
   </cc:Work>
  </rdf:RDF>
 </metadata>
 <defs>
  <style type="text/css">*{stroke-linejoin: round; stroke-linecap: butt}</style>
 </defs>
 <g id="figure_1">
  <g id="patch_1">
   <path d="M 0 360
L 1008 360
L 1008 0
L 0 0
z
" style="fill: #ffffff"/>
  </g>
  <g id="axes_1">
   <g id="patch_2">
    <path d="M 59.342813 334.63
L 997.92 334.63
L 997.92 10.08
L 59.342813 10.08
z
" style="fill: #ffffff"/>
   </g>
   <g id="matplotlib.axis_1">
    <g id="xtick_1">
     <g id="line2d_1">
      <path d="M 98.882344 334.63
" style="fill: none; stroke: #000000; stroke-width: 1.5; stroke-linecap: square"/>
      <defs>
       <path id="m158d2a0e75" d="M 0 0
L 0 2.75
" style="stroke: #000000"/>
      </defs>
      <g>
       <use xlink:href="#m158d2a0e75" x="98.882344" y="334.63" style="stroke: #000000"/>
      </g>
     </g>
     <g id="text_1">
      <text style="font-size: 11px; font-family: 'IBM Plex Sans'; text-anchor: middle; fill: #4d4d4d" x="98.882344" y="347.72" transform="rotate(-0 98.882344 347.72)">Jan</text>
     </g>
    </g>
    <g id="xtick_2">
     <g id="line2d_2">
      <path d="M 166.012279 334.63
" style="fill: none; stroke: #000000; stroke-width: 1.5; stroke-linecap: square"/>
      <g>
       <use xlink:href="#m158d2a0e75" x="166.012279" y="334.63" style="stroke: #000000"/>
      </g>
     </g>
     <g id="text_2">
      <text style="font-size: 11px; font-family: 'IBM Plex Sans'; text-anchor: middle; fill: #4d4d4d" x="166.012279" y="347.72" transform="rotate(-0 166.012279 347.72)">Feb</text>
     </g>
    </g>
    <g id="xtick_3">
     <g id="line2d_3">
      <path d="M 233.142214 334.63
" style="fill: none; stroke: #000000; stroke-width: 1.5; stroke-linecap: square"/>
      <g>
       <use xlink:href="#m158d2a0e75" x="233.142214" y="334.63" style="stroke: #000000"/>
      </g>
     </g>
     <g id="text_3">
      <text style="font-size: 11px; font-family: 'IBM Plex Sans'; text-anchor: middle; fill: #4d4d4d" x="233.142214" y="347.72" transform="rotate(-0 233.142214 347.72)">Mar</text>
     </g>
    </g>
    <g id="xtick_4">
     <g id="line2d_4">
      <path d="M 300.27215 334.63
" style="fill: none; stroke: #000000; stroke-width: 1.5; stroke-linecap: square"/>
      <g>
       <use xlink:href="#m158d2a0e75" x="300.27215" y="334.63" style="stroke: #000000"/>
      </g>
     </g>
     <g id="text_4">
      <text style="font-size: 11px; font-family: 'IBM Plex Sans'; text-anchor: middle; fill: #4d4d4d" x="300.27215" y="347.72" transform="rotate(-0 300.27215 347.72)">Apr</text>
     </g>
    </g>
    <g id="xtick_5">
     <g id="line2d_5">
      <path d="M 367.402085 334.63
" style="fill: none; stroke: #000000; stroke-width: 1.5; stroke-linecap: square"/>
      <g>
       <use xlink:href="#m158d2a0e75" x="367.402085" y="334.63" style="stroke: #000000"/>
      </g>
     </g>
     <g id="text_5">
      <text style="font-size: 11px; font-family: 'IBM Plex Sans'; text-anchor: middle; fill: #4d4d4d" x="367.402085" y="347.72" transform="rotate(-0 367.402085 347.72)">May</text>
     </g>
    </g>
    <g id="xtick_6">
     <g id="line2d_6">
      <path d="M 434.53202 334.63
" style="fill: none; stroke: #000000; stroke-width: 1.5; stroke-linecap: square"/>
      <g>
       <use xlink:href="#m158d2a0e75" x="434.53202" y="334.63" style="stroke: #000000"/>
      </g>
     </g>
     <g id="text_6">
      <text style="font-size: 11px; font-family: 'IBM Plex Sans'; text-anchor: middle; fill: #4d4d4d" x="434.53202" y="347.72" transform="rotate(-0 434.53202 347.72)">Jun</text>
     </g>
    </g>
    <g id="xtick_7">
     <g id="line2d_7">
      <path d="M 501.661955 334.63
" style="fill: none; stroke: #000000; stroke-width: 1.5; stroke-linecap: square"/>
      <g>
       <use xlink:href="#m158d2a0e75" x="501.661955" y="334.63" style="stroke: #000000"/>
      </g>
     </g>
     <g id="text_7">
      <text style="font-size: 11px; font-family: 'IBM Plex Sans'; text-anchor: middle; fill: #4d4d4d" x="501.661955" y="347.72" transform="rotate(-0 501.661955 347.72)">Jul</text>
     </g>
    </g>
    <g id="xtick_8">
     <g id="line2d_8">
      <path d="M 568.79189 334.63
" style="fill: none; stroke: #000000; stroke-width: 1.5; stroke-linecap: square"/>
      <g>
       <use xlink:href="#m158d2a0e75" x="568.79189" y="334.63" style="stroke: #000000"/>
      </g>
     </g>
     <g id="text_8">
      <text style="font-size: 11px; font-family: 'IBM Plex Sans'; text-anchor: middle; fill: #4d4d4d" x="568.79189" y="347.587656" transform="rotate(-0 568.79189 347.587656)">Aug</text>
     </g>
    </g>
    <g id="xtick_9">
     <g id="line2d_9">
      <path d="M 635.921825 334.63
" style="fill: none; stroke: #000000; stroke-width: 1.5; stroke-linecap: square"/>
      <g>
       <use xlink:href="#m158d2a0e75" x="635.921825" y="334.63" style="stroke: #000000"/>
      </g>
     </g>
     <g id="text_9">
      <text style="font-size: 11px; font-family: 'IBM Plex Sans'; text-anchor: middle; fill: #4d4d4d" x="635.921825" y="347.72" transform="rotate(-0 635.921825 347.72)">Sep</text>
     </g>
    </g>
    <g id="xtick_10">
     <g id="line2d_10">
      <path d="M 703.05176 334.63
" style="fill: none; stroke: #000000; stroke-width: 1.5; stroke-linecap: square"/>
      <g>
       <use xlink:href="#m158d2a0e75" x="703.05176" y="334.63" style="stroke: #000000"/>
      </g>
     </g>
     <g id="text_10">
      <text style="font-size: 11px; font-family: 'IBM Plex Sans'; text-anchor: middle; fill: #4d4d4d" x="703.05176" y="347.72" transform="rotate(-0 703.05176 347.72)">Oct</text>
     </g>
    </g>
    <g id="xtick_11">
     <g id="line2d_11">
      <path d="M 770.181695 334.63
" style="fill: none; stroke: #000000; stroke-width: 1.5; stroke-linecap: square"/>
      <g>
       <use xlink:href="#m158d2a0e75" x="770.181695" y="334.63" style="stroke: #000000"/>
      </g>
     </g>
     <g id="text_11">
      <text style="font-size: 11px; font-family: 'IBM Plex Sans'; text-anchor: middle; fill: #4d4d4d" x="770.181695" y="347.72" transform="rotate(-0 770.181695 347.72)">Nov</text>
     </g>
    </g>
    <g id="xtick_12">
     <g id="line2d_12">
      <path d="M 837.31163 334.63
" style="fill: none; stroke: #000000; stroke-width: 1.5; stroke-linecap: square"/>
      <g>
       <use xlink:href="#m158d2a0e75" x="837.31163" y="334.63" style="stroke: #000000"/>
      </g>
     </g>
     <g id="text_12">
      <text style="font-size: 11px; font-family: 'IBM Plex Sans'; text-anchor: middle; fill: #4d4d4d" x="837.31163" y="347.72" transform="rotate(-0 837.31163 347.72)">Dec</text>
     </g>
    </g>
   </g>
   <g id="matplotlib.axis_2">
    <g id="ytick_1">
     <g id="line2d_13">
      <path d="M 59.342813 334.63
L 997.92 334.63
" clip-path="url(#p989b6589ca)" style="fill: none; stroke: #e5e5e5; stroke-linecap: square"/>
     </g>
     <g id="text_13">
      <text style="font-size: 11px; font-family: 'IBM Plex Sans'; text-anchor: start; fill: #4d4d4d" x="50.542812" y="338.7" transform="rotate(-0 50.542812 338.7)">0</text>
     </g>
    </g>
    <g id="ytick_2">
     <g id="line2d_14">
      <path d="M 59.342813 249.986283
L 997.92 249.986283
" clip-path="url(#p989b6589ca)" style="fill: none; stroke: #e5e5e5; stroke-linecap: square"/>
     </g>
     <g id="text_14">
      <text style="font-size: 11px; font-family: 'IBM Plex Sans'; text-anchor: start; fill: #4d4d4d" x="30.742813" y="254.056283" transform="rotate(-0 30.742813 254.056283)">1000</text>
     </g>
    </g>
    <g id="ytick_3">
     <g id="line2d_15">
      <path d="M 59.342813 165.342566
L 997.92 165.342566
" clip-path="url(#p989b6589ca)" style="fill: none; stroke: #e5e5e5; stroke-linecap: square"/>
     </g>
     <g id="text_15">
      <text style="font-size: 11px; font-family: 'IBM Plex Sans'; text-anchor: start; fill: #4d4d4d" x="30.742813" y="169.412566" transform="rotate(-0 30.742813 169.412566)">2000</text>
     </g>
    </g>
    <g id="ytick_4">
     <g id="line2d_16">
      <path d="M 59.342813 80.69885
L 997.92 80.69885
" clip-path="url(#p989b6589ca)" style="fill: none; stroke: #e5e5e5; stroke-linecap: square"/>
     </g>
     <g id="text_16">
      <text style="font-size: 11px; font-family: 'IBM Plex Sans'; text-anchor: start; fill: #4d4d4d" x="30.742813" y="84.76885" transform="rotate(-0 30.742813 84.76885)">3000</text>
     </g>
    </g>
    <g id="ytick_5">
     <g id="line2d_17">
      <path d="M 59.342813 292.308142
L 997.92 292.308142
" clip-path="url(#p989b6589ca)" style="fill: none; stroke: #fafafa; stroke-width: 0.5; stroke-linecap: square"/>
     </g>
    </g>
    <g id="ytick_6">
     <g id="line2d_18">
      <path d="M 59.342813 207.664425
L 997.92 207.664425
" clip-path="url(#p989b6589ca)" style="fill: none; stroke: #fafafa; stroke-width: 0.5; stroke-linecap: square"/>
     </g>
    </g>
    <g id="ytick_7">
     <g id="line2d_19">
      <path d="M 59.342813 123.020708
L 997.92 123.020708
" clip-path="url(#p989b6589ca)" style="fill: none; stroke: #fafafa; stroke-width: 0.5; stroke-linecap: square"/>
     </g>
    </g>
    <g id="ytick_8">
     <g id="line2d_20">
      <path d="M 59.342813 38.376991
L 997.92 38.376991
" clip-path="url(#p989b6589ca)" style="fill: none; stroke: #fafafa; stroke-width: 0.5; stroke-linecap: square"/>
     </g>
    </g>
   </g>
   <g id="PolyCollection_1">
    <path d="M 75.386867 334.63
L 75.386867 272.505659
L 122.377822 272.505659
L 122.377822 334.63
z
" clip-path="url(#p989b6589ca)" style="fill: #c8a200"/>
    <path d="M 75.386867 272.505659
L 75.386867 272.505659
L 122.377822 272.505659
L 122.377822 272.505659
z
" clip-path="url(#p989b6589ca)" style="fill: #c8a200; fill-opacity: 0.35"/>
    <path d="M 75.386867 272.505659
L 75.386867 25.534762
L 122.377822 25.534762
L 122.377822 272.505659
z
" clip-path="url(#p989b6589ca)" style="fill: #ffc729"/>
    <path d="M 142.516802 334.63
L 142.516802 282.212855
L 189.507757 282.212855
L 189.507757 334.63
z
" clip-path="url(#p989b6589ca)" style="fill: #c8a200"/>
    <path d="M 142.516802 282.212855
L 142.516802 282.212855
L 189.507757 282.212855
L 189.507757 282.212855
z
" clip-path="url(#p989b6589ca)" style="fill: #c8a200; fill-opacity: 0.35"/>
    <path d="M 142.516802 282.212855
L 142.516802 163.675424
L 189.507757 163.675424
L 189.507757 282.212855
z
" clip-path="url(#p989b6589ca)" style="fill: #ffc729"/>
    <path d="M 209.646737 334.63
L 209.646737 279.757256
L 256.637692 279.757256
L 256.637692 334.63
z
" clip-path="url(#p989b6589ca)" style="fill: #c8a200"/>
    <path d="M 209.646737 279.757256
L 209.646737 279.757256
L 256.637692 279.757256
L 256.637692 279.757256
z
" clip-path="url(#p989b6589ca)" style="fill: #c8a200; fill-opacity: 0.35"/>
    <path d="M 209.646737 279.757256
L 209.646737 165.005684
L 256.637692 165.005684
L 256.637692 279.757256
z
" clip-path="url(#p989b6589ca)" style="fill: #ffc729"/>
    <path d="M 276.776672 334.63
L 276.776672 288.208931
L 323.767627 288.208931
L 323.767627 334.63
z
" clip-path="url(#p989b6589ca)" style="fill: #c8a200"/>
    <path d="M 276.776672 288.208931
L 276.776672 288.208931
L 323.767627 288.208931
L 323.767627 288.208931
z
" clip-path="url(#p989b6589ca)" style="fill: #c8a200; fill-opacity: 0.35"/>
    <path d="M 276.776672 288.208931
L 276.776672 213.273256
L 323.767627 213.273256
L 323.767627 288.208931
z
" clip-path="url(#p989b6589ca)" style="fill: #ffc729"/>
    <path d="M 343.906607 334.63
L 343.906607 289.741659
L 390.897562 289.741659
L 390.897562 334.63
z
" clip-path="url(#p989b6589ca)" style="fill: #c8a200"/>
    <path d="M 343.906607 289.741659
L 343.906607 283.972259
L 390.897562 283.972259
L 390.897562 289.741659
z
" clip-path="url(#p989b6589ca)" style="fill: #c8a200; fill-opacity: 0.35"/>
    <path d="M 343.906607 283.972259
L 343.906607 283.972259
L 390.897562 283.972259
L 390.897562 283.972259
z
" clip-path="url(#p989b6589ca)" style="fill: #ffc729"/>
    <path d="M 411.036542 334.63
L 411.036542 292.570706
L 458.027497 292.570706
L 458.027497 334.63
z
" clip-path="url(#p989b6589ca)" style="fill: #c8a200"/>
    <path d="M 411.036542 292.570706
L 411.036542 280.216956
L 458.027497 280.216956
L 458.027497 292.570706
z
" clip-path="url(#p989b6589ca)" style="fill: #c8a200; fill-opacity: 0.35"/>
    <path d="M 411.036542 280.216956
L 411.036542 280.216956
L 458.027497 280.216956
L 458.027497 280.216956
z
" clip-path="url(#p989b6589ca)" style="fill: #ffc729"/>
    <path d="M 478.166478 334.63
L 478.166478 271.30465
L 525.157432 271.30465
L 525.157432 334.63
z
" clip-path="url(#p989b6589ca)" style="fill: #c8a200"/>
    <path d="M 478.166478 271.30465
L 478.166478 251.196265
L 525.157432 251.196265
L 525.157432 271.30465
z
" clip-path="url(#p989b6589ca)" style="fill: #c8a200; fill-opacity: 0.35"/>
    <path d="M 478.166478 251.196265
L 478.166478 251.196265
L 525.157432 251.196265
L 525.157432 251.196265
z
" clip-path="url(#p989b6589ca)" style="fill: #ffc729"/>
    <path d="M 545.296413 334.63
L 545.296413 277.332383
L 592.287367 277.332383
L 592.287367 334.63
z
" clip-path="url(#p989b6589ca)" style="fill: #c8a200"/>
    <path d="M 545.296413 277.332383
L 545.296413 259.160139
L 592.287367 259.160139
L 592.287367 277.332383
z
" clip-path="url(#p989b6589ca)" style="fill: #c8a200; fill-opacity: 0.35"/>
    <path d="M 545.296413 259.160139
L 545.296413 259.160139
L 592.287367 259.160139
L 592.287367 259.160139
z
" clip-path="url(#p989b6589ca)" style="fill: #ffc729"/>
    <path d="M 612.426348 334.63
L 612.426348 289.054691
L 659.417302 289.054691
L 659.417302 334.63
z
" clip-path="url(#p989b6589ca)" style="fill: #c8a200"/>
    <path d="M 612.426348 289.054691
L 612.426348 277.661308
L 659.417302 277.661308
L 659.417302 289.054691
z
" clip-path="url(#p989b6589ca)" style="fill: #c8a200; fill-opacity: 0.35"/>
    <path d="M 612.426348 277.661308
L 612.426348 277.661308
L 659.417302 277.661308
L 659.417302 277.661308
z
" clip-path="url(#p989b6589ca)" style="fill: #ffc729"/>
    <path d="M 679.556283 334.63
L 679.556283 288.955065
L 726.547237 288.955065
L 726.547237 334.63
z
" clip-path="url(#p989b6589ca)" style="fill: #c8a200"/>
    <path d="M 679.556283 288.955065
L 679.556283 288.955065
L 726.547237 288.955065
L 726.547237 288.955065
z
" clip-path="url(#p989b6589ca)" style="fill: #c8a200; fill-opacity: 0.35"/>
    <path d="M 679.556283 288.955065
L 679.556283 257.463709
L 726.547237 257.463709
L 726.547237 288.955065
z
" clip-path="url(#p989b6589ca)" style="fill: #ffc729"/>
    <path d="M 746.686218 334.63
L 746.686218 283.769876
L 793.677172 283.769876
L 793.677172 334.63
z
" clip-path="url(#p989b6589ca)" style="fill: #c8a200"/>
    <path d="M 746.686218 283.769876
L 746.686218 283.769876
L 793.677172 283.769876
L 793.677172 283.769876
z
" clip-path="url(#p989b6589ca)" style="fill: #c8a200; fill-opacity: 0.35"/>
    <path d="M 746.686218 283.769876
L 746.686218 178.981632
L 793.677172 178.981632
L 793.677172 283.769876
z
" clip-path="url(#p989b6589ca)" style="fill: #ffc729"/>
    <path d="M 813.816153 334.63
L 813.816153 277.961116
L 860.807108 277.961116
L 860.807108 334.63
z
" clip-path="url(#p989b6589ca)" style="fill: #c8a200"/>
    <path d="M 813.816153 277.961116
L 813.816153 277.961116
L 860.807108 277.961116
L 860.807108 277.961116
z
" clip-path="url(#p989b6589ca)" style="fill: #c8a200; fill-opacity: 0.35"/>
    <path d="M 813.816153 277.961116
L 813.816153 149.263392
L 860.807108 149.263392
L 860.807108 277.961116
z
" clip-path="url(#p989b6589ca)" style="fill: #ffc729"/>
   </g>
   <g id="text_17">
    <g clip-path="url(#p989b6589ca)">
     <text style="font-weight: 700; font-size: 9px; font-family: 'IBM Plex Sans'; fill: #c8a200" transform="translate(877.589591 303.870339)">Electricity use</text>
    </g>
    <g clip-path="url(#p989b6589ca)">
     <text style="font-weight: 700; font-size: 9px; font-family: 'IBM Plex Sans'; fill: #c8a200" transform="translate(877.589591 313.662339)">before heat pump</text>
    </g>
   </g>
   <g id="LineCollection_1">
    <path d="M 847.381121 306.295558
L 874.233095 306.295558
" clip-path="url(#p989b6589ca)" style="fill: none; stroke: #c8a200; stroke-width: 0.886227"/>
   </g>
   <g id="text_18">
    <g clip-path="url(#p989b6589ca)">
     <text style="font-weight: 700; font-size: 9px; font-family: 'IBM Plex Sans'; fill: #d4a800" transform="translate(877.589591 211.187035)">New electricity use</text>
    </g>
    <g clip-path="url(#p989b6589ca)">
     <text style="font-weight: 700; font-size: 9px; font-family: 'IBM Plex Sans'; fill: #d4a800" transform="translate(877.589591 220.979035)">from heat pump</text>
    </g>
   </g>
   <g id="LineCollection_2">
    <path d="M 847.381121 213.612254
L 874.233095 213.612254
" clip-path="url(#p989b6589ca)" style="fill: none; stroke: #d4a800; stroke-width: 0.886227"/>
   </g>
   <g id="text_19">
    <g clip-path="url(#p989b6589ca)">
     <text style="font-weight: 700; font-size: 9px; font-family: 'IBM Plex Sans'; fill: #d4ba46" transform="translate(523.265952 240.68836)">More efficient cooling</text>
    </g>
    <g clip-path="url(#p989b6589ca)">
     <text style="font-weight: 700; font-size: 9px; font-family: 'IBM Plex Sans'; fill: #d4ba46" transform="translate(545.949468 250.588641)">lowers use</text>
    </g>
   </g>
   <g id="patch_3">
    <path d="M 59.342813 334.63
L 997.92 334.63
" style="fill: none; stroke: #000000; stroke-width: 0.5; stroke-linejoin: miter; stroke-linecap: square"/>
   </g>
  </g>
  <g id="text_20">
   <text style="font-size: 13px; font-family: 'GT Planar'; fill: #333333" transform="translate(20.402813 264.556484) rotate(-90)">Electricity consumption (kWh)</text>
  </g>
 </g>
 <defs>
  <clipPath id="p989b6589ca">
   <rect x="59.342813" y="10.08" width="938.577187" height="324.55"/>
  </clipPath>
 </defs>
</svg>
