<?xml version="1.0" encoding="utf-8" standalone="no"?>
<!DOCTYPE svg PUBLIC "-//W3C//DTD SVG 1.1//EN"
  "http://www.w3.org/Graphics/SVG/1.1/DTD/svg11.dtd">
<svg xmlns:xlink="http://www.w3.org/1999/xlink" width="756pt" height="432pt" viewBox="0 0 756 432" xmlns="http://www.w3.org/2000/svg" version="1.1">
 <metadata>
  <rdf:RDF xmlns:dc="http://purl.org/dc/elements/1.1/" xmlns:cc="http://creativecommons.org/ns#" xmlns:rdf="http://www.w3.org/1999/02/22-rdf-syntax-ns#">
   <cc:Work>
    <dc:type rdf:resource="http://purl.org/dc/dcmitype/StillImage"/>
    <dc:date>2026-04-24T02:22:41.947068</dc:date>
    <dc:format>image/svg+xml</dc:format>
    <dc:creator>
     <cc:Agent>
      <dc:title>Matplotlib v3.10.8, https://matplotlib.org/</dc:title>
     </cc:Agent>
    </dc:creator>
   </cc:Work>
  </rdf:RDF>
 </metadata>
 <defs>
  <style type="text/css">*{stroke-linejoin: round; stroke-linecap: butt}</style>
 </defs>
 <g id="figure_1">
  <g id="patch_1">
   <path d="M 0 432
L 756 432
L 756 0
L 0 0
z
" style="fill: #ffffff"/>
  </g>
  <g id="axes_1">
   <g id="patch_2">
    <path d="M 70.022813 191.243594
L 748.44 191.243594
L 748.44 19.182813
L 70.022813 19.182813
z
" style="fill: #ffffff"/>
   </g>
   <g id="matplotlib.axis_1">
    <g id="xtick_1"/>
    <g id="xtick_2"/>
    <g id="xtick_3"/>
    <g id="xtick_4"/>
    <g id="xtick_5"/>
    <g id="xtick_6"/>
    <g id="xtick_7"/>
    <g id="xtick_8"/>
    <g id="xtick_9"/>
   </g>
   <g id="matplotlib.axis_2">
    <g id="ytick_1">
     <g id="line2d_1">
      <path d="M 70.022813 183.422649
L 748.44 183.422649
" clip-path="url(#p78d6537381)" style="fill: none; stroke: #e5e5e5; stroke-linecap: square"/>
     </g>
     <g id="text_1">
      <text style="font-size: 11px; font-family: 'IBM Plex Sans'; text-anchor: start; fill: #4d4d4d" x="61.222813" y="187.492649" transform="rotate(-0 61.222813 187.492649)">0</text>
     </g>
    </g>
    <g id="ytick_2">
     <g id="line2d_2">
      <path d="M 70.022813 128.671152
L 748.44 128.671152
" clip-path="url(#p78d6537381)" style="fill: none; stroke: #e5e5e5; stroke-linecap: square"/>
     </g>
     <g id="text_2">
      <text style="font-size: 11px; font-family: 'IBM Plex Sans'; text-anchor: start; fill: #4d4d4d" x="28.222813" y="132.741152" transform="rotate(-0 28.222813 132.741152)">200000</text>
     </g>
    </g>
    <g id="ytick_3">
     <g id="line2d_3">
      <path d="M 70.022813 73.919655
L 748.44 73.919655
" clip-path="url(#p78d6537381)" style="fill: none; stroke: #e5e5e5; stroke-linecap: square"/>
     </g>
     <g id="text_3">
      <text style="font-size: 11px; font-family: 'IBM Plex Sans'; text-anchor: start; fill: #4d4d4d" x="28.222813" y="77.989655" transform="rotate(-0 28.222813 77.989655)">400000</text>
     </g>
    </g>
    <g id="ytick_4">
     <g id="line2d_4">
      <path d="M 70.022813 156.046901
L 748.44 156.046901
" clip-path="url(#p78d6537381)" style="fill: none; stroke: #fafafa; stroke-width: 0.5; stroke-linecap: square"/>
     </g>
    </g>
    <g id="ytick_5">
     <g id="line2d_5">
      <path d="M 70.022813 101.295404
L 748.44 101.295404
" clip-path="url(#p78d6537381)" style="fill: none; stroke: #fafafa; stroke-width: 0.5; stroke-linecap: square"/>
     </g>
    </g>
    <g id="ytick_6">
     <g id="line2d_6">
      <path d="M 70.022813 46.543907
L 748.44 46.543907
" clip-path="url(#p78d6537381)" style="fill: none; stroke: #fafafa; stroke-width: 0.5; stroke-linecap: square"/>
     </g>
    </g>
   </g>
   <g id="PolyCollection_1">
    <path d="M -229.323131 183.422649
L -229.323131 183.368305
L -215.784872 183.368305
L -215.784872 183.422649
z
" clip-path="url(#p78d6537381)" style="fill: #1b5e20"/>
    <path d="M -108.983053 183.422649
L -108.983053 183.368305
L -95.444794 183.368305
L -95.444794 183.422649
z
" clip-path="url(#p78d6537381)" style="fill: #1b5e20"/>
    <path d="M 11.357025 183.422649
L 11.357025 183.301972
L 24.895283 183.301972
L 24.895283 183.422649
z
" clip-path="url(#p78d6537381)" style="fill: #1b5e20"/>
    <path d="M 41.442044 183.422649
L 41.442044 183.368305
L 54.980303 183.368305
L 54.980303 183.422649
z
" clip-path="url(#p78d6537381)" style="fill: #1b5e20"/>
    <path d="M 71.527063 183.422649
L 71.527063 183.309397
L 85.065322 183.309397
L 85.065322 183.422649
z
" clip-path="url(#p78d6537381)" style="fill: #1b5e20"/>
    <path d="M 86.569573 183.422649
L 86.569573 183.138939
L 100.107832 183.138939
L 100.107832 183.422649
z
" clip-path="url(#p78d6537381)" style="fill: #1b5e20"/>
    <path d="M 101.612083 183.422649
L 101.612083 183.205272
L 115.150342 183.205272
L 115.150342 183.422649
z
" clip-path="url(#p78d6537381)" style="fill: #1b5e20"/>
    <path d="M 116.654593 183.422649
L 116.654593 183.255053
L 130.192851 183.255053
L 130.192851 183.422649
z
" clip-path="url(#p78d6537381)" style="fill: #1b5e20"/>
    <path d="M 131.697102 183.422649
L 131.697102 183.096584
L 145.235361 183.096584
L 145.235361 183.422649
z
" clip-path="url(#p78d6537381)" style="fill: #1b5e20"/>
    <path d="M 146.739612 183.422649
L 146.739612 182.516951
L 160.277871 182.516951
L 160.277871 183.422649
z
" clip-path="url(#p78d6537381)" style="fill: #1b5e20"/>
    <path d="M 161.782122 183.422649
L 161.782122 182.975906
L 175.32038 182.975906
L 175.32038 183.422649
z
" clip-path="url(#p78d6537381)" style="fill: #1b5e20"/>
    <path d="M 176.824631 183.422649
L 176.824631 182.987895
L 190.36289 182.987895
L 190.36289 183.422649
z
" clip-path="url(#p78d6537381)" style="fill: #1b5e20"/>
    <path d="M 191.867141 183.422649
L 191.867141 182.18991
L 205.4054 182.18991
L 205.4054 183.422649
z
" clip-path="url(#p78d6537381)" style="fill: #1b5e20"/>
    <path d="M 206.909651 183.422649
L 206.909651 182.132711
L 220.44791 182.132711
L 220.44791 183.422649
z
" clip-path="url(#p78d6537381)" style="fill: #1b5e20"/>
    <path d="M 221.95216 183.422649
L 221.95216 181.562188
L 235.490419 181.562188
L 235.490419 183.422649
z
" clip-path="url(#p78d6537381)" style="fill: #1b5e20"/>
    <path d="M 236.99467 183.422649
L 236.99467 181.196322
L 250.532929 181.196322
L 250.532929 183.422649
z
" clip-path="url(#p78d6537381)" style="fill: #81c784"/>
    <path d="M 252.03718 183.422649
L 252.03718 180.231465
L 265.575439 180.231465
L 265.575439 183.422649
z
" clip-path="url(#p78d6537381)" style="fill: #81c784"/>
    <path d="M 267.07969 183.422649
L 267.07969 178.827054
L 280.617948 178.827054
L 280.617948 183.422649
z
" clip-path="url(#p78d6537381)" style="fill: #81c784"/>
    <path d="M 282.122199 183.422649
L 282.122199 174.912911
L 295.660458 174.912911
L 295.660458 183.422649
z
" clip-path="url(#p78d6537381)" style="fill: #81c784"/>
    <path d="M 297.164709 183.422649
L 297.164709 171.496302
L 310.702968 171.496302
L 310.702968 183.422649
z
" clip-path="url(#p78d6537381)" style="fill: #81c784"/>
    <path d="M 312.207219 183.422649
L 312.207219 163.461882
L 325.745477 163.461882
L 325.745477 183.422649
z
" clip-path="url(#p78d6537381)" style="fill: #81c784"/>
    <path d="M 327.249728 183.422649
L 327.249728 154.804793
L 340.787987 154.804793
L 340.787987 183.422649
z
" clip-path="url(#p78d6537381)" style="fill: #81c784"/>
    <path d="M 342.292238 183.422649
L 342.292238 136.210947
L 355.830497 136.210947
L 355.830497 183.422649
z
" clip-path="url(#p78d6537381)" style="fill: #81c784"/>
    <path d="M 357.334748 183.422649
L 357.334748 112.463253
L 370.873007 112.463253
L 370.873007 183.422649
z
" clip-path="url(#p78d6537381)" style="fill: #81c784"/>
    <path d="M 372.377257 183.422649
L 372.377257 72.265992
L 385.915516 72.265992
L 385.915516 183.422649
z
" clip-path="url(#p78d6537381)" style="fill: #81c784"/>
    <path d="M 387.419767 183.422649
L 387.419767 45.452334
L 400.958026 45.452334
L 400.958026 183.422649
z
" clip-path="url(#p78d6537381)" style="fill: #ef9a9a"/>
    <path d="M 402.462277 183.422649
L 402.462277 66.12117
L 416.000536 66.12117
L 416.000536 183.422649
z
" clip-path="url(#p78d6537381)" style="fill: #ef9a9a"/>
    <path d="M 417.504787 183.422649
L 417.504787 86.238127
L 431.043045 86.238127
L 431.043045 183.422649
z
" clip-path="url(#p78d6537381)" style="fill: #ef9a9a"/>
    <path d="M 432.547296 183.422649
L 432.547296 108.545397
L 446.085555 108.545397
L 446.085555 183.422649
z
" clip-path="url(#p78d6537381)" style="fill: #ef9a9a"/>
    <path d="M 447.589806 183.422649
L 447.589806 119.568926
L 461.128065 119.568926
L 461.128065 183.422649
z
" clip-path="url(#p78d6537381)" style="fill: #ef9a9a"/>
    <path d="M 462.632316 183.422649
L 462.632316 127.487465
L 476.170574 127.487465
L 476.170574 183.422649
z
" clip-path="url(#p78d6537381)" style="fill: #ef9a9a"/>
    <path d="M 477.674825 183.422649
L 477.674825 134.145694
L 491.213084 134.145694
L 491.213084 183.422649
z
" clip-path="url(#p78d6537381)" style="fill: #ef9a9a"/>
    <path d="M 492.717335 183.422649
L 492.717335 143.618695
L 506.255594 143.618695
L 506.255594 183.422649
z
" clip-path="url(#p78d6537381)" style="fill: #ef9a9a"/>
    <path d="M 507.759845 183.422649
L 507.759845 146.892739
L 521.298104 146.892739
L 521.298104 183.422649
z
" clip-path="url(#p78d6537381)" style="fill: #ef9a9a"/>
    <path d="M 522.802354 183.422649
L 522.802354 152.87486
L 536.340613 152.87486
L 536.340613 183.422649
z
" clip-path="url(#p78d6537381)" style="fill: #ef9a9a"/>
    <path d="M 537.844864 183.422649
L 537.844864 158.785686
L 551.383123 158.785686
L 551.383123 183.422649
z
" clip-path="url(#p78d6537381)" style="fill: #b71c1c"/>
    <path d="M 552.887374 183.422649
L 552.887374 161.97047
L 566.425633 161.97047
L 566.425633 183.422649
z
" clip-path="url(#p78d6537381)" style="fill: #b71c1c"/>
    <path d="M 567.929884 183.422649
L 567.929884 164.651235
L 581.468142 164.651235
L 581.468142 183.422649
z
" clip-path="url(#p78d6537381)" style="fill: #b71c1c"/>
    <path d="M 582.972393 183.422649
L 582.972393 168.082833
L 596.510652 168.082833
L 596.510652 183.422649
z
" clip-path="url(#p78d6537381)" style="fill: #b71c1c"/>
    <path d="M 598.014903 183.422649
L 598.014903 170.674217
L 611.553162 170.674217
L 611.553162 183.422649
z
" clip-path="url(#p78d6537381)" style="fill: #b71c1c"/>
    <path d="M 613.057413 183.422649
L 613.057413 173.189871
L 626.595671 173.189871
L 626.595671 183.422649
z
" clip-path="url(#p78d6537381)" style="fill: #b71c1c"/>
    <path d="M 628.099922 183.422649
L 628.099922 175.039261
L 641.638181 175.039261
L 641.638181 183.422649
z
" clip-path="url(#p78d6537381)" style="fill: #b71c1c"/>
    <path d="M 643.142432 183.422649
L 643.142432 175.441629
L 656.680691 175.441629
L 656.680691 183.422649
z
" clip-path="url(#p78d6537381)" style="fill: #b71c1c"/>
    <path d="M 658.184942 183.422649
L 658.184942 176.91864
L 671.723201 176.91864
L 671.723201 183.422649
z
" clip-path="url(#p78d6537381)" style="fill: #b71c1c"/>
    <path d="M 673.227451 183.422649
L 673.227451 177.347234
L 686.76571 177.347234
L 686.76571 183.422649
z
" clip-path="url(#p78d6537381)" style="fill: #b71c1c"/>
    <path d="M 688.269961 183.422649
L 688.269961 178.750822
L 701.80822 178.750822
L 701.80822 183.422649
z
" clip-path="url(#p78d6537381)" style="fill: #b71c1c"/>
    <path d="M 703.312471 183.422649
L 703.312471 179.13739
L 716.85073 179.13739
L 716.85073 183.422649
z
" clip-path="url(#p78d6537381)" style="fill: #b71c1c"/>
    <path d="M 718.354981 183.422649
L 718.354981 179.674204
L 731.893239 179.674204
L 731.893239 183.422649
z
" clip-path="url(#p78d6537381)" style="fill: #b71c1c"/>
    <path d="M 733.39749 183.422649
L 733.39749 180.247083
L 746.935749 180.247083
L 746.935749 183.422649
z
" clip-path="url(#p78d6537381)" style="fill: #b71c1c"/>
    <path d="M 748.44 183.422649
L 748.44 180.649014
L 761.978259 180.649014
L 761.978259 183.422649
z
" clip-path="url(#p78d6537381)" style="fill: #b71c1c"/>
    <path d="M 763.48251 183.422649
L 763.48251 181.48034
L 777.020768 181.48034
L 777.020768 183.422649
z
" clip-path="url(#p78d6537381)" style="fill: #b71c1c"/>
    <path d="M 778.525019 183.422649
L 778.525019 181.871338
L 792.063278 181.871338
L 792.063278 183.422649
z
" clip-path="url(#p78d6537381)" style="fill: #b71c1c"/>
    <path d="M 793.567529 183.422649
L 793.567529 181.909405
L 807.105788 181.909405
L 807.105788 183.422649
z
" clip-path="url(#p78d6537381)" style="fill: #b71c1c"/>
    <path d="M 808.610039 183.422649
L 808.610039 181.739433
L 822.148298 181.739433
L 822.148298 183.422649
z
" clip-path="url(#p78d6537381)" style="fill: #b71c1c"/>
    <path d="M 823.652549 183.422649
L 823.652549 182.325965
L 837.190807 182.325965
L 837.190807 183.422649
z
" clip-path="url(#p78d6537381)" style="fill: #b71c1c"/>
    <path d="M 838.695058 183.422649
L 838.695058 182.718739
L 852.233317 182.718739
L 852.233317 183.422649
z
" clip-path="url(#p78d6537381)" style="fill: #b71c1c"/>
    <path d="M 853.737568 183.422649
L 853.737568 182.776908
L 867.275827 182.776908
L 867.275827 183.422649
z
" clip-path="url(#p78d6537381)" style="fill: #b71c1c"/>
    <path d="M 868.780078 183.422649
L 868.780078 182.942802
L 882.318336 182.942802
L 882.318336 183.422649
z
" clip-path="url(#p78d6537381)" style="fill: #b71c1c"/>
    <path d="M 883.822587 183.422649
L 883.822587 183.057756
L 897.360846 183.057756
L 897.360846 183.422649
z
" clip-path="url(#p78d6537381)" style="fill: #b71c1c"/>
    <path d="M 898.865097 183.422649
L 898.865097 183.060618
L 912.403356 183.060618
L 912.403356 183.422649
z
" clip-path="url(#p78d6537381)" style="fill: #b71c1c"/>
    <path d="M 913.907607 183.422649
L 913.907607 182.942802
L 927.445865 182.942802
L 927.445865 183.422649
z
" clip-path="url(#p78d6537381)" style="fill: #b71c1c"/>
    <path d="M 928.950116 183.422649
L 928.950116 182.949067
L 942.488375 182.949067
L 942.488375 183.422649
z
" clip-path="url(#p78d6537381)" style="fill: #b71c1c"/>
    <path d="M 943.992626 183.422649
L 943.992626 183.182033
L 957.530885 183.182033
L 957.530885 183.422649
z
" clip-path="url(#p78d6537381)" style="fill: #b71c1c"/>
    <path d="M 959.035136 183.422649
L 959.035136 183.247628
L 972.573395 183.247628
L 972.573395 183.422649
z
" clip-path="url(#p78d6537381)" style="fill: #b71c1c"/>
    <path d="M 974.077646 183.422649
L 974.077646 183.36088
L 987.615904 183.36088
L 987.615904 183.422649
z
" clip-path="url(#p78d6537381)" style="fill: #b71c1c"/>
    <path d="M 989.120155 183.422649
L 989.120155 183.128111
L 1002.658414 183.128111
L 1002.658414 183.422649
z
" clip-path="url(#p78d6537381)" style="fill: #b71c1c"/>
    <path d="M 1004.162665 183.422649
L 1004.162665 183.36088
L 1017.700924 183.36088
L 1017.700924 183.422649
z
" clip-path="url(#p78d6537381)" style="fill: #b71c1c"/>
    <path d="M 1019.205175 183.422649
L 1019.205175 183.301972
L 1032.743433 183.301972
L 1032.743433 183.422649
z
" clip-path="url(#p78d6537381)" style="fill: #b71c1c"/>
    <path d="M 1034.247684 183.422649
L 1034.247684 183.301972
L 1047.785943 183.301972
L 1047.785943 183.422649
z
" clip-path="url(#p78d6537381)" style="fill: #b71c1c"/>
    <path d="M 1049.290194 183.422649
L 1049.290194 183.309397
L 1062.828453 183.309397
L 1062.828453 183.422649
z
" clip-path="url(#p78d6537381)" style="fill: #b71c1c"/>
    <path d="M 1064.332704 183.422649
L 1064.332704 183.301972
L 1077.870962 183.301972
L 1077.870962 183.422649
z
" clip-path="url(#p78d6537381)" style="fill: #b71c1c"/>
    <path d="M 1079.375213 183.422649
L 1079.375213 183.363741
L 1092.913472 183.363741
L 1092.913472 183.422649
z
" clip-path="url(#p78d6537381)" style="fill: #b71c1c"/>
    <path d="M 1124.502743 183.422649
L 1124.502743 183.36088
L 1138.041001 183.36088
L 1138.041001 183.422649
z
" clip-path="url(#p78d6537381)" style="fill: #b71c1c"/>
    <path d="M 1139.545252 183.422649
L 1139.545252 183.36088
L 1153.083511 183.36088
L 1153.083511 183.422649
z
" clip-path="url(#p78d6537381)" style="fill: #b71c1c"/>
    <path d="M 1169.630272 183.422649
L 1169.630272 183.363741
L 1183.16853 183.363741
L 1183.16853 183.422649
z
" clip-path="url(#p78d6537381)" style="fill: #b71c1c"/>
    <path d="M 1184.672781 183.422649
L 1184.672781 183.36088
L 1198.21104 183.36088
L 1198.21104 183.422649
z
" clip-path="url(#p78d6537381)" style="fill: #b71c1c"/>
    <path d="M 1214.757801 183.422649
L 1214.757801 183.301972
L 1228.296059 183.301972
L 1228.296059 183.422649
z
" clip-path="url(#p78d6537381)" style="fill: #b71c1c"/>
    <path d="M 1259.88533 183.422649
L 1259.88533 183.363741
L 1273.423589 183.363741
L 1273.423589 183.422649
z
" clip-path="url(#p78d6537381)" style="fill: #b71c1c"/>
    <path d="M 1305.012859 183.422649
L 1305.012859 183.363741
L 1318.551118 183.363741
L 1318.551118 183.422649
z
" clip-path="url(#p78d6537381)" style="fill: #b71c1c"/>
   </g>
   <g id="LineCollection_1">
    <path d="M 236.242545 191.243594
L 236.242545 19.182813
" clip-path="url(#p78d6537381)" style="fill: none; stroke-dasharray: 0.886227,1.462274; stroke-dashoffset: 0; stroke: #808080; stroke-width: 0.886227"/>
    <path d="M 386.667642 191.243594
L 386.667642 19.182813
" clip-path="url(#p78d6537381)" style="fill: none; stroke-dasharray: 0.886227,1.462274; stroke-dashoffset: 0; stroke: #808080; stroke-width: 0.886227"/>
    <path d="M 537.092739 191.243594
L 537.092739 19.182813
" clip-path="url(#p78d6537381)" style="fill: none; stroke-dasharray: 0.886227,1.462274; stroke-dashoffset: 0; stroke: #808080; stroke-width: 0.886227"/>
   </g>
   <g id="text_4">
    <g clip-path="url(#p78d6537381)">
     <text style="font-size: 9px; font-family: 'IBM Plex Sans'; fill: #1b5e20" transform="translate(140.907892 24.663616)">savings &gt; $1k</text>
    </g>
    <g clip-path="url(#p78d6537381)">
     <text style="font-size: 9px; font-family: 'IBM Plex Sans'; fill: #1b5e20" transform="translate(157.75547 34.563898)">0.6%</text>
    </g>
   </g>
   <g id="text_5">
    <g clip-path="url(#p78d6537381)">
     <text style="font-size: 9px; font-family: 'IBM Plex Sans'; fill: #81c784" transform="translate(283.077671 24.663616)">savings $0-1k</text>
    </g>
    <g clip-path="url(#p78d6537381)">
     <text style="font-size: 9px; font-family: 'IBM Plex Sans'; fill: #81c784" transform="translate(297.959312 34.563898)">26.1%</text>
    </g>
   </g>
   <g id="text_6">
    <g clip-path="url(#p78d6537381)">
     <text style="font-size: 9px; font-family: 'IBM Plex Sans'; fill: #b71c1c" transform="translate(601.972016 24.537757)">losses &gt; $1k</text>
    </g>
    <g clip-path="url(#p78d6537381)">
     <text style="font-size: 9px; font-family: 'IBM Plex Sans'; fill: #b71c1c" transform="translate(613.852016 34.329757)">13.9%</text>
    </g>
   </g>
   <g id="text_7">
    <g clip-path="url(#p78d6537381)">
     <text style="font-size: 9px; font-family: 'IBM Plex Sans'; fill: #ef9a9a" transform="translate(435.770346 24.537757)">losses $0-1k</text>
    </g>
    <g clip-path="url(#p78d6537381)">
     <text style="font-size: 9px; font-family: 'IBM Plex Sans'; fill: #ef9a9a" transform="translate(448.384409 34.329757)">59.4%</text>
    </g>
   </g>
   <g id="patch_3">
    <path d="M 70.022812 191.243594
L 748.44 191.243594
" style="fill: none; stroke: #000000; stroke-width: 0.5; stroke-linejoin: miter; stroke-linecap: square"/>
   </g>
  </g>
  <g id="axes_2">
   <g id="patch_4">
    <path d="M 70.022813 382.487188
L 748.44 382.487188
L 748.44 210.426406
L 70.022813 210.426406
z
" style="fill: #ffffff"/>
   </g>
   <g id="matplotlib.axis_3">
    <g id="xtick_10">
     <g id="line2d_7">
      <path d="M 85.817448 382.487188
" style="fill: none; stroke: #000000; stroke-width: 1.5; stroke-linecap: square"/>
      <defs>
       <path id="m31cd7695f4" d="M 0 0
L 0 2.75
" style="stroke: #000000"/>
      </defs>
      <g>
       <use xlink:href="#m31cd7695f4" x="85.817448" y="382.487188" style="stroke: #000000"/>
      </g>
     </g>
     <g id="text_8">
      <text style="font-size: 11px; font-family: 'IBM Plex Sans'; text-anchor: middle; fill: #4d4d4d" x="85.817448" y="395.577188" transform="rotate(-0 85.817448 395.577188)">-2000</text>
     </g>
    </g>
    <g id="xtick_11">
     <g id="line2d_8">
      <path d="M 236.242545 382.487188
" style="fill: none; stroke: #000000; stroke-width: 1.5; stroke-linecap: square"/>
      <g>
       <use xlink:href="#m31cd7695f4" x="236.242545" y="382.487188" style="stroke: #000000"/>
      </g>
     </g>
     <g id="text_9">
      <text style="font-size: 11px; font-family: 'IBM Plex Sans'; text-anchor: middle; fill: #4d4d4d" x="236.242545" y="395.577188" transform="rotate(-0 236.242545 395.577188)">-1000</text>
     </g>
    </g>
    <g id="xtick_12">
     <g id="line2d_9">
      <path d="M 386.667642 382.487188
" style="fill: none; stroke: #000000; stroke-width: 1.5; stroke-linecap: square"/>
      <g>
       <use xlink:href="#m31cd7695f4" x="386.667642" y="382.487188" style="stroke: #000000"/>
      </g>
     </g>
     <g id="text_10">
      <text style="font-size: 11px; font-family: 'IBM Plex Sans'; text-anchor: middle; fill: #4d4d4d" x="386.667642" y="395.577188" transform="rotate(-0 386.667642 395.577188)">0</text>
     </g>
    </g>
    <g id="xtick_13">
     <g id="line2d_10">
      <path d="M 537.092739 382.487188
" style="fill: none; stroke: #000000; stroke-width: 1.5; stroke-linecap: square"/>
      <g>
       <use xlink:href="#m31cd7695f4" x="537.092739" y="382.487188" style="stroke: #000000"/>
      </g>
     </g>
     <g id="text_11">
      <text style="font-size: 11px; font-family: 'IBM Plex Sans'; text-anchor: middle; fill: #4d4d4d" x="537.092739" y="395.577188" transform="rotate(-0 537.092739 395.577188)">1000</text>
     </g>
    </g>
    <g id="xtick_14">
     <g id="line2d_11">
      <path d="M 687.517836 382.487188
" style="fill: none; stroke: #000000; stroke-width: 1.5; stroke-linecap: square"/>
      <g>
       <use xlink:href="#m31cd7695f4" x="687.517836" y="382.487188" style="stroke: #000000"/>
      </g>
     </g>
     <g id="text_12">
      <text style="font-size: 11px; font-family: 'IBM Plex Sans'; text-anchor: middle; fill: #4d4d4d" x="687.517836" y="395.577188" transform="rotate(-0 687.517836 395.577188)">2000</text>
     </g>
    </g>
    <g id="xtick_15">
     <g id="line2d_12">
      <path d="M 161.029996 382.487188
" style="fill: none; stroke: #000000; stroke-width: 1.5; stroke-linecap: square"/>
      <defs>
       <path id="m0df5173e89" d="M 0 0
L 0 1.375
" style="stroke: #000000"/>
      </defs>
      <g>
       <use xlink:href="#m0df5173e89" x="161.029996" y="382.487188" style="stroke: #000000"/>
      </g>
     </g>
    </g>
    <g id="xtick_16">
     <g id="line2d_13">
      <path d="M 311.455093 382.487188
" style="fill: none; stroke: #000000; stroke-width: 1.5; stroke-linecap: square"/>
      <g>
       <use xlink:href="#m0df5173e89" x="311.455093" y="382.487188" style="stroke: #000000"/>
      </g>
     </g>
    </g>
    <g id="xtick_17">
     <g id="line2d_14">
      <path d="M 461.88019 382.487188
" style="fill: none; stroke: #000000; stroke-width: 1.5; stroke-linecap: square"/>
      <g>
       <use xlink:href="#m0df5173e89" x="461.88019" y="382.487188" style="stroke: #000000"/>
      </g>
     </g>
    </g>
    <g id="xtick_18">
     <g id="line2d_15">
      <path d="M 612.305287 382.487188
" style="fill: none; stroke: #000000; stroke-width: 1.5; stroke-linecap: square"/>
      <g>
       <use xlink:href="#m0df5173e89" x="612.305287" y="382.487188" style="stroke: #000000"/>
      </g>
     </g>
    </g>
   </g>
   <g id="matplotlib.axis_4">
    <g id="ytick_7">
     <g id="line2d_16">
      <path d="M 70.022813 374.666243
L 748.44 374.666243
" clip-path="url(#pabee3b194e)" style="fill: none; stroke: #e5e5e5; stroke-linecap: square"/>
     </g>
     <g id="text_13">
      <text style="font-size: 11px; font-family: 'IBM Plex Sans'; text-anchor: start; fill: #4d4d4d" x="61.222813" y="378.736243" transform="rotate(-0 61.222813 378.736243)">0</text>
     </g>
    </g>
    <g id="ytick_8">
     <g id="line2d_17">
      <path d="M 70.022813 319.914746
L 748.44 319.914746
" clip-path="url(#pabee3b194e)" style="fill: none; stroke: #e5e5e5; stroke-linecap: square"/>
     </g>
     <g id="text_14">
      <text style="font-size: 11px; font-family: 'IBM Plex Sans'; text-anchor: start; fill: #4d4d4d" x="28.222813" y="323.984746" transform="rotate(-0 28.222813 323.984746)">200000</text>
     </g>
    </g>
    <g id="ytick_9">
     <g id="line2d_18">
      <path d="M 70.022813 265.163249
L 748.44 265.163249
" clip-path="url(#pabee3b194e)" style="fill: none; stroke: #e5e5e5; stroke-linecap: square"/>
     </g>
     <g id="text_15">
      <text style="font-size: 11px; font-family: 'IBM Plex Sans'; text-anchor: start; fill: #4d4d4d" x="28.222813" y="269.233249" transform="rotate(-0 28.222813 269.233249)">400000</text>
     </g>
    </g>
    <g id="ytick_10">
     <g id="line2d_19">
      <path d="M 70.022813 347.290494
L 748.44 347.290494
" clip-path="url(#pabee3b194e)" style="fill: none; stroke: #fafafa; stroke-width: 0.5; stroke-linecap: square"/>
     </g>
    </g>
    <g id="ytick_11">
     <g id="line2d_20">
      <path d="M 70.022813 292.538997
L 748.44 292.538997
" clip-path="url(#pabee3b194e)" style="fill: none; stroke: #fafafa; stroke-width: 0.5; stroke-linecap: square"/>
     </g>
    </g>
    <g id="ytick_12">
     <g id="line2d_21">
      <path d="M 70.022813 237.7875
L 748.44 237.7875
" clip-path="url(#pabee3b194e)" style="fill: none; stroke: #fafafa; stroke-width: 0.5; stroke-linecap: square"/>
     </g>
    </g>
   </g>
   <g id="PolyCollection_2">
    <path d="M -635.470892 374.666243
L -635.470892 374.611899
L -621.932634 374.611899
L -621.932634 374.666243
z
" clip-path="url(#pabee3b194e)" style="fill: #1b5e20"/>
    <path d="M -530.173325 374.666243
L -530.173325 374.611899
L -516.635066 374.611899
L -516.635066 374.666243
z
" clip-path="url(#pabee3b194e)" style="fill: #1b5e20"/>
    <path d="M -470.003286 374.666243
L -470.003286 374.611899
L -456.465027 374.611899
L -456.465027 374.666243
z
" clip-path="url(#pabee3b194e)" style="fill: #1b5e20"/>
    <path d="M -349.663208 374.666243
L -349.663208 374.611899
L -336.124949 374.611899
L -336.124949 374.666243
z
" clip-path="url(#pabee3b194e)" style="fill: #1b5e20"/>
    <path d="M -319.578189 374.666243
L -319.578189 374.603511
L -306.03993 374.603511
L -306.03993 374.666243
z
" clip-path="url(#pabee3b194e)" style="fill: #1b5e20"/>
    <path d="M -304.535679 374.666243
L -304.535679 374.611899
L -290.99742 374.611899
L -290.99742 374.666243
z
" clip-path="url(#pabee3b194e)" style="fill: #1b5e20"/>
    <path d="M -289.493169 374.666243
L -289.493169 374.611899
L -275.954911 374.611899
L -275.954911 374.666243
z
" clip-path="url(#pabee3b194e)" style="fill: #1b5e20"/>
    <path d="M -274.45066 374.666243
L -274.45066 374.557554
L -260.912401 374.557554
L -260.912401 374.666243
z
" clip-path="url(#pabee3b194e)" style="fill: #1b5e20"/>
    <path d="M -259.40815 374.666243
L -259.40815 374.611899
L -245.869891 374.611899
L -245.869891 374.666243
z
" clip-path="url(#pabee3b194e)" style="fill: #1b5e20"/>
    <path d="M -244.36564 374.666243
L -244.36564 374.611899
L -230.827382 374.611899
L -230.827382 374.666243
z
" clip-path="url(#pabee3b194e)" style="fill: #1b5e20"/>
    <path d="M -214.280621 374.666243
L -214.280621 374.448866
L -200.742362 374.448866
L -200.742362 374.666243
z
" clip-path="url(#pabee3b194e)" style="fill: #1b5e20"/>
    <path d="M -199.238111 374.666243
L -199.238111 374.498647
L -185.699852 374.498647
L -185.699852 374.666243
z
" clip-path="url(#pabee3b194e)" style="fill: #1b5e20"/>
    <path d="M -184.195601 374.666243
L -184.195601 374.498647
L -170.657343 374.498647
L -170.657343 374.666243
z
" clip-path="url(#pabee3b194e)" style="fill: #1b5e20"/>
    <path d="M -169.153092 374.666243
L -169.153092 374.549166
L -155.614833 374.549166
L -155.614833 374.666243
z
" clip-path="url(#pabee3b194e)" style="fill: #1b5e20"/>
    <path d="M -154.110582 374.666243
L -154.110582 374.433052
L -140.572323 374.433052
L -140.572323 374.666243
z
" clip-path="url(#pabee3b194e)" style="fill: #1b5e20"/>
    <path d="M -139.068072 374.666243
L -139.068072 374.231489
L -125.529814 374.231489
L -125.529814 374.666243
z
" clip-path="url(#pabee3b194e)" style="fill: #1b5e20"/>
    <path d="M -124.025563 374.666243
L -124.025563 374.448866
L -110.487304 374.448866
L -110.487304 374.666243
z
" clip-path="url(#pabee3b194e)" style="fill: #1b5e20"/>
    <path d="M -108.983053 374.666243
L -108.983053 374.277445
L -95.444794 374.277445
L -95.444794 374.666243
z
" clip-path="url(#pabee3b194e)" style="fill: #1b5e20"/>
    <path d="M -93.940543 374.666243
L -93.940543 373.927659
L -80.402285 373.927659
L -80.402285 374.666243
z
" clip-path="url(#pabee3b194e)" style="fill: #1b5e20"/>
    <path d="M -78.898034 374.666243
L -78.898034 374.231489
L -65.359775 374.231489
L -65.359775 374.666243
z
" clip-path="url(#pabee3b194e)" style="fill: #1b5e20"/>
    <path d="M -63.855524 374.666243
L -63.855524 373.897035
L -50.317265 373.897035
L -50.317265 374.666243
z
" clip-path="url(#pabee3b194e)" style="fill: #1b5e20"/>
    <path d="M -48.813014 374.666243
L -48.813014 373.391861
L -35.274755 373.391861
L -35.274755 374.666243
z
" clip-path="url(#pabee3b194e)" style="fill: #1b5e20"/>
    <path d="M -33.770504 374.666243
L -33.770504 373.99135
L -20.232246 373.99135
L -20.232246 374.666243
z
" clip-path="url(#pabee3b194e)" style="fill: #1b5e20"/>
    <path d="M -18.727995 374.666243
L -18.727995 373.707361
L -5.189736 373.707361
L -5.189736 374.666243
z
" clip-path="url(#pabee3b194e)" style="fill: #1b5e20"/>
    <path d="M -3.685485 374.666243
L -3.685485 373.712663
L 9.852774 373.712663
L 9.852774 374.666243
z
" clip-path="url(#pabee3b194e)" style="fill: #1b5e20"/>
    <path d="M 11.357025 374.666243
L 11.357025 373.172287
L 24.895283 373.172287
L 24.895283 374.666243
z
" clip-path="url(#pabee3b194e)" style="fill: #1b5e20"/>
    <path d="M 26.399534 374.666243
L 26.399534 372.749451
L 39.937793 372.749451
L 39.937793 374.666243
z
" clip-path="url(#pabee3b194e)" style="fill: #1b5e20"/>
    <path d="M 41.442044 374.666243
L 41.442044 372.731056
L 54.980303 372.731056
L 54.980303 374.666243
z
" clip-path="url(#pabee3b194e)" style="fill: #1b5e20"/>
    <path d="M 56.484554 374.666243
L 56.484554 372.441612
L 70.022812 372.441612
L 70.022812 374.666243
z
" clip-path="url(#pabee3b194e)" style="fill: #1b5e20"/>
    <path d="M 71.527063 374.666243
L 71.527063 372.188345
L 85.065322 372.188345
L 85.065322 374.666243
z
" clip-path="url(#pabee3b194e)" style="fill: #1b5e20"/>
    <path d="M 86.569573 374.666243
L 86.569573 371.425769
L 100.107832 371.425769
L 100.107832 374.666243
z
" clip-path="url(#pabee3b194e)" style="fill: #1b5e20"/>
    <path d="M 101.612083 374.666243
L 101.612083 370.513109
L 115.150342 370.513109
L 115.150342 374.666243
z
" clip-path="url(#pabee3b194e)" style="fill: #1b5e20"/>
    <path d="M 116.654593 374.666243
L 116.654593 369.635379
L 130.192851 369.635379
L 130.192851 374.666243
z
" clip-path="url(#pabee3b194e)" style="fill: #1b5e20"/>
    <path d="M 131.697102 374.666243
L 131.697102 369.142365
L 145.235361 369.142365
L 145.235361 374.666243
z
" clip-path="url(#pabee3b194e)" style="fill: #1b5e20"/>
    <path d="M 146.739612 374.666243
L 146.739612 367.929461
L 160.277871 367.929461
L 160.277871 374.666243
z
" clip-path="url(#pabee3b194e)" style="fill: #1b5e20"/>
    <path d="M 161.782122 374.666243
L 161.782122 367.382627
L 175.32038 367.382627
L 175.32038 374.666243
z
" clip-path="url(#pabee3b194e)" style="fill: #1b5e20"/>
    <path d="M 176.824631 374.666243
L 176.824631 364.531365
L 190.36289 364.531365
L 190.36289 374.666243
z
" clip-path="url(#pabee3b194e)" style="fill: #1b5e20"/>
    <path d="M 191.867141 374.666243
L 191.867141 362.368894
L 205.4054 362.368894
L 205.4054 374.666243
z
" clip-path="url(#pabee3b194e)" style="fill: #1b5e20"/>
    <path d="M 206.909651 374.666243
L 206.909651 357.872151
L 220.44791 357.872151
L 220.44791 374.666243
z
" clip-path="url(#pabee3b194e)" style="fill: #1b5e20"/>
    <path d="M 221.95216 374.666243
L 221.95216 353.917168
L 235.490419 353.917168
L 235.490419 374.666243
z
" clip-path="url(#pabee3b194e)" style="fill: #1b5e20"/>
    <path d="M 236.99467 374.666243
L 236.99467 349.207076
L 250.532929 349.207076
L 250.532929 374.666243
z
" clip-path="url(#pabee3b194e)" style="fill: #81c784"/>
    <path d="M 252.03718 374.666243
L 252.03718 345.37161
L 265.575439 345.37161
L 265.575439 374.666243
z
" clip-path="url(#pabee3b194e)" style="fill: #81c784"/>
    <path d="M 267.07969 374.666243
L 267.07969 337.6555
L 280.617948 337.6555
L 280.617948 374.666243
z
" clip-path="url(#pabee3b194e)" style="fill: #81c784"/>
    <path d="M 282.122199 374.666243
L 282.122199 331.707423
L 295.660458 331.707423
L 295.660458 374.666243
z
" clip-path="url(#pabee3b194e)" style="fill: #81c784"/>
    <path d="M 297.164709 374.666243
L 297.164709 320.68389
L 310.702968 320.68389
L 310.702968 374.666243
z
" clip-path="url(#pabee3b194e)" style="fill: #81c784"/>
    <path d="M 312.207219 374.666243
L 312.207219 310.915366
L 325.745477 310.915366
L 325.745477 374.666243
z
" clip-path="url(#pabee3b194e)" style="fill: #81c784"/>
    <path d="M 327.249728 374.666243
L 327.249728 285.301877
L 340.787987 285.301877
L 340.787987 374.666243
z
" clip-path="url(#pabee3b194e)" style="fill: #81c784"/>
    <path d="M 342.292238 374.666243
L 342.292238 263.236117
L 355.830497 263.236117
L 355.830497 374.666243
z
" clip-path="url(#pabee3b194e)" style="fill: #81c784"/>
    <path d="M 357.334748 374.666243
L 357.334748 233.287328
L 370.873007 233.287328
L 370.873007 374.666243
z
" clip-path="url(#pabee3b194e)" style="fill: #81c784"/>
    <path d="M 372.377257 374.666243
L 372.377257 225.69587
L 385.915516 225.69587
L 385.915516 374.666243
z
" clip-path="url(#pabee3b194e)" style="fill: #81c784"/>
    <path d="M 387.419767 374.666243
L 387.419767 260.559678
L 400.958026 260.559678
L 400.958026 374.666243
z
" clip-path="url(#pabee3b194e)" style="fill: #ef9a9a"/>
    <path d="M 402.462277 374.666243
L 402.462277 311.179709
L 416.000536 311.179709
L 416.000536 374.666243
z
" clip-path="url(#pabee3b194e)" style="fill: #ef9a9a"/>
    <path d="M 417.504787 374.666243
L 417.504787 330.828531
L 431.043045 330.828531
L 431.043045 374.666243
z
" clip-path="url(#pabee3b194e)" style="fill: #ef9a9a"/>
    <path d="M 432.547296 374.666243
L 432.547296 342.393697
L 446.085555 342.393697
L 446.085555 374.666243
z
" clip-path="url(#pabee3b194e)" style="fill: #ef9a9a"/>
    <path d="M 447.589806 374.666243
L 447.589806 351.64483
L 461.128065 351.64483
L 461.128065 374.666243
z
" clip-path="url(#pabee3b194e)" style="fill: #ef9a9a"/>
    <path d="M 462.632316 374.666243
L 462.632316 356.997409
L 476.170574 356.997409
L 476.170574 374.666243
z
" clip-path="url(#pabee3b194e)" style="fill: #ef9a9a"/>
    <path d="M 477.674825 374.666243
L 477.674825 363.518442
L 491.213084 363.518442
L 491.213084 374.666243
z
" clip-path="url(#pabee3b194e)" style="fill: #ef9a9a"/>
    <path d="M 492.717335 374.666243
L 492.717335 367.714487
L 506.255594 367.714487
L 506.255594 374.666243
z
" clip-path="url(#pabee3b194e)" style="fill: #ef9a9a"/>
    <path d="M 507.759845 374.666243
L 507.759845 370.829091
L 521.298104 370.829091
L 521.298104 374.666243
z
" clip-path="url(#pabee3b194e)" style="fill: #ef9a9a"/>
    <path d="M 522.802354 374.666243
L 522.802354 370.518276
L 536.340613 370.518276
L 536.340613 374.666243
z
" clip-path="url(#pabee3b194e)" style="fill: #ef9a9a"/>
    <path d="M 537.844864 374.666243
L 537.844864 372.693052
L 551.383123 372.693052
L 551.383123 374.666243
z
" clip-path="url(#pabee3b194e)" style="fill: #b71c1c"/>
    <path d="M 552.887374 374.666243
L 552.887374 372.94013
L 566.425633 372.94013
L 566.425633 374.666243
z
" clip-path="url(#pabee3b194e)" style="fill: #b71c1c"/>
    <path d="M 567.929884 374.666243
L 567.929884 373.111988
L 581.468142 373.111988
L 581.468142 374.666243
z
" clip-path="url(#pabee3b194e)" style="fill: #b71c1c"/>
    <path d="M 582.972393 374.666243
L 582.972393 373.70825
L 596.510652 373.70825
L 596.510652 374.666243
z
" clip-path="url(#pabee3b194e)" style="fill: #b71c1c"/>
    <path d="M 598.014903 374.666243
L 598.014903 373.838055
L 611.553162 373.838055
L 611.553162 374.666243
z
" clip-path="url(#pabee3b194e)" style="fill: #b71c1c"/>
    <path d="M 613.057413 374.666243
L 613.057413 374.548428
L 626.595671 374.548428
L 626.595671 374.666243
z
" clip-path="url(#pabee3b194e)" style="fill: #b71c1c"/>
    <path d="M 628.099922 374.666243
L 628.099922 374.430612
L 641.638181 374.430612
L 641.638181 374.666243
z
" clip-path="url(#pabee3b194e)" style="fill: #b71c1c"/>
    <path d="M 643.142432 374.666243
L 643.142432 374.312797
L 656.680691 374.312797
L 656.680691 374.666243
z
" clip-path="url(#pabee3b194e)" style="fill: #b71c1c"/>
    <path d="M 658.184942 374.666243
L 658.184942 374.430612
L 671.723201 374.430612
L 671.723201 374.666243
z
" clip-path="url(#pabee3b194e)" style="fill: #b71c1c"/>
    <path d="M 673.227451 374.666243
L 673.227451 374.545566
L 686.76571 374.545566
L 686.76571 374.666243
z
" clip-path="url(#pabee3b194e)" style="fill: #b71c1c"/>
    <path d="M 688.269961 374.666243
L 688.269961 374.604473
L 701.80822 374.604473
L 701.80822 374.666243
z
" clip-path="url(#pabee3b194e)" style="fill: #b71c1c"/>
    <path d="M 703.312471 374.666243
L 703.312471 374.548428
L 716.85073 374.548428
L 716.85073 374.666243
z
" clip-path="url(#pabee3b194e)" style="fill: #b71c1c"/>
    <path d="M 718.354981 374.666243
L 718.354981 374.604473
L 731.893239 374.604473
L 731.893239 374.666243
z
" clip-path="url(#pabee3b194e)" style="fill: #b71c1c"/>
    <path d="M 733.39749 374.666243
L 733.39749 374.607335
L 746.935749 374.607335
L 746.935749 374.666243
z
" clip-path="url(#pabee3b194e)" style="fill: #b71c1c"/>
    <path d="M 748.44 374.666243
L 748.44 374.545566
L 761.978259 374.545566
L 761.978259 374.666243
z
" clip-path="url(#pabee3b194e)" style="fill: #b71c1c"/>
    <path d="M 763.48251 374.666243
L 763.48251 374.607335
L 777.020768 374.607335
L 777.020768 374.666243
z
" clip-path="url(#pabee3b194e)" style="fill: #b71c1c"/>
    <path d="M 793.567529 374.666243
L 793.567529 374.607335
L 807.105788 374.607335
L 807.105788 374.666243
z
" clip-path="url(#pabee3b194e)" style="fill: #b71c1c"/>
    <path d="M 868.780078 374.666243
L 868.780078 374.607335
L 882.318336 374.607335
L 882.318336 374.666243
z
" clip-path="url(#pabee3b194e)" style="fill: #b71c1c"/>
   </g>
   <g id="LineCollection_2">
    <path d="M 236.242545 382.487188
L 236.242545 210.426406
" clip-path="url(#pabee3b194e)" style="fill: none; stroke-dasharray: 0.886227,1.462274; stroke-dashoffset: 0; stroke: #808080; stroke-width: 0.886227"/>
    <path d="M 386.667642 382.487188
L 386.667642 210.426406
" clip-path="url(#pabee3b194e)" style="fill: none; stroke-dasharray: 0.886227,1.462274; stroke-dashoffset: 0; stroke: #808080; stroke-width: 0.886227"/>
    <path d="M 537.092739 382.487188
L 537.092739 210.426406
" clip-path="url(#pabee3b194e)" style="fill: none; stroke-dasharray: 0.886227,1.462274; stroke-dashoffset: 0; stroke: #808080; stroke-width: 0.886227"/>
   </g>
   <g id="text_16">
    <g clip-path="url(#pabee3b194e)">
     <text style="font-size: 9px; font-family: 'IBM Plex Sans'; fill: #1b5e20" transform="translate(140.907892 215.90721)">savings &gt; $1k</text>
    </g>
    <g clip-path="url(#pabee3b194e)">
     <text style="font-size: 9px; font-family: 'IBM Plex Sans'; fill: #1b5e20" transform="translate(157.75547 225.807491)">9.3%</text>
    </g>
   </g>
   <g id="text_17">
    <g clip-path="url(#pabee3b194e)">
     <text style="font-size: 9px; font-family: 'IBM Plex Sans'; fill: #81c784" transform="translate(283.077671 215.90721)">savings $0-1k</text>
    </g>
    <g clip-path="url(#pabee3b194e)">
     <text style="font-size: 9px; font-family: 'IBM Plex Sans'; fill: #81c784" transform="translate(297.959312 225.807491)">62.9%</text>
    </g>
   </g>
   <g id="text_18">
    <g clip-path="url(#pabee3b194e)">
     <text style="font-size: 9px; font-family: 'IBM Plex Sans'; fill: #b71c1c" transform="translate(601.972016 215.781351)">losses &gt; $1k</text>
    </g>
    <g clip-path="url(#pabee3b194e)">
     <text style="font-size: 9px; font-family: 'IBM Plex Sans'; fill: #b71c1c" transform="translate(616.552016 225.573351)">0.7%</text>
    </g>
   </g>
   <g id="text_19">
    <g clip-path="url(#pabee3b194e)">
     <text style="font-size: 9px; font-family: 'IBM Plex Sans'; fill: #ef9a9a" transform="translate(435.770346 215.781351)">losses $0-1k</text>
    </g>
    <g clip-path="url(#pabee3b194e)">
     <text style="font-size: 9px; font-family: 'IBM Plex Sans'; fill: #ef9a9a" transform="translate(448.384409 225.573351)">27.1%</text>
    </g>
   </g>
   <g id="patch_5">
    <path d="M 70.022812 382.487188
L 748.44 382.487188
" style="fill: none; stroke: #000000; stroke-width: 0.5; stroke-linejoin: miter; stroke-linecap: square"/>
   </g>
  </g>
  <g id="text_20">
   <text style="font-size: 13px; font-family: 'GT Planar'; text-anchor: start; fill: #333333" x="341.047422" y="422.1" transform="rotate(-0 341.047422 422.1)">Annual Bill Change ($)</text>
  </g>
  <g id="text_21">
   <text style="font-size: 13px; font-family: 'GT Planar'; fill: #333333" transform="translate(17.882812 270.696797) rotate(-90)"># of Homes (weighted)</text>
  </g>
  <g id="text_22">
   <text style="font-size: 13px; font-family: 'GT Planar'; text-anchor: middle; fill: #333333" x="121.650083" y="13.987531" transform="rotate(-0 121.650083 13.987531)">Default rate</text>
  </g>
  <g id="text_23">
   <text style="font-size: 13px; font-family: 'GT Planar'; text-anchor: middle; fill: #333333" x="160.060222" y="205.322531" transform="rotate(-0 160.060222 205.322531)">Seasonal heat pump rate</text>
  </g>
 </g>
 <defs>
  <clipPath id="p78d6537381">
   <rect x="70.022813" y="19.182813" width="678.417187" height="172.060781"/>
  </clipPath>
  <clipPath id="pabee3b194e">
   <rect x="70.022813" y="210.426406" width="678.417187" height="172.060781"/>
  </clipPath>
 </defs>
</svg>
