<svg xmlns:xlink="http://www.w3.org/1999/xlink" xmlns="http://www.w3.org/2000/svg" width="876.958887pt" height="1230.912pt" viewBox="0 0 876.958887 1230.912" version="1.1">
 <metadata>
  <rdf:RDF xmlns:dc="http://purl.org/dc/elements/1.1/" xmlns:cc="http://creativecommons.org/ns#" xmlns:rdf="http://www.w3.org/1999/02/22-rdf-syntax-ns#">
   <cc:Work>
    <dc:type rdf:resource="http://purl.org/dc/dcmitype/StillImage"/>
    <dc:date>2026-04-24T02:22:42.171495</dc:date>
    <dc:format>image/svg+xml</dc:format>
    <dc:creator>
     <cc:Agent>
      <dc:title>Matplotlib v3.10.8, https://matplotlib.org/</dc:title>
     </cc:Agent>
    </dc:creator>
   </cc:Work>
  </rdf:RDF>
 </metadata>
 <defs>
  <style type="text/css">*{stroke-linejoin: round; stroke-linecap: butt}</style>
 </defs>
 <g id="figure_1">
  <g id="patch_1">
   <path d="M 0 1230.912  L 876.958887 1230.912  L 876.958887 0  L 0 0  z " style="fill: #ffffff"/>
  </g>
  <g id="axes_1">
   <g id="patch_2">
    <path d="M 9.690762 1223.712  L 756.690762 1223.712  L 756.690762 32.544  L 9.690762 32.544  z " style="fill: #ffffff"/>
   </g>
   <g id="patch_3">
    <path d="M 9.690762 93.194102  L 222.890714 93.194102  L 222.890714 120.486648  L 9.690762 120.486648  z " clip-path="url(#pddebce6ddf)" style="fill: #b71c1c"/>
   </g>
   <g id="patch_4">
    <path d="M 222.890714 93.194102  L 712.059245 93.194102  L 712.059245 120.486648  L 222.890714 120.486648  z " clip-path="url(#pddebce6ddf)" style="fill: #ef9a9a"/>
   </g>
   <g id="patch_5">
    <path d="M 712.059245 93.194102  L 755.801688 93.194102  L 755.801688 120.486648  L 712.059245 120.486648  z " clip-path="url(#pddebce6ddf)" style="fill: #81c784"/>
   </g>
   <g id="patch_6">
    <path d="M 755.801688 93.194102  L 756.690762 93.194102  L 756.690762 120.486648  L 755.801688 120.486648  z " clip-path="url(#pddebce6ddf)" style="fill: #1b5e20"/>
   </g>
   <g id="patch_7">
    <path d="M 9.690762 127.76466  L 19.114947 127.76466  L 19.114947 155.057206  L 9.690762 155.057206  z " clip-path="url(#pddebce6ddf)" style="fill: #b71c1c"/>
   </g>
   <g id="patch_8">
    <path d="M 19.114947 127.76466  L 368.165411 127.76466  L 368.165411 155.057206  L 19.114947 155.057206  z " clip-path="url(#pddebce6ddf)" style="fill: #ef9a9a"/>
   </g>
   <g id="patch_9">
    <path d="M 368.165411 127.76466  L 751.711947 127.76466  L 751.711947 155.057206  L 368.165411 155.057206  z " clip-path="url(#pddebce6ddf)" style="fill: #81c784"/>
   </g>
   <g id="patch_10">
    <path d="M 751.711947 127.76466  L 756.690762 127.76466  L 756.690762 155.057206  L 751.711947 155.057206  z " clip-path="url(#pddebce6ddf)" style="fill: #1b5e20"/>
   </g>
   <g id="patch_11">
    <path d="M 9.690762 270.292399  L 90.540901 270.292399  L 90.540901 297.584945  L 9.690762 297.584945  z " clip-path="url(#pddebce6ddf)" style="fill: #b71c1c"/>
   </g>
   <g id="patch_12">
    <path d="M 90.540901 270.292399  L 713.156072 270.292399  L 713.156072 297.584945  L 90.540901 297.584945  z " clip-path="url(#pddebce6ddf)" style="fill: #ef9a9a"/>
   </g>
   <g id="patch_13">
    <path d="M 713.156072 270.292399  L 756.690762 270.292399  L 756.690762 297.584945  L 713.156072 297.584945  z " clip-path="url(#pddebce6ddf)" style="fill: #81c784"/>
   </g>
   <g id="patch_14">
    <path d="M 756.690762 270.292399  L 756.690762 270.292399  L 756.690762 297.584945  L 756.690762 297.584945  z " clip-path="url(#pddebce6ddf)" style="fill: #1b5e20"/>
   </g>
   <g id="patch_15">
    <path d="M 9.690762 304.862957  L 10.381789 304.862957  L 10.381789 332.155503  L 9.690762 332.155503  z " clip-path="url(#pddebce6ddf)" style="fill: #b71c1c"/>
   </g>
   <g id="patch_16">
    <path d="M 10.381789 304.862957  L 210.088542 304.862957  L 210.088542 332.155503  L 10.381789 332.155503  z " clip-path="url(#pddebce6ddf)" style="fill: #ef9a9a"/>
   </g>
   <g id="patch_17">
    <path d="M 210.088542 304.862957  L 753.926654 304.862957  L 753.926654 332.155503  L 210.088542 332.155503  z " clip-path="url(#pddebce6ddf)" style="fill: #81c784"/>
   </g>
   <g id="patch_18">
    <path d="M 753.926654 304.862957  L 756.690762 304.862957  L 756.690762 332.155503  L 753.926654 332.155503  z " clip-path="url(#pddebce6ddf)" style="fill: #1b5e20"/>
   </g>
   <g id="patch_19">
    <path d="M 9.690762 447.390697  L 300.775269 447.390697  L 300.775269 474.683242  L 9.690762 474.683242  z " clip-path="url(#pddebce6ddf)" style="fill: #b71c1c"/>
   </g>
   <g id="patch_20">
    <path d="M 300.775269 447.390697  L 703.646748 447.390697  L 703.646748 474.683242  L 300.775269 474.683242  z " clip-path="url(#pddebce6ddf)" style="fill: #ef9a9a"/>
   </g>
   <g id="patch_21">
    <path d="M 703.646748 447.390697  L 753.18372 447.390697  L 753.18372 474.683242  L 703.646748 474.683242  z " clip-path="url(#pddebce6ddf)" style="fill: #81c784"/>
   </g>
   <g id="patch_22">
    <path d="M 753.18372 447.390697  L 756.690762 447.390697  L 756.690762 474.683242  L 753.18372 474.683242  z " clip-path="url(#pddebce6ddf)" style="fill: #1b5e20"/>
   </g>
   <g id="patch_23">
    <path d="M 9.690762 481.961255  L 44.322804 481.961255  L 44.322804 509.2538  L 9.690762 509.2538  z " clip-path="url(#pddebce6ddf)" style="fill: #b71c1c"/>
   </g>
   <g id="patch_24">
    <path d="M 44.322804 481.961255  L 432.727734 481.961255  L 432.727734 509.2538  L 44.322804 509.2538  z " clip-path="url(#pddebce6ddf)" style="fill: #ef9a9a"/>
   </g>
   <g id="patch_25">
    <path d="M 432.727734 481.961255  L 740.470691 481.961255  L 740.470691 509.2538  L 432.727734 509.2538  z " clip-path="url(#pddebce6ddf)" style="fill: #81c784"/>
   </g>
   <g id="patch_26">
    <path d="M 740.470691 481.961255  L 756.690762 481.961255  L 756.690762 509.2538  L 740.470691 509.2538  z " clip-path="url(#pddebce6ddf)" style="fill: #1b5e20"/>
   </g>
   <g id="patch_27">
    <path d="M 9.690762 624.488994  L 64.732867 624.488994  L 64.732867 651.78154  L 9.690762 651.78154  z " clip-path="url(#pddebce6ddf)" style="fill: #b71c1c"/>
   </g>
   <g id="patch_28">
    <path d="M 64.732867 624.488994  L 428.40392 624.488994  L 428.40392 651.78154  L 64.732867 651.78154  z " clip-path="url(#pddebce6ddf)" style="fill: #ef9a9a"/>
   </g>
   <g id="patch_29">
    <path d="M 428.40392 624.488994  L 750.793393 624.488994  L 750.793393 651.78154  L 428.40392 651.78154  z " clip-path="url(#pddebce6ddf)" style="fill: #81c784"/>
   </g>
   <g id="patch_30">
    <path d="M 750.793393 624.488994  L 756.690762 624.488994  L 756.690762 651.78154  L 750.793393 651.78154  z " clip-path="url(#pddebce6ddf)" style="fill: #1b5e20"/>
   </g>
   <g id="patch_31">
    <path d="M 9.690762 659.059552  L 9.690762 659.059552  L 9.690762 686.352098  L 9.690762 686.352098  z " clip-path="url(#pddebce6ddf)" style="fill: #b71c1c"/>
   </g>
   <g id="patch_32">
    <path d="M 9.690762 659.059552  L 50.972341 659.059552  L 50.972341 686.352098  L 9.690762 686.352098  z " clip-path="url(#pddebce6ddf)" style="fill: #ef9a9a"/>
   </g>
   <g id="patch_33">
    <path d="M 50.972341 659.059552  L 514.898657 659.059552  L 514.898657 686.352098  L 50.972341 686.352098  z " clip-path="url(#pddebce6ddf)" style="fill: #81c784"/>
   </g>
   <g id="patch_34">
    <path d="M 514.898657 659.059552  L 756.690762 659.059552  L 756.690762 686.352098  L 514.898657 686.352098  z " clip-path="url(#pddebce6ddf)" style="fill: #1b5e20"/>
   </g>
   <g id="patch_35">
    <path d="M 9.690762 801.587291  L 18.912984 801.587291  L 18.912984 828.879837  L 9.690762 828.879837  z " clip-path="url(#pddebce6ddf)" style="fill: #b71c1c"/>
   </g>
   <g id="patch_36">
    <path d="M 18.912984 801.587291  L 379.897111 801.587291  L 379.897111 828.879837  L 18.912984 828.879837  z " clip-path="url(#pddebce6ddf)" style="fill: #ef9a9a"/>
   </g>
   <g id="patch_37">
    <path d="M 379.897111 801.587291  L 751.420921 801.587291  L 751.420921 828.879837  L 379.897111 828.879837  z " clip-path="url(#pddebce6ddf)" style="fill: #81c784"/>
   </g>
   <g id="patch_38">
    <path d="M 751.420921 801.587291  L 756.690762 801.587291  L 756.690762 828.879837  L 751.420921 828.879837  z " clip-path="url(#pddebce6ddf)" style="fill: #1b5e20"/>
   </g>
   <g id="patch_39">
    <path d="M 9.690762 836.157849  L 9.690762 836.157849  L 9.690762 863.450395  L 9.690762 863.450395  z " clip-path="url(#pddebce6ddf)" style="fill: #b71c1c"/>
   </g>
   <g id="patch_40">
    <path d="M 9.690762 836.157849  L 38.674889 836.157849  L 38.674889 863.450395  L 9.690762 863.450395  z " clip-path="url(#pddebce6ddf)" style="fill: #ef9a9a"/>
   </g>
   <g id="patch_41">
    <path d="M 38.674889 836.157849  L 593.325682 836.157849  L 593.325682 863.450395  L 38.674889 863.450395  z " clip-path="url(#pddebce6ddf)" style="fill: #81c784"/>
   </g>
   <g id="patch_42">
    <path d="M 593.325682 836.157849  L 756.690762 836.157849  L 756.690762 863.450395  L 593.325682 863.450395  z " clip-path="url(#pddebce6ddf)" style="fill: #1b5e20"/>
   </g>
   <g id="patch_43">
    <path d="M 9.690762 978.685589  L 55.39802 978.685589  L 55.39802 1005.978134  L 9.690762 1005.978134  z " clip-path="url(#pddebce6ddf)" style="fill: #b71c1c"/>
   </g>
   <g id="patch_44">
    <path d="M 55.39802 978.685589  L 484.687762 978.685589  L 484.687762 1005.978134  L 55.39802 1005.978134  z " clip-path="url(#pddebce6ddf)" style="fill: #ef9a9a"/>
   </g>
   <g id="patch_45">
    <path d="M 484.687762 978.685589  L 748.624775 978.685589  L 748.624775 1005.978134  L 484.687762 1005.978134  z " clip-path="url(#pddebce6ddf)" style="fill: #81c784"/>
   </g>
   <g id="patch_46">
    <path d="M 748.624775 978.685589  L 756.690762 978.685589  L 756.690762 1005.978134  L 748.624775 1005.978134  z " clip-path="url(#pddebce6ddf)" style="fill: #1b5e20"/>
   </g>
   <g id="patch_47">
    <path d="M 9.690762 1013.256147  L 10.661668 1013.256147  L 10.661668 1040.548692  L 9.690762 1040.548692  z " clip-path="url(#pddebce6ddf)" style="fill: #b71c1c"/>
   </g>
   <g id="patch_48">
    <path d="M 10.661668 1013.256147  L 169.740852 1013.256147  L 169.740852 1040.548692  L 10.661668 1040.548692  z " clip-path="url(#pddebce6ddf)" style="fill: #ef9a9a"/>
   </g>
   <g id="patch_49">
    <path d="M 169.740852 1013.256147  L 666.695261 1013.256147  L 666.695261 1040.548692  L 169.740852 1040.548692  z " clip-path="url(#pddebce6ddf)" style="fill: #81c784"/>
   </g>
   <g id="patch_50">
    <path d="M 666.695261 1013.256147  L 756.690762 1013.256147  L 756.690762 1040.548692  L 666.695261 1040.548692  z " clip-path="url(#pddebce6ddf)" style="fill: #1b5e20"/>
   </g>
   <g id="patch_51">
    <path d="M 9.690762 1155.783886  L 48.260488 1155.783886  L 48.260488 1183.076432  L 9.690762 1183.076432  z " clip-path="url(#pddebce6ddf)" style="fill: #b71c1c"/>
   </g>
   <g id="patch_52">
    <path d="M 48.260488 1155.783886  L 442.199147 1155.783886  L 442.199147 1183.076432  L 48.260488 1183.076432  z " clip-path="url(#pddebce6ddf)" style="fill: #ef9a9a"/>
   </g>
   <g id="patch_53">
    <path d="M 442.199147 1155.783886  L 754.383171 1155.783886  L 754.383171 1183.076432  L 442.199147 1183.076432  z " clip-path="url(#pddebce6ddf)" style="fill: #81c784"/>
   </g>
   <g id="patch_54">
    <path d="M 754.383171 1155.783886  L 756.690762 1155.783886  L 756.690762 1183.076432  L 754.383171 1183.076432  z " clip-path="url(#pddebce6ddf)" style="fill: #1b5e20"/>
   </g>
   <g id="patch_55">
    <path d="M 9.690762 1190.354444  L 9.690762 1190.354444  L 9.690762 1217.64699  L 9.690762 1217.64699  z " clip-path="url(#pddebce6ddf)" style="fill: #b71c1c"/>
   </g>
   <g id="patch_56">
    <path d="M 9.690762 1190.354444  L 57.161194 1190.354444  L 57.161194 1217.64699  L 9.690762 1217.64699  z " clip-path="url(#pddebce6ddf)" style="fill: #ef9a9a"/>
   </g>
   <g id="patch_57">
    <path d="M 57.161194 1190.354444  L 630.762253 1190.354444  L 630.762253 1217.64699  L 57.161194 1217.64699  z " clip-path="url(#pddebce6ddf)" style="fill: #81c784"/>
   </g>
   <g id="patch_58">
    <path d="M 630.762253 1190.354444  L 756.690762 1190.354444  L 756.690762 1217.64699  L 630.762253 1217.64699  z " clip-path="url(#pddebce6ddf)" style="fill: #1b5e20"/>
   </g>
   <g id="matplotlib.axis_1"/>
   <g id="matplotlib.axis_2"/>
   <g id="text_1">
    <text style="font-weight: 700; font-size: 10px; font-family: 'IBM Plex Sans'; text-anchor: middle; fill: #ffffff" x="116.290738" y="109.540375" transform="rotate(-0 116.290738 109.540375)">28.5%</text>
   </g>
   <g id="text_2">
    <text style="font-weight: 700; font-size: 10px; font-family: 'IBM Plex Sans'; text-anchor: middle; fill: #ffffff" x="467.47498" y="109.540375" transform="rotate(-0 467.47498 109.540375)">65.5%</text>
   </g>
   <g id="text_3">
    <text style="font-weight: 700; font-size: 10px; font-family: 'IBM Plex Sans'; text-anchor: middle; fill: #ffffff" x="733.930467" y="109.540375" transform="rotate(-0 733.930467 109.540375)">5.9%</text>
   </g>
   <g id="text_4">
    <text style="font-weight: 700; font-size: 10px; font-family: 'IBM Plex Sans'; text-anchor: middle; fill: #ffffff" x="193.640179" y="144.110933" transform="rotate(-0 193.640179 144.110933)">46.7%</text>
   </g>
   <g id="text_5">
    <text style="font-weight: 700; font-size: 10px; font-family: 'IBM Plex Sans'; text-anchor: middle; fill: #ffffff" x="559.938679" y="144.110933" transform="rotate(-0 559.938679 144.110933)">51.3%</text>
   </g>
   <g id="text_6">
    <text style="font-weight: 700; font-size: 10px; font-family: 'IBM Plex Sans'; text-anchor: middle; fill: #ffffff" x="50.115831" y="286.638672" transform="rotate(-0 50.115831 286.638672)">10.8%</text>
   </g>
   <g id="text_7">
    <text style="font-weight: 700; font-size: 10px; font-family: 'IBM Plex Sans'; text-anchor: middle; fill: #ffffff" x="401.848486" y="286.638672" transform="rotate(-0 401.848486 286.638672)">83.3%</text>
   </g>
   <g id="text_8">
    <text style="font-weight: 700; font-size: 10px; font-family: 'IBM Plex Sans'; text-anchor: middle; fill: #ffffff" x="734.923417" y="286.638672" transform="rotate(-0 734.923417 286.638672)">5.8%</text>
   </g>
   <g id="text_9">
    <text style="font-weight: 700; font-size: 10px; font-family: 'IBM Plex Sans'; text-anchor: middle; fill: #ffffff" x="110.235165" y="321.20923" transform="rotate(-0 110.235165 321.20923)">26.7%</text>
   </g>
   <g id="text_10">
    <text style="font-weight: 700; font-size: 10px; font-family: 'IBM Plex Sans'; text-anchor: middle; fill: #ffffff" x="482.007598" y="321.20923" transform="rotate(-0 482.007598 321.20923)">72.8%</text>
   </g>
   <g id="text_11">
    <text style="font-weight: 700; font-size: 10px; font-family: 'IBM Plex Sans'; text-anchor: middle; fill: #ffffff" x="155.233015" y="463.736969" transform="rotate(-0 155.233015 463.736969)">39.0%</text>
   </g>
   <g id="text_12">
    <text style="font-weight: 700; font-size: 10px; font-family: 'IBM Plex Sans'; text-anchor: middle; fill: #ffffff" x="502.211008" y="463.736969" transform="rotate(-0 502.211008 463.736969)">53.9%</text>
   </g>
   <g id="text_13">
    <text style="font-weight: 700; font-size: 10px; font-family: 'IBM Plex Sans'; text-anchor: middle; fill: #ffffff" x="728.415234" y="463.736969" transform="rotate(-0 728.415234 463.736969)">6.6%</text>
   </g>
   <g id="text_14">
    <text style="font-weight: 700; font-size: 10px; font-family: 'IBM Plex Sans'; text-anchor: middle; fill: #ffffff" x="27.006783" y="498.307527" transform="rotate(-0 27.006783 498.307527)">4.6%</text>
   </g>
   <g id="text_15">
    <text style="font-weight: 700; font-size: 10px; font-family: 'IBM Plex Sans'; text-anchor: middle; fill: #ffffff" x="238.525269" y="498.307527" transform="rotate(-0 238.525269 498.307527)">52.0%</text>
   </g>
   <g id="text_16">
    <text style="font-weight: 700; font-size: 10px; font-family: 'IBM Plex Sans'; text-anchor: middle; fill: #ffffff" x="586.599213" y="498.307527" transform="rotate(-0 586.599213 498.307527)">41.2%</text>
   </g>
   <g id="text_17">
    <text style="font-weight: 700; font-size: 10px; font-family: 'IBM Plex Sans'; text-anchor: middle; fill: #ffffff" x="37.211814" y="640.835267" transform="rotate(-0 37.211814 640.835267)">7.4%</text>
   </g>
   <g id="text_18">
    <text style="font-weight: 700; font-size: 10px; font-family: 'IBM Plex Sans'; text-anchor: middle; fill: #ffffff" x="246.568393" y="640.835267" transform="rotate(-0 246.568393 640.835267)">48.7%</text>
   </g>
   <g id="text_19">
    <text style="font-weight: 700; font-size: 10px; font-family: 'IBM Plex Sans'; text-anchor: middle; fill: #ffffff" x="589.598657" y="640.835267" transform="rotate(-0 589.598657 640.835267)">43.2%</text>
   </g>
   <g id="text_20">
    <text style="font-weight: 700; font-size: 10px; font-family: 'IBM Plex Sans'; text-anchor: middle; fill: #ffffff" x="30.331551" y="675.405825" transform="rotate(-0 30.331551 675.405825)">5.5%</text>
   </g>
   <g id="text_21">
    <text style="font-weight: 700; font-size: 10px; font-family: 'IBM Plex Sans'; text-anchor: middle; fill: #ffffff" x="282.935499" y="675.405825" transform="rotate(-0 282.935499 675.405825)">62.1%</text>
   </g>
   <g id="text_22">
    <text style="font-weight: 700; font-size: 10px; font-family: 'IBM Plex Sans'; text-anchor: middle; fill: #ffffff" x="635.794709" y="675.405825" transform="rotate(-0 635.794709 675.405825)">32.4%</text>
   </g>
   <g id="text_23">
    <text style="font-weight: 700; font-size: 10px; font-family: 'IBM Plex Sans'; text-anchor: middle; fill: #ffffff" x="199.405048" y="817.933564" transform="rotate(-0 199.405048 817.933564)">48.3%</text>
   </g>
   <g id="text_24">
    <text style="font-weight: 700; font-size: 10px; font-family: 'IBM Plex Sans'; text-anchor: middle; fill: #ffffff" x="565.659016" y="817.933564" transform="rotate(-0 565.659016 817.933564)">49.7%</text>
   </g>
   <g id="text_25">
    <text style="font-weight: 700; font-size: 10px; font-family: 'IBM Plex Sans'; text-anchor: middle; fill: #ffffff" x="24.182825" y="852.504122" transform="rotate(-0 24.182825 852.504122)">3.9%</text>
   </g>
   <g id="text_26">
    <text style="font-weight: 700; font-size: 10px; font-family: 'IBM Plex Sans'; text-anchor: middle; fill: #ffffff" x="316.000286" y="852.504122" transform="rotate(-0 316.000286 852.504122)">74.3%</text>
   </g>
   <g id="text_27">
    <text style="font-weight: 700; font-size: 10px; font-family: 'IBM Plex Sans'; text-anchor: middle; fill: #ffffff" x="675.008222" y="852.504122" transform="rotate(-0 675.008222 852.504122)">21.9%</text>
   </g>
   <g id="text_28">
    <text style="font-weight: 700; font-size: 10px; font-family: 'IBM Plex Sans'; text-anchor: middle; fill: #ffffff" x="32.544391" y="995.031862" transform="rotate(-0 32.544391 995.031862)">6.1%</text>
   </g>
   <g id="text_29">
    <text style="font-weight: 700; font-size: 10px; font-family: 'IBM Plex Sans'; text-anchor: middle; fill: #ffffff" x="270.042891" y="995.031862" transform="rotate(-0 270.042891 995.031862)">57.5%</text>
   </g>
   <g id="text_30">
    <text style="font-weight: 700; font-size: 10px; font-family: 'IBM Plex Sans'; text-anchor: middle; fill: #ffffff" x="616.656269" y="995.031862" transform="rotate(-0 616.656269 995.031862)">35.3%</text>
   </g>
   <g id="text_31">
    <text style="font-weight: 700; font-size: 10px; font-family: 'IBM Plex Sans'; text-anchor: middle; fill: #ffffff" x="90.20126" y="1029.60242" transform="rotate(-0 90.20126 1029.60242)">21.3%</text>
   </g>
   <g id="text_32">
    <text style="font-weight: 700; font-size: 10px; font-family: 'IBM Plex Sans'; text-anchor: middle; fill: #ffffff" x="418.218056" y="1029.60242" transform="rotate(-0 418.218056 1029.60242)">66.5%</text>
   </g>
   <g id="text_33">
    <text style="font-weight: 700; font-size: 10px; font-family: 'IBM Plex Sans'; text-anchor: middle; fill: #ffffff" x="711.693011" y="1029.60242" transform="rotate(-0 711.693011 1029.60242)">12.0%</text>
   </g>
   <g id="text_34">
    <text style="font-weight: 700; font-size: 10px; font-family: 'IBM Plex Sans'; text-anchor: middle; fill: #ffffff" x="28.975625" y="1172.130159" transform="rotate(-0 28.975625 1172.130159)">5.2%</text>
   </g>
   <g id="text_35">
    <text style="font-weight: 700; font-size: 10px; font-family: 'IBM Plex Sans'; text-anchor: middle; fill: #ffffff" x="245.229817" y="1172.130159" transform="rotate(-0 245.229817 1172.130159)">52.7%</text>
   </g>
   <g id="text_36">
    <text style="font-weight: 700; font-size: 10px; font-family: 'IBM Plex Sans'; text-anchor: middle; fill: #ffffff" x="598.291159" y="1172.130159" transform="rotate(-0 598.291159 1172.130159)">41.8%</text>
   </g>
   <g id="text_37">
    <text style="font-weight: 700; font-size: 10px; font-family: 'IBM Plex Sans'; text-anchor: middle; fill: #ffffff" x="33.425978" y="1206.700717" transform="rotate(-0 33.425978 1206.700717)">6.4%</text>
   </g>
   <g id="text_38">
    <text style="font-weight: 700; font-size: 10px; font-family: 'IBM Plex Sans'; text-anchor: middle; fill: #ffffff" x="343.961724" y="1206.700717" transform="rotate(-0 343.961724 1206.700717)">76.8%</text>
   </g>
   <g id="text_39">
    <text style="font-weight: 700; font-size: 10px; font-family: 'IBM Plex Sans'; text-anchor: middle; fill: #ffffff" x="693.726508" y="1206.700717" transform="rotate(-0 693.726508 1206.700717)">16.9%</text>
   </g>
   <g id="text_40">
    <text style="font-weight: 700; font-size: 9px; font-family: 'IBM Plex Sans'; text-anchor: start" x="764.160762" y="109.270375" transform="rotate(-0 764.160762 109.270375)">Default rate</text>
   </g>
   <g id="text_41">
    <text style="font-weight: 700; font-size: 9px; font-family: 'IBM Plex Sans'; text-anchor: start" x="764.160762" y="143.840933" transform="rotate(-0 764.160762 143.840933)">Seasonal heat pump rate</text>
   </g>
   <g id="text_42">
    <text style="font-weight: 700; font-size: 9px; font-family: 'IBM Plex Sans'; text-anchor: start" x="764.160762" y="286.368672" transform="rotate(-0 764.160762 286.368672)">Default rate</text>
   </g>
   <g id="text_43">
    <text style="font-weight: 700; font-size: 9px; font-family: 'IBM Plex Sans'; text-anchor: start" x="764.160762" y="320.93923" transform="rotate(-0 764.160762 320.93923)">Seasonal heat pump rate</text>
   </g>
   <g id="text_44">
    <text style="font-weight: 700; font-size: 9px; font-family: 'IBM Plex Sans'; text-anchor: start" x="764.160762" y="463.466969" transform="rotate(-0 764.160762 463.466969)">Default rate</text>
   </g>
   <g id="text_45">
    <text style="font-weight: 700; font-size: 9px; font-family: 'IBM Plex Sans'; text-anchor: start" x="764.160762" y="498.037527" transform="rotate(-0 764.160762 498.037527)">Seasonal heat pump rate</text>
   </g>
   <g id="text_46">
    <text style="font-weight: 700; font-size: 9px; font-family: 'IBM Plex Sans'; text-anchor: start" x="764.160762" y="640.565267" transform="rotate(-0 764.160762 640.565267)">Default rate</text>
   </g>
   <g id="text_47">
    <text style="font-weight: 700; font-size: 9px; font-family: 'IBM Plex Sans'; text-anchor: start" x="764.160762" y="675.135825" transform="rotate(-0 764.160762 675.135825)">Seasonal heat pump rate</text>
   </g>
   <g id="text_48">
    <text style="font-weight: 700; font-size: 9px; font-family: 'IBM Plex Sans'; text-anchor: start" x="764.160762" y="817.663564" transform="rotate(-0 764.160762 817.663564)">Default rate</text>
   </g>
   <g id="text_49">
    <text style="font-weight: 700; font-size: 9px; font-family: 'IBM Plex Sans'; text-anchor: start" x="764.160762" y="852.234122" transform="rotate(-0 764.160762 852.234122)">Seasonal heat pump rate</text>
   </g>
   <g id="text_50">
    <text style="font-weight: 700; font-size: 9px; font-family: 'IBM Plex Sans'; text-anchor: start" x="764.160762" y="994.761862" transform="rotate(-0 764.160762 994.761862)">Default rate</text>
   </g>
   <g id="text_51">
    <text style="font-weight: 700; font-size: 9px; font-family: 'IBM Plex Sans'; text-anchor: start" x="764.160762" y="1029.33242" transform="rotate(-0 764.160762 1029.33242)">Seasonal heat pump rate</text>
   </g>
   <g id="text_52">
    <text style="font-weight: 700; font-size: 9px; font-family: 'IBM Plex Sans'; text-anchor: start" x="764.160762" y="1171.860159" transform="rotate(-0 764.160762 1171.860159)">Default rate</text>
   </g>
   <g id="text_53">
    <text style="font-weight: 700; font-size: 9px; font-family: 'IBM Plex Sans'; text-anchor: start" x="764.160762" y="1206.430717" transform="rotate(-0 764.160762 1206.430717)">Seasonal heat pump rate</text>
   </g>
   <g id="text_54">
    <text style="font-weight: 700; font-size: 11px; font-family: 'GT Planar'; text-anchor: start; fill: #333333" x="9.690762" y="46.30901" transform="rotate(-0 9.690762 46.30901)">National Grid</text>
   </g>
   <g id="text_55">
    <text style="font-weight: 700; font-size: 11px; font-family: 'GT Planar'; text-anchor: start; fill: #333333" x="9.690762" y="223.407308" transform="rotate(-0 9.690762 223.407308)">RG&amp;E</text>
   </g>
   <g id="text_56">
    <text style="font-weight: 700; font-size: 11px; font-family: 'GT Planar'; text-anchor: start; fill: #333333" x="9.690762" y="400.505605" transform="rotate(-0 9.690762 400.505605)">NYSEG</text>
   </g>
   <g id="text_57">
    <text style="font-weight: 700; font-size: 11px; font-family: 'GT Planar'; text-anchor: start; fill: #333333" x="9.690762" y="577.603902" transform="rotate(-0 9.690762 577.603902)">Central Hudson</text>
   </g>
   <g id="text_58">
    <text style="font-weight: 700; font-size: 11px; font-family: 'GT Planar'; text-anchor: start; fill: #333333" x="9.690762" y="754.7022" transform="rotate(-0 9.690762 754.7022)">O&amp;R</text>
   </g>
   <g id="text_59">
    <text style="font-weight: 700; font-size: 11px; font-family: 'GT Planar'; text-anchor: start; fill: #333333" x="9.690762" y="931.800497" transform="rotate(-0 9.690762 931.800497)">Con Edison</text>
   </g>
   <g id="text_60">
    <text style="font-weight: 700; font-size: 11px; font-family: 'GT Planar'; text-anchor: start; fill: #333333" x="9.690762" y="1108.898794" transform="rotate(-0 9.690762 1108.898794)">PSEG-LI</text>
   </g>
   <g id="text_61">
    <text style="font-weight: 700; font-size: 8px; font-family: 'IBM Plex Sans'; text-anchor: middle; fill: #b71c1c" x="116.290738" y="70.366566" transform="rotate(-0 116.290738 70.366566)">LOSE &gt; $1K</text>
   </g>
   <g id="text_62">
    <text style="font-weight: 700; font-size: 8px; font-family: 'IBM Plex Sans'; text-anchor: middle; fill: #ef9a9a" x="467.47498" y="70.366566" transform="rotate(-0 467.47498 70.366566)">LOSE $0-1K</text>
   </g>
   <g id="text_63">
    <text style="font-weight: 700; font-size: 8px; font-family: 'IBM Plex Sans'; text-anchor: middle; fill: #81c784" x="733.930467" y="70.366566" transform="rotate(-0 733.930467 70.366566)">SAVE $0-1K</text>
   </g>
   <g id="text_64">
    <text style="font-weight: 700; font-size: 8px; font-family: 'IBM Plex Sans'; text-anchor: middle; fill: #b71c1c" x="50.115831" y="247.464864" transform="rotate(-0 50.115831 247.464864)">LOSE &gt; $1K</text>
   </g>
   <g id="text_65">
    <text style="font-weight: 700; font-size: 8px; font-family: 'IBM Plex Sans'; text-anchor: middle; fill: #ef9a9a" x="401.848486" y="247.464864" transform="rotate(-0 401.848486 247.464864)">LOSE $0-1K</text>
   </g>
   <g id="text_66">
    <text style="font-weight: 700; font-size: 8px; font-family: 'IBM Plex Sans'; text-anchor: middle; fill: #81c784" x="734.923417" y="247.464864" transform="rotate(-0 734.923417 247.464864)">SAVE $0-1K</text>
   </g>
   <g id="text_67">
    <text style="font-weight: 700; font-size: 8px; font-family: 'IBM Plex Sans'; text-anchor: middle; fill: #b71c1c" x="155.233015" y="424.563161" transform="rotate(-0 155.233015 424.563161)">LOSE &gt; $1K</text>
   </g>
   <g id="text_68">
    <text style="font-weight: 700; font-size: 8px; font-family: 'IBM Plex Sans'; text-anchor: middle; fill: #ef9a9a" x="502.211008" y="424.563161" transform="rotate(-0 502.211008 424.563161)">LOSE $0-1K</text>
   </g>
   <g id="text_69">
    <text style="font-weight: 700; font-size: 8px; font-family: 'IBM Plex Sans'; text-anchor: middle; fill: #81c784" x="728.415234" y="424.563161" transform="rotate(-0 728.415234 424.563161)">SAVE $0-1K</text>
   </g>
   <g id="text_70">
    <text style="font-weight: 700; font-size: 8px; font-family: 'IBM Plex Sans'; text-anchor: middle; fill: #b71c1c" x="37.211814" y="601.661458" transform="rotate(-0 37.211814 601.661458)">LOSE &gt; $1K</text>
   </g>
   <g id="text_71">
    <text style="font-weight: 700; font-size: 8px; font-family: 'IBM Plex Sans'; text-anchor: middle; fill: #ef9a9a" x="246.568393" y="601.661458" transform="rotate(-0 246.568393 601.661458)">LOSE $0-1K</text>
   </g>
   <g id="text_72">
    <text style="font-weight: 700; font-size: 8px; font-family: 'IBM Plex Sans'; text-anchor: middle; fill: #81c784" x="589.598657" y="601.661458" transform="rotate(-0 589.598657 601.661458)">SAVE $0-1K</text>
   </g>
   <g id="text_73">
    <text style="font-weight: 700; font-size: 8px; font-family: 'IBM Plex Sans'; text-anchor: middle; fill: #ef9a9a" x="199.405048" y="778.759756" transform="rotate(-0 199.405048 778.759756)">LOSE $0-1K</text>
   </g>
   <g id="text_74">
    <text style="font-weight: 700; font-size: 8px; font-family: 'IBM Plex Sans'; text-anchor: middle; fill: #81c784" x="565.659016" y="778.759756" transform="rotate(-0 565.659016 778.759756)">SAVE $0-1K</text>
   </g>
   <g id="text_75">
    <text style="font-weight: 700; font-size: 8px; font-family: 'IBM Plex Sans'; text-anchor: middle; fill: #b71c1c" x="32.544391" y="955.858053" transform="rotate(-0 32.544391 955.858053)">LOSE &gt; $1K</text>
   </g>
   <g id="text_76">
    <text style="font-weight: 700; font-size: 8px; font-family: 'IBM Plex Sans'; text-anchor: middle; fill: #ef9a9a" x="270.042891" y="955.858053" transform="rotate(-0 270.042891 955.858053)">LOSE $0-1K</text>
   </g>
   <g id="text_77">
    <text style="font-weight: 700; font-size: 8px; font-family: 'IBM Plex Sans'; text-anchor: middle; fill: #81c784" x="616.656269" y="955.858053" transform="rotate(-0 616.656269 955.858053)">SAVE $0-1K</text>
   </g>
   <g id="text_78">
    <text style="font-weight: 700; font-size: 8px; font-family: 'IBM Plex Sans'; text-anchor: middle; fill: #b71c1c" x="28.975625" y="1132.95635" transform="rotate(-0 28.975625 1132.95635)">LOSE &gt; $1K</text>
   </g>
   <g id="text_79">
    <text style="font-weight: 700; font-size: 8px; font-family: 'IBM Plex Sans'; text-anchor: middle; fill: #ef9a9a" x="245.229817" y="1132.95635" transform="rotate(-0 245.229817 1132.95635)">LOSE $0-1K</text>
   </g>
   <g id="text_80">
    <text style="font-weight: 700; font-size: 8px; font-family: 'IBM Plex Sans'; text-anchor: middle; fill: #81c784" x="598.291159" y="1132.95635" transform="rotate(-0 598.291159 1132.95635)">SAVE $0-1K</text>
   </g>
  </g>
  <g id="text_81">
   <text style="font-weight: 700; font-size: 12px; font-family: 'GT Planar'; text-anchor: start" x="9.690762" y="15.6" transform="rotate(-0 9.690762 15.6)">How bills would change for</text>
  </g>
  <g id="text_82">
   <text style="font-weight: 700; font-size: 12px; font-family: 'GT Planar'; text-anchor: start; fill: #7a8a10" x="168.784512" y="15.6" transform="rotate(-0 168.784512 15.6)">natural gas</text>
  </g>
  <g id="text_83">
   <text style="font-weight: 700; font-size: 12px; font-family: 'GT Planar'; text-anchor: start" x="235.534512" y="15.6" transform="rotate(-0 235.534512 15.6)">heated homes after switching to</text>
  </g>
  <g id="text_84">
   <text style="font-weight: 700; font-size: 12px; font-family: 'GT Planar'; text-anchor: start; fill: #c47600" x="424.347012" y="15.6" transform="rotate(-0 424.347012 15.6)">heat pumps</text>
  </g>
 </g>
 <defs>
  <clipPath id="pddebce6ddf">
   <rect x="9.690762" y="32.544" width="747" height="1191.168"/>
  </clipPath>
 </defs>
</svg>
