<?xml version="1.0" encoding="utf-8" standalone="no"?>
<!DOCTYPE svg PUBLIC "-//W3C//DTD SVG 1.1//EN"
  "http://www.w3.org/Graphics/SVG/1.1/DTD/svg11.dtd">
<svg xmlns:xlink="http://www.w3.org/1999/xlink" width="756pt" height="432pt" viewBox="0 0 756 432" xmlns="http://www.w3.org/2000/svg" version="1.1">
 <metadata>
  <rdf:RDF xmlns:dc="http://purl.org/dc/elements/1.1/" xmlns:cc="http://creativecommons.org/ns#" xmlns:rdf="http://www.w3.org/1999/02/22-rdf-syntax-ns#">
   <cc:Work>
    <dc:type rdf:resource="http://purl.org/dc/dcmitype/StillImage"/>
    <dc:date>2026-04-11T12:05:22.704025</dc:date>
    <dc:format>image/svg+xml</dc:format>
    <dc:creator>
     <cc:Agent>
      <dc:title>Matplotlib v3.10.8, https://matplotlib.org/</dc:title>
     </cc:Agent>
    </dc:creator>
   </cc:Work>
  </rdf:RDF>
 </metadata>
 <defs>
  <style type="text/css">*{stroke-linejoin: round; stroke-linecap: butt}</style>
 </defs>
 <g id="figure_1">
  <g id="patch_1">
   <path d="M 0 432
L 756 432
L 756 0
L 0 0
z
" style="fill: #ffffff"/>
  </g>
  <g id="axes_1">
   <g id="patch_2">
    <path d="M 70.022813 191.243594
L 748.44 191.243594
L 748.44 19
L 70.022813 19
z
" style="fill: #ffffff"/>
   </g>
   <g id="matplotlib.axis_1">
    <g id="xtick_1"/>
    <g id="xtick_2"/>
    <g id="xtick_3"/>
    <g id="xtick_4"/>
    <g id="xtick_5"/>
    <g id="xtick_6"/>
    <g id="xtick_7"/>
    <g id="xtick_8"/>
    <g id="xtick_9"/>
   </g>
   <g id="matplotlib.axis_2">
    <g id="ytick_1">
     <g id="line2d_1">
      <path d="M 70.022813 183.414339
L 748.44 183.414339
" clip-path="url(#pd5d73fee70)" style="fill: none; stroke: #e5e5e5; stroke-linecap: square"/>
     </g>
     <g id="text_1">
      <text style="font-size: 11px; font-family: 'IBM Plex Sans'; text-anchor: start; fill: #4d4d4d" x="61.222813" y="187.484339" transform="rotate(-0 61.222813 187.484339)">0</text>
     </g>
    </g>
    <g id="ytick_2">
     <g id="line2d_2">
      <path d="M 70.022813 128.935033
L 748.44 128.935033
" clip-path="url(#pd5d73fee70)" style="fill: none; stroke: #e5e5e5; stroke-linecap: square"/>
     </g>
     <g id="text_2">
      <text style="font-size: 11px; font-family: 'IBM Plex Sans'; text-anchor: start; fill: #4d4d4d" x="28.222813" y="133.005033" transform="rotate(-0 28.222813 133.005033)">200000</text>
     </g>
    </g>
    <g id="ytick_3">
     <g id="line2d_3">
      <path d="M 70.022813 74.455727
L 748.44 74.455727
" clip-path="url(#pd5d73fee70)" style="fill: none; stroke: #e5e5e5; stroke-linecap: square"/>
     </g>
     <g id="text_3">
      <text style="font-size: 11px; font-family: 'IBM Plex Sans'; text-anchor: start; fill: #4d4d4d" x="28.222813" y="78.525727" transform="rotate(-0 28.222813 78.525727)">400000</text>
     </g>
    </g>
    <g id="ytick_4">
     <g id="line2d_4">
      <path d="M 70.022813 19.976421
L 748.44 19.976421
" clip-path="url(#pd5d73fee70)" style="fill: none; stroke: #e5e5e5; stroke-linecap: square"/>
     </g>
     <g id="text_4">
      <text style="font-size: 11px; font-family: 'IBM Plex Sans'; text-anchor: start; fill: #4d4d4d" x="28.222813" y="24.046421" transform="rotate(-0 28.222813 24.046421)">600000</text>
     </g>
    </g>
    <g id="ytick_5">
     <g id="line2d_5">
      <path d="M 70.022813 156.174686
L 748.44 156.174686
" clip-path="url(#pd5d73fee70)" style="fill: none; stroke: #fafafa; stroke-width: 0.5; stroke-linecap: square"/>
     </g>
    </g>
    <g id="ytick_6">
     <g id="line2d_6">
      <path d="M 70.022813 101.69538
L 748.44 101.69538
" clip-path="url(#pd5d73fee70)" style="fill: none; stroke: #fafafa; stroke-width: 0.5; stroke-linecap: square"/>
     </g>
    </g>
    <g id="ytick_7">
     <g id="line2d_7">
      <path d="M 70.022813 47.216074
L 748.44 47.216074
" clip-path="url(#pd5d73fee70)" style="fill: none; stroke: #fafafa; stroke-width: 0.5; stroke-linecap: square"/>
     </g>
    </g>
   </g>
   <g id="PolyCollection_1">
    <path d="M -206.777274 183.414339
L -206.777274 183.360265
L -193.561355 183.360265
L -193.561355 183.414339
z
" clip-path="url(#pd5d73fee70)" style="fill: #1b5e20"/>
    <path d="M -89.302436 183.414339
L -89.302436 183.360265
L -76.086517 183.360265
L -76.086517 183.414339
z
" clip-path="url(#pd5d73fee70)" style="fill: #1b5e20"/>
    <path d="M 28.172402 183.414339
L 28.172402 183.294262
L 41.388321 183.294262
L 41.388321 183.414339
z
" clip-path="url(#pd5d73fee70)" style="fill: #1b5e20"/>
    <path d="M 42.856756 183.414339
L 42.856756 183.360265
L 56.072676 183.360265
L 56.072676 183.414339
z
" clip-path="url(#pd5d73fee70)" style="fill: #1b5e20"/>
    <path d="M 57.541111 183.414339
L 57.541111 183.306191
L 70.75703 183.306191
L 70.75703 183.414339
z
" clip-path="url(#pd5d73fee70)" style="fill: #1b5e20"/>
    <path d="M 86.90982 183.414339
L 86.90982 183.301651
L 100.12574 183.301651
L 100.12574 183.414339
z
" clip-path="url(#pd5d73fee70)" style="fill: #1b5e20"/>
    <path d="M 101.594175 183.414339
L 101.594175 183.13204
L 114.810094 183.13204
L 114.810094 183.414339
z
" clip-path="url(#pd5d73fee70)" style="fill: #1b5e20"/>
    <path d="M 116.27853 183.414339
L 116.27853 183.198043
L 129.494449 183.198043
L 129.494449 183.414339
z
" clip-path="url(#pd5d73fee70)" style="fill: #1b5e20"/>
    <path d="M 130.962885 183.414339
L 130.962885 183.193502
L 144.178804 183.193502
L 144.178804 183.414339
z
" clip-path="url(#pd5d73fee70)" style="fill: #1b5e20"/>
    <path d="M 145.647239 183.414339
L 145.647239 183.143969
L 158.863158 183.143969
L 158.863158 183.414339
z
" clip-path="url(#pd5d73fee70)" style="fill: #1b5e20"/>
    <path d="M 160.331594 183.414339
L 160.331594 182.45907
L 173.547513 182.45907
L 173.547513 183.414339
z
" clip-path="url(#pd5d73fee70)" style="fill: #1b5e20"/>
    <path d="M 175.015949 183.414339
L 175.015949 182.86167
L 188.231868 182.86167
L 188.231868 183.414339
z
" clip-path="url(#pd5d73fee70)" style="fill: #1b5e20"/>
    <path d="M 189.700303 183.414339
L 189.700303 182.927673
L 202.916223 182.927673
L 202.916223 183.414339
z
" clip-path="url(#pd5d73fee70)" style="fill: #1b5e20"/>
    <path d="M 204.384658 183.414339
L 204.384658 182.025507
L 217.600577 182.025507
L 217.600577 183.414339
z
" clip-path="url(#pd5d73fee70)" style="fill: #1b5e20"/>
    <path d="M 219.069013 183.414339
L 219.069013 181.860444
L 232.284932 181.860444
L 232.284932 183.414339
z
" clip-path="url(#pd5d73fee70)" style="fill: #1b5e20"/>
    <path d="M 233.753367 183.414339
L 233.753367 181.346831
L 246.969287 181.346831
L 246.969287 183.414339
z
" clip-path="url(#pd5d73fee70)" style="fill: #1b5e20"/>
    <path d="M 248.437722 183.414339
L 248.437722 180.658339
L 261.653641 180.658339
L 261.653641 183.414339
z
" clip-path="url(#pd5d73fee70)" style="fill: #81c784"/>
    <path d="M 263.122077 183.414339
L 263.122077 179.806427
L 276.337996 179.806427
L 276.337996 183.414339
z
" clip-path="url(#pd5d73fee70)" style="fill: #81c784"/>
    <path d="M 277.806432 183.414339
L 277.806432 178.103335
L 291.022351 178.103335
L 291.022351 183.414339
z
" clip-path="url(#pd5d73fee70)" style="fill: #81c784"/>
    <path d="M 292.490786 183.414339
L 292.490786 173.936192
L 305.706706 173.936192
L 305.706706 183.414339
z
" clip-path="url(#pd5d73fee70)" style="fill: #81c784"/>
    <path d="M 307.175141 183.414339
L 307.175141 169.505293
L 320.39106 169.505293
L 320.39106 183.414339
z
" clip-path="url(#pd5d73fee70)" style="fill: #81c784"/>
    <path d="M 321.859496 183.414339
L 321.859496 159.89067
L 335.075415 159.89067
L 335.075415 183.414339
z
" clip-path="url(#pd5d73fee70)" style="fill: #81c784"/>
    <path d="M 336.54385 183.414339
L 336.54385 150.808101
L 349.75977 150.808101
L 349.75977 183.414339
z
" clip-path="url(#pd5d73fee70)" style="fill: #81c784"/>
    <path d="M 351.228205 183.414339
L 351.228205 130.062482
L 364.444124 130.062482
L 364.444124 183.414339
z
" clip-path="url(#pd5d73fee70)" style="fill: #81c784"/>
    <path d="M 365.91256 183.414339
L 365.91256 103.107776
L 379.128479 103.107776
L 379.128479 183.414339
z
" clip-path="url(#pd5d73fee70)" style="fill: #81c784"/>
    <path d="M 380.596915 183.414339
L 380.596915 59.950013
L 393.812834 59.950013
L 393.812834 183.414339
z
" clip-path="url(#pd5d73fee70)" style="fill: #81c784"/>
    <path d="M 395.281269 183.414339
L 395.281269 35.177032
L 408.497189 35.177032
L 408.497189 183.414339
z
" clip-path="url(#pd5d73fee70)" style="fill: #ef9a9a"/>
    <path d="M 409.965624 183.414339
L 409.965624 61.471979
L 423.181543 61.471979
L 423.181543 183.414339
z
" clip-path="url(#pd5d73fee70)" style="fill: #ef9a9a"/>
    <path d="M 424.649979 183.414339
L 424.649979 89.874355
L 437.865898 89.874355
L 437.865898 183.414339
z
" clip-path="url(#pd5d73fee70)" style="fill: #ef9a9a"/>
    <path d="M 439.334333 183.414339
L 439.334333 115.050575
L 452.550253 115.050575
L 452.550253 183.414339
z
" clip-path="url(#pd5d73fee70)" style="fill: #ef9a9a"/>
    <path d="M 454.018688 183.414339
L 454.018688 128.141701
L 467.234607 128.141701
L 467.234607 183.414339
z
" clip-path="url(#pd5d73fee70)" style="fill: #ef9a9a"/>
    <path d="M 468.703043 183.414339
L 468.703043 135.04798
L 481.918962 135.04798
L 481.918962 183.414339
z
" clip-path="url(#pd5d73fee70)" style="fill: #ef9a9a"/>
    <path d="M 483.387398 183.414339
L 483.387398 139.549884
L 496.603317 139.549884
L 496.603317 183.414339
z
" clip-path="url(#pd5d73fee70)" style="fill: #ef9a9a"/>
    <path d="M 498.071752 183.414339
L 498.071752 150.531006
L 511.287671 150.531006
L 511.287671 183.414339
z
" clip-path="url(#pd5d73fee70)" style="fill: #ef9a9a"/>
    <path d="M 512.756107 183.414339
L 512.756107 151.937678
L 525.972026 151.937678
L 525.972026 183.414339
z
" clip-path="url(#pd5d73fee70)" style="fill: #ef9a9a"/>
    <path d="M 527.440462 183.414339
L 527.440462 157.975418
L 540.656381 157.975418
L 540.656381 183.414339
z
" clip-path="url(#pd5d73fee70)" style="fill: #ef9a9a"/>
    <path d="M 542.124816 183.414339
L 542.124816 162.723176
L 555.340736 162.723176
L 555.340736 183.414339
z
" clip-path="url(#pd5d73fee70)" style="fill: #b71c1c"/>
    <path d="M 556.809171 183.414339
L 556.809171 164.683681
L 570.02509 164.683681
L 570.02509 183.414339
z
" clip-path="url(#pd5d73fee70)" style="fill: #b71c1c"/>
    <path d="M 571.493526 183.414339
L 571.493526 166.480674
L 584.709445 166.480674
L 584.709445 183.414339
z
" clip-path="url(#pd5d73fee70)" style="fill: #b71c1c"/>
    <path d="M 586.17788 183.414339
L 586.17788 169.521235
L 599.3938 169.521235
L 599.3938 183.414339
z
" clip-path="url(#pd5d73fee70)" style="fill: #b71c1c"/>
    <path d="M 600.862235 183.414339
L 600.862235 171.407454
L 614.078154 171.407454
L 614.078154 183.414339
z
" clip-path="url(#pd5d73fee70)" style="fill: #b71c1c"/>
    <path d="M 615.54659 183.414339
L 615.54659 173.861342
L 628.762509 173.861342
L 628.762509 183.414339
z
" clip-path="url(#pd5d73fee70)" style="fill: #b71c1c"/>
    <path d="M 630.230945 183.414339
L 630.230945 175.561206
L 643.446864 175.561206
L 643.446864 183.414339
z
" clip-path="url(#pd5d73fee70)" style="fill: #b71c1c"/>
    <path d="M 644.915299 183.414339
L 644.915299 175.588533
L 658.131219 175.588533
L 658.131219 183.414339
z
" clip-path="url(#pd5d73fee70)" style="fill: #b71c1c"/>
    <path d="M 659.599654 183.414339
L 659.599654 177.05366
L 672.815573 177.05366
L 672.815573 183.414339
z
" clip-path="url(#pd5d73fee70)" style="fill: #b71c1c"/>
    <path d="M 674.284009 183.414339
L 674.284009 177.420354
L 687.499928 177.420354
L 687.499928 183.414339
z
" clip-path="url(#pd5d73fee70)" style="fill: #b71c1c"/>
    <path d="M 688.968363 183.414339
L 688.968363 178.768586
L 702.184283 178.768586
L 702.184283 183.414339
z
" clip-path="url(#pd5d73fee70)" style="fill: #b71c1c"/>
    <path d="M 703.652718 183.414339
L 703.652718 179.263073
L 716.868637 179.263073
L 716.868637 183.414339
z
" clip-path="url(#pd5d73fee70)" style="fill: #b71c1c"/>
    <path d="M 718.337073 183.414339
L 718.337073 179.625914
L 731.552992 179.625914
L 731.552992 183.414339
z
" clip-path="url(#pd5d73fee70)" style="fill: #b71c1c"/>
    <path d="M 733.021428 183.414339
L 733.021428 180.313175
L 746.237347 180.313175
L 746.237347 183.414339
z
" clip-path="url(#pd5d73fee70)" style="fill: #b71c1c"/>
    <path d="M 747.705782 183.414339
L 747.705782 180.708568
L 760.921702 180.708568
L 760.921702 183.414339
z
" clip-path="url(#pd5d73fee70)" style="fill: #b71c1c"/>
    <path d="M 762.390137 183.414339
L 762.390137 181.643908
L 775.606056 181.643908
L 775.606056 183.414339
z
" clip-path="url(#pd5d73fee70)" style="fill: #b71c1c"/>
    <path d="M 777.074492 183.414339
L 777.074492 181.924815
L 790.290411 181.924815
L 790.290411 183.414339
z
" clip-path="url(#pd5d73fee70)" style="fill: #b71c1c"/>
    <path d="M 791.758846 183.414339
L 791.758846 181.854544
L 804.974766 181.854544
L 804.974766 183.414339
z
" clip-path="url(#pd5d73fee70)" style="fill: #b71c1c"/>
    <path d="M 806.443201 183.414339
L 806.443201 181.739491
L 819.65912 181.739491
L 819.65912 183.414339
z
" clip-path="url(#pd5d73fee70)" style="fill: #b71c1c"/>
    <path d="M 821.127556 183.414339
L 821.127556 182.323108
L 834.343475 182.323108
L 834.343475 183.414339
z
" clip-path="url(#pd5d73fee70)" style="fill: #b71c1c"/>
    <path d="M 835.811911 183.414339
L 835.811911 182.822077
L 849.02783 182.822077
L 849.02783 183.414339
z
" clip-path="url(#pd5d73fee70)" style="fill: #b71c1c"/>
    <path d="M 850.496265 183.414339
L 850.496265 182.771808
L 863.712184 182.771808
L 863.712184 183.414339
z
" clip-path="url(#pd5d73fee70)" style="fill: #b71c1c"/>
    <path d="M 865.18062 183.414339
L 865.18062 182.936878
L 878.396539 182.936878
L 878.396539 183.414339
z
" clip-path="url(#pd5d73fee70)" style="fill: #b71c1c"/>
    <path d="M 879.864975 183.414339
L 879.864975 183.05126
L 893.080894 183.05126
L 893.080894 183.414339
z
" clip-path="url(#pd5d73fee70)" style="fill: #b71c1c"/>
    <path d="M 894.549329 183.414339
L 894.549329 183.054108
L 907.765249 183.054108
L 907.765249 183.414339
z
" clip-path="url(#pd5d73fee70)" style="fill: #b71c1c"/>
    <path d="M 909.233684 183.414339
L 909.233684 182.875416
L 922.449603 182.875416
L 922.449603 183.414339
z
" clip-path="url(#pd5d73fee70)" style="fill: #b71c1c"/>
    <path d="M 923.918039 183.414339
L 923.918039 183.004574
L 937.133958 183.004574
L 937.133958 183.414339
z
" clip-path="url(#pd5d73fee70)" style="fill: #b71c1c"/>
    <path d="M 938.602393 183.414339
L 938.602393 183.17492
L 951.818313 183.17492
L 951.818313 183.414339
z
" clip-path="url(#pd5d73fee70)" style="fill: #b71c1c"/>
    <path d="M 953.286748 183.414339
L 953.286748 183.240188
L 966.502667 183.240188
L 966.502667 183.414339
z
" clip-path="url(#pd5d73fee70)" style="fill: #b71c1c"/>
    <path d="M 967.971103 183.414339
L 967.971103 183.352877
L 981.187022 183.352877
L 981.187022 183.414339
z
" clip-path="url(#pd5d73fee70)" style="fill: #b71c1c"/>
    <path d="M 982.655458 183.414339
L 982.655458 183.062651
L 995.871377 183.062651
L 995.871377 183.414339
z
" clip-path="url(#pd5d73fee70)" style="fill: #b71c1c"/>
    <path d="M 997.339812 183.414339
L 997.339812 183.352877
L 1010.555732 183.352877
L 1010.555732 183.414339
z
" clip-path="url(#pd5d73fee70)" style="fill: #b71c1c"/>
    <path d="M 1012.024167 183.414339
L 1012.024167 183.352877
L 1025.240086 183.352877
L 1025.240086 183.414339
z
" clip-path="url(#pd5d73fee70)" style="fill: #b71c1c"/>
    <path d="M 1026.708522 183.414339
L 1026.708522 183.294262
L 1039.924441 183.294262
L 1039.924441 183.414339
z
" clip-path="url(#pd5d73fee70)" style="fill: #b71c1c"/>
    <path d="M 1041.392876 183.414339
L 1041.392876 183.301651
L 1054.608796 183.301651
L 1054.608796 183.414339
z
" clip-path="url(#pd5d73fee70)" style="fill: #b71c1c"/>
    <path d="M 1056.077231 183.414339
L 1056.077231 183.294262
L 1069.29315 183.294262
L 1069.29315 183.414339
z
" clip-path="url(#pd5d73fee70)" style="fill: #b71c1c"/>
    <path d="M 1070.761586 183.414339
L 1070.761586 183.355725
L 1083.977505 183.355725
L 1083.977505 183.414339
z
" clip-path="url(#pd5d73fee70)" style="fill: #b71c1c"/>
    <path d="M 1114.81465 183.414339
L 1114.81465 183.352877
L 1128.030569 183.352877
L 1128.030569 183.414339
z
" clip-path="url(#pd5d73fee70)" style="fill: #b71c1c"/>
    <path d="M 1129.499005 183.414339
L 1129.499005 183.352877
L 1142.714924 183.352877
L 1142.714924 183.414339
z
" clip-path="url(#pd5d73fee70)" style="fill: #b71c1c"/>
    <path d="M 1158.867714 183.414339
L 1158.867714 183.355725
L 1172.083633 183.355725
L 1172.083633 183.414339
z
" clip-path="url(#pd5d73fee70)" style="fill: #b71c1c"/>
    <path d="M 1173.552069 183.414339
L 1173.552069 183.352877
L 1186.767988 183.352877
L 1186.767988 183.414339
z
" clip-path="url(#pd5d73fee70)" style="fill: #b71c1c"/>
    <path d="M 1202.920778 183.414339
L 1202.920778 183.294262
L 1216.136697 183.294262
L 1216.136697 183.414339
z
" clip-path="url(#pd5d73fee70)" style="fill: #b71c1c"/>
    <path d="M 1246.973842 183.414339
L 1246.973842 183.355725
L 1260.189762 183.355725
L 1260.189762 183.414339
z
" clip-path="url(#pd5d73fee70)" style="fill: #b71c1c"/>
    <path d="M 1291.026906 183.414339
L 1291.026906 183.355725
L 1304.242826 183.355725
L 1304.242826 183.414339
z
" clip-path="url(#pd5d73fee70)" style="fill: #b71c1c"/>
   </g>
   <g id="LineCollection_1">
    <path d="M 247.703504 191.243594
L 247.703504 19
" clip-path="url(#pd5d73fee70)" style="fill: none; stroke-dasharray: 0.886227,1.462274; stroke-dashoffset: 0; stroke: #808080; stroke-width: 0.886227"/>
    <path d="M 394.547052 191.243594
L 394.547052 19
" clip-path="url(#pd5d73fee70)" style="fill: none; stroke-dasharray: 0.886227,1.462274; stroke-dashoffset: 0; stroke: #808080; stroke-width: 0.886227"/>
    <path d="M 541.390599 191.243594
L 541.390599 19
" clip-path="url(#pd5d73fee70)" style="fill: none; stroke-dasharray: 0.886227,1.462274; stroke-dashoffset: 0; stroke: #808080; stroke-width: 0.886227"/>
   </g>
   <g id="text_5">
    <g clip-path="url(#pd5d73fee70)">
     <text style="font-size: 9px; font-family: 'IBM Plex Sans'; fill: #1b5e20" transform="translate(146.638372 24.489114)">savings &gt; $1k</text>
    </g>
    <g clip-path="url(#pd5d73fee70)">
     <text style="font-size: 9px; font-family: 'IBM Plex Sans'; fill: #1b5e20" transform="translate(163.48595 34.389395)">0.7%</text>
    </g>
   </g>
   <g id="text_6">
    <g clip-path="url(#pd5d73fee70)">
     <text style="font-size: 9px; font-family: 'IBM Plex Sans'; fill: #81c784" transform="translate(292.747856 24.489114)">savings $0-1k</text>
    </g>
    <g clip-path="url(#pd5d73fee70)">
     <text style="font-size: 9px; font-family: 'IBM Plex Sans'; fill: #81c784" transform="translate(307.629497 34.389395)">29.6%</text>
    </g>
   </g>
   <g id="text_7">
    <g clip-path="url(#pd5d73fee70)">
     <text style="font-size: 9px; font-family: 'IBM Plex Sans'; fill: #b71c1c" transform="translate(604.120946 24.363254)">losses &gt; $1k</text>
    </g>
    <g clip-path="url(#pd5d73fee70)">
     <text style="font-size: 9px; font-family: 'IBM Plex Sans'; fill: #b71c1c" transform="translate(616.000946 34.155254)">12.8%</text>
    </g>
   </g>
   <g id="text_8">
    <g clip-path="url(#pd5d73fee70)">
     <text style="font-size: 9px; font-family: 'IBM Plex Sans'; fill: #ef9a9a" transform="translate(441.858981 24.363254)">losses $0-1k</text>
    </g>
    <g clip-path="url(#pd5d73fee70)">
     <text style="font-size: 9px; font-family: 'IBM Plex Sans'; fill: #ef9a9a" transform="translate(454.473044 34.155254)">56.9%</text>
    </g>
   </g>
   <g id="patch_3">
    <path d="M 70.022812 191.243594
L 748.44 191.243594
" style="fill: none; stroke: #000000; stroke-width: 0.5; stroke-linejoin: miter; stroke-linecap: square"/>
   </g>
  </g>
  <g id="axes_2">
   <g id="patch_4">
    <path d="M 70.022813 382.487188
L 748.44 382.487188
L 748.44 210.243594
L 70.022813 210.243594
z
" style="fill: #ffffff"/>
   </g>
   <g id="matplotlib.axis_3">
    <g id="xtick_10">
     <g id="line2d_8">
      <path d="M 100.859957 382.487188
" style="fill: none; stroke: #000000; stroke-width: 1.5; stroke-linecap: square"/>
      <defs>
       <path id="mf5e648f051" d="M 0 0
L 0 2.75
" style="stroke: #000000"/>
      </defs>
      <g>
       <use xlink:href="#mf5e648f051" x="100.859957" y="382.487188" style="stroke: #000000"/>
      </g>
     </g>
     <g id="text_9">
      <text style="font-size: 11px; font-family: 'IBM Plex Sans'; text-anchor: middle; fill: #4d4d4d" x="100.859957" y="395.577188" transform="rotate(-0 100.859957 395.577188)">-2000</text>
     </g>
    </g>
    <g id="xtick_11">
     <g id="line2d_9">
      <path d="M 247.703504 382.487188
" style="fill: none; stroke: #000000; stroke-width: 1.5; stroke-linecap: square"/>
      <g>
       <use xlink:href="#mf5e648f051" x="247.703504" y="382.487188" style="stroke: #000000"/>
      </g>
     </g>
     <g id="text_10">
      <text style="font-size: 11px; font-family: 'IBM Plex Sans'; text-anchor: middle; fill: #4d4d4d" x="247.703504" y="395.577188" transform="rotate(-0 247.703504 395.577188)">-1000</text>
     </g>
    </g>
    <g id="xtick_12">
     <g id="line2d_10">
      <path d="M 394.547052 382.487188
" style="fill: none; stroke: #000000; stroke-width: 1.5; stroke-linecap: square"/>
      <g>
       <use xlink:href="#mf5e648f051" x="394.547052" y="382.487188" style="stroke: #000000"/>
      </g>
     </g>
     <g id="text_11">
      <text style="font-size: 11px; font-family: 'IBM Plex Sans'; text-anchor: middle; fill: #4d4d4d" x="394.547052" y="395.577188" transform="rotate(-0 394.547052 395.577188)">0</text>
     </g>
    </g>
    <g id="xtick_13">
     <g id="line2d_11">
      <path d="M 541.390599 382.487188
" style="fill: none; stroke: #000000; stroke-width: 1.5; stroke-linecap: square"/>
      <g>
       <use xlink:href="#mf5e648f051" x="541.390599" y="382.487188" style="stroke: #000000"/>
      </g>
     </g>
     <g id="text_12">
      <text style="font-size: 11px; font-family: 'IBM Plex Sans'; text-anchor: middle; fill: #4d4d4d" x="541.390599" y="395.577188" transform="rotate(-0 541.390599 395.577188)">1000</text>
     </g>
    </g>
    <g id="xtick_14">
     <g id="line2d_12">
      <path d="M 688.234146 382.487188
" style="fill: none; stroke: #000000; stroke-width: 1.5; stroke-linecap: square"/>
      <g>
       <use xlink:href="#mf5e648f051" x="688.234146" y="382.487188" style="stroke: #000000"/>
      </g>
     </g>
     <g id="text_13">
      <text style="font-size: 11px; font-family: 'IBM Plex Sans'; text-anchor: middle; fill: #4d4d4d" x="688.234146" y="395.577188" transform="rotate(-0 688.234146 395.577188)">2000</text>
     </g>
    </g>
    <g id="xtick_15">
     <g id="line2d_13">
      <path d="M 174.281731 382.487188
" style="fill: none; stroke: #000000; stroke-width: 1.5; stroke-linecap: square"/>
      <defs>
       <path id="m235483368a" d="M 0 0
L 0 1.375
" style="stroke: #000000"/>
      </defs>
      <g>
       <use xlink:href="#m235483368a" x="174.281731" y="382.487188" style="stroke: #000000"/>
      </g>
     </g>
    </g>
    <g id="xtick_16">
     <g id="line2d_14">
      <path d="M 321.125278 382.487188
" style="fill: none; stroke: #000000; stroke-width: 1.5; stroke-linecap: square"/>
      <g>
       <use xlink:href="#m235483368a" x="321.125278" y="382.487188" style="stroke: #000000"/>
      </g>
     </g>
    </g>
    <g id="xtick_17">
     <g id="line2d_15">
      <path d="M 467.968825 382.487188
" style="fill: none; stroke: #000000; stroke-width: 1.5; stroke-linecap: square"/>
      <g>
       <use xlink:href="#m235483368a" x="467.968825" y="382.487188" style="stroke: #000000"/>
      </g>
     </g>
    </g>
    <g id="xtick_18">
     <g id="line2d_16">
      <path d="M 614.812372 382.487188
" style="fill: none; stroke: #000000; stroke-width: 1.5; stroke-linecap: square"/>
      <g>
       <use xlink:href="#m235483368a" x="614.812372" y="382.487188" style="stroke: #000000"/>
      </g>
     </g>
    </g>
   </g>
   <g id="matplotlib.axis_4">
    <g id="ytick_8">
     <g id="line2d_17">
      <path d="M 70.022813 374.657933
L 748.44 374.657933
" clip-path="url(#pf32bee5e56)" style="fill: none; stroke: #e5e5e5; stroke-linecap: square"/>
     </g>
     <g id="text_14">
      <text style="font-size: 11px; font-family: 'IBM Plex Sans'; text-anchor: start; fill: #4d4d4d" x="61.222813" y="378.727933" transform="rotate(-0 61.222813 378.727933)">0</text>
     </g>
    </g>
    <g id="ytick_9">
     <g id="line2d_18">
      <path d="M 70.022813 320.178627
L 748.44 320.178627
" clip-path="url(#pf32bee5e56)" style="fill: none; stroke: #e5e5e5; stroke-linecap: square"/>
     </g>
     <g id="text_15">
      <text style="font-size: 11px; font-family: 'IBM Plex Sans'; text-anchor: start; fill: #4d4d4d" x="28.222813" y="324.248627" transform="rotate(-0 28.222813 324.248627)">200000</text>
     </g>
    </g>
    <g id="ytick_10">
     <g id="line2d_19">
      <path d="M 70.022813 265.699321
L 748.44 265.699321
" clip-path="url(#pf32bee5e56)" style="fill: none; stroke: #e5e5e5; stroke-linecap: square"/>
     </g>
     <g id="text_16">
      <text style="font-size: 11px; font-family: 'IBM Plex Sans'; text-anchor: start; fill: #4d4d4d" x="28.222813" y="269.769321" transform="rotate(-0 28.222813 269.769321)">400000</text>
     </g>
    </g>
    <g id="ytick_11">
     <g id="line2d_20">
      <path d="M 70.022813 211.220015
L 748.44 211.220015
" clip-path="url(#pf32bee5e56)" style="fill: none; stroke: #e5e5e5; stroke-linecap: square"/>
     </g>
     <g id="text_17">
      <text style="font-size: 11px; font-family: 'IBM Plex Sans'; text-anchor: start; fill: #4d4d4d" x="28.222813" y="215.290015" transform="rotate(-0 28.222813 215.290015)">600000</text>
     </g>
    </g>
    <g id="ytick_12">
     <g id="line2d_21">
      <path d="M 70.022813 347.41828
L 748.44 347.41828
" clip-path="url(#pf32bee5e56)" style="fill: none; stroke: #fafafa; stroke-width: 0.5; stroke-linecap: square"/>
     </g>
    </g>
    <g id="ytick_13">
     <g id="line2d_22">
      <path d="M 70.022813 292.938974
L 748.44 292.938974
" clip-path="url(#pf32bee5e56)" style="fill: none; stroke: #fafafa; stroke-width: 0.5; stroke-linecap: square"/>
     </g>
    </g>
    <g id="ytick_14">
     <g id="line2d_23">
      <path d="M 70.022813 238.459668
L 748.44 238.459668
" clip-path="url(#pf32bee5e56)" style="fill: none; stroke: #fafafa; stroke-width: 0.5; stroke-linecap: square"/>
     </g>
    </g>
   </g>
   <g id="PolyCollection_2">
    <path d="M -603.254851 374.657933
L -603.254851 374.603859
L -590.038932 374.603859
L -590.038932 374.657933
z
" clip-path="url(#pf32bee5e56)" style="fill: #1b5e20"/>
    <path d="M -500.464368 374.657933
L -500.464368 374.603859
L -487.248449 374.603859
L -487.248449 374.657933
z
" clip-path="url(#pf32bee5e56)" style="fill: #1b5e20"/>
    <path d="M -441.726949 374.657933
L -441.726949 374.603859
L -428.51103 374.603859
L -428.51103 374.657933
z
" clip-path="url(#pf32bee5e56)" style="fill: #1b5e20"/>
    <path d="M -324.252111 374.657933
L -324.252111 374.603859
L -311.036192 374.603859
L -311.036192 374.657933
z
" clip-path="url(#pf32bee5e56)" style="fill: #1b5e20"/>
    <path d="M -294.883402 374.657933
L -294.883402 374.541439
L -281.667483 374.541439
L -281.667483 374.657933
z
" clip-path="url(#pf32bee5e56)" style="fill: #1b5e20"/>
    <path d="M -280.199047 374.657933
L -280.199047 374.603859
L -266.983128 374.603859
L -266.983128 374.657933
z
" clip-path="url(#pf32bee5e56)" style="fill: #1b5e20"/>
    <path d="M -265.514693 374.657933
L -265.514693 374.603859
L -252.298773 374.603859
L -252.298773 374.657933
z
" clip-path="url(#pf32bee5e56)" style="fill: #1b5e20"/>
    <path d="M -250.830338 374.657933
L -250.830338 374.549785
L -237.614419 374.549785
L -237.614419 374.657933
z
" clip-path="url(#pf32bee5e56)" style="fill: #1b5e20"/>
    <path d="M -236.145983 374.657933
L -236.145983 374.603859
L -222.930064 374.603859
L -222.930064 374.657933
z
" clip-path="url(#pf32bee5e56)" style="fill: #1b5e20"/>
    <path d="M -221.461628 374.657933
L -221.461628 374.549785
L -208.245709 374.549785
L -208.245709 374.657933
z
" clip-path="url(#pf32bee5e56)" style="fill: #1b5e20"/>
    <path d="M -192.092919 374.657933
L -192.092919 374.441637
L -178.877 374.441637
L -178.877 374.657933
z
" clip-path="url(#pf32bee5e56)" style="fill: #1b5e20"/>
    <path d="M -177.408564 374.657933
L -177.408564 374.49117
L -164.192645 374.49117
L -164.192645 374.657933
z
" clip-path="url(#pf32bee5e56)" style="fill: #1b5e20"/>
    <path d="M -162.72421 374.657933
L -162.72421 374.49117
L -149.50829 374.49117
L -149.50829 374.657933
z
" clip-path="url(#pf32bee5e56)" style="fill: #1b5e20"/>
    <path d="M -148.039855 374.657933
L -148.039855 374.541439
L -134.823936 374.541439
L -134.823936 374.657933
z
" clip-path="url(#pf32bee5e56)" style="fill: #1b5e20"/>
    <path d="M -133.3555 374.657933
L -133.3555 374.425902
L -120.139581 374.425902
L -120.139581 374.657933
z
" clip-path="url(#pf32bee5e56)" style="fill: #1b5e20"/>
    <path d="M -118.671145 374.657933
L -118.671145 374.16292
L -105.455226 374.16292
L -105.455226 374.657933
z
" clip-path="url(#pf32bee5e56)" style="fill: #1b5e20"/>
    <path d="M -103.986791 374.657933
L -103.986791 374.441637
L -90.770872 374.441637
L -90.770872 374.657933
z
" clip-path="url(#pf32bee5e56)" style="fill: #1b5e20"/>
    <path d="M -89.302436 374.657933
L -89.302436 374.279415
L -76.086517 374.279415
L -76.086517 374.657933
z
" clip-path="url(#pf32bee5e56)" style="fill: #1b5e20"/>
    <path d="M -74.618081 374.657933
L -74.618081 373.868947
L -61.402162 373.868947
L -61.402162 374.657933
z
" clip-path="url(#pf32bee5e56)" style="fill: #1b5e20"/>
    <path d="M -59.933727 374.657933
L -59.933727 374.171267
L -46.717807 374.171267
L -46.717807 374.657933
z
" clip-path="url(#pf32bee5e56)" style="fill: #1b5e20"/>
    <path d="M -45.249372 374.657933
L -45.249372 373.946624
L -32.033453 373.946624
L -32.033453 374.657933
z
" clip-path="url(#pf32bee5e56)" style="fill: #1b5e20"/>
    <path d="M -30.565017 374.657933
L -30.565017 373.443961
L -17.349098 373.443961
L -17.349098 374.657933
z
" clip-path="url(#pf32bee5e56)" style="fill: #1b5e20"/>
    <path d="M -15.880663 374.657933
L -15.880663 373.932321
L -2.664743 373.932321
L -2.664743 374.657933
z
" clip-path="url(#pf32bee5e56)" style="fill: #1b5e20"/>
    <path d="M -1.196308 374.657933
L -1.196308 373.703818
L 12.019611 373.703818
L 12.019611 374.657933
z
" clip-path="url(#pf32bee5e56)" style="fill: #1b5e20"/>
    <path d="M 13.488047 374.657933
L 13.488047 373.600946
L 26.703966 373.600946
L 26.703966 374.657933
z
" clip-path="url(#pf32bee5e56)" style="fill: #1b5e20"/>
    <path d="M 28.172402 374.657933
L 28.172402 373.171405
L 41.388321 373.171405
L 41.388321 374.657933
z
" clip-path="url(#pf32bee5e56)" style="fill: #1b5e20"/>
    <path d="M 42.856756 374.657933
L 42.856756 372.642523
L 56.072676 372.642523
L 56.072676 374.657933
z
" clip-path="url(#pf32bee5e56)" style="fill: #1b5e20"/>
    <path d="M 57.541111 374.657933
L 57.541111 372.353848
L 70.75703 372.353848
L 70.75703 374.657933
z
" clip-path="url(#pf32bee5e56)" style="fill: #1b5e20"/>
    <path d="M 72.225466 374.657933
L 72.225466 372.119918
L 85.441385 372.119918
L 85.441385 374.657933
z
" clip-path="url(#pf32bee5e56)" style="fill: #1b5e20"/>
    <path d="M 86.90982 374.657933
L 86.90982 371.751414
L 100.12574 371.751414
L 100.12574 374.657933
z
" clip-path="url(#pf32bee5e56)" style="fill: #1b5e20"/>
    <path d="M 101.594175 374.657933
L 101.594175 371.279693
L 114.810094 371.279693
L 114.810094 374.657933
z
" clip-path="url(#pf32bee5e56)" style="fill: #1b5e20"/>
    <path d="M 116.27853 374.657933
L 116.27853 370.30915
L 129.494449 370.30915
L 129.494449 374.657933
z
" clip-path="url(#pf32bee5e56)" style="fill: #1b5e20"/>
    <path d="M 130.962885 374.657933
L 130.962885 369.265214
L 144.178804 369.265214
L 144.178804 374.657933
z
" clip-path="url(#pf32bee5e56)" style="fill: #1b5e20"/>
    <path d="M 145.647239 374.657933
L 145.647239 368.891147
L 158.863158 368.891147
L 158.863158 374.657933
z
" clip-path="url(#pf32bee5e56)" style="fill: #1b5e20"/>
    <path d="M 160.331594 374.657933
L 160.331594 367.73
L 173.547513 367.73
L 173.547513 374.657933
z
" clip-path="url(#pf32bee5e56)" style="fill: #1b5e20"/>
    <path d="M 175.015949 374.657933
L 175.015949 366.102496
L 188.231868 366.102496
L 188.231868 374.657933
z
" clip-path="url(#pf32bee5e56)" style="fill: #1b5e20"/>
    <path d="M 189.700303 374.657933
L 189.700303 363.753029
L 202.916223 363.753029
L 202.916223 374.657933
z
" clip-path="url(#pf32bee5e56)" style="fill: #1b5e20"/>
    <path d="M 204.384658 374.657933
L 204.384658 361.196802
L 217.600577 361.196802
L 217.600577 374.657933
z
" clip-path="url(#pf32bee5e56)" style="fill: #1b5e20"/>
    <path d="M 219.069013 374.657933
L 219.069013 356.464847
L 232.284932 356.464847
L 232.284932 374.657933
z
" clip-path="url(#pf32bee5e56)" style="fill: #1b5e20"/>
    <path d="M 233.753367 374.657933
L 233.753367 351.818956
L 246.969287 351.818956
L 246.969287 374.657933
z
" clip-path="url(#pf32bee5e56)" style="fill: #1b5e20"/>
    <path d="M 248.437722 374.657933
L 248.437722 347.513469
L 261.653641 347.513469
L 261.653641 374.657933
z
" clip-path="url(#pf32bee5e56)" style="fill: #81c784"/>
    <path d="M 263.122077 374.657933
L 263.122077 342.053863
L 276.337996 342.053863
L 276.337996 374.657933
z
" clip-path="url(#pf32bee5e56)" style="fill: #81c784"/>
    <path d="M 277.806432 374.657933
L 277.806432 334.11361
L 291.022351 334.11361
L 291.022351 374.657933
z
" clip-path="url(#pf32bee5e56)" style="fill: #81c784"/>
    <path d="M 292.490786 374.657933
L 292.490786 325.892389
L 305.706706 325.892389
L 305.706706 374.657933
z
" clip-path="url(#pf32bee5e56)" style="fill: #81c784"/>
    <path d="M 307.175141 374.657933
L 307.175141 315.692517
L 320.39106 315.692517
L 320.39106 374.657933
z
" clip-path="url(#pf32bee5e56)" style="fill: #81c784"/>
    <path d="M 321.859496 374.657933
L 321.859496 302.696933
L 335.075415 302.696933
L 335.075415 374.657933
z
" clip-path="url(#pf32bee5e56)" style="fill: #81c784"/>
    <path d="M 336.54385 374.657933
L 336.54385 277.664697
L 349.75977 277.664697
L 349.75977 374.657933
z
" clip-path="url(#pf32bee5e56)" style="fill: #81c784"/>
    <path d="M 351.228205 374.657933
L 351.228205 255.709708
L 364.444124 255.709708
L 364.444124 374.657933
z
" clip-path="url(#pf32bee5e56)" style="fill: #81c784"/>
    <path d="M 365.91256 374.657933
L 365.91256 228.696963
L 379.128479 228.696963
L 379.128479 374.657933
z
" clip-path="url(#pf32bee5e56)" style="fill: #81c784"/>
    <path d="M 380.596915 374.657933
L 380.596915 225.529281
L 393.812834 225.529281
L 393.812834 374.657933
z
" clip-path="url(#pf32bee5e56)" style="fill: #81c784"/>
    <path d="M 395.281269 374.657933
L 395.281269 276.8004
L 408.497189 276.8004
L 408.497189 374.657933
z
" clip-path="url(#pf32bee5e56)" style="fill: #ef9a9a"/>
    <path d="M 409.965624 374.657933
L 409.965624 325.087697
L 423.181543 325.087697
L 423.181543 374.657933
z
" clip-path="url(#pf32bee5e56)" style="fill: #ef9a9a"/>
    <path d="M 424.649979 374.657933
L 424.649979 339.95948
L 437.865898 339.95948
L 437.865898 374.657933
z
" clip-path="url(#pf32bee5e56)" style="fill: #ef9a9a"/>
    <path d="M 439.334333 374.657933
L 439.334333 350.985197
L 452.550253 350.985197
L 452.550253 374.657933
z
" clip-path="url(#pf32bee5e56)" style="fill: #ef9a9a"/>
    <path d="M 454.018688 374.657933
L 454.018688 357.690035
L 467.234607 357.690035
L 467.234607 374.657933
z
" clip-path="url(#pf32bee5e56)" style="fill: #ef9a9a"/>
    <path d="M 468.703043 374.657933
L 468.703043 361.43624
L 481.918962 361.43624
L 481.918962 374.657933
z
" clip-path="url(#pf32bee5e56)" style="fill: #ef9a9a"/>
    <path d="M 483.387398 374.657933
L 483.387398 365.910055
L 496.603317 365.910055
L 496.603317 374.657933
z
" clip-path="url(#pf32bee5e56)" style="fill: #ef9a9a"/>
    <path d="M 498.071752 374.657933
L 498.071752 368.937755
L 511.287671 368.937755
L 511.287671 374.657933
z
" clip-path="url(#pf32bee5e56)" style="fill: #ef9a9a"/>
    <path d="M 512.756107 374.657933
L 512.756107 370.948005
L 525.972026 370.948005
L 525.972026 374.657933
z
" clip-path="url(#pf32bee5e56)" style="fill: #ef9a9a"/>
    <path d="M 527.440462 374.657933
L 527.440462 370.800957
L 540.656381 370.800957
L 540.656381 374.657933
z
" clip-path="url(#pf32bee5e56)" style="fill: #ef9a9a"/>
    <path d="M 542.124816 374.657933
L 542.124816 372.694552
L 555.340736 372.694552
L 555.340736 374.657933
z
" clip-path="url(#pf32bee5e56)" style="fill: #b71c1c"/>
    <path d="M 556.809171 374.657933
L 556.809171 372.940402
L 570.02509 372.940402
L 570.02509 374.657933
z
" clip-path="url(#pf32bee5e56)" style="fill: #b71c1c"/>
    <path d="M 571.493526 374.657933
L 571.493526 373.104017
L 584.709445 373.104017
L 584.709445 374.657933
z
" clip-path="url(#pf32bee5e56)" style="fill: #b71c1c"/>
    <path d="M 586.17788 374.657933
L 586.17788 373.766166
L 599.3938 373.766166
L 599.3938 374.657933
z
" clip-path="url(#pf32bee5e56)" style="fill: #b71c1c"/>
    <path d="M 600.862235 374.657933
L 600.862235 373.887936
L 614.078154 373.887936
L 614.078154 374.657933
z
" clip-path="url(#pf32bee5e56)" style="fill: #b71c1c"/>
    <path d="M 615.54659 374.657933
L 615.54659 374.482089
L 628.762509 374.482089
L 628.762509 374.657933
z
" clip-path="url(#pf32bee5e56)" style="fill: #b71c1c"/>
    <path d="M 630.230945 374.657933
L 630.230945 374.482089
L 643.446864 374.482089
L 643.446864 374.657933
z
" clip-path="url(#pf32bee5e56)" style="fill: #b71c1c"/>
    <path d="M 644.915299 374.657933
L 644.915299 374.306244
L 658.131219 374.306244
L 658.131219 374.657933
z
" clip-path="url(#pf32bee5e56)" style="fill: #b71c1c"/>
    <path d="M 659.599654 374.657933
L 659.599654 374.423474
L 672.815573 374.423474
L 672.815573 374.657933
z
" clip-path="url(#pf32bee5e56)" style="fill: #b71c1c"/>
    <path d="M 674.284009 374.657933
L 674.284009 374.537856
L 687.499928 374.537856
L 687.499928 374.657933
z
" clip-path="url(#pf32bee5e56)" style="fill: #b71c1c"/>
    <path d="M 688.968363 374.657933
L 688.968363 374.596471
L 702.184283 374.596471
L 702.184283 374.657933
z
" clip-path="url(#pf32bee5e56)" style="fill: #b71c1c"/>
    <path d="M 703.652718 374.657933
L 703.652718 374.540704
L 716.868637 374.540704
L 716.868637 374.657933
z
" clip-path="url(#pf32bee5e56)" style="fill: #b71c1c"/>
    <path d="M 718.337073 374.657933
L 718.337073 374.596471
L 731.552992 374.596471
L 731.552992 374.657933
z
" clip-path="url(#pf32bee5e56)" style="fill: #b71c1c"/>
    <path d="M 733.021428 374.657933
L 733.021428 374.599318
L 746.237347 374.599318
L 746.237347 374.657933
z
" clip-path="url(#pf32bee5e56)" style="fill: #b71c1c"/>
    <path d="M 747.705782 374.657933
L 747.705782 374.537856
L 760.921702 374.537856
L 760.921702 374.657933
z
" clip-path="url(#pf32bee5e56)" style="fill: #b71c1c"/>
    <path d="M 762.390137 374.657933
L 762.390137 374.599318
L 775.606056 374.599318
L 775.606056 374.657933
z
" clip-path="url(#pf32bee5e56)" style="fill: #b71c1c"/>
    <path d="M 791.758846 374.657933
L 791.758846 374.599318
L 804.974766 374.599318
L 804.974766 374.657933
z
" clip-path="url(#pf32bee5e56)" style="fill: #b71c1c"/>
    <path d="M 865.18062 374.657933
L 865.18062 374.599318
L 878.396539 374.599318
L 878.396539 374.657933
z
" clip-path="url(#pf32bee5e56)" style="fill: #b71c1c"/>
   </g>
   <g id="LineCollection_2">
    <path d="M 247.703504 382.487188
L 247.703504 210.243594
" clip-path="url(#pf32bee5e56)" style="fill: none; stroke-dasharray: 0.886227,1.462274; stroke-dashoffset: 0; stroke: #808080; stroke-width: 0.886227"/>
    <path d="M 394.547052 382.487188
L 394.547052 210.243594
" clip-path="url(#pf32bee5e56)" style="fill: none; stroke-dasharray: 0.886227,1.462274; stroke-dashoffset: 0; stroke: #808080; stroke-width: 0.886227"/>
    <path d="M 541.390599 382.487188
L 541.390599 210.243594
" clip-path="url(#pf32bee5e56)" style="fill: none; stroke-dasharray: 0.886227,1.462274; stroke-dashoffset: 0; stroke: #808080; stroke-width: 0.886227"/>
   </g>
   <g id="text_18">
    <g clip-path="url(#pf32bee5e56)">
     <text style="font-size: 9px; font-family: 'IBM Plex Sans'; fill: #1b5e20" transform="translate(146.638372 215.732707)">savings &gt; $1k</text>
    </g>
    <g clip-path="url(#pf32bee5e56)">
     <text style="font-size: 9px; font-family: 'IBM Plex Sans'; fill: #1b5e20" transform="translate(160.78595 225.632989)">10.2%</text>
    </g>
   </g>
   <g id="text_19">
    <g clip-path="url(#pf32bee5e56)">
     <text style="font-size: 9px; font-family: 'IBM Plex Sans'; fill: #81c784" transform="translate(292.747856 215.732707)">savings $0-1k</text>
    </g>
    <g clip-path="url(#pf32bee5e56)">
     <text style="font-size: 9px; font-family: 'IBM Plex Sans'; fill: #81c784" transform="translate(307.629497 225.632989)">67.2%</text>
    </g>
   </g>
   <g id="text_20">
    <g clip-path="url(#pf32bee5e56)">
     <text style="font-size: 9px; font-family: 'IBM Plex Sans'; fill: #b71c1c" transform="translate(604.120946 215.606848)">losses &gt; $1k</text>
    </g>
    <g clip-path="url(#pf32bee5e56)">
     <text style="font-size: 9px; font-family: 'IBM Plex Sans'; fill: #b71c1c" transform="translate(618.700946 225.398848)">0.7%</text>
    </g>
   </g>
   <g id="text_21">
    <g clip-path="url(#pf32bee5e56)">
     <text style="font-size: 9px; font-family: 'IBM Plex Sans'; fill: #ef9a9a" transform="translate(441.858981 215.606848)">losses $0-1k</text>
    </g>
    <g clip-path="url(#pf32bee5e56)">
     <text style="font-size: 9px; font-family: 'IBM Plex Sans'; fill: #ef9a9a" transform="translate(454.473044 225.398848)">21.9%</text>
    </g>
   </g>
   <g id="patch_5">
    <path d="M 70.022812 382.487188
L 748.44 382.487188
" style="fill: none; stroke: #000000; stroke-width: 0.5; stroke-linejoin: miter; stroke-linecap: square"/>
   </g>
  </g>
  <g id="text_22">
   <text style="font-size: 13px; font-family: 'GT Planar'; text-anchor: start; fill: #333333" x="341.047422" y="422.1" transform="rotate(-0 341.047422 422.1)">Annual Bill Change ($)</text>
  </g>
  <g id="text_23">
   <text style="font-size: 13px; font-family: 'GT Planar'; fill: #333333" transform="translate(17.882812 270.605391) rotate(-90)"># of Homes (weighted)</text>
  </g>
  <g id="text_24">
   <text style="font-size: 13px; font-family: 'GT Planar'; text-anchor: middle; fill: #333333" x="121.63388" y="13.958" transform="rotate(-0 121.63388 13.958)">Default rate</text>
  </g>
  <g id="text_25">
   <text style="font-size: 13px; font-family: 'GT Planar'; text-anchor: middle; fill: #333333" x="135.887161" y="205.201594" transform="rotate(-0 135.887161 205.201594)">HP seasonal rate</text>
  </g>
 </g>
 <defs>
  <clipPath id="pd5d73fee70">
   <rect x="70.022813" y="19" width="678.417187" height="172.243594"/>
  </clipPath>
  <clipPath id="pf32bee5e56">
   <rect x="70.022813" y="210.243594" width="678.417187" height="172.243594"/>
  </clipPath>
 </defs>
</svg>
