<svg xmlns:xlink="http://www.w3.org/1999/xlink" xmlns="http://www.w3.org/2000/svg" width="847.030492pt" height="1230.912pt" viewBox="0 0 847.030492 1230.912" version="1.1">
 <metadata>
  <rdf:RDF xmlns:dc="http://purl.org/dc/elements/1.1/" xmlns:cc="http://creativecommons.org/ns#" xmlns:rdf="http://www.w3.org/1999/02/22-rdf-syntax-ns#">
   <cc:Work>
    <dc:type rdf:resource="http://purl.org/dc/dcmitype/StillImage"/>
    <dc:date>2026-04-11T12:05:22.920797</dc:date>
    <dc:format>image/svg+xml</dc:format>
    <dc:creator>
     <cc:Agent>
      <dc:title>Matplotlib v3.10.8, https://matplotlib.org/</dc:title>
     </cc:Agent>
    </dc:creator>
   </cc:Work>
  </rdf:RDF>
 </metadata>
 <defs>
  <style type="text/css">*{stroke-linejoin: round; stroke-linecap: butt}</style>
 </defs>
 <g id="figure_1">
  <g id="patch_1">
   <path d="M 0 1230.912  L 847.030492 1230.912  L 847.030492 0  L 0 0  z " style="fill: #ffffff"/>
  </g>
  <g id="axes_1">
   <g id="patch_2">
    <path d="M 13.889242 1223.712  L 760.889242 1223.712  L 760.889242 32.544  L 13.889242 32.544  z " style="fill: #ffffff"/>
   </g>
   <g id="patch_3">
    <path d="M 13.889242 93.194102  L 226.200121 93.194102  L 226.200121 120.486648  L 13.889242 120.486648  z " clip-path="url(#p00ffdf431b)" style="fill: #b71c1c"/>
   </g>
   <g id="patch_4">
    <path d="M 226.200121 93.194102  L 716.968985 93.194102  L 716.968985 120.486648  L 226.200121 120.486648  z " clip-path="url(#p00ffdf431b)" style="fill: #ef9a9a"/>
   </g>
   <g id="patch_5">
    <path d="M 716.968985 93.194102  L 760.000168 93.194102  L 760.000168 120.486648  L 716.968985 120.486648  z " clip-path="url(#p00ffdf431b)" style="fill: #81c784"/>
   </g>
   <g id="patch_6">
    <path d="M 760.000168 93.194102  L 760.889242 93.194102  L 760.889242 120.486648  L 760.000168 120.486648  z " clip-path="url(#p00ffdf431b)" style="fill: #1b5e20"/>
   </g>
   <g id="patch_7">
    <path d="M 13.889242 127.76466  L 23.313427 127.76466  L 23.313427 155.057206  L 13.889242 155.057206  z " clip-path="url(#p00ffdf431b)" style="fill: #b71c1c"/>
   </g>
   <g id="patch_8">
    <path d="M 23.313427 127.76466  L 371.119188 127.76466  L 371.119188 155.057206  L 23.313427 155.057206  z " clip-path="url(#p00ffdf431b)" style="fill: #ef9a9a"/>
   </g>
   <g id="patch_9">
    <path d="M 371.119188 127.76466  L 755.910428 127.76466  L 755.910428 155.057206  L 371.119188 155.057206  z " clip-path="url(#p00ffdf431b)" style="fill: #81c784"/>
   </g>
   <g id="patch_10">
    <path d="M 755.910428 127.76466  L 760.889242 127.76466  L 760.889242 155.057206  L 755.910428 155.057206  z " clip-path="url(#p00ffdf431b)" style="fill: #1b5e20"/>
   </g>
   <g id="patch_11">
    <path d="M 13.889242 270.292399  L 94.739381 270.292399  L 94.739381 297.584945  L 13.889242 297.584945  z " clip-path="url(#p00ffdf431b)" style="fill: #b71c1c"/>
   </g>
   <g id="patch_12">
    <path d="M 94.739381 270.292399  L 721.500713 270.292399  L 721.500713 297.584945  L 94.739381 297.584945  z " clip-path="url(#p00ffdf431b)" style="fill: #ef9a9a"/>
   </g>
   <g id="patch_13">
    <path d="M 721.500713 270.292399  L 760.889242 270.292399  L 760.889242 297.584945  L 721.500713 297.584945  z " clip-path="url(#p00ffdf431b)" style="fill: #81c784"/>
   </g>
   <g id="patch_14">
    <path d="M 760.889242 270.292399  L 760.889242 270.292399  L 760.889242 297.584945  L 760.889242 297.584945  z " clip-path="url(#p00ffdf431b)" style="fill: #1b5e20"/>
   </g>
   <g id="patch_15">
    <path d="M 13.889242 304.862957  L 14.580269 304.862957  L 14.580269 332.155503  L 13.889242 332.155503  z " clip-path="url(#p00ffdf431b)" style="fill: #b71c1c"/>
   </g>
   <g id="patch_16">
    <path d="M 14.580269 304.862957  L 217.051129 304.862957  L 217.051129 332.155503  L 14.580269 332.155503  z " clip-path="url(#p00ffdf431b)" style="fill: #ef9a9a"/>
   </g>
   <g id="patch_17">
    <path d="M 217.051129 304.862957  L 758.125135 304.862957  L 758.125135 332.155503  L 217.051129 332.155503  z " clip-path="url(#p00ffdf431b)" style="fill: #81c784"/>
   </g>
   <g id="patch_18">
    <path d="M 758.125135 304.862957  L 760.889242 304.862957  L 760.889242 332.155503  L 758.125135 332.155503  z " clip-path="url(#p00ffdf431b)" style="fill: #1b5e20"/>
   </g>
   <g id="patch_19">
    <path d="M 13.889242 447.390697  L 305.41213 447.390697  L 305.41213 474.683242  L 13.889242 474.683242  z " clip-path="url(#p00ffdf431b)" style="fill: #b71c1c"/>
   </g>
   <g id="patch_20">
    <path d="M 305.41213 447.390697  L 713.544172 447.390697  L 713.544172 474.683242  L 305.41213 474.683242  z " clip-path="url(#p00ffdf431b)" style="fill: #ef9a9a"/>
   </g>
   <g id="patch_21">
    <path d="M 713.544172 447.390697  L 757.3822 447.390697  L 757.3822 474.683242  L 713.544172 474.683242  z " clip-path="url(#p00ffdf431b)" style="fill: #81c784"/>
   </g>
   <g id="patch_22">
    <path d="M 757.3822 447.390697  L 760.889242 447.390697  L 760.889242 474.683242  L 757.3822 474.683242  z " clip-path="url(#p00ffdf431b)" style="fill: #1b5e20"/>
   </g>
   <g id="patch_23">
    <path d="M 13.889242 481.961255  L 48.521285 481.961255  L 48.521285 509.2538  L 13.889242 509.2538  z " clip-path="url(#p00ffdf431b)" style="fill: #b71c1c"/>
   </g>
   <g id="patch_24">
    <path d="M 48.521285 481.961255  L 442.186777 481.961255  L 442.186777 509.2538  L 48.521285 509.2538  z " clip-path="url(#p00ffdf431b)" style="fill: #ef9a9a"/>
   </g>
   <g id="patch_25">
    <path d="M 442.186777 481.961255  L 744.669172 481.961255  L 744.669172 509.2538  L 442.186777 509.2538  z " clip-path="url(#p00ffdf431b)" style="fill: #81c784"/>
   </g>
   <g id="patch_26">
    <path d="M 744.669172 481.961255  L 760.889242 481.961255  L 760.889242 509.2538  L 744.669172 509.2538  z " clip-path="url(#p00ffdf431b)" style="fill: #1b5e20"/>
   </g>
   <g id="patch_27">
    <path d="M 13.889242 624.488994  L 68.931348 624.488994  L 68.931348 651.78154  L 13.889242 651.78154  z " clip-path="url(#p00ffdf431b)" style="fill: #b71c1c"/>
   </g>
   <g id="patch_28">
    <path d="M 68.931348 624.488994  L 401.149769 624.488994  L 401.149769 651.78154  L 68.931348 651.78154  z " clip-path="url(#p00ffdf431b)" style="fill: #ef9a9a"/>
   </g>
   <g id="patch_29">
    <path d="M 401.149769 624.488994  L 754.991874 624.488994  L 754.991874 651.78154  L 401.149769 651.78154  z " clip-path="url(#p00ffdf431b)" style="fill: #81c784"/>
   </g>
   <g id="patch_30">
    <path d="M 754.991874 624.488994  L 760.889242 624.488994  L 760.889242 651.78154  L 754.991874 651.78154  z " clip-path="url(#p00ffdf431b)" style="fill: #1b5e20"/>
   </g>
   <g id="patch_31">
    <path d="M 13.889242 659.059552  L 13.889242 659.059552  L 13.889242 686.352098  L 13.889242 686.352098  z " clip-path="url(#p00ffdf431b)" style="fill: #b71c1c"/>
   </g>
   <g id="patch_32">
    <path d="M 13.889242 659.059552  L 51.239242 659.059552  L 51.239242 686.352098  L 13.889242 686.352098  z " clip-path="url(#p00ffdf431b)" style="fill: #ef9a9a"/>
   </g>
   <g id="patch_33">
    <path d="M 51.239242 659.059552  L 513.199769 659.059552  L 513.199769 686.352098  L 51.239242 686.352098  z " clip-path="url(#p00ffdf431b)" style="fill: #81c784"/>
   </g>
   <g id="patch_34">
    <path d="M 513.199769 659.059552  L 760.889242 659.059552  L 760.889242 686.352098  L 513.199769 686.352098  z " clip-path="url(#p00ffdf431b)" style="fill: #1b5e20"/>
   </g>
   <g id="patch_35">
    <path d="M 13.889242 801.587291  L 23.111464 801.587291  L 23.111464 828.879837  L 13.889242 828.879837  z " clip-path="url(#p00ffdf431b)" style="fill: #b71c1c"/>
   </g>
   <g id="patch_36">
    <path d="M 23.111464 801.587291  L 389.365433 801.587291  L 389.365433 828.879837  L 23.111464 828.879837  z " clip-path="url(#p00ffdf431b)" style="fill: #ef9a9a"/>
   </g>
   <g id="patch_37">
    <path d="M 389.365433 801.587291  L 755.619401 801.587291  L 755.619401 828.879837  L 389.365433 828.879837  z " clip-path="url(#p00ffdf431b)" style="fill: #81c784"/>
   </g>
   <g id="patch_38">
    <path d="M 755.619401 801.587291  L 760.889242 801.587291  L 760.889242 828.879837  L 755.619401 828.879837  z " clip-path="url(#p00ffdf431b)" style="fill: #1b5e20"/>
   </g>
   <g id="patch_39">
    <path d="M 13.889242 836.157849  L 13.889242 836.157849  L 13.889242 863.450395  L 13.889242 863.450395  z " clip-path="url(#p00ffdf431b)" style="fill: #b71c1c"/>
   </g>
   <g id="patch_40">
    <path d="M 13.889242 836.157849  L 32.333687 836.157849  L 32.333687 863.450395  L 13.889242 863.450395  z " clip-path="url(#p00ffdf431b)" style="fill: #ef9a9a"/>
   </g>
   <g id="patch_41">
    <path d="M 32.333687 836.157849  L 594.889242 836.157849  L 594.889242 863.450395  L 32.333687 863.450395  z " clip-path="url(#p00ffdf431b)" style="fill: #81c784"/>
   </g>
   <g id="patch_42">
    <path d="M 594.889242 836.157849  L 760.889242 836.157849  L 760.889242 863.450395  L 594.889242 863.450395  z " clip-path="url(#p00ffdf431b)" style="fill: #1b5e20"/>
   </g>
   <g id="patch_43">
    <path d="M 13.889242 978.685589  L 44.062008 978.685589  L 44.062008 1005.978134  L 13.889242 1005.978134  z " clip-path="url(#p00ffdf431b)" style="fill: #b71c1c"/>
   </g>
   <g id="patch_44">
    <path d="M 44.062008 978.685589  L 434.366147 978.685589  L 434.366147 1005.978134  L 44.062008 1005.978134  z " clip-path="url(#p00ffdf431b)" style="fill: #ef9a9a"/>
   </g>
   <g id="patch_45">
    <path d="M 434.366147 978.685589  L 751.478924 978.685589  L 751.478924 1005.978134  L 434.366147 1005.978134  z " clip-path="url(#p00ffdf431b)" style="fill: #81c784"/>
   </g>
   <g id="patch_46">
    <path d="M 751.478924 978.685589  L 760.889242 978.685589  L 760.889242 1005.978134  L 751.478924 1005.978134  z " clip-path="url(#p00ffdf431b)" style="fill: #1b5e20"/>
   </g>
   <g id="patch_47">
    <path d="M 13.889242 1013.256147  L 14.710778 1013.256147  L 14.710778 1040.548692  L 13.889242 1040.548692  z " clip-path="url(#p00ffdf431b)" style="fill: #b71c1c"/>
   </g>
   <g id="patch_48">
    <path d="M 14.710778 1013.256147  L 93.95163 1013.256147  L 93.95163 1040.548692  L 14.710778 1040.548692  z " clip-path="url(#p00ffdf431b)" style="fill: #ef9a9a"/>
   </g>
   <g id="patch_49">
    <path d="M 93.95163 1013.256147  L 659.392242 1013.256147  L 659.392242 1040.548692  L 93.95163 1040.548692  z " clip-path="url(#p00ffdf431b)" style="fill: #81c784"/>
   </g>
   <g id="patch_50">
    <path d="M 659.392242 1013.256147  L 760.889242 1013.256147  L 760.889242 1040.548692  L 659.392242 1040.548692  z " clip-path="url(#p00ffdf431b)" style="fill: #1b5e20"/>
   </g>
   <g id="patch_51">
    <path d="M 13.889242 1155.783886  L 49.492067 1155.783886  L 49.492067 1183.076432  L 13.889242 1183.076432  z " clip-path="url(#p00ffdf431b)" style="fill: #b71c1c"/>
   </g>
   <g id="patch_52">
    <path d="M 49.492067 1155.783886  L 427.277592 1155.783886  L 427.277592 1183.076432  L 49.492067 1183.076432  z " clip-path="url(#p00ffdf431b)" style="fill: #ef9a9a"/>
   </g>
   <g id="patch_53">
    <path d="M 427.277592 1155.783886  L 758.581652 1155.783886  L 758.581652 1183.076432  L 427.277592 1183.076432  z " clip-path="url(#p00ffdf431b)" style="fill: #81c784"/>
   </g>
   <g id="patch_54">
    <path d="M 758.581652 1155.783886  L 760.889242 1155.783886  L 760.889242 1183.076432  L 758.581652 1183.076432  z " clip-path="url(#p00ffdf431b)" style="fill: #1b5e20"/>
   </g>
   <g id="patch_55">
    <path d="M 13.889242 1190.354444  L 13.889242 1190.354444  L 13.889242 1217.64699  L 13.889242 1217.64699  z " clip-path="url(#p00ffdf431b)" style="fill: #b71c1c"/>
   </g>
   <g id="patch_56">
    <path d="M 13.889242 1190.354444  L 46.195509 1190.354444  L 46.195509 1217.64699  L 13.889242 1217.64699  z " clip-path="url(#p00ffdf431b)" style="fill: #ef9a9a"/>
   </g>
   <g id="patch_57">
    <path d="M 46.195509 1190.354444  L 628.697274 1190.354444  L 628.697274 1217.64699  L 46.195509 1217.64699  z " clip-path="url(#p00ffdf431b)" style="fill: #81c784"/>
   </g>
   <g id="patch_58">
    <path d="M 628.697274 1190.354444  L 760.889242 1190.354444  L 760.889242 1217.64699  L 628.697274 1217.64699  z " clip-path="url(#p00ffdf431b)" style="fill: #1b5e20"/>
   </g>
   <g id="matplotlib.axis_1"/>
   <g id="matplotlib.axis_2"/>
   <g id="text_1">
    <text style="font-weight: 700; font-size: 10px; font-family: 'IBM Plex Sans'; text-anchor: middle; fill: #ffffff" x="120.044681" y="109.540375" transform="rotate(-0 120.044681 109.540375)">28.4%</text>
   </g>
   <g id="text_2">
    <text style="font-weight: 700; font-size: 10px; font-family: 'IBM Plex Sans'; text-anchor: middle; fill: #ffffff" x="471.584553" y="109.540375" transform="rotate(-0 471.584553 109.540375)">65.7%</text>
   </g>
   <g id="text_3">
    <text style="font-weight: 700; font-size: 10px; font-family: 'IBM Plex Sans'; text-anchor: middle; fill: #ffffff" x="738.484577" y="109.540375" transform="rotate(-0 738.484577 109.540375)">5.8%</text>
   </g>
   <g id="text_4">
    <text style="font-weight: 700; font-size: 10px; font-family: 'IBM Plex Sans'; text-anchor: middle; fill: #ffffff" x="197.216307" y="144.110933" transform="rotate(-0 197.216307 144.110933)">46.6%</text>
   </g>
   <g id="text_5">
    <text style="font-weight: 700; font-size: 10px; font-family: 'IBM Plex Sans'; text-anchor: middle; fill: #ffffff" x="563.514808" y="144.110933" transform="rotate(-0 563.514808 144.110933)">51.5%</text>
   </g>
   <g id="text_6">
    <text style="font-weight: 700; font-size: 10px; font-family: 'IBM Plex Sans'; text-anchor: middle; fill: #ffffff" x="54.314312" y="286.638672" transform="rotate(-0 54.314312 286.638672)">10.8%</text>
   </g>
   <g id="text_7">
    <text style="font-weight: 700; font-size: 10px; font-family: 'IBM Plex Sans'; text-anchor: middle; fill: #ffffff" x="408.120047" y="286.638672" transform="rotate(-0 408.120047 286.638672)">83.9%</text>
   </g>
   <g id="text_8">
    <text style="font-weight: 700; font-size: 10px; font-family: 'IBM Plex Sans'; text-anchor: middle; fill: #ffffff" x="741.194978" y="286.638672" transform="rotate(-0 741.194978 286.638672)">5.3%</text>
   </g>
   <g id="text_9">
    <text style="font-weight: 700; font-size: 10px; font-family: 'IBM Plex Sans'; text-anchor: middle; fill: #ffffff" x="115.815699" y="321.20923" transform="rotate(-0 115.815699 321.20923)">27.1%</text>
   </g>
   <g id="text_10">
    <text style="font-weight: 700; font-size: 10px; font-family: 'IBM Plex Sans'; text-anchor: middle; fill: #ffffff" x="487.588132" y="321.20923" transform="rotate(-0 487.588132 321.20923)">72.4%</text>
   </g>
   <g id="text_11">
    <text style="font-weight: 700; font-size: 10px; font-family: 'IBM Plex Sans'; text-anchor: middle; fill: #ffffff" x="159.650686" y="463.736969" transform="rotate(-0 159.650686 463.736969)">39.0%</text>
   </g>
   <g id="text_12">
    <text style="font-weight: 700; font-size: 10px; font-family: 'IBM Plex Sans'; text-anchor: middle; fill: #ffffff" x="509.478151" y="463.736969" transform="rotate(-0 509.478151 463.736969)">54.6%</text>
   </g>
   <g id="text_13">
    <text style="font-weight: 700; font-size: 10px; font-family: 'IBM Plex Sans'; text-anchor: middle; fill: #ffffff" x="735.463186" y="463.736969" transform="rotate(-0 735.463186 463.736969)">5.9%</text>
   </g>
   <g id="text_14">
    <text style="font-weight: 700; font-size: 10px; font-family: 'IBM Plex Sans'; text-anchor: middle; fill: #ffffff" x="31.205263" y="498.307527" transform="rotate(-0 31.205263 498.307527)">4.6%</text>
   </g>
   <g id="text_15">
    <text style="font-weight: 700; font-size: 10px; font-family: 'IBM Plex Sans'; text-anchor: middle; fill: #ffffff" x="245.354031" y="498.307527" transform="rotate(-0 245.354031 498.307527)">52.7%</text>
   </g>
   <g id="text_16">
    <text style="font-weight: 700; font-size: 10px; font-family: 'IBM Plex Sans'; text-anchor: middle; fill: #ffffff" x="593.427975" y="498.307527" transform="rotate(-0 593.427975 498.307527)">40.5%</text>
   </g>
   <g id="text_17">
    <text style="font-weight: 700; font-size: 10px; font-family: 'IBM Plex Sans'; text-anchor: middle; fill: #ffffff" x="41.410295" y="640.835267" transform="rotate(-0 41.410295 640.835267)">7.4%</text>
   </g>
   <g id="text_18">
    <text style="font-weight: 700; font-size: 10px; font-family: 'IBM Plex Sans'; text-anchor: middle; fill: #ffffff" x="235.040558" y="640.835267" transform="rotate(-0 235.040558 640.835267)">44.5%</text>
   </g>
   <g id="text_19">
    <text style="font-weight: 700; font-size: 10px; font-family: 'IBM Plex Sans'; text-anchor: middle; fill: #ffffff" x="578.070821" y="640.835267" transform="rotate(-0 578.070821 640.835267)">47.4%</text>
   </g>
   <g id="text_20">
    <text style="font-weight: 700; font-size: 10px; font-family: 'IBM Plex Sans'; text-anchor: middle; fill: #ffffff" x="32.564242" y="675.405825" transform="rotate(-0 32.564242 675.405825)">5.0%</text>
   </g>
   <g id="text_21">
    <text style="font-weight: 700; font-size: 10px; font-family: 'IBM Plex Sans'; text-anchor: middle; fill: #ffffff" x="282.219505" y="675.405825" transform="rotate(-0 282.219505 675.405825)">61.8%</text>
   </g>
   <g id="text_22">
    <text style="font-weight: 700; font-size: 10px; font-family: 'IBM Plex Sans'; text-anchor: middle; fill: #ffffff" x="637.044505" y="675.405825" transform="rotate(-0 637.044505 675.405825)">33.2%</text>
   </g>
   <g id="text_23">
    <text style="font-weight: 700; font-size: 10px; font-family: 'IBM Plex Sans'; text-anchor: middle; fill: #ffffff" x="206.238449" y="817.933564" transform="rotate(-0 206.238449 817.933564)">49.0%</text>
   </g>
   <g id="text_24">
    <text style="font-weight: 700; font-size: 10px; font-family: 'IBM Plex Sans'; text-anchor: middle; fill: #ffffff" x="572.492417" y="817.933564" transform="rotate(-0 572.492417 817.933564)">49.0%</text>
   </g>
   <g id="text_25">
    <text style="font-weight: 700; font-size: 10px; font-family: 'IBM Plex Sans'; text-anchor: middle; fill: #ffffff" x="313.611464" y="852.504122" transform="rotate(-0 313.611464 852.504122)">75.3%</text>
   </g>
   <g id="text_26">
    <text style="font-weight: 700; font-size: 10px; font-family: 'IBM Plex Sans'; text-anchor: middle; fill: #ffffff" x="677.889242" y="852.504122" transform="rotate(-0 677.889242 852.504122)">22.2%</text>
   </g>
   <g id="text_27">
    <text style="font-weight: 700; font-size: 10px; font-family: 'IBM Plex Sans'; text-anchor: middle; fill: #ffffff" x="28.975625" y="995.031862" transform="rotate(-0 28.975625 995.031862)">4.0%</text>
   </g>
   <g id="text_28">
    <text style="font-weight: 700; font-size: 10px; font-family: 'IBM Plex Sans'; text-anchor: middle; fill: #ffffff" x="239.214077" y="995.031862" transform="rotate(-0 239.214077 995.031862)">52.2%</text>
   </g>
   <g id="text_29">
    <text style="font-weight: 700; font-size: 10px; font-family: 'IBM Plex Sans'; text-anchor: middle; fill: #ffffff" x="592.922536" y="995.031862" transform="rotate(-0 592.922536 995.031862)">42.5%</text>
   </g>
   <g id="text_30">
    <text style="font-weight: 700; font-size: 10px; font-family: 'IBM Plex Sans'; text-anchor: middle; fill: #ffffff" x="54.331204" y="1029.60242" transform="rotate(-0 54.331204 1029.60242)">10.6%</text>
   </g>
   <g id="text_31">
    <text style="font-weight: 700; font-size: 10px; font-family: 'IBM Plex Sans'; text-anchor: middle; fill: #ffffff" x="376.671936" y="1029.60242" transform="rotate(-0 376.671936 1029.60242)">75.7%</text>
   </g>
   <g id="text_32">
    <text style="font-weight: 700; font-size: 10px; font-family: 'IBM Plex Sans'; text-anchor: middle; fill: #ffffff" x="710.140742" y="1029.60242" transform="rotate(-0 710.140742 1029.60242)">13.6%</text>
   </g>
   <g id="text_33">
    <text style="font-weight: 700; font-size: 10px; font-family: 'IBM Plex Sans'; text-anchor: middle; fill: #ffffff" x="31.690654" y="1172.130159" transform="rotate(-0 31.690654 1172.130159)">4.8%</text>
   </g>
   <g id="text_34">
    <text style="font-weight: 700; font-size: 10px; font-family: 'IBM Plex Sans'; text-anchor: middle; fill: #ffffff" x="238.384829" y="1172.130159" transform="rotate(-0 238.384829 1172.130159)">50.6%</text>
   </g>
   <g id="text_35">
    <text style="font-weight: 700; font-size: 10px; font-family: 'IBM Plex Sans'; text-anchor: middle; fill: #ffffff" x="592.929622" y="1172.130159" transform="rotate(-0 592.929622 1172.130159)">44.4%</text>
   </g>
   <g id="text_36">
    <text style="font-weight: 700; font-size: 10px; font-family: 'IBM Plex Sans'; text-anchor: middle; fill: #ffffff" x="30.042376" y="1206.700717" transform="rotate(-0 30.042376 1206.700717)">4.3%</text>
   </g>
   <g id="text_37">
    <text style="font-weight: 700; font-size: 10px; font-family: 'IBM Plex Sans'; text-anchor: middle; fill: #ffffff" x="337.446391" y="1206.700717" transform="rotate(-0 337.446391 1206.700717)">78.0%</text>
   </g>
   <g id="text_38">
    <text style="font-weight: 700; font-size: 10px; font-family: 'IBM Plex Sans'; text-anchor: middle; fill: #ffffff" x="694.793258" y="1206.700717" transform="rotate(-0 694.793258 1206.700717)">17.7%</text>
   </g>
   <g id="text_39">
    <text style="font-weight: 700; font-size: 9px; font-family: 'IBM Plex Sans'; text-anchor: start" x="768.359242" y="109.270375" transform="rotate(-0 768.359242 109.270375)">Default rate</text>
   </g>
   <g id="text_40">
    <text style="font-weight: 700; font-size: 9px; font-family: 'IBM Plex Sans'; text-anchor: start" x="768.359242" y="143.840933" transform="rotate(-0 768.359242 143.840933)">HP seasonal rate</text>
   </g>
   <g id="text_41">
    <text style="font-weight: 700; font-size: 9px; font-family: 'IBM Plex Sans'; text-anchor: start" x="768.359242" y="286.368672" transform="rotate(-0 768.359242 286.368672)">Default rate</text>
   </g>
   <g id="text_42">
    <text style="font-weight: 700; font-size: 9px; font-family: 'IBM Plex Sans'; text-anchor: start" x="768.359242" y="320.93923" transform="rotate(-0 768.359242 320.93923)">HP seasonal rate</text>
   </g>
   <g id="text_43">
    <text style="font-weight: 700; font-size: 9px; font-family: 'IBM Plex Sans'; text-anchor: start" x="768.359242" y="463.466969" transform="rotate(-0 768.359242 463.466969)">Default rate</text>
   </g>
   <g id="text_44">
    <text style="font-weight: 700; font-size: 9px; font-family: 'IBM Plex Sans'; text-anchor: start" x="768.359242" y="498.037527" transform="rotate(-0 768.359242 498.037527)">HP seasonal rate</text>
   </g>
   <g id="text_45">
    <text style="font-weight: 700; font-size: 9px; font-family: 'IBM Plex Sans'; text-anchor: start" x="768.359242" y="640.565267" transform="rotate(-0 768.359242 640.565267)">Default rate</text>
   </g>
   <g id="text_46">
    <text style="font-weight: 700; font-size: 9px; font-family: 'IBM Plex Sans'; text-anchor: start" x="768.359242" y="675.135825" transform="rotate(-0 768.359242 675.135825)">HP seasonal rate</text>
   </g>
   <g id="text_47">
    <text style="font-weight: 700; font-size: 9px; font-family: 'IBM Plex Sans'; text-anchor: start" x="768.359242" y="817.663564" transform="rotate(-0 768.359242 817.663564)">Default rate</text>
   </g>
   <g id="text_48">
    <text style="font-weight: 700; font-size: 9px; font-family: 'IBM Plex Sans'; text-anchor: start" x="768.359242" y="852.234122" transform="rotate(-0 768.359242 852.234122)">HP seasonal rate</text>
   </g>
   <g id="text_49">
    <text style="font-weight: 700; font-size: 9px; font-family: 'IBM Plex Sans'; text-anchor: start" x="768.359242" y="994.761862" transform="rotate(-0 768.359242 994.761862)">Default rate</text>
   </g>
   <g id="text_50">
    <text style="font-weight: 700; font-size: 9px; font-family: 'IBM Plex Sans'; text-anchor: start" x="768.359242" y="1029.33242" transform="rotate(-0 768.359242 1029.33242)">HP seasonal rate</text>
   </g>
   <g id="text_51">
    <text style="font-weight: 700; font-size: 9px; font-family: 'IBM Plex Sans'; text-anchor: start" x="768.359242" y="1171.860159" transform="rotate(-0 768.359242 1171.860159)">Default rate</text>
   </g>
   <g id="text_52">
    <text style="font-weight: 700; font-size: 9px; font-family: 'IBM Plex Sans'; text-anchor: start" x="768.359242" y="1206.430717" transform="rotate(-0 768.359242 1206.430717)">HP seasonal rate</text>
   </g>
   <g id="text_53">
    <text style="font-weight: 700; font-size: 11px; font-family: 'GT Planar'; text-anchor: start; fill: #333333" x="13.889242" y="46.30901" transform="rotate(-0 13.889242 46.30901)">National Grid</text>
   </g>
   <g id="text_54">
    <text style="font-weight: 700; font-size: 11px; font-family: 'GT Planar'; text-anchor: start; fill: #333333" x="13.889242" y="223.407308" transform="rotate(-0 13.889242 223.407308)">RG&amp;E</text>
   </g>
   <g id="text_55">
    <text style="font-weight: 700; font-size: 11px; font-family: 'GT Planar'; text-anchor: start; fill: #333333" x="13.889242" y="400.505605" transform="rotate(-0 13.889242 400.505605)">NYSEG</text>
   </g>
   <g id="text_56">
    <text style="font-weight: 700; font-size: 11px; font-family: 'GT Planar'; text-anchor: start; fill: #333333" x="13.889242" y="577.603902" transform="rotate(-0 13.889242 577.603902)">Central Hudson</text>
   </g>
   <g id="text_57">
    <text style="font-weight: 700; font-size: 11px; font-family: 'GT Planar'; text-anchor: start; fill: #333333" x="13.889242" y="754.7022" transform="rotate(-0 13.889242 754.7022)">O&amp;R</text>
   </g>
   <g id="text_58">
    <text style="font-weight: 700; font-size: 11px; font-family: 'GT Planar'; text-anchor: start; fill: #333333" x="13.889242" y="931.800497" transform="rotate(-0 13.889242 931.800497)">Con Edison</text>
   </g>
   <g id="text_59">
    <text style="font-weight: 700; font-size: 11px; font-family: 'GT Planar'; text-anchor: start; fill: #333333" x="13.889242" y="1108.898794" transform="rotate(-0 13.889242 1108.898794)">PSEG-LI</text>
   </g>
   <g id="text_60">
    <text style="font-weight: 700; font-size: 8px; font-family: 'IBM Plex Sans'; text-anchor: middle; fill: #b71c1c" x="120.044681" y="70.366566" transform="rotate(-0 120.044681 70.366566)">LOSE &gt; $1K</text>
   </g>
   <g id="text_61">
    <text style="font-weight: 700; font-size: 8px; font-family: 'IBM Plex Sans'; text-anchor: middle; fill: #ef9a9a" x="471.584553" y="70.366566" transform="rotate(-0 471.584553 70.366566)">LOSE $0-1K</text>
   </g>
   <g id="text_62">
    <text style="font-weight: 700; font-size: 8px; font-family: 'IBM Plex Sans'; text-anchor: middle; fill: #81c784" x="738.484577" y="70.366566" transform="rotate(-0 738.484577 70.366566)">SAVE $0-1K</text>
   </g>
   <g id="text_63">
    <text style="font-weight: 700; font-size: 8px; font-family: 'IBM Plex Sans'; text-anchor: middle; fill: #b71c1c" x="54.314312" y="247.464864" transform="rotate(-0 54.314312 247.464864)">LOSE &gt; $1K</text>
   </g>
   <g id="text_64">
    <text style="font-weight: 700; font-size: 8px; font-family: 'IBM Plex Sans'; text-anchor: middle; fill: #ef9a9a" x="408.120047" y="247.464864" transform="rotate(-0 408.120047 247.464864)">LOSE $0-1K</text>
   </g>
   <g id="text_65">
    <text style="font-weight: 700; font-size: 8px; font-family: 'IBM Plex Sans'; text-anchor: middle; fill: #81c784" x="741.194978" y="247.464864" transform="rotate(-0 741.194978 247.464864)">SAVE $0-1K</text>
   </g>
   <g id="text_66">
    <text style="font-weight: 700; font-size: 8px; font-family: 'IBM Plex Sans'; text-anchor: middle; fill: #b71c1c" x="159.650686" y="424.563161" transform="rotate(-0 159.650686 424.563161)">LOSE &gt; $1K</text>
   </g>
   <g id="text_67">
    <text style="font-weight: 700; font-size: 8px; font-family: 'IBM Plex Sans'; text-anchor: middle; fill: #ef9a9a" x="509.478151" y="424.563161" transform="rotate(-0 509.478151 424.563161)">LOSE $0-1K</text>
   </g>
   <g id="text_68">
    <text style="font-weight: 700; font-size: 8px; font-family: 'IBM Plex Sans'; text-anchor: middle; fill: #81c784" x="735.463186" y="424.563161" transform="rotate(-0 735.463186 424.563161)">SAVE $0-1K</text>
   </g>
   <g id="text_69">
    <text style="font-weight: 700; font-size: 8px; font-family: 'IBM Plex Sans'; text-anchor: middle; fill: #b71c1c" x="41.410295" y="601.661458" transform="rotate(-0 41.410295 601.661458)">LOSE &gt; $1K</text>
   </g>
   <g id="text_70">
    <text style="font-weight: 700; font-size: 8px; font-family: 'IBM Plex Sans'; text-anchor: middle; fill: #ef9a9a" x="235.040558" y="601.661458" transform="rotate(-0 235.040558 601.661458)">LOSE $0-1K</text>
   </g>
   <g id="text_71">
    <text style="font-weight: 700; font-size: 8px; font-family: 'IBM Plex Sans'; text-anchor: middle; fill: #81c784" x="578.070821" y="601.661458" transform="rotate(-0 578.070821 601.661458)">SAVE $0-1K</text>
   </g>
   <g id="text_72">
    <text style="font-weight: 700; font-size: 8px; font-family: 'IBM Plex Sans'; text-anchor: middle; fill: #ef9a9a" x="206.238449" y="778.759756" transform="rotate(-0 206.238449 778.759756)">LOSE $0-1K</text>
   </g>
   <g id="text_73">
    <text style="font-weight: 700; font-size: 8px; font-family: 'IBM Plex Sans'; text-anchor: middle; fill: #81c784" x="572.492417" y="778.759756" transform="rotate(-0 572.492417 778.759756)">SAVE $0-1K</text>
   </g>
   <g id="text_74">
    <text style="font-weight: 700; font-size: 8px; font-family: 'IBM Plex Sans'; text-anchor: middle; fill: #b71c1c" x="28.975625" y="955.858053" transform="rotate(-0 28.975625 955.858053)">LOSE &gt; $1K</text>
   </g>
   <g id="text_75">
    <text style="font-weight: 700; font-size: 8px; font-family: 'IBM Plex Sans'; text-anchor: middle; fill: #ef9a9a" x="239.214077" y="955.858053" transform="rotate(-0 239.214077 955.858053)">LOSE $0-1K</text>
   </g>
   <g id="text_76">
    <text style="font-weight: 700; font-size: 8px; font-family: 'IBM Plex Sans'; text-anchor: middle; fill: #81c784" x="592.922536" y="955.858053" transform="rotate(-0 592.922536 955.858053)">SAVE $0-1K</text>
   </g>
   <g id="text_77">
    <text style="font-weight: 700; font-size: 8px; font-family: 'IBM Plex Sans'; text-anchor: middle; fill: #b71c1c" x="31.690654" y="1132.95635" transform="rotate(-0 31.690654 1132.95635)">LOSE &gt; $1K</text>
   </g>
   <g id="text_78">
    <text style="font-weight: 700; font-size: 8px; font-family: 'IBM Plex Sans'; text-anchor: middle; fill: #ef9a9a" x="238.384829" y="1132.95635" transform="rotate(-0 238.384829 1132.95635)">LOSE $0-1K</text>
   </g>
   <g id="text_79">
    <text style="font-weight: 700; font-size: 8px; font-family: 'IBM Plex Sans'; text-anchor: middle; fill: #81c784" x="592.929622" y="1132.95635" transform="rotate(-0 592.929622 1132.95635)">SAVE $0-1K</text>
   </g>
  </g>
  <g id="text_80">
   <text style="font-weight: 700; font-size: 12px; font-family: 'GT Planar'; text-anchor: start" x="13.889242" y="15.6" transform="rotate(-0 13.889242 15.6)">How bills would change for</text>
  </g>
  <g id="text_81">
   <text style="font-weight: 700; font-size: 12px; font-family: 'GT Planar'; text-anchor: start; fill: #7a8a10" x="172.982992" y="15.6" transform="rotate(-0 172.982992 15.6)">natural gas</text>
  </g>
  <g id="text_82">
   <text style="font-weight: 700; font-size: 12px; font-family: 'GT Planar'; text-anchor: start" x="239.732992" y="15.6" transform="rotate(-0 239.732992 15.6)">heated homes after switching to</text>
  </g>
  <g id="text_83">
   <text style="font-weight: 700; font-size: 12px; font-family: 'GT Planar'; text-anchor: start; fill: #c47600" x="428.545492" y="15.6" transform="rotate(-0 428.545492 15.6)">heat pumps</text>
  </g>
 </g>
 <defs>
  <clipPath id="p00ffdf431b">
   <rect x="13.889242" y="32.544" width="747" height="1191.168"/>
  </clipPath>
 </defs>
</svg>
