<?xml version="1.0" encoding="utf-8" standalone="no"?>
<!DOCTYPE svg PUBLIC "-//W3C//DTD SVG 1.1//EN"
  "http://www.w3.org/Graphics/SVG/1.1/DTD/svg11.dtd">
<svg xmlns:xlink="http://www.w3.org/1999/xlink" width="756pt" height="324pt" viewBox="0 0 756 324" xmlns="http://www.w3.org/2000/svg" version="1.1">
 <metadata>
  <rdf:RDF xmlns:dc="http://purl.org/dc/elements/1.1/" xmlns:cc="http://creativecommons.org/ns#" xmlns:rdf="http://www.w3.org/1999/02/22-rdf-syntax-ns#">
   <cc:Work>
    <dc:type rdf:resource="http://purl.org/dc/dcmitype/StillImage"/>
    <dc:date>2026-04-28T07:47:12.291527</dc:date>
    <dc:format>image/svg+xml</dc:format>
    <dc:creator>
     <cc:Agent>
      <dc:title>Matplotlib v3.10.8, https://matplotlib.org/</dc:title>
     </cc:Agent>
    </dc:creator>
   </cc:Work>
  </rdf:RDF>
 </metadata>
 <defs>
  <style type="text/css">*{stroke-linejoin: round; stroke-linecap: butt}</style>
 </defs>
 <g id="figure_1">
  <g id="patch_1">
   <path d="M 0 324
L 756 324
L 756 0
L 0 0
z
" style="fill: #ffffff"/>
  </g>
  <g id="axes_1">
   <g id="patch_2">
    <path d="M 70.022813 269.820521
L 748.44 269.820521
L 748.44 7.56
L 70.022813 7.56
z
" style="fill: #ffffff"/>
   </g>
   <g id="matplotlib.axis_1">
    <g id="xtick_1">
     <g id="line2d_1">
      <path d="M 83.238732 269.820521
" style="fill: none; stroke: #000000; stroke-width: 1.5; stroke-linecap: square"/>
      <defs>
       <path id="mcc9ee34466" d="M 0 0
L 0 2.75
" style="stroke: #000000"/>
      </defs>
      <g>
       <use xlink:href="#mcc9ee34466" x="83.238732" y="269.820521" style="stroke: #000000"/>
      </g>
     </g>
     <g id="text_1">
      <text style="font-size: 11px; font-family: 'IBM Plex Sans'; text-anchor: middle; fill: #4d4d4d" x="83.238732" y="282.910521" transform="rotate(-0 83.238732 282.910521)">-1000</text>
     </g>
    </g>
    <g id="xtick_2">
     <g id="line2d_2">
      <path d="M 259.450988 269.820521
" style="fill: none; stroke: #000000; stroke-width: 1.5; stroke-linecap: square"/>
      <g>
       <use xlink:href="#mcc9ee34466" x="259.450988" y="269.820521" style="stroke: #000000"/>
      </g>
     </g>
     <g id="text_2">
      <text style="font-size: 11px; font-family: 'IBM Plex Sans'; text-anchor: middle; fill: #4d4d4d" x="259.450988" y="282.910521" transform="rotate(-0 259.450988 282.910521)">0</text>
     </g>
    </g>
    <g id="xtick_3">
     <g id="line2d_3">
      <path d="M 435.663245 269.820521
" style="fill: none; stroke: #000000; stroke-width: 1.5; stroke-linecap: square"/>
      <g>
       <use xlink:href="#mcc9ee34466" x="435.663245" y="269.820521" style="stroke: #000000"/>
      </g>
     </g>
     <g id="text_3">
      <text style="font-size: 11px; font-family: 'IBM Plex Sans'; text-anchor: middle; fill: #4d4d4d" x="435.663245" y="282.910521" transform="rotate(-0 435.663245 282.910521)">1000</text>
     </g>
    </g>
    <g id="xtick_4">
     <g id="line2d_4">
      <path d="M 611.875501 269.820521
" style="fill: none; stroke: #000000; stroke-width: 1.5; stroke-linecap: square"/>
      <g>
       <use xlink:href="#mcc9ee34466" x="611.875501" y="269.820521" style="stroke: #000000"/>
      </g>
     </g>
     <g id="text_4">
      <text style="font-size: 11px; font-family: 'IBM Plex Sans'; text-anchor: middle; fill: #4d4d4d" x="611.875501" y="282.910521" transform="rotate(-0 611.875501 282.910521)">2000</text>
     </g>
    </g>
    <g id="xtick_5">
     <g id="line2d_5">
      <path d="M 171.34486 269.820521
" style="fill: none; stroke: #000000; stroke-width: 1.5; stroke-linecap: square"/>
      <defs>
       <path id="mf78d4cabea" d="M 0 0
L 0 1.375
" style="stroke: #000000"/>
      </defs>
      <g>
       <use xlink:href="#mf78d4cabea" x="171.34486" y="269.820521" style="stroke: #000000"/>
      </g>
     </g>
    </g>
    <g id="xtick_6">
     <g id="line2d_6">
      <path d="M 347.557116 269.820521
" style="fill: none; stroke: #000000; stroke-width: 1.5; stroke-linecap: square"/>
      <g>
       <use xlink:href="#mf78d4cabea" x="347.557116" y="269.820521" style="stroke: #000000"/>
      </g>
     </g>
    </g>
    <g id="xtick_7">
     <g id="line2d_7">
      <path d="M 523.769373 269.820521
" style="fill: none; stroke: #000000; stroke-width: 1.5; stroke-linecap: square"/>
      <g>
       <use xlink:href="#mf78d4cabea" x="523.769373" y="269.820521" style="stroke: #000000"/>
      </g>
     </g>
    </g>
    <g id="xtick_8">
     <g id="line2d_8">
      <path d="M 699.981629 269.820521
" style="fill: none; stroke: #000000; stroke-width: 1.5; stroke-linecap: square"/>
      <g>
       <use xlink:href="#mf78d4cabea" x="699.981629" y="269.820521" style="stroke: #000000"/>
      </g>
     </g>
    </g>
   </g>
   <g id="matplotlib.axis_2">
    <g id="ytick_1">
     <g id="line2d_9">
      <path d="M 70.022813 257.899588
L 748.44 257.899588
" clip-path="url(#pec1dfeeb8f)" style="fill: none; stroke: #e5e5e5; stroke-linecap: square"/>
     </g>
     <g id="text_5">
      <text style="font-size: 11px; font-family: 'IBM Plex Sans'; text-anchor: start; fill: #4d4d4d" x="61.222813" y="261.969588" transform="rotate(-0 61.222813 261.969588)">0</text>
     </g>
    </g>
    <g id="ytick_2">
     <g id="line2d_10">
      <path d="M 70.022813 210.593114
L 748.44 210.593114
" clip-path="url(#pec1dfeeb8f)" style="fill: none; stroke: #e5e5e5; stroke-linecap: square"/>
     </g>
     <g id="text_6">
      <text style="font-size: 11px; font-family: 'IBM Plex Sans'; text-anchor: start; fill: #4d4d4d" x="28.222813" y="214.663114" transform="rotate(-0 28.222813 214.663114)">100000</text>
     </g>
    </g>
    <g id="ytick_3">
     <g id="line2d_11">
      <path d="M 70.022813 163.286639
L 748.44 163.286639
" clip-path="url(#pec1dfeeb8f)" style="fill: none; stroke: #e5e5e5; stroke-linecap: square"/>
     </g>
     <g id="text_7">
      <text style="font-size: 11px; font-family: 'IBM Plex Sans'; text-anchor: start; fill: #4d4d4d" x="28.222813" y="167.356639" transform="rotate(-0 28.222813 167.356639)">200000</text>
     </g>
    </g>
    <g id="ytick_4">
     <g id="line2d_12">
      <path d="M 70.022813 115.980165
L 748.44 115.980165
" clip-path="url(#pec1dfeeb8f)" style="fill: none; stroke: #e5e5e5; stroke-linecap: square"/>
     </g>
     <g id="text_8">
      <text style="font-size: 11px; font-family: 'IBM Plex Sans'; text-anchor: start; fill: #4d4d4d" x="28.222813" y="120.050165" transform="rotate(-0 28.222813 120.050165)">300000</text>
     </g>
    </g>
    <g id="ytick_5">
     <g id="line2d_13">
      <path d="M 70.022813 68.673691
L 748.44 68.673691
" clip-path="url(#pec1dfeeb8f)" style="fill: none; stroke: #e5e5e5; stroke-linecap: square"/>
     </g>
     <g id="text_9">
      <text style="font-size: 11px; font-family: 'IBM Plex Sans'; text-anchor: start; fill: #4d4d4d" x="28.222813" y="72.743691" transform="rotate(-0 28.222813 72.743691)">400000</text>
     </g>
    </g>
    <g id="ytick_6">
     <g id="line2d_14">
      <path d="M 70.022813 21.367217
L 748.44 21.367217
" clip-path="url(#pec1dfeeb8f)" style="fill: none; stroke: #e5e5e5; stroke-linecap: square"/>
     </g>
     <g id="text_10">
      <text style="font-size: 11px; font-family: 'IBM Plex Sans'; text-anchor: start; fill: #4d4d4d" x="28.222813" y="25.437217" transform="rotate(-0 28.222813 25.437217)">500000</text>
     </g>
    </g>
    <g id="ytick_7">
     <g id="line2d_15">
      <path d="M 70.022813 234.246351
L 748.44 234.246351
" clip-path="url(#pec1dfeeb8f)" style="fill: none; stroke: #fafafa; stroke-width: 0.5; stroke-linecap: square"/>
     </g>
    </g>
    <g id="ytick_8">
     <g id="line2d_16">
      <path d="M 70.022813 186.939877
L 748.44 186.939877
" clip-path="url(#pec1dfeeb8f)" style="fill: none; stroke: #fafafa; stroke-width: 0.5; stroke-linecap: square"/>
     </g>
    </g>
    <g id="ytick_9">
     <g id="line2d_17">
      <path d="M 70.022813 139.633402
L 748.44 139.633402
" clip-path="url(#pec1dfeeb8f)" style="fill: none; stroke: #fafafa; stroke-width: 0.5; stroke-linecap: square"/>
     </g>
    </g>
    <g id="ytick_10">
     <g id="line2d_18">
      <path d="M 70.022813 92.326928
L 748.44 92.326928
" clip-path="url(#pec1dfeeb8f)" style="fill: none; stroke: #fafafa; stroke-width: 0.5; stroke-linecap: square"/>
     </g>
    </g>
    <g id="ytick_11">
     <g id="line2d_19">
      <path d="M 70.022813 45.020454
L 748.44 45.020454
" clip-path="url(#pec1dfeeb8f)" style="fill: none; stroke: #fafafa; stroke-width: 0.5; stroke-linecap: square"/>
     </g>
    </g>
   </g>
   <g id="PolyCollection_1">
    <path d="M -462.138202 257.899588
L -462.138202 257.805679
L -446.279099 257.805679
L -446.279099 257.899588
z
" clip-path="url(#pec1dfeeb8f)" style="fill: #1b5e20"/>
    <path d="M -321.168397 257.899588
L -321.168397 257.805679
L -305.309294 257.805679
L -305.309294 257.899588
z
" clip-path="url(#pec1dfeeb8f)" style="fill: #1b5e20"/>
    <path d="M -180.198592 257.899588
L -180.198592 257.691053
L -164.339489 257.691053
L -164.339489 257.899588
z
" clip-path="url(#pec1dfeeb8f)" style="fill: #1b5e20"/>
    <path d="M -144.95614 257.899588
L -144.95614 257.805679
L -129.097037 257.805679
L -129.097037 257.899588
z
" clip-path="url(#pec1dfeeb8f)" style="fill: #1b5e20"/>
    <path d="M -109.713689 257.899588
L -109.713689 257.703884
L -93.854586 257.703884
L -93.854586 257.899588
z
" clip-path="url(#pec1dfeeb8f)" style="fill: #1b5e20"/>
    <path d="M -92.092463 257.899588
L -92.092463 257.409325
L -76.23336 257.409325
L -76.23336 257.899588
z
" clip-path="url(#pec1dfeeb8f)" style="fill: #1b5e20"/>
    <path d="M -74.471238 257.899588
L -74.471238 257.523951
L -58.612135 257.523951
L -58.612135 257.899588
z
" clip-path="url(#pec1dfeeb8f)" style="fill: #1b5e20"/>
    <path d="M -56.850012 257.899588
L -56.850012 257.609975
L -40.990909 257.609975
L -40.990909 257.899588
z
" clip-path="url(#pec1dfeeb8f)" style="fill: #1b5e20"/>
    <path d="M -39.228787 257.899588
L -39.228787 257.336133
L -23.369683 257.336133
L -23.369683 257.899588
z
" clip-path="url(#pec1dfeeb8f)" style="fill: #1b5e20"/>
    <path d="M -21.607561 257.899588
L -21.607561 256.334503
L -5.748458 256.334503
L -5.748458 257.899588
z
" clip-path="url(#pec1dfeeb8f)" style="fill: #1b5e20"/>
    <path d="M -3.986335 257.899588
L -3.986335 257.127597
L 11.872768 257.127597
L 11.872768 257.899588
z
" clip-path="url(#pec1dfeeb8f)" style="fill: #1b5e20"/>
    <path d="M 13.63489 257.899588
L 13.63489 257.148315
L 29.493994 257.148315
L 29.493994 257.899588
z
" clip-path="url(#pec1dfeeb8f)" style="fill: #1b5e20"/>
    <path d="M 31.256116 257.899588
L 31.256116 255.769362
L 47.115219 255.769362
L 47.115219 257.899588
z
" clip-path="url(#pec1dfeeb8f)" style="fill: #1b5e20"/>
    <path d="M 48.877342 257.899588
L 48.877342 255.67052
L 64.736445 255.67052
L 64.736445 257.899588
z
" clip-path="url(#pec1dfeeb8f)" style="fill: #1b5e20"/>
    <path d="M 66.498567 257.899588
L 66.498567 254.684631
L 82.35767 254.684631
L 82.35767 257.899588
z
" clip-path="url(#pec1dfeeb8f)" style="fill: #1b5e20"/>
    <path d="M 84.119793 257.899588
L 84.119793 254.052398
L 99.978896 254.052398
L 99.978896 257.899588
z
" clip-path="url(#pec1dfeeb8f)" style="fill: #81c784"/>
    <path d="M 101.741019 257.899588
L 101.741019 252.385084
L 117.600122 252.385084
L 117.600122 257.899588
z
" clip-path="url(#pec1dfeeb8f)" style="fill: #81c784"/>
    <path d="M 119.362244 257.899588
L 119.362244 249.958201
L 135.221347 249.958201
L 135.221347 257.899588
z
" clip-path="url(#pec1dfeeb8f)" style="fill: #81c784"/>
    <path d="M 136.98347 257.899588
L 136.98347 243.194394
L 152.842573 243.194394
L 152.842573 257.899588
z
" clip-path="url(#pec1dfeeb8f)" style="fill: #81c784"/>
    <path d="M 154.604696 257.899588
L 154.604696 237.290345
L 170.463799 237.290345
L 170.463799 257.899588
z
" clip-path="url(#pec1dfeeb8f)" style="fill: #81c784"/>
    <path d="M 172.225921 257.899588
L 172.225921 223.406522
L 188.085024 223.406522
L 188.085024 257.899588
z
" clip-path="url(#pec1dfeeb8f)" style="fill: #81c784"/>
    <path d="M 189.847147 257.899588
L 189.847147 208.446699
L 205.70625 208.446699
L 205.70625 257.899588
z
" clip-path="url(#pec1dfeeb8f)" style="fill: #81c784"/>
    <path d="M 207.468373 257.899588
L 207.468373 176.31573
L 223.327476 176.31573
L 223.327476 257.899588
z
" clip-path="url(#pec1dfeeb8f)" style="fill: #81c784"/>
    <path d="M 225.089598 257.899588
L 225.089598 135.278691
L 240.948701 135.278691
L 240.948701 257.899588
z
" clip-path="url(#pec1dfeeb8f)" style="fill: #81c784"/>
    <path d="M 242.710824 257.899588
L 242.710824 65.816089
L 258.569927 65.816089
L 258.569927 257.899588
z
" clip-path="url(#pec1dfeeb8f)" style="fill: #81c784"/>
    <path d="M 260.33205 257.899588
L 260.33205 19.480933
L 276.191153 19.480933
L 276.191153 257.899588
z
" clip-path="url(#pec1dfeeb8f)" style="fill: #ef9a9a"/>
    <path d="M 277.953275 257.899588
L 277.953275 55.197572
L 293.812378 55.197572
L 293.812378 257.899588
z
" clip-path="url(#pec1dfeeb8f)" style="fill: #ef9a9a"/>
    <path d="M 295.574501 257.899588
L 295.574501 89.960541
L 311.433604 89.960541
L 311.433604 257.899588
z
" clip-path="url(#pec1dfeeb8f)" style="fill: #ef9a9a"/>
    <path d="M 313.195726 257.899588
L 313.195726 128.508467
L 329.05483 128.508467
L 329.05483 257.899588
z
" clip-path="url(#pec1dfeeb8f)" style="fill: #ef9a9a"/>
    <path d="M 330.816952 257.899588
L 330.816952 147.5576
L 346.676055 147.5576
L 346.676055 257.899588
z
" clip-path="url(#pec1dfeeb8f)" style="fill: #ef9a9a"/>
    <path d="M 348.438178 257.899588
L 348.438178 161.241177
L 364.297281 161.241177
L 364.297281 257.899588
z
" clip-path="url(#pec1dfeeb8f)" style="fill: #ef9a9a"/>
    <path d="M 366.059403 257.899588
L 366.059403 172.746885
L 381.918506 172.746885
L 381.918506 257.899588
z
" clip-path="url(#pec1dfeeb8f)" style="fill: #ef9a9a"/>
    <path d="M 383.680629 257.899588
L 383.680629 189.116639
L 399.539732 189.116639
L 399.539732 257.899588
z
" clip-path="url(#pec1dfeeb8f)" style="fill: #ef9a9a"/>
    <path d="M 401.301855 257.899588
L 401.301855 194.774328
L 417.160958 194.774328
L 417.160958 257.899588
z
" clip-path="url(#pec1dfeeb8f)" style="fill: #ef9a9a"/>
    <path d="M 418.92308 257.899588
L 418.92308 205.11169
L 434.782183 205.11169
L 434.782183 257.899588
z
" clip-path="url(#pec1dfeeb8f)" style="fill: #ef9a9a"/>
    <path d="M 436.544306 257.899588
L 436.544306 215.325852
L 452.403409 215.325852
L 452.403409 257.899588
z
" clip-path="url(#pec1dfeeb8f)" style="fill: #b71c1c"/>
    <path d="M 454.165532 257.899588
L 454.165532 220.829298
L 470.024635 220.829298
L 470.024635 257.899588
z
" clip-path="url(#pec1dfeeb8f)" style="fill: #b71c1c"/>
    <path d="M 471.786757 257.899588
L 471.786757 225.461774
L 487.64586 225.461774
L 487.64586 257.899588
z
" clip-path="url(#pec1dfeeb8f)" style="fill: #b71c1c"/>
    <path d="M 489.407983 257.899588
L 489.407983 231.391724
L 505.267086 231.391724
L 505.267086 257.899588
z
" clip-path="url(#pec1dfeeb8f)" style="fill: #b71c1c"/>
    <path d="M 507.029209 257.899588
L 507.029209 235.869748
L 522.888312 235.869748
L 522.888312 257.899588
z
" clip-path="url(#pec1dfeeb8f)" style="fill: #b71c1c"/>
    <path d="M 524.650434 257.899588
L 524.650434 240.216907
L 540.509537 240.216907
L 540.509537 257.899588
z
" clip-path="url(#pec1dfeeb8f)" style="fill: #b71c1c"/>
    <path d="M 542.27166 257.899588
L 542.27166 243.412732
L 558.130763 243.412732
L 558.130763 257.899588
z
" clip-path="url(#pec1dfeeb8f)" style="fill: #b71c1c"/>
    <path d="M 559.892886 257.899588
L 559.892886 244.108041
L 575.751989 244.108041
L 575.751989 257.899588
z
" clip-path="url(#pec1dfeeb8f)" style="fill: #b71c1c"/>
    <path d="M 577.514111 257.899588
L 577.514111 246.66038
L 593.373214 246.66038
L 593.373214 257.899588
z
" clip-path="url(#pec1dfeeb8f)" style="fill: #b71c1c"/>
    <path d="M 595.135337 257.899588
L 595.135337 247.401008
L 610.99444 247.401008
L 610.99444 257.899588
z
" clip-path="url(#pec1dfeeb8f)" style="fill: #b71c1c"/>
    <path d="M 612.756562 257.899588
L 612.756562 249.82647
L 628.615666 249.82647
L 628.615666 257.899588
z
" clip-path="url(#pec1dfeeb8f)" style="fill: #b71c1c"/>
    <path d="M 630.377788 257.899588
L 630.377788 250.494476
L 646.236891 250.494476
L 646.236891 257.899588
z
" clip-path="url(#pec1dfeeb8f)" style="fill: #b71c1c"/>
    <path d="M 647.999014 257.899588
L 647.999014 251.422113
L 663.858117 251.422113
L 663.858117 257.899588
z
" clip-path="url(#pec1dfeeb8f)" style="fill: #b71c1c"/>
    <path d="M 665.620239 257.899588
L 665.620239 252.412073
L 681.479343 252.412073
L 681.479343 257.899588
z
" clip-path="url(#pec1dfeeb8f)" style="fill: #b71c1c"/>
    <path d="M 683.241465 257.899588
L 683.241465 253.106627
L 699.100568 253.106627
L 699.100568 257.899588
z
" clip-path="url(#pec1dfeeb8f)" style="fill: #b71c1c"/>
    <path d="M 700.862691 257.899588
L 700.862691 254.543194
L 716.721794 254.543194
L 716.721794 257.899588
z
" clip-path="url(#pec1dfeeb8f)" style="fill: #b71c1c"/>
    <path d="M 718.483916 257.899588
L 718.483916 255.218856
L 734.343019 255.218856
L 734.343019 257.899588
z
" clip-path="url(#pec1dfeeb8f)" style="fill: #b71c1c"/>
    <path d="M 736.105142 257.899588
L 736.105142 255.284636
L 751.964245 255.284636
L 751.964245 257.899588
z
" clip-path="url(#pec1dfeeb8f)" style="fill: #b71c1c"/>
    <path d="M 753.726368 257.899588
L 753.726368 254.990918
L 769.585471 254.990918
L 769.585471 257.899588
z
" clip-path="url(#pec1dfeeb8f)" style="fill: #b71c1c"/>
    <path d="M 771.347593 257.899588
L 771.347593 256.004471
L 787.206696 256.004471
L 787.206696 257.899588
z
" clip-path="url(#pec1dfeeb8f)" style="fill: #b71c1c"/>
    <path d="M 788.968819 257.899588
L 788.968819 256.6832
L 804.827922 256.6832
L 804.827922 257.899588
z
" clip-path="url(#pec1dfeeb8f)" style="fill: #b71c1c"/>
    <path d="M 806.590045 257.899588
L 806.590045 256.783719
L 822.449148 256.783719
L 822.449148 257.899588
z
" clip-path="url(#pec1dfeeb8f)" style="fill: #b71c1c"/>
    <path d="M 824.21127 257.899588
L 824.21127 257.070392
L 840.070373 257.070392
L 840.070373 257.899588
z
" clip-path="url(#pec1dfeeb8f)" style="fill: #b71c1c"/>
    <path d="M 841.832496 257.899588
L 841.832496 257.269036
L 857.691599 257.269036
L 857.691599 257.899588
z
" clip-path="url(#pec1dfeeb8f)" style="fill: #b71c1c"/>
    <path d="M 859.453722 257.899588
L 859.453722 257.273982
L 875.312825 257.273982
L 875.312825 257.899588
z
" clip-path="url(#pec1dfeeb8f)" style="fill: #b71c1c"/>
    <path d="M 877.074947 257.899588
L 877.074947 257.070392
L 892.93405 257.070392
L 892.93405 257.899588
z
" clip-path="url(#pec1dfeeb8f)" style="fill: #b71c1c"/>
    <path d="M 894.696173 257.899588
L 894.696173 257.081218
L 910.555276 257.081218
L 910.555276 257.899588
z
" clip-path="url(#pec1dfeeb8f)" style="fill: #b71c1c"/>
    <path d="M 912.317399 257.899588
L 912.317399 257.483794
L 928.176502 257.483794
L 928.176502 257.899588
z
" clip-path="url(#pec1dfeeb8f)" style="fill: #b71c1c"/>
    <path d="M 929.938624 257.899588
L 929.938624 257.597143
L 945.797727 257.597143
L 945.797727 257.899588
z
" clip-path="url(#pec1dfeeb8f)" style="fill: #b71c1c"/>
    <path d="M 947.55985 257.899588
L 947.55985 257.792848
L 963.418953 257.792848
L 963.418953 257.899588
z
" clip-path="url(#pec1dfeeb8f)" style="fill: #b71c1c"/>
    <path d="M 965.181075 257.899588
L 965.181075 257.390613
L 981.040179 257.390613
L 981.040179 257.899588
z
" clip-path="url(#pec1dfeeb8f)" style="fill: #b71c1c"/>
    <path d="M 982.802301 257.899588
L 982.802301 257.792848
L 998.661404 257.792848
L 998.661404 257.899588
z
" clip-path="url(#pec1dfeeb8f)" style="fill: #b71c1c"/>
    <path d="M 1000.423527 257.899588
L 1000.423527 257.691053
L 1016.28263 257.691053
L 1016.28263 257.899588
z
" clip-path="url(#pec1dfeeb8f)" style="fill: #b71c1c"/>
    <path d="M 1018.044752 257.899588
L 1018.044752 257.691053
L 1033.903856 257.691053
L 1033.903856 257.899588
z
" clip-path="url(#pec1dfeeb8f)" style="fill: #b71c1c"/>
    <path d="M 1035.665978 257.899588
L 1035.665978 257.703884
L 1051.525081 257.703884
L 1051.525081 257.899588
z
" clip-path="url(#pec1dfeeb8f)" style="fill: #b71c1c"/>
    <path d="M 1053.287204 257.899588
L 1053.287204 257.691053
L 1069.146307 257.691053
L 1069.146307 257.899588
z
" clip-path="url(#pec1dfeeb8f)" style="fill: #b71c1c"/>
    <path d="M 1070.908429 257.899588
L 1070.908429 257.797793
L 1086.767532 257.797793
L 1086.767532 257.899588
z
" clip-path="url(#pec1dfeeb8f)" style="fill: #b71c1c"/>
    <path d="M 1123.772106 257.899588
L 1123.772106 257.792848
L 1139.631209 257.792848
L 1139.631209 257.899588
z
" clip-path="url(#pec1dfeeb8f)" style="fill: #b71c1c"/>
    <path d="M 1141.393332 257.899588
L 1141.393332 257.792848
L 1157.252435 257.792848
L 1157.252435 257.899588
z
" clip-path="url(#pec1dfeeb8f)" style="fill: #b71c1c"/>
    <path d="M 1176.635783 257.899588
L 1176.635783 257.797793
L 1192.494886 257.797793
L 1192.494886 257.899588
z
" clip-path="url(#pec1dfeeb8f)" style="fill: #b71c1c"/>
    <path d="M 1194.257009 257.899588
L 1194.257009 257.792848
L 1210.116112 257.792848
L 1210.116112 257.899588
z
" clip-path="url(#pec1dfeeb8f)" style="fill: #b71c1c"/>
    <path d="M 1229.49946 257.899588
L 1229.49946 257.691053
L 1245.358563 257.691053
L 1245.358563 257.899588
z
" clip-path="url(#pec1dfeeb8f)" style="fill: #b71c1c"/>
    <path d="M 1282.363137 257.899588
L 1282.363137 257.797793
L 1298.22224 257.797793
L 1298.22224 257.899588
z
" clip-path="url(#pec1dfeeb8f)" style="fill: #b71c1c"/>
    <path d="M 1335.226814 257.899588
L 1335.226814 257.797793
L 1351.085917 257.797793
L 1351.085917 257.899588
z
" clip-path="url(#pec1dfeeb8f)" style="fill: #b71c1c"/>
   </g>
   <g id="LineCollection_1">
    <path d="M 83.238732 269.820521
L 83.238732 7.56
" clip-path="url(#pec1dfeeb8f)" style="fill: none; stroke-dasharray: 0.886227,1.462274; stroke-dashoffset: 0; stroke: #808080; stroke-width: 0.886227"/>
    <path d="M 259.450988 269.820521
L 259.450988 7.56
" clip-path="url(#pec1dfeeb8f)" style="fill: none; stroke-dasharray: 0.886227,1.462274; stroke-dashoffset: 0; stroke: #808080; stroke-width: 0.886227"/>
    <path d="M 435.663245 269.820521
L 435.663245 7.56
" clip-path="url(#pec1dfeeb8f)" style="fill: none; stroke-dasharray: 0.886227,1.462274; stroke-dashoffset: 0; stroke: #808080; stroke-width: 0.886227"/>
   </g>
   <g id="patch_3">
    <path d="M 70.022812 269.820521
L 748.44 269.820521
" style="fill: none; stroke: #000000; stroke-width: 0.5; stroke-linejoin: miter; stroke-linecap: square"/>
   </g>
  </g>
  <g id="text_11">
   <text style="font-size: 13px; font-family: 'GT Planar'; text-anchor: start; fill: #333333" x="341.047422" y="314.1" transform="rotate(-0 341.047422 314.1)">Annual Bill Change ($)</text>
  </g>
  <g id="text_12">
   <text style="font-size: 13px; font-family: 'GT Planar'; fill: #333333" transform="translate(17.882812 208.552057) rotate(-90)"># of Homes (weighted)</text>
  </g>
 </g>
 <defs>
  <clipPath id="pec1dfeeb8f">
   <rect x="70.022813" y="7.56" width="678.417187" height="262.260521"/>
  </clipPath>
 </defs>
</svg>
