<svg xmlns:xlink="http://www.w3.org/1999/xlink" xmlns="http://www.w3.org/2000/svg" width="896.4pt" height="320.4pt" viewBox="0 0 896.4 320.4" version="1.1">
 <metadata>
  <rdf:RDF xmlns:dc="http://purl.org/dc/elements/1.1/" xmlns:cc="http://creativecommons.org/ns#" xmlns:rdf="http://www.w3.org/1999/02/22-rdf-syntax-ns#">
   <cc:Work>
    <dc:type rdf:resource="http://purl.org/dc/dcmitype/StillImage"/>
    <dc:date>2026-04-24T02:22:46.766402</dc:date>
    <dc:format>image/svg+xml</dc:format>
    <dc:creator>
     <cc:Agent>
      <dc:title>Matplotlib v3.10.8, https://matplotlib.org/</dc:title>
     </cc:Agent>
    </dc:creator>
   </cc:Work>
  </rdf:RDF>
 </metadata>
 <defs>
  <style type="text/css">*{stroke-linejoin: round; stroke-linecap: butt}</style>
 </defs>
 <g id="figure_1">
  <g id="patch_1">
   <path d="M 0 320.4  L 896.4 320.4  L 896.4 0  L 0 0  z " style="fill: #ffffff"/>
  </g>
  <g id="axes_1">
   <g id="patch_2">
    <path d="M 36.260625 264.247778  L 889.2 264.247778  L 889.2 31.511111  L 36.260625 31.511111  z " style="fill: #ffffff"/>
   </g>
   <g id="matplotlib.axis_1">
    <g id="xtick_1">
     <g id="line2d_1">
      <path d="M 74.383352 264.247778  " style="fill: none; stroke: #000000; stroke-width: 1.5; stroke-linecap: square"/>
      <defs>
       <path id="mf46849404f" d="M 0 0  L 0 2.75  " style="stroke: #000000"/>
      </defs>
      <g>
       <use xlink:href="#mf46849404f" x="74.383352" y="264.247778" style="stroke: #000000"/>
      </g>
     </g>
     <g id="text_1">
      <text style="font-size: 11px; font-family: 'IBM Plex Sans'; text-anchor: middle; fill: #4d4d4d" x="74.383352" y="277.337778" transform="rotate(-0 74.383352 277.337778)">$0</text>
     </g>
    </g>
    <g id="xtick_2">
     <g id="line2d_2">
      <path d="M 333.281326 264.247778  " style="fill: none; stroke: #000000; stroke-width: 1.5; stroke-linecap: square"/>
      <g>
       <use xlink:href="#mf46849404f" x="333.281326" y="264.247778" style="stroke: #000000"/>
      </g>
     </g>
     <g id="text_2">
      <text style="font-size: 11px; font-family: 'IBM Plex Sans'; text-anchor: middle; fill: #4d4d4d" x="333.281326" y="277.337778" transform="rotate(-0 333.281326 277.337778)">$1000</text>
     </g>
    </g>
    <g id="xtick_3">
     <g id="line2d_3">
      <path d="M 592.179299 264.247778  " style="fill: none; stroke: #000000; stroke-width: 1.5; stroke-linecap: square"/>
      <g>
       <use xlink:href="#mf46849404f" x="592.179299" y="264.247778" style="stroke: #000000"/>
      </g>
     </g>
     <g id="text_3">
      <text style="font-size: 11px; font-family: 'IBM Plex Sans'; text-anchor: middle; fill: #4d4d4d" x="592.179299" y="277.337778" transform="rotate(-0 592.179299 277.337778)">$2000</text>
     </g>
    </g>
    <g id="xtick_4">
     <g id="line2d_4">
      <path d="M 851.077273 264.247778  " style="fill: none; stroke: #000000; stroke-width: 1.5; stroke-linecap: square"/>
      <g>
       <use xlink:href="#mf46849404f" x="851.077273" y="264.247778" style="stroke: #000000"/>
      </g>
     </g>
     <g id="text_4">
      <text style="font-size: 11px; font-family: 'IBM Plex Sans'; text-anchor: middle; fill: #4d4d4d" x="851.077273" y="277.337778" transform="rotate(-0 851.077273 277.337778)">$3000</text>
     </g>
    </g>
    <g id="xtick_5">
     <g id="line2d_5">
      <path d="M 203.832339 264.247778  " style="fill: none; stroke: #000000; stroke-width: 1.5; stroke-linecap: square"/>
      <defs>
       <path id="m2e8e80f8a7" d="M 0 0  L 0 1.375  " style="stroke: #000000"/>
      </defs>
      <g>
       <use xlink:href="#m2e8e80f8a7" x="203.832339" y="264.247778" style="stroke: #000000"/>
      </g>
     </g>
    </g>
    <g id="xtick_6">
     <g id="line2d_6">
      <path d="M 462.730313 264.247778  " style="fill: none; stroke: #000000; stroke-width: 1.5; stroke-linecap: square"/>
      <g>
       <use xlink:href="#m2e8e80f8a7" x="462.730313" y="264.247778" style="stroke: #000000"/>
      </g>
     </g>
    </g>
    <g id="xtick_7">
     <g id="line2d_7">
      <path d="M 721.628286 264.247778  " style="fill: none; stroke: #000000; stroke-width: 1.5; stroke-linecap: square"/>
      <g>
       <use xlink:href="#m2e8e80f8a7" x="721.628286" y="264.247778" style="stroke: #000000"/>
      </g>
     </g>
    </g>
   </g>
   <g id="matplotlib.axis_2">
    <g id="ytick_1">
     <g id="line2d_8">
      <path d="M 36.260625 253.668838  L 889.2 253.668838  " clip-path="url(#pd1d54868a2)" style="fill: none; stroke: #e5e5e5; stroke-linecap: square"/>
     </g>
     <g id="text_5">
      <text style="font-size: 11px; font-family: 'IBM Plex Sans'; text-anchor: start; fill: #4d4d4d" x="27.460625" y="257.738838" transform="rotate(-0 27.460625 257.738838)">0</text>
     </g>
    </g>
    <g id="ytick_2">
     <g id="line2d_9">
      <path d="M 36.260625 194.421629  L 889.2 194.421629  " clip-path="url(#pd1d54868a2)" style="fill: none; stroke: #e5e5e5; stroke-linecap: square"/>
     </g>
     <g id="text_6">
      <text style="font-size: 11px; font-family: 'IBM Plex Sans'; text-anchor: start; fill: #4d4d4d" x="27.460625" y="198.491629" transform="rotate(-0 27.460625 198.491629)">3</text>
     </g>
    </g>
    <g id="ytick_3">
     <g id="line2d_10">
      <path d="M 36.260625 135.174419  L 889.2 135.174419  " clip-path="url(#pd1d54868a2)" style="fill: none; stroke: #e5e5e5; stroke-linecap: square"/>
     </g>
     <g id="text_7">
      <text style="font-size: 11px; font-family: 'IBM Plex Sans'; text-anchor: start; fill: #4d4d4d" x="27.460625" y="139.244419" transform="rotate(-0 27.460625 139.244419)">6</text>
     </g>
    </g>
    <g id="ytick_4">
     <g id="line2d_11">
      <path d="M 36.260625 75.927209  L 889.2 75.927209  " clip-path="url(#pd1d54868a2)" style="fill: none; stroke: #e5e5e5; stroke-linecap: square"/>
     </g>
     <g id="text_8">
      <text style="font-size: 11px; font-family: 'IBM Plex Sans'; text-anchor: start; fill: #4d4d4d" x="27.460625" y="79.997209" transform="rotate(-0 27.460625 79.997209)">9</text>
     </g>
    </g>
    <g id="ytick_5">
     <g id="line2d_12">
      <path d="M 36.260625 224.045233  L 889.2 224.045233  " clip-path="url(#pd1d54868a2)" style="fill: none; stroke: #fafafa; stroke-width: 0.5; stroke-linecap: square"/>
     </g>
    </g>
    <g id="ytick_6">
     <g id="line2d_13">
      <path d="M 36.260625 164.798024  L 889.2 164.798024  " clip-path="url(#pd1d54868a2)" style="fill: none; stroke: #fafafa; stroke-width: 0.5; stroke-linecap: square"/>
     </g>
    </g>
    <g id="ytick_7">
     <g id="line2d_14">
      <path d="M 36.260625 105.550814  L 889.2 105.550814  " clip-path="url(#pd1d54868a2)" style="fill: none; stroke: #fafafa; stroke-width: 0.5; stroke-linecap: square"/>
     </g>
    </g>
    <g id="ytick_8">
     <g id="line2d_15">
      <path d="M 36.260625 46.303604  L 889.2 46.303604  " clip-path="url(#pd1d54868a2)" style="fill: none; stroke: #fafafa; stroke-width: 0.5; stroke-linecap: square"/>
     </g>
    </g>
   </g>
   <g id="PolyCollection_1">
    <path d="M 75.030597 253.668838  L 75.030597 197.091445  L 99.625904 197.091445  L 99.625904 253.668838  z " clip-path="url(#pd1d54868a2)" style="fill: #4caf50"/>
    <path d="M 100.920394 253.668838  L 100.920394 136.386502  L 125.515702 136.386502  L 125.515702 253.668838  z " clip-path="url(#pd1d54868a2)" style="fill: #4caf50"/>
    <path d="M 126.810191 253.668838  L 126.810191 46.37292  L 151.405499 46.37292  L 151.405499 253.668838  z " clip-path="url(#pd1d54868a2)" style="fill: #4caf50"/>
    <path d="M 152.699989 253.668838  L 152.699989 42.090051  L 177.295296 42.090051  L 177.295296 253.668838  z " clip-path="url(#pd1d54868a2)" style="fill: #4caf50"/>
    <path d="M 178.589786 253.668838  L 178.589786 53.03032  L 203.185094 53.03032  L 203.185094 253.668838  z " clip-path="url(#pd1d54868a2)" style="fill: #4caf50"/>
    <path d="M 204.479584 253.668838  L 204.479584 79.800451  L 229.074891 79.800451  L 229.074891 253.668838  z " clip-path="url(#pd1d54868a2)" style="fill: #4caf50"/>
    <path d="M 230.369381 253.668838  L 230.369381 117.151241  L 254.964688 117.151241  L 254.964688 253.668838  z " clip-path="url(#pd1d54868a2)" style="fill: #4caf50"/>
    <path d="M 256.259178 253.668838  L 256.259178 110.795403  L 280.854486 110.795403  L 280.854486 253.668838  z " clip-path="url(#pd1d54868a2)" style="fill: #4caf50"/>
    <path d="M 282.148976 253.668838  L 282.148976 160.678763  L 306.744283 160.678763  L 306.744283 253.668838  z " clip-path="url(#pd1d54868a2)" style="fill: #4caf50"/>
    <path d="M 308.038773 253.668838  L 308.038773 167.184718  L 332.634081 167.184718  L 332.634081 253.668838  z " clip-path="url(#pd1d54868a2)" style="fill: #4caf50"/>
    <path d="M 333.92857 253.668838  L 333.92857 165.572606  L 358.523878 165.572606  L 358.523878 253.668838  z " clip-path="url(#pd1d54868a2)" style="fill: #4caf50"/>
    <path d="M 359.818368 253.668838  L 359.818368 193.415776  L 384.413675 193.415776  L 384.413675 253.668838  z " clip-path="url(#pd1d54868a2)" style="fill: #4caf50"/>
    <path d="M 385.708165 253.668838  L 385.708165 211.661282  L 410.303473 211.661282  L 410.303473 253.668838  z " clip-path="url(#pd1d54868a2)" style="fill: #4caf50"/>
    <path d="M 411.597963 253.668838  L 411.597963 202.03044  L 436.19327 202.03044  L 436.19327 253.668838  z " clip-path="url(#pd1d54868a2)" style="fill: #4caf50"/>
    <path d="M 437.48776 253.668838  L 437.48776 220.343699  L 462.083068 220.343699  L 462.083068 253.668838  z " clip-path="url(#pd1d54868a2)" style="fill: #4caf50"/>
    <path d="M 463.377557 253.668838  L 463.377557 219.813488  L 487.972865 219.813488  L 487.972865 253.668838  z " clip-path="url(#pd1d54868a2)" style="fill: #4caf50"/>
    <path d="M 489.267355 253.668838  L 489.267355 225.263119  L 513.862662 225.263119  L 513.862662 253.668838  z " clip-path="url(#pd1d54868a2)" style="fill: #4caf50"/>
    <path d="M 515.157152 253.668838  L 515.157152 223.724689  L 539.75246 223.724689  L 539.75246 253.668838  z " clip-path="url(#pd1d54868a2)" style="fill: #4caf50"/>
    <path d="M 541.04695 253.668838  L 541.04695 229.136901  L 565.642257 229.136901  L 565.642257 253.668838  z " clip-path="url(#pd1d54868a2)" style="fill: #4caf50"/>
    <path d="M 566.936747 253.668838  L 566.936747 225.648191  L 591.532055 225.648191  L 591.532055 253.668838  z " clip-path="url(#pd1d54868a2)" style="fill: #4caf50"/>
    <path d="M 592.826544 253.668838  L 592.826544 229.309781  L 617.421852 229.309781  L 617.421852 253.668838  z " clip-path="url(#pd1d54868a2)" style="fill: #4caf50"/>
    <path d="M 618.716342 253.668838  L 618.716342 236.08336  L 643.311649 236.08336  L 643.311649 253.668838  z " clip-path="url(#pd1d54868a2)" style="fill: #4caf50"/>
    <path d="M 644.606139 253.668838  L 644.606139 236.866579  L 669.201447 236.866579  L 669.201447 253.668838  z " clip-path="url(#pd1d54868a2)" style="fill: #4caf50"/>
    <path d="M 670.495937 253.668838  L 670.495937 238.609952  L 695.091244 238.609952  L 695.091244 253.668838  z " clip-path="url(#pd1d54868a2)" style="fill: #4caf50"/>
    <path d="M 696.385734 253.668838  L 696.385734 243.299946  L 720.981041 243.299946  L 720.981041 253.668838  z " clip-path="url(#pd1d54868a2)" style="fill: #4caf50"/>
    <path d="M 722.275531 253.668838  L 722.275531 240.039746  L 746.870839 240.039746  L 746.870839 253.668838  z " clip-path="url(#pd1d54868a2)" style="fill: #4caf50"/>
    <path d="M 748.165329 253.668838  L 748.165329 246.24952  L 772.760636 246.24952  L 772.760636 253.668838  z " clip-path="url(#pd1d54868a2)" style="fill: #4caf50"/>
    <path d="M 774.055126 253.668838  L 774.055126 242.860561  L 798.650434 242.860561  L 798.650434 253.668838  z " clip-path="url(#pd1d54868a2)" style="fill: #4caf50"/>
    <path d="M 799.944923 253.668838  L 799.944923 246.966004  L 824.540231 246.966004  L 824.540231 253.668838  z " clip-path="url(#pd1d54868a2)" style="fill: #4caf50"/>
    <path d="M 825.834721 253.668838  L 825.834721 247.680706  L 850.430028 247.680706  L 850.430028 253.668838  z " clip-path="url(#pd1d54868a2)" style="fill: #4caf50"/>
   </g>
   <g id="patch_3">
    <path d="M 36.260625 264.247778  L 889.2 264.247778  " style="fill: none; stroke: #000000; stroke-width: 0.5; stroke-linejoin: miter; stroke-linecap: square"/>
   </g>
  </g>
  <g id="text_9">
   <text style="font-weight: 700; font-size: 15px; font-family: 'GT Planar'; text-anchor: start" x="36.260625" y="17.7" transform="rotate(-0 36.260625 17.7)">ER homes under the electric heating rate: annual bill savings distribution</text>
  </g>
  <g id="text_10">
   <text style="font-size: 13px; font-family: 'GT Planar'; text-anchor: start; fill: #333333" x="406.688125" y="310.86" transform="rotate(-0 406.688125 310.86)">Annual bill savings</text>
  </g>
  <g id="text_11">
   <text style="font-size: 13px; font-family: 'GT Planar'; fill: #333333" transform="translate(17.120625 231.946788) rotate(-90)">Share of ER households (%)</text>
  </g>
 </g>
 <defs>
  <clipPath id="pd1d54868a2">
   <rect x="36.260625" y="31.511111" width="852.939375" height="232.736667"/>
  </clipPath>
 </defs>
</svg>
