<svg xmlns:xlink="http://www.w3.org/1999/xlink" xmlns="http://www.w3.org/2000/svg" width="874.468125pt" height="1230.912pt" viewBox="0 0 874.468125 1230.912" version="1.1">
 <metadata>
  <rdf:RDF xmlns:dc="http://purl.org/dc/elements/1.1/" xmlns:cc="http://creativecommons.org/ns#" xmlns:rdf="http://www.w3.org/1999/02/22-rdf-syntax-ns#">
   <cc:Work>
    <dc:type rdf:resource="http://purl.org/dc/dcmitype/StillImage"/>
    <dc:date>2026-04-24T02:22:44.918568</dc:date>
    <dc:format>image/svg+xml</dc:format>
    <dc:creator>
     <cc:Agent>
      <dc:title>Matplotlib v3.10.8, https://matplotlib.org/</dc:title>
     </cc:Agent>
    </dc:creator>
   </cc:Work>
  </rdf:RDF>
 </metadata>
 <defs>
  <style type="text/css">*{stroke-linejoin: round; stroke-linecap: butt}</style>
 </defs>
 <g id="figure_1">
  <g id="patch_1">
   <path d="M 0 1230.912  L 874.468125 1230.912  L 874.468125 0  L 0 0  z " style="fill: #ffffff"/>
  </g>
  <g id="axes_1">
   <g id="patch_2">
    <path d="M 7.2 1223.712  L 754.2 1223.712  L 754.2 32.544  L 7.2 32.544  z " style="fill: #ffffff"/>
   </g>
   <g id="patch_3">
    <path d="M 7.2 93.194102  L 7.2 93.194102  L 7.2 120.486648  L 7.2 120.486648  z " clip-path="url(#p6db0a2c641)" style="fill: #b71c1c"/>
   </g>
   <g id="patch_4">
    <path d="M 7.2 93.194102  L 7.2 93.194102  L 7.2 120.486648  L 7.2 120.486648  z " clip-path="url(#p6db0a2c641)" style="fill: #ef9a9a"/>
   </g>
   <g id="patch_5">
    <path d="M 7.2 93.194102  L 220.46209 93.194102  L 220.46209 120.486648  L 7.2 120.486648  z " clip-path="url(#p6db0a2c641)" style="fill: #81c784"/>
   </g>
   <g id="patch_6">
    <path d="M 220.46209 93.194102  L 754.2 93.194102  L 754.2 120.486648  L 220.46209 120.486648  z " clip-path="url(#p6db0a2c641)" style="fill: #1b5e20"/>
   </g>
   <g id="patch_7">
    <path d="M 7.2 127.76466  L 7.2 127.76466  L 7.2 155.057206  L 7.2 155.057206  z " clip-path="url(#p6db0a2c641)" style="fill: #b71c1c"/>
   </g>
   <g id="patch_8">
    <path d="M 7.2 127.76466  L 7.2 127.76466  L 7.2 155.057206  L 7.2 155.057206  z " clip-path="url(#p6db0a2c641)" style="fill: #ef9a9a"/>
   </g>
   <g id="patch_9">
    <path d="M 7.2 127.76466  L 113.831045 127.76466  L 113.831045 155.057206  L 7.2 155.057206  z " clip-path="url(#p6db0a2c641)" style="fill: #81c784"/>
   </g>
   <g id="patch_10">
    <path d="M 113.831045 127.76466  L 754.2 127.76466  L 754.2 155.057206  L 113.831045 155.057206  z " clip-path="url(#p6db0a2c641)" style="fill: #1b5e20"/>
   </g>
   <g id="patch_11">
    <path d="M 7.2 270.292399  L 7.2 270.292399  L 7.2 297.584945  L 7.2 297.584945  z " clip-path="url(#p6db0a2c641)" style="fill: #b71c1c"/>
   </g>
   <g id="patch_12">
    <path d="M 7.2 270.292399  L 7.2 270.292399  L 7.2 297.584945  L 7.2 297.584945  z " clip-path="url(#p6db0a2c641)" style="fill: #ef9a9a"/>
   </g>
   <g id="patch_13">
    <path d="M 7.2 270.292399  L 116.851376 270.292399  L 116.851376 297.584945  L 7.2 297.584945  z " clip-path="url(#p6db0a2c641)" style="fill: #81c784"/>
   </g>
   <g id="patch_14">
    <path d="M 116.851376 270.292399  L 754.2 270.292399  L 754.2 297.584945  L 116.851376 297.584945  z " clip-path="url(#p6db0a2c641)" style="fill: #1b5e20"/>
   </g>
   <g id="patch_15">
    <path d="M 7.2 304.862957  L 7.2 304.862957  L 7.2 332.155503  L 7.2 332.155503  z " clip-path="url(#p6db0a2c641)" style="fill: #b71c1c"/>
   </g>
   <g id="patch_16">
    <path d="M 7.2 304.862957  L 7.2 304.862957  L 7.2 332.155503  L 7.2 332.155503  z " clip-path="url(#p6db0a2c641)" style="fill: #ef9a9a"/>
   </g>
   <g id="patch_17">
    <path d="M 7.2 304.862957  L 75.73211 304.862957  L 75.73211 332.155503  L 7.2 332.155503  z " clip-path="url(#p6db0a2c641)" style="fill: #81c784"/>
   </g>
   <g id="patch_18">
    <path d="M 75.73211 304.862957  L 754.2 304.862957  L 754.2 332.155503  L 75.73211 332.155503  z " clip-path="url(#p6db0a2c641)" style="fill: #1b5e20"/>
   </g>
   <g id="patch_19">
    <path d="M 7.2 447.390697  L 7.2 447.390697  L 7.2 474.683242  L 7.2 474.683242  z " clip-path="url(#p6db0a2c641)" style="fill: #b71c1c"/>
   </g>
   <g id="patch_20">
    <path d="M 7.2 447.390697  L 11.657801 447.390697  L 11.657801 474.683242  L 7.2 474.683242  z " clip-path="url(#p6db0a2c641)" style="fill: #ef9a9a"/>
   </g>
   <g id="patch_21">
    <path d="M 11.657801 447.390697  L 318.609207 447.390697  L 318.609207 474.683242  L 11.657801 474.683242  z " clip-path="url(#p6db0a2c641)" style="fill: #81c784"/>
   </g>
   <g id="patch_22">
    <path d="M 318.609207 447.390697  L 754.2 447.390697  L 754.2 474.683242  L 318.609207 474.683242  z " clip-path="url(#p6db0a2c641)" style="fill: #1b5e20"/>
   </g>
   <g id="patch_23">
    <path d="M 7.2 481.961255  L 7.2 481.961255  L 7.2 509.2538  L 7.2 509.2538  z " clip-path="url(#p6db0a2c641)" style="fill: #b71c1c"/>
   </g>
   <g id="patch_24">
    <path d="M 7.2 481.961255  L 7.2 481.961255  L 7.2 509.2538  L 7.2 509.2538  z " clip-path="url(#p6db0a2c641)" style="fill: #ef9a9a"/>
   </g>
   <g id="patch_25">
    <path d="M 7.2 481.961255  L 167.04399 481.961255  L 167.04399 509.2538  L 7.2 509.2538  z " clip-path="url(#p6db0a2c641)" style="fill: #81c784"/>
   </g>
   <g id="patch_26">
    <path d="M 167.04399 481.961255  L 754.2 481.961255  L 754.2 509.2538  L 167.04399 509.2538  z " clip-path="url(#p6db0a2c641)" style="fill: #1b5e20"/>
   </g>
   <g id="patch_27">
    <path d="M 7.2 624.488994  L 7.2 624.488994  L 7.2 651.78154  L 7.2 651.78154  z " clip-path="url(#p6db0a2c641)" style="fill: #b71c1c"/>
   </g>
   <g id="patch_28">
    <path d="M 7.2 624.488994  L 21.17449 624.488994  L 21.17449 651.78154  L 7.2 651.78154  z " clip-path="url(#p6db0a2c641)" style="fill: #ef9a9a"/>
   </g>
   <g id="patch_29">
    <path d="M 21.17449 624.488994  L 394.67449 624.488994  L 394.67449 651.78154  L 21.17449 651.78154  z " clip-path="url(#p6db0a2c641)" style="fill: #81c784"/>
   </g>
   <g id="patch_30">
    <path d="M 394.67449 624.488994  L 754.2 624.488994  L 754.2 651.78154  L 394.67449 651.78154  z " clip-path="url(#p6db0a2c641)" style="fill: #1b5e20"/>
   </g>
   <g id="patch_31">
    <path d="M 7.2 659.059552  L 7.2 659.059552  L 7.2 686.352098  L 7.2 686.352098  z " clip-path="url(#p6db0a2c641)" style="fill: #b71c1c"/>
   </g>
   <g id="patch_32">
    <path d="M 7.2 659.059552  L 7.2 659.059552  L 7.2 686.352098  L 7.2 686.352098  z " clip-path="url(#p6db0a2c641)" style="fill: #ef9a9a"/>
   </g>
   <g id="patch_33">
    <path d="M 7.2 659.059552  L 141.863265 659.059552  L 141.863265 686.352098  L 7.2 686.352098  z " clip-path="url(#p6db0a2c641)" style="fill: #81c784"/>
   </g>
   <g id="patch_34">
    <path d="M 141.863265 659.059552  L 754.2 659.059552  L 754.2 686.352098  L 141.863265 686.352098  z " clip-path="url(#p6db0a2c641)" style="fill: #1b5e20"/>
   </g>
   <g id="patch_35">
    <path d="M 7.2 801.587291  L 7.2 801.587291  L 7.2 828.879837  L 7.2 828.879837  z " clip-path="url(#p6db0a2c641)" style="fill: #b71c1c"/>
   </g>
   <g id="patch_36">
    <path d="M 7.2 801.587291  L 7.2 801.587291  L 7.2 828.879837  L 7.2 828.879837  z " clip-path="url(#p6db0a2c641)" style="fill: #ef9a9a"/>
   </g>
   <g id="patch_37">
    <path d="M 7.2 801.587291  L 317.357895 801.587291  L 317.357895 828.879837  L 7.2 828.879837  z " clip-path="url(#p6db0a2c641)" style="fill: #81c784"/>
   </g>
   <g id="patch_38">
    <path d="M 317.357895 801.587291  L 754.2 801.587291  L 754.2 828.879837  L 317.357895 828.879837  z " clip-path="url(#p6db0a2c641)" style="fill: #1b5e20"/>
   </g>
   <g id="patch_39">
    <path d="M 7.2 836.157849  L 7.2 836.157849  L 7.2 863.450395  L 7.2 863.450395  z " clip-path="url(#p6db0a2c641)" style="fill: #b71c1c"/>
   </g>
   <g id="patch_40">
    <path d="M 7.2 836.157849  L 7.2 836.157849  L 7.2 863.450395  L 7.2 863.450395  z " clip-path="url(#p6db0a2c641)" style="fill: #ef9a9a"/>
   </g>
   <g id="patch_41">
    <path d="M 7.2 836.157849  L 151.357895 836.157849  L 151.357895 863.450395  L 7.2 863.450395  z " clip-path="url(#p6db0a2c641)" style="fill: #81c784"/>
   </g>
   <g id="patch_42">
    <path d="M 151.357895 836.157849  L 754.2 836.157849  L 754.2 863.450395  L 151.357895 863.450395  z " clip-path="url(#p6db0a2c641)" style="fill: #1b5e20"/>
   </g>
   <g id="patch_43">
    <path d="M 7.2 978.685589  L 7.2 978.685589  L 7.2 1005.978134  L 7.2 1005.978134  z " clip-path="url(#p6db0a2c641)" style="fill: #b71c1c"/>
   </g>
   <g id="patch_44">
    <path d="M 7.2 978.685589  L 62.077771 978.685589  L 62.077771 1005.978134  L 7.2 1005.978134  z " clip-path="url(#p6db0a2c641)" style="fill: #ef9a9a"/>
   </g>
   <g id="patch_45">
    <path d="M 62.077771 978.685589  L 639.950158 978.685589  L 639.950158 1005.978134  L 62.077771 1005.978134  z " clip-path="url(#p6db0a2c641)" style="fill: #81c784"/>
   </g>
   <g id="patch_46">
    <path d="M 639.950158 978.685589  L 754.2 978.685589  L 754.2 1005.978134  L 639.950158 1005.978134  z " clip-path="url(#p6db0a2c641)" style="fill: #1b5e20"/>
   </g>
   <g id="patch_47">
    <path d="M 7.2 1013.256147  L 7.2 1013.256147  L 7.2 1040.548692  L 7.2 1040.548692  z " clip-path="url(#p6db0a2c641)" style="fill: #b71c1c"/>
   </g>
   <g id="patch_48">
    <path d="M 7.2 1013.256147  L 15.478974 1013.256147  L 15.478974 1040.548692  L 7.2 1040.548692  z " clip-path="url(#p6db0a2c641)" style="fill: #ef9a9a"/>
   </g>
   <g id="patch_49">
    <path d="M 15.478974 1013.256147  L 480.993857 1013.256147  L 480.993857 1040.548692  L 15.478974 1040.548692  z " clip-path="url(#p6db0a2c641)" style="fill: #81c784"/>
   </g>
   <g id="patch_50">
    <path d="M 480.993857 1013.256147  L 754.2 1013.256147  L 754.2 1040.548692  L 480.993857 1040.548692  z " clip-path="url(#p6db0a2c641)" style="fill: #1b5e20"/>
   </g>
   <g id="patch_51">
    <path d="M 7.2 1155.783886  L 7.2 1155.783886  L 7.2 1183.076432  L 7.2 1183.076432  z " clip-path="url(#p6db0a2c641)" style="fill: #b71c1c"/>
   </g>
   <g id="patch_52">
    <path d="M 7.2 1155.783886  L 10.802894 1155.783886  L 10.802894 1183.076432  L 7.2 1183.076432  z " clip-path="url(#p6db0a2c641)" style="fill: #ef9a9a"/>
   </g>
   <g id="patch_53">
    <path d="M 10.802894 1155.783886  L 230.979743 1155.783886  L 230.979743 1183.076432  L 10.802894 1183.076432  z " clip-path="url(#p6db0a2c641)" style="fill: #81c784"/>
   </g>
   <g id="patch_54">
    <path d="M 230.979743 1155.783886  L 754.2 1155.783886  L 754.2 1183.076432  L 230.979743 1183.076432  z " clip-path="url(#p6db0a2c641)" style="fill: #1b5e20"/>
   </g>
   <g id="patch_55">
    <path d="M 7.2 1190.354444  L 7.2 1190.354444  L 7.2 1217.64699  L 7.2 1217.64699  z " clip-path="url(#p6db0a2c641)" style="fill: #b71c1c"/>
   </g>
   <g id="patch_56">
    <path d="M 7.2 1190.354444  L 8.000643 1190.354444  L 8.000643 1217.64699  L 7.2 1217.64699  z " clip-path="url(#p6db0a2c641)" style="fill: #ef9a9a"/>
   </g>
   <g id="patch_57">
    <path d="M 8.000643 1190.354444  L 110.88328 1190.354444  L 110.88328 1217.64699  L 8.000643 1217.64699  z " clip-path="url(#p6db0a2c641)" style="fill: #81c784"/>
   </g>
   <g id="patch_58">
    <path d="M 110.88328 1190.354444  L 754.2 1190.354444  L 754.2 1217.64699  L 110.88328 1217.64699  z " clip-path="url(#p6db0a2c641)" style="fill: #1b5e20"/>
   </g>
   <g id="matplotlib.axis_1"/>
   <g id="matplotlib.axis_2"/>
   <g id="text_1">
    <text style="font-weight: 700; font-size: 10px; font-family: 'IBM Plex Sans'; text-anchor: middle; fill: #ffffff" x="113.831045" y="109.540375" transform="rotate(-0 113.831045 109.540375)">28.5%</text>
   </g>
   <g id="text_2">
    <text style="font-weight: 700; font-size: 10px; font-family: 'IBM Plex Sans'; text-anchor: middle; fill: #ffffff" x="487.331045" y="109.540375" transform="rotate(-0 487.331045 109.540375)">71.5%</text>
   </g>
   <g id="text_3">
    <text style="font-weight: 700; font-size: 10px; font-family: 'IBM Plex Sans'; text-anchor: middle; fill: #ffffff" x="60.515523" y="144.110933" transform="rotate(-0 60.515523 144.110933)">14.3%</text>
   </g>
   <g id="text_4">
    <text style="font-weight: 700; font-size: 10px; font-family: 'IBM Plex Sans'; text-anchor: middle; fill: #ffffff" x="434.015523" y="144.110933" transform="rotate(-0 434.015523 144.110933)">85.7%</text>
   </g>
   <g id="text_5">
    <text style="font-weight: 700; font-size: 10px; font-family: 'IBM Plex Sans'; text-anchor: middle; fill: #ffffff" x="62.025688" y="286.638672" transform="rotate(-0 62.025688 286.638672)">14.7%</text>
   </g>
   <g id="text_6">
    <text style="font-weight: 700; font-size: 10px; font-family: 'IBM Plex Sans'; text-anchor: middle; fill: #ffffff" x="435.525688" y="286.638672" transform="rotate(-0 435.525688 286.638672)">85.3%</text>
   </g>
   <g id="text_7">
    <text style="font-weight: 700; font-size: 10px; font-family: 'IBM Plex Sans'; text-anchor: middle; fill: #ffffff" x="41.466055" y="321.20923" transform="rotate(-0 41.466055 321.20923)">9.2%</text>
   </g>
   <g id="text_8">
    <text style="font-weight: 700; font-size: 10px; font-family: 'IBM Plex Sans'; text-anchor: middle; fill: #ffffff" x="414.966055" y="321.20923" transform="rotate(-0 414.966055 321.20923)">90.8%</text>
   </g>
   <g id="text_9">
    <text style="font-weight: 700; font-size: 10px; font-family: 'IBM Plex Sans'; text-anchor: middle; fill: #ffffff" x="165.133504" y="463.736969" transform="rotate(-0 165.133504 463.736969)">41.1%</text>
   </g>
   <g id="text_10">
    <text style="font-weight: 700; font-size: 10px; font-family: 'IBM Plex Sans'; text-anchor: middle; fill: #ffffff" x="536.404604" y="463.736969" transform="rotate(-0 536.404604 463.736969)">58.3%</text>
   </g>
   <g id="text_11">
    <text style="font-weight: 700; font-size: 10px; font-family: 'IBM Plex Sans'; text-anchor: middle; fill: #ffffff" x="87.121995" y="498.307527" transform="rotate(-0 87.121995 498.307527)">21.4%</text>
   </g>
   <g id="text_12">
    <text style="font-weight: 700; font-size: 10px; font-family: 'IBM Plex Sans'; text-anchor: middle; fill: #ffffff" x="460.621995" y="498.307527" transform="rotate(-0 460.621995 498.307527)">78.6%</text>
   </g>
   <g id="text_13">
    <text style="font-weight: 700; font-size: 10px; font-family: 'IBM Plex Sans'; text-anchor: middle; fill: #ffffff" x="207.92449" y="640.835267" transform="rotate(-0 207.92449 640.835267)">50.0%</text>
   </g>
   <g id="text_14">
    <text style="font-weight: 700; font-size: 10px; font-family: 'IBM Plex Sans'; text-anchor: middle; fill: #ffffff" x="574.437245" y="640.835267" transform="rotate(-0 574.437245 640.835267)">48.1%</text>
   </g>
   <g id="text_15">
    <text style="font-weight: 700; font-size: 10px; font-family: 'IBM Plex Sans'; text-anchor: middle; fill: #ffffff" x="74.531633" y="675.405825" transform="rotate(-0 74.531633 675.405825)">18.0%</text>
   </g>
   <g id="text_16">
    <text style="font-weight: 700; font-size: 10px; font-family: 'IBM Plex Sans'; text-anchor: middle; fill: #ffffff" x="448.031633" y="675.405825" transform="rotate(-0 448.031633 675.405825)">82.0%</text>
   </g>
   <g id="text_17">
    <text style="font-weight: 700; font-size: 10px; font-family: 'IBM Plex Sans'; text-anchor: middle; fill: #ffffff" x="162.278947" y="817.933564" transform="rotate(-0 162.278947 817.933564)">41.5%</text>
   </g>
   <g id="text_18">
    <text style="font-weight: 700; font-size: 10px; font-family: 'IBM Plex Sans'; text-anchor: middle; fill: #ffffff" x="535.778947" y="817.933564" transform="rotate(-0 535.778947 817.933564)">58.5%</text>
   </g>
   <g id="text_19">
    <text style="font-weight: 700; font-size: 10px; font-family: 'IBM Plex Sans'; text-anchor: middle; fill: #ffffff" x="79.278947" y="852.504122" transform="rotate(-0 79.278947 852.504122)">19.3%</text>
   </g>
   <g id="text_20">
    <text style="font-weight: 700; font-size: 10px; font-family: 'IBM Plex Sans'; text-anchor: middle; fill: #ffffff" x="452.778947" y="852.504122" transform="rotate(-0 452.778947 852.504122)">80.7%</text>
   </g>
   <g id="text_21">
    <text style="font-weight: 700; font-size: 10px; font-family: 'IBM Plex Sans'; text-anchor: middle; fill: #ffffff" x="34.638885" y="995.031862" transform="rotate(-0 34.638885 995.031862)">7.3%</text>
   </g>
   <g id="text_22">
    <text style="font-weight: 700; font-size: 10px; font-family: 'IBM Plex Sans'; text-anchor: middle; fill: #ffffff" x="351.013965" y="995.031862" transform="rotate(-0 351.013965 995.031862)">77.4%</text>
   </g>
   <g id="text_23">
    <text style="font-weight: 700; font-size: 10px; font-family: 'IBM Plex Sans'; text-anchor: middle; fill: #ffffff" x="697.075079" y="995.031862" transform="rotate(-0 697.075079 995.031862)">15.3%</text>
   </g>
   <g id="text_24">
    <text style="font-weight: 700; font-size: 10px; font-family: 'IBM Plex Sans'; text-anchor: middle; fill: #ffffff" x="248.236415" y="1029.60242" transform="rotate(-0 248.236415 1029.60242)">62.3%</text>
   </g>
   <g id="text_25">
    <text style="font-weight: 700; font-size: 10px; font-family: 'IBM Plex Sans'; text-anchor: middle; fill: #ffffff" x="617.596928" y="1029.60242" transform="rotate(-0 617.596928 1029.60242)">36.6%</text>
   </g>
   <g id="text_26">
    <text style="font-weight: 700; font-size: 10px; font-family: 'IBM Plex Sans'; text-anchor: middle; fill: #ffffff" x="120.891318" y="1172.130159" transform="rotate(-0 120.891318 1172.130159)">29.5%</text>
   </g>
   <g id="text_27">
    <text style="font-weight: 700; font-size: 10px; font-family: 'IBM Plex Sans'; text-anchor: middle; fill: #ffffff" x="492.589871" y="1172.130159" transform="rotate(-0 492.589871 1172.130159)">70.0%</text>
   </g>
   <g id="text_28">
    <text style="font-weight: 700; font-size: 10px; font-family: 'IBM Plex Sans'; text-anchor: middle; fill: #ffffff" x="59.441961" y="1206.700717" transform="rotate(-0 59.441961 1206.700717)">13.8%</text>
   </g>
   <g id="text_29">
    <text style="font-weight: 700; font-size: 10px; font-family: 'IBM Plex Sans'; text-anchor: middle; fill: #ffffff" x="432.54164" y="1206.700717" transform="rotate(-0 432.54164 1206.700717)">86.1%</text>
   </g>
   <g id="text_30">
    <text style="font-weight: 700; font-size: 9px; font-family: 'IBM Plex Sans'; text-anchor: start" x="761.67" y="109.270375" transform="rotate(-0 761.67 109.270375)">Default rate</text>
   </g>
   <g id="text_31">
    <text style="font-weight: 700; font-size: 9px; font-family: 'IBM Plex Sans'; text-anchor: start" x="761.67" y="143.840933" transform="rotate(-0 761.67 143.840933)">Seasonal heat pump rate</text>
   </g>
   <g id="text_32">
    <text style="font-weight: 700; font-size: 9px; font-family: 'IBM Plex Sans'; text-anchor: start" x="761.67" y="286.368672" transform="rotate(-0 761.67 286.368672)">Default rate</text>
   </g>
   <g id="text_33">
    <text style="font-weight: 700; font-size: 9px; font-family: 'IBM Plex Sans'; text-anchor: start" x="761.67" y="320.93923" transform="rotate(-0 761.67 320.93923)">Seasonal heat pump rate</text>
   </g>
   <g id="text_34">
    <text style="font-weight: 700; font-size: 9px; font-family: 'IBM Plex Sans'; text-anchor: start" x="761.67" y="463.466969" transform="rotate(-0 761.67 463.466969)">Default rate</text>
   </g>
   <g id="text_35">
    <text style="font-weight: 700; font-size: 9px; font-family: 'IBM Plex Sans'; text-anchor: start" x="761.67" y="498.037527" transform="rotate(-0 761.67 498.037527)">Seasonal heat pump rate</text>
   </g>
   <g id="text_36">
    <text style="font-weight: 700; font-size: 9px; font-family: 'IBM Plex Sans'; text-anchor: start" x="761.67" y="640.565267" transform="rotate(-0 761.67 640.565267)">Default rate</text>
   </g>
   <g id="text_37">
    <text style="font-weight: 700; font-size: 9px; font-family: 'IBM Plex Sans'; text-anchor: start" x="761.67" y="675.135825" transform="rotate(-0 761.67 675.135825)">Seasonal heat pump rate</text>
   </g>
   <g id="text_38">
    <text style="font-weight: 700; font-size: 9px; font-family: 'IBM Plex Sans'; text-anchor: start" x="761.67" y="817.663564" transform="rotate(-0 761.67 817.663564)">Default rate</text>
   </g>
   <g id="text_39">
    <text style="font-weight: 700; font-size: 9px; font-family: 'IBM Plex Sans'; text-anchor: start" x="761.67" y="852.234122" transform="rotate(-0 761.67 852.234122)">Seasonal heat pump rate</text>
   </g>
   <g id="text_40">
    <text style="font-weight: 700; font-size: 9px; font-family: 'IBM Plex Sans'; text-anchor: start" x="761.67" y="994.761862" transform="rotate(-0 761.67 994.761862)">Default rate</text>
   </g>
   <g id="text_41">
    <text style="font-weight: 700; font-size: 9px; font-family: 'IBM Plex Sans'; text-anchor: start" x="761.67" y="1029.33242" transform="rotate(-0 761.67 1029.33242)">Seasonal heat pump rate</text>
   </g>
   <g id="text_42">
    <text style="font-weight: 700; font-size: 9px; font-family: 'IBM Plex Sans'; text-anchor: start" x="761.67" y="1171.860159" transform="rotate(-0 761.67 1171.860159)">Default rate</text>
   </g>
   <g id="text_43">
    <text style="font-weight: 700; font-size: 9px; font-family: 'IBM Plex Sans'; text-anchor: start" x="761.67" y="1206.430717" transform="rotate(-0 761.67 1206.430717)">Seasonal heat pump rate</text>
   </g>
   <g id="text_44">
    <text style="font-weight: 700; font-size: 11px; font-family: 'GT Planar'; text-anchor: start; fill: #333333" x="7.2" y="46.30901" transform="rotate(-0 7.2 46.30901)">National Grid</text>
   </g>
   <g id="text_45">
    <text style="font-weight: 700; font-size: 11px; font-family: 'GT Planar'; text-anchor: start; fill: #333333" x="7.2" y="223.407308" transform="rotate(-0 7.2 223.407308)">RG&amp;E</text>
   </g>
   <g id="text_46">
    <text style="font-weight: 700; font-size: 11px; font-family: 'GT Planar'; text-anchor: start; fill: #333333" x="7.2" y="400.505605" transform="rotate(-0 7.2 400.505605)">NYSEG</text>
   </g>
   <g id="text_47">
    <text style="font-weight: 700; font-size: 11px; font-family: 'GT Planar'; text-anchor: start; fill: #333333" x="7.2" y="577.603902" transform="rotate(-0 7.2 577.603902)">Central Hudson</text>
   </g>
   <g id="text_48">
    <text style="font-weight: 700; font-size: 11px; font-family: 'GT Planar'; text-anchor: start; fill: #333333" x="7.2" y="754.7022" transform="rotate(-0 7.2 754.7022)">O&amp;R</text>
   </g>
   <g id="text_49">
    <text style="font-weight: 700; font-size: 11px; font-family: 'GT Planar'; text-anchor: start; fill: #333333" x="7.2" y="931.800497" transform="rotate(-0 7.2 931.800497)">Con Edison</text>
   </g>
   <g id="text_50">
    <text style="font-weight: 700; font-size: 11px; font-family: 'GT Planar'; text-anchor: start; fill: #333333" x="7.2" y="1108.898794" transform="rotate(-0 7.2 1108.898794)">PSEG-LI</text>
   </g>
   <g id="text_51">
    <text style="font-weight: 700; font-size: 8px; font-family: 'IBM Plex Sans'; text-anchor: middle; fill: #81c784" x="113.831045" y="70.366566" transform="rotate(-0 113.831045 70.366566)">SAVE $0-1K</text>
   </g>
   <g id="text_52">
    <text style="font-weight: 700; font-size: 8px; font-family: 'IBM Plex Sans'; text-anchor: middle; fill: #1b5e20" x="487.331045" y="70.366566" transform="rotate(-0 487.331045 70.366566)">SAVE &gt; $1K</text>
   </g>
   <g id="text_53">
    <text style="font-weight: 700; font-size: 8px; font-family: 'IBM Plex Sans'; text-anchor: middle; fill: #81c784" x="62.025688" y="247.464864" transform="rotate(-0 62.025688 247.464864)">SAVE $0-1K</text>
   </g>
   <g id="text_54">
    <text style="font-weight: 700; font-size: 8px; font-family: 'IBM Plex Sans'; text-anchor: middle; fill: #1b5e20" x="435.525688" y="247.464864" transform="rotate(-0 435.525688 247.464864)">SAVE &gt; $1K</text>
   </g>
   <g id="text_55">
    <text style="font-weight: 700; font-size: 8px; font-family: 'IBM Plex Sans'; text-anchor: middle; fill: #81c784" x="165.133504" y="424.563161" transform="rotate(-0 165.133504 424.563161)">SAVE $0-1K</text>
   </g>
   <g id="text_56">
    <text style="font-weight: 700; font-size: 8px; font-family: 'IBM Plex Sans'; text-anchor: middle; fill: #1b5e20" x="536.404604" y="424.563161" transform="rotate(-0 536.404604 424.563161)">SAVE &gt; $1K</text>
   </g>
   <g id="text_57">
    <text style="font-weight: 700; font-size: 8px; font-family: 'IBM Plex Sans'; text-anchor: middle; fill: #81c784" x="207.92449" y="601.661458" transform="rotate(-0 207.92449 601.661458)">SAVE $0-1K</text>
   </g>
   <g id="text_58">
    <text style="font-weight: 700; font-size: 8px; font-family: 'IBM Plex Sans'; text-anchor: middle; fill: #1b5e20" x="574.437245" y="601.661458" transform="rotate(-0 574.437245 601.661458)">SAVE &gt; $1K</text>
   </g>
   <g id="text_59">
    <text style="font-weight: 700; font-size: 8px; font-family: 'IBM Plex Sans'; text-anchor: middle; fill: #81c784" x="162.278947" y="778.759756" transform="rotate(-0 162.278947 778.759756)">SAVE $0-1K</text>
   </g>
   <g id="text_60">
    <text style="font-weight: 700; font-size: 8px; font-family: 'IBM Plex Sans'; text-anchor: middle; fill: #1b5e20" x="535.778947" y="778.759756" transform="rotate(-0 535.778947 778.759756)">SAVE &gt; $1K</text>
   </g>
   <g id="text_61">
    <text style="font-weight: 700; font-size: 8px; font-family: 'IBM Plex Sans'; text-anchor: middle; fill: #ef9a9a" x="34.638885" y="955.858053" transform="rotate(-0 34.638885 955.858053)">LOSE $0-1K</text>
   </g>
   <g id="text_62">
    <text style="font-weight: 700; font-size: 8px; font-family: 'IBM Plex Sans'; text-anchor: middle; fill: #81c784" x="351.013965" y="955.858053" transform="rotate(-0 351.013965 955.858053)">SAVE $0-1K</text>
   </g>
   <g id="text_63">
    <text style="font-weight: 700; font-size: 8px; font-family: 'IBM Plex Sans'; text-anchor: middle; fill: #1b5e20" x="697.075079" y="955.858053" transform="rotate(-0 697.075079 955.858053)">SAVE &gt; $1K</text>
   </g>
   <g id="text_64">
    <text style="font-weight: 700; font-size: 8px; font-family: 'IBM Plex Sans'; text-anchor: middle; fill: #81c784" x="120.891318" y="1132.95635" transform="rotate(-0 120.891318 1132.95635)">SAVE $0-1K</text>
   </g>
   <g id="text_65">
    <text style="font-weight: 700; font-size: 8px; font-family: 'IBM Plex Sans'; text-anchor: middle; fill: #1b5e20" x="492.589871" y="1132.95635" transform="rotate(-0 492.589871 1132.95635)">SAVE &gt; $1K</text>
   </g>
  </g>
  <g id="text_66">
   <text style="font-weight: 700; font-size: 12px; font-family: 'GT Planar'; text-anchor: start" x="7.2" y="15.6" transform="rotate(-0 7.2 15.6)">How bills would change for</text>
  </g>
  <g id="text_67">
   <text style="font-weight: 700; font-size: 12px; font-family: 'GT Planar'; text-anchor: start; fill: #4a8fa0" x="166.29375" y="15.6" transform="rotate(-0 166.29375 15.6)">fuel oil</text>
  </g>
  <g id="text_68">
   <text style="font-weight: 700; font-size: 12px; font-family: 'GT Planar'; text-anchor: start" x="209.41875" y="15.6" transform="rotate(-0 209.41875 15.6)">or</text>
  </g>
  <g id="text_69">
   <text style="font-weight: 700; font-size: 12px; font-family: 'GT Planar'; text-anchor: start; fill: #3a8fa0" x="224.5125" y="15.6" transform="rotate(-0 224.5125 15.6)">propane</text>
  </g>
  <g id="text_70">
   <text style="font-weight: 700; font-size: 12px; font-family: 'GT Planar'; text-anchor: start" x="274.85625" y="15.6" transform="rotate(-0 274.85625 15.6)">heated homes after switching to</text>
  </g>
  <g id="text_71">
   <text style="font-weight: 700; font-size: 12px; font-family: 'GT Planar'; text-anchor: start; fill: #c47600" x="463.66875" y="15.6" transform="rotate(-0 463.66875 15.6)">heat pumps</text>
  </g>
 </g>
 <defs>
  <clipPath id="p6db0a2c641">
   <rect x="7.2" y="32.544" width="747" height="1191.168"/>
  </clipPath>
 </defs>
</svg>
