<?xml version="1.0" encoding="utf-8" standalone="no"?>
<!DOCTYPE svg PUBLIC "-//W3C//DTD SVG 1.1//EN"
  "http://www.w3.org/Graphics/SVG/1.1/DTD/svg11.dtd">
<svg xmlns:xlink="http://www.w3.org/1999/xlink" width="756pt" height="324pt" viewBox="0 0 756 324" xmlns="http://www.w3.org/2000/svg" version="1.1">
 <metadata>
  <rdf:RDF xmlns:dc="http://purl.org/dc/elements/1.1/" xmlns:cc="http://creativecommons.org/ns#" xmlns:rdf="http://www.w3.org/1999/02/22-rdf-syntax-ns#">
   <cc:Work>
    <dc:type rdf:resource="http://purl.org/dc/dcmitype/StillImage"/>
    <dc:date>2026-04-24T02:22:43.760366</dc:date>
    <dc:format>image/svg+xml</dc:format>
    <dc:creator>
     <cc:Agent>
      <dc:title>Matplotlib v3.10.8, https://matplotlib.org/</dc:title>
     </cc:Agent>
    </dc:creator>
   </cc:Work>
  </rdf:RDF>
 </metadata>
 <defs>
  <style type="text/css">*{stroke-linejoin: round; stroke-linecap: butt}</style>
 </defs>
 <g id="figure_1">
  <g id="patch_1">
   <path d="M 0 324
L 756 324
L 756 0
L 0 0
z
" style="fill: #ffffff"/>
  </g>
  <g id="axes_1">
   <g id="patch_2">
    <path d="M 68.8 269.820521
L 748.44 269.820521
L 748.44 39.665729
L 68.8 39.665729
z
" style="fill: #ffffff"/>
   </g>
   <g id="matplotlib.axis_1">
    <g id="xtick_1">
     <g id="line2d_1">
      <path d="M 99.692727 269.820521
" style="fill: none; stroke: #000000; stroke-width: 1.5; stroke-linecap: square"/>
      <defs>
       <path id="mc0ed84de2a" d="M 0 0
L 0 2.75
" style="stroke: #000000"/>
      </defs>
      <g>
       <use xlink:href="#mc0ed84de2a" x="99.692727" y="269.820521" style="stroke: #000000"/>
      </g>
     </g>
     <g id="text_1">
      <text style="font-size: 11px; font-family: 'IBM Plex Sans'; text-anchor: middle; fill: #4d4d4d" x="99.692727" y="282.910521" transform="rotate(-0 99.692727 282.910521)">-200</text>
     </g>
    </g>
    <g id="xtick_2">
     <g id="line2d_2">
      <path d="M 254.156364 269.820521
" style="fill: none; stroke: #000000; stroke-width: 1.5; stroke-linecap: square"/>
      <g>
       <use xlink:href="#mc0ed84de2a" x="254.156364" y="269.820521" style="stroke: #000000"/>
      </g>
     </g>
     <g id="text_2">
      <text style="font-size: 11px; font-family: 'IBM Plex Sans'; text-anchor: middle; fill: #4d4d4d" x="254.156364" y="282.910521" transform="rotate(-0 254.156364 282.910521)">-100</text>
     </g>
    </g>
    <g id="xtick_3">
     <g id="line2d_3">
      <path d="M 408.62 269.820521
" style="fill: none; stroke: #000000; stroke-width: 1.5; stroke-linecap: square"/>
      <g>
       <use xlink:href="#mc0ed84de2a" x="408.62" y="269.820521" style="stroke: #000000"/>
      </g>
     </g>
     <g id="text_3">
      <text style="font-size: 11px; font-family: 'IBM Plex Sans'; text-anchor: middle; fill: #4d4d4d" x="408.62" y="282.910521" transform="rotate(-0 408.62 282.910521)">0</text>
     </g>
    </g>
    <g id="xtick_4">
     <g id="line2d_4">
      <path d="M 563.083636 269.820521
" style="fill: none; stroke: #000000; stroke-width: 1.5; stroke-linecap: square"/>
      <g>
       <use xlink:href="#mc0ed84de2a" x="563.083636" y="269.820521" style="stroke: #000000"/>
      </g>
     </g>
     <g id="text_4">
      <text style="font-size: 11px; font-family: 'IBM Plex Sans'; text-anchor: middle; fill: #4d4d4d" x="563.083636" y="282.910521" transform="rotate(-0 563.083636 282.910521)">100</text>
     </g>
    </g>
    <g id="xtick_5">
     <g id="line2d_5">
      <path d="M 717.547273 269.820521
" style="fill: none; stroke: #000000; stroke-width: 1.5; stroke-linecap: square"/>
      <g>
       <use xlink:href="#mc0ed84de2a" x="717.547273" y="269.820521" style="stroke: #000000"/>
      </g>
     </g>
     <g id="text_5">
      <text style="font-size: 11px; font-family: 'IBM Plex Sans'; text-anchor: middle; fill: #4d4d4d" x="717.547273" y="282.910521" transform="rotate(-0 717.547273 282.910521)">200</text>
     </g>
    </g>
    <g id="xtick_6">
     <g id="line2d_6">
      <path d="M 176.924545 269.820521
" style="fill: none; stroke: #000000; stroke-width: 1.5; stroke-linecap: square"/>
      <defs>
       <path id="m99093f0d9e" d="M 0 0
L 0 1.375
" style="stroke: #000000"/>
      </defs>
      <g>
       <use xlink:href="#m99093f0d9e" x="176.924545" y="269.820521" style="stroke: #000000"/>
      </g>
     </g>
    </g>
    <g id="xtick_7">
     <g id="line2d_7">
      <path d="M 331.388182 269.820521
" style="fill: none; stroke: #000000; stroke-width: 1.5; stroke-linecap: square"/>
      <g>
       <use xlink:href="#m99093f0d9e" x="331.388182" y="269.820521" style="stroke: #000000"/>
      </g>
     </g>
    </g>
    <g id="xtick_8">
     <g id="line2d_8">
      <path d="M 485.851818 269.820521
" style="fill: none; stroke: #000000; stroke-width: 1.5; stroke-linecap: square"/>
      <g>
       <use xlink:href="#m99093f0d9e" x="485.851818" y="269.820521" style="stroke: #000000"/>
      </g>
     </g>
    </g>
    <g id="xtick_9">
     <g id="line2d_9">
      <path d="M 640.315455 269.820521
" style="fill: none; stroke: #000000; stroke-width: 1.5; stroke-linecap: square"/>
      <g>
       <use xlink:href="#m99093f0d9e" x="640.315455" y="269.820521" style="stroke: #000000"/>
      </g>
     </g>
    </g>
   </g>
   <g id="matplotlib.axis_2">
    <g id="ytick_1">
     <g id="line2d_10">
      <path d="M 68.8 269.820521
L 748.44 269.820521
" clip-path="url(#p68c1792152)" style="fill: none; stroke: #e5e5e5; stroke-linecap: square"/>
     </g>
     <g id="text_6">
      <text style="font-size: 11px; font-family: 'IBM Plex Sans'; text-anchor: start; fill: #4d4d4d" x="60" y="273.890521" transform="rotate(-0 60 273.890521)">0</text>
     </g>
    </g>
    <g id="ytick_2">
     <g id="line2d_11">
      <path d="M 68.8 196.503919
L 748.44 196.503919
" clip-path="url(#p68c1792152)" style="fill: none; stroke: #e5e5e5; stroke-linecap: square"/>
     </g>
     <g id="text_7">
      <text style="font-size: 11px; font-family: 'IBM Plex Sans'; text-anchor: start; fill: #4d4d4d" x="27" y="200.573919" transform="rotate(-0 27 200.573919)">200000</text>
     </g>
    </g>
    <g id="ytick_3">
     <g id="line2d_12">
      <path d="M 68.8 123.187316
L 748.44 123.187316
" clip-path="url(#p68c1792152)" style="fill: none; stroke: #e5e5e5; stroke-linecap: square"/>
     </g>
     <g id="text_8">
      <text style="font-size: 11px; font-family: 'IBM Plex Sans'; text-anchor: start; fill: #4d4d4d" x="27" y="127.257316" transform="rotate(-0 27 127.257316)">400000</text>
     </g>
    </g>
    <g id="ytick_4">
     <g id="line2d_13">
      <path d="M 68.8 49.870714
L 748.44 49.870714
" clip-path="url(#p68c1792152)" style="fill: none; stroke: #e5e5e5; stroke-linecap: square"/>
     </g>
     <g id="text_9">
      <text style="font-size: 11px; font-family: 'IBM Plex Sans'; text-anchor: start; fill: #4d4d4d" x="27" y="53.940714" transform="rotate(-0 27 53.940714)">600000</text>
     </g>
    </g>
    <g id="ytick_5">
     <g id="line2d_14">
      <path d="M 68.8 233.16222
L 748.44 233.16222
" clip-path="url(#p68c1792152)" style="fill: none; stroke: #fafafa; stroke-width: 0.5; stroke-linecap: square"/>
     </g>
    </g>
    <g id="ytick_6">
     <g id="line2d_15">
      <path d="M 68.8 159.845617
L 748.44 159.845617
" clip-path="url(#p68c1792152)" style="fill: none; stroke: #fafafa; stroke-width: 0.5; stroke-linecap: square"/>
     </g>
    </g>
    <g id="ytick_7">
     <g id="line2d_16">
      <path d="M 68.8 86.529015
L 748.44 86.529015
" clip-path="url(#p68c1792152)" style="fill: none; stroke: #fafafa; stroke-width: 0.5; stroke-linecap: square"/>
     </g>
    </g>
   </g>
   <g id="PolyCollection_1">
    <path d="M 100.465045 269.820521
L 100.465045 267.838584
L 114.366773 267.838584
L 114.366773 269.820521
z
" clip-path="url(#p68c1792152)" style="fill: #68bed8"/>
    <path d="M 115.911409 269.820521
L 115.911409 266.701037
L 129.813136 266.701037
L 129.813136 269.820521
z
" clip-path="url(#p68c1792152)" style="fill: #68bed8"/>
    <path d="M 131.357773 269.820521
L 131.357773 266.137006
L 145.2595 266.137006
L 145.2595 269.820521
z
" clip-path="url(#p68c1792152)" style="fill: #68bed8"/>
    <path d="M 146.804136 269.820521
L 146.804136 264.489304
L 160.705864 264.489304
L 160.705864 269.820521
z
" clip-path="url(#p68c1792152)" style="fill: #68bed8"/>
    <path d="M 162.2505 269.820521
L 162.2505 264.248497
L 176.152227 264.248497
L 176.152227 269.820521
z
" clip-path="url(#p68c1792152)" style="fill: #68bed8"/>
    <path d="M 177.696864 269.820521
L 177.696864 262.05028
L 191.598591 262.05028
L 191.598591 269.820521
z
" clip-path="url(#p68c1792152)" style="fill: #68bed8"/>
    <path d="M 193.143227 269.820521
L 193.143227 259.602695
L 207.044955 259.602695
L 207.044955 269.820521
z
" clip-path="url(#p68c1792152)" style="fill: #68bed8"/>
    <path d="M 208.589591 269.820521
L 208.589591 254.527225
L 222.491318 254.527225
L 222.491318 269.820521
z
" clip-path="url(#p68c1792152)" style="fill: #68bed8"/>
    <path d="M 224.035955 269.820521
L 224.035955 250.892277
L 237.937682 250.892277
L 237.937682 269.820521
z
" clip-path="url(#p68c1792152)" style="fill: #68bed8"/>
    <path d="M 239.482318 269.820521
L 239.482318 247.103252
L 253.384045 247.103252
L 253.384045 269.820521
z
" clip-path="url(#p68c1792152)" style="fill: #68bed8"/>
    <path d="M 254.928682 269.820521
L 254.928682 239.930153
L 268.830409 239.930153
L 268.830409 269.820521
z
" clip-path="url(#p68c1792152)" style="fill: #68bed8"/>
    <path d="M 270.375045 269.820521
L 270.375045 234.244001
L 284.276773 234.244001
L 284.276773 269.820521
z
" clip-path="url(#p68c1792152)" style="fill: #68bed8"/>
    <path d="M 285.821409 269.820521
L 285.821409 223.838234
L 299.723136 223.838234
L 299.723136 269.820521
z
" clip-path="url(#p68c1792152)" style="fill: #68bed8"/>
    <path d="M 301.267773 269.820521
L 301.267773 207.640331
L 315.1695 207.640331
L 315.1695 269.820521
z
" clip-path="url(#p68c1792152)" style="fill: #68bed8"/>
    <path d="M 316.714136 269.820521
L 316.714136 188.978177
L 330.615864 188.978177
L 330.615864 269.820521
z
" clip-path="url(#p68c1792152)" style="fill: #68bed8"/>
    <path d="M 332.1605 269.820521
L 332.1605 156.927029
L 346.062227 156.927029
L 346.062227 269.820521
z
" clip-path="url(#p68c1792152)" style="fill: #68bed8"/>
    <path d="M 347.606864 269.820521
L 347.606864 124.549747
L 361.508591 124.549747
L 361.508591 269.820521
z
" clip-path="url(#p68c1792152)" style="fill: #68bed8"/>
    <path d="M 363.053227 269.820521
L 363.053227 90.49599
L 376.954955 90.49599
L 376.954955 269.820521
z
" clip-path="url(#p68c1792152)" style="fill: #68bed8"/>
    <path d="M 378.499591 269.820521
L 378.499591 50.625481
L 392.401318 50.625481
L 392.401318 269.820521
z
" clip-path="url(#p68c1792152)" style="fill: #68bed8"/>
    <path d="M 393.945955 269.820521
L 393.945955 68.744757
L 407.847682 68.744757
L 407.847682 269.820521
z
" clip-path="url(#p68c1792152)" style="fill: #68bed8"/>
    <path d="M 409.392318 269.820521
L 409.392318 126.066759
L 423.294045 126.066759
L 423.294045 269.820521
z
" clip-path="url(#p68c1792152)" style="fill: #68bed8"/>
    <path d="M 424.838682 269.820521
L 424.838682 196.140384
L 438.740409 196.140384
L 438.740409 269.820521
z
" clip-path="url(#p68c1792152)" style="fill: #68bed8"/>
    <path d="M 440.285045 269.820521
L 440.285045 226.393361
L 454.186773 226.393361
L 454.186773 269.820521
z
" clip-path="url(#p68c1792152)" style="fill: #68bed8"/>
    <path d="M 455.731409 269.820521
L 455.731409 241.156671
L 469.633136 241.156671
L 469.633136 269.820521
z
" clip-path="url(#p68c1792152)" style="fill: #68bed8"/>
    <path d="M 471.177773 269.820521
L 471.177773 250.962038
L 485.0795 250.962038
L 485.0795 269.820521
z
" clip-path="url(#p68c1792152)" style="fill: #68bed8"/>
    <path d="M 486.624136 269.820521
L 486.624136 258.275748
L 500.525864 258.275748
L 500.525864 269.820521
z
" clip-path="url(#p68c1792152)" style="fill: #68bed8"/>
    <path d="M 502.0705 269.820521
L 502.0705 257.990628
L 515.972227 257.990628
L 515.972227 269.820521
z
" clip-path="url(#p68c1792152)" style="fill: #68bed8"/>
    <path d="M 517.516864 269.820521
L 517.516864 261.642163
L 531.418591 261.642163
L 531.418591 269.820521
z
" clip-path="url(#p68c1792152)" style="fill: #68bed8"/>
    <path d="M 532.963227 269.820521
L 532.963227 264.60729
L 546.864955 264.60729
L 546.864955 269.820521
z
" clip-path="url(#p68c1792152)" style="fill: #68bed8"/>
    <path d="M 548.409591 269.820521
L 548.409591 266.363236
L 562.311318 266.363236
L 562.311318 269.820521
z
" clip-path="url(#p68c1792152)" style="fill: #68bed8"/>
    <path d="M 563.855955 269.820521
L 563.855955 266.091235
L 577.757682 266.091235
L 577.757682 269.820521
z
" clip-path="url(#p68c1792152)" style="fill: #68bed8"/>
    <path d="M 579.302318 269.820521
L 579.302318 266.885121
L 593.204045 266.885121
L 593.204045 269.820521
z
" clip-path="url(#p68c1792152)" style="fill: #68bed8"/>
    <path d="M 594.748682 269.820521
L 594.748682 267.789856
L 608.650409 267.789856
L 608.650409 269.820521
z
" clip-path="url(#p68c1792152)" style="fill: #68bed8"/>
    <path d="M 610.195045 269.820521
L 610.195045 267.260518
L 624.096773 267.260518
L 624.096773 269.820521
z
" clip-path="url(#p68c1792152)" style="fill: #68bed8"/>
    <path d="M 625.641409 269.820521
L 625.641409 267.949812
L 639.543136 267.949812
L 639.543136 269.820521
z
" clip-path="url(#p68c1792152)" style="fill: #68bed8"/>
    <path d="M 641.087773 269.820521
L 641.087773 268.702293
L 654.9895 268.702293
L 654.9895 269.820521
z
" clip-path="url(#p68c1792152)" style="fill: #68bed8"/>
    <path d="M 656.534136 269.820521
L 656.534136 268.920606
L 670.435864 268.920606
L 670.435864 269.820521
z
" clip-path="url(#p68c1792152)" style="fill: #68bed8"/>
    <path d="M 671.9805 269.820521
L 671.9805 269.240869
L 685.882227 269.240869
L 685.882227 269.820521
z
" clip-path="url(#p68c1792152)" style="fill: #68bed8"/>
    <path d="M 687.426864 269.820521
L 687.426864 269.146922
L 701.328591 269.146922
L 701.328591 269.820521
z
" clip-path="url(#p68c1792152)" style="fill: #68bed8"/>
    <path d="M 702.873227 269.820521
L 702.873227 269.240231
L 716.774955 269.240231
L 716.774955 269.820521
z
" clip-path="url(#p68c1792152)" style="fill: #68bed8"/>
   </g>
   <g id="LineCollection_1">
    <path d="M 408.62 269.820521
L 408.62 39.665729
" clip-path="url(#p68c1792152)" style="fill: none; stroke-dasharray: 5.246463,2.268741; stroke-dashoffset: 0; stroke: #ff0000; stroke-width: 1.417963"/>
   </g>
   <g id="patch_3">
    <path d="M 68.8 269.820521
L 748.44 269.820521
" style="fill: none; stroke: #000000; stroke-width: 0.5; stroke-linejoin: miter; stroke-linecap: square"/>
   </g>
  </g>
  <g id="text_10">
   <text style="font-weight: 700; font-size: 15px; font-family: 'GT Planar'; text-anchor: start" x="68.8" y="18.299062" transform="rotate(-0 68.8 18.299062)">Annual bill change, TOU − seasonal heat pump rate</text>
  </g>
  <g id="text_11">
   <text style="font-size: 13px; font-family: 'GT Planar'; text-anchor: start; fill: #333333" x="332.947812" y="314.1" transform="rotate(-0 332.947812 314.1)">Annual bill change ($/yr)</text>
  </g>
  <g id="text_12">
   <text style="font-size: 13px; font-family: 'GT Planar'; fill: #333333" transform="translate(16.66 207.801406) rotate(-90)">Number of homes</text>
  </g>
 </g>
 <defs>
  <clipPath id="p68c1792152">
   <rect x="68.8" y="39.665729" width="679.64" height="230.154792"/>
  </clipPath>
 </defs>
</svg>
