<?xml version="1.0" encoding="utf-8" standalone="no"?>
<!DOCTYPE svg PUBLIC "-//W3C//DTD SVG 1.1//EN"
  "http://www.w3.org/Graphics/SVG/1.1/DTD/svg11.dtd">
<svg xmlns:xlink="http://www.w3.org/1999/xlink" width="756pt" height="324pt" viewBox="0 0 756 324" xmlns="http://www.w3.org/2000/svg" version="1.1">
 <metadata>
  <rdf:RDF xmlns:dc="http://purl.org/dc/elements/1.1/" xmlns:cc="http://creativecommons.org/ns#" xmlns:rdf="http://www.w3.org/1999/02/22-rdf-syntax-ns#">
   <cc:Work>
    <dc:type rdf:resource="http://purl.org/dc/dcmitype/StillImage"/>
    <dc:date>2026-04-11T12:05:24.255588</dc:date>
    <dc:format>image/svg+xml</dc:format>
    <dc:creator>
     <cc:Agent>
      <dc:title>Matplotlib v3.10.8, https://matplotlib.org/</dc:title>
     </cc:Agent>
    </dc:creator>
   </cc:Work>
  </rdf:RDF>
 </metadata>
 <defs>
  <style type="text/css">*{stroke-linejoin: round; stroke-linecap: butt}</style>
 </defs>
 <g id="figure_1">
  <g id="patch_1">
   <path d="M 0 324
L 756 324
L 756 0
L 0 0
z
" style="fill: #ffffff"/>
  </g>
  <g id="axes_1">
   <g id="patch_2">
    <path d="M 68.8 269.820521
L 748.44 269.820521
L 748.44 39.665729
L 68.8 39.665729
z
" style="fill: #ffffff"/>
   </g>
   <g id="matplotlib.axis_1">
    <g id="xtick_1">
     <g id="line2d_1">
      <path d="M 99.692727 269.820521
" style="fill: none; stroke: #000000; stroke-width: 1.5; stroke-linecap: square"/>
      <defs>
       <path id="md8d1b75dc3" d="M 0 0
L 0 2.75
" style="stroke: #000000"/>
      </defs>
      <g>
       <use xlink:href="#md8d1b75dc3" x="99.692727" y="269.820521" style="stroke: #000000"/>
      </g>
     </g>
     <g id="text_1">
      <text style="font-size: 11px; font-family: 'IBM Plex Sans'; text-anchor: middle; fill: #4d4d4d" x="99.692727" y="282.910521" transform="rotate(-0 99.692727 282.910521)">-200</text>
     </g>
    </g>
    <g id="xtick_2">
     <g id="line2d_2">
      <path d="M 254.156364 269.820521
" style="fill: none; stroke: #000000; stroke-width: 1.5; stroke-linecap: square"/>
      <g>
       <use xlink:href="#md8d1b75dc3" x="254.156364" y="269.820521" style="stroke: #000000"/>
      </g>
     </g>
     <g id="text_2">
      <text style="font-size: 11px; font-family: 'IBM Plex Sans'; text-anchor: middle; fill: #4d4d4d" x="254.156364" y="282.910521" transform="rotate(-0 254.156364 282.910521)">-100</text>
     </g>
    </g>
    <g id="xtick_3">
     <g id="line2d_3">
      <path d="M 408.62 269.820521
" style="fill: none; stroke: #000000; stroke-width: 1.5; stroke-linecap: square"/>
      <g>
       <use xlink:href="#md8d1b75dc3" x="408.62" y="269.820521" style="stroke: #000000"/>
      </g>
     </g>
     <g id="text_3">
      <text style="font-size: 11px; font-family: 'IBM Plex Sans'; text-anchor: middle; fill: #4d4d4d" x="408.62" y="282.910521" transform="rotate(-0 408.62 282.910521)">0</text>
     </g>
    </g>
    <g id="xtick_4">
     <g id="line2d_4">
      <path d="M 563.083636 269.820521
" style="fill: none; stroke: #000000; stroke-width: 1.5; stroke-linecap: square"/>
      <g>
       <use xlink:href="#md8d1b75dc3" x="563.083636" y="269.820521" style="stroke: #000000"/>
      </g>
     </g>
     <g id="text_4">
      <text style="font-size: 11px; font-family: 'IBM Plex Sans'; text-anchor: middle; fill: #4d4d4d" x="563.083636" y="282.910521" transform="rotate(-0 563.083636 282.910521)">100</text>
     </g>
    </g>
    <g id="xtick_5">
     <g id="line2d_5">
      <path d="M 717.547273 269.820521
" style="fill: none; stroke: #000000; stroke-width: 1.5; stroke-linecap: square"/>
      <g>
       <use xlink:href="#md8d1b75dc3" x="717.547273" y="269.820521" style="stroke: #000000"/>
      </g>
     </g>
     <g id="text_5">
      <text style="font-size: 11px; font-family: 'IBM Plex Sans'; text-anchor: middle; fill: #4d4d4d" x="717.547273" y="282.910521" transform="rotate(-0 717.547273 282.910521)">200</text>
     </g>
    </g>
    <g id="xtick_6">
     <g id="line2d_6">
      <path d="M 176.924545 269.820521
" style="fill: none; stroke: #000000; stroke-width: 1.5; stroke-linecap: square"/>
      <defs>
       <path id="m0063aa90c1" d="M 0 0
L 0 1.375
" style="stroke: #000000"/>
      </defs>
      <g>
       <use xlink:href="#m0063aa90c1" x="176.924545" y="269.820521" style="stroke: #000000"/>
      </g>
     </g>
    </g>
    <g id="xtick_7">
     <g id="line2d_7">
      <path d="M 331.388182 269.820521
" style="fill: none; stroke: #000000; stroke-width: 1.5; stroke-linecap: square"/>
      <g>
       <use xlink:href="#m0063aa90c1" x="331.388182" y="269.820521" style="stroke: #000000"/>
      </g>
     </g>
    </g>
    <g id="xtick_8">
     <g id="line2d_8">
      <path d="M 485.851818 269.820521
" style="fill: none; stroke: #000000; stroke-width: 1.5; stroke-linecap: square"/>
      <g>
       <use xlink:href="#m0063aa90c1" x="485.851818" y="269.820521" style="stroke: #000000"/>
      </g>
     </g>
    </g>
    <g id="xtick_9">
     <g id="line2d_9">
      <path d="M 640.315455 269.820521
" style="fill: none; stroke: #000000; stroke-width: 1.5; stroke-linecap: square"/>
      <g>
       <use xlink:href="#m0063aa90c1" x="640.315455" y="269.820521" style="stroke: #000000"/>
      </g>
     </g>
    </g>
   </g>
   <g id="matplotlib.axis_2">
    <g id="ytick_1">
     <g id="line2d_10">
      <path d="M 68.8 269.820521
L 748.44 269.820521
" clip-path="url(#p0787054ee0)" style="fill: none; stroke: #e5e5e5; stroke-linecap: square"/>
     </g>
     <g id="text_6">
      <text style="font-size: 11px; font-family: 'IBM Plex Sans'; text-anchor: start; fill: #4d4d4d" x="60" y="273.890521" transform="rotate(-0 60 273.890521)">0</text>
     </g>
    </g>
    <g id="ytick_2">
     <g id="line2d_11">
      <path d="M 68.8 198.154516
L 748.44 198.154516
" clip-path="url(#p0787054ee0)" style="fill: none; stroke: #e5e5e5; stroke-linecap: square"/>
     </g>
     <g id="text_7">
      <text style="font-size: 11px; font-family: 'IBM Plex Sans'; text-anchor: start; fill: #4d4d4d" x="27" y="202.224516" transform="rotate(-0 27 202.224516)">200000</text>
     </g>
    </g>
    <g id="ytick_3">
     <g id="line2d_12">
      <path d="M 68.8 126.488512
L 748.44 126.488512
" clip-path="url(#p0787054ee0)" style="fill: none; stroke: #e5e5e5; stroke-linecap: square"/>
     </g>
     <g id="text_8">
      <text style="font-size: 11px; font-family: 'IBM Plex Sans'; text-anchor: start; fill: #4d4d4d" x="27" y="130.558512" transform="rotate(-0 27 130.558512)">400000</text>
     </g>
    </g>
    <g id="ytick_4">
     <g id="line2d_13">
      <path d="M 68.8 54.822507
L 748.44 54.822507
" clip-path="url(#p0787054ee0)" style="fill: none; stroke: #e5e5e5; stroke-linecap: square"/>
     </g>
     <g id="text_9">
      <text style="font-size: 11px; font-family: 'IBM Plex Sans'; text-anchor: start; fill: #4d4d4d" x="27" y="58.892507" transform="rotate(-0 27 58.892507)">600000</text>
     </g>
    </g>
    <g id="ytick_5">
     <g id="line2d_14">
      <path d="M 68.8 233.987519
L 748.44 233.987519
" clip-path="url(#p0787054ee0)" style="fill: none; stroke: #fafafa; stroke-width: 0.5; stroke-linecap: square"/>
     </g>
    </g>
    <g id="ytick_6">
     <g id="line2d_15">
      <path d="M 68.8 162.321514
L 748.44 162.321514
" clip-path="url(#p0787054ee0)" style="fill: none; stroke: #fafafa; stroke-width: 0.5; stroke-linecap: square"/>
     </g>
    </g>
    <g id="ytick_7">
     <g id="line2d_16">
      <path d="M 68.8 90.655509
L 748.44 90.655509
" clip-path="url(#p0787054ee0)" style="fill: none; stroke: #fafafa; stroke-width: 0.5; stroke-linecap: square"/>
     </g>
    </g>
   </g>
   <g id="PolyCollection_1">
    <path d="M 100.465045 269.820521
L 100.465045 267.816234
L 114.366773 267.816234
L 114.366773 269.820521
z
" clip-path="url(#p0787054ee0)" style="fill: #68bed8"/>
    <path d="M 115.911409 269.820521
L 115.911409 267.803994
L 129.813136 267.803994
L 129.813136 269.820521
z
" clip-path="url(#p0787054ee0)" style="fill: #68bed8"/>
    <path d="M 131.357773 269.820521
L 131.357773 265.901633
L 145.2595 265.901633
L 145.2595 269.820521
z
" clip-path="url(#p0787054ee0)" style="fill: #68bed8"/>
    <path d="M 146.804136 269.820521
L 146.804136 266.367397
L 160.705864 266.367397
L 160.705864 269.820521
z
" clip-path="url(#p0787054ee0)" style="fill: #68bed8"/>
    <path d="M 162.2505 269.820521
L 162.2505 263.587984
L 176.152227 263.587984
L 176.152227 269.820521
z
" clip-path="url(#p0787054ee0)" style="fill: #68bed8"/>
    <path d="M 177.696864 269.820521
L 177.696864 263.113161
L 191.598591 263.113161
L 191.598591 269.820521
z
" clip-path="url(#p0787054ee0)" style="fill: #68bed8"/>
    <path d="M 193.143227 269.820521
L 193.143227 260.009556
L 207.044955 260.009556
L 207.044955 269.820521
z
" clip-path="url(#p0787054ee0)" style="fill: #68bed8"/>
    <path d="M 208.589591 269.820521
L 208.589591 256.61305
L 222.491318 256.61305
L 222.491318 269.820521
z
" clip-path="url(#p0787054ee0)" style="fill: #68bed8"/>
    <path d="M 224.035955 269.820521
L 224.035955 253.814404
L 237.937682 253.814404
L 237.937682 269.820521
z
" clip-path="url(#p0787054ee0)" style="fill: #68bed8"/>
    <path d="M 239.482318 269.820521
L 239.482318 247.600678
L 253.384045 247.600678
L 253.384045 269.820521
z
" clip-path="url(#p0787054ee0)" style="fill: #68bed8"/>
    <path d="M 254.928682 269.820521
L 254.928682 241.038967
L 268.830409 241.038967
L 268.830409 269.820521
z
" clip-path="url(#p0787054ee0)" style="fill: #68bed8"/>
    <path d="M 270.375045 269.820521
L 270.375045 234.23677
L 284.276773 234.23677
L 284.276773 269.820521
z
" clip-path="url(#p0787054ee0)" style="fill: #68bed8"/>
    <path d="M 285.821409 269.820521
L 285.821409 226.36533
L 299.723136 226.36533
L 299.723136 269.820521
z
" clip-path="url(#p0787054ee0)" style="fill: #68bed8"/>
    <path d="M 301.267773 269.820521
L 301.267773 210.505937
L 315.1695 210.505937
L 315.1695 269.820521
z
" clip-path="url(#p0787054ee0)" style="fill: #68bed8"/>
    <path d="M 316.714136 269.820521
L 316.714136 192.695988
L 330.615864 192.695988
L 330.615864 269.820521
z
" clip-path="url(#p0787054ee0)" style="fill: #68bed8"/>
    <path d="M 332.1605 269.820521
L 332.1605 157.740722
L 346.062227 157.740722
L 346.062227 269.820521
z
" clip-path="url(#p0787054ee0)" style="fill: #68bed8"/>
    <path d="M 347.606864 269.820521
L 347.606864 125.264663
L 361.508591 125.264663
L 361.508591 269.820521
z
" clip-path="url(#p0787054ee0)" style="fill: #68bed8"/>
    <path d="M 363.053227 269.820521
L 363.053227 90.577408
L 376.954955 90.577408
L 376.954955 269.820521
z
" clip-path="url(#p0787054ee0)" style="fill: #68bed8"/>
    <path d="M 378.499591 269.820521
L 378.499591 50.625481
L 392.401318 50.625481
L 392.401318 269.820521
z
" clip-path="url(#p0787054ee0)" style="fill: #68bed8"/>
    <path d="M 393.945955 269.820521
L 393.945955 68.333886
L 407.847682 68.333886
L 407.847682 269.820521
z
" clip-path="url(#p0787054ee0)" style="fill: #68bed8"/>
    <path d="M 409.392318 269.820521
L 409.392318 139.607879
L 423.294045 139.607879
L 423.294045 269.820521
z
" clip-path="url(#p0787054ee0)" style="fill: #68bed8"/>
    <path d="M 424.838682 269.820521
L 424.838682 195.443695
L 438.740409 195.443695
L 438.740409 269.820521
z
" clip-path="url(#p0787054ee0)" style="fill: #68bed8"/>
    <path d="M 440.285045 269.820521
L 440.285045 225.848597
L 454.186773 225.848597
L 454.186773 269.820521
z
" clip-path="url(#p0787054ee0)" style="fill: #68bed8"/>
    <path d="M 455.731409 269.820521
L 455.731409 241.12816
L 469.633136 241.12816
L 469.633136 269.820521
z
" clip-path="url(#p0787054ee0)" style="fill: #68bed8"/>
    <path d="M 471.177773 269.820521
L 471.177773 252.702099
L 485.0795 252.702099
L 485.0795 269.820521
z
" clip-path="url(#p0787054ee0)" style="fill: #68bed8"/>
    <path d="M 486.624136 269.820521
L 486.624136 257.738
L 500.525864 257.738
L 500.525864 269.820521
z
" clip-path="url(#p0787054ee0)" style="fill: #68bed8"/>
    <path d="M 502.0705 269.820521
L 502.0705 258.227373
L 515.972227 258.227373
L 515.972227 269.820521
z
" clip-path="url(#p0787054ee0)" style="fill: #68bed8"/>
    <path d="M 517.516864 269.820521
L 517.516864 261.506367
L 531.418591 261.506367
L 531.418591 269.820521
z
" clip-path="url(#p0787054ee0)" style="fill: #68bed8"/>
    <path d="M 532.963227 269.820521
L 532.963227 264.994803
L 546.864955 264.994803
L 546.864955 269.820521
z
" clip-path="url(#p0787054ee0)" style="fill: #68bed8"/>
    <path d="M 548.409591 269.820521
L 548.409591 266.270872
L 562.311318 266.270872
L 562.311318 269.820521
z
" clip-path="url(#p0787054ee0)" style="fill: #68bed8"/>
    <path d="M 563.855955 269.820521
L 563.855955 266.358958
L 577.757682 266.358958
L 577.757682 269.820521
z
" clip-path="url(#p0787054ee0)" style="fill: #68bed8"/>
    <path d="M 579.302318 269.820521
L 579.302318 266.931996
L 593.204045 266.931996
L 593.204045 269.820521
z
" clip-path="url(#p0787054ee0)" style="fill: #68bed8"/>
    <path d="M 594.748682 269.820521
L 594.748682 267.504931
L 608.650409 267.504931
L 608.650409 269.820521
z
" clip-path="url(#p0787054ee0)" style="fill: #68bed8"/>
    <path d="M 610.195045 269.820521
L 610.195045 267.495218
L 624.096773 267.495218
L 624.096773 269.820521
z
" clip-path="url(#p0787054ee0)" style="fill: #68bed8"/>
    <path d="M 625.641409 269.820521
L 625.641409 267.986922
L 639.543136 267.986922
L 639.543136 269.820521
z
" clip-path="url(#p0787054ee0)" style="fill: #68bed8"/>
    <path d="M 641.087773 269.820521
L 641.087773 268.417524
L 654.9895 268.417524
L 654.9895 269.820521
z
" clip-path="url(#p0787054ee0)" style="fill: #68bed8"/>
    <path d="M 656.534136 269.820521
L 656.534136 269.173704
L 670.435864 269.173704
L 670.435864 269.820521
z
" clip-path="url(#p0787054ee0)" style="fill: #68bed8"/>
    <path d="M 671.9805 269.820521
L 671.9805 269.173067
L 685.882227 269.173067
L 685.882227 269.820521
z
" clip-path="url(#p0787054ee0)" style="fill: #68bed8"/>
    <path d="M 687.426864 269.820521
L 687.426864 269.242939
L 701.328591 269.242939
L 701.328591 269.820521
z
" clip-path="url(#p0787054ee0)" style="fill: #68bed8"/>
    <path d="M 702.873227 269.820521
L 702.873227 269.163348
L 716.774955 269.163348
L 716.774955 269.820521
z
" clip-path="url(#p0787054ee0)" style="fill: #68bed8"/>
   </g>
   <g id="LineCollection_1">
    <path d="M 408.62 269.820521
L 408.62 39.665729
" clip-path="url(#p0787054ee0)" style="fill: none; stroke-dasharray: 5.246463,2.268741; stroke-dashoffset: 0; stroke: #ff0000; stroke-width: 1.417963"/>
   </g>
   <g id="patch_3">
    <path d="M 68.8 269.820521
L 748.44 269.820521
" style="fill: none; stroke: #000000; stroke-width: 0.5; stroke-linejoin: miter; stroke-linecap: square"/>
   </g>
  </g>
  <g id="text_10">
   <text style="font-weight: 700; font-size: 15px; font-family: 'GT Planar'; text-anchor: start" x="68.8" y="18.299062" transform="rotate(-0 68.8 18.299062)">Annual bill change, TOU − seasonal HP rate</text>
  </g>
  <g id="text_11">
   <text style="font-size: 13px; font-family: 'GT Planar'; text-anchor: start; fill: #333333" x="332.947812" y="314.1" transform="rotate(-0 332.947812 314.1)">Annual bill change ($/yr)</text>
  </g>
  <g id="text_12">
   <text style="font-size: 13px; font-family: 'GT Planar'; fill: #333333" transform="translate(16.66 207.801406) rotate(-90)">Number of homes</text>
  </g>
 </g>
 <defs>
  <clipPath id="p0787054ee0">
   <rect x="68.8" y="39.665729" width="679.64" height="230.154792"/>
  </clipPath>
 </defs>
</svg>
