<?xml version="1.0" encoding="UTF-8"?>
<svg xmlns="http://www.w3.org/2000/svg" xmlns:xlink="http://www.w3.org/1999/xlink" viewBox="0 0 1280 540">
  <defs>
    <style>
      @font-face {
        font-display: swap;
        font-family: 'GT Planar';
        font-style: normal;
        font-weight: 400;
        src: url('https://switchbox-data.github.io/reports/fonts/gt_planar/GT-Planar-Regular.otf') format('opentype');
      }
      @font-face {
        font-display: swap;
        font-family: 'GT Planar';
        font-style: normal;
        font-weight: 700;
        src: url('https://switchbox-data.github.io/reports/fonts/gt_planar/GT-Planar-Bold.otf') format('opentype');
      }
      @font-face {
        font-display: swap;
        font-family: 'GT-Planar-Black';
        src: url('https://switchbox-data.github.io/reports/fonts/gt_planar/GT-Planar-Black.otf') format('opentype');
      }

      text {
        font-family: 'GT Planar', sans-serif;
      }

      .infographic_3_cls-1, .infographic_3_cls-2, .infographic_3_cls-3, .infographic_3_cls-4, .infographic_3_cls-5, .infographic_3_cls-6, .infographic_3_cls-7, .infographic_3_cls-8, .infographic_3_cls-9, .infographic_3_cls-10, .infographic_3_cls-11, .infographic_3_cls-12, .infographic_3_cls-13, .infographic_3_cls-14, .infographic_3_cls-15 {
        fill: none;
      }

      .infographic_3_cls-2 {
        stroke: #e7b629;
      }

      .infographic_3_cls-2, .infographic_3_cls-3, .infographic_3_cls-4, .infographic_3_cls-5, .infographic_3_cls-6, .infographic_3_cls-7, .infographic_3_cls-8, .infographic_3_cls-9, .infographic_3_cls-10, .infographic_3_cls-16, .infographic_3_cls-12, .infographic_3_cls-13, .infographic_3_cls-17, .infographic_3_cls-14, .infographic_3_cls-15 {
        stroke-miterlimit: 10;
      }

      .infographic_3_cls-2, .infographic_3_cls-8, .infographic_3_cls-11, .infographic_3_cls-12, .infographic_3_cls-14, .infographic_3_cls-15 {
        stroke-linecap: round;
      }

      .infographic_3_cls-2, .infographic_3_cls-8, .infographic_3_cls-12 {
        stroke-width: 2.5px;
      }

      .infographic_3_cls-18, .infographic_3_cls-19, .infographic_3_cls-20, .infographic_3_cls-21, .infographic_3_cls-22, .infographic_3_cls-23, .infographic_3_cls-24 {
        font-family: 'GT Planar', sans-serif;
      }

      .infographic_3_cls-18, .infographic_3_cls-25 {
        letter-spacing: 0em;
      }

      .infographic_3_cls-26 {
        fill: #fdbe76;
      }

      .infographic_3_cls-19 {
        letter-spacing: 0em;
      }

      .infographic_3_cls-20, .infographic_3_cls-27 {
        letter-spacing: 0em;
      }

      .infographic_3_cls-3 {
        stroke: #00c0f3;
      }

      .infographic_3_cls-3, .infographic_3_cls-4, .infographic_3_cls-9, .infographic_3_cls-10, .infographic_3_cls-16, .infographic_3_cls-17 {
        stroke-width: 2px;
      }

      .infographic_3_cls-28 {
        fill: #b9b2af;
      }

      .infographic_3_cls-4 {
        stroke: #a7a9ac;
      }

      .infographic_3_cls-29, .infographic_3_cls-30 {
        fill: #bcbec0;
      }

      .infographic_3_cls-31, .infographic_3_cls-32, .infographic_3_cls-17 {
        fill: #f8981d;
      }

      .infographic_3_cls-31, .infographic_3_cls-24 {
        font-size: 20px;
      }

      .infographic_3_cls-33 {
        fill: #dcddde;
      }

      .infographic_3_cls-30, .infographic_3_cls-34, .infographic_3_cls-35 {
        mix-blend-mode: multiply;
      }

      .infographic_3_cls-34 {
        fill: #e6e7e8;
      }

      .infographic_3_cls-5 {
        stroke-width: 4.14px;
      }

      .infographic_3_cls-5, .infographic_3_cls-6, .infographic_3_cls-9 {
        stroke: #4d4d4f;
      }

      .infographic_3_cls-36 {
        fill: #fed29f;
      }

      .infographic_3_cls-37 {
        fill: #d9d2d0;
      }

      .infographic_3_cls-38 {
        fill: #fdc88a;
      }

      .infographic_3_cls-39 {
        fill: #a5d3e4;
      }

      .infographic_3_cls-40 {
        fill: #f1f2f2;
      }

      .infographic_3_cls-7 {
        stroke: #ffdcb5;
        stroke-width: 2.67px;
      }

      .infographic_3_cls-41 {
        fill: #5eadc5;
      }

      .infographic_3_cls-42 {
        fill: url(#New_Pattern_copy_3);
      }

      .infographic_3_cls-43, .infographic_3_cls-44, .infographic_3_cls-45, .infographic_3_cls-46 {
        fill: #fff;
      }

      .infographic_3_cls-43, .infographic_3_cls-45, .infographic_3_cls-46, .infographic_3_cls-11 {
        font-family: 'GT Planar', sans-serif;
        font-weight: 700;
      }

      .infographic_3_cls-43, .infographic_3_cls-11 {
        font-size: 36px;
        letter-spacing: -.03em;
      }

      .infographic_3_cls-47 {
        letter-spacing: 0em;
      }

      .infographic_3_cls-48 {
        fill: #fcb53b;
      }

      .infographic_3_cls-49 {
        font-family: 'GT-Planar-Black', 'GT Planar', sans-serif;
        font-weight: 800;
      }

      .infographic_3_cls-49, .infographic_3_cls-50 {
        letter-spacing: 0em;
      }

      .infographic_3_cls-51 {
        letter-spacing: 0em;
      }

      .infographic_3_cls-8 {
        stroke: #f7941d;
      }

      .infographic_3_cls-45 {
        font-size: 29.34px;
        letter-spacing: -.03em;
      }

      .infographic_3_cls-52 {
        fill: #808285;
      }

      .infographic_3_cls-46 {
        font-size: 23.47px;
        letter-spacing: -.03em;
      }

      .infographic_3_cls-53 {
        fill: #ffc82b;
      }

      .infographic_3_cls-10 {
        stroke: #ef4130;
      }

      .infographic_3_cls-11 {
        stroke-linejoin: round;
        stroke-width: 6px;
      }

      .infographic_3_cls-11, .infographic_3_cls-12 {
        stroke: #f8981d;
      }

      .infographic_3_cls-16 {
        fill: #f6c92e;
      }

      .infographic_3_cls-16, .infographic_3_cls-17, .infographic_3_cls-14 {
        stroke: #fff;
      }

      .infographic_3_cls-54 {
        fill: #a2d2e4;
      }

      .infographic_3_cls-35 {
        fill: #d8d6d6;
      }

      .infographic_3_cls-13 {
        stroke: #d9d2d0;
      }

      .infographic_3_cls-55 {
        fill: #efecea;
      }

      .infographic_3_cls-56 {
        letter-spacing: -.01em;
      }

      .infographic_3_cls-57 {
        letter-spacing: -.02em;
      }

      .infographic_3_cls-58 {
        letter-spacing: -.02em;
      }

      .infographic_3_cls-59 {
        letter-spacing: -.01em;
      }

      .infographic_3_cls-60 {
        fill: #00c0f3;
      }

      .infographic_3_cls-61 {
        letter-spacing: -.03em;
      }

      .infographic_3_cls-62 {
        fill: #f7941d;
      }

      .infographic_3_cls-63 {
        fill: #ef4130;
      }

      .infographic_3_cls-64 {
        letter-spacing: -.03em;
      }

      .infographic_3_cls-65 {
        letter-spacing: 0em;
      }

      .infographic_3_cls-66 {
        letter-spacing: 0em;
      }

      .infographic_3_cls-67 {
        letter-spacing: 0em;
      }

      .infographic_3_cls-68 {
        letter-spacing: -.01em;
      }

      .infographic_3_cls-69 {
        letter-spacing: -.01em;
      }

      .infographic_3_cls-70 {
        letter-spacing: -.01em;
      }

      .infographic_3_cls-71 {
        letter-spacing: 0em;
      }

      .infographic_3_cls-72, .infographic_3_cls-24 {
        fill: #4d4d4f;
      }

      .infographic_3_cls-73 {
        letter-spacing: 0em;
      }

      .infographic_3_cls-74 {
        fill: #ffdcb5;
      }

      .infographic_3_cls-75 {
        fill: #67bdd7;
      }

      .infographic_3_cls-76 {
        letter-spacing: 0em;
      }

      .infographic_3_cls-77 {
        letter-spacing: 0em;
      }

      .infographic_3_cls-78 {
        fill: #e5e0de;
      }

      .infographic_3_cls-79 {
        fill: #ccd194;
      }

      .infographic_3_cls-22 {
        letter-spacing: -.01em;
      }

      .infographic_3_cls-23 {
        letter-spacing: -.02em;
      }

      .infographic_3_cls-80 {
        clip-path: url(#clippath);
      }

      .infographic_3_cls-14, .infographic_3_cls-15 {
        stroke-width: 1.86px;
      }

      .infographic_3_cls-81 {
        fill: #ffc82c;
      }

      .infographic_3_cls-82 {
        letter-spacing: 0em;
      }

      .infographic_3_cls-83 {
        fill: #9ddcf9;
      }

      .infographic_3_cls-84 {
        fill: #cecac8;
      }

      .infographic_3_cls-15 {
        stroke: #cecac8;
      }

      .infographic_3_cls-85 {
        fill: #a7a9ac;
      }
    </style>
    <symbol id="Home_Base_2" data-name="Home Base 2" viewBox="0 0 103.92 96">
      <g>
        <polygon class="infographic_3_cls-55" points="62.35 0 31.18 0 0 36 0 72 41.57 96 103.92 60 103.92 24 62.35 0"/>
        <polygon class="infographic_3_cls-34" points="72.75 24 31.18 0 62.35 0 103.92 24 72.75 24"/>
        <polygon class="infographic_3_cls-34" points="41.57 96 0 72 0 36 41.57 60 41.57 96"/>
        <polygon class="infographic_3_cls-35" points="103.92 60 41.57 96 41.57 60 72.75 24 103.92 24 103.92 60"/>
        <polygon class="infographic_3_cls-30" points="34.64 92 24.25 86 24.25 62 34.64 68 34.64 92"/>
        <polygon class="infographic_3_cls-30" points="6.93 68 17.32 74 17.32 58 6.93 52 6.93 68"/>
      </g>
    </symbol>
    <symbol id="ISO_Utility_Pole" data-name="ISO Utility Pole" viewBox="0 0 12.25 75.18">
      <g>
        <line class="infographic_3_cls-14" x1="11.32" y1="4.06" x2="7.96" y2="6"/>
        <path class="infographic_3_cls-84" d="M8.72,74.56c-1.43.83-3.76.83-5.2,0s-1.43-2.17,0-3,3.76-.83,5.2,0,1.43,2.17,0,3Z"/>
        <line class="infographic_3_cls-14" x1="11.32" y1="10.06" x2="7.96" y2="12"/>
        <g>
          <path class="infographic_3_cls-55" d="M7.43,73.81c-.72.41-1.88.41-2.6,0s-.72-1.09,0-1.5,1.88-.41,2.6,0,.72,1.09,0,1.5Z"/>
          <rect class="infographic_3_cls-55" x="4.29" y="1.06" width="3.67" height="72"/>
        </g>
        <path class="infographic_3_cls-44" d="M7.43,1.81c-.72.41-1.88.41-2.6,0s-.72-1.09,0-1.5,1.88-.41,2.6,0,.72,1.09,0,1.5Z"/>
        <line class="infographic_3_cls-14" x1="4.83" y1="13.81" x2=".93" y2="16.06"/>
        <line class="infographic_3_cls-14" x1="4.83" y1="7.81" x2=".93" y2="10.06"/>
      </g>
    </symbol>
    <symbol id="ISO_Utility_Pole_2" data-name="ISO Utility Pole 2" viewBox="0 0 16.3 75.18">
      <g>
        <line class="infographic_3_cls-15" x1="11.32" y1="4.06" x2="7.96" y2="6"/>
        <path class="infographic_3_cls-28" d="M8.72,74.56c-1.43.83-3.76.83-5.2,0s-1.43-2.17,0-3,3.76-.83,5.2,0,1.43,2.17,0,3Z"/>
        <line class="infographic_3_cls-15" x1="11.32" y1="10.06" x2="7.96" y2="12"/>
        <g>
          <path class="infographic_3_cls-55" d="M7.43,73.81c-.72.41-1.88.41-2.6,0s-.72-1.09,0-1.5,1.88-.41,2.6,0,.72,1.09,0,1.5Z"/>
          <rect class="infographic_3_cls-55" x="4.29" y="1.06" width="3.67" height="72"/>
        </g>
        <path class="infographic_3_cls-44" d="M7.43,1.81c-.72.41-1.88.41-2.6,0s-.72-1.09,0-1.5,1.88-.41,2.6,0,.72,1.09,0,1.5Z"/>
        <line class="infographic_3_cls-15" x1="4.83" y1="13.81" x2=".93" y2="16.06"/>
        <line class="infographic_3_cls-15" x1="4.83" y1="7.81" x2=".93" y2="10.06"/>
        <line class="infographic_3_cls-15" x1="7.43" y1="22.81" x2="11.32" y2="25.06"/>
        <line class="infographic_3_cls-15" x1="7.43" y1="28.81" x2="11.32" y2="31.06"/>
        <g>
          <path class="infographic_3_cls-62" d="M15.22,36.31c-1.43.83-3.76.83-5.2,0-1.43-.83-1.43-2.17,0-3,1.43-.83,3.76-.83,5.2,0,1.43.83,1.43,2.17,0,3Z"/>
          <rect class="infographic_3_cls-62" x="8.95" y="22.81" width="7.35" height="12"/>
        </g>
        <path class="infographic_3_cls-44" d="M15.22,24.31c-1.43.83-3.76.83-5.2,0-1.43-.83-1.43-2.17,0-3,1.43-.83,3.76-.83,5.2,0,1.43.83,1.43,2.17,0,3Z"/>
        <path class="infographic_3_cls-62" d="M11.32,23.56c.72.41,1.88.41,2.6,0s.72-1.09,0-1.5-1.88-.41-2.6,0-.72,1.09,0,1.5Z"/>
      </g>
    </symbol>
    <symbol id="ISO_Utility_Pole_3" data-name="ISO Utility Pole 3" viewBox="0 0 9.8 16.24">
      <g>
        <line class="infographic_3_cls-15" x1=".93" y1="2.12" x2="4.83" y2="4.37"/>
        <line class="infographic_3_cls-15" x1=".93" y1="8.12" x2="4.83" y2="10.37"/>
        <g>
          <path class="infographic_3_cls-62" d="M8.72,15.62c-1.43.83-3.76.83-5.2,0-1.43-.83-1.43-2.17,0-3,1.43-.83,3.76-.83,5.2,0,1.43.83,1.43,2.17,0,3Z"/>
          <rect class="infographic_3_cls-62" x="2.45" y="2.12" width="7.35" height="12"/>
        </g>
        <path class="infographic_3_cls-44" d="M8.72,3.62c-1.43.83-3.76.83-5.2,0-1.43-.83-1.43-2.17,0-3,1.43-.83,3.76-.83,5.2,0,1.43.83,1.43,2.17,0,3Z"/>
        <path class="infographic_3_cls-62" d="M4.83,2.87c.72.41,1.88.41,2.6,0s.72-1.09,0-1.5-1.88-.41-2.6,0-.72,1.09,0,1.5Z"/>
      </g>
    </symbol>
    <symbol id="New_Symbol_1" data-name="New Symbol 1" viewBox="0 0 27.71 44.24">
      <g>
        <g>
          <polygon class="infographic_3_cls-37" points="20.78 28.24 0 40.24 0 16.24 20.78 4.24 20.78 28.24"/>
          <g>
            <polygon class="infographic_3_cls-37" points="27.71 32.24 6.93 44.24 6.93 20.24 27.71 8.24 27.71 32.24"/>
            <g>
              <path class="infographic_3_cls-40" d="M25.98,21.24c0,5.52-3.88,12.24-8.66,15-4.78,2.76-8.66.52-8.66-5s3.88-12.24,8.66-15c4.78-2.76,8.66-.52,8.66,5Z"/>
              <path class="infographic_3_cls-83" d="M19.98,24.7c0,1.7-1.19,3.77-2.66,4.62-1.47.85-2.66.16-2.66-1.54,0-1.7,1.19-3.77,2.66-4.62,1.47-.85,2.66-.16,2.66,1.54Z"/>
              <g>
                <path class="infographic_3_cls-83" d="M24.24,26.85l-6.92-.62s-1.38,4.47-1.51,6.97c-.27,5.31,6.44-1.2,8.43-6.35Z"/>
                <path class="infographic_3_cls-83" d="M10.4,34.85l6.92-8.61s-2.06-2.03-3.82-2.36c-3.73-.69-5.1,8.12-3.1,10.97Z"/>
                <path class="infographic_3_cls-83" d="M17.32,17.01v9.23s3.45-2.44,5.33-4.62c4-4.62-1.33-6.92-5.33-4.62Z"/>
              </g>
              <path class="infographic_3_cls-52" d="M18.65,25.47c0,.85-.6,1.88-1.33,2.31s-1.33.08-1.33-.77c0-.85.6-1.88,1.33-2.31s1.33-.08,1.33.77Z"/>
            </g>
          </g>
          <polygon class="infographic_3_cls-55" points="20.78 4.24 27.71 8.24 6.93 20.24 0 16.24 20.78 4.24"/>
          <polygon class="infographic_3_cls-78" points="0 40.24 6.93 44.24 6.93 20.24 0 16.24 0 40.24"/>
          <path class="infographic_3_cls-52" d="M22.52,7.24c.96.55.96,1.45,0,2s-2.51.55-3.46,0-.96-1.45,0-2c.96-.55,2.51-.55,3.46,0Z"/>
          <path class="infographic_3_cls-52" d="M17.32,10.24c.96.55.96,1.45,0,2-.96.55-2.51.55-3.46,0-.96-.55-.96-1.45,0-2s2.51-.55,3.46,0Z"/>
          <g>
            <path class="infographic_3_cls-52" d="M19.05,1.24c0,1.1-.78,2.45-1.73,3s-1.73.1-1.73-1c0-1.1.78-2.45,1.73-3s1.73-.1,1.73,1Z"/>
            <path class="infographic_3_cls-52" d="M13.86,4.24c0,1.1-.78,2.45-1.73,3s-1.73.1-1.73-1,.78-2.45,1.73-3c.96-.55,1.73-.1,1.73,1Z"/>
            <path class="infographic_3_cls-60" d="M12.99,4.74c0,.55-.39,1.22-.87,1.5s-.87.05-.87-.5c0-.55.39-1.22.87-1.5s.87-.05.87.5Z"/>
            <path class="infographic_3_cls-63" d="M18.19,1.74c0,.55-.39,1.22-.87,1.5s-.87.05-.87-.5.39-1.22.87-1.5.87-.05.87.5Z"/>
          </g>
          <path class="infographic_3_cls-3" d="M15.59,11.24v-2.85c0-.71-.38-1.37-1-1.73l-2.46-1.42"/>
          <path class="infographic_3_cls-10" d="M20.78,8.24v-2.85c0-.71-.38-1.37-1-1.73l-2.46-1.42"/>
          <path class="infographic_3_cls-60" d="M16.45,10.74c.48.28.48.72,0,1s-1.25.28-1.73,0-.48-.72,0-1,1.25-.28,1.73,0Z"/>
          <path class="infographic_3_cls-63" d="M21.65,7.74c.48.28.48.72,0,1s-1.25.28-1.73,0-.48-.72,0-1,1.25-.28,1.73,0Z"/>
        </g>
        <g>
          <line class="infographic_3_cls-13" x1="7.79" y1="28.27" x2="26.85" y2="17.27"/>
          <line class="infographic_3_cls-13" x1="7.79" y1="24.81" x2="26.85" y2="13.81"/>
          <line class="infographic_3_cls-13" x1="7.79" y1="31.74" x2="26.85" y2="20.74"/>
          <line class="infographic_3_cls-13" x1="7.79" y1="38.66" x2="26.85" y2="27.66"/>
          <line class="infographic_3_cls-13" x1="7.79" y1="35.2" x2="26.85" y2="24.2"/>
        </g>
      </g>
    </symbol>
    <symbol id="New_Symbol_13" data-name="New Symbol 13" viewBox="0 0 27.71 43.24">
      <g>
        <polygon class="infographic_3_cls-37" points="20.78 15.24 10.39 21.24 10.39 9.24 20.78 3.24 20.78 15.24"/>
        <polygon class="infographic_3_cls-1" points="27.71 31.24 6.93 43.24 0 39.24 20.78 27.24 27.71 31.24"/>
        <polygon class="infographic_3_cls-39" points="27.71 7.24 17.32 13.24 10.39 9.24 20.78 3.24 27.71 7.24"/>
        <path class="infographic_3_cls-52" d="M20.78,7.24c.96.55.96,1.45,0,2s-2.51.55-3.46,0c-.96-.55-.96-1.45,0-2,.96-.55,2.51-.55,3.46,0Z"/>
        <g>
          <path class="infographic_3_cls-52" d="M20.78,7.24c.96.55.96,1.45,0,2s-2.51.55-3.46,0c-.96-.55-.96-1.45,0-2s2.51-.55,3.46,0Z"/>
          <g>
            <path class="infographic_3_cls-52" d="M17.32,1.24c0,1.1-.78,2.45-1.73,3s-1.73.1-1.73-1c0-1.1.78-2.45,1.73-3s1.73-.1,1.73,1Z"/>
            <path class="infographic_3_cls-85" d="M16.45,1.74c0,.55-.39,1.22-.87,1.5s-.87.05-.87-.5.39-1.22.87-1.5.87-.05.87.5Z"/>
          </g>
          <path class="infographic_3_cls-4" d="M19.05,8.24v-2.85c0-.71-.38-1.37-1-1.73l-2.46-1.42"/>
          <path class="infographic_3_cls-85" d="M19.92,7.74c.48.28.48.72,0,1s-1.25.28-1.73,0-.48-.72,0-1,1.25-.28,1.73,0Z"/>
        </g>
        <g>
          <path class="infographic_3_cls-52" d="M20.78,31.24c.96.55.96,1.45,0,2s-2.51.55-3.46,0c-.96-.55-.96-1.45,0-2s2.51-.55,3.46,0Z"/>
          <line class="infographic_3_cls-4" x1="19.05" y1="32.24" x2="19.05" y2="21.17"/>
          <path class="infographic_3_cls-85" d="M19.92,31.74c.48.28.48.72,0,1s-1.25.28-1.73,0-.48-.72,0-1,1.25-.28,1.73,0Z"/>
        </g>
        <polygon class="infographic_3_cls-41" points="10.39 9.24 17.32 13.24 17.32 25.24 10.39 21.24 10.39 9.24"/>
        <polygon class="infographic_3_cls-75" points="27.71 19.24 17.32 25.24 17.32 13.24 27.71 7.24 27.71 19.24"/>
        <path class="infographic_3_cls-55" d="M25.11,14.74c0,1.66-1.16,3.67-2.6,4.5s-2.6.16-2.6-1.5c0-1.66,1.16-3.67,2.6-4.5s2.6-.16,2.6,1.5Z"/>
      </g>
    </symbol>
    <symbol id="New_Symbol_2" data-name="New Symbol 2" viewBox="0 0 27.71 40">
      <g>
        <polygon class="infographic_3_cls-37" points="20.78 12 10.39 18 10.39 6 20.78 0 20.78 12"/>
        <polygon class="infographic_3_cls-1" points="27.71 28 6.93 40 0 36 20.78 24 27.71 28"/>
        <polygon class="infographic_3_cls-81" points="27.71 4 17.32 10 10.39 6 20.78 0 27.71 4"/>
        <g>
          <path class="infographic_3_cls-52" d="M20.78,4c.96.55.96,1.45,0,2s-2.51.55-3.46,0c-.96-.55-.96-1.45,0-2s2.51-.55,3.46,0Z"/>
          <path class="infographic_3_cls-48" d="M19.92,4.5c.48.28.48.72,0,1s-1.25.28-1.73,0-.48-.72,0-1,1.25-.28,1.73,0Z"/>
        </g>
        <polygon class="infographic_3_cls-81" points="27.71 16 17.32 22 17.32 10 27.71 4 27.71 16"/>
        <path class="infographic_3_cls-55" d="M25.11,11.5c0,1.66-1.16,3.67-2.6,4.5s-2.6.16-2.6-1.5c0-1.66,1.16-3.67,2.6-4.5s2.6-.16,2.6,1.5Z"/>
        <polygon class="infographic_3_cls-81" points="10.39 6 17.32 10 17.32 22 10.39 18 10.39 6"/>
        <polygon class="infographic_3_cls-34" points="10.39 6 17.32 10 17.32 22 10.39 18 10.39 6"/>
      </g>
    </symbol>
    <symbol id="New_Symbol_3" data-name="New Symbol 3" viewBox="0 0 105.65 96">
      <g>
        <use width="103.92" height="96" xlink:href="#Home_Base_2"/>
        <polygon class="infographic_3_cls-1" points="103.95 60 41.6 96 41.6 60 72.77 24 103.95 24 103.95 60"/>
        <use width="27.71" height="40" transform="translate(77.94 39)" xlink:href="#New_Symbol_2"/>
        <use width="27.71" height="43.24" transform="translate(51.96 50.78)" xlink:href="#New_Symbol_13"/>
      </g>
    </symbol>
    <symbol id="New_Symbol_4" data-name="New Symbol 4" viewBox="0 0 99.75 126.37">
      <g>
        <path class="infographic_3_cls-8" d="M1.25,7.39s36.46,41.41,93.53,54"/>
        <path class="infographic_3_cls-2" d="M1.25,1.25s36.46,41.41,93.53,54"/>
        <use width="16.3" height="75.18" transform="translate(83.46 51.19)" xlink:href="#ISO_Utility_Pole_2"/>
        <path class="infographic_3_cls-2" d="M84.39,61.39s-15.82,43.93-37.98,60.87"/>
      </g>
    </symbol>
    <symbol id="New_Symbol_5" data-name="New Symbol 5" viewBox="0 0 105.71 96">
      <g>
        <g>
          <polygon class="infographic_3_cls-74" points="62.35 0 31.18 0 0 36 0 72 41.57 96 103.92 60 103.92 24 62.35 0"/>
          <polygon class="infographic_3_cls-36" points="72.75 24 31.18 0 62.35 0 103.92 24 72.75 24"/>
          <polygon class="infographic_3_cls-26" points="41.57 96 0 72 0 36 41.57 60 41.57 96"/>
          <polygon class="infographic_3_cls-38" points="103.92 60 41.57 96 41.57 60 72.75 24 103.92 24 103.92 60"/>
        </g>
        <use width="27.71" height="44.24" transform="translate(57.17 46.77)" xlink:href="#New_Symbol_6"/>
        <use width="27.71" height="40" transform="translate(77.99 39)" xlink:href="#New_Symbol_2"/>
        <polygon class="infographic_3_cls-30" points="34.67 92 24.27 86 24.27 62 34.67 68 34.67 92"/>
        <polygon class="infographic_3_cls-30" points="6.95 68 17.35 74 17.35 58 6.95 52 6.95 68"/>
      </g>
    </symbol>
    <symbol id="New_Symbol_6" data-name="New Symbol 6" viewBox="0 0 27.71 44.24">
      <use width="27.71" height="44.24" xlink:href="#New_Symbol_1"/>
    </symbol>
    <symbol id="New_Symbol_7" data-name="New Symbol 7" viewBox="0 0 40 40">
      <g>
        <circle class="infographic_3_cls-53" cx="20" cy="20" r="20"/>
        <text class="infographic_3_cls-46" transform="translate(12.81 28.35)"><tspan x="0" y="0">$</tspan></text>
      </g>
    </symbol>
    <symbol id="New_Symbol_9" data-name="New Symbol 9" viewBox="0 0 50 50">
      <g>
        <circle class="infographic_3_cls-32" cx="25" cy="25" r="25"/>
        <text class="infographic_3_cls-45" transform="translate(7.46 35.43)"><tspan x="0" y="0">$$</tspan></text>
      </g>
    </symbol>
    <pattern id="New_Pattern_copy_3" data-name="New Pattern copy 3" x="0" y="0" width="8" height="8" patternTransform="translate(-20453.51 -17798.79) rotate(-180) scale(1.18 .97)" patternUnits="userSpaceOnUse" viewBox="0 0 8 8">
      <g>
        <rect class="infographic_3_cls-1" width="8" height="8"/>
        <line class="infographic_3_cls-7" x1="16" y1="8" x2="8" y2="16"/>
        <line class="infographic_3_cls-7" x1="8" y1="8" x2="0" y2="16"/>
        <line class="infographic_3_cls-7" x1="0" y1="8" x2="-8" y2="16"/>
        <line class="infographic_3_cls-7" x1="16" y1="0" x2="8" y2="8"/>
        <line class="infographic_3_cls-7" x1="8" y1="0" x2="0" y2="8"/>
        <line class="infographic_3_cls-7" x1="0" y1="0" x2="-8" y2="8"/>
        <line class="infographic_3_cls-7" x1="16" y1="-8" x2="8" y2="0"/>
        <line class="infographic_3_cls-7" x1="8" y1="-8" x2="0" y2="0"/>
        <line class="infographic_3_cls-7" x1="0" y1="-8" x2="-8" y2="0"/>
      </g>
    </pattern>
    <clipPath id="clippath">
      <circle class="infographic_3_cls-1" cx="960.91" cy="218.63" r="72"/>
    </clipPath>
  </defs>
  <rect width="1280" height="540" fill="#ffffff"/>
  <g id="Base_ISO_copy" data-name="Base ISO copy">
    <g id="Layer_30_copy" data-name="Layer 30 copy">
      <g>
        <polygon class="infographic_3_cls-79" points="575.93 453.44 482.4 399.44 617.49 321.44 711.03 375.44 575.93 453.44"/>
        <polygon class="infographic_3_cls-79" points="482.4 399.44 388.86 345.44 523.96 267.44 617.49 321.44 482.4 399.44"/>
        <polygon class="infographic_3_cls-79" points="388.86 345.44 295.33 291.44 430.43 213.44 523.96 267.44 388.86 345.44"/>
        <polygon class="infographic_3_cls-79" points="295.33 291.44 201.8 237.44 336.9 159.44 430.43 213.44 295.33 291.44"/>
      </g>
      <polygon class="infographic_3_cls-33" points="336.89 159.44 357.64 147.46 731.76 363.46 711.01 375.44 336.89 159.44"/>
      <polygon class="infographic_3_cls-33" points="186.21 246.44 201.77 237.45 575.89 453.45 560.34 462.44 186.21 246.44"/>
      <g>
        <polygon class="infographic_3_cls-33" points="299.95 246.1 258.38 270.1 248.57 264.44 290.14 240.44 299.95 246.1"/>
        <polygon class="infographic_3_cls-33" points="393.48 300.1 351.91 324.1 342.1 318.44 383.67 294.44 393.48 300.1"/>
        <polygon class="infographic_3_cls-33" points="487.01 354.1 445.44 378.1 435.63 372.44 477.2 348.44 487.01 354.1"/>
        <polygon class="infographic_3_cls-33" points="580.54 408.1 538.97 432.1 529.16 426.44 570.73 402.44 580.54 408.1"/>
      </g>
      <polygon class="infographic_3_cls-29" points="560.29 462.44 523.91 483.44 149.82 267.45 186.19 246.45 560.29 462.44"/>
    </g>
    <g id="Layer_28_copy" data-name="Layer 28 copy">
      <g id="Layer_40_copy" data-name="Layer 40 copy">
        <g>
          <path class="infographic_3_cls-1" d="M409.55,126.57s36.46,41.41,93.53,54"/>
          <path class="infographic_3_cls-1" d="M316.02,72.57s36.46,41.41,93.53,54"/>
          <path class="infographic_3_cls-1" d="M503.08,180.57s36.46,41.41,93.53,54"/>
          <path class="infographic_3_cls-1" d="M596.61,234.57s36.46,41.41,93.53,54"/>
        </g>
      </g>
    </g>
  </g>
  <g id="Home_1-3" data-name="Home 1-3">
    <use width="105.65" height="96" transform="translate(264.18 153.44)" xlink:href="#New_Symbol_3"/>
    <use width="105.65" height="96" transform="translate(357.71 207.44)" xlink:href="#New_Symbol_3"/>
    <use width="105.65" height="96" transform="translate(451.24 261.44)" xlink:href="#New_Symbol_3"/>
  </g>
  <g id="Home_4_Heat_Pump" data-name="Home 4 Heat Pump">
    <use width="105.71" height="96" transform="translate(544.72 315.44)" xlink:href="#New_Symbol_5"/>
  </g>
  <g id="Electric_Line_Additional_S3" data-name="Electric Line Additional S3">
    <g>
      <path class="infographic_3_cls-12" d="M409.55,126.57s36.46,41.41,93.53,54"/>
      <path class="infographic_3_cls-12" d="M316.02,72.57s36.46,41.41,93.53,54"/>
      <path class="infographic_3_cls-12" d="M503.08,180.57s36.46,41.41,93.53,54"/>
      <path class="infographic_3_cls-12" d="M596.61,234.57s36.46,41.41,93.53,54"/>
    </g>
  </g>
  <g id="Electric_Line" data-name="Electric Line">
    <g>
      <path class="infographic_3_cls-2" d="M409.55,120.43s36.46,41.41,93.53,54"/>
      <path class="infographic_3_cls-2" d="M316.02,66.43s36.46,41.41,93.53,54"/>
      <path class="infographic_3_cls-2" d="M503.08,174.43s36.46,41.41,93.53,54"/>
      <path class="infographic_3_cls-2" d="M596.61,228.43s36.46,41.41,93.53,54"/>
    </g>
  </g>
  <g id="Electric_Utility_Pole" data-name="Electric Utility Pole">
    <use width="12.25" height="75.18" transform="translate(398.23 116.37)" xlink:href="#ISO_Utility_Pole"/>
    <use width="12.25" height="75.18" transform="translate(491.76 170.37)" xlink:href="#ISO_Utility_Pole"/>
    <use width="12.25" height="75.18" transform="translate(585.28 224.37)" xlink:href="#ISO_Utility_Pole"/>
    <use width="12.25" height="75.18" transform="translate(678.81 278.37)" xlink:href="#ISO_Utility_Pole"/>
  </g>
  <g id="Electric_Transformers_S3" data-name="Electric Transformers S3">
    <use width="9.8" height="16.24" transform="translate(404.72 137.06)" xlink:href="#ISO_Utility_Pole_3"/>
    <use width="9.8" height="16.24" transform="translate(685.31 299.06)" xlink:href="#ISO_Utility_Pole_3"/>
  </g>
  <g id="Electric_Line_To_Homes" data-name="Electric Line To Homes">
    <path class="infographic_3_cls-2" d="M492.69,180.57s-15.82,43.93-37.98,60.87v10"/>
    <path class="infographic_3_cls-2" d="M586.22,234.57s-15.82,43.93-37.98,60.87v10"/>
    <path class="infographic_3_cls-2" d="M679.74,288.57s-15.82,43.93-37.98,60.87v10"/>
    <path class="infographic_3_cls-2" d="M399.16,126.57s-15.82,43.93-37.98,60.87v10"/>
  </g>
  <g id="Cost_Icons_1-3" data-name="Cost Icons 1-3">
    <use width="40" height="40" transform="translate(384.35 53.25)" xlink:href="#New_Symbol_7"/>
    <use width="40" height="40" transform="translate(477.88 108.31)" xlink:href="#New_Symbol_7"/>
    <use width="40" height="40" transform="translate(571.41 163.37)" xlink:href="#New_Symbol_7"/>
  </g>
  <g id="Cost_Icon_Change" data-name="Cost Icon Change">
    <use width="50" height="50" transform="translate(659.94 211.47)" xlink:href="#New_Symbol_9"/>
  </g>
  <g id="Cost_Step_3" data-name="Cost Step 3">
    <rect class="infographic_3_cls-17" x="1005.42" y="330.44" width="144" height="72" transform="translate(2154.84 732.87) rotate(180)"/>
    <polygon class="infographic_3_cls-42" points="1079.92 332.94 1146.92 332.94 1146.92 399.94 1079.92 399.94 1079.92 332.94"/>
    <rect class="infographic_3_cls-16" x="789.34" y="330.69" width="72" height="72"/>
    <rect class="infographic_3_cls-16" x="861.34" y="330.44" width="72" height="72"/>
    <rect class="infographic_3_cls-16" x="933.34" y="330.44" width="72" height="72"/>
    <text class="infographic_3_cls-43" transform="translate(886.31 378.44)"><tspan x="0" y="0">$</tspan></text>
    <text class="infographic_3_cls-43" transform="translate(814.31 378.44)"><tspan x="0" y="0">$</tspan></text>
    <text class="infographic_3_cls-43" transform="translate(958.31 378.44)"><tspan x="0" y="0">$</tspan></text>
    <g>
      <text class="infographic_3_cls-43" transform="translate(1055.89 378.44)"><tspan x="0" y="0">$$</tspan></text>
      <text class="infographic_3_cls-11" transform="translate(1055.89 378.44)"><tspan x="0" y="0">$$</tspan></text>
      <text class="infographic_3_cls-43" transform="translate(1055.89 378.44)"><tspan x="0" y="0">$$</tspan></text>
    </g>
  </g>
  <g id="Labels_Step_3" data-name="Labels Step 3">
    <g id="Layer_101" data-name="Layer 101">
      <circle class="infographic_3_cls-54" cx="960.91" cy="218.63" r="63.64"/>
      <g class="infographic_3_cls-80">
        <use width="99.75" height="126.37" transform="translate(801.35 90.6) scale(1.78)" xlink:href="#New_Symbol_4"/>
      </g>
    </g>
    <g id="Cost_Annotation_3" data-name="Cost Annotation 3">
      <path class="infographic_3_cls-9" d="M1142.66,422.23h-56c-3.3,0-6-2.7-6-6v-6.66"/>
      <text class="infographic_3_cls-24" transform="translate(973.07 461.04)"><tspan class="infographic_3_cls-65" x="0" y="0">H</tspan><tspan x="14.46" y="0">e</tspan><tspan class="infographic_3_cls-71" x="25.42" y="0">a</tspan><tspan x="35.84" y="0">t </tspan><tspan class="infographic_3_cls-51" x="49.12" y="0">p</tspan><tspan class="infographic_3_cls-76" x="61.3" y="0">u</tspan><tspan class="infographic_3_cls-27" x="72.5" y="0">m</tspan><tspan x="88.82" y="0">p c</tspan><tspan class="infographic_3_cls-58" x="116.74" y="0">o</tspan><tspan class="infographic_3_cls-57" x="128.08" y="0">v</tspan><tspan x="138.46" y="0">e</tspan><tspan class="infographic_3_cls-70" x="149.42" y="0">r</tspan><tspan x="156.74" y="0">s </tspan><tspan class="infographic_3_cls-58" x="171.54" y="0">e</tspan><tspan x="182.12" y="0">x</tspan><tspan class="infographic_3_cls-25" x="192.7" y="0">t</tspan><tspan class="infographic_3_cls-58" x="200.84" y="0">r</tspan><tspan x="207.98" y="0">a cost </tspan><tspan class="infographic_3_cls-56" x="31.44" y="24">o</tspan><tspan x="42.86" y="24">f g</tspan><tspan class="infographic_3_cls-68" x="67.44" y="24">r</tspan><tspan class="infographic_3_cls-73" x="74.74" y="24">i</tspan><tspan x="79.78" y="24">d </tspan><tspan class="infographic_3_cls-25" x="97.02" y="24">u</tspan><tspan x="108.24" y="24">pg</tspan><tspan class="infographic_3_cls-58" x="131.56" y="24">r</tspan><tspan x="138.7" y="24">a</tspan><tspan class="infographic_3_cls-73" x="149.32" y="24">d</tspan><tspan class="infographic_3_cls-67" x="161.44" y="24">e</tspan><tspan x="172.3" y="24">, </tspan><tspan class="infographic_3_cls-69" x="182.92" y="24">o</tspan><tspan class="infographic_3_cls-25" x="194.4" y="24">t</tspan><tspan x="202.54" y="24">her </tspan><tspan class="infographic_3_cls-73" x="26.83" y="48">c</tspan><tspan x="37.49" y="48">us</tspan><tspan class="infographic_3_cls-59" x="58.45" y="48">t</tspan><tspan class="infographic_3_cls-25" x="66.35" y="48">o</tspan><tspan x="78.03" y="48">mer </tspan><tspan class="infographic_3_cls-27" x="117.95" y="48">b</tspan><tspan x="130.07" y="48">i</tspan><tspan class="infographic_3_cls-66" x="135.13" y="48">l</tspan><tspan x="140.87" y="48">ls st</tspan><tspan class="infographic_3_cls-56" x="179.39" y="48">a</tspan><tspan x="189.71" y="48">y </tspan><tspan class="infographic_3_cls-51" x="205.41" y="48">p</tspan><tspan class="infographic_3_cls-82" x="217.59" y="48">u</tspan><tspan x="228.97" y="48">t</tspan></text>
      <polyline class="infographic_3_cls-5" points="1134.66 414.23 1142.66 422.23 1134.66 430.23"/>
    </g>
    <g id="Layer_90" data-name="Layer 90">
      <g>
        <path class="infographic_3_cls-72" d="M69.96,89.27h-5.06v5.76h-3.3v-14h3.3v5.14h5.06v-5.14h3.3v14h-3.3v-5.76Z"/>
        <path class="infographic_3_cls-72" d="M75.38,90.03c0-3.2,2.2-5.32,5.34-5.32s5.34,2.12,5.34,5.32-2.2,5.32-5.34,5.32-5.34-2.12-5.34-5.32ZM80.72,92.45c1.22,0,2.04-.98,2.04-2.42s-.82-2.42-2.04-2.42-2.04.98-2.04,2.42.82,2.42,2.04,2.42Z"/>
        <path class="infographic_3_cls-72" d="M88,85.03h2.8v.84c.6-.84,1.4-1.16,2.42-1.16,1.18,0,2.08.52,2.6,1.44.76-1.02,1.7-1.44,2.76-1.44,2.34,0,3.74,1.52,3.74,4.1v6.22h-3.2v-5.98c0-.94-.4-1.44-1.18-1.44s-1.18.58-1.18,1.54v5.88h-3.2v-5.98c0-.94-.4-1.44-1.18-1.44-.74,0-1.18.58-1.18,1.54v5.88h-3.2v-10Z"/>
        <path class="infographic_3_cls-72" d="M104.12,89.97c0-3.18,2.04-5.26,5.04-5.26s5.02,2.02,5.02,5.26c0,.4-.02.82-.06,1.22h-6.86c.14,1,.84,1.52,2,1.52.8,0,1.28-.32,1.46-.7h3.3c-.58,2-2.12,3.34-4.78,3.34-3.1,0-5.12-2.16-5.12-5.38ZM110.96,88.79c0-.94-.6-1.56-1.8-1.56s-1.84.6-1.92,1.56h3.72Z"/>
        <path class="infographic_3_cls-72" d="M120.92,81.03h3.32v2.72h-3.32v-2.72ZM120.98,85.03h3.2v10h-3.2v-10Z"/>
        <path class="infographic_3_cls-72" d="M126.66,85.03h2.8v.88c.56-.78,1.6-1.2,2.66-1.2,2.46,0,3.98,1.62,3.98,4.22v6.1h-3.2v-5.74c0-1.12-.48-1.68-1.46-1.68s-1.58.66-1.58,1.78v5.64h-3.2v-10Z"/>
        <path class="infographic_3_cls-72" d="M137.68,92.01h3.3c.08.58.6.8,1.44.8.72,0,1.18-.28,1.18-.74,0-.4-.38-.58-1-.64l-1.56-.16c-1.88-.2-3.04-1.42-3.04-3.16,0-2.12,1.64-3.4,4.28-3.4s4.28,1.06,4.42,3.3h-3.16c-.02-.56-.56-.76-1.3-.76-.7,0-1.14.24-1.14.66,0,.38.38.6,1.08.68l1.62.18c1.86.2,3,1.42,3,3.12,0,2.12-1.74,3.46-4.52,3.46s-4.5-1.14-4.6-3.34Z"/>
        <path class="infographic_3_cls-72" d="M149.98,92.27v-4.44h-2.44v-2.8h2.44v-2.86h3.2v2.86h2.92v2.8h-2.92v3.62c0,.52.2.78.78.78h2.14v2.8h-3.36c-1.88,0-2.76-.76-2.76-2.76Z"/>
        <path class="infographic_3_cls-72" d="M157.14,92.13c0-1.94,1.24-3.2,3.68-3.36l2.34-.14v-.4c0-.66-.34-.94-1.18-.94s-1.14.24-1.2.72h-3.16c.18-2.06,1.58-3.3,4.58-3.3,2.48,0,3.98,1.24,3.98,3.32v4.24c0,.16.08.24.24.24h.92v2.52h-2.22c-.64,0-1.08-.32-1.18-.86-.56.72-1.62,1.18-2.92,1.18-2.36,0-3.88-1.22-3.88-3.22ZM161.48,92.77c.88,0,1.68-.44,1.68-1.42v-.38l-1.8.18c-.68.06-1.04.44-1.04.86,0,.48.38.76,1.16.76Z"/>
        <path class="infographic_3_cls-72" d="M168.98,92.87v-11.84h3.2v10.62c0,.4.16.58.58.58h1.04v2.8h-2.46c-1.62,0-2.36-.6-2.36-2.16Z"/>
        <path class="infographic_3_cls-72" d="M175.38,92.87v-11.84h3.2v10.62c0,.4.16.58.58.58h1.04v2.8h-2.46c-1.62,0-2.36-.6-2.36-2.16Z"/>
        <path class="infographic_3_cls-72" d="M181.08,92.01h3.3c.08.58.6.8,1.44.8.72,0,1.18-.28,1.18-.74,0-.4-.38-.58-1-.64l-1.56-.16c-1.88-.2-3.04-1.42-3.04-3.16,0-2.12,1.64-3.4,4.28-3.4s4.28,1.06,4.42,3.3h-3.16c-.02-.56-.56-.76-1.3-.76-.7,0-1.14.24-1.14.66,0,.38.38.6,1.08.68l1.62.18c1.86.2,3,1.42,3,3.12,0,2.12-1.74,3.46-4.52,3.46s-4.5-1.14-4.6-3.34Z"/>
        <path class="infographic_3_cls-32" d="M61.3,105.03h3.2v4.46c.58-.5,1.4-.78,2.26-.78,2.46,0,3.98,1.62,3.98,4.22v6.1h-3.2v-5.74c0-1.12-.48-1.68-1.46-1.68s-1.58.66-1.58,1.78v5.64h-3.2v-14Z"/>
        <path class="infographic_3_cls-32" d="M72.54,113.97c0-3.18,2.04-5.26,5.04-5.26s5.02,2.02,5.02,5.26c0,.4-.02.82-.06,1.22h-6.86c.14,1,.84,1.52,2,1.52.8,0,1.28-.32,1.46-.7h3.3c-.58,2-2.12,3.34-4.78,3.34-3.1,0-5.12-2.16-5.12-5.38ZM79.38,112.79c0-.94-.6-1.56-1.8-1.56s-1.84.6-1.92,1.56h3.72Z"/>
        <path class="infographic_3_cls-32" d="M83.74,116.13c0-1.94,1.24-3.2,3.68-3.36l2.34-.14v-.4c0-.66-.34-.94-1.18-.94s-1.14.24-1.2.72h-3.16c.18-2.06,1.58-3.3,4.58-3.3,2.48,0,3.98,1.24,3.98,3.32v4.24c0,.16.08.24.24.24h.92v2.52h-2.22c-.64,0-1.08-.32-1.18-.86-.56.72-1.62,1.18-2.92,1.18-2.36,0-3.88-1.22-3.88-3.22ZM88.08,116.77c.88,0,1.68-.44,1.68-1.42v-.38l-1.8.18c-.68.06-1.04.44-1.04.86,0,.48.38.76,1.16.76Z"/>
        <path class="infographic_3_cls-32" d="M96.5,116.27v-4.44h-2.44v-2.8h2.44v-2.86h3.2v2.86h2.92v2.8h-2.92v3.62c0,.52.2.78.78.78h2.14v2.8h-3.36c-1.88,0-2.76-.76-2.76-2.76Z"/>
        <path class="infographic_3_cls-32" d="M109.32,109.03h2.8v.78c.64-.7,1.76-1.1,2.94-1.1,2.86,0,4.8,2.12,4.8,5.32s-1.94,5.32-4.8,5.32c-.98,0-1.96-.32-2.54-.9v4.18h-3.2v-13.6ZM114.52,116.45c1.22,0,2.04-.98,2.04-2.42s-.82-2.42-2.04-2.42-2.04.98-2.04,2.42.82,2.42,2.04,2.42Z"/>
        <path class="infographic_3_cls-32" d="M121.66,115.13v-6.1h3.2v5.74c0,1.12.46,1.68,1.42,1.68s1.54-.66,1.54-1.78v-5.64h3.2v10h-2.8v-.68c-.64.66-1.62,1-2.62,1-2.44,0-3.94-1.62-3.94-4.22Z"/>
        <path class="infographic_3_cls-32" d="M133.42,109.03h2.8v.84c.6-.84,1.4-1.16,2.42-1.16,1.18,0,2.08.52,2.6,1.44.76-1.02,1.7-1.44,2.76-1.44,2.34,0,3.74,1.52,3.74,4.1v6.22h-3.2v-5.98c0-.94-.4-1.44-1.18-1.44s-1.18.58-1.18,1.54v5.88h-3.2v-5.98c0-.94-.4-1.44-1.18-1.44s-1.18.58-1.18,1.54v5.88h-3.2v-10Z"/>
        <path class="infographic_3_cls-32" d="M150.08,109.03h2.8v.78c.64-.7,1.76-1.1,2.94-1.1,2.86,0,4.8,2.12,4.8,5.32s-1.94,5.32-4.8,5.32c-.98,0-1.96-.32-2.54-.9v4.18h-3.2v-13.6ZM155.28,116.45c1.22,0,2.04-.98,2.04-2.42s-.82-2.42-2.04-2.42-2.04.98-2.04,2.42.82,2.42,2.04,2.42Z"/>
        <path class="infographic_3_cls-32" d="M161.8,116.01h3.3c.08.58.6.8,1.44.8.72,0,1.18-.28,1.18-.74,0-.4-.38-.58-1-.64l-1.56-.16c-1.88-.2-3.04-1.42-3.04-3.16,0-2.12,1.64-3.4,4.28-3.4s4.28,1.06,4.42,3.3h-3.16c-.02-.56-.56-.76-1.3-.76-.7,0-1.14.24-1.14.66,0,.38.38.6,1.08.68l1.62.18c1.86.2,3,1.42,3,3.12,0,2.12-1.74,3.46-4.52,3.46s-4.5-1.14-4.6-3.34Z"/>
        <path class="infographic_3_cls-72" d="M172.76,120.37h1.46c.24,0,.34-.06.34-.22v-1.12h-1.8v-3.58h3.64v4.72c0,1.44-.76,2.08-1.98,2.08h-1.66v-1.88Z"/>
        <path class="infographic_3_cls-72" d="M183.04,116.13c0-1.94,1.24-3.2,3.68-3.36l2.34-.14v-.4c0-.66-.34-.94-1.18-.94s-1.14.24-1.2.72h-3.16c.18-2.06,1.58-3.3,4.58-3.3,2.48,0,3.98,1.24,3.98,3.32v4.24c0,.16.08.24.24.24h.92v2.52h-2.22c-.64,0-1.08-.32-1.18-.86-.56.72-1.62,1.18-2.92,1.18-2.36,0-3.88-1.22-3.88-3.22ZM187.38,116.77c.88,0,1.68-.44,1.68-1.42v-.38l-1.8.18c-.68.06-1.04.44-1.04.86,0,.48.38.76,1.16.76Z"/>
        <path class="infographic_3_cls-72" d="M194.28,114.03c0-3.2,1.94-5.32,4.8-5.32.98,0,1.96.32,2.54.9v-4.58h3.2v14h-2.8v-.78c-.64.7-1.76,1.1-2.94,1.1-2.86,0-4.8-2.12-4.8-5.32ZM199.62,116.45c1.22,0,2.04-.98,2.04-2.42s-.82-2.42-2.04-2.42-2.04.98-2.04,2.42.82,2.42,2.04,2.42Z"/>
        <path class="infographic_3_cls-72" d="M206.78,114.03c0-3.2,1.94-5.32,4.8-5.32.98,0,1.96.32,2.54.9v-4.58h3.2v14h-2.8v-.78c-.64.7-1.76,1.1-2.94,1.1-2.86,0-4.8-2.12-4.8-5.32ZM212.12,116.45c1.22,0,2.04-.98,2.04-2.42s-.82-2.42-2.04-2.42-2.04.98-2.04,2.42.82,2.42,2.04,2.42Z"/>
        <path class="infographic_3_cls-72" d="M219.86,105.03h3.32v2.72h-3.32v-2.72ZM219.92,109.03h3.2v10h-3.2v-10Z"/>
        <path class="infographic_3_cls-72" d="M227.02,116.27v-4.44h-2.44v-2.8h2.44v-2.86h3.2v2.86h2.92v2.8h-2.92v3.62c0,.52.2.78.78.78h2.14v2.8h-3.36c-1.88,0-2.76-.76-2.76-2.76Z"/>
        <path class="infographic_3_cls-72" d="M234.88,105.03h3.32v2.72h-3.32v-2.72ZM234.94,109.03h3.2v10h-3.2v-10Z"/>
        <path class="infographic_3_cls-72" d="M240.04,114.03c0-3.2,2.2-5.32,5.34-5.32s5.34,2.12,5.34,5.32-2.2,5.32-5.34,5.32-5.34-2.12-5.34-5.32ZM245.38,116.45c1.22,0,2.04-.98,2.04-2.42s-.82-2.42-2.04-2.42-2.04.98-2.04,2.42.82,2.42,2.04,2.42Z"/>
        <path class="infographic_3_cls-72" d="M252.62,109.03h2.8v.88c.56-.78,1.6-1.2,2.66-1.2,2.46,0,3.98,1.62,3.98,4.22v6.1h-3.2v-5.74c0-1.12-.48-1.68-1.46-1.68s-1.58.66-1.58,1.78v5.64h-3.2v-10Z"/>
        <path class="infographic_3_cls-72" d="M263.7,116.13c0-1.94,1.24-3.2,3.68-3.36l2.34-.14v-.4c0-.66-.34-.94-1.18-.94s-1.14.24-1.2.72h-3.16c.18-2.06,1.58-3.3,4.58-3.3,2.48,0,3.98,1.24,3.98,3.32v4.24c0,.16.08.24.24.24h.92v2.52h-2.22c-.64,0-1.08-.32-1.18-.86-.56.72-1.62,1.18-2.92,1.18-2.36,0-3.88-1.22-3.88-3.22ZM268.04,116.77c.88,0,1.68-.44,1.68-1.42v-.38l-1.8.18c-.68.06-1.04.44-1.04.86,0,.48.38.76,1.16.76Z"/>
        <path class="infographic_3_cls-72" d="M275.54,116.87v-11.84h3.2v10.62c0,.4.16.58.58.58h1.04v2.8h-2.46c-1.62,0-2.36-.6-2.36-2.16Z"/>
        <path class="infographic_3_cls-72" d="M60.3,144.05c0-.8.4-1.52,1.2-1.98-.52-.4-.82-.98-.82-1.62,0-.74.38-1.56,1.52-1.98-.76-.6-1.14-1.44-1.14-2.34,0-1.88,1.46-3.42,4.2-3.42,1.54,0,2.98.74,3.48,1.84v-.26c0-1.04.76-1.26,1.3-1.26h1.5v2.8h-1.78c-.14,0-.3.1-.3.36v.22c0,2.16-1.7,3.42-4,3.42h-1.54c-.36,0-.54.18-.54.46s.18.48.54.48h3.32c2.26,0,3.42,1.06,3.42,2.76s-.98,3.1-3.42,3.1h-3.72c-2.34,0-3.22-1.26-3.22-2.58ZM64,144.29h2.98c.4,0,.68-.24.68-.6s-.28-.58-.68-.58h-2.98c-.42,0-.7.2-.7.58s.28.6.7.6ZM65.26,137.43c.74,0,1.22-.46,1.22-1.16s-.5-1.16-1.22-1.16-1.22.46-1.22,1.16.5,1.16,1.22,1.16Z"/>
        <path class="infographic_3_cls-72" d="M73.06,133.03h2.8v1.8c.26-1.18,1.1-1.8,2.4-1.8h1.72v2.8h-2.12c-1.08,0-1.6.48-1.6,1.52v5.68h-3.2v-10Z"/>
        <path class="infographic_3_cls-72" d="M81.32,129.03h3.32v2.72h-3.32v-2.72ZM81.38,133.03h3.2v10h-3.2v-10Z"/>
        <path class="infographic_3_cls-72" d="M86.58,138.03c0-3.2,1.94-5.32,4.8-5.32.98,0,1.96.32,2.54.9v-4.58h3.2v14h-2.8v-.78c-.64.7-1.76,1.1-2.94,1.1-2.86,0-4.8-2.12-4.8-5.32ZM91.92,140.45c1.22,0,2.04-.98,2.04-2.42s-.82-2.42-2.04-2.42-2.04.98-2.04,2.42.82,2.42,2.04,2.42Z"/>
        <path class="infographic_3_cls-72" d="M104.02,138.07c0-3.16,2.06-5.36,5.2-5.36,2.64,0,4.54,1.54,4.72,3.92h-3.24c-.12-.54-.64-1.02-1.52-1.02-1.16,0-1.86.9-1.86,2.44s.72,2.4,1.86,2.4c.86,0,1.44-.5,1.56-1.22h3.24c-.22,2.12-1.98,4.12-4.92,4.12-3.18,0-5.04-2.28-5.04-5.28Z"/>
        <path class="infographic_3_cls-72" d="M115,140.13c0-1.94,1.24-3.2,3.68-3.36l2.34-.14v-.4c0-.66-.34-.94-1.18-.94s-1.14.24-1.2.72h-3.16c.18-2.06,1.58-3.3,4.58-3.3,2.48,0,3.98,1.24,3.98,3.32v4.24c0,.16.08.24.24.24h.92v2.52h-2.22c-.64,0-1.08-.32-1.18-.86-.56.72-1.62,1.18-2.92,1.18-2.36,0-3.88-1.22-3.88-3.22ZM119.34,140.77c.88,0,1.68-.44,1.68-1.42v-.38l-1.8.18c-.68.06-1.04.44-1.04.86,0,.48.38.76,1.16.76Z"/>
        <path class="infographic_3_cls-72" d="M126.84,133.03h2.8v.78c.64-.7,1.76-1.1,2.94-1.1,2.86,0,4.8,2.12,4.8,5.32s-1.94,5.32-4.8,5.32c-.98,0-1.96-.32-2.54-.9v4.18h-3.2v-13.6ZM132.04,140.45c1.22,0,2.04-.98,2.04-2.42s-.82-2.42-2.04-2.42-2.04.98-2.04,2.42.82,2.42,2.04,2.42Z"/>
        <path class="infographic_3_cls-72" d="M138.62,140.13c0-1.94,1.24-3.2,3.68-3.36l2.34-.14v-.4c0-.66-.34-.94-1.18-.94s-1.14.24-1.2.72h-3.16c.18-2.06,1.58-3.3,4.58-3.3,2.48,0,3.98,1.24,3.98,3.32v4.24c0,.16.08.24.24.24h.92v2.52h-2.22c-.64,0-1.08-.32-1.18-.86-.56.72-1.62,1.18-2.92,1.18-2.36,0-3.88-1.22-3.88-3.22ZM142.96,140.77c.88,0,1.68-.44,1.68-1.42v-.38l-1.8.18c-.68.06-1.04.44-1.04.86,0,.48.38.76,1.16.76Z"/>
        <path class="infographic_3_cls-72" d="M149.86,138.07c0-3.16,2.06-5.36,5.2-5.36,2.64,0,4.54,1.54,4.72,3.92h-3.24c-.12-.54-.64-1.02-1.52-1.02-1.16,0-1.86.9-1.86,2.44s.72,2.4,1.86,2.4c.86,0,1.44-.5,1.56-1.22h3.24c-.22,2.12-1.98,4.12-4.92,4.12-3.18,0-5.04-2.28-5.04-5.28Z"/>
        <path class="infographic_3_cls-72" d="M161.3,129.03h3.32v2.72h-3.32v-2.72ZM161.36,133.03h3.2v10h-3.2v-10Z"/>
        <path class="infographic_3_cls-72" d="M168.46,140.27v-4.44h-2.44v-2.8h2.44v-2.86h3.2v2.86h2.92v2.8h-2.92v3.62c0,.52.2.78.78.78h2.14v2.8h-3.36c-1.88,0-2.76-.76-2.76-2.76Z"/>
        <path class="infographic_3_cls-72" d="M175.58,143.83h2.2c.46,0,.78-.22.94-.6l.48-1.06-4.02-9.14h3.64l2.06,5.44,2.06-5.44h3.56l-5.26,11.98c-.44,1.02-1.1,1.62-2.56,1.62h-3.1v-2.8Z"/>
        <path class="infographic_3_cls-72" d="M192.8,133.03h2.8v1.8c.26-1.18,1.1-1.8,2.4-1.8h1.72v2.8h-2.12c-1.08,0-1.6.48-1.6,1.52v5.68h-3.2v-10Z"/>
        <path class="infographic_3_cls-72" d="M200.22,137.97c0-3.18,2.04-5.26,5.04-5.26s5.02,2.02,5.02,5.26c0,.4-.02.82-.06,1.22h-6.86c.14,1,.84,1.52,2,1.52.8,0,1.28-.32,1.46-.7h3.3c-.58,2-2.12,3.34-4.78,3.34-3.1,0-5.12-2.16-5.12-5.38ZM207.06,136.79c0-.94-.6-1.56-1.8-1.56s-1.84.6-1.92,1.56h3.72Z"/>
        <path class="infographic_3_cls-72" d="M218.96,142.45c-.58.58-1.56.9-2.54.9-2.86,0-4.8-2.12-4.8-5.32s1.94-5.32,4.8-5.32c1.18,0,2.3.4,2.94,1.1v-.78h2.8v13.6h-3.2v-4.18ZM216.96,140.45c1.22,0,2.04-.98,2.04-2.42s-.82-2.42-2.04-2.42-2.04.98-2.04,2.42.82,2.42,2.04,2.42Z"/>
        <path class="infographic_3_cls-72" d="M224.48,139.13v-6.1h3.2v5.74c0,1.12.46,1.68,1.42,1.68s1.54-.66,1.54-1.78v-5.64h3.2v10h-2.8v-.68c-.64.66-1.62,1-2.62,1-2.44,0-3.94-1.62-3.94-4.22Z"/>
        <path class="infographic_3_cls-72" d="M236.18,129.03h3.32v2.72h-3.32v-2.72ZM236.24,133.03h3.2v10h-3.2v-10Z"/>
        <path class="infographic_3_cls-72" d="M241.92,133.03h2.8v1.8c.26-1.18,1.1-1.8,2.4-1.8h1.72v2.8h-2.12c-1.08,0-1.6.48-1.6,1.52v5.68h-3.2v-10Z"/>
        <path class="infographic_3_cls-72" d="M249.34,137.97c0-3.18,2.04-5.26,5.04-5.26s5.02,2.02,5.02,5.26c0,.4-.02.82-.06,1.22h-6.86c.14,1,.84,1.52,2,1.52.8,0,1.28-.32,1.46-.7h3.3c-.58,2-2.12,3.34-4.78,3.34-3.1,0-5.12-2.16-5.12-5.38ZM256.18,136.79c0-.94-.6-1.56-1.8-1.56s-1.84.6-1.92,1.56h3.72Z"/>
        <path class="infographic_3_cls-72" d="M260.74,138.03c0-3.2,1.94-5.32,4.8-5.32.98,0,1.96.32,2.54.9v-4.58h3.2v14h-2.8v-.78c-.64.7-1.76,1.1-2.94,1.1-2.86,0-4.8-2.12-4.8-5.32ZM266.08,140.45c1.22,0,2.04-.98,2.04-2.42s-.82-2.42-2.04-2.42-2.04.98-2.04,2.42.82,2.42,2.04,2.42Z"/>
      </g>
      <text class="infographic_3_cls-24" transform="translate(739.67 260.3)"><tspan class="infographic_3_cls-64" x="0" y="0">P</tspan><tspan class="infographic_3_cls-77" x="12.48" y="0">o</tspan><tspan class="infographic_3_cls-68" x="24.14" y="0">l</tspan><tspan x="29.76" y="0">es and w</tspan><tspan class="infographic_3_cls-67" x="110.54" y="0">i</tspan><tspan class="infographic_3_cls-64" x="115.5" y="0">r</tspan><tspan x="122.5" y="0">es</tspan><tspan class="infographic_3_cls-64" x="0" y="24">r</tspan><tspan class="infographic_3_cls-47" x="7" y="24">e</tspan><tspan x="17.98" y="24">q</tspan><tspan class="infographic_3_cls-77" x="30.12" y="24">u</tspan><tspan class="infographic_3_cls-67" x="41.32" y="24">i</tspan><tspan class="infographic_3_cls-64" x="46.28" y="24">r</tspan><tspan x="53.28" y="24">e </tspan><tspan class="infographic_3_cls-25" x="69.34" y="24">u</tspan><tspan class="infographic_3_cls-50" x="80.56" y="24">pg</tspan><tspan class="infographic_3_cls-58" x="103.88" y="24">r</tspan><tspan x="111.02" y="24">a</tspan><tspan class="infographic_3_cls-27" x="121.64" y="24">d</tspan><tspan x="133.76" y="24">e</tspan></text>
      <text class="infographic_3_cls-31" transform="translate(660.75 141.38)"><tspan class="infographic_3_cls-65" x="0" y="0">H</tspan><tspan x="14.46" y="0">e</tspan><tspan class="infographic_3_cls-70" x="25.42" y="0">a</tspan><tspan x="35.84" y="0">t </tspan><tspan class="infographic_3_cls-51" x="49.12" y="0">p</tspan><tspan class="infographic_3_cls-77" x="61.3" y="0">u</tspan><tspan class="infographic_3_cls-27" x="72.5" y="0">m</tspan><tspan x="88.82" y="0">p </tspan><tspan class="infographic_3_cls-20" x="0" y="24">c</tspan><tspan class="infographic_3_cls-21" x="10.66" y="24">us</tspan><tspan class="infographic_3_cls-22" x="31.62" y="24">t</tspan><tspan class="infographic_3_cls-18" x="39.52" y="24">o</tspan><tspan class="infographic_3_cls-21" x="51.2" y="24">mer p</tspan><tspan class="infographic_3_cls-23" x="103.26" y="24">a</tspan><tspan class="infographic_3_cls-19" x="113.58" y="24">y</tspan><tspan class="infographic_3_cls-21" x="124" y="24">s </tspan><tspan class="infographic_3_cls-49" x="138.8" y="24">2x</tspan><tspan class="infographic_3_cls-21" x="161.96" y="24"> </tspan><tspan class="infographic_3_cls-61" x="0" y="48">f</tspan><tspan class="infographic_3_cls-25" x="7.66" y="48">o</tspan><tspan x="19.34" y="48">r p</tspan><tspan class="infographic_3_cls-77" x="44.1" y="48">o</tspan><tspan class="infographic_3_cls-68" x="55.76" y="48">l</tspan><tspan x="61.38" y="48" xml:space="preserve">es  and w</tspan><tspan class="infographic_3_cls-67" x="147.26" y="48">i</tspan><tspan class="infographic_3_cls-64" x="152.22" y="48">r</tspan><tspan x="159.22" y="48">es</tspan></text>
      <line class="infographic_3_cls-6" x1="702.48" y1="285.46" x2="731.93" y2="261.3"/>
    </g>
  </g>
</svg>
