<svg xmlns:xlink="http://www.w3.org/1999/xlink" xmlns="http://www.w3.org/2000/svg" width="854.527347pt" height="1230.912pt" viewBox="0 0 854.527347 1230.912" version="1.1">
 <metadata>
  <rdf:RDF xmlns:dc="http://purl.org/dc/elements/1.1/" xmlns:cc="http://creativecommons.org/ns#" xmlns:rdf="http://www.w3.org/1999/02/22-rdf-syntax-ns#">
   <cc:Work>
    <dc:type rdf:resource="http://purl.org/dc/dcmitype/StillImage"/>
    <dc:date>2026-04-11T12:31:00.665982</dc:date>
    <dc:format>image/svg+xml</dc:format>
    <dc:creator>
     <cc:Agent>
      <dc:title>Matplotlib v3.10.8, https://matplotlib.org/</dc:title>
     </cc:Agent>
    </dc:creator>
   </cc:Work>
  </rdf:RDF>
 </metadata>
 <defs>
  <style type="text/css">*{stroke-linejoin: round; stroke-linecap: butt}</style>
 </defs>
 <g id="figure_1">
  <g id="patch_1">
   <path d="M 0 1230.912  L 854.527347 1230.912  L 854.527347 0  L 0 0  z " style="fill: #ffffff"/>
  </g>
  <g id="axes_1">
   <g id="patch_2">
    <path d="M 21.386097 1223.712  L 768.386097 1223.712  L 768.386097 32.544  L 21.386097 32.544  z " style="fill: #ffffff"/>
   </g>
   <g id="patch_3">
    <path d="M 21.386097 93.194102  L 21.386097 93.194102  L 21.386097 120.486648  L 21.386097 120.486648  z " clip-path="url(#p5d226d633c)" style="fill: #b71c1c"/>
   </g>
   <g id="patch_4">
    <path d="M 21.386097 93.194102  L 21.386097 93.194102  L 21.386097 120.486648  L 21.386097 120.486648  z " clip-path="url(#p5d226d633c)" style="fill: #ef9a9a"/>
   </g>
   <g id="patch_5">
    <path d="M 21.386097 93.194102  L 240.47502 93.194102  L 240.47502 120.486648  L 21.386097 120.486648  z " clip-path="url(#p5d226d633c)" style="fill: #81c784"/>
   </g>
   <g id="patch_6">
    <path d="M 240.47502 93.194102  L 768.386097 93.194102  L 768.386097 120.486648  L 240.47502 120.486648  z " clip-path="url(#p5d226d633c)" style="fill: #1b5e20"/>
   </g>
   <g id="patch_7">
    <path d="M 21.386097 127.76466  L 21.386097 127.76466  L 21.386097 155.057206  L 21.386097 155.057206  z " clip-path="url(#p5d226d633c)" style="fill: #b71c1c"/>
   </g>
   <g id="patch_8">
    <path d="M 21.386097 127.76466  L 21.386097 127.76466  L 21.386097 155.057206  L 21.386097 155.057206  z " clip-path="url(#p5d226d633c)" style="fill: #ef9a9a"/>
   </g>
   <g id="patch_9">
    <path d="M 21.386097 127.76466  L 182.789373 127.76466  L 182.789373 155.057206  L 21.386097 155.057206  z " clip-path="url(#p5d226d633c)" style="fill: #81c784"/>
   </g>
   <g id="patch_10">
    <path d="M 182.789373 127.76466  L 768.386097 127.76466  L 768.386097 155.057206  L 182.789373 155.057206  z " clip-path="url(#p5d226d633c)" style="fill: #1b5e20"/>
   </g>
   <g id="patch_11">
    <path d="M 21.386097 270.292399  L 21.386097 270.292399  L 21.386097 297.584945  L 21.386097 297.584945  z " clip-path="url(#p5d226d633c)" style="fill: #b71c1c"/>
   </g>
   <g id="patch_12">
    <path d="M 21.386097 270.292399  L 21.386097 270.292399  L 21.386097 297.584945  L 21.386097 297.584945  z " clip-path="url(#p5d226d633c)" style="fill: #ef9a9a"/>
   </g>
   <g id="patch_13">
    <path d="M 21.386097 270.292399  L 151.597106 270.292399  L 151.597106 297.584945  L 21.386097 297.584945  z " clip-path="url(#p5d226d633c)" style="fill: #81c784"/>
   </g>
   <g id="patch_14">
    <path d="M 151.597106 270.292399  L 768.386097 270.292399  L 768.386097 297.584945  L 151.597106 297.584945  z " clip-path="url(#p5d226d633c)" style="fill: #1b5e20"/>
   </g>
   <g id="patch_15">
    <path d="M 21.386097 304.862957  L 21.386097 304.862957  L 21.386097 332.155503  L 21.386097 332.155503  z " clip-path="url(#p5d226d633c)" style="fill: #b71c1c"/>
   </g>
   <g id="patch_16">
    <path d="M 21.386097 304.862957  L 21.386097 304.862957  L 21.386097 332.155503  L 21.386097 332.155503  z " clip-path="url(#p5d226d633c)" style="fill: #ef9a9a"/>
   </g>
   <g id="patch_17">
    <path d="M 21.386097 304.862957  L 137.890684 304.862957  L 137.890684 332.155503  L 21.386097 332.155503  z " clip-path="url(#p5d226d633c)" style="fill: #81c784"/>
   </g>
   <g id="patch_18">
    <path d="M 137.890684 304.862957  L 768.386097 304.862957  L 768.386097 332.155503  L 137.890684 332.155503  z " clip-path="url(#p5d226d633c)" style="fill: #1b5e20"/>
   </g>
   <g id="patch_19">
    <path d="M 21.386097 447.390697  L 21.386097 447.390697  L 21.386097 474.683242  L 21.386097 474.683242  z " clip-path="url(#p5d226d633c)" style="fill: #b71c1c"/>
   </g>
   <g id="patch_20">
    <path d="M 21.386097 447.390697  L 25.843897 447.390697  L 25.843897 474.683242  L 21.386097 474.683242  z " clip-path="url(#p5d226d633c)" style="fill: #ef9a9a"/>
   </g>
   <g id="patch_21">
    <path d="M 25.843897 447.390697  L 341.074076 447.390697  L 341.074076 474.683242  L 25.843897 474.683242  z " clip-path="url(#p5d226d633c)" style="fill: #81c784"/>
   </g>
   <g id="patch_22">
    <path d="M 341.074076 447.390697  L 768.386097 447.390697  L 768.386097 474.683242  L 341.074076 474.683242  z " clip-path="url(#p5d226d633c)" style="fill: #1b5e20"/>
   </g>
   <g id="patch_23">
    <path d="M 21.386097 481.961255  L 21.386097 481.961255  L 21.386097 509.2538  L 21.386097 509.2538  z " clip-path="url(#p5d226d633c)" style="fill: #b71c1c"/>
   </g>
   <g id="patch_24">
    <path d="M 21.386097 481.961255  L 22.659754 481.961255  L 22.659754 509.2538  L 21.386097 509.2538  z " clip-path="url(#p5d226d633c)" style="fill: #ef9a9a"/>
   </g>
   <g id="patch_25">
    <path d="M 22.659754 481.961255  L 251.281238 481.961255  L 251.281238 509.2538  L 22.659754 509.2538  z " clip-path="url(#p5d226d633c)" style="fill: #81c784"/>
   </g>
   <g id="patch_26">
    <path d="M 251.281238 481.961255  L 768.386097 481.961255  L 768.386097 509.2538  L 251.281238 509.2538  z " clip-path="url(#p5d226d633c)" style="fill: #1b5e20"/>
   </g>
   <g id="patch_27">
    <path d="M 21.386097 624.488994  L 21.386097 624.488994  L 21.386097 651.78154  L 21.386097 651.78154  z " clip-path="url(#p5d226d633c)" style="fill: #b71c1c"/>
   </g>
   <g id="patch_28">
    <path d="M 21.386097 624.488994  L 37.901403 624.488994  L 37.901403 651.78154  L 21.386097 651.78154  z " clip-path="url(#p5d226d633c)" style="fill: #ef9a9a"/>
   </g>
   <g id="patch_29">
    <path d="M 37.901403 624.488994  L 422.835077 624.488994  L 422.835077 651.78154  L 37.901403 651.78154  z " clip-path="url(#p5d226d633c)" style="fill: #81c784"/>
   </g>
   <g id="patch_30">
    <path d="M 422.835077 624.488994  L 768.386097 624.488994  L 768.386097 651.78154  L 422.835077 651.78154  z " clip-path="url(#p5d226d633c)" style="fill: #1b5e20"/>
   </g>
   <g id="patch_31">
    <path d="M 21.386097 659.059552  L 21.386097 659.059552  L 21.386097 686.352098  L 21.386097 686.352098  z " clip-path="url(#p5d226d633c)" style="fill: #b71c1c"/>
   </g>
   <g id="patch_32">
    <path d="M 21.386097 659.059552  L 26.46773 659.059552  L 26.46773 686.352098  L 21.386097 686.352098  z " clip-path="url(#p5d226d633c)" style="fill: #ef9a9a"/>
   </g>
   <g id="patch_33">
    <path d="M 26.46773 659.059552  L 280.549362 659.059552  L 280.549362 686.352098  L 26.46773 686.352098  z " clip-path="url(#p5d226d633c)" style="fill: #81c784"/>
   </g>
   <g id="patch_34">
    <path d="M 280.549362 659.059552  L 768.386097 659.059552  L 768.386097 686.352098  L 280.549362 686.352098  z " clip-path="url(#p5d226d633c)" style="fill: #1b5e20"/>
   </g>
   <g id="patch_35">
    <path d="M 21.386097 801.587291  L 21.386097 801.587291  L 21.386097 828.879837  L 21.386097 828.879837  z " clip-path="url(#p5d226d633c)" style="fill: #b71c1c"/>
   </g>
   <g id="patch_36">
    <path d="M 21.386097 801.587291  L 21.386097 801.587291  L 21.386097 828.879837  L 21.386097 828.879837  z " clip-path="url(#p5d226d633c)" style="fill: #ef9a9a"/>
   </g>
   <g id="patch_37">
    <path d="M 21.386097 801.587291  L 331.543992 801.587291  L 331.543992 828.879837  L 21.386097 828.879837  z " clip-path="url(#p5d226d633c)" style="fill: #81c784"/>
   </g>
   <g id="patch_38">
    <path d="M 331.543992 801.587291  L 768.386097 801.587291  L 768.386097 828.879837  L 331.543992 828.879837  z " clip-path="url(#p5d226d633c)" style="fill: #1b5e20"/>
   </g>
   <g id="patch_39">
    <path d="M 21.386097 836.157849  L 21.386097 836.157849  L 21.386097 863.450395  L 21.386097 863.450395  z " clip-path="url(#p5d226d633c)" style="fill: #b71c1c"/>
   </g>
   <g id="patch_40">
    <path d="M 21.386097 836.157849  L 21.386097 836.157849  L 21.386097 863.450395  L 21.386097 863.450395  z " clip-path="url(#p5d226d633c)" style="fill: #ef9a9a"/>
   </g>
   <g id="patch_41">
    <path d="M 21.386097 836.157849  L 209.228202 836.157849  L 209.228202 863.450395  L 21.386097 863.450395  z " clip-path="url(#p5d226d633c)" style="fill: #81c784"/>
   </g>
   <g id="patch_42">
    <path d="M 209.228202 836.157849  L 768.386097 836.157849  L 768.386097 863.450395  L 209.228202 863.450395  z " clip-path="url(#p5d226d633c)" style="fill: #1b5e20"/>
   </g>
   <g id="patch_43">
    <path d="M 21.386097 978.685589  L 21.386097 978.685589  L 21.386097 1005.978134  L 21.386097 1005.978134  z " clip-path="url(#p5d226d633c)" style="fill: #b71c1c"/>
   </g>
   <g id="patch_44">
    <path d="M 21.386097 978.685589  L 92.112189 978.685589  L 92.112189 1005.978134  L 21.386097 1005.978134  z " clip-path="url(#p5d226d633c)" style="fill: #ef9a9a"/>
   </g>
   <g id="patch_45">
    <path d="M 92.112189 978.685589  L 664.071024 978.685589  L 664.071024 1005.978134  L 92.112189 1005.978134  z " clip-path="url(#p5d226d633c)" style="fill: #81c784"/>
   </g>
   <g id="patch_46">
    <path d="M 664.071024 978.685589  L 768.386097 978.685589  L 768.386097 1005.978134  L 664.071024 1005.978134  z " clip-path="url(#p5d226d633c)" style="fill: #1b5e20"/>
   </g>
   <g id="patch_47">
    <path d="M 21.386097 1013.256147  L 21.386097 1013.256147  L 21.386097 1040.548692  L 21.386097 1040.548692  z " clip-path="url(#p5d226d633c)" style="fill: #b71c1c"/>
   </g>
   <g id="patch_48">
    <path d="M 21.386097 1013.256147  L 54.265451 1013.256147  L 54.265451 1040.548692  L 21.386097 1040.548692  z " clip-path="url(#p5d226d633c)" style="fill: #ef9a9a"/>
   </g>
   <g id="patch_49">
    <path d="M 54.265451 1013.256147  L 597.366148 1013.256147  L 597.366148 1040.548692  L 54.265451 1040.548692  z " clip-path="url(#p5d226d633c)" style="fill: #81c784"/>
   </g>
   <g id="patch_50">
    <path d="M 597.366148 1013.256147  L 768.386097 1013.256147  L 768.386097 1040.548692  L 597.366148 1040.548692  z " clip-path="url(#p5d226d633c)" style="fill: #1b5e20"/>
   </g>
   <g id="patch_51">
    <path d="M 21.386097 1155.783886  L 21.386097 1155.783886  L 21.386097 1183.076432  L 21.386097 1183.076432  z " clip-path="url(#p5d226d633c)" style="fill: #b71c1c"/>
   </g>
   <g id="patch_52">
    <path d="M 21.386097 1155.783886  L 24.988991 1155.783886  L 24.988991 1183.076432  L 21.386097 1183.076432  z " clip-path="url(#p5d226d633c)" style="fill: #ef9a9a"/>
   </g>
   <g id="patch_53">
    <path d="M 24.988991 1155.783886  L 245.16584 1155.783886  L 245.16584 1183.076432  L 24.988991 1183.076432  z " clip-path="url(#p5d226d633c)" style="fill: #81c784"/>
   </g>
   <g id="patch_54">
    <path d="M 245.16584 1155.783886  L 768.386097 1155.783886  L 768.386097 1183.076432  L 245.16584 1183.076432  z " clip-path="url(#p5d226d633c)" style="fill: #1b5e20"/>
   </g>
   <g id="patch_55">
    <path d="M 21.386097 1190.354444  L 21.386097 1190.354444  L 21.386097 1217.64699  L 21.386097 1217.64699  z " clip-path="url(#p5d226d633c)" style="fill: #b71c1c"/>
   </g>
   <g id="patch_56">
    <path d="M 21.386097 1190.354444  L 22.18674 1190.354444  L 22.18674 1217.64699  L 21.386097 1217.64699  z " clip-path="url(#p5d226d633c)" style="fill: #ef9a9a"/>
   </g>
   <g id="patch_57">
    <path d="M 22.18674 1190.354444  L 156.294457 1190.354444  L 156.294457 1217.64699  L 22.18674 1217.64699  z " clip-path="url(#p5d226d633c)" style="fill: #81c784"/>
   </g>
   <g id="patch_58">
    <path d="M 156.294457 1190.354444  L 768.386097 1190.354444  L 768.386097 1217.64699  L 156.294457 1217.64699  z " clip-path="url(#p5d226d633c)" style="fill: #1b5e20"/>
   </g>
   <g id="matplotlib.axis_1"/>
   <g id="matplotlib.axis_2"/>
   <g id="text_1">
    <text style="font-weight: 700; font-size: 10px; font-family: 'IBM Plex Sans'; text-anchor: middle; fill: #ffffff" x="130.930559" y="109.540375" transform="rotate(-0 130.930559 109.540375)">29.3%</text>
   </g>
   <g id="text_2">
    <text style="font-weight: 700; font-size: 10px; font-family: 'IBM Plex Sans'; text-anchor: middle; fill: #ffffff" x="504.430559" y="109.540375" transform="rotate(-0 504.430559 109.540375)">70.7%</text>
   </g>
   <g id="text_3">
    <text style="font-weight: 700; font-size: 10px; font-family: 'IBM Plex Sans'; text-anchor: middle; fill: #ffffff" x="102.087735" y="144.110933" transform="rotate(-0 102.087735 144.110933)">21.6%</text>
   </g>
   <g id="text_4">
    <text style="font-weight: 700; font-size: 10px; font-family: 'IBM Plex Sans'; text-anchor: middle; fill: #ffffff" x="475.587735" y="144.110933" transform="rotate(-0 475.587735 144.110933)">78.4%</text>
   </g>
   <g id="text_5">
    <text style="font-weight: 700; font-size: 10px; font-family: 'IBM Plex Sans'; text-anchor: middle; fill: #ffffff" x="86.491602" y="286.638672" transform="rotate(-0 86.491602 286.638672)">17.4%</text>
   </g>
   <g id="text_6">
    <text style="font-weight: 700; font-size: 10px; font-family: 'IBM Plex Sans'; text-anchor: middle; fill: #ffffff" x="459.991602" y="286.638672" transform="rotate(-0 459.991602 286.638672)">82.6%</text>
   </g>
   <g id="text_7">
    <text style="font-weight: 700; font-size: 10px; font-family: 'IBM Plex Sans'; text-anchor: middle; fill: #ffffff" x="79.638391" y="321.20923" transform="rotate(-0 79.638391 321.20923)">15.6%</text>
   </g>
   <g id="text_8">
    <text style="font-weight: 700; font-size: 10px; font-family: 'IBM Plex Sans'; text-anchor: middle; fill: #ffffff" x="453.138391" y="321.20923" transform="rotate(-0 453.138391 321.20923)">84.4%</text>
   </g>
   <g id="text_9">
    <text style="font-weight: 700; font-size: 10px; font-family: 'IBM Plex Sans'; text-anchor: middle; fill: #ffffff" x="183.458987" y="463.736969" transform="rotate(-0 183.458987 463.736969)">42.2%</text>
   </g>
   <g id="text_10">
    <text style="font-weight: 700; font-size: 10px; font-family: 'IBM Plex Sans'; text-anchor: middle; fill: #ffffff" x="554.730087" y="463.736969" transform="rotate(-0 554.730087 463.736969)">57.2%</text>
   </g>
   <g id="text_11">
    <text style="font-weight: 700; font-size: 10px; font-family: 'IBM Plex Sans'; text-anchor: middle; fill: #ffffff" x="136.970496" y="498.307527" transform="rotate(-0 136.970496 498.307527)">30.6%</text>
   </g>
   <g id="text_12">
    <text style="font-weight: 700; font-size: 10px; font-family: 'IBM Plex Sans'; text-anchor: middle; fill: #ffffff" x="509.833667" y="498.307527" transform="rotate(-0 509.833667 498.307527)">69.2%</text>
   </g>
   <g id="text_13">
    <text style="font-weight: 700; font-size: 10px; font-family: 'IBM Plex Sans'; text-anchor: middle; fill: #ffffff" x="230.36824" y="640.835267" transform="rotate(-0 230.36824 640.835267)">51.5%</text>
   </g>
   <g id="text_14">
    <text style="font-weight: 700; font-size: 10px; font-family: 'IBM Plex Sans'; text-anchor: middle; fill: #ffffff" x="595.610587" y="640.835267" transform="rotate(-0 595.610587 640.835267)">46.3%</text>
   </g>
   <g id="text_15">
    <text style="font-weight: 700; font-size: 10px; font-family: 'IBM Plex Sans'; text-anchor: middle; fill: #ffffff" x="153.508546" y="675.405825" transform="rotate(-0 153.508546 675.405825)">34.0%</text>
   </g>
   <g id="text_16">
    <text style="font-weight: 700; font-size: 10px; font-family: 'IBM Plex Sans'; text-anchor: middle; fill: #ffffff" x="524.46773" y="675.405825" transform="rotate(-0 524.46773 675.405825)">65.3%</text>
   </g>
   <g id="text_17">
    <text style="font-weight: 700; font-size: 10px; font-family: 'IBM Plex Sans'; text-anchor: middle; fill: #ffffff" x="176.465044" y="817.933564" transform="rotate(-0 176.465044 817.933564)">41.5%</text>
   </g>
   <g id="text_18">
    <text style="font-weight: 700; font-size: 10px; font-family: 'IBM Plex Sans'; text-anchor: middle; fill: #ffffff" x="549.965044" y="817.933564" transform="rotate(-0 549.965044 817.933564)">58.5%</text>
   </g>
   <g id="text_19">
    <text style="font-weight: 700; font-size: 10px; font-family: 'IBM Plex Sans'; text-anchor: middle; fill: #ffffff" x="115.30715" y="852.504122" transform="rotate(-0 115.30715 852.504122)">25.1%</text>
   </g>
   <g id="text_20">
    <text style="font-weight: 700; font-size: 10px; font-family: 'IBM Plex Sans'; text-anchor: middle; fill: #ffffff" x="488.80715" y="852.504122" transform="rotate(-0 488.80715 852.504122)">74.9%</text>
   </g>
   <g id="text_21">
    <text style="font-weight: 700; font-size: 10px; font-family: 'IBM Plex Sans'; text-anchor: middle; fill: #ffffff" x="56.749143" y="995.031862" transform="rotate(-0 56.749143 995.031862)">9.5%</text>
   </g>
   <g id="text_22">
    <text style="font-weight: 700; font-size: 10px; font-family: 'IBM Plex Sans'; text-anchor: middle; fill: #ffffff" x="378.091607" y="995.031862" transform="rotate(-0 378.091607 995.031862)">76.6%</text>
   </g>
   <g id="text_23">
    <text style="font-weight: 700; font-size: 10px; font-family: 'IBM Plex Sans'; text-anchor: middle; fill: #ffffff" x="716.228561" y="995.031862" transform="rotate(-0 716.228561 995.031862)">14.0%</text>
   </g>
   <g id="text_24">
    <text style="font-weight: 700; font-size: 10px; font-family: 'IBM Plex Sans'; text-anchor: middle; fill: #ffffff" x="37.825774" y="1029.60242" transform="rotate(-0 37.825774 1029.60242)">4.4%</text>
   </g>
   <g id="text_25">
    <text style="font-weight: 700; font-size: 10px; font-family: 'IBM Plex Sans'; text-anchor: middle; fill: #ffffff" x="325.815799" y="1029.60242" transform="rotate(-0 325.815799 1029.60242)">72.7%</text>
   </g>
   <g id="text_26">
    <text style="font-weight: 700; font-size: 10px; font-family: 'IBM Plex Sans'; text-anchor: middle; fill: #ffffff" x="682.876122" y="1029.60242" transform="rotate(-0 682.876122 1029.60242)">22.9%</text>
   </g>
   <g id="text_27">
    <text style="font-weight: 700; font-size: 10px; font-family: 'IBM Plex Sans'; text-anchor: middle; fill: #ffffff" x="135.077415" y="1172.130159" transform="rotate(-0 135.077415 1172.130159)">29.5%</text>
   </g>
   <g id="text_28">
    <text style="font-weight: 700; font-size: 10px; font-family: 'IBM Plex Sans'; text-anchor: middle; fill: #ffffff" x="506.775968" y="1172.130159" transform="rotate(-0 506.775968 1172.130159)">70.0%</text>
   </g>
   <g id="text_29">
    <text style="font-weight: 700; font-size: 10px; font-family: 'IBM Plex Sans'; text-anchor: middle; fill: #ffffff" x="89.240599" y="1206.700717" transform="rotate(-0 89.240599 1206.700717)">18.0%</text>
   </g>
   <g id="text_30">
    <text style="font-weight: 700; font-size: 10px; font-family: 'IBM Plex Sans'; text-anchor: middle; fill: #ffffff" x="462.340277" y="1206.700717" transform="rotate(-0 462.340277 1206.700717)">81.9%</text>
   </g>
   <g id="text_31">
    <text style="font-weight: 700; font-size: 9px; font-family: 'IBM Plex Sans'; text-anchor: start" x="775.856097" y="109.270375" transform="rotate(-0 775.856097 109.270375)">Default rate</text>
   </g>
   <g id="text_32">
    <text style="font-weight: 700; font-size: 9px; font-family: 'IBM Plex Sans'; text-anchor: start" x="775.856097" y="143.840933" transform="rotate(-0 775.856097 143.840933)">HP seasonal rate</text>
   </g>
   <g id="text_33">
    <text style="font-weight: 700; font-size: 9px; font-family: 'IBM Plex Sans'; text-anchor: start" x="775.856097" y="286.368672" transform="rotate(-0 775.856097 286.368672)">Default rate</text>
   </g>
   <g id="text_34">
    <text style="font-weight: 700; font-size: 9px; font-family: 'IBM Plex Sans'; text-anchor: start" x="775.856097" y="320.93923" transform="rotate(-0 775.856097 320.93923)">HP seasonal rate</text>
   </g>
   <g id="text_35">
    <text style="font-weight: 700; font-size: 9px; font-family: 'IBM Plex Sans'; text-anchor: start" x="775.856097" y="463.466969" transform="rotate(-0 775.856097 463.466969)">Default rate</text>
   </g>
   <g id="text_36">
    <text style="font-weight: 700; font-size: 9px; font-family: 'IBM Plex Sans'; text-anchor: start" x="775.856097" y="498.037527" transform="rotate(-0 775.856097 498.037527)">HP seasonal rate</text>
   </g>
   <g id="text_37">
    <text style="font-weight: 700; font-size: 9px; font-family: 'IBM Plex Sans'; text-anchor: start" x="775.856097" y="640.565267" transform="rotate(-0 775.856097 640.565267)">Default rate</text>
   </g>
   <g id="text_38">
    <text style="font-weight: 700; font-size: 9px; font-family: 'IBM Plex Sans'; text-anchor: start" x="775.856097" y="675.135825" transform="rotate(-0 775.856097 675.135825)">HP seasonal rate</text>
   </g>
   <g id="text_39">
    <text style="font-weight: 700; font-size: 9px; font-family: 'IBM Plex Sans'; text-anchor: start" x="775.856097" y="817.663564" transform="rotate(-0 775.856097 817.663564)">Default rate</text>
   </g>
   <g id="text_40">
    <text style="font-weight: 700; font-size: 9px; font-family: 'IBM Plex Sans'; text-anchor: start" x="775.856097" y="852.234122" transform="rotate(-0 775.856097 852.234122)">HP seasonal rate</text>
   </g>
   <g id="text_41">
    <text style="font-weight: 700; font-size: 9px; font-family: 'IBM Plex Sans'; text-anchor: start" x="775.856097" y="994.761862" transform="rotate(-0 775.856097 994.761862)">Default rate</text>
   </g>
   <g id="text_42">
    <text style="font-weight: 700; font-size: 9px; font-family: 'IBM Plex Sans'; text-anchor: start" x="775.856097" y="1029.33242" transform="rotate(-0 775.856097 1029.33242)">HP seasonal rate</text>
   </g>
   <g id="text_43">
    <text style="font-weight: 700; font-size: 9px; font-family: 'IBM Plex Sans'; text-anchor: start" x="775.856097" y="1171.860159" transform="rotate(-0 775.856097 1171.860159)">Default rate</text>
   </g>
   <g id="text_44">
    <text style="font-weight: 700; font-size: 9px; font-family: 'IBM Plex Sans'; text-anchor: start" x="775.856097" y="1206.430717" transform="rotate(-0 775.856097 1206.430717)">HP seasonal rate</text>
   </g>
   <g id="text_45">
    <text style="font-weight: 700; font-size: 11px; font-family: 'GT Planar'; text-anchor: start; fill: #333333" x="21.386097" y="46.30901" transform="rotate(-0 21.386097 46.30901)">National Grid</text>
   </g>
   <g id="text_46">
    <text style="font-weight: 700; font-size: 11px; font-family: 'GT Planar'; text-anchor: start; fill: #333333" x="21.386097" y="223.407308" transform="rotate(-0 21.386097 223.407308)">RG&amp;E</text>
   </g>
   <g id="text_47">
    <text style="font-weight: 700; font-size: 11px; font-family: 'GT Planar'; text-anchor: start; fill: #333333" x="21.386097" y="400.505605" transform="rotate(-0 21.386097 400.505605)">NYSEG</text>
   </g>
   <g id="text_48">
    <text style="font-weight: 700; font-size: 11px; font-family: 'GT Planar'; text-anchor: start; fill: #333333" x="21.386097" y="577.603902" transform="rotate(-0 21.386097 577.603902)">Central Hudson</text>
   </g>
   <g id="text_49">
    <text style="font-weight: 700; font-size: 11px; font-family: 'GT Planar'; text-anchor: start; fill: #333333" x="21.386097" y="754.7022" transform="rotate(-0 21.386097 754.7022)">O&amp;R</text>
   </g>
   <g id="text_50">
    <text style="font-weight: 700; font-size: 11px; font-family: 'GT Planar'; text-anchor: start; fill: #333333" x="21.386097" y="931.800497" transform="rotate(-0 21.386097 931.800497)">Con Edison</text>
   </g>
   <g id="text_51">
    <text style="font-weight: 700; font-size: 11px; font-family: 'GT Planar'; text-anchor: start; fill: #333333" x="21.386097" y="1108.898794" transform="rotate(-0 21.386097 1108.898794)">PSEG-LI</text>
   </g>
   <g id="text_52">
    <text style="font-weight: 700; font-size: 8px; font-family: 'IBM Plex Sans'; text-anchor: middle; fill: #81c784" x="130.930559" y="70.366566" transform="rotate(-0 130.930559 70.366566)">SAVE $0-1K</text>
   </g>
   <g id="text_53">
    <text style="font-weight: 700; font-size: 8px; font-family: 'IBM Plex Sans'; text-anchor: middle; fill: #1b5e20" x="504.430559" y="70.366566" transform="rotate(-0 504.430559 70.366566)">SAVE &gt; $1K</text>
   </g>
   <g id="text_54">
    <text style="font-weight: 700; font-size: 8px; font-family: 'IBM Plex Sans'; text-anchor: middle; fill: #81c784" x="86.491602" y="247.464864" transform="rotate(-0 86.491602 247.464864)">SAVE $0-1K</text>
   </g>
   <g id="text_55">
    <text style="font-weight: 700; font-size: 8px; font-family: 'IBM Plex Sans'; text-anchor: middle; fill: #1b5e20" x="459.991602" y="247.464864" transform="rotate(-0 459.991602 247.464864)">SAVE &gt; $1K</text>
   </g>
   <g id="text_56">
    <text style="font-weight: 700; font-size: 8px; font-family: 'IBM Plex Sans'; text-anchor: middle; fill: #81c784" x="183.458987" y="424.563161" transform="rotate(-0 183.458987 424.563161)">SAVE $0-1K</text>
   </g>
   <g id="text_57">
    <text style="font-weight: 700; font-size: 8px; font-family: 'IBM Plex Sans'; text-anchor: middle; fill: #1b5e20" x="554.730087" y="424.563161" transform="rotate(-0 554.730087 424.563161)">SAVE &gt; $1K</text>
   </g>
   <g id="text_58">
    <text style="font-weight: 700; font-size: 8px; font-family: 'IBM Plex Sans'; text-anchor: middle; fill: #ef9a9a" x="29.64375" y="601.661458" transform="rotate(-0 29.64375 601.661458)">LOSE $0-1K</text>
   </g>
   <g id="text_59">
    <text style="font-weight: 700; font-size: 8px; font-family: 'IBM Plex Sans'; text-anchor: middle; fill: #81c784" x="230.36824" y="601.661458" transform="rotate(-0 230.36824 601.661458)">SAVE $0-1K</text>
   </g>
   <g id="text_60">
    <text style="font-weight: 700; font-size: 8px; font-family: 'IBM Plex Sans'; text-anchor: middle; fill: #1b5e20" x="595.610587" y="601.661458" transform="rotate(-0 595.610587 601.661458)">SAVE &gt; $1K</text>
   </g>
   <g id="text_61">
    <text style="font-weight: 700; font-size: 8px; font-family: 'IBM Plex Sans'; text-anchor: middle; fill: #81c784" x="176.465044" y="778.759756" transform="rotate(-0 176.465044 778.759756)">SAVE $0-1K</text>
   </g>
   <g id="text_62">
    <text style="font-weight: 700; font-size: 8px; font-family: 'IBM Plex Sans'; text-anchor: middle; fill: #1b5e20" x="549.965044" y="778.759756" transform="rotate(-0 549.965044 778.759756)">SAVE &gt; $1K</text>
   </g>
   <g id="text_63">
    <text style="font-weight: 700; font-size: 8px; font-family: 'IBM Plex Sans'; text-anchor: middle; fill: #ef9a9a" x="56.749143" y="955.858053" transform="rotate(-0 56.749143 955.858053)">LOSE $0-1K</text>
   </g>
   <g id="text_64">
    <text style="font-weight: 700; font-size: 8px; font-family: 'IBM Plex Sans'; text-anchor: middle; fill: #81c784" x="378.091607" y="955.858053" transform="rotate(-0 378.091607 955.858053)">SAVE $0-1K</text>
   </g>
   <g id="text_65">
    <text style="font-weight: 700; font-size: 8px; font-family: 'IBM Plex Sans'; text-anchor: middle; fill: #1b5e20" x="716.228561" y="955.858053" transform="rotate(-0 716.228561 955.858053)">SAVE &gt; $1K</text>
   </g>
   <g id="text_66">
    <text style="font-weight: 700; font-size: 8px; font-family: 'IBM Plex Sans'; text-anchor: middle; fill: #81c784" x="135.077415" y="1132.95635" transform="rotate(-0 135.077415 1132.95635)">SAVE $0-1K</text>
   </g>
   <g id="text_67">
    <text style="font-weight: 700; font-size: 8px; font-family: 'IBM Plex Sans'; text-anchor: middle; fill: #1b5e20" x="506.775968" y="1132.95635" transform="rotate(-0 506.775968 1132.95635)">SAVE &gt; $1K</text>
   </g>
  </g>
  <g id="text_68">
   <text style="font-weight: 700; font-size: 12px; font-family: 'GT Planar'; text-anchor: start" x="21.386097" y="15.6" transform="rotate(-0 21.386097 15.6)">How bills would change for</text>
  </g>
  <g id="text_69">
   <text style="font-weight: 700; font-size: 12px; font-family: 'GT Planar'; text-anchor: start; fill: #4a8fa0" x="180.479847" y="15.6" transform="rotate(-0 180.479847 15.6)">fuel oil</text>
  </g>
  <g id="text_70">
   <text style="font-weight: 700; font-size: 12px; font-family: 'GT Planar'; text-anchor: start" x="223.604847" y="15.6" transform="rotate(-0 223.604847 15.6)">or</text>
  </g>
  <g id="text_71">
   <text style="font-weight: 700; font-size: 12px; font-family: 'GT Planar'; text-anchor: start; fill: #3a8fa0" x="238.698597" y="15.6" transform="rotate(-0 238.698597 15.6)">propane</text>
  </g>
  <g id="text_72">
   <text style="font-weight: 700; font-size: 12px; font-family: 'GT Planar'; text-anchor: start" x="289.042347" y="15.6" transform="rotate(-0 289.042347 15.6)">heated homes after switching to</text>
  </g>
  <g id="text_73">
   <text style="font-weight: 700; font-size: 12px; font-family: 'GT Planar'; text-anchor: start; fill: #c47600" x="477.854847" y="15.6" transform="rotate(-0 477.854847 15.6)">heat pumps</text>
  </g>
 </g>
 <defs>
  <clipPath id="p5d226d633c">
   <rect x="21.386097" y="32.544" width="747" height="1191.168"/>
  </clipPath>
 </defs>
</svg>
