<svg xmlns:xlink="http://www.w3.org/1999/xlink" xmlns="http://www.w3.org/2000/svg" width="790.56pt" height="394.56pt" viewBox="0 0 790.56 394.56" version="1.1">
 <metadata>
  <rdf:RDF xmlns:dc="http://purl.org/dc/elements/1.1/" xmlns:cc="http://creativecommons.org/ns#" xmlns:rdf="http://www.w3.org/1999/02/22-rdf-syntax-ns#">
   <cc:Work>
    <dc:type rdf:resource="http://purl.org/dc/dcmitype/StillImage"/>
    <dc:date>2026-04-11T12:31:54.263272</dc:date>
    <dc:format>image/svg+xml</dc:format>
    <dc:creator>
     <cc:Agent>
      <dc:title>Matplotlib v3.10.8, https://matplotlib.org/</dc:title>
     </cc:Agent>
    </dc:creator>
   </cc:Work>
  </rdf:RDF>
 </metadata>
 <defs>
  <style type="text/css">*{stroke-linejoin: round; stroke-linecap: butt}</style>
 </defs>
 <g id="figure_1">
  <g id="patch_1">
   <path d="M 0 394.56  L 790.56 394.56  L 790.56 0  L 0 0  z " style="fill: #ffffff"/>
  </g>
  <g id="axes_1">
   <g id="patch_2">
    <path d="M 63.688719 344.63  L 703.490312 344.63  L 703.490312 36.4  L 63.688719 36.4  z " style="fill: #ffffff"/>
   </g>
   <g id="matplotlib.axis_1">
    <g id="xtick_1">
     <g id="line2d_1">
      <path d="M 95.154371 344.63  " style="fill: none; stroke: #000000; stroke-width: 1.5; stroke-linecap: square"/>
      <defs>
       <path id="m627aa90f7b" d="M 0 0  L 0 2.75  " style="stroke: #000000"/>
      </defs>
      <g>
       <use xlink:href="#m627aa90f7b" x="95.154371" y="344.63" style="stroke: #000000"/>
      </g>
     </g>
     <g id="text_1">
      <text style="font-size: 11px; font-family: 'IBM Plex Sans'; text-anchor: middle; fill: #4d4d4d" x="95.154371" y="357.72" transform="rotate(-0 95.154371 357.72)">Jan</text>
     </g>
    </g>
    <g id="xtick_2">
     <g id="line2d_2">
      <path d="M 147.597124 344.63  " style="fill: none; stroke: #000000; stroke-width: 1.5; stroke-linecap: square"/>
      <g>
       <use xlink:href="#m627aa90f7b" x="147.597124" y="344.63" style="stroke: #000000"/>
      </g>
     </g>
     <g id="text_2">
      <text style="font-size: 11px; font-family: 'IBM Plex Sans'; text-anchor: middle; fill: #4d4d4d" x="147.597124" y="357.72" transform="rotate(-0 147.597124 357.72)">Feb</text>
     </g>
    </g>
    <g id="xtick_3">
     <g id="line2d_3">
      <path d="M 200.039878 344.63  " style="fill: none; stroke: #000000; stroke-width: 1.5; stroke-linecap: square"/>
      <g>
       <use xlink:href="#m627aa90f7b" x="200.039878" y="344.63" style="stroke: #000000"/>
      </g>
     </g>
     <g id="text_3">
      <text style="font-size: 11px; font-family: 'IBM Plex Sans'; text-anchor: middle; fill: #4d4d4d" x="200.039878" y="357.72" transform="rotate(-0 200.039878 357.72)">Mar</text>
     </g>
    </g>
    <g id="xtick_4">
     <g id="line2d_4">
      <path d="M 252.482632 344.63  " style="fill: none; stroke: #000000; stroke-width: 1.5; stroke-linecap: square"/>
      <g>
       <use xlink:href="#m627aa90f7b" x="252.482632" y="344.63" style="stroke: #000000"/>
      </g>
     </g>
     <g id="text_4">
      <text style="font-size: 11px; font-family: 'IBM Plex Sans'; text-anchor: middle; fill: #4d4d4d" x="252.482632" y="357.72" transform="rotate(-0 252.482632 357.72)">Apr</text>
     </g>
    </g>
    <g id="xtick_5">
     <g id="line2d_5">
      <path d="M 304.925385 344.63  " style="fill: none; stroke: #000000; stroke-width: 1.5; stroke-linecap: square"/>
      <g>
       <use xlink:href="#m627aa90f7b" x="304.925385" y="344.63" style="stroke: #000000"/>
      </g>
     </g>
     <g id="text_5">
      <text style="font-size: 11px; font-family: 'IBM Plex Sans'; text-anchor: middle; fill: #4d4d4d" x="304.925385" y="357.72" transform="rotate(-0 304.925385 357.72)">May</text>
     </g>
    </g>
    <g id="xtick_6">
     <g id="line2d_6">
      <path d="M 357.368139 344.63  " style="fill: none; stroke: #000000; stroke-width: 1.5; stroke-linecap: square"/>
      <g>
       <use xlink:href="#m627aa90f7b" x="357.368139" y="344.63" style="stroke: #000000"/>
      </g>
     </g>
     <g id="text_6">
      <text style="font-size: 11px; font-family: 'IBM Plex Sans'; text-anchor: middle; fill: #4d4d4d" x="357.368139" y="357.72" transform="rotate(-0 357.368139 357.72)">Jun</text>
     </g>
    </g>
    <g id="xtick_7">
     <g id="line2d_7">
      <path d="M 409.810892 344.63  " style="fill: none; stroke: #000000; stroke-width: 1.5; stroke-linecap: square"/>
      <g>
       <use xlink:href="#m627aa90f7b" x="409.810892" y="344.63" style="stroke: #000000"/>
      </g>
     </g>
     <g id="text_7">
      <text style="font-size: 11px; font-family: 'IBM Plex Sans'; text-anchor: middle; fill: #4d4d4d" x="409.810892" y="357.72" transform="rotate(-0 409.810892 357.72)">Jul</text>
     </g>
    </g>
    <g id="xtick_8">
     <g id="line2d_8">
      <path d="M 462.253646 344.63  " style="fill: none; stroke: #000000; stroke-width: 1.5; stroke-linecap: square"/>
      <g>
       <use xlink:href="#m627aa90f7b" x="462.253646" y="344.63" style="stroke: #000000"/>
      </g>
     </g>
     <g id="text_8">
      <text style="font-size: 11px; font-family: 'IBM Plex Sans'; text-anchor: middle; fill: #4d4d4d" x="462.253646" y="357.587656" transform="rotate(-0 462.253646 357.587656)">Aug</text>
     </g>
    </g>
    <g id="xtick_9">
     <g id="line2d_9">
      <path d="M 514.6964 344.63  " style="fill: none; stroke: #000000; stroke-width: 1.5; stroke-linecap: square"/>
      <g>
       <use xlink:href="#m627aa90f7b" x="514.6964" y="344.63" style="stroke: #000000"/>
      </g>
     </g>
     <g id="text_9">
      <text style="font-size: 11px; font-family: 'IBM Plex Sans'; text-anchor: middle; fill: #4d4d4d" x="514.6964" y="357.72" transform="rotate(-0 514.6964 357.72)">Sep</text>
     </g>
    </g>
    <g id="xtick_10">
     <g id="line2d_10">
      <path d="M 567.139153 344.63  " style="fill: none; stroke: #000000; stroke-width: 1.5; stroke-linecap: square"/>
      <g>
       <use xlink:href="#m627aa90f7b" x="567.139153" y="344.63" style="stroke: #000000"/>
      </g>
     </g>
     <g id="text_10">
      <text style="font-size: 11px; font-family: 'IBM Plex Sans'; text-anchor: middle; fill: #4d4d4d" x="567.139153" y="357.72" transform="rotate(-0 567.139153 357.72)">Oct</text>
     </g>
    </g>
    <g id="xtick_11">
     <g id="line2d_11">
      <path d="M 619.581907 344.63  " style="fill: none; stroke: #000000; stroke-width: 1.5; stroke-linecap: square"/>
      <g>
       <use xlink:href="#m627aa90f7b" x="619.581907" y="344.63" style="stroke: #000000"/>
      </g>
     </g>
     <g id="text_11">
      <text style="font-size: 11px; font-family: 'IBM Plex Sans'; text-anchor: middle; fill: #4d4d4d" x="619.581907" y="357.72" transform="rotate(-0 619.581907 357.72)">Nov</text>
     </g>
    </g>
    <g id="xtick_12">
     <g id="line2d_12">
      <path d="M 672.02466 344.63  " style="fill: none; stroke: #000000; stroke-width: 1.5; stroke-linecap: square"/>
      <g>
       <use xlink:href="#m627aa90f7b" x="672.02466" y="344.63" style="stroke: #000000"/>
      </g>
     </g>
     <g id="text_12">
      <text style="font-size: 11px; font-family: 'IBM Plex Sans'; text-anchor: middle; fill: #4d4d4d" x="672.02466" y="357.72" transform="rotate(-0 672.02466 357.72)">Dec</text>
     </g>
    </g>
   </g>
   <g id="matplotlib.axis_2">
    <g id="ytick_1">
     <g id="line2d_13">
      <path d="M 63.688719 260.464624  L 703.490312 260.464624  " clip-path="url(#pd94878facd)" style="fill: none; stroke: #e5e5e5; stroke-linecap: square"/>
     </g>
     <g id="text_13">
      <text style="font-size: 11px; font-family: 'IBM Plex Sans'; text-anchor: start; fill: #4d4d4d" x="38.091375" y="264.534624" transform="rotate(-0 38.091375 264.534624)">20%</text>
     </g>
    </g>
    <g id="ytick_2">
     <g id="line2d_14">
      <path d="M 63.688719 160.848318  L 703.490312 160.848318  " clip-path="url(#pd94878facd)" style="fill: none; stroke: #e5e5e5; stroke-linecap: square"/>
     </g>
     <g id="text_14">
      <text style="font-size: 11px; font-family: 'IBM Plex Sans'; text-anchor: start; fill: #4d4d4d" x="38.091375" y="164.918318" transform="rotate(-0 38.091375 164.918318)">40%</text>
     </g>
    </g>
    <g id="ytick_3">
     <g id="line2d_15">
      <path d="M 63.688719 61.232012  L 703.490312 61.232012  " clip-path="url(#pd94878facd)" style="fill: none; stroke: #e5e5e5; stroke-linecap: square"/>
     </g>
     <g id="text_15">
      <text style="font-size: 11px; font-family: 'IBM Plex Sans'; text-anchor: start; fill: #4d4d4d" x="38.091375" y="65.302012" transform="rotate(-0 38.091375 65.302012)">60%</text>
     </g>
    </g>
    <g id="ytick_4">
     <g id="line2d_16">
      <path d="M 63.688719 310.272777  L 703.490312 310.272777  " clip-path="url(#pd94878facd)" style="fill: none; stroke: #fafafa; stroke-width: 0.5; stroke-linecap: square"/>
     </g>
    </g>
    <g id="ytick_5">
     <g id="line2d_17">
      <path d="M 63.688719 210.656471  L 703.490312 210.656471  " clip-path="url(#pd94878facd)" style="fill: none; stroke: #fafafa; stroke-width: 0.5; stroke-linecap: square"/>
     </g>
    </g>
    <g id="ytick_6">
     <g id="line2d_18">
      <path d="M 63.688719 111.040165  L 703.490312 111.040165  " clip-path="url(#pd94878facd)" style="fill: none; stroke: #fafafa; stroke-width: 0.5; stroke-linecap: square"/>
     </g>
    </g>
   </g>
   <g id="line2d_19">
    <path d="M 95.154371 182.781297  L 147.597124 120.460718  L 200.039878 113.214139  L 252.482632 50.410455  L 304.925385 143.166666  L 357.368139 187.129245  L 409.810892 188.578561  L 462.253646 192.443403  L 514.6964 186.646139  L 567.139153 141.234244  L 619.581907 105.00135  L 672.02466 154.761192  " clip-path="url(#pd94878facd)" style="fill: none; stroke: #f8766d; stroke-width: 0.886227"/>
   </g>
   <g id="line2d_20">
    <path d="M 95.154371 230.288515  L 147.597124 173.049307  L 200.039878 168.028324  L 252.482632 85.433151  L 304.925385 143.927605  L 357.368139 183.593372  L 409.810892 186.103864  L 462.253646 192.631142  L 514.6964 188.865404  L 567.139153 154.47167  L 619.581907 140.663966  L 672.02466 205.1836  " clip-path="url(#pd94878facd)" style="fill: none; stroke: #a3a500; stroke-width: 0.886227"/>
   </g>
   <g id="line2d_21">
    <path d="M 95.154371 251.982239  L 147.597124 179.571632  L 200.039878 181.123288  L 252.482632 110.264337  L 304.925385 109.747119  L 357.368139 141.297455  L 409.810892 140.780236  L 462.253646 143.366329  L 514.6964 146.469641  L 567.139153 162.503418  L 619.581907 161.986199  L 672.02466 225.604089  " clip-path="url(#pd94878facd)" style="fill: none; stroke: #00bf7d; stroke-width: 0.886227"/>
   </g>
   <g id="line2d_22">
    <path d="M 95.154371 279.041025  L 147.597124 204.564211  L 200.039878 201.282665  L 252.482632 123.167616  L 304.925385 104.049047  L 357.368139 123.880995  L 409.810892 121.312829  L 462.253646 122.454237  L 514.6964 129.516693  L 567.139153 165.685031  L 619.581907 186.159021  L 672.02466 255.927531  " clip-path="url(#pd94878facd)" style="fill: none; stroke: #00b0f6; stroke-width: 0.886227"/>
   </g>
   <g id="line2d_23">
    <path d="M 95.154371 330.619545  L 147.597124 258.653976  L 200.039878 248.373181  L 252.482632 182.5454  L 304.925385 90.32513  L 357.368139 90.632019  L 409.810892 86.642456  L 462.253646 87.870014  L 514.6964 102.600706  L 567.139153 204.02766  L 619.581907 254.357525  L 672.02466 320.492195  " clip-path="url(#pd94878facd)" style="fill: none; stroke: #e76bf3; stroke-width: 0.886227"/>
   </g>
   <g id="PathCollection_1">
    <path d="M 95.154371 184.819619  C 95.69494 184.819619 96.213442 184.604849 96.595682 184.222609  C 96.977922 183.840368 97.192693 183.321867 97.192693 182.781297  C 97.192693 182.240728 96.977922 181.722226 96.595682 181.339986  C 96.213442 180.957746 95.69494 180.742975 95.154371 180.742975  C 94.613802 180.742975 94.0953 180.957746 93.71306 181.339986  C 93.330819 181.722226 93.116049 182.240728 93.116049 182.781297  C 93.116049 183.321867 93.330819 183.840368 93.71306 184.222609  C 94.0953 184.604849 94.613802 184.819619 95.154371 184.819619  z " clip-path="url(#pd94878facd)" style="fill: #f8766d; stroke: #f8766d; stroke-width: 0.886227"/>
    <path d="M 95.154371 232.326837  C 95.69494 232.326837 96.213442 232.112067 96.595682 231.729827  C 96.977922 231.347586 97.192693 230.829085 97.192693 230.288515  C 97.192693 229.747946 96.977922 229.229444 96.595682 228.847204  C 96.213442 228.464964 95.69494 228.250193 95.154371 228.250193  C 94.613802 228.250193 94.0953 228.464964 93.71306 228.847204  C 93.330819 229.229444 93.116049 229.747946 93.116049 230.288515  C 93.116049 230.829085 93.330819 231.347586 93.71306 231.729827  C 94.0953 232.112067 94.613802 232.326837 95.154371 232.326837  z " clip-path="url(#pd94878facd)" style="fill: #a3a500; stroke: #a3a500; stroke-width: 0.886227"/>
    <path d="M 95.154371 254.020561  C 95.69494 254.020561 96.213442 253.80579 96.595682 253.42355  C 96.977922 253.04131 97.192693 252.522808 97.192693 251.982239  C 97.192693 251.441669 96.977922 250.923168 96.595682 250.540927  C 96.213442 250.158687 95.69494 249.943917 95.154371 249.943917  C 94.613802 249.943917 94.0953 250.158687 93.71306 250.540927  C 93.330819 250.923168 93.116049 251.441669 93.116049 251.982239  C 93.116049 252.522808 93.330819 253.04131 93.71306 253.42355  C 94.0953 253.80579 94.613802 254.020561 95.154371 254.020561  z " clip-path="url(#pd94878facd)" style="fill: #00bf7d; stroke: #00bf7d; stroke-width: 0.886227"/>
    <path d="M 95.154371 281.079347  C 95.69494 281.079347 96.213442 280.864576 96.595682 280.482336  C 96.977922 280.100096 97.192693 279.581594 97.192693 279.041025  C 97.192693 278.500455 96.977922 277.981954 96.595682 277.599714  C 96.213442 277.217473 95.69494 277.002703 95.154371 277.002703  C 94.613802 277.002703 94.0953 277.217473 93.71306 277.599714  C 93.330819 277.981954 93.116049 278.500455 93.116049 279.041025  C 93.116049 279.581594 93.330819 280.100096 93.71306 280.482336  C 94.0953 280.864576 94.613802 281.079347 95.154371 281.079347  z " clip-path="url(#pd94878facd)" style="fill: #00b0f6; stroke: #00b0f6; stroke-width: 0.886227"/>
    <path d="M 95.154371 332.657867  C 95.69494 332.657867 96.213442 332.443097 96.595682 332.060857  C 96.977922 331.678616 97.192693 331.160115 97.192693 330.619545  C 97.192693 330.078976 96.977922 329.560474 96.595682 329.178234  C 96.213442 328.795994 95.69494 328.581224 95.154371 328.581224  C 94.613802 328.581224 94.0953 328.795994 93.71306 329.178234  C 93.330819 329.560474 93.116049 330.078976 93.116049 330.619545  C 93.116049 331.160115 93.330819 331.678616 93.71306 332.060857  C 94.0953 332.443097 94.613802 332.657867 95.154371 332.657867  z " clip-path="url(#pd94878facd)" style="fill: #e76bf3; stroke: #e76bf3; stroke-width: 0.886227"/>
    <path d="M 147.597124 122.49904  C 148.137694 122.49904 148.656196 122.28427 149.038436 121.902029  C 149.420676 121.519789 149.635446 121.001287 149.635446 120.460718  C 149.635446 119.920149 149.420676 119.401647 149.038436 119.019407  C 148.656196 118.637167 148.137694 118.422396 147.597124 118.422396  C 147.056555 118.422396 146.538053 118.637167 146.155813 119.019407  C 145.773573 119.401647 145.558803 119.920149 145.558803 120.460718  C 145.558803 121.001287 145.773573 121.519789 146.155813 121.902029  C 146.538053 122.28427 147.056555 122.49904 147.597124 122.49904  z " clip-path="url(#pd94878facd)" style="fill: #f8766d; stroke: #f8766d; stroke-width: 0.886227"/>
    <path d="M 147.597124 175.087629  C 148.137694 175.087629 148.656196 174.872859 149.038436 174.490619  C 149.420676 174.108378 149.635446 173.589877 149.635446 173.049307  C 149.635446 172.508738 149.420676 171.990236 149.038436 171.607996  C 148.656196 171.225756 148.137694 171.010985 147.597124 171.010985  C 147.056555 171.010985 146.538053 171.225756 146.155813 171.607996  C 145.773573 171.990236 145.558803 172.508738 145.558803 173.049307  C 145.558803 173.589877 145.773573 174.108378 146.155813 174.490619  C 146.538053 174.872859 147.056555 175.087629 147.597124 175.087629  z " clip-path="url(#pd94878facd)" style="fill: #a3a500; stroke: #a3a500; stroke-width: 0.886227"/>
    <path d="M 147.597124 181.609954  C 148.137694 181.609954 148.656196 181.395184 149.038436 181.012943  C 149.420676 180.630703 149.635446 180.112202 149.635446 179.571632  C 149.635446 179.031063 149.420676 178.512561 149.038436 178.130321  C 148.656196 177.748081 148.137694 177.53331 147.597124 177.53331  C 147.056555 177.53331 146.538053 177.748081 146.155813 178.130321  C 145.773573 178.512561 145.558803 179.031063 145.558803 179.571632  C 145.558803 180.112202 145.773573 180.630703 146.155813 181.012943  C 146.538053 181.395184 147.056555 181.609954 147.597124 181.609954  z " clip-path="url(#pd94878facd)" style="fill: #00bf7d; stroke: #00bf7d; stroke-width: 0.886227"/>
    <path d="M 147.597124 206.602533  C 148.137694 206.602533 148.656196 206.387762 149.038436 206.005522  C 149.420676 205.623282 149.635446 205.10478 149.635446 204.564211  C 149.635446 204.023641 149.420676 203.50514 149.038436 203.122899  C 148.656196 202.740659 148.137694 202.525889 147.597124 202.525889  C 147.056555 202.525889 146.538053 202.740659 146.155813 203.122899  C 145.773573 203.50514 145.558803 204.023641 145.558803 204.564211  C 145.558803 205.10478 145.773573 205.623282 146.155813 206.005522  C 146.538053 206.387762 147.056555 206.602533 147.597124 206.602533  z " clip-path="url(#pd94878facd)" style="fill: #00b0f6; stroke: #00b0f6; stroke-width: 0.886227"/>
    <path d="M 147.597124 260.692298  C 148.137694 260.692298 148.656196 260.477528 149.038436 260.095288  C 149.420676 259.713047 149.635446 259.194546 149.635446 258.653976  C 149.635446 258.113407 149.420676 257.594905 149.038436 257.212665  C 148.656196 256.830425 148.137694 256.615655 147.597124 256.615655  C 147.056555 256.615655 146.538053 256.830425 146.155813 257.212665  C 145.773573 257.594905 145.558803 258.113407 145.558803 258.653976  C 145.558803 259.194546 145.773573 259.713047 146.155813 260.095288  C 146.538053 260.477528 147.056555 260.692298 147.597124 260.692298  z " clip-path="url(#pd94878facd)" style="fill: #e76bf3; stroke: #e76bf3; stroke-width: 0.886227"/>
    <path d="M 200.039878 115.252461  C 200.580447 115.252461 201.098949 115.037691 201.481189 114.65545  C 201.86343 114.27321 202.0782 113.754708 202.0782 113.214139  C 202.0782 112.67357 201.86343 112.155068 201.481189 111.772828  C 201.098949 111.390588 200.580447 111.175817 200.039878 111.175817  C 199.499309 111.175817 198.980807 111.390588 198.598567 111.772828  C 198.216327 112.155068 198.001556 112.67357 198.001556 113.214139  C 198.001556 113.754708 198.216327 114.27321 198.598567 114.65545  C 198.980807 115.037691 199.499309 115.252461 200.039878 115.252461  z " clip-path="url(#pd94878facd)" style="fill: #f8766d; stroke: #f8766d; stroke-width: 0.886227"/>
    <path d="M 200.039878 170.066646  C 200.580447 170.066646 201.098949 169.851876 201.481189 169.469635  C 201.86343 169.087395 202.0782 168.568893 202.0782 168.028324  C 202.0782 167.487755 201.86343 166.969253 201.481189 166.587013  C 201.098949 166.204773 200.580447 165.990002 200.039878 165.990002  C 199.499309 165.990002 198.980807 166.204773 198.598567 166.587013  C 198.216327 166.969253 198.001556 167.487755 198.001556 168.028324  C 198.001556 168.568893 198.216327 169.087395 198.598567 169.469635  C 198.980807 169.851876 199.499309 170.066646 200.039878 170.066646  z " clip-path="url(#pd94878facd)" style="fill: #a3a500; stroke: #a3a500; stroke-width: 0.886227"/>
    <path d="M 200.039878 183.16161  C 200.580447 183.16161 201.098949 182.94684 201.481189 182.564599  C 201.86343 182.182359 202.0782 181.663857 202.0782 181.123288  C 202.0782 180.582719 201.86343 180.064217 201.481189 179.681977  C 201.098949 179.299737 200.580447 179.084966 200.039878 179.084966  C 199.499309 179.084966 198.980807 179.299737 198.598567 179.681977  C 198.216327 180.064217 198.001556 180.582719 198.001556 181.123288  C 198.001556 181.663857 198.216327 182.182359 198.598567 182.564599  C 198.980807 182.94684 199.499309 183.16161 200.039878 183.16161  z " clip-path="url(#pd94878facd)" style="fill: #00bf7d; stroke: #00bf7d; stroke-width: 0.886227"/>
    <path d="M 200.039878 203.320987  C 200.580447 203.320987 201.098949 203.106217 201.481189 202.723976  C 201.86343 202.341736 202.0782 201.823235 202.0782 201.282665  C 202.0782 200.742096 201.86343 200.223594 201.481189 199.841354  C 201.098949 199.459114 200.580447 199.244343 200.039878 199.244343  C 199.499309 199.244343 198.980807 199.459114 198.598567 199.841354  C 198.216327 200.223594 198.001556 200.742096 198.001556 201.282665  C 198.001556 201.823235 198.216327 202.341736 198.598567 202.723976  C 198.980807 203.106217 199.499309 203.320987 200.039878 203.320987  z " clip-path="url(#pd94878facd)" style="fill: #00b0f6; stroke: #00b0f6; stroke-width: 0.886227"/>
    <path d="M 200.039878 250.411503  C 200.580447 250.411503 201.098949 250.196732 201.481189 249.814492  C 201.86343 249.432252 202.0782 248.91375 202.0782 248.373181  C 202.0782 247.832612 201.86343 247.31411 201.481189 246.93187  C 201.098949 246.549629 200.580447 246.334859 200.039878 246.334859  C 199.499309 246.334859 198.980807 246.549629 198.598567 246.93187  C 198.216327 247.31411 198.001556 247.832612 198.001556 248.373181  C 198.001556 248.91375 198.216327 249.432252 198.598567 249.814492  C 198.980807 250.196732 199.499309 250.411503 200.039878 250.411503  z " clip-path="url(#pd94878facd)" style="fill: #e76bf3; stroke: #e76bf3; stroke-width: 0.886227"/>
    <path d="M 252.482632 52.448776  C 253.023201 52.448776 253.541703 52.234006 253.923943 51.851766  C 254.306183 51.469526 254.520954 50.951024 254.520954 50.410455  C 254.520954 49.869885 254.306183 49.351384 253.923943 48.969143  C 253.541703 48.586903 253.023201 48.372133 252.482632 48.372133  C 251.942062 48.372133 251.423561 48.586903 251.04132 48.969143  C 250.65908 49.351384 250.44431 49.869885 250.44431 50.410455  C 250.44431 50.951024 250.65908 51.469526 251.04132 51.851766  C 251.423561 52.234006 251.942062 52.448776 252.482632 52.448776  z " clip-path="url(#pd94878facd)" style="fill: #f8766d; stroke: #f8766d; stroke-width: 0.886227"/>
    <path d="M 252.482632 87.471473  C 253.023201 87.471473 253.541703 87.256703 253.923943 86.874463  C 254.306183 86.492222 254.520954 85.973721 254.520954 85.433151  C 254.520954 84.892582 254.306183 84.37408 253.923943 83.99184  C 253.541703 83.6096 253.023201 83.394829 252.482632 83.394829  C 251.942062 83.394829 251.423561 83.6096 251.04132 83.99184  C 250.65908 84.37408 250.44431 84.892582 250.44431 85.433151  C 250.44431 85.973721 250.65908 86.492222 251.04132 86.874463  C 251.423561 87.256703 251.942062 87.471473 252.482632 87.471473  z " clip-path="url(#pd94878facd)" style="fill: #a3a500; stroke: #a3a500; stroke-width: 0.886227"/>
    <path d="M 252.482632 112.302659  C 253.023201 112.302659 253.541703 112.087889 253.923943 111.705649  C 254.306183 111.323408 254.520954 110.804907 254.520954 110.264337  C 254.520954 109.723768 254.306183 109.205266 253.923943 108.823026  C 253.541703 108.440786 253.023201 108.226016 252.482632 108.226016  C 251.942062 108.226016 251.423561 108.440786 251.04132 108.823026  C 250.65908 109.205266 250.44431 109.723768 250.44431 110.264337  C 250.44431 110.804907 250.65908 111.323408 251.04132 111.705649  C 251.423561 112.087889 251.942062 112.302659 252.482632 112.302659  z " clip-path="url(#pd94878facd)" style="fill: #00bf7d; stroke: #00bf7d; stroke-width: 0.886227"/>
    <path d="M 252.482632 125.205938  C 253.023201 125.205938 253.541703 124.991167 253.923943 124.608927  C 254.306183 124.226687 254.520954 123.708185 254.520954 123.167616  C 254.520954 122.627047 254.306183 122.108545 253.923943 121.726305  C 253.541703 121.344064 253.023201 121.129294 252.482632 121.129294  C 251.942062 121.129294 251.423561 121.344064 251.04132 121.726305  C 250.65908 122.108545 250.44431 122.627047 250.44431 123.167616  C 250.44431 123.708185 250.65908 124.226687 251.04132 124.608927  C 251.423561 124.991167 251.942062 125.205938 252.482632 125.205938  z " clip-path="url(#pd94878facd)" style="fill: #00b0f6; stroke: #00b0f6; stroke-width: 0.886227"/>
    <path d="M 252.482632 184.583722  C 253.023201 184.583722 253.541703 184.368952 253.923943 183.986712  C 254.306183 183.604471 254.520954 183.08597 254.520954 182.5454  C 254.520954 182.004831 254.306183 181.486329 253.923943 181.104089  C 253.541703 180.721849 253.023201 180.507078 252.482632 180.507078  C 251.942062 180.507078 251.423561 180.721849 251.04132 181.104089  C 250.65908 181.486329 250.44431 182.004831 250.44431 182.5454  C 250.44431 183.08597 250.65908 183.604471 251.04132 183.986712  C 251.423561 184.368952 251.942062 184.583722 252.482632 184.583722  z " clip-path="url(#pd94878facd)" style="fill: #e76bf3; stroke: #e76bf3; stroke-width: 0.886227"/>
    <path d="M 304.925385 145.204987  C 305.465955 145.204987 305.984456 144.990217 306.366697 144.607977  C 306.748937 144.225737 306.963707 143.707235 306.963707 143.166666  C 306.963707 142.626096 306.748937 142.107594 306.366697 141.725354  C 305.984456 141.343114 305.465955 141.128344 304.925385 141.128344  C 304.384816 141.128344 303.866314 141.343114 303.484074 141.725354  C 303.101834 142.107594 302.887063 142.626096 302.887063 143.166666  C 302.887063 143.707235 303.101834 144.225737 303.484074 144.607977  C 303.866314 144.990217 304.384816 145.204987 304.925385 145.204987  z " clip-path="url(#pd94878facd)" style="fill: #f8766d; stroke: #f8766d; stroke-width: 0.886227"/>
    <path d="M 304.925385 145.965927  C 305.465955 145.965927 305.984456 145.751157 306.366697 145.368916  C 306.748937 144.986676 306.963707 144.468174 306.963707 143.927605  C 306.963707 143.387036 306.748937 142.868534 306.366697 142.486294  C 305.984456 142.104054 305.465955 141.889283 304.925385 141.889283  C 304.384816 141.889283 303.866314 142.104054 303.484074 142.486294  C 303.101834 142.868534 302.887063 143.387036 302.887063 143.927605  C 302.887063 144.468174 303.101834 144.986676 303.484074 145.368916  C 303.866314 145.751157 304.384816 145.965927 304.925385 145.965927  z " clip-path="url(#pd94878facd)" style="fill: #a3a500; stroke: #a3a500; stroke-width: 0.886227"/>
    <path d="M 304.925385 111.785441  C 305.465955 111.785441 305.984456 111.57067 306.366697 111.18843  C 306.748937 110.80619 306.963707 110.287688 306.963707 109.747119  C 306.963707 109.20655 306.748937 108.688048 306.366697 108.305808  C 305.984456 107.923567 305.465955 107.708797 304.925385 107.708797  C 304.384816 107.708797 303.866314 107.923567 303.484074 108.305808  C 303.101834 108.688048 302.887063 109.20655 302.887063 109.747119  C 302.887063 110.287688 303.101834 110.80619 303.484074 111.18843  C 303.866314 111.57067 304.384816 111.785441 304.925385 111.785441  z " clip-path="url(#pd94878facd)" style="fill: #00bf7d; stroke: #00bf7d; stroke-width: 0.886227"/>
    <path d="M 304.925385 106.087369  C 305.465955 106.087369 305.984456 105.872598 306.366697 105.490358  C 306.748937 105.108118 306.963707 104.589616 306.963707 104.049047  C 306.963707 103.508478 306.748937 102.989976 306.366697 102.607736  C 305.984456 102.225495 305.465955 102.010725 304.925385 102.010725  C 304.384816 102.010725 303.866314 102.225495 303.484074 102.607736  C 303.101834 102.989976 302.887063 103.508478 302.887063 104.049047  C 302.887063 104.589616 303.101834 105.108118 303.484074 105.490358  C 303.866314 105.872598 304.384816 106.087369 304.925385 106.087369  z " clip-path="url(#pd94878facd)" style="fill: #00b0f6; stroke: #00b0f6; stroke-width: 0.886227"/>
    <path d="M 304.925385 92.363451  C 305.465955 92.363451 305.984456 92.148681 306.366697 91.766441  C 306.748937 91.384201 306.963707 90.865699 306.963707 90.32513  C 306.963707 89.78456 306.748937 89.266058 306.366697 88.883818  C 305.984456 88.501578 305.465955 88.286808 304.925385 88.286808  C 304.384816 88.286808 303.866314 88.501578 303.484074 88.883818  C 303.101834 89.266058 302.887063 89.78456 302.887063 90.32513  C 302.887063 90.865699 303.101834 91.384201 303.484074 91.766441  C 303.866314 92.148681 304.384816 92.363451 304.925385 92.363451  z " clip-path="url(#pd94878facd)" style="fill: #e76bf3; stroke: #e76bf3; stroke-width: 0.886227"/>
    <path d="M 357.368139 189.167567  C 357.908708 189.167567 358.42721 188.952796 358.80945 188.570556  C 359.19169 188.188316 359.406461 187.669814 359.406461 187.129245  C 359.406461 186.588675 359.19169 186.070174 358.80945 185.687933  C 358.42721 185.305693 357.908708 185.090923 357.368139 185.090923  C 356.82757 185.090923 356.309068 185.305693 355.926828 185.687933  C 355.544587 186.070174 355.329817 186.588675 355.329817 187.129245  C 355.329817 187.669814 355.544587 188.188316 355.926828 188.570556  C 356.309068 188.952796 356.82757 189.167567 357.368139 189.167567  z " clip-path="url(#pd94878facd)" style="fill: #f8766d; stroke: #f8766d; stroke-width: 0.886227"/>
    <path d="M 357.368139 185.631694  C 357.908708 185.631694 358.42721 185.416923 358.80945 185.034683  C 359.19169 184.652443 359.406461 184.133941 359.406461 183.593372  C 359.406461 183.052803 359.19169 182.534301 358.80945 182.152061  C 358.42721 181.76982 357.908708 181.55505 357.368139 181.55505  C 356.82757 181.55505 356.309068 181.76982 355.926828 182.152061  C 355.544587 182.534301 355.329817 183.052803 355.329817 183.593372  C 355.329817 184.133941 355.544587 184.652443 355.926828 185.034683  C 356.309068 185.416923 356.82757 185.631694 357.368139 185.631694  z " clip-path="url(#pd94878facd)" style="fill: #a3a500; stroke: #a3a500; stroke-width: 0.886227"/>
    <path d="M 357.368139 143.335776  C 357.908708 143.335776 358.42721 143.121006 358.80945 142.738766  C 359.19169 142.356526 359.406461 141.838024 359.406461 141.297455  C 359.406461 140.756885 359.19169 140.238383 358.80945 139.856143  C 358.42721 139.473903 357.908708 139.259133 357.368139 139.259133  C 356.82757 139.259133 356.309068 139.473903 355.926828 139.856143  C 355.544587 140.238383 355.329817 140.756885 355.329817 141.297455  C 355.329817 141.838024 355.544587 142.356526 355.926828 142.738766  C 356.309068 143.121006 356.82757 143.335776 357.368139 143.335776  z " clip-path="url(#pd94878facd)" style="fill: #00bf7d; stroke: #00bf7d; stroke-width: 0.886227"/>
    <path d="M 357.368139 125.919317  C 357.908708 125.919317 358.42721 125.704547 358.80945 125.322307  C 359.19169 124.940066 359.406461 124.421565 359.406461 123.880995  C 359.406461 123.340426 359.19169 122.821924 358.80945 122.439684  C 358.42721 122.057444 357.908708 121.842673 357.368139 121.842673  C 356.82757 121.842673 356.309068 122.057444 355.926828 122.439684  C 355.544587 122.821924 355.329817 123.340426 355.329817 123.880995  C 355.329817 124.421565 355.544587 124.940066 355.926828 125.322307  C 356.309068 125.704547 356.82757 125.919317 357.368139 125.919317  z " clip-path="url(#pd94878facd)" style="fill: #00b0f6; stroke: #00b0f6; stroke-width: 0.886227"/>
    <path d="M 357.368139 92.670341  C 357.908708 92.670341 358.42721 92.45557 358.80945 92.07333  C 359.19169 91.69109 359.406461 91.172588 359.406461 90.632019  C 359.406461 90.09145 359.19169 89.572948 358.80945 89.190708  C 358.42721 88.808467 357.908708 88.593697 357.368139 88.593697  C 356.82757 88.593697 356.309068 88.808467 355.926828 89.190708  C 355.544587 89.572948 355.329817 90.09145 355.329817 90.632019  C 355.329817 91.172588 355.544587 91.69109 355.926828 92.07333  C 356.309068 92.45557 356.82757 92.670341 357.368139 92.670341  z " clip-path="url(#pd94878facd)" style="fill: #e76bf3; stroke: #e76bf3; stroke-width: 0.886227"/>
    <path d="M 409.810892 190.616882  C 410.351462 190.616882 410.869963 190.402112 411.252204 190.019872  C 411.634444 189.637632 411.849214 189.11913 411.849214 188.578561  C 411.849214 188.037991 411.634444 187.519489 411.252204 187.137249  C 410.869963 186.755009 410.351462 186.540239 409.810892 186.540239  C 409.270323 186.540239 408.751821 186.755009 408.369581 187.137249  C 407.987341 187.519489 407.77257 188.037991 407.77257 188.578561  C 407.77257 189.11913 407.987341 189.637632 408.369581 190.019872  C 408.751821 190.402112 409.270323 190.616882 409.810892 190.616882  z " clip-path="url(#pd94878facd)" style="fill: #f8766d; stroke: #f8766d; stroke-width: 0.886227"/>
    <path d="M 409.810892 188.142185  C 410.351462 188.142185 410.869963 187.927415 411.252204 187.545175  C 411.634444 187.162935 411.849214 186.644433 411.849214 186.103864  C 411.849214 185.563294 411.634444 185.044792 411.252204 184.662552  C 410.869963 184.280312 410.351462 184.065542 409.810892 184.065542  C 409.270323 184.065542 408.751821 184.280312 408.369581 184.662552  C 407.987341 185.044792 407.77257 185.563294 407.77257 186.103864  C 407.77257 186.644433 407.987341 187.162935 408.369581 187.545175  C 408.751821 187.927415 409.270323 188.142185 409.810892 188.142185  z " clip-path="url(#pd94878facd)" style="fill: #a3a500; stroke: #a3a500; stroke-width: 0.886227"/>
    <path d="M 409.810892 142.818558  C 410.351462 142.818558 410.869963 142.603787 411.252204 142.221547  C 411.634444 141.839307 411.849214 141.320805 411.849214 140.780236  C 411.849214 140.239667 411.634444 139.721165 411.252204 139.338925  C 410.869963 138.956684 410.351462 138.741914 409.810892 138.741914  C 409.270323 138.741914 408.751821 138.956684 408.369581 139.338925  C 407.987341 139.721165 407.77257 140.239667 407.77257 140.780236  C 407.77257 141.320805 407.987341 141.839307 408.369581 142.221547  C 408.751821 142.603787 409.270323 142.818558 409.810892 142.818558  z " clip-path="url(#pd94878facd)" style="fill: #00bf7d; stroke: #00bf7d; stroke-width: 0.886227"/>
    <path d="M 409.810892 123.351151  C 410.351462 123.351151 410.869963 123.136381 411.252204 122.754141  C 411.634444 122.3719 411.849214 121.853399 411.849214 121.312829  C 411.849214 120.77226 411.634444 120.253758 411.252204 119.871518  C 410.869963 119.489278 410.351462 119.274507 409.810892 119.274507  C 409.270323 119.274507 408.751821 119.489278 408.369581 119.871518  C 407.987341 120.253758 407.77257 120.77226 407.77257 121.312829  C 407.77257 121.853399 407.987341 122.3719 408.369581 122.754141  C 408.751821 123.136381 409.270323 123.351151 409.810892 123.351151  z " clip-path="url(#pd94878facd)" style="fill: #00b0f6; stroke: #00b0f6; stroke-width: 0.886227"/>
    <path d="M 409.810892 88.680778  C 410.351462 88.680778 410.869963 88.466008 411.252204 88.083768  C 411.634444 87.701528 411.849214 87.183026 411.849214 86.642456  C 411.849214 86.101887 411.634444 85.583385 411.252204 85.201145  C 410.869963 84.818905 410.351462 84.604135 409.810892 84.604135  C 409.270323 84.604135 408.751821 84.818905 408.369581 85.201145  C 407.987341 85.583385 407.77257 86.101887 407.77257 86.642456  C 407.77257 87.183026 407.987341 87.701528 408.369581 88.083768  C 408.751821 88.466008 409.270323 88.680778 409.810892 88.680778  z " clip-path="url(#pd94878facd)" style="fill: #e76bf3; stroke: #e76bf3; stroke-width: 0.886227"/>
    <path d="M 462.253646 194.481725  C 462.794215 194.481725 463.312717 194.266954 463.694957 193.884714  C 464.077197 193.502474 464.291968 192.983972 464.291968 192.443403  C 464.291968 191.902833 464.077197 191.384332 463.694957 191.002091  C 463.312717 190.619851 462.794215 190.405081 462.253646 190.405081  C 461.713077 190.405081 461.194575 190.619851 460.812335 191.002091  C 460.430095 191.384332 460.215324 191.902833 460.215324 192.443403  C 460.215324 192.983972 460.430095 193.502474 460.812335 193.884714  C 461.194575 194.266954 461.713077 194.481725 462.253646 194.481725  z " clip-path="url(#pd94878facd)" style="fill: #f8766d; stroke: #f8766d; stroke-width: 0.886227"/>
    <path d="M 462.253646 194.669464  C 462.794215 194.669464 463.312717 194.454693 463.694957 194.072453  C 464.077197 193.690213 464.291968 193.171711 464.291968 192.631142  C 464.291968 192.090572 464.077197 191.572071 463.694957 191.18983  C 463.312717 190.80759 462.794215 190.59282 462.253646 190.59282  C 461.713077 190.59282 461.194575 190.80759 460.812335 191.18983  C 460.430095 191.572071 460.215324 192.090572 460.215324 192.631142  C 460.215324 193.171711 460.430095 193.690213 460.812335 194.072453  C 461.194575 194.454693 461.713077 194.669464 462.253646 194.669464  z " clip-path="url(#pd94878facd)" style="fill: #a3a500; stroke: #a3a500; stroke-width: 0.886227"/>
    <path d="M 462.253646 145.404651  C 462.794215 145.404651 463.312717 145.18988 463.694957 144.80764  C 464.077197 144.4254 464.291968 143.906898 464.291968 143.366329  C 464.291968 142.82576 464.077197 142.307258 463.694957 141.925018  C 463.312717 141.542778 462.794215 141.328007 462.253646 141.328007  C 461.713077 141.328007 461.194575 141.542778 460.812335 141.925018  C 460.430095 142.307258 460.215324 142.82576 460.215324 143.366329  C 460.215324 143.906898 460.430095 144.4254 460.812335 144.80764  C 461.194575 145.18988 461.713077 145.404651 462.253646 145.404651  z " clip-path="url(#pd94878facd)" style="fill: #00bf7d; stroke: #00bf7d; stroke-width: 0.886227"/>
    <path d="M 462.253646 124.492558  C 462.794215 124.492558 463.312717 124.277788 463.694957 123.895548  C 464.077197 123.513308 464.291968 122.994806 464.291968 122.454237  C 464.291968 121.913667 464.077197 121.395165 463.694957 121.012925  C 463.312717 120.630685 462.794215 120.415915 462.253646 120.415915  C 461.713077 120.415915 461.194575 120.630685 460.812335 121.012925  C 460.430095 121.395165 460.215324 121.913667 460.215324 122.454237  C 460.215324 122.994806 460.430095 123.513308 460.812335 123.895548  C 461.194575 124.277788 461.713077 124.492558 462.253646 124.492558  z " clip-path="url(#pd94878facd)" style="fill: #00b0f6; stroke: #00b0f6; stroke-width: 0.886227"/>
    <path d="M 462.253646 89.908336  C 462.794215 89.908336 463.312717 89.693566 463.694957 89.311325  C 464.077197 88.929085 464.291968 88.410583 464.291968 87.870014  C 464.291968 87.329445 464.077197 86.810943 463.694957 86.428703  C 463.312717 86.046463 462.794215 85.831692 462.253646 85.831692  C 461.713077 85.831692 461.194575 86.046463 460.812335 86.428703  C 460.430095 86.810943 460.215324 87.329445 460.215324 87.870014  C 460.215324 88.410583 460.430095 88.929085 460.812335 89.311325  C 461.194575 89.693566 461.713077 89.908336 462.253646 89.908336  z " clip-path="url(#pd94878facd)" style="fill: #e76bf3; stroke: #e76bf3; stroke-width: 0.886227"/>
    <path d="M 514.6964 188.684461  C 515.236969 188.684461 515.755471 188.469691 516.137711 188.087451  C 516.519951 187.70521 516.734722 187.186709 516.734722 186.646139  C 516.734722 186.10557 516.519951 185.587068 516.137711 185.204828  C 515.755471 184.822588 515.236969 184.607818 514.6964 184.607818  C 514.15583 184.607818 513.637329 184.822588 513.255088 185.204828  C 512.872848 185.587068 512.658078 186.10557 512.658078 186.646139  C 512.658078 187.186709 512.872848 187.70521 513.255088 188.087451  C 513.637329 188.469691 514.15583 188.684461 514.6964 188.684461  z " clip-path="url(#pd94878facd)" style="fill: #f8766d; stroke: #f8766d; stroke-width: 0.886227"/>
    <path d="M 514.6964 190.903726  C 515.236969 190.903726 515.755471 190.688956 516.137711 190.306716  C 516.519951 189.924475 516.734722 189.405974 516.734722 188.865404  C 516.734722 188.324835 516.519951 187.806333 516.137711 187.424093  C 515.755471 187.041853 515.236969 186.827082 514.6964 186.827082  C 514.15583 186.827082 513.637329 187.041853 513.255088 187.424093  C 512.872848 187.806333 512.658078 188.324835 512.658078 188.865404  C 512.658078 189.405974 512.872848 189.924475 513.255088 190.306716  C 513.637329 190.688956 514.15583 190.903726 514.6964 190.903726  z " clip-path="url(#pd94878facd)" style="fill: #a3a500; stroke: #a3a500; stroke-width: 0.886227"/>
    <path d="M 514.6964 148.507963  C 515.236969 148.507963 515.755471 148.293192 516.137711 147.910952  C 516.519951 147.528712 516.734722 147.01021 516.734722 146.469641  C 516.734722 145.929071 516.519951 145.41057 516.137711 145.028329  C 515.755471 144.646089 515.236969 144.431319 514.6964 144.431319  C 514.15583 144.431319 513.637329 144.646089 513.255088 145.028329  C 512.872848 145.41057 512.658078 145.929071 512.658078 146.469641  C 512.658078 147.01021 512.872848 147.528712 513.255088 147.910952  C 513.637329 148.293192 514.15583 148.507963 514.6964 148.507963  z " clip-path="url(#pd94878facd)" style="fill: #00bf7d; stroke: #00bf7d; stroke-width: 0.886227"/>
    <path d="M 514.6964 131.555015  C 515.236969 131.555015 515.755471 131.340244 516.137711 130.958004  C 516.519951 130.575764 516.734722 130.057262 516.734722 129.516693  C 516.734722 128.976124 516.519951 128.457622 516.137711 128.075382  C 515.755471 127.693142 515.236969 127.478371 514.6964 127.478371  C 514.15583 127.478371 513.637329 127.693142 513.255088 128.075382  C 512.872848 128.457622 512.658078 128.976124 512.658078 129.516693  C 512.658078 130.057262 512.872848 130.575764 513.255088 130.958004  C 513.637329 131.340244 514.15583 131.555015 514.6964 131.555015  z " clip-path="url(#pd94878facd)" style="fill: #00b0f6; stroke: #00b0f6; stroke-width: 0.886227"/>
    <path d="M 514.6964 104.639028  C 515.236969 104.639028 515.755471 104.424258 516.137711 104.042018  C 516.519951 103.659777 516.734722 103.141276 516.734722 102.600706  C 516.734722 102.060137 516.519951 101.541635 516.137711 101.159395  C 515.755471 100.777155 515.236969 100.562384 514.6964 100.562384  C 514.15583 100.562384 513.637329 100.777155 513.255088 101.159395  C 512.872848 101.541635 512.658078 102.060137 512.658078 102.600706  C 512.658078 103.141276 512.872848 103.659777 513.255088 104.042018  C 513.637329 104.424258 514.15583 104.639028 514.6964 104.639028  z " clip-path="url(#pd94878facd)" style="fill: #e76bf3; stroke: #e76bf3; stroke-width: 0.886227"/>
    <path d="M 567.139153 143.272566  C 567.679722 143.272566 568.198224 143.057796 568.580464 142.675556  C 568.962705 142.293316 569.177475 141.774814 569.177475 141.234244  C 569.177475 140.693675 568.962705 140.175173 568.580464 139.792933  C 568.198224 139.410693 567.679722 139.195923 567.139153 139.195923  C 566.598584 139.195923 566.080082 139.410693 565.697842 139.792933  C 565.315602 140.175173 565.100831 140.693675 565.100831 141.234244  C 565.100831 141.774814 565.315602 142.293316 565.697842 142.675556  C 566.080082 143.057796 566.598584 143.272566 567.139153 143.272566  z " clip-path="url(#pd94878facd)" style="fill: #f8766d; stroke: #f8766d; stroke-width: 0.886227"/>
    <path d="M 567.139153 156.509992  C 567.679722 156.509992 568.198224 156.295221 568.580464 155.912981  C 568.962705 155.530741 569.177475 155.012239 569.177475 154.47167  C 569.177475 153.9311 568.962705 153.412599 568.580464 153.030358  C 568.198224 152.648118 567.679722 152.433348 567.139153 152.433348  C 566.598584 152.433348 566.080082 152.648118 565.697842 153.030358  C 565.315602 153.412599 565.100831 153.9311 565.100831 154.47167  C 565.100831 155.012239 565.315602 155.530741 565.697842 155.912981  C 566.080082 156.295221 566.598584 156.509992 567.139153 156.509992  z " clip-path="url(#pd94878facd)" style="fill: #a3a500; stroke: #a3a500; stroke-width: 0.886227"/>
    <path d="M 567.139153 164.54174  C 567.679722 164.54174 568.198224 164.326969 568.580464 163.944729  C 568.962705 163.562489 569.177475 163.043987 569.177475 162.503418  C 569.177475 161.962849 568.962705 161.444347 568.580464 161.062107  C 568.198224 160.679866 567.679722 160.465096 567.139153 160.465096  C 566.598584 160.465096 566.080082 160.679866 565.697842 161.062107  C 565.315602 161.444347 565.100831 161.962849 565.100831 162.503418  C 565.100831 163.043987 565.315602 163.562489 565.697842 163.944729  C 566.080082 164.326969 566.598584 164.54174 567.139153 164.54174  z " clip-path="url(#pd94878facd)" style="fill: #00bf7d; stroke: #00bf7d; stroke-width: 0.886227"/>
    <path d="M 567.139153 167.723353  C 567.679722 167.723353 568.198224 167.508582 568.580464 167.126342  C 568.962705 166.744102 569.177475 166.2256 569.177475 165.685031  C 569.177475 165.144462 568.962705 164.62596 568.580464 164.24372  C 568.198224 163.861479 567.679722 163.646709 567.139153 163.646709  C 566.598584 163.646709 566.080082 163.861479 565.697842 164.24372  C 565.315602 164.62596 565.100831 165.144462 565.100831 165.685031  C 565.100831 166.2256 565.315602 166.744102 565.697842 167.126342  C 566.080082 167.508582 566.598584 167.723353 567.139153 167.723353  z " clip-path="url(#pd94878facd)" style="fill: #00b0f6; stroke: #00b0f6; stroke-width: 0.886227"/>
    <path d="M 567.139153 206.065982  C 567.679722 206.065982 568.198224 205.851211 568.580464 205.468971  C 568.962705 205.086731 569.177475 204.568229 569.177475 204.02766  C 569.177475 203.48709 568.962705 202.968589 568.580464 202.586348  C 568.198224 202.204108 567.679722 201.989338 567.139153 201.989338  C 566.598584 201.989338 566.080082 202.204108 565.697842 202.586348  C 565.315602 202.968589 565.100831 203.48709 565.100831 204.02766  C 565.100831 204.568229 565.315602 205.086731 565.697842 205.468971  C 566.080082 205.851211 566.598584 206.065982 567.139153 206.065982  z " clip-path="url(#pd94878facd)" style="fill: #e76bf3; stroke: #e76bf3; stroke-width: 0.886227"/>
    <path d="M 619.581907 107.039671  C 620.122476 107.039671 620.640978 106.824901 621.023218 106.442661  C 621.405458 106.060421 621.620229 105.541919 621.620229 105.00135  C 621.620229 104.46078 621.405458 103.942279 621.023218 103.560038  C 620.640978 103.177798 620.122476 102.963028 619.581907 102.963028  C 619.041337 102.963028 618.522836 103.177798 618.140596 103.560038  C 617.758355 103.942279 617.543585 104.46078 617.543585 105.00135  C 617.543585 105.541919 617.758355 106.060421 618.140596 106.442661  C 618.522836 106.824901 619.041337 107.039671 619.581907 107.039671  z " clip-path="url(#pd94878facd)" style="fill: #f8766d; stroke: #f8766d; stroke-width: 0.886227"/>
    <path d="M 619.581907 142.702288  C 620.122476 142.702288 620.640978 142.487517 621.023218 142.105277  C 621.405458 141.723037 621.620229 141.204535 621.620229 140.663966  C 621.620229 140.123397 621.405458 139.604895 621.023218 139.222655  C 620.640978 138.840415 620.122476 138.625644 619.581907 138.625644  C 619.041337 138.625644 618.522836 138.840415 618.140596 139.222655  C 617.758355 139.604895 617.543585 140.123397 617.543585 140.663966  C 617.543585 141.204535 617.758355 141.723037 618.140596 142.105277  C 618.522836 142.487517 619.041337 142.702288 619.581907 142.702288  z " clip-path="url(#pd94878facd)" style="fill: #a3a500; stroke: #a3a500; stroke-width: 0.886227"/>
    <path d="M 619.581907 164.024521  C 620.122476 164.024521 620.640978 163.809751 621.023218 163.42751  C 621.405458 163.04527 621.620229 162.526769 621.620229 161.986199  C 621.620229 161.44563 621.405458 160.927128 621.023218 160.544888  C 620.640978 160.162648 620.122476 159.947877 619.581907 159.947877  C 619.041337 159.947877 618.522836 160.162648 618.140596 160.544888  C 617.758355 160.927128 617.543585 161.44563 617.543585 161.986199  C 617.543585 162.526769 617.758355 163.04527 618.140596 163.42751  C 618.522836 163.809751 619.041337 164.024521 619.581907 164.024521  z " clip-path="url(#pd94878facd)" style="fill: #00bf7d; stroke: #00bf7d; stroke-width: 0.886227"/>
    <path d="M 619.581907 188.197343  C 620.122476 188.197343 620.640978 187.982572 621.023218 187.600332  C 621.405458 187.218092 621.620229 186.69959 621.620229 186.159021  C 621.620229 185.618452 621.405458 185.09995 621.023218 184.71771  C 620.640978 184.33547 620.122476 184.120699 619.581907 184.120699  C 619.041337 184.120699 618.522836 184.33547 618.140596 184.71771  C 617.758355 185.09995 617.543585 185.618452 617.543585 186.159021  C 617.543585 186.69959 617.758355 187.218092 618.140596 187.600332  C 618.522836 187.982572 619.041337 188.197343 619.581907 188.197343  z " clip-path="url(#pd94878facd)" style="fill: #00b0f6; stroke: #00b0f6; stroke-width: 0.886227"/>
    <path d="M 619.581907 256.395846  C 620.122476 256.395846 620.640978 256.181076 621.023218 255.798836  C 621.405458 255.416596 621.620229 254.898094 621.620229 254.357525  C 621.620229 253.816955 621.405458 253.298454 621.023218 252.916213  C 620.640978 252.533973 620.122476 252.319203 619.581907 252.319203  C 619.041337 252.319203 618.522836 252.533973 618.140596 252.916213  C 617.758355 253.298454 617.543585 253.816955 617.543585 254.357525  C 617.543585 254.898094 617.758355 255.416596 618.140596 255.798836  C 618.522836 256.181076 619.041337 256.395846 619.581907 256.395846  z " clip-path="url(#pd94878facd)" style="fill: #e76bf3; stroke: #e76bf3; stroke-width: 0.886227"/>
    <path d="M 672.02466 156.799514  C 672.56523 156.799514 673.083731 156.584743 673.465972 156.202503  C 673.848212 155.820263 674.062982 155.301761 674.062982 154.761192  C 674.062982 154.220623 673.848212 153.702121 673.465972 153.319881  C 673.083731 152.93764 672.56523 152.72287 672.02466 152.72287  C 671.484091 152.72287 670.965589 152.93764 670.583349 153.319881  C 670.201109 153.702121 669.986338 154.220623 669.986338 154.761192  C 669.986338 155.301761 670.201109 155.820263 670.583349 156.202503  C 670.965589 156.584743 671.484091 156.799514 672.02466 156.799514  z " clip-path="url(#pd94878facd)" style="fill: #f8766d; stroke: #f8766d; stroke-width: 0.886227"/>
    <path d="M 672.02466 207.221921  C 672.56523 207.221921 673.083731 207.007151 673.465972 206.624911  C 673.848212 206.242671 674.062982 205.724169 674.062982 205.1836  C 674.062982 204.64303 673.848212 204.124528 673.465972 203.742288  C 673.083731 203.360048 672.56523 203.145278 672.02466 203.145278  C 671.484091 203.145278 670.965589 203.360048 670.583349 203.742288  C 670.201109 204.124528 669.986338 204.64303 669.986338 205.1836  C 669.986338 205.724169 670.201109 206.242671 670.583349 206.624911  C 670.965589 207.007151 671.484091 207.221921 672.02466 207.221921  z " clip-path="url(#pd94878facd)" style="fill: #a3a500; stroke: #a3a500; stroke-width: 0.886227"/>
    <path d="M 672.02466 227.642411  C 672.56523 227.642411 673.083731 227.427641 673.465972 227.0454  C 673.848212 226.66316 674.062982 226.144658 674.062982 225.604089  C 674.062982 225.06352 673.848212 224.545018 673.465972 224.162778  C 673.083731 223.780538 672.56523 223.565767 672.02466 223.565767  C 671.484091 223.565767 670.965589 223.780538 670.583349 224.162778  C 670.201109 224.545018 669.986338 225.06352 669.986338 225.604089  C 669.986338 226.144658 670.201109 226.66316 670.583349 227.0454  C 670.965589 227.427641 671.484091 227.642411 672.02466 227.642411  z " clip-path="url(#pd94878facd)" style="fill: #00bf7d; stroke: #00bf7d; stroke-width: 0.886227"/>
    <path d="M 672.02466 257.965853  C 672.56523 257.965853 673.083731 257.751082 673.465972 257.368842  C 673.848212 256.986602 674.062982 256.4681 674.062982 255.927531  C 674.062982 255.386961 673.848212 254.86846 673.465972 254.486219  C 673.083731 254.103979 672.56523 253.889209 672.02466 253.889209  C 671.484091 253.889209 670.965589 254.103979 670.583349 254.486219  C 670.201109 254.86846 669.986338 255.386961 669.986338 255.927531  C 669.986338 256.4681 670.201109 256.986602 670.583349 257.368842  C 670.965589 257.751082 671.484091 257.965853 672.02466 257.965853  z " clip-path="url(#pd94878facd)" style="fill: #00b0f6; stroke: #00b0f6; stroke-width: 0.886227"/>
    <path d="M 672.02466 322.530517  C 672.56523 322.530517 673.083731 322.315746 673.465972 321.933506  C 673.848212 321.551266 674.062982 321.032764 674.062982 320.492195  C 674.062982 319.951625 673.848212 319.433124 673.465972 319.050883  C 673.083731 318.668643 672.56523 318.453873 672.02466 318.453873  C 671.484091 318.453873 670.965589 318.668643 670.583349 319.050883  C 670.201109 319.433124 669.986338 319.951625 669.986338 320.492195  C 669.986338 321.032764 670.201109 321.551266 670.583349 321.933506  C 670.965589 322.315746 671.484091 322.530517 672.02466 322.530517  z " clip-path="url(#pd94878facd)" style="fill: #e76bf3; stroke: #e76bf3; stroke-width: 0.886227"/>
   </g>
   <g id="patch_3">
    <path d="M 63.688719 344.63  L 703.490312 344.63  " style="fill: none; stroke: #000000; stroke-width: 0.5; stroke-linejoin: miter; stroke-linecap: square"/>
   </g>
  </g>
  <g id="text_16">
   <text style="font-weight: 700; font-size: 15px; font-family: 'GT Planar'; text-anchor: start" x="63.688719" y="17.7" transform="rotate(-0 63.688719 17.7)">Natural gas: share saving by AFUE</text>
  </g>
  <g id="text_17">
   <text style="font-size: 13px; font-family: 'GT Planar'; text-anchor: start; fill: #333333" x="363.830531" y="385.02" transform="rotate(-0 363.830531 385.02)">Month</text>
  </g>
  <g id="text_18">
   <text style="font-size: 13px; font-family: 'GT Planar'; fill: #333333" transform="translate(16.482813 272.636406) rotate(-90)">% of bldg_id with lower bill</text>
   <text style="font-size: 13px; font-family: 'GT Planar'; fill: #333333" transform="translate(27.751375 250.091562) rotate(-90)">(run 3+4 &lt; run 1+2)</text>
  </g>
  <g id="text_19">
   <text style="font-size: 13px; font-family: 'GT Planar'; text-anchor: start; fill: #333333" x="728.250313" y="149.305" transform="rotate(-0 728.250313 149.305)">AFUE</text>
  </g>
  <g id="patch_4">
   <path d="M 729.250313 168.465  L 743.090313 168.465  L 743.090313 154.625  L 729.250313 154.625  z " clip-path="url(#pbfe3340da9)" style="fill: #ffffff; stroke: #ffffff; stroke-linejoin: miter"/>
  </g>
  <g id="line2d_24">
   <path d="M 728.250313 161.545  L 744.090313 161.545  " clip-path="url(#pbfe3340da9)" style="fill: none; stroke: #f8766d; stroke-width: 0.886227"/>
  </g>
  <g id="line2d_25">
   <path d="M 736.170313 161.545  " clip-path="url(#pbfe3340da9)" style="fill: none; stroke: #1f77b4; stroke-width: 1.5; stroke-linecap: square"/>
   <defs>
    <path id="m69ef8a14d7" d="M 0 2.038322  C 0.540569 2.038322 1.059071 1.823551 1.441311 1.441311  C 1.823551 1.059071 2.038322 0.540569 2.038322 0  C 2.038322 -0.540569 1.823551 -1.059071 1.441311 -1.441311  C 1.059071 -1.823551 0.540569 -2.038322 0 -2.038322  C -0.540569 -2.038322 -1.059071 -1.823551 -1.441311 -1.441311  C -1.823551 -1.059071 -2.038322 -0.540569 -2.038322 0  C -2.038322 0.540569 -1.823551 1.059071 -1.441311 1.441311  C -1.059071 1.823551 -0.540569 2.038322 0 2.038322  z " style="stroke: #f8766d; stroke-width: 0.886227"/>
   </defs>
   <g clip-path="url(#pbfe3340da9)">
    <use xlink:href="#m69ef8a14d7" x="736.170313" y="161.545" style="fill: #f8766d; stroke: #f8766d; stroke-width: 0.886227"/>
   </g>
  </g>
  <g id="text_20">
   <text style="font-size: 11px; font-family: 'IBM Plex Sans'; text-anchor: middle; fill: #4d4d4d" x="765.865156" y="164.515" transform="rotate(-0 765.865156 164.515)">60.0%</text>
  </g>
  <g id="patch_5">
   <path d="M 729.250313 186.305  L 743.090313 186.305  L 743.090313 172.465  L 729.250313 172.465  z " clip-path="url(#p4f7d60c882)" style="fill: #ffffff; stroke: #ffffff; stroke-linejoin: miter"/>
  </g>
  <g id="line2d_26">
   <path d="M 728.250313 179.385  L 744.090313 179.385  " clip-path="url(#p4f7d60c882)" style="fill: none; stroke: #a3a500; stroke-width: 0.886227"/>
  </g>
  <g id="line2d_27">
   <path d="M 736.170313 179.385  " clip-path="url(#p4f7d60c882)" style="fill: none; stroke: #1f77b4; stroke-width: 1.5; stroke-linecap: square"/>
   <defs>
    <path id="mc5b4772333" d="M 0 2.038322  C 0.540569 2.038322 1.059071 1.823551 1.441311 1.441311  C 1.823551 1.059071 2.038322 0.540569 2.038322 0  C 2.038322 -0.540569 1.823551 -1.059071 1.441311 -1.441311  C 1.059071 -1.823551 0.540569 -2.038322 0 -2.038322  C -0.540569 -2.038322 -1.059071 -1.823551 -1.441311 -1.441311  C -1.823551 -1.059071 -2.038322 -0.540569 -2.038322 0  C -2.038322 0.540569 -1.823551 1.059071 -1.441311 1.441311  C -1.059071 1.823551 -0.540569 2.038322 0 2.038322  z " style="stroke: #a3a500; stroke-width: 0.886227"/>
   </defs>
   <g clip-path="url(#p4f7d60c882)">
    <use xlink:href="#mc5b4772333" x="736.170313" y="179.385" style="fill: #a3a500; stroke: #a3a500; stroke-width: 0.886227"/>
   </g>
  </g>
  <g id="text_21">
   <text style="font-size: 11px; font-family: 'IBM Plex Sans'; text-anchor: middle; fill: #4d4d4d" x="765.865156" y="182.355" transform="rotate(-0 765.865156 182.355)">68.0%</text>
  </g>
  <g id="patch_6">
   <path d="M 729.250313 204.145  L 743.090313 204.145  L 743.090313 190.305  L 729.250313 190.305  z " clip-path="url(#p4a1862c8ed)" style="fill: #ffffff; stroke: #ffffff; stroke-linejoin: miter"/>
  </g>
  <g id="line2d_28">
   <path d="M 728.250313 197.225  L 744.090313 197.225  " clip-path="url(#p4a1862c8ed)" style="fill: none; stroke: #00bf7d; stroke-width: 0.886227"/>
  </g>
  <g id="line2d_29">
   <path d="M 736.170313 197.225  " clip-path="url(#p4a1862c8ed)" style="fill: none; stroke: #1f77b4; stroke-width: 1.5; stroke-linecap: square"/>
   <defs>
    <path id="me911eb18fa" d="M 0 2.038322  C 0.540569 2.038322 1.059071 1.823551 1.441311 1.441311  C 1.823551 1.059071 2.038322 0.540569 2.038322 0  C 2.038322 -0.540569 1.823551 -1.059071 1.441311 -1.441311  C 1.059071 -1.823551 0.540569 -2.038322 0 -2.038322  C -0.540569 -2.038322 -1.059071 -1.823551 -1.441311 -1.441311  C -1.823551 -1.059071 -2.038322 -0.540569 -2.038322 0  C -2.038322 0.540569 -1.823551 1.059071 -1.441311 1.441311  C -1.059071 1.823551 -0.540569 2.038322 0 2.038322  z " style="stroke: #00bf7d; stroke-width: 0.886227"/>
   </defs>
   <g clip-path="url(#p4a1862c8ed)">
    <use xlink:href="#me911eb18fa" x="736.170313" y="197.225" style="fill: #00bf7d; stroke: #00bf7d; stroke-width: 0.886227"/>
   </g>
  </g>
  <g id="text_22">
   <text style="font-size: 11px; font-family: 'IBM Plex Sans'; text-anchor: middle; fill: #4d4d4d" x="765.865156" y="200.195" transform="rotate(-0 765.865156 200.195)">76.0%</text>
  </g>
  <g id="patch_7">
   <path d="M 729.250313 221.985  L 743.090313 221.985  L 743.090313 208.145  L 729.250313 208.145  z " clip-path="url(#p74b11b5d38)" style="fill: #ffffff; stroke: #ffffff; stroke-linejoin: miter"/>
  </g>
  <g id="line2d_30">
   <path d="M 728.250313 215.065  L 744.090313 215.065  " clip-path="url(#p74b11b5d38)" style="fill: none; stroke: #00b0f6; stroke-width: 0.886227"/>
  </g>
  <g id="line2d_31">
   <path d="M 736.170313 215.065  " clip-path="url(#p74b11b5d38)" style="fill: none; stroke: #1f77b4; stroke-width: 1.5; stroke-linecap: square"/>
   <defs>
    <path id="mc196e7269f" d="M 0 2.038322  C 0.540569 2.038322 1.059071 1.823551 1.441311 1.441311  C 1.823551 1.059071 2.038322 0.540569 2.038322 0  C 2.038322 -0.540569 1.823551 -1.059071 1.441311 -1.441311  C 1.059071 -1.823551 0.540569 -2.038322 0 -2.038322  C -0.540569 -2.038322 -1.059071 -1.823551 -1.441311 -1.441311  C -1.823551 -1.059071 -2.038322 -0.540569 -2.038322 0  C -2.038322 0.540569 -1.823551 1.059071 -1.441311 1.441311  C -1.059071 1.823551 -0.540569 2.038322 0 2.038322  z " style="stroke: #00b0f6; stroke-width: 0.886227"/>
   </defs>
   <g clip-path="url(#p74b11b5d38)">
    <use xlink:href="#mc196e7269f" x="736.170313" y="215.065" style="fill: #00b0f6; stroke: #00b0f6; stroke-width: 0.886227"/>
   </g>
  </g>
  <g id="text_23">
   <text style="font-size: 11px; font-family: 'IBM Plex Sans'; text-anchor: middle; fill: #4d4d4d" x="765.865156" y="218.035" transform="rotate(-0 765.865156 218.035)">80.0%</text>
  </g>
  <g id="patch_8">
   <path d="M 729.250313 239.825  L 743.090313 239.825  L 743.090313 225.985  L 729.250313 225.985  z " clip-path="url(#p08693542c9)" style="fill: #ffffff; stroke: #ffffff; stroke-linejoin: miter"/>
  </g>
  <g id="line2d_32">
   <path d="M 728.250313 232.905  L 744.090313 232.905  " clip-path="url(#p08693542c9)" style="fill: none; stroke: #e76bf3; stroke-width: 0.886227"/>
  </g>
  <g id="line2d_33">
   <path d="M 736.170313 232.905  " clip-path="url(#p08693542c9)" style="fill: none; stroke: #1f77b4; stroke-width: 1.5; stroke-linecap: square"/>
   <defs>
    <path id="m5485a8f1ca" d="M 0 2.038322  C 0.540569 2.038322 1.059071 1.823551 1.441311 1.441311  C 1.823551 1.059071 2.038322 0.540569 2.038322 0  C 2.038322 -0.540569 1.823551 -1.059071 1.441311 -1.441311  C 1.059071 -1.823551 0.540569 -2.038322 0 -2.038322  C -0.540569 -2.038322 -1.059071 -1.823551 -1.441311 -1.441311  C -1.823551 -1.059071 -2.038322 -0.540569 -2.038322 0  C -2.038322 0.540569 -1.823551 1.059071 -1.441311 1.441311  C -1.059071 1.823551 -0.540569 2.038322 0 2.038322  z " style="stroke: #e76bf3; stroke-width: 0.886227"/>
   </defs>
   <g clip-path="url(#p08693542c9)">
    <use xlink:href="#m5485a8f1ca" x="736.170313" y="232.905" style="fill: #e76bf3; stroke: #e76bf3; stroke-width: 0.886227"/>
   </g>
  </g>
  <g id="text_24">
   <text style="font-size: 11px; font-family: 'IBM Plex Sans'; text-anchor: middle; fill: #4d4d4d" x="765.865156" y="235.875" transform="rotate(-0 765.865156 235.875)">92.5%</text>
  </g>
 </g>
 <defs>
  <clipPath id="pd94878facd">
   <rect x="63.688719" y="36.4" width="639.801594" height="308.23"/>
  </clipPath>
  <clipPath id="pbfe3340da9">
   <path d="M 728.250313 169.465  L 728.250313 153.625  L 744.090313 153.625  L 744.090313 169.465  "/>
  </clipPath>
  <clipPath id="p4f7d60c882">
   <path d="M 728.250313 187.305  L 728.250313 171.465  L 744.090313 171.465  L 744.090313 187.305  "/>
  </clipPath>
  <clipPath id="p4a1862c8ed">
   <path d="M 728.250313 205.145  L 728.250313 189.305  L 744.090313 189.305  L 744.090313 205.145  "/>
  </clipPath>
  <clipPath id="p74b11b5d38">
   <path d="M 728.250313 222.985  L 728.250313 207.145  L 744.090313 207.145  L 744.090313 222.985  "/>
  </clipPath>
  <clipPath id="p08693542c9">
   <path d="M 728.250313 240.825  L 728.250313 224.985  L 744.090313 224.985  L 744.090313 240.825  "/>
  </clipPath>
 </defs>
</svg>
