<?xml version="1.0" encoding="utf-8" standalone="no"?>
<!DOCTYPE svg PUBLIC "-//W3C//DTD SVG 1.1//EN"
  "http://www.w3.org/Graphics/SVG/1.1/DTD/svg11.dtd">
<svg xmlns:xlink="http://www.w3.org/1999/xlink" width="756pt" height="810pt" viewBox="0 0 756 810" xmlns="http://www.w3.org/2000/svg" version="1.1">
 <metadata>
  <rdf:RDF xmlns:dc="http://purl.org/dc/elements/1.1/" xmlns:cc="http://creativecommons.org/ns#" xmlns:rdf="http://www.w3.org/1999/02/22-rdf-syntax-ns#">
   <cc:Work>
    <dc:type rdf:resource="http://purl.org/dc/dcmitype/StillImage"/>
    <dc:date>2026-04-11T12:30:46.416260</dc:date>
    <dc:format>image/svg+xml</dc:format>
    <dc:creator>
     <cc:Agent>
      <dc:title>Matplotlib v3.10.8, https://matplotlib.org/</dc:title>
     </cc:Agent>
    </dc:creator>
   </cc:Work>
  </rdf:RDF>
 </metadata>
 <defs>
  <style type="text/css">*{stroke-linejoin: round; stroke-linecap: butt}</style>
 </defs>
 <g id="figure_1">
  <g id="patch_1">
   <path d="M 0 810
L 756 810
L 756 0
L 0 0
z
" style="fill: #ffffff"/>
  </g>
  <g id="axes_1">
   <g id="patch_2">
    <path d="M 70.022813 191.75513
L 748.44 191.75513
L 748.44 19.26
L 70.022813 19.26
z
" style="fill: #ffffff"/>
   </g>
   <g id="matplotlib.axis_1">
    <g id="xtick_1"/>
    <g id="xtick_2"/>
    <g id="xtick_3"/>
    <g id="xtick_4"/>
    <g id="xtick_5"/>
    <g id="xtick_6"/>
    <g id="xtick_7"/>
    <g id="xtick_8"/>
   </g>
   <g id="matplotlib.axis_2">
    <g id="ytick_1">
     <g id="line2d_1">
      <path d="M 70.022813 191.75513
L 748.44 191.75513
" clip-path="url(#p6e2401e43d)" style="fill: none; stroke: #e5e5e5; stroke-linecap: square"/>
     </g>
     <g id="text_1">
      <text style="font-size: 11px; font-family: 'IBM Plex Sans'; text-anchor: start; fill: #4d4d4d" x="61.222813" y="195.82513" transform="rotate(-0 61.222813 195.82513)">0</text>
     </g>
    </g>
    <g id="ytick_2">
     <g id="line2d_2">
      <path d="M 70.022813 153.382321
L 748.44 153.382321
" clip-path="url(#p6e2401e43d)" style="fill: none; stroke: #e5e5e5; stroke-linecap: square"/>
     </g>
     <g id="text_2">
      <text style="font-size: 11px; font-family: 'IBM Plex Sans'; text-anchor: start; fill: #4d4d4d" x="41.422813" y="157.452321" transform="rotate(-0 41.422813 157.452321)">5000</text>
     </g>
    </g>
    <g id="ytick_3">
     <g id="line2d_3">
      <path d="M 70.022813 115.009511
L 748.44 115.009511
" clip-path="url(#p6e2401e43d)" style="fill: none; stroke: #e5e5e5; stroke-linecap: square"/>
     </g>
     <g id="text_3">
      <text style="font-size: 11px; font-family: 'IBM Plex Sans'; text-anchor: start; fill: #4d4d4d" x="34.822813" y="119.079511" transform="rotate(-0 34.822813 119.079511)">10000</text>
     </g>
    </g>
    <g id="ytick_4">
     <g id="line2d_4">
      <path d="M 70.022813 76.636702
L 748.44 76.636702
" clip-path="url(#p6e2401e43d)" style="fill: none; stroke: #e5e5e5; stroke-linecap: square"/>
     </g>
     <g id="text_4">
      <text style="font-size: 11px; font-family: 'IBM Plex Sans'; text-anchor: start; fill: #4d4d4d" x="34.822813" y="80.706702" transform="rotate(-0 34.822813 80.706702)">15000</text>
     </g>
    </g>
    <g id="ytick_5">
     <g id="line2d_5">
      <path d="M 70.022813 38.263892
L 748.44 38.263892
" clip-path="url(#p6e2401e43d)" style="fill: none; stroke: #e5e5e5; stroke-linecap: square"/>
     </g>
     <g id="text_5">
      <text style="font-size: 11px; font-family: 'IBM Plex Sans'; text-anchor: start; fill: #4d4d4d" x="34.822813" y="42.333892" transform="rotate(-0 34.822813 42.333892)">20000</text>
     </g>
    </g>
    <g id="ytick_6">
     <g id="line2d_6">
      <path d="M 70.022813 172.568725
L 748.44 172.568725
" clip-path="url(#p6e2401e43d)" style="fill: none; stroke: #fafafa; stroke-width: 0.5; stroke-linecap: square"/>
     </g>
    </g>
    <g id="ytick_7">
     <g id="line2d_7">
      <path d="M 70.022813 134.195916
L 748.44 134.195916
" clip-path="url(#p6e2401e43d)" style="fill: none; stroke: #fafafa; stroke-width: 0.5; stroke-linecap: square"/>
     </g>
    </g>
    <g id="ytick_8">
     <g id="line2d_8">
      <path d="M 70.022813 95.823106
L 748.44 95.823106
" clip-path="url(#p6e2401e43d)" style="fill: none; stroke: #fafafa; stroke-width: 0.5; stroke-linecap: square"/>
     </g>
    </g>
    <g id="ytick_9">
     <g id="line2d_9">
      <path d="M 70.022813 57.450297
L 748.44 57.450297
" clip-path="url(#p6e2401e43d)" style="fill: none; stroke: #fafafa; stroke-width: 0.5; stroke-linecap: square"/>
     </g>
    </g>
   </g>
   <g id="PolyCollection_1">
    <path d="M 30.815585 191.75513
L 30.815585 189.99648
L 38.745137 189.99648
L 38.745137 191.75513
z
" clip-path="url(#p6e2401e43d)" style="fill: #1b5e20"/>
    <path d="M 198.217229 191.75513
L 198.217229 190.231635
L 206.146781 190.231635
L 206.146781 191.75513
z
" clip-path="url(#p6e2401e43d)" style="fill: #1b5e20"/>
    <path d="M 224.649068 191.75513
L 224.649068 190.231635
L 232.578619 190.231635
L 232.578619 191.75513
z
" clip-path="url(#p6e2401e43d)" style="fill: #1b5e20"/>
    <path d="M 233.45968 191.75513
L 233.45968 190.231635
L 241.389232 190.231635
L 241.389232 191.75513
z
" clip-path="url(#p6e2401e43d)" style="fill: #1b5e20"/>
    <path d="M 251.080906 191.75513
L 251.080906 190.231635
L 259.010458 190.231635
L 259.010458 191.75513
z
" clip-path="url(#p6e2401e43d)" style="fill: #1b5e20"/>
    <path d="M 268.702132 191.75513
L 268.702132 186.423767
L 276.631683 186.423767
L 276.631683 191.75513
z
" clip-path="url(#p6e2401e43d)" style="fill: #1b5e20"/>
    <path d="M 277.512745 191.75513
L 277.512745 188.580208
L 285.442296 188.580208
L 285.442296 191.75513
z
" clip-path="url(#p6e2401e43d)" style="fill: #1b5e20"/>
    <path d="M 286.323357 191.75513
L 286.323357 188.155424
L 294.252909 188.155424
L 294.252909 191.75513
z
" clip-path="url(#p6e2401e43d)" style="fill: #1b5e20"/>
    <path d="M 295.13397 191.75513
L 295.13397 181.273572
L 303.063522 181.273572
L 303.063522 191.75513
z
" clip-path="url(#p6e2401e43d)" style="fill: #1b5e20"/>
    <path d="M 303.944583 191.75513
L 303.944583 184.972042
L 311.874135 184.972042
L 311.874135 191.75513
z
" clip-path="url(#p6e2401e43d)" style="fill: #1b5e20"/>
    <path d="M 312.755196 191.75513
L 312.755196 180.418475
L 320.684747 180.418475
L 320.684747 191.75513
z
" clip-path="url(#p6e2401e43d)" style="fill: #1b5e20"/>
    <path d="M 321.565809 191.75513
L 321.565809 172.100561
L 329.49536 172.100561
L 329.49536 191.75513
z
" clip-path="url(#p6e2401e43d)" style="fill: #1b5e20"/>
    <path d="M 330.376421 191.75513
L 330.376421 174.653253
L 338.305973 174.653253
L 338.305973 191.75513
z
" clip-path="url(#p6e2401e43d)" style="fill: #1b5e20"/>
    <path d="M 339.187034 191.75513
L 339.187034 160.442933
L 347.116586 160.442933
L 347.116586 191.75513
z
" clip-path="url(#p6e2401e43d)" style="fill: #1b5e20"/>
    <path d="M 347.997647 191.75513
L 347.997647 157.884864
L 355.927199 157.884864
L 355.927199 191.75513
z
" clip-path="url(#p6e2401e43d)" style="fill: #1b5e20"/>
    <path d="M 356.80826 191.75513
L 356.80826 131.964728
L 364.737811 131.964728
L 364.737811 191.75513
z
" clip-path="url(#p6e2401e43d)" style="fill: #1b5e20"/>
    <path d="M 365.618873 191.75513
L 365.618873 133.652448
L 373.548424 133.652448
L 373.548424 191.75513
z
" clip-path="url(#p6e2401e43d)" style="fill: #b71c1c"/>
    <path d="M 374.429486 191.75513
L 374.429486 79.113741
L 382.359037 79.113741
L 382.359037 191.75513
z
" clip-path="url(#p6e2401e43d)" style="fill: #b71c1c"/>
    <path d="M 383.240098 191.75513
L 383.240098 45.117329
L 391.16965 45.117329
L 391.16965 191.75513
z
" clip-path="url(#p6e2401e43d)" style="fill: #b71c1c"/>
    <path d="M 392.050711 191.75513
L 392.050711 41.759365
L 399.980263 41.759365
L 399.980263 191.75513
z
" clip-path="url(#p6e2401e43d)" style="fill: #b71c1c"/>
    <path d="M 400.861324 191.75513
L 400.861324 48.472866
L 408.790876 48.472866
L 408.790876 191.75513
z
" clip-path="url(#p6e2401e43d)" style="fill: #b71c1c"/>
    <path d="M 409.671937 191.75513
L 409.671937 100.944488
L 417.601488 100.944488
L 417.601488 191.75513
z
" clip-path="url(#p6e2401e43d)" style="fill: #b71c1c"/>
    <path d="M 418.48255 191.75513
L 418.48255 94.605146
L 426.412101 94.605146
L 426.412101 191.75513
z
" clip-path="url(#p6e2401e43d)" style="fill: #b71c1c"/>
    <path d="M 427.293163 191.75513
L 427.293163 125.09426
L 435.222714 125.09426
L 435.222714 191.75513
z
" clip-path="url(#p6e2401e43d)" style="fill: #b71c1c"/>
    <path d="M 436.103775 191.75513
L 436.103775 141.312605
L 444.033327 141.312605
L 444.033327 191.75513
z
" clip-path="url(#p6e2401e43d)" style="fill: #b71c1c"/>
    <path d="M 444.914388 191.75513
L 444.914388 147.110218
L 452.84394 147.110218
L 452.84394 191.75513
z
" clip-path="url(#p6e2401e43d)" style="fill: #b71c1c"/>
    <path d="M 453.725001 191.75513
L 453.725001 148.771076
L 461.654553 148.771076
L 461.654553 191.75513
z
" clip-path="url(#p6e2401e43d)" style="fill: #b71c1c"/>
    <path d="M 462.535614 191.75513
L 462.535614 153.396136
L 470.465165 153.396136
L 470.465165 191.75513
z
" clip-path="url(#p6e2401e43d)" style="fill: #b71c1c"/>
    <path d="M 471.346227 191.75513
L 471.346227 171.247071
L 479.275778 171.247071
L 479.275778 191.75513
z
" clip-path="url(#p6e2401e43d)" style="fill: #b71c1c"/>
    <path d="M 480.156839 191.75513
L 480.156839 166.555526
L 488.086391 166.555526
L 488.086391 191.75513
z
" clip-path="url(#p6e2401e43d)" style="fill: #b71c1c"/>
    <path d="M 488.967452 191.75513
L 488.967452 167.752174
L 496.897004 167.752174
L 496.897004 191.75513
z
" clip-path="url(#p6e2401e43d)" style="fill: #b71c1c"/>
    <path d="M 497.778065 191.75513
L 497.778065 167.326185
L 505.707617 167.326185
L 505.707617 191.75513
z
" clip-path="url(#p6e2401e43d)" style="fill: #b71c1c"/>
    <path d="M 506.588678 191.75513
L 506.588678 174.289737
L 514.51823 174.289737
L 514.51823 191.75513
z
" clip-path="url(#p6e2401e43d)" style="fill: #b71c1c"/>
    <path d="M 515.399291 191.75513
L 515.399291 184.814862
L 523.328842 184.814862
L 523.328842 191.75513
z
" clip-path="url(#p6e2401e43d)" style="fill: #b71c1c"/>
    <path d="M 524.209904 191.75513
L 524.209904 175.142658
L 532.139455 175.142658
L 532.139455 191.75513
z
" clip-path="url(#p6e2401e43d)" style="fill: #b71c1c"/>
    <path d="M 533.020516 191.75513
L 533.020516 174.905327
L 540.950068 174.905327
L 540.950068 191.75513
z
" clip-path="url(#p6e2401e43d)" style="fill: #b71c1c"/>
    <path d="M 541.831129 191.75513
L 541.831129 190.231635
L 549.760681 190.231635
L 549.760681 191.75513
z
" clip-path="url(#p6e2401e43d)" style="fill: #b71c1c"/>
    <path d="M 550.641742 191.75513
L 550.641742 182.150132
L 558.571294 182.150132
L 558.571294 191.75513
z
" clip-path="url(#p6e2401e43d)" style="fill: #b71c1c"/>
    <path d="M 559.452355 191.75513
L 559.452355 177.336793
L 567.381906 177.336793
L 567.381906 191.75513
z
" clip-path="url(#p6e2401e43d)" style="fill: #b71c1c"/>
    <path d="M 568.262968 191.75513
L 568.262968 183.141138
L 576.192519 183.141138
L 576.192519 191.75513
z
" clip-path="url(#p6e2401e43d)" style="fill: #b71c1c"/>
    <path d="M 577.073581 191.75513
L 577.073581 185.06304
L 585.003132 185.06304
L 585.003132 191.75513
z
" clip-path="url(#p6e2401e43d)" style="fill: #b71c1c"/>
    <path d="M 585.884193 191.75513
L 585.884193 185.116893
L 593.813745 185.116893
L 593.813745 191.75513
z
" clip-path="url(#p6e2401e43d)" style="fill: #b71c1c"/>
    <path d="M 594.694806 191.75513
L 594.694806 181.646812
L 602.624358 181.646812
L 602.624358 191.75513
z
" clip-path="url(#p6e2401e43d)" style="fill: #b71c1c"/>
    <path d="M 603.505419 191.75513
L 603.505419 189.99648
L 611.434971 189.99648
L 611.434971 191.75513
z
" clip-path="url(#p6e2401e43d)" style="fill: #b71c1c"/>
    <path d="M 612.316032 191.75513
L 612.316032 188.21097
L 620.245583 188.21097
L 620.245583 191.75513
z
" clip-path="url(#p6e2401e43d)" style="fill: #b71c1c"/>
    <path d="M 621.126645 191.75513
L 621.126645 188.318193
L 629.056196 188.318193
L 629.056196 191.75513
z
" clip-path="url(#p6e2401e43d)" style="fill: #b71c1c"/>
    <path d="M 629.937258 191.75513
L 629.937258 190.023473
L 637.866809 190.023473
L 637.866809 191.75513
z
" clip-path="url(#p6e2401e43d)" style="fill: #b71c1c"/>
    <path d="M 647.558483 191.75513
L 647.558483 183.694337
L 655.488035 183.694337
L 655.488035 191.75513
z
" clip-path="url(#p6e2401e43d)" style="fill: #b71c1c"/>
    <path d="M 656.369096 191.75513
L 656.369096 190.023473
L 664.298648 190.023473
L 664.298648 191.75513
z
" clip-path="url(#p6e2401e43d)" style="fill: #b71c1c"/>
    <path d="M 665.179709 191.75513
L 665.179709 188.318193
L 673.10926 188.318193
L 673.10926 191.75513
z
" clip-path="url(#p6e2401e43d)" style="fill: #b71c1c"/>
    <path d="M 673.990322 191.75513
L 673.990322 186.821558
L 681.919873 186.821558
L 681.919873 191.75513
z
" clip-path="url(#p6e2401e43d)" style="fill: #b71c1c"/>
    <path d="M 682.800934 191.75513
L 682.800934 188.372046
L 690.730486 188.372046
L 690.730486 191.75513
z
" clip-path="url(#p6e2401e43d)" style="fill: #b71c1c"/>
    <path d="M 691.611547 191.75513
L 691.611547 189.96962
L 699.541099 189.96962
L 699.541099 191.75513
z
" clip-path="url(#p6e2401e43d)" style="fill: #b71c1c"/>
    <path d="M 700.42216 191.75513
L 700.42216 189.96962
L 708.351712 189.96962
L 708.351712 191.75513
z
" clip-path="url(#p6e2401e43d)" style="fill: #b71c1c"/>
    <path d="M 709.232773 191.75513
L 709.232773 190.103703
L 717.162324 190.103703
L 717.162324 191.75513
z
" clip-path="url(#p6e2401e43d)" style="fill: #b71c1c"/>
    <path d="M 718.043386 191.75513
L 718.043386 184.935108
L 725.972937 184.935108
L 725.972937 191.75513
z
" clip-path="url(#p6e2401e43d)" style="fill: #b71c1c"/>
    <path d="M 726.853999 191.75513
L 726.853999 190.231635
L 734.78355 190.231635
L 734.78355 191.75513
z
" clip-path="url(#p6e2401e43d)" style="fill: #b71c1c"/>
    <path d="M 735.664611 191.75513
L 735.664611 188.237963
L 743.594163 188.237963
L 743.594163 191.75513
z
" clip-path="url(#p6e2401e43d)" style="fill: #b71c1c"/>
    <path d="M 753.285837 191.75513
L 753.285837 190.231635
L 761.215389 190.231635
L 761.215389 191.75513
z
" clip-path="url(#p6e2401e43d)" style="fill: #b71c1c"/>
    <path d="M 770.907063 191.75513
L 770.907063 189.99648
L 778.836614 189.99648
L 778.836614 191.75513
z
" clip-path="url(#p6e2401e43d)" style="fill: #b71c1c"/>
    <path d="M 814.960127 191.75513
L 814.960127 190.023473
L 822.889678 190.023473
L 822.889678 191.75513
z
" clip-path="url(#p6e2401e43d)" style="fill: #b71c1c"/>
    <path d="M 832.581352 191.75513
L 832.581352 190.103703
L 840.510904 190.103703
L 840.510904 191.75513
z
" clip-path="url(#p6e2401e43d)" style="fill: #b71c1c"/>
    <path d="M 911.876868 191.75513
L 911.876868 190.023473
L 919.806419 190.023473
L 919.806419 191.75513
z
" clip-path="url(#p6e2401e43d)" style="fill: #b71c1c"/>
    <path d="M 1140.952801 191.75513
L 1140.952801 189.99648
L 1148.882353 189.99648
L 1148.882353 191.75513
z
" clip-path="url(#p6e2401e43d)" style="fill: #b71c1c"/>
    <path d="M 1158.574027 191.75513
L 1158.574027 190.231635
L 1166.503579 190.231635
L 1166.503579 191.75513
z
" clip-path="url(#p6e2401e43d)" style="fill: #b71c1c"/>
   </g>
   <g id="LineCollection_1">
    <path d="M 365.178342 191.75513
L 365.178342 19.26
" clip-path="url(#p6e2401e43d)" style="fill: none; stroke: #808080; stroke-width: 1.417963"/>
   </g>
   <g id="LineCollection_2">
    <path d="M 425.958742 191.75513
L 425.958742 19.26
" clip-path="url(#p6e2401e43d)" style="fill: none; stroke-dasharray: 4.590655,1.985148; stroke-dashoffset: 0; stroke: #333333; stroke-width: 1.240718"/>
   </g>
   <g id="LineCollection_3">
    <path d="M 405.203044 191.75513
L 405.203044 19.26
" clip-path="url(#p6e2401e43d)" style="fill: none; stroke: #333333; stroke-width: 1.240718"/>
   </g>
   <g id="text_6">
    <g clip-path="url(#p6e2401e43d)">
     <!-- median: $227  ·  mean: $345 -->
     <g style="fill: #333333" transform="translate(626.882855 51.518901)">
      <text>
       <tspan x="0" y="-0.78125" style="font-size: 8px; font-family: 'IBM Plex Sans'; fill: #333333">m</tspan>
       <tspan x="6.983978" y="-0.78125" style="font-size: 8px; font-family: 'IBM Plex Sans'; fill: #333333">e</tspan>
       <tspan x="11.375961" y="-0.78125" style="font-size: 8px; font-family: 'IBM Plex Sans'; fill: #333333">d</tspan>
       <tspan x="16.015945" y="-0.78125" style="font-size: 8px; font-family: 'IBM Plex Sans'; fill: #333333">i</tspan>
       <tspan x="18.01593" y="-0.78125" style="font-size: 8px; font-family: 'IBM Plex Sans'; fill: #333333">a</tspan>
       <tspan x="22.287918" y="-0.78125" style="font-size: 8px; font-family: 'IBM Plex Sans'; fill: #333333">n</tspan>
       <tspan x="26.831909" y="-0.78125" style="font-size: 8px; font-family: 'IBM Plex Sans'; fill: #333333">:</tspan>
       <tspan x="29.167892" y="-0.78125" style="font-size: 8px; font-family: 'IBM Plex Sans'; fill: #333333"> </tspan>
       <tspan x="76.368378" y="-0.78125" style="font-size: 8px; font-family: 'IBM Plex Sans'; fill: #333333">3</tspan>
       <tspan x="81.168365" y="-0.78125" style="font-size: 8px; font-family: 'IBM Plex Sans'; fill: #333333">4</tspan>
       <tspan x="85.968353" y="-0.78125" style="font-size: 8px; font-family: 'IBM Plex Sans'; fill: #333333">5</tspan>
       <tspan x="31.055878" y="-0.78125" style="font-size: 8px; font-family: 'DejaVu Sans'; fill: #333333">2</tspan>
       <tspan x="36.145721" y="-0.78125" style="font-size: 8px; font-family: 'DejaVu Sans'; fill: #333333">2</tspan>
       <tspan x="41.235565" y="-0.78125" style="font-size: 8px; font-family: 'DejaVu Sans'; fill: #333333">7</tspan>
       <tspan x="45.325409" y="-0.78125" style="font-size: 8px; font-family: 'DejaVu Sans'; fill: #333333">·</tspan>
       <tspan x="72.114471" y="-0.78125" style="font-size: 8px; font-family: 'DejaVu Sans'; fill: #333333">:</tspan>
       <tspan x="47.868378" y="-0.78125" style="font-style: oblique; font-size: 8px; font-family: 'DejaVu Sans'; fill: #333333">m</tspan>
       <tspan x="55.661346" y="-0.78125" style="font-style: oblique; font-size: 8px; font-family: 'DejaVu Sans'; fill: #333333">e</tspan>
       <tspan x="60.583221" y="-0.78125" style="font-style: oblique; font-size: 8px; font-family: 'DejaVu Sans'; fill: #333333">a</tspan>
       <tspan x="65.485565" y="-0.78125" style="font-style: oblique; font-size: 8px; font-family: 'DejaVu Sans'; fill: #333333">n</tspan>
      </text>
     </g>
    </g>
    <g clip-path="url(#p6e2401e43d)">
     <text style="font-size: 8px; font-family: 'IBM Plex Sans'; fill: #333333" transform="translate(659.281605 60.222901)">86% overpaying</text>
    </g>
   </g>
   <g id="patch_3">
    <path d="M 70.022812 191.75513
L 748.44 191.75513
" style="fill: none; stroke: #000000; stroke-width: 0.5; stroke-linejoin: miter; stroke-linecap: square"/>
   </g>
  </g>
  <g id="axes_2">
   <g id="patch_4">
    <path d="M 70.022813 383.51026
L 748.44 383.51026
L 748.44 211.01513
L 70.022813 211.01513
z
" style="fill: #ffffff"/>
   </g>
   <g id="matplotlib.axis_3">
    <g id="xtick_9"/>
    <g id="xtick_10"/>
    <g id="xtick_11"/>
    <g id="xtick_12"/>
    <g id="xtick_13"/>
    <g id="xtick_14"/>
    <g id="xtick_15"/>
    <g id="xtick_16"/>
   </g>
   <g id="matplotlib.axis_4">
    <g id="ytick_10">
     <g id="line2d_10">
      <path d="M 70.022813 383.51026
L 748.44 383.51026
" clip-path="url(#peb6c2e0f12)" style="fill: none; stroke: #e5e5e5; stroke-linecap: square"/>
     </g>
     <g id="text_7">
      <text style="font-size: 11px; font-family: 'IBM Plex Sans'; text-anchor: start; fill: #4d4d4d" x="61.222813" y="387.58026" transform="rotate(-0 61.222813 387.58026)">0</text>
     </g>
    </g>
    <g id="ytick_11">
     <g id="line2d_11">
      <path d="M 70.022813 350.578879
L 748.44 350.578879
" clip-path="url(#peb6c2e0f12)" style="fill: none; stroke: #e5e5e5; stroke-linecap: square"/>
     </g>
     <g id="text_8">
      <text style="font-size: 11px; font-family: 'IBM Plex Sans'; text-anchor: start; fill: #4d4d4d" x="34.822813" y="354.648879" transform="rotate(-0 34.822813 354.648879)">10000</text>
     </g>
    </g>
    <g id="ytick_12">
     <g id="line2d_12">
      <path d="M 70.022813 317.647498
L 748.44 317.647498
" clip-path="url(#peb6c2e0f12)" style="fill: none; stroke: #e5e5e5; stroke-linecap: square"/>
     </g>
     <g id="text_9">
      <text style="font-size: 11px; font-family: 'IBM Plex Sans'; text-anchor: start; fill: #4d4d4d" x="34.822813" y="321.717498" transform="rotate(-0 34.822813 321.717498)">20000</text>
     </g>
    </g>
    <g id="ytick_13">
     <g id="line2d_13">
      <path d="M 70.022813 284.716116
L 748.44 284.716116
" clip-path="url(#peb6c2e0f12)" style="fill: none; stroke: #e5e5e5; stroke-linecap: square"/>
     </g>
     <g id="text_10">
      <text style="font-size: 11px; font-family: 'IBM Plex Sans'; text-anchor: start; fill: #4d4d4d" x="34.822813" y="288.786116" transform="rotate(-0 34.822813 288.786116)">30000</text>
     </g>
    </g>
    <g id="ytick_14">
     <g id="line2d_14">
      <path d="M 70.022813 251.784735
L 748.44 251.784735
" clip-path="url(#peb6c2e0f12)" style="fill: none; stroke: #e5e5e5; stroke-linecap: square"/>
     </g>
     <g id="text_11">
      <text style="font-size: 11px; font-family: 'IBM Plex Sans'; text-anchor: start; fill: #4d4d4d" x="34.822813" y="255.854735" transform="rotate(-0 34.822813 255.854735)">40000</text>
     </g>
    </g>
    <g id="ytick_15">
     <g id="line2d_15">
      <path d="M 70.022813 218.853354
L 748.44 218.853354
" clip-path="url(#peb6c2e0f12)" style="fill: none; stroke: #e5e5e5; stroke-linecap: square"/>
     </g>
     <g id="text_12">
      <text style="font-size: 11px; font-family: 'IBM Plex Sans'; text-anchor: start; fill: #4d4d4d" x="34.822813" y="222.923354" transform="rotate(-0 34.822813 222.923354)">50000</text>
     </g>
    </g>
    <g id="ytick_16">
     <g id="line2d_16">
      <path d="M 70.022813 367.04457
L 748.44 367.04457
" clip-path="url(#peb6c2e0f12)" style="fill: none; stroke: #fafafa; stroke-width: 0.5; stroke-linecap: square"/>
     </g>
    </g>
    <g id="ytick_17">
     <g id="line2d_17">
      <path d="M 70.022813 334.113188
L 748.44 334.113188
" clip-path="url(#peb6c2e0f12)" style="fill: none; stroke: #fafafa; stroke-width: 0.5; stroke-linecap: square"/>
     </g>
    </g>
    <g id="ytick_18">
     <g id="line2d_18">
      <path d="M 70.022813 301.181807
L 748.44 301.181807
" clip-path="url(#peb6c2e0f12)" style="fill: none; stroke: #fafafa; stroke-width: 0.5; stroke-linecap: square"/>
     </g>
    </g>
    <g id="ytick_19">
     <g id="line2d_19">
      <path d="M 70.022813 268.250426
L 748.44 268.250426
" clip-path="url(#peb6c2e0f12)" style="fill: none; stroke: #fafafa; stroke-width: 0.5; stroke-linecap: square"/>
     </g>
    </g>
    <g id="ytick_20">
     <g id="line2d_20">
      <path d="M 70.022813 235.319044
L 748.44 235.319044
" clip-path="url(#peb6c2e0f12)" style="fill: none; stroke: #fafafa; stroke-width: 0.5; stroke-linecap: square"/>
     </g>
    </g>
   </g>
   <g id="PolyCollection_2">
    <path d="M 136.542939 383.51026
L 136.542939 382.856532
L 144.472491 382.856532
L 144.472491 383.51026
z
" clip-path="url(#peb6c2e0f12)" style="fill: #1b5e20"/>
    <path d="M 198.217229 383.51026
L 198.217229 382.672036
L 206.146781 382.672036
L 206.146781 383.51026
z
" clip-path="url(#peb6c2e0f12)" style="fill: #1b5e20"/>
    <path d="M 207.027842 383.51026
L 207.027842 382.708685
L 214.957393 382.708685
L 214.957393 383.51026
z
" clip-path="url(#peb6c2e0f12)" style="fill: #1b5e20"/>
    <path d="M 277.512745 383.51026
L 277.512745 382.856532
L 285.442296 382.856532
L 285.442296 383.51026
z
" clip-path="url(#peb6c2e0f12)" style="fill: #1b5e20"/>
    <path d="M 286.323357 383.51026
L 286.323357 382.054956
L 294.252909 382.054956
L 294.252909 383.51026
z
" clip-path="url(#peb6c2e0f12)" style="fill: #1b5e20"/>
    <path d="M 295.13397 383.51026
L 295.13397 382.202803
L 303.063522 382.202803
L 303.063522 383.51026
z
" clip-path="url(#peb6c2e0f12)" style="fill: #1b5e20"/>
    <path d="M 303.944583 383.51026
L 303.944583 380.895346
L 311.874135 380.895346
L 311.874135 383.51026
z
" clip-path="url(#peb6c2e0f12)" style="fill: #1b5e20"/>
    <path d="M 312.755196 383.51026
L 312.755196 381.549075
L 320.684747 381.549075
L 320.684747 383.51026
z
" clip-path="url(#peb6c2e0f12)" style="fill: #1b5e20"/>
    <path d="M 321.565809 383.51026
L 321.565809 382.202803
L 329.49536 382.202803
L 329.49536 383.51026
z
" clip-path="url(#peb6c2e0f12)" style="fill: #1b5e20"/>
    <path d="M 330.376421 383.51026
L 330.376421 379.587889
L 338.305973 379.587889
L 338.305973 383.51026
z
" clip-path="url(#peb6c2e0f12)" style="fill: #1b5e20"/>
    <path d="M 339.187034 383.51026
L 339.187034 379.498567
L 347.116586 379.498567
L 347.116586 383.51026
z
" clip-path="url(#peb6c2e0f12)" style="fill: #1b5e20"/>
    <path d="M 347.997647 383.51026
L 347.997647 375.428348
L 355.927199 375.428348
L 355.927199 383.51026
z
" clip-path="url(#peb6c2e0f12)" style="fill: #1b5e20"/>
    <path d="M 356.80826 383.51026
L 356.80826 368.556619
L 364.737811 368.556619
L 364.737811 383.51026
z
" clip-path="url(#peb6c2e0f12)" style="fill: #1b5e20"/>
    <path d="M 365.618873 383.51026
L 365.618873 352.442585
L 373.548424 352.442585
L 373.548424 383.51026
z
" clip-path="url(#peb6c2e0f12)" style="fill: #b71c1c"/>
    <path d="M 374.429486 383.51026
L 374.429486 326.689975
L 382.359037 326.689975
L 382.359037 383.51026
z
" clip-path="url(#peb6c2e0f12)" style="fill: #b71c1c"/>
    <path d="M 383.240098 383.51026
L 383.240098 320.135306
L 391.16965 320.135306
L 391.16965 383.51026
z
" clip-path="url(#peb6c2e0f12)" style="fill: #b71c1c"/>
    <path d="M 392.050711 383.51026
L 392.050711 282.433287
L 399.980263 282.433287
L 399.980263 383.51026
z
" clip-path="url(#peb6c2e0f12)" style="fill: #b71c1c"/>
    <path d="M 400.861324 383.51026
L 400.861324 255.995573
L 408.790876 255.995573
L 408.790876 383.51026
z
" clip-path="url(#peb6c2e0f12)" style="fill: #b71c1c"/>
    <path d="M 409.671937 383.51026
L 409.671937 233.514495
L 417.601488 233.514495
L 417.601488 383.51026
z
" clip-path="url(#peb6c2e0f12)" style="fill: #b71c1c"/>
    <path d="M 418.48255 383.51026
L 418.48255 236.728722
L 426.412101 236.728722
L 426.412101 383.51026
z
" clip-path="url(#peb6c2e0f12)" style="fill: #b71c1c"/>
    <path d="M 427.293163 383.51026
L 427.293163 251.933399
L 435.222714 251.933399
L 435.222714 383.51026
z
" clip-path="url(#peb6c2e0f12)" style="fill: #b71c1c"/>
    <path d="M 436.103775 383.51026
L 436.103775 270.292891
L 444.033327 270.292891
L 444.033327 383.51026
z
" clip-path="url(#peb6c2e0f12)" style="fill: #b71c1c"/>
    <path d="M 444.914388 383.51026
L 444.914388 279.61295
L 452.84394 279.61295
L 452.84394 383.51026
z
" clip-path="url(#peb6c2e0f12)" style="fill: #b71c1c"/>
    <path d="M 453.725001 383.51026
L 453.725001 287.296738
L 461.654553 287.296738
L 461.654553 383.51026
z
" clip-path="url(#peb6c2e0f12)" style="fill: #b71c1c"/>
    <path d="M 462.535614 383.51026
L 462.535614 297.016055
L 470.465165 297.016055
L 470.465165 383.51026
z
" clip-path="url(#peb6c2e0f12)" style="fill: #b71c1c"/>
    <path d="M 471.346227 383.51026
L 471.346227 297.070568
L 479.275778 297.070568
L 479.275778 383.51026
z
" clip-path="url(#peb6c2e0f12)" style="fill: #b71c1c"/>
    <path d="M 480.156839 383.51026
L 480.156839 307.353905
L 488.086391 307.353905
L 488.086391 383.51026
z
" clip-path="url(#peb6c2e0f12)" style="fill: #b71c1c"/>
    <path d="M 488.967452 383.51026
L 488.967452 317.108311
L 496.897004 317.108311
L 496.897004 383.51026
z
" clip-path="url(#peb6c2e0f12)" style="fill: #b71c1c"/>
    <path d="M 497.778065 383.51026
L 497.778065 320.274815
L 505.707617 320.274815
L 505.707617 383.51026
z
" clip-path="url(#peb6c2e0f12)" style="fill: #b71c1c"/>
    <path d="M 506.588678 383.51026
L 506.588678 338.173823
L 514.51823 338.173823
L 514.51823 383.51026
z
" clip-path="url(#peb6c2e0f12)" style="fill: #b71c1c"/>
    <path d="M 515.399291 383.51026
L 515.399291 330.559032
L 523.328842 330.559032
L 523.328842 383.51026
z
" clip-path="url(#peb6c2e0f12)" style="fill: #b71c1c"/>
    <path d="M 524.209904 383.51026
L 524.209904 346.083843
L 532.139455 346.083843
L 532.139455 383.51026
z
" clip-path="url(#peb6c2e0f12)" style="fill: #b71c1c"/>
    <path d="M 533.020516 383.51026
L 533.020516 344.445079
L 540.950068 344.445079
L 540.950068 383.51026
z
" clip-path="url(#peb6c2e0f12)" style="fill: #b71c1c"/>
    <path d="M 541.831129 383.51026
L 541.831129 352.489706
L 549.760681 352.489706
L 549.760681 383.51026
z
" clip-path="url(#peb6c2e0f12)" style="fill: #b71c1c"/>
    <path d="M 550.641742 383.51026
L 550.641742 348.964936
L 558.571294 348.964936
L 558.571294 383.51026
z
" clip-path="url(#peb6c2e0f12)" style="fill: #b71c1c"/>
    <path d="M 559.452355 383.51026
L 559.452355 356.903048
L 567.381906 356.903048
L 567.381906 383.51026
z
" clip-path="url(#peb6c2e0f12)" style="fill: #b71c1c"/>
    <path d="M 568.262968 383.51026
L 568.262968 359.461801
L 576.192519 359.461801
L 576.192519 383.51026
z
" clip-path="url(#peb6c2e0f12)" style="fill: #b71c1c"/>
    <path d="M 577.073581 383.51026
L 577.073581 359.764366
L 585.003132 359.764366
L 585.003132 383.51026
z
" clip-path="url(#peb6c2e0f12)" style="fill: #b71c1c"/>
    <path d="M 585.884193 383.51026
L 585.884193 361.431331
L 593.813745 361.431331
L 593.813745 383.51026
z
" clip-path="url(#peb6c2e0f12)" style="fill: #b71c1c"/>
    <path d="M 594.694806 383.51026
L 594.694806 364.598677
L 602.624358 364.598677
L 602.624358 383.51026
z
" clip-path="url(#peb6c2e0f12)" style="fill: #b71c1c"/>
    <path d="M 603.505419 383.51026
L 603.505419 363.988054
L 611.434971 363.988054
L 611.434971 383.51026
z
" clip-path="url(#peb6c2e0f12)" style="fill: #b71c1c"/>
    <path d="M 612.316032 383.51026
L 612.316032 373.144302
L 620.245583 373.144302
L 620.245583 383.51026
z
" clip-path="url(#peb6c2e0f12)" style="fill: #b71c1c"/>
    <path d="M 621.126645 383.51026
L 621.126645 364.129714
L 629.056196 364.129714
L 629.056196 383.51026
z
" clip-path="url(#peb6c2e0f12)" style="fill: #b71c1c"/>
    <path d="M 629.937258 383.51026
L 629.937258 373.754453
L 637.866809 373.754453
L 637.866809 383.51026
z
" clip-path="url(#peb6c2e0f12)" style="fill: #b71c1c"/>
    <path d="M 638.74787 383.51026
L 638.74787 369.414716
L 646.677422 369.414716
L 646.677422 383.51026
z
" clip-path="url(#peb6c2e0f12)" style="fill: #b71c1c"/>
    <path d="M 647.558483 383.51026
L 647.558483 373.67744
L 655.488035 373.67744
L 655.488035 383.51026
z
" clip-path="url(#peb6c2e0f12)" style="fill: #b71c1c"/>
    <path d="M 656.369096 383.51026
L 656.369096 367.984317
L 664.298648 367.984317
L 664.298648 383.51026
z
" clip-path="url(#peb6c2e0f12)" style="fill: #b71c1c"/>
    <path d="M 665.179709 383.51026
L 665.179709 379.374555
L 673.10926 379.374555
L 673.10926 383.51026
z
" clip-path="url(#peb6c2e0f12)" style="fill: #b71c1c"/>
    <path d="M 673.990322 383.51026
L 673.990322 377.055874
L 681.919873 377.055874
L 681.919873 383.51026
z
" clip-path="url(#peb6c2e0f12)" style="fill: #b71c1c"/>
    <path d="M 682.800934 383.51026
L 682.800934 371.710553
L 690.730486 371.710553
L 690.730486 383.51026
z
" clip-path="url(#peb6c2e0f12)" style="fill: #b71c1c"/>
    <path d="M 691.611547 383.51026
L 691.611547 374.965087
L 699.541099 374.965087
L 699.541099 383.51026
z
" clip-path="url(#peb6c2e0f12)" style="fill: #b71c1c"/>
    <path d="M 700.42216 383.51026
L 700.42216 376.242716
L 708.351712 376.242716
L 708.351712 383.51026
z
" clip-path="url(#peb6c2e0f12)" style="fill: #b71c1c"/>
    <path d="M 709.232773 383.51026
L 709.232773 371.747443
L 717.162324 371.747443
L 717.162324 383.51026
z
" clip-path="url(#peb6c2e0f12)" style="fill: #b71c1c"/>
    <path d="M 718.043386 383.51026
L 718.043386 378.766835
L 725.972937 378.766835
L 725.972937 383.51026
z
" clip-path="url(#peb6c2e0f12)" style="fill: #b71c1c"/>
    <path d="M 726.853999 383.51026
L 726.853999 379.443672
L 734.78355 379.443672
L 734.78355 383.51026
z
" clip-path="url(#peb6c2e0f12)" style="fill: #b71c1c"/>
    <path d="M 735.664611 383.51026
L 735.664611 380.591699
L 743.594163 380.591699
L 743.594163 383.51026
z
" clip-path="url(#peb6c2e0f12)" style="fill: #b71c1c"/>
    <path d="M 744.475224 383.51026
L 744.475224 376.977814
L 752.404776 376.977814
L 752.404776 383.51026
z
" clip-path="url(#peb6c2e0f12)" style="fill: #b71c1c"/>
    <path d="M 753.285837 383.51026
L 753.285837 379.331242
L 761.215389 379.331242
L 761.215389 383.51026
z
" clip-path="url(#peb6c2e0f12)" style="fill: #b71c1c"/>
    <path d="M 762.09645 383.51026
L 762.09645 376.670318
L 770.026001 376.670318
L 770.026001 383.51026
z
" clip-path="url(#peb6c2e0f12)" style="fill: #b71c1c"/>
    <path d="M 770.907063 383.51026
L 770.907063 380.503368
L 778.836614 380.503368
L 778.836614 383.51026
z
" clip-path="url(#peb6c2e0f12)" style="fill: #b71c1c"/>
    <path d="M 779.717676 383.51026
L 779.717676 375.57262
L 787.647227 375.57262
L 787.647227 383.51026
z
" clip-path="url(#peb6c2e0f12)" style="fill: #b71c1c"/>
    <path d="M 788.528288 383.51026
L 788.528288 378.48708
L 796.45784 378.48708
L 796.45784 383.51026
z
" clip-path="url(#peb6c2e0f12)" style="fill: #b71c1c"/>
    <path d="M 797.338901 383.51026
L 797.338901 377.090301
L 805.268453 377.090301
L 805.268453 383.51026
z
" clip-path="url(#peb6c2e0f12)" style="fill: #b71c1c"/>
    <path d="M 806.149514 383.51026
L 806.149514 381.404857
L 814.079066 381.404857
L 814.079066 383.51026
z
" clip-path="url(#peb6c2e0f12)" style="fill: #b71c1c"/>
    <path d="M 814.960127 383.51026
L 814.960127 380.728021
L 822.889678 380.728021
L 822.889678 383.51026
z
" clip-path="url(#peb6c2e0f12)" style="fill: #b71c1c"/>
    <path d="M 823.77074 383.51026
L 823.77074 382.856532
L 831.700291 382.856532
L 831.700291 383.51026
z
" clip-path="url(#peb6c2e0f12)" style="fill: #b71c1c"/>
    <path d="M 832.581352 383.51026
L 832.581352 381.459753
L 840.510904 381.459753
L 840.510904 383.51026
z
" clip-path="url(#peb6c2e0f12)" style="fill: #b71c1c"/>
    <path d="M 841.391965 383.51026
L 841.391965 379.849583
L 849.321517 379.849583
L 849.321517 383.51026
z
" clip-path="url(#peb6c2e0f12)" style="fill: #b71c1c"/>
    <path d="M 850.202578 383.51026
L 850.202578 376.370565
L 858.13213 376.370565
L 858.13213 383.51026
z
" clip-path="url(#peb6c2e0f12)" style="fill: #b71c1c"/>
    <path d="M 859.013191 383.51026
L 859.013191 380.785555
L 866.942742 380.785555
L 866.942742 383.51026
z
" clip-path="url(#peb6c2e0f12)" style="fill: #b71c1c"/>
    <path d="M 867.823804 383.51026
L 867.823804 382.090373
L 875.753355 382.090373
L 875.753355 383.51026
z
" clip-path="url(#peb6c2e0f12)" style="fill: #b71c1c"/>
    <path d="M 876.634417 383.51026
L 876.634417 380.583803
L 884.563968 380.583803
L 884.563968 383.51026
z
" clip-path="url(#peb6c2e0f12)" style="fill: #b71c1c"/>
    <path d="M 885.445029 383.51026
L 885.445029 381.125187
L 893.374581 381.125187
L 893.374581 383.51026
z
" clip-path="url(#peb6c2e0f12)" style="fill: #b71c1c"/>
    <path d="M 894.255642 383.51026
L 894.255642 382.755628
L 902.185194 382.755628
L 902.185194 383.51026
z
" clip-path="url(#peb6c2e0f12)" style="fill: #b71c1c"/>
    <path d="M 903.066255 383.51026
L 903.066255 380.751129
L 910.995807 380.751129
L 910.995807 383.51026
z
" clip-path="url(#peb6c2e0f12)" style="fill: #b71c1c"/>
    <path d="M 911.876868 383.51026
L 911.876868 381.459753
L 919.806419 381.459753
L 919.806419 383.51026
z
" clip-path="url(#peb6c2e0f12)" style="fill: #b71c1c"/>
    <path d="M 920.687481 383.51026
L 920.687481 380.785555
L 928.617032 380.785555
L 928.617032 383.51026
z
" clip-path="url(#peb6c2e0f12)" style="fill: #b71c1c"/>
    <path d="M 929.498094 383.51026
L 929.498094 382.113481
L 937.427645 382.113481
L 937.427645 383.51026
z
" clip-path="url(#peb6c2e0f12)" style="fill: #b71c1c"/>
    <path d="M 938.308706 383.51026
L 938.308706 381.977943
L 946.238258 381.977943
L 946.238258 383.51026
z
" clip-path="url(#peb6c2e0f12)" style="fill: #b71c1c"/>
    <path d="M 947.119319 383.51026
L 947.119319 382.856532
L 955.048871 382.856532
L 955.048871 383.51026
z
" clip-path="url(#peb6c2e0f12)" style="fill: #b71c1c"/>
    <path d="M 964.740545 383.51026
L 964.740545 382.090373
L 972.670096 382.090373
L 972.670096 383.51026
z
" clip-path="url(#peb6c2e0f12)" style="fill: #b71c1c"/>
    <path d="M 973.551158 383.51026
L 973.551158 382.856532
L 981.480709 382.856532
L 981.480709 383.51026
z
" clip-path="url(#peb6c2e0f12)" style="fill: #b71c1c"/>
    <path d="M 982.36177 383.51026
L 982.36177 381.989469
L 990.291322 381.989469
L 990.291322 383.51026
z
" clip-path="url(#peb6c2e0f12)" style="fill: #b71c1c"/>
    <path d="M 1008.793609 383.51026
L 1008.793609 381.234893
L 1016.723161 381.234893
L 1016.723161 383.51026
z
" clip-path="url(#peb6c2e0f12)" style="fill: #b71c1c"/>
    <path d="M 1017.604222 383.51026
L 1017.604222 382.801636
L 1025.533773 382.801636
L 1025.533773 383.51026
z
" clip-path="url(#peb6c2e0f12)" style="fill: #b71c1c"/>
    <path d="M 1026.414835 383.51026
L 1026.414835 382.76721
L 1034.344386 382.76721
L 1034.344386 383.51026
z
" clip-path="url(#peb6c2e0f12)" style="fill: #b71c1c"/>
    <path d="M 1035.225447 383.51026
L 1035.225447 382.856532
L 1043.154999 382.856532
L 1043.154999 383.51026
z
" clip-path="url(#peb6c2e0f12)" style="fill: #b71c1c"/>
    <path d="M 1044.03606 383.51026
L 1044.03606 382.755628
L 1051.965612 382.755628
L 1051.965612 383.51026
z
" clip-path="url(#peb6c2e0f12)" style="fill: #b71c1c"/>
    <path d="M 1052.846673 383.51026
L 1052.846673 382.856532
L 1060.776225 382.856532
L 1060.776225 383.51026
z
" clip-path="url(#peb6c2e0f12)" style="fill: #b71c1c"/>
    <path d="M 1070.467899 383.51026
L 1070.467899 381.494179
L 1078.39745 381.494179
L 1078.39745 383.51026
z
" clip-path="url(#peb6c2e0f12)" style="fill: #b71c1c"/>
    <path d="M 1123.331576 383.51026
L 1123.331576 382.047004
L 1131.261127 382.047004
L 1131.261127 383.51026
z
" clip-path="url(#peb6c2e0f12)" style="fill: #b71c1c"/>
    <path d="M 1176.195253 383.51026
L 1176.195253 382.856532
L 1184.124804 382.856532
L 1184.124804 383.51026
z
" clip-path="url(#peb6c2e0f12)" style="fill: #b71c1c"/>
    <path d="M 1193.816478 383.51026
L 1193.816478 382.76721
L 1201.74603 382.76721
L 1201.74603 383.51026
z
" clip-path="url(#peb6c2e0f12)" style="fill: #b71c1c"/>
    <path d="M 1273.111994 383.51026
L 1273.111994 382.856532
L 1281.041545 382.856532
L 1281.041545 383.51026
z
" clip-path="url(#peb6c2e0f12)" style="fill: #b71c1c"/>
    <path d="M 1299.543832 383.51026
L 1299.543832 382.856532
L 1307.473384 382.856532
L 1307.473384 383.51026
z
" clip-path="url(#peb6c2e0f12)" style="fill: #b71c1c"/>
    <path d="M 1317.165058 383.51026
L 1317.165058 382.755628
L 1325.094609 382.755628
L 1325.094609 383.51026
z
" clip-path="url(#peb6c2e0f12)" style="fill: #b71c1c"/>
    <path d="M 1387.64996 383.51026
L 1387.64996 382.856532
L 1395.579512 382.856532
L 1395.579512 383.51026
z
" clip-path="url(#peb6c2e0f12)" style="fill: #b71c1c"/>
   </g>
   <g id="LineCollection_4">
    <path d="M 365.178342 383.51026
L 365.178342 211.01513
" clip-path="url(#peb6c2e0f12)" style="fill: none; stroke: #808080; stroke-width: 1.417963"/>
   </g>
   <g id="LineCollection_5">
    <path d="M 487.848841 383.51026
L 487.848841 211.01513
" clip-path="url(#peb6c2e0f12)" style="fill: none; stroke-dasharray: 4.590655,1.985148; stroke-dashoffset: 0; stroke: #333333; stroke-width: 1.240718"/>
   </g>
   <g id="LineCollection_6">
    <path d="M 454.144245 383.51026
L 454.144245 211.01513
" clip-path="url(#peb6c2e0f12)" style="fill: none; stroke: #333333; stroke-width: 1.240718"/>
   </g>
   <g id="text_13">
    <g clip-path="url(#peb6c2e0f12)">
     <!-- median: $505  ·  mean: $696 -->
     <g style="fill: #333333" transform="translate(626.162855 243.274031)">
      <text>
       <tspan x="0" y="-0.78125" style="font-size: 8px; font-family: 'IBM Plex Sans'; fill: #333333">m</tspan>
       <tspan x="6.983978" y="-0.78125" style="font-size: 8px; font-family: 'IBM Plex Sans'; fill: #333333">e</tspan>
       <tspan x="11.375961" y="-0.78125" style="font-size: 8px; font-family: 'IBM Plex Sans'; fill: #333333">d</tspan>
       <tspan x="16.015945" y="-0.78125" style="font-size: 8px; font-family: 'IBM Plex Sans'; fill: #333333">i</tspan>
       <tspan x="18.01593" y="-0.78125" style="font-size: 8px; font-family: 'IBM Plex Sans'; fill: #333333">a</tspan>
       <tspan x="22.287918" y="-0.78125" style="font-size: 8px; font-family: 'IBM Plex Sans'; fill: #333333">n</tspan>
       <tspan x="26.831909" y="-0.78125" style="font-size: 8px; font-family: 'IBM Plex Sans'; fill: #333333">:</tspan>
       <tspan x="29.167892" y="-0.78125" style="font-size: 8px; font-family: 'IBM Plex Sans'; fill: #333333"> </tspan>
       <tspan x="76.993378" y="-0.78125" style="font-size: 8px; font-family: 'IBM Plex Sans'; fill: #333333">6</tspan>
       <tspan x="81.793365" y="-0.78125" style="font-size: 8px; font-family: 'IBM Plex Sans'; fill: #333333">9</tspan>
       <tspan x="86.593353" y="-0.78125" style="font-size: 8px; font-family: 'IBM Plex Sans'; fill: #333333">6</tspan>
       <tspan x="31.055878" y="-0.78125" style="font-size: 8px; font-family: 'DejaVu Sans'; fill: #333333">5</tspan>
       <tspan x="36.145721" y="-0.78125" style="font-size: 8px; font-family: 'DejaVu Sans'; fill: #333333">0</tspan>
       <tspan x="41.235565" y="-0.78125" style="font-size: 8px; font-family: 'DejaVu Sans'; fill: #333333">5</tspan>
       <tspan x="45.950409" y="-0.78125" style="font-size: 8px; font-family: 'DejaVu Sans'; fill: #333333">·</tspan>
       <tspan x="72.739471" y="-0.78125" style="font-size: 8px; font-family: 'DejaVu Sans'; fill: #333333">:</tspan>
       <tspan x="48.493378" y="-0.78125" style="font-style: oblique; font-size: 8px; font-family: 'DejaVu Sans'; fill: #333333">m</tspan>
       <tspan x="56.286346" y="-0.78125" style="font-style: oblique; font-size: 8px; font-family: 'DejaVu Sans'; fill: #333333">e</tspan>
       <tspan x="61.208221" y="-0.78125" style="font-style: oblique; font-size: 8px; font-family: 'DejaVu Sans'; fill: #333333">a</tspan>
       <tspan x="66.110565" y="-0.78125" style="font-style: oblique; font-size: 8px; font-family: 'DejaVu Sans'; fill: #333333">n</tspan>
      </text>
     </g>
    </g>
    <g clip-path="url(#peb6c2e0f12)">
     <text style="font-size: 8px; font-family: 'IBM Plex Sans'; fill: #333333" transform="translate(659.281605 251.978031)">98% overpaying</text>
    </g>
   </g>
   <g id="patch_5">
    <path d="M 70.022812 383.51026
L 748.44 383.51026
" style="fill: none; stroke: #000000; stroke-width: 0.5; stroke-linejoin: miter; stroke-linecap: square"/>
   </g>
  </g>
  <g id="axes_3">
   <g id="patch_6">
    <path d="M 70.022813 575.265391
L 748.44 575.265391
L 748.44 402.77026
L 70.022813 402.77026
z
" style="fill: #ffffff"/>
   </g>
   <g id="matplotlib.axis_5">
    <g id="xtick_17"/>
    <g id="xtick_18"/>
    <g id="xtick_19"/>
    <g id="xtick_20"/>
    <g id="xtick_21"/>
    <g id="xtick_22"/>
    <g id="xtick_23"/>
    <g id="xtick_24"/>
   </g>
   <g id="matplotlib.axis_6">
    <g id="ytick_21">
     <g id="line2d_21">
      <path d="M 70.022813 575.265391
L 748.44 575.265391
" clip-path="url(#pa47c506890)" style="fill: none; stroke: #e5e5e5; stroke-linecap: square"/>
     </g>
     <g id="text_14">
      <text style="font-size: 11px; font-family: 'IBM Plex Sans'; text-anchor: start; fill: #4d4d4d" x="61.222813" y="579.335391" transform="rotate(-0 61.222813 579.335391)">0</text>
     </g>
    </g>
    <g id="ytick_22">
     <g id="line2d_22">
      <path d="M 70.022813 543.68056
L 748.44 543.68056
" clip-path="url(#pa47c506890)" style="fill: none; stroke: #e5e5e5; stroke-linecap: square"/>
     </g>
     <g id="text_15">
      <text style="font-size: 11px; font-family: 'IBM Plex Sans'; text-anchor: start; fill: #4d4d4d" x="28.222813" y="547.75056" transform="rotate(-0 28.222813 547.75056)">100000</text>
     </g>
    </g>
    <g id="ytick_23">
     <g id="line2d_23">
      <path d="M 70.022813 512.09573
L 748.44 512.09573
" clip-path="url(#pa47c506890)" style="fill: none; stroke: #e5e5e5; stroke-linecap: square"/>
     </g>
     <g id="text_16">
      <text style="font-size: 11px; font-family: 'IBM Plex Sans'; text-anchor: start; fill: #4d4d4d" x="28.222813" y="516.16573" transform="rotate(-0 28.222813 516.16573)">200000</text>
     </g>
    </g>
    <g id="ytick_24">
     <g id="line2d_24">
      <path d="M 70.022813 480.510899
L 748.44 480.510899
" clip-path="url(#pa47c506890)" style="fill: none; stroke: #e5e5e5; stroke-linecap: square"/>
     </g>
     <g id="text_17">
      <text style="font-size: 11px; font-family: 'IBM Plex Sans'; text-anchor: start; fill: #4d4d4d" x="28.222813" y="484.580899" transform="rotate(-0 28.222813 484.580899)">300000</text>
     </g>
    </g>
    <g id="ytick_25">
     <g id="line2d_25">
      <path d="M 70.022813 448.926069
L 748.44 448.926069
" clip-path="url(#pa47c506890)" style="fill: none; stroke: #e5e5e5; stroke-linecap: square"/>
     </g>
     <g id="text_18">
      <text style="font-size: 11px; font-family: 'IBM Plex Sans'; text-anchor: start; fill: #4d4d4d" x="28.222813" y="452.996069" transform="rotate(-0 28.222813 452.996069)">400000</text>
     </g>
    </g>
    <g id="ytick_26">
     <g id="line2d_26">
      <path d="M 70.022813 417.341238
L 748.44 417.341238
" clip-path="url(#pa47c506890)" style="fill: none; stroke: #e5e5e5; stroke-linecap: square"/>
     </g>
     <g id="text_19">
      <text style="font-size: 11px; font-family: 'IBM Plex Sans'; text-anchor: start; fill: #4d4d4d" x="28.222813" y="421.411238" transform="rotate(-0 28.222813 421.411238)">500000</text>
     </g>
    </g>
    <g id="ytick_27">
     <g id="line2d_27">
      <path d="M 70.022813 559.472975
L 748.44 559.472975
" clip-path="url(#pa47c506890)" style="fill: none; stroke: #fafafa; stroke-width: 0.5; stroke-linecap: square"/>
     </g>
    </g>
    <g id="ytick_28">
     <g id="line2d_28">
      <path d="M 70.022813 527.888145
L 748.44 527.888145
" clip-path="url(#pa47c506890)" style="fill: none; stroke: #fafafa; stroke-width: 0.5; stroke-linecap: square"/>
     </g>
    </g>
    <g id="ytick_29">
     <g id="line2d_29">
      <path d="M 70.022813 496.303315
L 748.44 496.303315
" clip-path="url(#pa47c506890)" style="fill: none; stroke: #fafafa; stroke-width: 0.5; stroke-linecap: square"/>
     </g>
    </g>
    <g id="ytick_30">
     <g id="line2d_30">
      <path d="M 70.022813 464.718484
L 748.44 464.718484
" clip-path="url(#pa47c506890)" style="fill: none; stroke: #fafafa; stroke-width: 0.5; stroke-linecap: square"/>
     </g>
    </g>
    <g id="ytick_31">
     <g id="line2d_31">
      <path d="M 70.022813 433.133654
L 748.44 433.133654
" clip-path="url(#pa47c506890)" style="fill: none; stroke: #fafafa; stroke-width: 0.5; stroke-linecap: square"/>
     </g>
    </g>
   </g>
   <g id="PolyCollection_3">
    <path d="M -189.449735 575.265391
L -189.449735 575.188511
L -181.520184 575.188511
L -181.520184 575.265391
z
" clip-path="url(#pa47c506890)" style="fill: #1b5e20"/>
    <path d="M -136.586058 575.265391
L -136.586058 575.202691
L -128.656507 575.202691
L -128.656507 575.265391
z
" clip-path="url(#pa47c506890)" style="fill: #1b5e20"/>
    <path d="M -127.775445 575.265391
L -127.775445 575.202691
L -119.845894 575.202691
L -119.845894 575.265391
z
" clip-path="url(#pa47c506890)" style="fill: #1b5e20"/>
    <path d="M -92.532994 575.265391
L -92.532994 575.202691
L -84.603443 575.202691
L -84.603443 575.265391
z
" clip-path="url(#pa47c506890)" style="fill: #1b5e20"/>
    <path d="M -57.290543 575.265391
L -57.290543 575.202691
L -49.360991 575.202691
L -49.360991 575.265391
z
" clip-path="url(#pa47c506890)" style="fill: #1b5e20"/>
    <path d="M -48.47993 575.265391
L -48.47993 575.202691
L -40.550378 575.202691
L -40.550378 575.265391
z
" clip-path="url(#pa47c506890)" style="fill: #1b5e20"/>
    <path d="M -39.669317 575.265391
L -39.669317 575.003808
L -31.739766 575.003808
L -31.739766 575.265391
z
" clip-path="url(#pa47c506890)" style="fill: #1b5e20"/>
    <path d="M -30.858704 575.265391
L -30.858704 575.202691
L -22.929153 575.202691
L -22.929153 575.265391
z
" clip-path="url(#pa47c506890)" style="fill: #1b5e20"/>
    <path d="M -13.237479 575.265391
L -13.237479 575.139991
L -5.307927 575.139991
L -5.307927 575.265391
z
" clip-path="url(#pa47c506890)" style="fill: #1b5e20"/>
    <path d="M -4.426866 575.265391
L -4.426866 575.057936
L 3.502686 575.057936
L 3.502686 575.265391
z
" clip-path="url(#pa47c506890)" style="fill: #1b5e20"/>
    <path d="M 4.383747 575.265391
L 4.383747 575.077291
L 12.313298 575.077291
L 12.313298 575.265391
z
" clip-path="url(#pa47c506890)" style="fill: #1b5e20"/>
    <path d="M 13.19436 575.265391
L 13.19436 575.077291
L 21.123911 575.077291
L 21.123911 575.265391
z
" clip-path="url(#pa47c506890)" style="fill: #1b5e20"/>
    <path d="M 22.004973 575.265391
L 22.004973 574.951892
L 29.934524 574.951892
L 29.934524 575.265391
z
" clip-path="url(#pa47c506890)" style="fill: #1b5e20"/>
    <path d="M 30.815585 575.265391
L 30.815585 574.869842
L 38.745137 574.869842
L 38.745137 575.265391
z
" clip-path="url(#pa47c506890)" style="fill: #1b5e20"/>
    <path d="M 39.626198 575.265391
L 39.626198 574.951892
L 47.55575 574.951892
L 47.55575 575.265391
z
" clip-path="url(#pa47c506890)" style="fill: #1b5e20"/>
    <path d="M 48.436811 575.265391
L 48.436811 575.077291
L 56.366363 575.077291
L 56.366363 575.265391
z
" clip-path="url(#pa47c506890)" style="fill: #1b5e20"/>
    <path d="M 57.247424 575.265391
L 57.247424 574.80023
L 65.176975 574.80023
L 65.176975 575.265391
z
" clip-path="url(#pa47c506890)" style="fill: #1b5e20"/>
    <path d="M 66.058037 575.265391
L 66.058037 574.889192
L 73.987588 574.889192
L 73.987588 575.265391
z
" clip-path="url(#pa47c506890)" style="fill: #1b5e20"/>
    <path d="M 74.86865 575.265391
L 74.86865 574.889192
L 82.798201 574.889192
L 82.798201 575.265391
z
" clip-path="url(#pa47c506890)" style="fill: #1b5e20"/>
    <path d="M 83.679262 575.265391
L 83.679262 574.870947
L 91.608814 574.870947
L 91.608814 575.265391
z
" clip-path="url(#pa47c506890)" style="fill: #1b5e20"/>
    <path d="M 92.489875 575.265391
L 92.489875 574.755225
L 100.419427 574.755225
L 100.419427 575.265391
z
" clip-path="url(#pa47c506890)" style="fill: #1b5e20"/>
    <path d="M 101.300488 575.265391
L 101.300488 574.872058
L 109.23004 574.872058
L 109.23004 575.265391
z
" clip-path="url(#pa47c506890)" style="fill: #1b5e20"/>
    <path d="M 110.111101 575.265391
L 110.111101 574.301934
L 118.040652 574.301934
L 118.040652 575.265391
z
" clip-path="url(#pa47c506890)" style="fill: #1b5e20"/>
    <path d="M 118.921714 575.265391
L 118.921714 573.894957
L 126.851265 573.894957
L 126.851265 575.265391
z
" clip-path="url(#pa47c506890)" style="fill: #1b5e20"/>
    <path d="M 127.732327 575.265391
L 127.732327 573.688399
L 135.661878 573.688399
L 135.661878 575.265391
z
" clip-path="url(#pa47c506890)" style="fill: #1b5e20"/>
    <path d="M 136.542939 575.265391
L 136.542939 573.334277
L 144.472491 573.334277
L 144.472491 575.265391
z
" clip-path="url(#pa47c506890)" style="fill: #1b5e20"/>
    <path d="M 145.353552 575.265391
L 145.353552 573.713138
L 153.283104 573.713138
L 153.283104 575.265391
z
" clip-path="url(#pa47c506890)" style="fill: #1b5e20"/>
    <path d="M 154.164165 575.265391
L 154.164165 573.205257
L 162.093717 573.205257
L 162.093717 575.265391
z
" clip-path="url(#pa47c506890)" style="fill: #1b5e20"/>
    <path d="M 162.974778 575.265391
L 162.974778 573.239184
L 170.904329 573.239184
L 170.904329 575.265391
z
" clip-path="url(#pa47c506890)" style="fill: #1b5e20"/>
    <path d="M 171.785391 575.265391
L 171.785391 572.785696
L 179.714942 572.785696
L 179.714942 575.265391
z
" clip-path="url(#pa47c506890)" style="fill: #1b5e20"/>
    <path d="M 180.596003 575.265391
L 180.596003 572.551306
L 188.525555 572.551306
L 188.525555 575.265391
z
" clip-path="url(#pa47c506890)" style="fill: #1b5e20"/>
    <path d="M 189.406616 575.265391
L 189.406616 571.300033
L 197.336168 571.300033
L 197.336168 575.265391
z
" clip-path="url(#pa47c506890)" style="fill: #1b5e20"/>
    <path d="M 198.217229 575.265391
L 198.217229 571.084621
L 206.146781 571.084621
L 206.146781 575.265391
z
" clip-path="url(#pa47c506890)" style="fill: #1b5e20"/>
    <path d="M 207.027842 575.265391
L 207.027842 570.175073
L 214.957393 570.175073
L 214.957393 575.265391
z
" clip-path="url(#pa47c506890)" style="fill: #1b5e20"/>
    <path d="M 215.838455 575.265391
L 215.838455 569.21505
L 223.768006 569.21505
L 223.768006 575.265391
z
" clip-path="url(#pa47c506890)" style="fill: #1b5e20"/>
    <path d="M 224.649068 575.265391
L 224.649068 567.479284
L 232.578619 567.479284
L 232.578619 575.265391
z
" clip-path="url(#pa47c506890)" style="fill: #1b5e20"/>
    <path d="M 233.45968 575.265391
L 233.45968 565.720907
L 241.389232 565.720907
L 241.389232 575.265391
z
" clip-path="url(#pa47c506890)" style="fill: #1b5e20"/>
    <path d="M 242.270293 575.265391
L 242.270293 564.893702
L 250.199845 564.893702
L 250.199845 575.265391
z
" clip-path="url(#pa47c506890)" style="fill: #1b5e20"/>
    <path d="M 251.080906 575.265391
L 251.080906 562.447135
L 259.010458 562.447135
L 259.010458 575.265391
z
" clip-path="url(#pa47c506890)" style="fill: #1b5e20"/>
    <path d="M 259.891519 575.265391
L 259.891519 560.74319
L 267.82107 560.74319
L 267.82107 575.265391
z
" clip-path="url(#pa47c506890)" style="fill: #1b5e20"/>
    <path d="M 268.702132 575.265391
L 268.702132 558.290615
L 276.631683 558.290615
L 276.631683 575.265391
z
" clip-path="url(#pa47c506890)" style="fill: #1b5e20"/>
    <path d="M 277.512745 575.265391
L 277.512745 551.748944
L 285.442296 551.748944
L 285.442296 575.265391
z
" clip-path="url(#pa47c506890)" style="fill: #1b5e20"/>
    <path d="M 286.323357 575.265391
L 286.323357 547.274576
L 294.252909 547.274576
L 294.252909 575.265391
z
" clip-path="url(#pa47c506890)" style="fill: #1b5e20"/>
    <path d="M 295.13397 575.265391
L 295.13397 544.184106
L 303.063522 544.184106
L 303.063522 575.265391
z
" clip-path="url(#pa47c506890)" style="fill: #1b5e20"/>
    <path d="M 303.944583 575.265391
L 303.944583 537.149099
L 311.874135 537.149099
L 311.874135 575.265391
z
" clip-path="url(#pa47c506890)" style="fill: #1b5e20"/>
    <path d="M 312.755196 575.265391
L 312.755196 530.670361
L 320.684747 530.670361
L 320.684747 575.265391
z
" clip-path="url(#pa47c506890)" style="fill: #1b5e20"/>
    <path d="M 321.565809 575.265391
L 321.565809 520.468551
L 329.49536 520.468551
L 329.49536 575.265391
z
" clip-path="url(#pa47c506890)" style="fill: #1b5e20"/>
    <path d="M 330.376421 575.265391
L 330.376421 507.96151
L 338.305973 507.96151
L 338.305973 575.265391
z
" clip-path="url(#pa47c506890)" style="fill: #1b5e20"/>
    <path d="M 339.187034 575.265391
L 339.187034 493.383703
L 347.116586 493.383703
L 347.116586 575.265391
z
" clip-path="url(#pa47c506890)" style="fill: #1b5e20"/>
    <path d="M 347.997647 575.265391
L 347.997647 477.450329
L 355.927199 477.450329
L 355.927199 575.265391
z
" clip-path="url(#pa47c506890)" style="fill: #1b5e20"/>
    <path d="M 356.80826 575.265391
L 356.80826 459.336941
L 364.737811 459.336941
L 364.737811 575.265391
z
" clip-path="url(#pa47c506890)" style="fill: #1b5e20"/>
    <path d="M 365.618873 575.265391
L 365.618873 439.716105
L 373.548424 439.716105
L 373.548424 575.265391
z
" clip-path="url(#pa47c506890)" style="fill: #b71c1c"/>
    <path d="M 374.429486 575.265391
L 374.429486 426.998288
L 382.359037 426.998288
L 382.359037 575.265391
z
" clip-path="url(#pa47c506890)" style="fill: #b71c1c"/>
    <path d="M 383.240098 575.265391
L 383.240098 425.269625
L 391.16965 425.269625
L 391.16965 575.265391
z
" clip-path="url(#pa47c506890)" style="fill: #b71c1c"/>
    <path d="M 392.050711 575.265391
L 392.050711 455.067481
L 399.980263 455.067481
L 399.980263 575.265391
z
" clip-path="url(#pa47c506890)" style="fill: #b71c1c"/>
    <path d="M 400.861324 575.265391
L 400.861324 499.509689
L 408.790876 499.509689
L 408.790876 575.265391
z
" clip-path="url(#pa47c506890)" style="fill: #b71c1c"/>
    <path d="M 409.671937 575.265391
L 409.671937 552.798898
L 417.601488 552.798898
L 417.601488 575.265391
z
" clip-path="url(#pa47c506890)" style="fill: #b71c1c"/>
    <path d="M 418.48255 575.265391
L 418.48255 567.514434
L 426.412101 567.514434
L 426.412101 575.265391
z
" clip-path="url(#pa47c506890)" style="fill: #b71c1c"/>
    <path d="M 427.293163 575.265391
L 427.293163 572.015006
L 435.222714 572.015006
L 435.222714 575.265391
z
" clip-path="url(#pa47c506890)" style="fill: #b71c1c"/>
    <path d="M 436.103775 575.265391
L 436.103775 574.13031
L 444.033327 574.13031
L 444.033327 575.265391
z
" clip-path="url(#pa47c506890)" style="fill: #b71c1c"/>
    <path d="M 444.914388 575.265391
L 444.914388 574.337765
L 452.84394 574.337765
L 452.84394 575.265391
z
" clip-path="url(#pa47c506890)" style="fill: #b71c1c"/>
    <path d="M 453.725001 575.265391
L 453.725001 574.755916
L 461.654553 574.755916
L 461.654553 575.265391
z
" clip-path="url(#pa47c506890)" style="fill: #b71c1c"/>
    <path d="M 462.535614 575.265391
L 462.535614 574.58694
L 470.465165 574.58694
L 470.465165 575.265391
z
" clip-path="url(#pa47c506890)" style="fill: #b71c1c"/>
    <path d="M 471.346227 575.265391
L 471.346227 575.044941
L 479.275778 575.044941
L 479.275778 575.265391
z
" clip-path="url(#pa47c506890)" style="fill: #b71c1c"/>
    <path d="M 480.156839 575.265391
L 480.156839 575.129208
L 488.086391 575.129208
L 488.086391 575.265391
z
" clip-path="url(#pa47c506890)" style="fill: #b71c1c"/>
    <path d="M 488.967452 575.265391
L 488.967452 575.044941
L 496.897004 575.044941
L 496.897004 575.265391
z
" clip-path="url(#pa47c506890)" style="fill: #b71c1c"/>
    <path d="M 497.778065 575.265391
L 497.778065 574.998543
L 505.707617 574.998543
L 505.707617 575.265391
z
" clip-path="url(#pa47c506890)" style="fill: #b71c1c"/>
    <path d="M 506.588678 575.265391
L 506.588678 575.193013
L 514.51823 575.193013
L 514.51823 575.265391
z
" clip-path="url(#pa47c506890)" style="fill: #b71c1c"/>
    <path d="M 515.399291 575.265391
L 515.399291 574.993025
L 523.328842 574.993025
L 523.328842 575.265391
z
" clip-path="url(#pa47c506890)" style="fill: #b71c1c"/>
    <path d="M 524.209904 575.265391
L 524.209904 574.993025
L 532.139455 574.993025
L 532.139455 575.265391
z
" clip-path="url(#pa47c506890)" style="fill: #b71c1c"/>
    <path d="M 533.020516 575.265391
L 533.020516 575.111513
L 540.950068 575.111513
L 540.950068 575.265391
z
" clip-path="url(#pa47c506890)" style="fill: #b71c1c"/>
    <path d="M 541.831129 575.265391
L 541.831129 575.139991
L 549.760681 575.139991
L 549.760681 575.265391
z
" clip-path="url(#pa47c506890)" style="fill: #b71c1c"/>
    <path d="M 550.641742 575.265391
L 550.641742 575.129208
L 558.571294 575.129208
L 558.571294 575.265391
z
" clip-path="url(#pa47c506890)" style="fill: #b71c1c"/>
    <path d="M 559.452355 575.265391
L 559.452355 575.184996
L 567.381906 575.184996
L 567.381906 575.265391
z
" clip-path="url(#pa47c506890)" style="fill: #b71c1c"/>
    <path d="M 594.694806 575.265391
L 594.694806 575.202691
L 602.624358 575.202691
L 602.624358 575.265391
z
" clip-path="url(#pa47c506890)" style="fill: #b71c1c"/>
    <path d="M 638.74787 575.265391
L 638.74787 575.202691
L 646.677422 575.202691
L 646.677422 575.265391
z
" clip-path="url(#pa47c506890)" style="fill: #b71c1c"/>
    <path d="M 718.043386 575.265391
L 718.043386 575.202691
L 725.972937 575.202691
L 725.972937 575.265391
z
" clip-path="url(#pa47c506890)" style="fill: #b71c1c"/>
    <path d="M 770.907063 575.265391
L 770.907063 575.202691
L 778.836614 575.202691
L 778.836614 575.265391
z
" clip-path="url(#pa47c506890)" style="fill: #b71c1c"/>
    <path d="M 806.149514 575.265391
L 806.149514 575.202691
L 814.079066 575.202691
L 814.079066 575.265391
z
" clip-path="url(#pa47c506890)" style="fill: #b71c1c"/>
    <path d="M 929.498094 575.265391
L 929.498094 575.202691
L 937.427645 575.202691
L 937.427645 575.265391
z
" clip-path="url(#pa47c506890)" style="fill: #b71c1c"/>
    <path d="M 947.119319 575.265391
L 947.119319 575.202691
L 955.048871 575.202691
L 955.048871 575.265391
z
" clip-path="url(#pa47c506890)" style="fill: #b71c1c"/>
   </g>
   <g id="LineCollection_7">
    <path d="M 365.178342 575.265391
L 365.178342 402.77026
" clip-path="url(#pa47c506890)" style="fill: none; stroke: #808080; stroke-width: 1.417963"/>
   </g>
   <g id="LineCollection_8">
    <path d="M 350.949405 575.265391
L 350.949405 402.77026
" clip-path="url(#pa47c506890)" style="fill: none; stroke-dasharray: 4.590655,1.985148; stroke-dashoffset: 0; stroke: #333333; stroke-width: 1.240718"/>
   </g>
   <g id="LineCollection_9">
    <path d="M 364.286708 575.265391
L 364.286708 402.77026
" clip-path="url(#pa47c506890)" style="fill: none; stroke: #333333; stroke-width: 1.240718"/>
   </g>
   <g id="text_20">
    <g clip-path="url(#pa47c506890)">
     <!-- median: $-5  ·  mean: $-81 -->
     <g style="fill: #333333" transform="translate(631.202855 435.029161)">
      <text>
       <tspan x="0" y="-0.78125" style="font-size: 8px; font-family: 'IBM Plex Sans'; fill: #333333">m</tspan>
       <tspan x="6.983978" y="-0.78125" style="font-size: 8px; font-family: 'IBM Plex Sans'; fill: #333333">e</tspan>
       <tspan x="11.375961" y="-0.78125" style="font-size: 8px; font-family: 'IBM Plex Sans'; fill: #333333">d</tspan>
       <tspan x="16.015945" y="-0.78125" style="font-size: 8px; font-family: 'IBM Plex Sans'; fill: #333333">i</tspan>
       <tspan x="18.01593" y="-0.78125" style="font-size: 8px; font-family: 'IBM Plex Sans'; fill: #333333">a</tspan>
       <tspan x="22.287918" y="-0.78125" style="font-size: 8px; font-family: 'IBM Plex Sans'; fill: #333333">n</tspan>
       <tspan x="26.831909" y="-0.78125" style="font-size: 8px; font-family: 'IBM Plex Sans'; fill: #333333">:</tspan>
       <tspan x="29.167892" y="-0.78125" style="font-size: 8px; font-family: 'IBM Plex Sans'; fill: #333333"> </tspan>
       <tspan x="73.516815" y="-0.78125" style="font-size: 8px; font-family: 'IBM Plex Sans'; fill: #333333">-</tspan>
       <tspan x="76.708801" y="-0.78125" style="font-size: 8px; font-family: 'IBM Plex Sans'; fill: #333333">8</tspan>
       <tspan x="81.508789" y="-0.78125" style="font-size: 8px; font-family: 'IBM Plex Sans'; fill: #333333">1</tspan>
       <tspan x="31.055878" y="-0.78125" style="font-size: 8px; font-family: 'DejaVu Sans'; fill: #333333">−</tspan>
       <tspan x="37.759003" y="-0.78125" style="font-size: 8px; font-family: 'DejaVu Sans'; fill: #333333">5</tspan>
       <tspan x="42.473846" y="-0.78125" style="font-size: 8px; font-family: 'DejaVu Sans'; fill: #333333">·</tspan>
       <tspan x="69.262909" y="-0.78125" style="font-size: 8px; font-family: 'DejaVu Sans'; fill: #333333">:</tspan>
       <tspan x="45.016815" y="-0.78125" style="font-style: oblique; font-size: 8px; font-family: 'DejaVu Sans'; fill: #333333">m</tspan>
       <tspan x="52.809784" y="-0.78125" style="font-style: oblique; font-size: 8px; font-family: 'DejaVu Sans'; fill: #333333">e</tspan>
       <tspan x="57.731659" y="-0.78125" style="font-style: oblique; font-size: 8px; font-family: 'DejaVu Sans'; fill: #333333">a</tspan>
       <tspan x="62.634003" y="-0.78125" style="font-style: oblique; font-size: 8px; font-family: 'DejaVu Sans'; fill: #333333">n</tspan>
      </text>
     </g>
    </g>
    <g clip-path="url(#pa47c506890)">
     <text style="font-size: 8px; font-family: 'IBM Plex Sans'; fill: #333333" transform="translate(659.281605 443.733161)">49% overpaying</text>
    </g>
   </g>
   <g id="patch_7">
    <path d="M 70.022812 575.265391
L 748.44 575.265391
" style="fill: none; stroke: #000000; stroke-width: 0.5; stroke-linejoin: miter; stroke-linecap: square"/>
   </g>
  </g>
  <g id="axes_4">
   <g id="patch_8">
    <path d="M 70.022813 767.020521
L 748.44 767.020521
L 748.44 594.525391
L 70.022813 594.525391
z
" style="fill: #ffffff"/>
   </g>
   <g id="matplotlib.axis_7">
    <g id="xtick_25">
     <g id="line2d_32">
      <path d="M 188.966086 767.020521
" style="fill: none; stroke: #000000; stroke-width: 1.5; stroke-linecap: square"/>
      <defs>
       <path id="m4056e029fd" d="M 0 0
L 0 2.75
" style="stroke: #000000"/>
      </defs>
      <g>
       <use xlink:href="#m4056e029fd" x="188.966086" y="767.020521" style="stroke: #000000"/>
      </g>
     </g>
     <g id="text_21">
      <text style="font-size: 11px; font-family: 'IBM Plex Sans'; text-anchor: middle; fill: #4d4d4d" x="188.966086" y="780.110521" transform="rotate(-0 188.966086 780.110521)">-1000</text>
     </g>
    </g>
    <g id="xtick_26">
     <g id="line2d_33">
      <path d="M 365.178342 767.020521
" style="fill: none; stroke: #000000; stroke-width: 1.5; stroke-linecap: square"/>
      <g>
       <use xlink:href="#m4056e029fd" x="365.178342" y="767.020521" style="stroke: #000000"/>
      </g>
     </g>
     <g id="text_22">
      <text style="font-size: 11px; font-family: 'IBM Plex Sans'; text-anchor: middle; fill: #4d4d4d" x="365.178342" y="780.110521" transform="rotate(-0 365.178342 780.110521)">0</text>
     </g>
    </g>
    <g id="xtick_27">
     <g id="line2d_34">
      <path d="M 541.390599 767.020521
" style="fill: none; stroke: #000000; stroke-width: 1.5; stroke-linecap: square"/>
      <g>
       <use xlink:href="#m4056e029fd" x="541.390599" y="767.020521" style="stroke: #000000"/>
      </g>
     </g>
     <g id="text_23">
      <text style="font-size: 11px; font-family: 'IBM Plex Sans'; text-anchor: middle; fill: #4d4d4d" x="541.390599" y="780.110521" transform="rotate(-0 541.390599 780.110521)">1000</text>
     </g>
    </g>
    <g id="xtick_28">
     <g id="line2d_35">
      <path d="M 717.602855 767.020521
" style="fill: none; stroke: #000000; stroke-width: 1.5; stroke-linecap: square"/>
      <g>
       <use xlink:href="#m4056e029fd" x="717.602855" y="767.020521" style="stroke: #000000"/>
      </g>
     </g>
     <g id="text_24">
      <text style="font-size: 11px; font-family: 'IBM Plex Sans'; text-anchor: middle; fill: #4d4d4d" x="717.602855" y="780.110521" transform="rotate(-0 717.602855 780.110521)">2000</text>
     </g>
    </g>
    <g id="xtick_29">
     <g id="line2d_36">
      <path d="M 100.859957 767.020521
" style="fill: none; stroke: #000000; stroke-width: 1.5; stroke-linecap: square"/>
      <defs>
       <path id="m1058ef8e55" d="M 0 0
L 0 1.375
" style="stroke: #000000"/>
      </defs>
      <g>
       <use xlink:href="#m1058ef8e55" x="100.859957" y="767.020521" style="stroke: #000000"/>
      </g>
     </g>
    </g>
    <g id="xtick_30">
     <g id="line2d_37">
      <path d="M 277.072214 767.020521
" style="fill: none; stroke: #000000; stroke-width: 1.5; stroke-linecap: square"/>
      <g>
       <use xlink:href="#m1058ef8e55" x="277.072214" y="767.020521" style="stroke: #000000"/>
      </g>
     </g>
    </g>
    <g id="xtick_31">
     <g id="line2d_38">
      <path d="M 453.28447 767.020521
" style="fill: none; stroke: #000000; stroke-width: 1.5; stroke-linecap: square"/>
      <g>
       <use xlink:href="#m1058ef8e55" x="453.28447" y="767.020521" style="stroke: #000000"/>
      </g>
     </g>
    </g>
    <g id="xtick_32">
     <g id="line2d_39">
      <path d="M 629.496727 767.020521
" style="fill: none; stroke: #000000; stroke-width: 1.5; stroke-linecap: square"/>
      <g>
       <use xlink:href="#m1058ef8e55" x="629.496727" y="767.020521" style="stroke: #000000"/>
      </g>
     </g>
    </g>
   </g>
   <g id="matplotlib.axis_8">
    <g id="ytick_32">
     <g id="line2d_40">
      <path d="M 70.022813 767.020521
L 748.44 767.020521
" clip-path="url(#p7387d930b7)" style="fill: none; stroke: #e5e5e5; stroke-linecap: square"/>
     </g>
     <g id="text_25">
      <text style="font-size: 11px; font-family: 'IBM Plex Sans'; text-anchor: start; fill: #4d4d4d" x="61.222813" y="771.090521" transform="rotate(-0 61.222813 771.090521)">0</text>
     </g>
    </g>
    <g id="ytick_33">
     <g id="line2d_41">
      <path d="M 70.022813 723.07434
L 748.44 723.07434
" clip-path="url(#p7387d930b7)" style="fill: none; stroke: #e5e5e5; stroke-linecap: square"/>
     </g>
     <g id="text_26">
      <text style="font-size: 11px; font-family: 'IBM Plex Sans'; text-anchor: start; fill: #4d4d4d" x="34.822813" y="727.14434" transform="rotate(-0 34.822813 727.14434)">50000</text>
     </g>
    </g>
    <g id="ytick_34">
     <g id="line2d_42">
      <path d="M 70.022813 679.12816
L 748.44 679.12816
" clip-path="url(#p7387d930b7)" style="fill: none; stroke: #e5e5e5; stroke-linecap: square"/>
     </g>
     <g id="text_27">
      <text style="font-size: 11px; font-family: 'IBM Plex Sans'; text-anchor: start; fill: #4d4d4d" x="28.222813" y="683.19816" transform="rotate(-0 28.222813 683.19816)">100000</text>
     </g>
    </g>
    <g id="ytick_35">
     <g id="line2d_43">
      <path d="M 70.022813 635.18198
L 748.44 635.18198
" clip-path="url(#p7387d930b7)" style="fill: none; stroke: #e5e5e5; stroke-linecap: square"/>
     </g>
     <g id="text_28">
      <text style="font-size: 11px; font-family: 'IBM Plex Sans'; text-anchor: start; fill: #4d4d4d" x="28.222813" y="639.25198" transform="rotate(-0 28.222813 639.25198)">150000</text>
     </g>
    </g>
    <g id="ytick_36">
     <g id="line2d_44">
      <path d="M 70.022813 745.047431
L 748.44 745.047431
" clip-path="url(#p7387d930b7)" style="fill: none; stroke: #fafafa; stroke-width: 0.5; stroke-linecap: square"/>
     </g>
    </g>
    <g id="ytick_37">
     <g id="line2d_45">
      <path d="M 70.022813 701.10125
L 748.44 701.10125
" clip-path="url(#p7387d930b7)" style="fill: none; stroke: #fafafa; stroke-width: 0.5; stroke-linecap: square"/>
     </g>
    </g>
    <g id="ytick_38">
     <g id="line2d_46">
      <path d="M 70.022813 657.15507
L 748.44 657.15507
" clip-path="url(#p7387d930b7)" style="fill: none; stroke: #fafafa; stroke-width: 0.5; stroke-linecap: square"/>
     </g>
    </g>
    <g id="ytick_39">
     <g id="line2d_47">
      <path d="M 70.022813 613.208889
L 748.44 613.208889
" clip-path="url(#p7387d930b7)" style="fill: none; stroke: #fafafa; stroke-width: 0.5; stroke-linecap: square"/>
     </g>
    </g>
   </g>
   <g id="PolyCollection_4">
    <path d="M -127.775445 767.020521
L -127.775445 766.846044
L -119.845894 766.846044
L -119.845894 767.020521
z
" clip-path="url(#p7387d930b7)" style="fill: #1b5e20"/>
    <path d="M -74.911768 767.020521
L -74.911768 766.819113
L -66.982217 766.819113
L -66.982217 767.020521
z
" clip-path="url(#p7387d930b7)" style="fill: #1b5e20"/>
    <path d="M -39.669317 767.020521
L -39.669317 766.846044
L -31.739766 766.846044
L -31.739766 767.020521
z
" clip-path="url(#p7387d930b7)" style="fill: #1b5e20"/>
    <path d="M -22.048092 767.020521
L -22.048092 766.846044
L -14.11854 766.846044
L -14.11854 767.020521
z
" clip-path="url(#p7387d930b7)" style="fill: #1b5e20"/>
    <path d="M -13.237479 767.020521
L -13.237479 766.846044
L -5.307927 766.846044
L -5.307927 767.020521
z
" clip-path="url(#p7387d930b7)" style="fill: #1b5e20"/>
    <path d="M 4.383747 767.020521
L 4.383747 766.846044
L 12.313298 766.846044
L 12.313298 767.020521
z
" clip-path="url(#p7387d930b7)" style="fill: #1b5e20"/>
    <path d="M 13.19436 767.020521
L 13.19436 766.644636
L 21.123911 766.644636
L 21.123911 767.020521
z
" clip-path="url(#p7387d930b7)" style="fill: #1b5e20"/>
    <path d="M 22.004973 767.020521
L 22.004973 766.641559
L 29.934524 766.641559
L 29.934524 767.020521
z
" clip-path="url(#p7387d930b7)" style="fill: #1b5e20"/>
    <path d="M 30.815585 767.020521
L 30.815585 766.307961
L 38.745137 766.307961
L 38.745137 767.020521
z
" clip-path="url(#p7387d930b7)" style="fill: #1b5e20"/>
    <path d="M 39.626198 767.020521
L 39.626198 766.822204
L 47.55575 766.822204
L 47.55575 767.020521
z
" clip-path="url(#p7387d930b7)" style="fill: #1b5e20"/>
    <path d="M 48.436811 767.020521
L 48.436811 766.846044
L 56.366363 766.846044
L 56.366363 767.020521
z
" clip-path="url(#p7387d930b7)" style="fill: #1b5e20"/>
    <path d="M 57.247424 767.020521
L 57.247424 766.819113
L 65.176975 766.819113
L 65.176975 767.020521
z
" clip-path="url(#p7387d930b7)" style="fill: #1b5e20"/>
    <path d="M 66.058037 767.020521
L 66.058037 766.238758
L 73.987588 766.238758
L 73.987588 767.020521
z
" clip-path="url(#p7387d930b7)" style="fill: #1b5e20"/>
    <path d="M 74.86865 767.020521
L 74.86865 766.846044
L 82.798201 766.846044
L 82.798201 767.020521
z
" clip-path="url(#p7387d930b7)" style="fill: #1b5e20"/>
    <path d="M 83.679262 767.020521
L 83.679262 766.796802
L 91.608814 766.796802
L 91.608814 767.020521
z
" clip-path="url(#p7387d930b7)" style="fill: #1b5e20"/>
    <path d="M 92.489875 767.020521
L 92.489875 766.458598
L 100.419427 766.458598
L 100.419427 767.020521
z
" clip-path="url(#p7387d930b7)" style="fill: #1b5e20"/>
    <path d="M 101.300488 767.020521
L 101.300488 766.06119
L 109.23004 766.06119
L 109.23004 767.020521
z
" clip-path="url(#p7387d930b7)" style="fill: #1b5e20"/>
    <path d="M 110.111101 767.020521
L 110.111101 765.870555
L 118.040652 765.870555
L 118.040652 767.020521
z
" clip-path="url(#p7387d930b7)" style="fill: #1b5e20"/>
    <path d="M 118.921714 767.020521
L 118.921714 764.918883
L 126.851265 764.918883
L 126.851265 767.020521
z
" clip-path="url(#p7387d930b7)" style="fill: #1b5e20"/>
    <path d="M 127.732327 767.020521
L 127.732327 766.103477
L 135.661878 766.103477
L 135.661878 767.020521
z
" clip-path="url(#p7387d930b7)" style="fill: #1b5e20"/>
    <path d="M 136.542939 767.020521
L 136.542939 765.499267
L 144.472491 765.499267
L 144.472491 767.020521
z
" clip-path="url(#p7387d930b7)" style="fill: #1b5e20"/>
    <path d="M 145.353552 767.020521
L 145.353552 765.902068
L 153.283104 765.902068
L 153.283104 767.020521
z
" clip-path="url(#p7387d930b7)" style="fill: #1b5e20"/>
    <path d="M 154.164165 767.020521
L 154.164165 764.880377
L 162.093717 764.880377
L 162.093717 767.020521
z
" clip-path="url(#p7387d930b7)" style="fill: #1b5e20"/>
    <path d="M 162.974778 767.020521
L 162.974778 765.827458
L 170.904329 765.827458
L 170.904329 767.020521
z
" clip-path="url(#p7387d930b7)" style="fill: #1b5e20"/>
    <path d="M 171.785391 767.020521
L 171.785391 763.78553
L 179.714942 763.78553
L 179.714942 767.020521
z
" clip-path="url(#p7387d930b7)" style="fill: #1b5e20"/>
    <path d="M 180.596003 767.020521
L 180.596003 762.224503
L 188.525555 762.224503
L 188.525555 767.020521
z
" clip-path="url(#p7387d930b7)" style="fill: #1b5e20"/>
    <path d="M 189.406616 767.020521
L 189.406616 760.555168
L 197.336168 760.555168
L 197.336168 767.020521
z
" clip-path="url(#p7387d930b7)" style="fill: #1b5e20"/>
    <path d="M 198.217229 767.020521
L 198.217229 760.584695
L 206.146781 760.584695
L 206.146781 767.020521
z
" clip-path="url(#p7387d930b7)" style="fill: #1b5e20"/>
    <path d="M 207.027842 767.020521
L 207.027842 757.923399
L 214.957393 757.923399
L 214.957393 767.020521
z
" clip-path="url(#p7387d930b7)" style="fill: #1b5e20"/>
    <path d="M 215.838455 767.020521
L 215.838455 757.777512
L 223.768006 757.777512
L 223.768006 767.020521
z
" clip-path="url(#p7387d930b7)" style="fill: #1b5e20"/>
    <path d="M 224.649068 767.020521
L 224.649068 757.115907
L 232.578619 757.115907
L 232.578619 767.020521
z
" clip-path="url(#p7387d930b7)" style="fill: #1b5e20"/>
    <path d="M 233.45968 767.020521
L 233.45968 753.764116
L 241.389232 753.764116
L 241.389232 767.020521
z
" clip-path="url(#p7387d930b7)" style="fill: #1b5e20"/>
    <path d="M 242.270293 767.020521
L 242.270293 753.165822
L 250.199845 753.165822
L 250.199845 767.020521
z
" clip-path="url(#p7387d930b7)" style="fill: #1b5e20"/>
    <path d="M 251.080906 767.020521
L 251.080906 749.225299
L 259.010458 749.225299
L 259.010458 767.020521
z
" clip-path="url(#p7387d930b7)" style="fill: #1b5e20"/>
    <path d="M 259.891519 767.020521
L 259.891519 747.504142
L 267.82107 747.504142
L 267.82107 767.020521
z
" clip-path="url(#p7387d930b7)" style="fill: #1b5e20"/>
    <path d="M 268.702132 767.020521
L 268.702132 739.210859
L 276.631683 739.210859
L 276.631683 767.020521
z
" clip-path="url(#p7387d930b7)" style="fill: #1b5e20"/>
    <path d="M 277.512745 767.020521
L 277.512745 739.576307
L 285.442296 739.576307
L 285.442296 767.020521
z
" clip-path="url(#p7387d930b7)" style="fill: #1b5e20"/>
    <path d="M 286.323357 767.020521
L 286.323357 734.86049
L 294.252909 734.86049
L 294.252909 767.020521
z
" clip-path="url(#p7387d930b7)" style="fill: #1b5e20"/>
    <path d="M 295.13397 767.020521
L 295.13397 729.280973
L 303.063522 729.280973
L 303.063522 767.020521
z
" clip-path="url(#p7387d930b7)" style="fill: #1b5e20"/>
    <path d="M 303.944583 767.020521
L 303.944583 720.200968
L 311.874135 720.200968
L 311.874135 767.020521
z
" clip-path="url(#p7387d930b7)" style="fill: #1b5e20"/>
    <path d="M 312.755196 767.020521
L 312.755196 708.13392
L 320.684747 708.13392
L 320.684747 767.020521
z
" clip-path="url(#p7387d930b7)" style="fill: #1b5e20"/>
    <path d="M 321.565809 767.020521
L 321.565809 697.775952
L 329.49536 697.775952
L 329.49536 767.020521
z
" clip-path="url(#p7387d930b7)" style="fill: #1b5e20"/>
    <path d="M 330.376421 767.020521
L 330.376421 690.006132
L 338.305973 690.006132
L 338.305973 767.020521
z
" clip-path="url(#p7387d930b7)" style="fill: #1b5e20"/>
    <path d="M 339.187034 767.020521
L 339.187034 674.50474
L 347.116586 674.50474
L 347.116586 767.020521
z
" clip-path="url(#p7387d930b7)" style="fill: #1b5e20"/>
    <path d="M 347.997647 767.020521
L 347.997647 650.243815
L 355.927199 650.243815
L 355.927199 767.020521
z
" clip-path="url(#p7387d930b7)" style="fill: #1b5e20"/>
    <path d="M 356.80826 767.020521
L 356.80826 638.526669
L 364.737811 638.526669
L 364.737811 767.020521
z
" clip-path="url(#p7387d930b7)" style="fill: #1b5e20"/>
    <path d="M 365.618873 767.020521
L 365.618873 630.833187
L 373.548424 630.833187
L 373.548424 767.020521
z
" clip-path="url(#p7387d930b7)" style="fill: #b71c1c"/>
    <path d="M 374.429486 767.020521
L 374.429486 617.024755
L 382.359037 617.024755
L 382.359037 767.020521
z
" clip-path="url(#p7387d930b7)" style="fill: #b71c1c"/>
    <path d="M 383.240098 767.020521
L 383.240098 627.187373
L 391.16965 627.187373
L 391.16965 767.020521
z
" clip-path="url(#p7387d930b7)" style="fill: #b71c1c"/>
    <path d="M 392.050711 767.020521
L 392.050711 627.710394
L 399.980263 627.710394
L 399.980263 767.020521
z
" clip-path="url(#p7387d930b7)" style="fill: #b71c1c"/>
    <path d="M 400.861324 767.020521
L 400.861324 672.476561
L 408.790876 672.476561
L 408.790876 767.020521
z
" clip-path="url(#p7387d930b7)" style="fill: #b71c1c"/>
    <path d="M 409.671937 767.020521
L 409.671937 727.234616
L 417.601488 727.234616
L 417.601488 767.020521
z
" clip-path="url(#p7387d930b7)" style="fill: #b71c1c"/>
    <path d="M 418.48255 767.020521
L 418.48255 748.966023
L 426.412101 748.966023
L 426.412101 767.020521
z
" clip-path="url(#p7387d930b7)" style="fill: #b71c1c"/>
    <path d="M 427.293163 767.020521
L 427.293163 759.364697
L 435.222714 759.364697
L 435.222714 767.020521
z
" clip-path="url(#p7387d930b7)" style="fill: #b71c1c"/>
    <path d="M 436.103775 767.020521
L 436.103775 760.95758
L 444.033327 760.95758
L 444.033327 767.020521
z
" clip-path="url(#p7387d930b7)" style="fill: #b71c1c"/>
    <path d="M 444.914388 767.020521
L 444.914388 764.398385
L 452.84394 764.398385
L 452.84394 767.020521
z
" clip-path="url(#p7387d930b7)" style="fill: #b71c1c"/>
    <path d="M 453.725001 767.020521
L 453.725001 764.368378
L 461.654553 764.368378
L 461.654553 767.020521
z
" clip-path="url(#p7387d930b7)" style="fill: #b71c1c"/>
    <path d="M 462.535614 767.020521
L 462.535614 765.60298
L 470.465165 765.60298
L 470.465165 767.020521
z
" clip-path="url(#p7387d930b7)" style="fill: #b71c1c"/>
    <path d="M 471.346227 767.020521
L 471.346227 765.227095
L 479.275778 765.227095
L 479.275778 767.020521
z
" clip-path="url(#p7387d930b7)" style="fill: #b71c1c"/>
    <path d="M 480.156839 767.020521
L 480.156839 766.614628
L 488.086391 766.614628
L 488.086391 767.020521
z
" clip-path="url(#p7387d930b7)" style="fill: #b71c1c"/>
    <path d="M 506.588678 767.020521
L 506.588678 766.407068
L 514.51823 766.407068
L 514.51823 767.020521
z
" clip-path="url(#p7387d930b7)" style="fill: #b71c1c"/>
    <path d="M 515.399291 767.020521
L 515.399291 766.573084
L 523.328842 766.573084
L 523.328842 767.020521
z
" clip-path="url(#p7387d930b7)" style="fill: #b71c1c"/>
    <path d="M 524.209904 767.020521
L 524.209904 766.39091
L 532.139455 766.39091
L 532.139455 767.020521
z
" clip-path="url(#p7387d930b7)" style="fill: #b71c1c"/>
    <path d="M 533.020516 767.020521
L 533.020516 766.614628
L 540.950068 766.614628
L 540.950068 767.020521
z
" clip-path="url(#p7387d930b7)" style="fill: #b71c1c"/>
    <path d="M 541.831129 767.020521
L 541.831129 766.819113
L 549.760681 766.819113
L 549.760681 767.020521
z
" clip-path="url(#p7387d930b7)" style="fill: #b71c1c"/>
    <path d="M 550.641742 767.020521
L 550.641742 766.816037
L 558.571294 766.816037
L 558.571294 767.020521
z
" clip-path="url(#p7387d930b7)" style="fill: #b71c1c"/>
    <path d="M 559.452355 767.020521
L 559.452355 766.831392
L 567.381906 766.831392
L 567.381906 767.020521
z
" clip-path="url(#p7387d930b7)" style="fill: #b71c1c"/>
    <path d="M 577.073581 767.020521
L 577.073581 766.819113
L 585.003132 766.819113
L 585.003132 767.020521
z
" clip-path="url(#p7387d930b7)" style="fill: #b71c1c"/>
    <path d="M 603.505419 767.020521
L 603.505419 766.816037
L 611.434971 766.816037
L 611.434971 767.020521
z
" clip-path="url(#p7387d930b7)" style="fill: #b71c1c"/>
    <path d="M 629.937258 767.020521
L 629.937258 766.819113
L 637.866809 766.819113
L 637.866809 767.020521
z
" clip-path="url(#p7387d930b7)" style="fill: #b71c1c"/>
    <path d="M 673.990322 767.020521
L 673.990322 766.819113
L 681.919873 766.819113
L 681.919873 767.020521
z
" clip-path="url(#p7387d930b7)" style="fill: #b71c1c"/>
    <path d="M 744.475224 767.020521
L 744.475224 766.846044
L 752.404776 766.846044
L 752.404776 767.020521
z
" clip-path="url(#p7387d930b7)" style="fill: #b71c1c"/>
    <path d="M 1035.225447 767.020521
L 1035.225447 766.819113
L 1043.154999 766.819113
L 1043.154999 767.020521
z
" clip-path="url(#p7387d930b7)" style="fill: #b71c1c"/>
   </g>
   <g id="LineCollection_10">
    <path d="M 365.178342 767.020521
L 365.178342 594.525391
" clip-path="url(#p7387d930b7)" style="fill: none; stroke: #808080; stroke-width: 1.417963"/>
   </g>
   <g id="LineCollection_11">
    <path d="M 349.843981 767.020521
L 349.843981 594.525391
" clip-path="url(#p7387d930b7)" style="fill: none; stroke-dasharray: 4.590655,1.985148; stroke-dashoffset: 0; stroke: #333333; stroke-width: 1.240718"/>
   </g>
   <g id="LineCollection_12">
    <path d="M 361.919619 767.020521
L 361.919619 594.525391
" clip-path="url(#p7387d930b7)" style="fill: none; stroke: #333333; stroke-width: 1.240718"/>
   </g>
   <g id="text_29">
    <g clip-path="url(#p7387d930b7)">
     <!-- median: $-18  ·  mean: $-87 -->
     <g style="fill: #333333" transform="translate(625.762855 626.784292)">
      <text>
       <tspan x="0" y="-0.78125" style="font-size: 8px; font-family: 'IBM Plex Sans'; fill: #333333">m</tspan>
       <tspan x="6.983978" y="-0.78125" style="font-size: 8px; font-family: 'IBM Plex Sans'; fill: #333333">e</tspan>
       <tspan x="11.375961" y="-0.78125" style="font-size: 8px; font-family: 'IBM Plex Sans'; fill: #333333">d</tspan>
       <tspan x="16.015945" y="-0.78125" style="font-size: 8px; font-family: 'IBM Plex Sans'; fill: #333333">i</tspan>
       <tspan x="18.01593" y="-0.78125" style="font-size: 8px; font-family: 'IBM Plex Sans'; fill: #333333">a</tspan>
       <tspan x="22.287918" y="-0.78125" style="font-size: 8px; font-family: 'IBM Plex Sans'; fill: #333333">n</tspan>
       <tspan x="26.831909" y="-0.78125" style="font-size: 8px; font-family: 'IBM Plex Sans'; fill: #333333">:</tspan>
       <tspan x="29.167892" y="-0.78125" style="font-size: 8px; font-family: 'IBM Plex Sans'; fill: #333333"> </tspan>
       <tspan x="78.981659" y="-0.78125" style="font-size: 8px; font-family: 'IBM Plex Sans'; fill: #333333">-</tspan>
       <tspan x="82.173645" y="-0.78125" style="font-size: 8px; font-family: 'IBM Plex Sans'; fill: #333333">8</tspan>
       <tspan x="86.973633" y="-0.78125" style="font-size: 8px; font-family: 'IBM Plex Sans'; fill: #333333">7</tspan>
       <tspan x="31.055878" y="-0.78125" style="font-size: 8px; font-family: 'DejaVu Sans'; fill: #333333">−</tspan>
       <tspan x="37.759003" y="-0.78125" style="font-size: 8px; font-family: 'DejaVu Sans'; fill: #333333">1</tspan>
       <tspan x="42.848846" y="-0.78125" style="font-size: 8px; font-family: 'DejaVu Sans'; fill: #333333">8</tspan>
       <tspan x="47.93869" y="-0.78125" style="font-size: 8px; font-family: 'DejaVu Sans'; fill: #333333">·</tspan>
       <tspan x="74.727753" y="-0.78125" style="font-size: 8px; font-family: 'DejaVu Sans'; fill: #333333">:</tspan>
       <tspan x="50.481659" y="-0.78125" style="font-style: oblique; font-size: 8px; font-family: 'DejaVu Sans'; fill: #333333">m</tspan>
       <tspan x="58.274628" y="-0.78125" style="font-style: oblique; font-size: 8px; font-family: 'DejaVu Sans'; fill: #333333">e</tspan>
       <tspan x="63.196503" y="-0.78125" style="font-style: oblique; font-size: 8px; font-family: 'DejaVu Sans'; fill: #333333">a</tspan>
       <tspan x="68.098846" y="-0.78125" style="font-style: oblique; font-size: 8px; font-family: 'DejaVu Sans'; fill: #333333">n</tspan>
      </text>
     </g>
    </g>
    <g clip-path="url(#p7387d930b7)">
     <text style="font-size: 8px; font-family: 'IBM Plex Sans'; fill: #333333" transform="translate(659.281605 635.488292)">47% overpaying</text>
    </g>
   </g>
   <g id="patch_9">
    <path d="M 70.022812 767.020521
L 748.44 767.020521
" style="fill: none; stroke: #000000; stroke-width: 0.5; stroke-linejoin: miter; stroke-linecap: square"/>
   </g>
  </g>
  <g id="text_30">
   <text style="font-size: 13px; font-family: 'GT Planar'; text-anchor: start; fill: #333333" x="300.487422" y="800.1" transform="rotate(-0 300.487422 800.1)">Delivery BAT per-customer ($/year)</text>
  </g>
  <g id="text_31">
   <text style="font-size: 13px; font-family: 'GT Planar'; fill: #333333" transform="translate(17.882812 463.002057) rotate(-90)"># of Homes (weighted)</text>
  </g>
  <g id="text_32">
   <text style="font-size: 13px; font-family: 'GT Planar'; text-anchor: middle; fill: #333333" x="409.231406" y="14" transform="rotate(-0 409.231406 14)">Heat pump</text>
  </g>
  <g id="text_33">
   <text style="font-size: 13px; font-family: 'GT Planar'; text-anchor: middle; fill: #333333" x="409.231406" y="205.75513" transform="rotate(-0 409.231406 205.75513)">Electric resistance</text>
  </g>
  <g id="text_34">
   <text style="font-size: 13px; font-family: 'GT Planar'; text-anchor: middle; fill: #333333" x="409.231406" y="397.51026" transform="rotate(-0 409.231406 397.51026)">Natural gas</text>
  </g>
  <g id="text_35">
   <text style="font-size: 13px; font-family: 'GT Planar'; text-anchor: middle; fill: #333333" x="409.231406" y="589.395391" transform="rotate(-0 409.231406 589.395391)">Oil / propane</text>
  </g>
 </g>
 <defs>
  <clipPath id="p6e2401e43d">
   <rect x="70.022813" y="19.26" width="678.417187" height="172.49513"/>
  </clipPath>
  <clipPath id="peb6c2e0f12">
   <rect x="70.022813" y="211.01513" width="678.417187" height="172.49513"/>
  </clipPath>
  <clipPath id="pa47c506890">
   <rect x="70.022813" y="402.77026" width="678.417187" height="172.49513"/>
  </clipPath>
  <clipPath id="p7387d930b7">
   <rect x="70.022813" y="594.525391" width="678.417187" height="172.49513"/>
  </clipPath>
 </defs>
</svg>
