<svg xmlns:xlink="http://www.w3.org/1999/xlink" xmlns="http://www.w3.org/2000/svg" width="844.285pt" height="1230.912pt" viewBox="0 0 844.285 1230.912" version="1.1">
 <metadata>
  <rdf:RDF xmlns:dc="http://purl.org/dc/elements/1.1/" xmlns:cc="http://creativecommons.org/ns#" xmlns:rdf="http://www.w3.org/1999/02/22-rdf-syntax-ns#">
   <cc:Work>
    <dc:type rdf:resource="http://purl.org/dc/dcmitype/StillImage"/>
    <dc:date>2026-04-11T12:31:00.993748</dc:date>
    <dc:format>image/svg+xml</dc:format>
    <dc:creator>
     <cc:Agent>
      <dc:title>Matplotlib v3.10.8, https://matplotlib.org/</dc:title>
     </cc:Agent>
    </dc:creator>
   </cc:Work>
  </rdf:RDF>
 </metadata>
 <defs>
  <style type="text/css">*{stroke-linejoin: round; stroke-linecap: butt}</style>
 </defs>
 <g id="figure_1">
  <g id="patch_1">
   <path d="M 0 1230.912  L 844.285 1230.912  L 844.285 0  L 0 0  z " style="fill: #ffffff"/>
  </g>
  <g id="axes_1">
   <g id="patch_2">
    <path d="M 11.14375 1223.712  L 758.14375 1223.712  L 758.14375 32.544  L 11.14375 32.544  z " style="fill: #ffffff"/>
   </g>
   <g id="patch_3">
    <path d="M 11.14375 93.194102  L 11.14375 93.194102  L 11.14375 120.486648  L 11.14375 120.486648  z " clip-path="url(#p0f377c9952)" style="fill: #b71c1c"/>
   </g>
   <g id="patch_4">
    <path d="M 11.14375 93.194102  L 19.767127 93.194102  L 19.767127 120.486648  L 11.14375 120.486648  z " clip-path="url(#p0f377c9952)" style="fill: #ef9a9a"/>
   </g>
   <g id="patch_5">
    <path d="M 19.767127 93.194102  L 395.961932 93.194102  L 395.961932 120.486648  L 19.767127 120.486648  z " clip-path="url(#p0f377c9952)" style="fill: #81c784"/>
   </g>
   <g id="patch_6">
    <path d="M 395.961932 93.194102  L 758.14375 93.194102  L 758.14375 120.486648  L 395.961932 120.486648  z " clip-path="url(#p0f377c9952)" style="fill: #1b5e20"/>
   </g>
   <g id="patch_7">
    <path d="M 11.14375 127.76466  L 11.14375 127.76466  L 11.14375 155.057206  L 11.14375 155.057206  z " clip-path="url(#p0f377c9952)" style="fill: #b71c1c"/>
   </g>
   <g id="patch_8">
    <path d="M 11.14375 127.76466  L 12.221672 127.76466  L 12.221672 155.057206  L 11.14375 155.057206  z " clip-path="url(#p0f377c9952)" style="fill: #ef9a9a"/>
   </g>
   <g id="patch_9">
    <path d="M 12.221672 127.76466  L 361.468425 127.76466  L 361.468425 155.057206  L 12.221672 155.057206  z " clip-path="url(#p0f377c9952)" style="fill: #81c784"/>
   </g>
   <g id="patch_10">
    <path d="M 361.468425 127.76466  L 758.14375 127.76466  L 758.14375 155.057206  L 361.468425 155.057206  z " clip-path="url(#p0f377c9952)" style="fill: #1b5e20"/>
   </g>
   <g id="patch_11">
    <path d="M 11.14375 270.292399  L 11.14375 270.292399  L 11.14375 297.584945  L 11.14375 297.584945  z " clip-path="url(#p0f377c9952)" style="fill: #b71c1c"/>
   </g>
   <g id="patch_12">
    <path d="M 11.14375 270.292399  L 16.09077 270.292399  L 16.09077 297.584945  L 11.14375 297.584945  z " clip-path="url(#p0f377c9952)" style="fill: #ef9a9a"/>
   </g>
   <g id="patch_13">
    <path d="M 16.09077 270.292399  L 411.852359 270.292399  L 411.852359 297.584945  L 16.09077 297.584945  z " clip-path="url(#p0f377c9952)" style="fill: #81c784"/>
   </g>
   <g id="patch_14">
    <path d="M 411.852359 270.292399  L 758.14375 270.292399  L 758.14375 297.584945  L 411.852359 297.584945  z " clip-path="url(#p0f377c9952)" style="fill: #1b5e20"/>
   </g>
   <g id="patch_15">
    <path d="M 11.14375 304.862957  L 11.14375 304.862957  L 11.14375 332.155503  L 11.14375 332.155503  z " clip-path="url(#p0f377c9952)" style="fill: #b71c1c"/>
   </g>
   <g id="patch_16">
    <path d="M 11.14375 304.862957  L 16.09077 304.862957  L 16.09077 332.155503  L 11.14375 332.155503  z " clip-path="url(#p0f377c9952)" style="fill: #ef9a9a"/>
   </g>
   <g id="patch_17">
    <path d="M 16.09077 304.862957  L 382.17024 304.862957  L 382.17024 332.155503  L 16.09077 332.155503  z " clip-path="url(#p0f377c9952)" style="fill: #81c784"/>
   </g>
   <g id="patch_18">
    <path d="M 382.17024 304.862957  L 758.14375 304.862957  L 758.14375 332.155503  L 382.17024 332.155503  z " clip-path="url(#p0f377c9952)" style="fill: #1b5e20"/>
   </g>
   <g id="patch_19">
    <path d="M 11.14375 447.390697  L 11.14375 447.390697  L 11.14375 474.683242  L 11.14375 474.683242  z " clip-path="url(#p0f377c9952)" style="fill: #b71c1c"/>
   </g>
   <g id="patch_20">
    <path d="M 11.14375 447.390697  L 19.584428 447.390697  L 19.584428 474.683242  L 11.14375 474.683242  z " clip-path="url(#p0f377c9952)" style="fill: #ef9a9a"/>
   </g>
   <g id="patch_21">
    <path d="M 19.584428 447.390697  L 296.016631 447.390697  L 296.016631 474.683242  L 19.584428 474.683242  z " clip-path="url(#p0f377c9952)" style="fill: #81c784"/>
   </g>
   <g id="patch_22">
    <path d="M 296.016631 447.390697  L 758.14375 447.390697  L 758.14375 474.683242  L 296.016631 474.683242  z " clip-path="url(#p0f377c9952)" style="fill: #1b5e20"/>
   </g>
   <g id="patch_23">
    <path d="M 11.14375 481.961255  L 11.14375 481.961255  L 11.14375 509.2538  L 11.14375 509.2538  z " clip-path="url(#p0f377c9952)" style="fill: #b71c1c"/>
   </g>
   <g id="patch_24">
    <path d="M 11.14375 481.961255  L 13.253919 481.961255  L 13.253919 509.2538  L 11.14375 509.2538  z " clip-path="url(#p0f377c9952)" style="fill: #ef9a9a"/>
   </g>
   <g id="patch_25">
    <path d="M 13.253919 481.961255  L 247.482733 481.961255  L 247.482733 509.2538  L 13.253919 509.2538  z " clip-path="url(#p0f377c9952)" style="fill: #81c784"/>
   </g>
   <g id="patch_26">
    <path d="M 247.482733 481.961255  L 758.14375 481.961255  L 758.14375 509.2538  L 247.482733 509.2538  z " clip-path="url(#p0f377c9952)" style="fill: #1b5e20"/>
   </g>
   <g id="patch_27">
    <path d="M 11.14375 624.488994  L 11.14375 624.488994  L 11.14375 651.78154  L 11.14375 651.78154  z " clip-path="url(#p0f377c9952)" style="fill: #b71c1c"/>
   </g>
   <g id="patch_28">
    <path d="M 11.14375 624.488994  L 23.389652 624.488994  L 23.389652 651.78154  L 11.14375 651.78154  z " clip-path="url(#p0f377c9952)" style="fill: #ef9a9a"/>
   </g>
   <g id="patch_29">
    <path d="M 23.389652 624.488994  L 335.660143 624.488994  L 335.660143 651.78154  L 23.389652 651.78154  z " clip-path="url(#p0f377c9952)" style="fill: #81c784"/>
   </g>
   <g id="patch_30">
    <path d="M 335.660143 624.488994  L 758.14375 624.488994  L 758.14375 651.78154  L 335.660143 651.78154  z " clip-path="url(#p0f377c9952)" style="fill: #1b5e20"/>
   </g>
   <g id="patch_31">
    <path d="M 11.14375 659.059552  L 11.14375 659.059552  L 11.14375 686.352098  L 11.14375 686.352098  z " clip-path="url(#p0f377c9952)" style="fill: #b71c1c"/>
   </g>
   <g id="patch_32">
    <path d="M 11.14375 659.059552  L 11.14375 659.059552  L 11.14375 686.352098  L 11.14375 686.352098  z " clip-path="url(#p0f377c9952)" style="fill: #ef9a9a"/>
   </g>
   <g id="patch_33">
    <path d="M 11.14375 659.059552  L 280.553586 659.059552  L 280.553586 686.352098  L 11.14375 686.352098  z " clip-path="url(#p0f377c9952)" style="fill: #81c784"/>
   </g>
   <g id="patch_34">
    <path d="M 280.553586 659.059552  L 758.14375 659.059552  L 758.14375 686.352098  L 280.553586 686.352098  z " clip-path="url(#p0f377c9952)" style="fill: #1b5e20"/>
   </g>
   <g id="patch_35">
    <path d="M 11.14375 801.587291  L 11.14375 801.587291  L 11.14375 828.879837  L 11.14375 828.879837  z " clip-path="url(#p0f377c9952)" style="fill: #b71c1c"/>
   </g>
   <g id="patch_36">
    <path d="M 11.14375 801.587291  L 25.790809 801.587291  L 25.790809 828.879837  L 11.14375 828.879837  z " clip-path="url(#p0f377c9952)" style="fill: #ef9a9a"/>
   </g>
   <g id="patch_37">
    <path d="M 25.790809 801.587291  L 465.202574 801.587291  L 465.202574 828.879837  L 25.790809 828.879837  z " clip-path="url(#p0f377c9952)" style="fill: #81c784"/>
   </g>
   <g id="patch_38">
    <path d="M 465.202574 801.587291  L 758.14375 801.587291  L 758.14375 828.879837  L 465.202574 828.879837  z " clip-path="url(#p0f377c9952)" style="fill: #1b5e20"/>
   </g>
   <g id="patch_39">
    <path d="M 11.14375 836.157849  L 11.14375 836.157849  L 11.14375 863.450395  L 11.14375 863.450395  z " clip-path="url(#p0f377c9952)" style="fill: #b71c1c"/>
   </g>
   <g id="patch_40">
    <path d="M 11.14375 836.157849  L 25.790809 836.157849  L 25.790809 863.450395  L 11.14375 863.450395  z " clip-path="url(#p0f377c9952)" style="fill: #ef9a9a"/>
   </g>
   <g id="patch_41">
    <path d="M 25.790809 836.157849  L 333.379044 836.157849  L 333.379044 863.450395  L 25.790809 863.450395  z " clip-path="url(#p0f377c9952)" style="fill: #81c784"/>
   </g>
   <g id="patch_42">
    <path d="M 333.379044 836.157849  L 758.14375 836.157849  L 758.14375 863.450395  L 333.379044 863.450395  z " clip-path="url(#p0f377c9952)" style="fill: #1b5e20"/>
   </g>
   <g id="patch_43">
    <path d="M 11.14375 978.685589  L 11.14375 978.685589  L 11.14375 1005.978134  L 11.14375 1005.978134  z " clip-path="url(#p0f377c9952)" style="fill: #b71c1c"/>
   </g>
   <g id="patch_44">
    <path d="M 11.14375 978.685589  L 48.14375 978.685589  L 48.14375 1005.978134  L 11.14375 1005.978134  z " clip-path="url(#p0f377c9952)" style="fill: #ef9a9a"/>
   </g>
   <g id="patch_45">
    <path d="M 48.14375 978.685589  L 478.14375 978.685589  L 478.14375 1005.978134  L 48.14375 1005.978134  z " clip-path="url(#p0f377c9952)" style="fill: #81c784"/>
   </g>
   <g id="patch_46">
    <path d="M 478.14375 978.685589  L 758.14375 978.685589  L 758.14375 1005.978134  L 478.14375 1005.978134  z " clip-path="url(#p0f377c9952)" style="fill: #1b5e20"/>
   </g>
   <g id="patch_47">
    <path d="M 11.14375 1013.256147  L 11.14375 1013.256147  L 11.14375 1040.548692  L 11.14375 1040.548692  z " clip-path="url(#p0f377c9952)" style="fill: #b71c1c"/>
   </g>
   <g id="patch_48">
    <path d="M 11.14375 1013.256147  L 24.14375 1013.256147  L 24.14375 1040.548692  L 11.14375 1040.548692  z " clip-path="url(#p0f377c9952)" style="fill: #ef9a9a"/>
   </g>
   <g id="patch_49">
    <path d="M 24.14375 1013.256147  L 440.64375 1013.256147  L 440.64375 1040.548692  L 24.14375 1040.548692  z " clip-path="url(#p0f377c9952)" style="fill: #81c784"/>
   </g>
   <g id="patch_50">
    <path d="M 440.64375 1013.256147  L 758.14375 1013.256147  L 758.14375 1040.548692  L 440.64375 1040.548692  z " clip-path="url(#p0f377c9952)" style="fill: #1b5e20"/>
   </g>
   <g id="patch_51">
    <path d="M 11.14375 1155.783886  L 11.14375 1155.783886  L 11.14375 1183.076432  L 11.14375 1183.076432  z " clip-path="url(#p0f377c9952)" style="fill: #b71c1c"/>
   </g>
   <g id="patch_52">
    <path d="M 11.14375 1155.783886  L 22.075457 1155.783886  L 22.075457 1183.076432  L 11.14375 1183.076432  z " clip-path="url(#p0f377c9952)" style="fill: #ef9a9a"/>
   </g>
   <g id="patch_53">
    <path d="M 22.075457 1155.783886  L 411.973018 1155.783886  L 411.973018 1183.076432  L 22.075457 1183.076432  z " clip-path="url(#p0f377c9952)" style="fill: #81c784"/>
   </g>
   <g id="patch_54">
    <path d="M 411.973018 1155.783886  L 758.14375 1155.783886  L 758.14375 1183.076432  L 411.973018 1183.076432  z " clip-path="url(#p0f377c9952)" style="fill: #1b5e20"/>
   </g>
   <g id="patch_55">
    <path d="M 11.14375 1190.354444  L 11.14375 1190.354444  L 11.14375 1217.64699  L 11.14375 1217.64699  z " clip-path="url(#p0f377c9952)" style="fill: #b71c1c"/>
   </g>
   <g id="patch_56">
    <path d="M 11.14375 1190.354444  L 11.14375 1190.354444  L 11.14375 1217.64699  L 11.14375 1217.64699  z " clip-path="url(#p0f377c9952)" style="fill: #ef9a9a"/>
   </g>
   <g id="patch_57">
    <path d="M 11.14375 1190.354444  L 331.807165 1190.354444  L 331.807165 1217.64699  L 11.14375 1217.64699  z " clip-path="url(#p0f377c9952)" style="fill: #81c784"/>
   </g>
   <g id="patch_58">
    <path d="M 331.807165 1190.354444  L 758.14375 1190.354444  L 758.14375 1217.64699  L 331.807165 1217.64699  z " clip-path="url(#p0f377c9952)" style="fill: #1b5e20"/>
   </g>
   <g id="matplotlib.axis_1"/>
   <g id="matplotlib.axis_2"/>
   <g id="text_1">
    <text style="font-weight: 700; font-size: 10px; font-family: 'IBM Plex Sans'; text-anchor: middle; fill: #ffffff" x="207.864529" y="109.540375" transform="rotate(-0 207.864529 109.540375)">50.4%</text>
   </g>
   <g id="text_2">
    <text style="font-weight: 700; font-size: 10px; font-family: 'IBM Plex Sans'; text-anchor: middle; fill: #ffffff" x="577.052841" y="109.540375" transform="rotate(-0 577.052841 109.540375)">48.5%</text>
   </g>
   <g id="text_3">
    <text style="font-weight: 700; font-size: 10px; font-family: 'IBM Plex Sans'; text-anchor: middle; fill: #ffffff" x="186.845049" y="144.110933" transform="rotate(-0 186.845049 144.110933)">46.8%</text>
   </g>
   <g id="text_4">
    <text style="font-weight: 700; font-size: 10px; font-family: 'IBM Plex Sans'; text-anchor: middle; fill: #ffffff" x="559.806088" y="144.110933" transform="rotate(-0 559.806088 144.110933)">53.1%</text>
   </g>
   <g id="text_5">
    <text style="font-weight: 700; font-size: 10px; font-family: 'IBM Plex Sans'; text-anchor: middle; fill: #ffffff" x="213.971565" y="286.638672" transform="rotate(-0 213.971565 286.638672)">53.0%</text>
   </g>
   <g id="text_6">
    <text style="font-weight: 700; font-size: 10px; font-family: 'IBM Plex Sans'; text-anchor: middle; fill: #ffffff" x="584.998055" y="286.638672" transform="rotate(-0 584.998055 286.638672)">46.4%</text>
   </g>
   <g id="text_7">
    <text style="font-weight: 700; font-size: 10px; font-family: 'IBM Plex Sans'; text-anchor: middle; fill: #ffffff" x="199.130505" y="321.20923" transform="rotate(-0 199.130505 321.20923)">49.0%</text>
   </g>
   <g id="text_8">
    <text style="font-weight: 700; font-size: 10px; font-family: 'IBM Plex Sans'; text-anchor: middle; fill: #ffffff" x="570.156995" y="321.20923" transform="rotate(-0 570.156995 321.20923)">50.3%</text>
   </g>
   <g id="text_9">
    <text style="font-weight: 700; font-size: 10px; font-family: 'IBM Plex Sans'; text-anchor: middle; fill: #ffffff" x="157.80053" y="463.736969" transform="rotate(-0 157.80053 463.736969)">37.0%</text>
   </g>
   <g id="text_10">
    <text style="font-weight: 700; font-size: 10px; font-family: 'IBM Plex Sans'; text-anchor: middle; fill: #ffffff" x="527.080191" y="463.736969" transform="rotate(-0 527.080191 463.736969)">61.9%</text>
   </g>
   <g id="text_11">
    <text style="font-weight: 700; font-size: 10px; font-family: 'IBM Plex Sans'; text-anchor: middle; fill: #ffffff" x="130.368326" y="498.307527" transform="rotate(-0 130.368326 498.307527)">31.4%</text>
   </g>
   <g id="text_12">
    <text style="font-weight: 700; font-size: 10px; font-family: 'IBM Plex Sans'; text-anchor: middle; fill: #ffffff" x="502.813242" y="498.307527" transform="rotate(-0 502.813242 498.307527)">68.4%</text>
   </g>
   <g id="text_13">
    <text style="font-weight: 700; font-size: 10px; font-family: 'IBM Plex Sans'; text-anchor: middle; fill: #ffffff" x="179.524898" y="640.835267" transform="rotate(-0 179.524898 640.835267)">41.8%</text>
   </g>
   <g id="text_14">
    <text style="font-weight: 700; font-size: 10px; font-family: 'IBM Plex Sans'; text-anchor: middle; fill: #ffffff" x="546.901947" y="640.835267" transform="rotate(-0 546.901947 640.835267)">56.6%</text>
   </g>
   <g id="text_15">
    <text style="font-weight: 700; font-size: 10px; font-family: 'IBM Plex Sans'; text-anchor: middle; fill: #ffffff" x="145.848668" y="675.405825" transform="rotate(-0 145.848668 675.405825)">36.1%</text>
   </g>
   <g id="text_16">
    <text style="font-weight: 700; font-size: 10px; font-family: 'IBM Plex Sans'; text-anchor: middle; fill: #ffffff" x="519.348668" y="675.405825" transform="rotate(-0 519.348668 675.405825)">63.9%</text>
   </g>
   <g id="text_17">
    <text style="font-weight: 700; font-size: 10px; font-family: 'IBM Plex Sans'; text-anchor: middle; fill: #ffffff" x="245.496691" y="817.933564" transform="rotate(-0 245.496691 817.933564)">58.8%</text>
   </g>
   <g id="text_18">
    <text style="font-weight: 700; font-size: 10px; font-family: 'IBM Plex Sans'; text-anchor: middle; fill: #ffffff" x="611.673162" y="817.933564" transform="rotate(-0 611.673162 817.933564)">39.2%</text>
   </g>
   <g id="text_19">
    <text style="font-weight: 700; font-size: 10px; font-family: 'IBM Plex Sans'; text-anchor: middle; fill: #ffffff" x="179.584926" y="852.504122" transform="rotate(-0 179.584926 852.504122)">41.2%</text>
   </g>
   <g id="text_20">
    <text style="font-weight: 700; font-size: 10px; font-family: 'IBM Plex Sans'; text-anchor: middle; fill: #ffffff" x="545.761397" y="852.504122" transform="rotate(-0 545.761397 852.504122)">56.9%</text>
   </g>
   <g id="text_21">
    <text style="font-weight: 700; font-size: 10px; font-family: 'IBM Plex Sans'; text-anchor: middle; fill: #ffffff" x="29.64375" y="995.031862" transform="rotate(-0 29.64375 995.031862)">5.0%</text>
   </g>
   <g id="text_22">
    <text style="font-weight: 700; font-size: 10px; font-family: 'IBM Plex Sans'; text-anchor: middle; fill: #ffffff" x="263.14375" y="995.031862" transform="rotate(-0 263.14375 995.031862)">57.6%</text>
   </g>
   <g id="text_23">
    <text style="font-weight: 700; font-size: 10px; font-family: 'IBM Plex Sans'; text-anchor: middle; fill: #ffffff" x="618.14375" y="995.031862" transform="rotate(-0 618.14375 995.031862)">37.5%</text>
   </g>
   <g id="text_24">
    <text style="font-weight: 700; font-size: 10px; font-family: 'IBM Plex Sans'; text-anchor: middle; fill: #ffffff" x="232.39375" y="1029.60242" transform="rotate(-0 232.39375 1029.60242)">55.8%</text>
   </g>
   <g id="text_25">
    <text style="font-weight: 700; font-size: 10px; font-family: 'IBM Plex Sans'; text-anchor: middle; fill: #ffffff" x="599.39375" y="1029.60242" transform="rotate(-0 599.39375 1029.60242)">42.5%</text>
   </g>
   <g id="text_26">
    <text style="font-weight: 700; font-size: 10px; font-family: 'IBM Plex Sans'; text-anchor: middle; fill: #ffffff" x="217.024238" y="1172.130159" transform="rotate(-0 217.024238 1172.130159)">52.2%</text>
   </g>
   <g id="text_27">
    <text style="font-weight: 700; font-size: 10px; font-family: 'IBM Plex Sans'; text-anchor: middle; fill: #ffffff" x="585.058384" y="1172.130159" transform="rotate(-0 585.058384 1172.130159)">46.3%</text>
   </g>
   <g id="text_28">
    <text style="font-weight: 700; font-size: 10px; font-family: 'IBM Plex Sans'; text-anchor: middle; fill: #ffffff" x="171.475457" y="1206.700717" transform="rotate(-0 171.475457 1206.700717)">42.9%</text>
   </g>
   <g id="text_29">
    <text style="font-weight: 700; font-size: 10px; font-family: 'IBM Plex Sans'; text-anchor: middle; fill: #ffffff" x="544.975457" y="1206.700717" transform="rotate(-0 544.975457 1206.700717)">57.1%</text>
   </g>
   <g id="text_30">
    <text style="font-weight: 700; font-size: 9px; font-family: 'IBM Plex Sans'; text-anchor: start" x="765.61375" y="109.270375" transform="rotate(-0 765.61375 109.270375)">Default rate</text>
   </g>
   <g id="text_31">
    <text style="font-weight: 700; font-size: 9px; font-family: 'IBM Plex Sans'; text-anchor: start" x="765.61375" y="143.840933" transform="rotate(-0 765.61375 143.840933)">HP seasonal rate</text>
   </g>
   <g id="text_32">
    <text style="font-weight: 700; font-size: 9px; font-family: 'IBM Plex Sans'; text-anchor: start" x="765.61375" y="286.368672" transform="rotate(-0 765.61375 286.368672)">Default rate</text>
   </g>
   <g id="text_33">
    <text style="font-weight: 700; font-size: 9px; font-family: 'IBM Plex Sans'; text-anchor: start" x="765.61375" y="320.93923" transform="rotate(-0 765.61375 320.93923)">HP seasonal rate</text>
   </g>
   <g id="text_34">
    <text style="font-weight: 700; font-size: 9px; font-family: 'IBM Plex Sans'; text-anchor: start" x="765.61375" y="463.466969" transform="rotate(-0 765.61375 463.466969)">Default rate</text>
   </g>
   <g id="text_35">
    <text style="font-weight: 700; font-size: 9px; font-family: 'IBM Plex Sans'; text-anchor: start" x="765.61375" y="498.037527" transform="rotate(-0 765.61375 498.037527)">HP seasonal rate</text>
   </g>
   <g id="text_36">
    <text style="font-weight: 700; font-size: 9px; font-family: 'IBM Plex Sans'; text-anchor: start" x="765.61375" y="640.565267" transform="rotate(-0 765.61375 640.565267)">Default rate</text>
   </g>
   <g id="text_37">
    <text style="font-weight: 700; font-size: 9px; font-family: 'IBM Plex Sans'; text-anchor: start" x="765.61375" y="675.135825" transform="rotate(-0 765.61375 675.135825)">HP seasonal rate</text>
   </g>
   <g id="text_38">
    <text style="font-weight: 700; font-size: 9px; font-family: 'IBM Plex Sans'; text-anchor: start" x="765.61375" y="817.663564" transform="rotate(-0 765.61375 817.663564)">Default rate</text>
   </g>
   <g id="text_39">
    <text style="font-weight: 700; font-size: 9px; font-family: 'IBM Plex Sans'; text-anchor: start" x="765.61375" y="852.234122" transform="rotate(-0 765.61375 852.234122)">HP seasonal rate</text>
   </g>
   <g id="text_40">
    <text style="font-weight: 700; font-size: 9px; font-family: 'IBM Plex Sans'; text-anchor: start" x="765.61375" y="994.761862" transform="rotate(-0 765.61375 994.761862)">Default rate</text>
   </g>
   <g id="text_41">
    <text style="font-weight: 700; font-size: 9px; font-family: 'IBM Plex Sans'; text-anchor: start" x="765.61375" y="1029.33242" transform="rotate(-0 765.61375 1029.33242)">HP seasonal rate</text>
   </g>
   <g id="text_42">
    <text style="font-weight: 700; font-size: 9px; font-family: 'IBM Plex Sans'; text-anchor: start" x="765.61375" y="1171.860159" transform="rotate(-0 765.61375 1171.860159)">Default rate</text>
   </g>
   <g id="text_43">
    <text style="font-weight: 700; font-size: 9px; font-family: 'IBM Plex Sans'; text-anchor: start" x="765.61375" y="1206.430717" transform="rotate(-0 765.61375 1206.430717)">HP seasonal rate</text>
   </g>
   <g id="text_44">
    <text style="font-weight: 700; font-size: 11px; font-family: 'GT Planar'; text-anchor: start; fill: #333333" x="11.14375" y="46.30901" transform="rotate(-0 11.14375 46.30901)">National Grid</text>
   </g>
   <g id="text_45">
    <text style="font-weight: 700; font-size: 11px; font-family: 'GT Planar'; text-anchor: start; fill: #333333" x="11.14375" y="223.407308" transform="rotate(-0 11.14375 223.407308)">RG&amp;E</text>
   </g>
   <g id="text_46">
    <text style="font-weight: 700; font-size: 11px; font-family: 'GT Planar'; text-anchor: start; fill: #333333" x="11.14375" y="400.505605" transform="rotate(-0 11.14375 400.505605)">NYSEG</text>
   </g>
   <g id="text_47">
    <text style="font-weight: 700; font-size: 11px; font-family: 'GT Planar'; text-anchor: start; fill: #333333" x="11.14375" y="577.603902" transform="rotate(-0 11.14375 577.603902)">Central Hudson</text>
   </g>
   <g id="text_48">
    <text style="font-weight: 700; font-size: 11px; font-family: 'GT Planar'; text-anchor: start; fill: #333333" x="11.14375" y="754.7022" transform="rotate(-0 11.14375 754.7022)">O&amp;R</text>
   </g>
   <g id="text_49">
    <text style="font-weight: 700; font-size: 11px; font-family: 'GT Planar'; text-anchor: start; fill: #333333" x="11.14375" y="931.800497" transform="rotate(-0 11.14375 931.800497)">Con Edison</text>
   </g>
   <g id="text_50">
    <text style="font-weight: 700; font-size: 11px; font-family: 'GT Planar'; text-anchor: start; fill: #333333" x="11.14375" y="1108.898794" transform="rotate(-0 11.14375 1108.898794)">PSEG-LI</text>
   </g>
   <g id="text_51">
    <text style="font-weight: 700; font-size: 8px; font-family: 'IBM Plex Sans'; text-anchor: middle; fill: #81c784" x="207.864529" y="70.366566" transform="rotate(-0 207.864529 70.366566)">SAVE $0-1K</text>
   </g>
   <g id="text_52">
    <text style="font-weight: 700; font-size: 8px; font-family: 'IBM Plex Sans'; text-anchor: middle; fill: #1b5e20" x="577.052841" y="70.366566" transform="rotate(-0 577.052841 70.366566)">SAVE &gt; $1K</text>
   </g>
   <g id="text_53">
    <text style="font-weight: 700; font-size: 8px; font-family: 'IBM Plex Sans'; text-anchor: middle; fill: #81c784" x="213.971565" y="247.464864" transform="rotate(-0 213.971565 247.464864)">SAVE $0-1K</text>
   </g>
   <g id="text_54">
    <text style="font-weight: 700; font-size: 8px; font-family: 'IBM Plex Sans'; text-anchor: middle; fill: #1b5e20" x="584.998055" y="247.464864" transform="rotate(-0 584.998055 247.464864)">SAVE &gt; $1K</text>
   </g>
   <g id="text_55">
    <text style="font-weight: 700; font-size: 8px; font-family: 'IBM Plex Sans'; text-anchor: middle; fill: #81c784" x="157.80053" y="424.563161" transform="rotate(-0 157.80053 424.563161)">SAVE $0-1K</text>
   </g>
   <g id="text_56">
    <text style="font-weight: 700; font-size: 8px; font-family: 'IBM Plex Sans'; text-anchor: middle; fill: #1b5e20" x="527.080191" y="424.563161" transform="rotate(-0 527.080191 424.563161)">SAVE &gt; $1K</text>
   </g>
   <g id="text_57">
    <text style="font-weight: 700; font-size: 8px; font-family: 'IBM Plex Sans'; text-anchor: middle; fill: #81c784" x="179.524898" y="601.661458" transform="rotate(-0 179.524898 601.661458)">SAVE $0-1K</text>
   </g>
   <g id="text_58">
    <text style="font-weight: 700; font-size: 8px; font-family: 'IBM Plex Sans'; text-anchor: middle; fill: #1b5e20" x="546.901947" y="601.661458" transform="rotate(-0 546.901947 601.661458)">SAVE &gt; $1K</text>
   </g>
   <g id="text_59">
    <text style="font-weight: 700; font-size: 8px; font-family: 'IBM Plex Sans'; text-anchor: middle; fill: #81c784" x="245.496691" y="778.759756" transform="rotate(-0 245.496691 778.759756)">SAVE $0-1K</text>
   </g>
   <g id="text_60">
    <text style="font-weight: 700; font-size: 8px; font-family: 'IBM Plex Sans'; text-anchor: middle; fill: #1b5e20" x="611.673162" y="778.759756" transform="rotate(-0 611.673162 778.759756)">SAVE &gt; $1K</text>
   </g>
   <g id="text_61">
    <text style="font-weight: 700; font-size: 8px; font-family: 'IBM Plex Sans'; text-anchor: middle; fill: #ef9a9a" x="29.64375" y="955.858053" transform="rotate(-0 29.64375 955.858053)">LOSE $0-1K</text>
   </g>
   <g id="text_62">
    <text style="font-weight: 700; font-size: 8px; font-family: 'IBM Plex Sans'; text-anchor: middle; fill: #81c784" x="263.14375" y="955.858053" transform="rotate(-0 263.14375 955.858053)">SAVE $0-1K</text>
   </g>
   <g id="text_63">
    <text style="font-weight: 700; font-size: 8px; font-family: 'IBM Plex Sans'; text-anchor: middle; fill: #1b5e20" x="618.14375" y="955.858053" transform="rotate(-0 618.14375 955.858053)">SAVE &gt; $1K</text>
   </g>
   <g id="text_64">
    <text style="font-weight: 700; font-size: 8px; font-family: 'IBM Plex Sans'; text-anchor: middle; fill: #81c784" x="217.024238" y="1132.95635" transform="rotate(-0 217.024238 1132.95635)">SAVE $0-1K</text>
   </g>
   <g id="text_65">
    <text style="font-weight: 700; font-size: 8px; font-family: 'IBM Plex Sans'; text-anchor: middle; fill: #1b5e20" x="585.058384" y="1132.95635" transform="rotate(-0 585.058384 1132.95635)">SAVE &gt; $1K</text>
   </g>
  </g>
  <g id="text_66">
   <text style="font-weight: 700; font-size: 12px; font-family: 'GT Planar'; text-anchor: start" x="11.14375" y="15.6" transform="rotate(-0 11.14375 15.6)">How bills would change for</text>
  </g>
  <g id="text_67">
   <text style="font-weight: 700; font-size: 12px; font-family: 'GT Planar'; text-anchor: start; fill: #b08e00" x="170.2375" y="15.6" transform="rotate(-0 170.2375 15.6)">electric resistance</text>
  </g>
  <g id="text_68">
   <text style="font-weight: 700; font-size: 12px; font-family: 'GT Planar'; text-anchor: start" x="279.45625" y="15.6" transform="rotate(-0 279.45625 15.6)">heated homes after switching to</text>
  </g>
  <g id="text_69">
   <text style="font-weight: 700; font-size: 12px; font-family: 'GT Planar'; text-anchor: start; fill: #c47600" x="468.26875" y="15.6" transform="rotate(-0 468.26875 15.6)">heat pumps</text>
  </g>
 </g>
 <defs>
  <clipPath id="p0f377c9952">
   <rect x="11.14375" y="32.544" width="747" height="1191.168"/>
  </clipPath>
 </defs>
</svg>
