<svg xmlns:xlink="http://www.w3.org/1999/xlink" xmlns="http://www.w3.org/2000/svg" width="790.56pt" height="394.56pt" viewBox="0 0 790.56 394.56" version="1.1">
 <metadata>
  <rdf:RDF xmlns:dc="http://purl.org/dc/elements/1.1/" xmlns:cc="http://creativecommons.org/ns#" xmlns:rdf="http://www.w3.org/1999/02/22-rdf-syntax-ns#">
   <cc:Work>
    <dc:type rdf:resource="http://purl.org/dc/dcmitype/StillImage"/>
    <dc:date>2026-04-11T12:31:55.659185</dc:date>
    <dc:format>image/svg+xml</dc:format>
    <dc:creator>
     <cc:Agent>
      <dc:title>Matplotlib v3.10.8, https://matplotlib.org/</dc:title>
     </cc:Agent>
    </dc:creator>
   </cc:Work>
  </rdf:RDF>
 </metadata>
 <defs>
  <style type="text/css">*{stroke-linejoin: round; stroke-linecap: butt}</style>
 </defs>
 <g id="figure_1">
  <g id="patch_1">
   <path d="M 0 394.56  L 790.56 394.56  L 790.56 0  L 0 0  z " style="fill: #ffffff"/>
  </g>
  <g id="axes_1">
   <g id="patch_2">
    <path d="M 58.1825 344.63  L 604.119062 344.63  L 604.119062 36.4  L 58.1825 36.4  z " style="fill: #ffffff"/>
   </g>
   <g id="matplotlib.axis_1">
    <g id="xtick_1">
     <g id="line2d_1">
      <path d="M 85.031839 344.63  " style="fill: none; stroke: #000000; stroke-width: 1.5; stroke-linecap: square"/>
      <defs>
       <path id="m39c9ec32e8" d="M 0 0  L 0 2.75  " style="stroke: #000000"/>
      </defs>
      <g>
       <use xlink:href="#m39c9ec32e8" x="85.031839" y="344.63" style="stroke: #000000"/>
      </g>
     </g>
     <g id="text_1">
      <text style="font-size: 11px; font-family: 'IBM Plex Sans'; text-anchor: middle; fill: #4d4d4d" x="85.031839" y="357.72" transform="rotate(-0 85.031839 357.72)">Jan</text>
     </g>
    </g>
    <g id="xtick_2">
     <g id="line2d_2">
      <path d="M 129.780738 344.63  " style="fill: none; stroke: #000000; stroke-width: 1.5; stroke-linecap: square"/>
      <g>
       <use xlink:href="#m39c9ec32e8" x="129.780738" y="344.63" style="stroke: #000000"/>
      </g>
     </g>
     <g id="text_2">
      <text style="font-size: 11px; font-family: 'IBM Plex Sans'; text-anchor: middle; fill: #4d4d4d" x="129.780738" y="357.72" transform="rotate(-0 129.780738 357.72)">Feb</text>
     </g>
    </g>
    <g id="xtick_3">
     <g id="line2d_3">
      <path d="M 174.529636 344.63  " style="fill: none; stroke: #000000; stroke-width: 1.5; stroke-linecap: square"/>
      <g>
       <use xlink:href="#m39c9ec32e8" x="174.529636" y="344.63" style="stroke: #000000"/>
      </g>
     </g>
     <g id="text_3">
      <text style="font-size: 11px; font-family: 'IBM Plex Sans'; text-anchor: middle; fill: #4d4d4d" x="174.529636" y="357.72" transform="rotate(-0 174.529636 357.72)">Mar</text>
     </g>
    </g>
    <g id="xtick_4">
     <g id="line2d_4">
      <path d="M 219.278535 344.63  " style="fill: none; stroke: #000000; stroke-width: 1.5; stroke-linecap: square"/>
      <g>
       <use xlink:href="#m39c9ec32e8" x="219.278535" y="344.63" style="stroke: #000000"/>
      </g>
     </g>
     <g id="text_4">
      <text style="font-size: 11px; font-family: 'IBM Plex Sans'; text-anchor: middle; fill: #4d4d4d" x="219.278535" y="357.72" transform="rotate(-0 219.278535 357.72)">Apr</text>
     </g>
    </g>
    <g id="xtick_5">
     <g id="line2d_5">
      <path d="M 264.027433 344.63  " style="fill: none; stroke: #000000; stroke-width: 1.5; stroke-linecap: square"/>
      <g>
       <use xlink:href="#m39c9ec32e8" x="264.027433" y="344.63" style="stroke: #000000"/>
      </g>
     </g>
     <g id="text_5">
      <text style="font-size: 11px; font-family: 'IBM Plex Sans'; text-anchor: middle; fill: #4d4d4d" x="264.027433" y="357.72" transform="rotate(-0 264.027433 357.72)">May</text>
     </g>
    </g>
    <g id="xtick_6">
     <g id="line2d_6">
      <path d="M 308.776332 344.63  " style="fill: none; stroke: #000000; stroke-width: 1.5; stroke-linecap: square"/>
      <g>
       <use xlink:href="#m39c9ec32e8" x="308.776332" y="344.63" style="stroke: #000000"/>
      </g>
     </g>
     <g id="text_6">
      <text style="font-size: 11px; font-family: 'IBM Plex Sans'; text-anchor: middle; fill: #4d4d4d" x="308.776332" y="357.72" transform="rotate(-0 308.776332 357.72)">Jun</text>
     </g>
    </g>
    <g id="xtick_7">
     <g id="line2d_7">
      <path d="M 353.525231 344.63  " style="fill: none; stroke: #000000; stroke-width: 1.5; stroke-linecap: square"/>
      <g>
       <use xlink:href="#m39c9ec32e8" x="353.525231" y="344.63" style="stroke: #000000"/>
      </g>
     </g>
     <g id="text_7">
      <text style="font-size: 11px; font-family: 'IBM Plex Sans'; text-anchor: middle; fill: #4d4d4d" x="353.525231" y="357.72" transform="rotate(-0 353.525231 357.72)">Jul</text>
     </g>
    </g>
    <g id="xtick_8">
     <g id="line2d_8">
      <path d="M 398.274129 344.63  " style="fill: none; stroke: #000000; stroke-width: 1.5; stroke-linecap: square"/>
      <g>
       <use xlink:href="#m39c9ec32e8" x="398.274129" y="344.63" style="stroke: #000000"/>
      </g>
     </g>
     <g id="text_8">
      <text style="font-size: 11px; font-family: 'IBM Plex Sans'; text-anchor: middle; fill: #4d4d4d" x="398.274129" y="357.587656" transform="rotate(-0 398.274129 357.587656)">Aug</text>
     </g>
    </g>
    <g id="xtick_9">
     <g id="line2d_9">
      <path d="M 443.023028 344.63  " style="fill: none; stroke: #000000; stroke-width: 1.5; stroke-linecap: square"/>
      <g>
       <use xlink:href="#m39c9ec32e8" x="443.023028" y="344.63" style="stroke: #000000"/>
      </g>
     </g>
     <g id="text_9">
      <text style="font-size: 11px; font-family: 'IBM Plex Sans'; text-anchor: middle; fill: #4d4d4d" x="443.023028" y="357.72" transform="rotate(-0 443.023028 357.72)">Sep</text>
     </g>
    </g>
    <g id="xtick_10">
     <g id="line2d_10">
      <path d="M 487.771926 344.63  " style="fill: none; stroke: #000000; stroke-width: 1.5; stroke-linecap: square"/>
      <g>
       <use xlink:href="#m39c9ec32e8" x="487.771926" y="344.63" style="stroke: #000000"/>
      </g>
     </g>
     <g id="text_10">
      <text style="font-size: 11px; font-family: 'IBM Plex Sans'; text-anchor: middle; fill: #4d4d4d" x="487.771926" y="357.72" transform="rotate(-0 487.771926 357.72)">Oct</text>
     </g>
    </g>
    <g id="xtick_11">
     <g id="line2d_11">
      <path d="M 532.520825 344.63  " style="fill: none; stroke: #000000; stroke-width: 1.5; stroke-linecap: square"/>
      <g>
       <use xlink:href="#m39c9ec32e8" x="532.520825" y="344.63" style="stroke: #000000"/>
      </g>
     </g>
     <g id="text_11">
      <text style="font-size: 11px; font-family: 'IBM Plex Sans'; text-anchor: middle; fill: #4d4d4d" x="532.520825" y="357.72" transform="rotate(-0 532.520825 357.72)">Nov</text>
     </g>
    </g>
    <g id="xtick_12">
     <g id="line2d_12">
      <path d="M 577.269723 344.63  " style="fill: none; stroke: #000000; stroke-width: 1.5; stroke-linecap: square"/>
      <g>
       <use xlink:href="#m39c9ec32e8" x="577.269723" y="344.63" style="stroke: #000000"/>
      </g>
     </g>
     <g id="text_12">
      <text style="font-size: 11px; font-family: 'IBM Plex Sans'; text-anchor: middle; fill: #4d4d4d" x="577.269723" y="357.72" transform="rotate(-0 577.269723 357.72)">Dec</text>
     </g>
    </g>
   </g>
   <g id="matplotlib.axis_2">
    <g id="ytick_1">
     <g id="line2d_13">
      <path d="M 58.1825 275.337348  L 604.119062 275.337348  " clip-path="url(#pce10ada07c)" style="fill: none; stroke: #e5e5e5; stroke-linecap: square"/>
     </g>
     <g id="text_13">
      <text style="font-size: 11px; font-family: 'IBM Plex Sans'; text-anchor: start; fill: #4d4d4d" x="38.392813" y="279.407348" transform="rotate(-0 38.392813 279.407348)">-50</text>
     </g>
    </g>
    <g id="ytick_2">
     <g id="line2d_14">
      <path d="M 58.1825 195.15256  L 604.119062 195.15256  " clip-path="url(#pce10ada07c)" style="fill: none; stroke: #e5e5e5; stroke-linecap: square"/>
     </g>
     <g id="text_14">
      <text style="font-size: 11px; font-family: 'IBM Plex Sans'; text-anchor: start; fill: #4d4d4d" x="49.3825" y="199.22256" transform="rotate(-0 49.3825 199.22256)">0</text>
     </g>
    </g>
    <g id="ytick_3">
     <g id="line2d_15">
      <path d="M 58.1825 114.967772  L 604.119062 114.967772  " clip-path="url(#pce10ada07c)" style="fill: none; stroke: #e5e5e5; stroke-linecap: square"/>
     </g>
     <g id="text_15">
      <text style="font-size: 11px; font-family: 'IBM Plex Sans'; text-anchor: start; fill: #4d4d4d" x="42.7825" y="119.037772" transform="rotate(-0 42.7825 119.037772)">50</text>
     </g>
    </g>
    <g id="ytick_4">
     <g id="line2d_16">
      <path d="M 58.1825 315.429741  L 604.119062 315.429741  " clip-path="url(#pce10ada07c)" style="fill: none; stroke: #fafafa; stroke-width: 0.5; stroke-linecap: square"/>
     </g>
    </g>
    <g id="ytick_5">
     <g id="line2d_17">
      <path d="M 58.1825 235.244954  L 604.119062 235.244954  " clip-path="url(#pce10ada07c)" style="fill: none; stroke: #fafafa; stroke-width: 0.5; stroke-linecap: square"/>
     </g>
    </g>
    <g id="ytick_6">
     <g id="line2d_18">
      <path d="M 58.1825 155.060166  L 604.119062 155.060166  " clip-path="url(#pce10ada07c)" style="fill: none; stroke: #fafafa; stroke-width: 0.5; stroke-linecap: square"/>
     </g>
    </g>
    <g id="ytick_7">
     <g id="line2d_19">
      <path d="M 58.1825 74.875378  L 604.119062 74.875378  " clip-path="url(#pce10ada07c)" style="fill: none; stroke: #fafafa; stroke-width: 0.5; stroke-linecap: square"/>
     </g>
    </g>
   </g>
   <g id="line2d_20">
    <path d="M 85.031839 268.561774  L 129.780738 295.184035  L 174.529636 313.883666  L 219.278535 289.39277  L 264.027433 165.256087  L 308.776332 112.63011  L 353.525231 55.083713  L 398.274129 50.410455  L 443.023028 124.322828  L 487.771926 211.071667  L 532.520825 269.572922  L 577.269723 242.880563  " clip-path="url(#pce10ada07c)" style="fill: none; stroke: #f8766d; stroke-width: 0.886227"/>
   </g>
   <g id="line2d_21">
    <path d="M 85.031839 217.900386  L 129.780738 306.336759  L 174.529636 330.619545  L 219.278535 328.052002  L 264.027433 175.517021  L 308.776332 122.312007  L 353.525231 53.420636  L 398.274129 59.143503  L 443.023028 133.734436  L 487.771926 220.66179  L 532.520825 271.607752  L 577.269723 178.846178  " clip-path="url(#pce10ada07c)" style="fill: none; stroke: #c49a00; stroke-width: 0.886227"/>
   </g>
   <g id="line2d_22">
    <path d="M 85.031839 246.155177  L 129.780738 285.929879  L 174.529636 303.631748  L 219.278535 289.795861  L 264.027433 179.332587  L 308.776332 136.929226  L 353.525231 93.40062  L 398.274129 88.951506  L 443.023028 145.217373  L 487.771926 215.385075  L 532.520825 262.289628  L 577.269723 225.928864  " clip-path="url(#pce10ada07c)" style="fill: none; stroke: #53b400; stroke-width: 0.886227"/>
   </g>
   <g id="line2d_23">
    <path d="M 85.031839 240.06564  L 129.780738 261.925985  L 174.529636 277.076493  L 219.278535 261.407237  L 264.027433 190.138533  L 308.776332 169.297741  L 353.525231 151.105603  L 398.274129 145.832166  L 443.023028 173.095035  L 487.771926 213.834328  L 532.520825 250.832362  L 577.269723 234.136023  " clip-path="url(#pce10ada07c)" style="fill: none; stroke: #00c094; stroke-width: 0.886227"/>
   </g>
   <g id="line2d_24">
    <path d="M 85.031839 240.254175  L 129.780738 270.781671  L 174.529636 284.844612  L 219.278535 270.562363  L 264.027433 202.990419  L 308.776332 191.469619  L 353.525231 187.374443  L 398.274129 183.219385  L 443.023028 192.220554  L 487.771926 219.3206  L 532.520825 254.013156  L 577.269723 228.37771  " clip-path="url(#pce10ada07c)" style="fill: none; stroke: #00b6eb; stroke-width: 0.886227"/>
   </g>
   <g id="line2d_25">
    <path d="M 85.031839 216.305306  L 129.780738 276.516477  L 174.529636 292.976004  L 219.278535 284.637933  L 264.027433 220.912393  L 308.776332 219.57557  L 353.525231 235.881178  L 398.274129 232.700573  L 443.023028 216.310577  L 487.771926 223.435801  L 532.520825 250.79522  L 577.269723 203.013739  " clip-path="url(#pce10ada07c)" style="fill: none; stroke: #a58aff; stroke-width: 0.886227"/>
   </g>
   <g id="line2d_26">
    <path d="M 85.031839 229.324444  L 129.780738 269.106893  L 174.529636 281.088579  L 219.278535 272.254325  L 264.027433 229.411362  L 308.776332 245.689381  L 353.525231 282.138962  L 398.274129 280.212014  L 443.023028 239.163994  L 487.771926 225.17516  L 532.520825 244.935933  L 577.269723 212.054246  " clip-path="url(#pce10ada07c)" style="fill: none; stroke: #fb61d7; stroke-width: 0.886227"/>
   </g>
   <g id="PathCollection_1">
    <path d="M 85.031839 270.600096  C 85.572408 270.600096 86.09091 270.385325 86.47315 270.003085  C 86.855391 269.620845 87.070161 269.102343 87.070161 268.561774  C 87.070161 268.021205 86.855391 267.502703 86.47315 267.120463  C 86.09091 266.738222 85.572408 266.523452 85.031839 266.523452  C 84.49127 266.523452 83.972768 266.738222 83.590528 267.120463  C 83.208288 267.502703 82.993517 268.021205 82.993517 268.561774  C 82.993517 269.102343 83.208288 269.620845 83.590528 270.003085  C 83.972768 270.385325 84.49127 270.600096 85.031839 270.600096  z " clip-path="url(#pce10ada07c)" style="fill: #f8766d; stroke: #f8766d; stroke-width: 0.886227"/>
    <path d="M 129.780738 297.222356  C 130.321307 297.222356 130.839809 297.007586 131.222049 296.625346  C 131.604289 296.243106 131.81906 295.724604 131.81906 295.184035  C 131.81906 294.643465 131.604289 294.124963 131.222049 293.742723  C 130.839809 293.360483 130.321307 293.145713 129.780738 293.145713  C 129.240168 293.145713 128.721667 293.360483 128.339426 293.742723  C 127.957186 294.124963 127.742416 294.643465 127.742416 295.184035  C 127.742416 295.724604 127.957186 296.243106 128.339426 296.625346  C 128.721667 297.007586 129.240168 297.222356 129.780738 297.222356  z " clip-path="url(#pce10ada07c)" style="fill: #f8766d; stroke: #f8766d; stroke-width: 0.886227"/>
    <path d="M 174.529636 315.921987  C 175.070206 315.921987 175.588707 315.707217 175.970948 315.324977  C 176.353188 314.942737 176.567958 314.424235 176.567958 313.883666  C 176.567958 313.343096 176.353188 312.824594 175.970948 312.442354  C 175.588707 312.060114 175.070206 311.845344 174.529636 311.845344  C 173.989067 311.845344 173.470565 312.060114 173.088325 312.442354  C 172.706085 312.824594 172.491314 313.343096 172.491314 313.883666  C 172.491314 314.424235 172.706085 314.942737 173.088325 315.324977  C 173.470565 315.707217 173.989067 315.921987 174.529636 315.921987  z " clip-path="url(#pce10ada07c)" style="fill: #f8766d; stroke: #f8766d; stroke-width: 0.886227"/>
    <path d="M 219.278535 291.431092  C 219.819104 291.431092 220.337606 291.216321 220.719846 290.834081  C 221.102086 290.451841 221.316857 289.933339 221.316857 289.39277  C 221.316857 288.852201 221.102086 288.333699 220.719846 287.951459  C 220.337606 287.569218 219.819104 287.354448 219.278535 287.354448  C 218.737966 287.354448 218.219464 287.569218 217.837224 287.951459  C 217.454983 288.333699 217.240213 288.852201 217.240213 289.39277  C 217.240213 289.933339 217.454983 290.451841 217.837224 290.834081  C 218.219464 291.216321 218.737966 291.431092 219.278535 291.431092  z " clip-path="url(#pce10ada07c)" style="fill: #f8766d; stroke: #f8766d; stroke-width: 0.886227"/>
    <path d="M 264.027433 167.294409  C 264.568003 167.294409 265.086504 167.079639 265.468745 166.697399  C 265.850985 166.315158 266.065755 165.796657 266.065755 165.256087  C 266.065755 164.715518 265.850985 164.197016 265.468745 163.814776  C 265.086504 163.432536 264.568003 163.217765 264.027433 163.217765  C 263.486864 163.217765 262.968362 163.432536 262.586122 163.814776  C 262.203882 164.197016 261.989111 164.715518 261.989111 165.256087  C 261.989111 165.796657 262.203882 166.315158 262.586122 166.697399  C 262.968362 167.079639 263.486864 167.294409 264.027433 167.294409  z " clip-path="url(#pce10ada07c)" style="fill: #f8766d; stroke: #f8766d; stroke-width: 0.886227"/>
    <path d="M 308.776332 114.668432  C 309.316901 114.668432 309.835403 114.453662 310.217643 114.071421  C 310.599883 113.689181 310.814654 113.170679 310.814654 112.63011  C 310.814654 112.089541 310.599883 111.571039 310.217643 111.188799  C 309.835403 110.806559 309.316901 110.591788 308.776332 110.591788  C 308.235763 110.591788 307.717261 110.806559 307.335021 111.188799  C 306.95278 111.571039 306.73801 112.089541 306.73801 112.63011  C 306.73801 113.170679 306.95278 113.689181 307.335021 114.071421  C 307.717261 114.453662 308.235763 114.668432 308.776332 114.668432  z " clip-path="url(#pce10ada07c)" style="fill: #f8766d; stroke: #f8766d; stroke-width: 0.886227"/>
    <path d="M 353.525231 57.122034  C 354.0658 57.122034 354.584302 56.907264 354.966542 56.525024  C 355.348782 56.142784 355.563552 55.624282 355.563552 55.083713  C 355.563552 54.543143 355.348782 54.024641 354.966542 53.642401  C 354.584302 53.260161 354.0658 53.045391 353.525231 53.045391  C 352.984661 53.045391 352.466159 53.260161 352.083919 53.642401  C 351.701679 54.024641 351.486909 54.543143 351.486909 55.083713  C 351.486909 55.624282 351.701679 56.142784 352.083919 56.525024  C 352.466159 56.907264 352.984661 57.122034 353.525231 57.122034  z " clip-path="url(#pce10ada07c)" style="fill: #f8766d; stroke: #f8766d; stroke-width: 0.886227"/>
    <path d="M 398.274129 52.448776  C 398.814698 52.448776 399.3332 52.234006 399.71544 51.851766  C 400.097681 51.469526 400.312451 50.951024 400.312451 50.410455  C 400.312451 49.869885 400.097681 49.351384 399.71544 48.969143  C 399.3332 48.586903 398.814698 48.372133 398.274129 48.372133  C 397.73356 48.372133 397.215058 48.586903 396.832818 48.969143  C 396.450578 49.351384 396.235807 49.869885 396.235807 50.410455  C 396.235807 50.951024 396.450578 51.469526 396.832818 51.851766  C 397.215058 52.234006 397.73356 52.448776 398.274129 52.448776  z " clip-path="url(#pce10ada07c)" style="fill: #f8766d; stroke: #f8766d; stroke-width: 0.886227"/>
    <path d="M 443.023028 126.36115  C 443.563597 126.36115 444.082099 126.14638 444.464339 125.76414  C 444.846579 125.381899 445.06135 124.863398 445.06135 124.322828  C 445.06135 123.782259 444.846579 123.263757 444.464339 122.881517  C 444.082099 122.499277 443.563597 122.284506 443.023028 122.284506  C 442.482458 122.284506 441.963957 122.499277 441.581716 122.881517  C 441.199476 123.263757 440.984706 123.782259 440.984706 124.322828  C 440.984706 124.863398 441.199476 125.381899 441.581716 125.76414  C 441.963957 126.14638 442.482458 126.36115 443.023028 126.36115  z " clip-path="url(#pce10ada07c)" style="fill: #f8766d; stroke: #f8766d; stroke-width: 0.886227"/>
    <path d="M 487.771926 213.109989  C 488.312496 213.109989 488.830997 212.895218 489.213237 212.512978  C 489.595478 212.130738 489.810248 211.612236 489.810248 211.071667  C 489.810248 210.531097 489.595478 210.012596 489.213237 209.630355  C 488.830997 209.248115 488.312496 209.033345 487.771926 209.033345  C 487.231357 209.033345 486.712855 209.248115 486.330615 209.630355  C 485.948375 210.012596 485.733604 210.531097 485.733604 211.071667  C 485.733604 211.612236 485.948375 212.130738 486.330615 212.512978  C 486.712855 212.895218 487.231357 213.109989 487.771926 213.109989  z " clip-path="url(#pce10ada07c)" style="fill: #f8766d; stroke: #f8766d; stroke-width: 0.886227"/>
    <path d="M 532.520825 271.611244  C 533.061394 271.611244 533.579896 271.396473 533.962136 271.014233  C 534.344376 270.631993 534.559147 270.113491 534.559147 269.572922  C 534.559147 269.032352 534.344376 268.513851 533.962136 268.13161  C 533.579896 267.74937 533.061394 267.5346 532.520825 267.5346  C 531.980256 267.5346 531.461754 267.74937 531.079514 268.13161  C 530.697273 268.513851 530.482503 269.032352 530.482503 269.572922  C 530.482503 270.113491 530.697273 270.631993 531.079514 271.014233  C 531.461754 271.396473 531.980256 271.611244 532.520825 271.611244  z " clip-path="url(#pce10ada07c)" style="fill: #f8766d; stroke: #f8766d; stroke-width: 0.886227"/>
    <path d="M 577.269723 244.918885  C 577.810293 244.918885 578.328794 244.704114 578.711035 244.321874  C 579.093275 243.939634 579.308045 243.421132 579.308045 242.880563  C 579.308045 242.339993 579.093275 241.821492 578.711035 241.439251  C 578.328794 241.057011 577.810293 240.842241 577.269723 240.842241  C 576.729154 240.842241 576.210652 241.057011 575.828412 241.439251  C 575.446172 241.821492 575.231401 242.339993 575.231401 242.880563  C 575.231401 243.421132 575.446172 243.939634 575.828412 244.321874  C 576.210652 244.704114 576.729154 244.918885 577.269723 244.918885  z " clip-path="url(#pce10ada07c)" style="fill: #f8766d; stroke: #f8766d; stroke-width: 0.886227"/>
    <path d="M 85.031839 219.938708  C 85.572408 219.938708 86.09091 219.723938 86.47315 219.341698  C 86.855391 218.959457 87.070161 218.440956 87.070161 217.900386  C 87.070161 217.359817 86.855391 216.841315 86.47315 216.459075  C 86.09091 216.076835 85.572408 215.862064 85.031839 215.862064  C 84.49127 215.862064 83.972768 216.076835 83.590528 216.459075  C 83.208288 216.841315 82.993517 217.359817 82.993517 217.900386  C 82.993517 218.440956 83.208288 218.959457 83.590528 219.341698  C 83.972768 219.723938 84.49127 219.938708 85.031839 219.938708  z " clip-path="url(#pce10ada07c)" style="fill: #c49a00; stroke: #c49a00; stroke-width: 0.886227"/>
    <path d="M 129.780738 308.375081  C 130.321307 308.375081 130.839809 308.160311 131.222049 307.778071  C 131.604289 307.39583 131.81906 306.877329 131.81906 306.336759  C 131.81906 305.79619 131.604289 305.277688 131.222049 304.895448  C 130.839809 304.513208 130.321307 304.298437 129.780738 304.298437  C 129.240168 304.298437 128.721667 304.513208 128.339426 304.895448  C 127.957186 305.277688 127.742416 305.79619 127.742416 306.336759  C 127.742416 306.877329 127.957186 307.39583 128.339426 307.778071  C 128.721667 308.160311 129.240168 308.375081 129.780738 308.375081  z " clip-path="url(#pce10ada07c)" style="fill: #c49a00; stroke: #c49a00; stroke-width: 0.886227"/>
    <path d="M 174.529636 332.657867  C 175.070206 332.657867 175.588707 332.443097 175.970948 332.060857  C 176.353188 331.678616 176.567958 331.160115 176.567958 330.619545  C 176.567958 330.078976 176.353188 329.560474 175.970948 329.178234  C 175.588707 328.795994 175.070206 328.581224 174.529636 328.581224  C 173.989067 328.581224 173.470565 328.795994 173.088325 329.178234  C 172.706085 329.560474 172.491314 330.078976 172.491314 330.619545  C 172.491314 331.160115 172.706085 331.678616 173.088325 332.060857  C 173.470565 332.443097 173.989067 332.657867 174.529636 332.657867  z " clip-path="url(#pce10ada07c)" style="fill: #c49a00; stroke: #c49a00; stroke-width: 0.886227"/>
    <path d="M 219.278535 330.090324  C 219.819104 330.090324 220.337606 329.875553 220.719846 329.493313  C 221.102086 329.111073 221.316857 328.592571 221.316857 328.052002  C 221.316857 327.511433 221.102086 326.992931 220.719846 326.610691  C 220.337606 326.22845 219.819104 326.01368 219.278535 326.01368  C 218.737966 326.01368 218.219464 326.22845 217.837224 326.610691  C 217.454983 326.992931 217.240213 327.511433 217.240213 328.052002  C 217.240213 328.592571 217.454983 329.111073 217.837224 329.493313  C 218.219464 329.875553 218.737966 330.090324 219.278535 330.090324  z " clip-path="url(#pce10ada07c)" style="fill: #c49a00; stroke: #c49a00; stroke-width: 0.886227"/>
    <path d="M 264.027433 177.555342  C 264.568003 177.555342 265.086504 177.340572 265.468745 176.958332  C 265.850985 176.576092 266.065755 176.05759 266.065755 175.517021  C 266.065755 174.976451 265.850985 174.457949 265.468745 174.075709  C 265.086504 173.693469 264.568003 173.478699 264.027433 173.478699  C 263.486864 173.478699 262.968362 173.693469 262.586122 174.075709  C 262.203882 174.457949 261.989111 174.976451 261.989111 175.517021  C 261.989111 176.05759 262.203882 176.576092 262.586122 176.958332  C 262.968362 177.340572 263.486864 177.555342 264.027433 177.555342  z " clip-path="url(#pce10ada07c)" style="fill: #c49a00; stroke: #c49a00; stroke-width: 0.886227"/>
    <path d="M 308.776332 124.350329  C 309.316901 124.350329 309.835403 124.135558 310.217643 123.753318  C 310.599883 123.371078 310.814654 122.852576 310.814654 122.312007  C 310.814654 121.771437 310.599883 121.252936 310.217643 120.870695  C 309.835403 120.488455 309.316901 120.273685 308.776332 120.273685  C 308.235763 120.273685 307.717261 120.488455 307.335021 120.870695  C 306.95278 121.252936 306.73801 121.771437 306.73801 122.312007  C 306.73801 122.852576 306.95278 123.371078 307.335021 123.753318  C 307.717261 124.135558 308.235763 124.350329 308.776332 124.350329  z " clip-path="url(#pce10ada07c)" style="fill: #c49a00; stroke: #c49a00; stroke-width: 0.886227"/>
    <path d="M 353.525231 55.458958  C 354.0658 55.458958 354.584302 55.244188 354.966542 54.861947  C 355.348782 54.479707 355.563552 53.961205 355.563552 53.420636  C 355.563552 52.880067 355.348782 52.361565 354.966542 51.979325  C 354.584302 51.597085 354.0658 51.382314 353.525231 51.382314  C 352.984661 51.382314 352.466159 51.597085 352.083919 51.979325  C 351.701679 52.361565 351.486909 52.880067 351.486909 53.420636  C 351.486909 53.961205 351.701679 54.479707 352.083919 54.861947  C 352.466159 55.244188 352.984661 55.458958 353.525231 55.458958  z " clip-path="url(#pce10ada07c)" style="fill: #c49a00; stroke: #c49a00; stroke-width: 0.886227"/>
    <path d="M 398.274129 61.181825  C 398.814698 61.181825 399.3332 60.967055 399.71544 60.584815  C 400.097681 60.202574 400.312451 59.684073 400.312451 59.143503  C 400.312451 58.602934 400.097681 58.084432 399.71544 57.702192  C 399.3332 57.319952 398.814698 57.105181 398.274129 57.105181  C 397.73356 57.105181 397.215058 57.319952 396.832818 57.702192  C 396.450578 58.084432 396.235807 58.602934 396.235807 59.143503  C 396.235807 59.684073 396.450578 60.202574 396.832818 60.584815  C 397.215058 60.967055 397.73356 61.181825 398.274129 61.181825  z " clip-path="url(#pce10ada07c)" style="fill: #c49a00; stroke: #c49a00; stroke-width: 0.886227"/>
    <path d="M 443.023028 135.772758  C 443.563597 135.772758 444.082099 135.557987 444.464339 135.175747  C 444.846579 134.793507 445.06135 134.275005 445.06135 133.734436  C 445.06135 133.193867 444.846579 132.675365 444.464339 132.293125  C 444.082099 131.910884 443.563597 131.696114 443.023028 131.696114  C 442.482458 131.696114 441.963957 131.910884 441.581716 132.293125  C 441.199476 132.675365 440.984706 133.193867 440.984706 133.734436  C 440.984706 134.275005 441.199476 134.793507 441.581716 135.175747  C 441.963957 135.557987 442.482458 135.772758 443.023028 135.772758  z " clip-path="url(#pce10ada07c)" style="fill: #c49a00; stroke: #c49a00; stroke-width: 0.886227"/>
    <path d="M 487.771926 222.700112  C 488.312496 222.700112 488.830997 222.485341 489.213237 222.103101  C 489.595478 221.720861 489.810248 221.202359 489.810248 220.66179  C 489.810248 220.12122 489.595478 219.602719 489.213237 219.220478  C 488.830997 218.838238 488.312496 218.623468 487.771926 218.623468  C 487.231357 218.623468 486.712855 218.838238 486.330615 219.220478  C 485.948375 219.602719 485.733604 220.12122 485.733604 220.66179  C 485.733604 221.202359 485.948375 221.720861 486.330615 222.103101  C 486.712855 222.485341 487.231357 222.700112 487.771926 222.700112  z " clip-path="url(#pce10ada07c)" style="fill: #c49a00; stroke: #c49a00; stroke-width: 0.886227"/>
    <path d="M 532.520825 273.646074  C 533.061394 273.646074 533.579896 273.431303 533.962136 273.049063  C 534.344376 272.666823 534.559147 272.148321 534.559147 271.607752  C 534.559147 271.067182 534.344376 270.548681 533.962136 270.16644  C 533.579896 269.7842 533.061394 269.56943 532.520825 269.56943  C 531.980256 269.56943 531.461754 269.7842 531.079514 270.16644  C 530.697273 270.548681 530.482503 271.067182 530.482503 271.607752  C 530.482503 272.148321 530.697273 272.666823 531.079514 273.049063  C 531.461754 273.431303 531.980256 273.646074 532.520825 273.646074  z " clip-path="url(#pce10ada07c)" style="fill: #c49a00; stroke: #c49a00; stroke-width: 0.886227"/>
    <path d="M 577.269723 180.8845  C 577.810293 180.8845 578.328794 180.66973 578.711035 180.28749  C 579.093275 179.905249 579.308045 179.386748 579.308045 178.846178  C 579.308045 178.305609 579.093275 177.787107 578.711035 177.404867  C 578.328794 177.022627 577.810293 176.807856 577.269723 176.807856  C 576.729154 176.807856 576.210652 177.022627 575.828412 177.404867  C 575.446172 177.787107 575.231401 178.305609 575.231401 178.846178  C 575.231401 179.386748 575.446172 179.905249 575.828412 180.28749  C 576.210652 180.66973 576.729154 180.8845 577.269723 180.8845  z " clip-path="url(#pce10ada07c)" style="fill: #c49a00; stroke: #c49a00; stroke-width: 0.886227"/>
    <path d="M 85.031839 248.193498  C 85.572408 248.193498 86.09091 247.978728 86.47315 247.596488  C 86.855391 247.214248 87.070161 246.695746 87.070161 246.155177  C 87.070161 245.614607 86.855391 245.096105 86.47315 244.713865  C 86.09091 244.331625 85.572408 244.116855 85.031839 244.116855  C 84.49127 244.116855 83.972768 244.331625 83.590528 244.713865  C 83.208288 245.096105 82.993517 245.614607 82.993517 246.155177  C 82.993517 246.695746 83.208288 247.214248 83.590528 247.596488  C 83.972768 247.978728 84.49127 248.193498 85.031839 248.193498  z " clip-path="url(#pce10ada07c)" style="fill: #53b400; stroke: #53b400; stroke-width: 0.886227"/>
    <path d="M 129.780738 287.968201  C 130.321307 287.968201 130.839809 287.753431 131.222049 287.371191  C 131.604289 286.98895 131.81906 286.470449 131.81906 285.929879  C 131.81906 285.38931 131.604289 284.870808 131.222049 284.488568  C 130.839809 284.106328 130.321307 283.891557 129.780738 283.891557  C 129.240168 283.891557 128.721667 284.106328 128.339426 284.488568  C 127.957186 284.870808 127.742416 285.38931 127.742416 285.929879  C 127.742416 286.470449 127.957186 286.98895 128.339426 287.371191  C 128.721667 287.753431 129.240168 287.968201 129.780738 287.968201  z " clip-path="url(#pce10ada07c)" style="fill: #53b400; stroke: #53b400; stroke-width: 0.886227"/>
    <path d="M 174.529636 305.67007  C 175.070206 305.67007 175.588707 305.455299 175.970948 305.073059  C 176.353188 304.690819 176.567958 304.172317 176.567958 303.631748  C 176.567958 303.091179 176.353188 302.572677 175.970948 302.190437  C 175.588707 301.808196 175.070206 301.593426 174.529636 301.593426  C 173.989067 301.593426 173.470565 301.808196 173.088325 302.190437  C 172.706085 302.572677 172.491314 303.091179 172.491314 303.631748  C 172.491314 304.172317 172.706085 304.690819 173.088325 305.073059  C 173.470565 305.455299 173.989067 305.67007 174.529636 305.67007  z " clip-path="url(#pce10ada07c)" style="fill: #53b400; stroke: #53b400; stroke-width: 0.886227"/>
    <path d="M 219.278535 291.834183  C 219.819104 291.834183 220.337606 291.619413 220.719846 291.237173  C 221.102086 290.854932 221.316857 290.336431 221.316857 289.795861  C 221.316857 289.255292 221.102086 288.73679 220.719846 288.35455  C 220.337606 287.97231 219.819104 287.75754 219.278535 287.75754  C 218.737966 287.75754 218.219464 287.97231 217.837224 288.35455  C 217.454983 288.73679 217.240213 289.255292 217.240213 289.795861  C 217.240213 290.336431 217.454983 290.854932 217.837224 291.237173  C 218.219464 291.619413 218.737966 291.834183 219.278535 291.834183  z " clip-path="url(#pce10ada07c)" style="fill: #53b400; stroke: #53b400; stroke-width: 0.886227"/>
    <path d="M 264.027433 181.370909  C 264.568003 181.370909 265.086504 181.156138 265.468745 180.773898  C 265.850985 180.391658 266.065755 179.873156 266.065755 179.332587  C 266.065755 178.792018 265.850985 178.273516 265.468745 177.891276  C 265.086504 177.509035 264.568003 177.294265 264.027433 177.294265  C 263.486864 177.294265 262.968362 177.509035 262.586122 177.891276  C 262.203882 178.273516 261.989111 178.792018 261.989111 179.332587  C 261.989111 179.873156 262.203882 180.391658 262.586122 180.773898  C 262.968362 181.156138 263.486864 181.370909 264.027433 181.370909  z " clip-path="url(#pce10ada07c)" style="fill: #53b400; stroke: #53b400; stroke-width: 0.886227"/>
    <path d="M 308.776332 138.967548  C 309.316901 138.967548 309.835403 138.752777 310.217643 138.370537  C 310.599883 137.988297 310.814654 137.469795 310.814654 136.929226  C 310.814654 136.388657 310.599883 135.870155 310.217643 135.487915  C 309.835403 135.105674 309.316901 134.890904 308.776332 134.890904  C 308.235763 134.890904 307.717261 135.105674 307.335021 135.487915  C 306.95278 135.870155 306.73801 136.388657 306.73801 136.929226  C 306.73801 137.469795 306.95278 137.988297 307.335021 138.370537  C 307.717261 138.752777 308.235763 138.967548 308.776332 138.967548  z " clip-path="url(#pce10ada07c)" style="fill: #53b400; stroke: #53b400; stroke-width: 0.886227"/>
    <path d="M 353.525231 95.438942  C 354.0658 95.438942 354.584302 95.224171 354.966542 94.841931  C 355.348782 94.459691 355.563552 93.941189 355.563552 93.40062  C 355.563552 92.860051 355.348782 92.341549 354.966542 91.959309  C 354.584302 91.577069 354.0658 91.362298 353.525231 91.362298  C 352.984661 91.362298 352.466159 91.577069 352.083919 91.959309  C 351.701679 92.341549 351.486909 92.860051 351.486909 93.40062  C 351.486909 93.941189 351.701679 94.459691 352.083919 94.841931  C 352.466159 95.224171 352.984661 95.438942 353.525231 95.438942  z " clip-path="url(#pce10ada07c)" style="fill: #53b400; stroke: #53b400; stroke-width: 0.886227"/>
    <path d="M 398.274129 90.989828  C 398.814698 90.989828 399.3332 90.775057 399.71544 90.392817  C 400.097681 90.010577 400.312451 89.492075 400.312451 88.951506  C 400.312451 88.410936 400.097681 87.892435 399.71544 87.510195  C 399.3332 87.127954 398.814698 86.913184 398.274129 86.913184  C 397.73356 86.913184 397.215058 87.127954 396.832818 87.510195  C 396.450578 87.892435 396.235807 88.410936 396.235807 88.951506  C 396.235807 89.492075 396.450578 90.010577 396.832818 90.392817  C 397.215058 90.775057 397.73356 90.989828 398.274129 90.989828  z " clip-path="url(#pce10ada07c)" style="fill: #53b400; stroke: #53b400; stroke-width: 0.886227"/>
    <path d="M 443.023028 147.255695  C 443.563597 147.255695 444.082099 147.040925 444.464339 146.658684  C 444.846579 146.276444 445.06135 145.757942 445.06135 145.217373  C 445.06135 144.676804 444.846579 144.158302 444.464339 143.776062  C 444.082099 143.393822 443.563597 143.179051 443.023028 143.179051  C 442.482458 143.179051 441.963957 143.393822 441.581716 143.776062  C 441.199476 144.158302 440.984706 144.676804 440.984706 145.217373  C 440.984706 145.757942 441.199476 146.276444 441.581716 146.658684  C 441.963957 147.040925 442.482458 147.255695 443.023028 147.255695  z " clip-path="url(#pce10ada07c)" style="fill: #53b400; stroke: #53b400; stroke-width: 0.886227"/>
    <path d="M 487.771926 217.423397  C 488.312496 217.423397 488.830997 217.208626 489.213237 216.826386  C 489.595478 216.444146 489.810248 215.925644 489.810248 215.385075  C 489.810248 214.844505 489.595478 214.326004 489.213237 213.943763  C 488.830997 213.561523 488.312496 213.346753 487.771926 213.346753  C 487.231357 213.346753 486.712855 213.561523 486.330615 213.943763  C 485.948375 214.326004 485.733604 214.844505 485.733604 215.385075  C 485.733604 215.925644 485.948375 216.444146 486.330615 216.826386  C 486.712855 217.208626 487.231357 217.423397 487.771926 217.423397  z " clip-path="url(#pce10ada07c)" style="fill: #53b400; stroke: #53b400; stroke-width: 0.886227"/>
    <path d="M 532.520825 264.32795  C 533.061394 264.32795 533.579896 264.11318 533.962136 263.730939  C 534.344376 263.348699 534.559147 262.830197 534.559147 262.289628  C 534.559147 261.749059 534.344376 261.230557 533.962136 260.848317  C 533.579896 260.466077 533.061394 260.251306 532.520825 260.251306  C 531.980256 260.251306 531.461754 260.466077 531.079514 260.848317  C 530.697273 261.230557 530.482503 261.749059 530.482503 262.289628  C 530.482503 262.830197 530.697273 263.348699 531.079514 263.730939  C 531.461754 264.11318 531.980256 264.32795 532.520825 264.32795  z " clip-path="url(#pce10ada07c)" style="fill: #53b400; stroke: #53b400; stroke-width: 0.886227"/>
    <path d="M 577.269723 227.967186  C 577.810293 227.967186 578.328794 227.752415 578.711035 227.370175  C 579.093275 226.987935 579.308045 226.469433 579.308045 225.928864  C 579.308045 225.388294 579.093275 224.869793 578.711035 224.487553  C 578.328794 224.105312 577.810293 223.890542 577.269723 223.890542  C 576.729154 223.890542 576.210652 224.105312 575.828412 224.487553  C 575.446172 224.869793 575.231401 225.388294 575.231401 225.928864  C 575.231401 226.469433 575.446172 226.987935 575.828412 227.370175  C 576.210652 227.752415 576.729154 227.967186 577.269723 227.967186  z " clip-path="url(#pce10ada07c)" style="fill: #53b400; stroke: #53b400; stroke-width: 0.886227"/>
    <path d="M 85.031839 242.103962  C 85.572408 242.103962 86.09091 241.889192 86.47315 241.506951  C 86.855391 241.124711 87.070161 240.60621 87.070161 240.06564  C 87.070161 239.525071 86.855391 239.006569 86.47315 238.624329  C 86.09091 238.242089 85.572408 238.027318 85.031839 238.027318  C 84.49127 238.027318 83.972768 238.242089 83.590528 238.624329  C 83.208288 239.006569 82.993517 239.525071 82.993517 240.06564  C 82.993517 240.60621 83.208288 241.124711 83.590528 241.506951  C 83.972768 241.889192 84.49127 242.103962 85.031839 242.103962  z " clip-path="url(#pce10ada07c)" style="fill: #00c094; stroke: #00c094; stroke-width: 0.886227"/>
    <path d="M 129.780738 263.964307  C 130.321307 263.964307 130.839809 263.749537 131.222049 263.367297  C 131.604289 262.985056 131.81906 262.466555 131.81906 261.925985  C 131.81906 261.385416 131.604289 260.866914 131.222049 260.484674  C 130.839809 260.102434 130.321307 259.887663 129.780738 259.887663  C 129.240168 259.887663 128.721667 260.102434 128.339426 260.484674  C 127.957186 260.866914 127.742416 261.385416 127.742416 261.925985  C 127.742416 262.466555 127.957186 262.985056 128.339426 263.367297  C 128.721667 263.749537 129.240168 263.964307 129.780738 263.964307  z " clip-path="url(#pce10ada07c)" style="fill: #00c094; stroke: #00c094; stroke-width: 0.886227"/>
    <path d="M 174.529636 279.114815  C 175.070206 279.114815 175.588707 278.900045 175.970948 278.517804  C 176.353188 278.135564 176.567958 277.617062 176.567958 277.076493  C 176.567958 276.535924 176.353188 276.017422 175.970948 275.635182  C 175.588707 275.252942 175.070206 275.038171 174.529636 275.038171  C 173.989067 275.038171 173.470565 275.252942 173.088325 275.635182  C 172.706085 276.017422 172.491314 276.535924 172.491314 277.076493  C 172.491314 277.617062 172.706085 278.135564 173.088325 278.517804  C 173.470565 278.900045 173.989067 279.114815 174.529636 279.114815  z " clip-path="url(#pce10ada07c)" style="fill: #00c094; stroke: #00c094; stroke-width: 0.886227"/>
    <path d="M 219.278535 263.445559  C 219.819104 263.445559 220.337606 263.230789 220.719846 262.848548  C 221.102086 262.466308 221.316857 261.947806 221.316857 261.407237  C 221.316857 260.866668 221.102086 260.348166 220.719846 259.965926  C 220.337606 259.583686 219.819104 259.368915 219.278535 259.368915  C 218.737966 259.368915 218.219464 259.583686 217.837224 259.965926  C 217.454983 260.348166 217.240213 260.866668 217.240213 261.407237  C 217.240213 261.947806 217.454983 262.466308 217.837224 262.848548  C 218.219464 263.230789 218.737966 263.445559 219.278535 263.445559  z " clip-path="url(#pce10ada07c)" style="fill: #00c094; stroke: #00c094; stroke-width: 0.886227"/>
    <path d="M 264.027433 192.176855  C 264.568003 192.176855 265.086504 191.962084 265.468745 191.579844  C 265.850985 191.197604 266.065755 190.679102 266.065755 190.138533  C 266.065755 189.597963 265.850985 189.079462 265.468745 188.697221  C 265.086504 188.314981 264.568003 188.100211 264.027433 188.100211  C 263.486864 188.100211 262.968362 188.314981 262.586122 188.697221  C 262.203882 189.079462 261.989111 189.597963 261.989111 190.138533  C 261.989111 190.679102 262.203882 191.197604 262.586122 191.579844  C 262.968362 191.962084 263.486864 192.176855 264.027433 192.176855  z " clip-path="url(#pce10ada07c)" style="fill: #00c094; stroke: #00c094; stroke-width: 0.886227"/>
    <path d="M 308.776332 171.336063  C 309.316901 171.336063 309.835403 171.121293 310.217643 170.739053  C 310.599883 170.356812 310.814654 169.838311 310.814654 169.297741  C 310.814654 168.757172 310.599883 168.23867 310.217643 167.85643  C 309.835403 167.47419 309.316901 167.259419 308.776332 167.259419  C 308.235763 167.259419 307.717261 167.47419 307.335021 167.85643  C 306.95278 168.23867 306.73801 168.757172 306.73801 169.297741  C 306.73801 169.838311 306.95278 170.356812 307.335021 170.739053  C 307.717261 171.121293 308.235763 171.336063 308.776332 171.336063  z " clip-path="url(#pce10ada07c)" style="fill: #00c094; stroke: #00c094; stroke-width: 0.886227"/>
    <path d="M 353.525231 153.143924  C 354.0658 153.143924 354.584302 152.929154 354.966542 152.546914  C 355.348782 152.164674 355.563552 151.646172 355.563552 151.105603  C 355.563552 150.565033 355.348782 150.046531 354.966542 149.664291  C 354.584302 149.282051 354.0658 149.067281 353.525231 149.067281  C 352.984661 149.067281 352.466159 149.282051 352.083919 149.664291  C 351.701679 150.046531 351.486909 150.565033 351.486909 151.105603  C 351.486909 151.646172 351.701679 152.164674 352.083919 152.546914  C 352.466159 152.929154 352.984661 153.143924 353.525231 153.143924  z " clip-path="url(#pce10ada07c)" style="fill: #00c094; stroke: #00c094; stroke-width: 0.886227"/>
    <path d="M 398.274129 147.870488  C 398.814698 147.870488 399.3332 147.655718 399.71544 147.273477  C 400.097681 146.891237 400.312451 146.372735 400.312451 145.832166  C 400.312451 145.291597 400.097681 144.773095 399.71544 144.390855  C 399.3332 144.008615 398.814698 143.793844 398.274129 143.793844  C 397.73356 143.793844 397.215058 144.008615 396.832818 144.390855  C 396.450578 144.773095 396.235807 145.291597 396.235807 145.832166  C 396.235807 146.372735 396.450578 146.891237 396.832818 147.273477  C 397.215058 147.655718 397.73356 147.870488 398.274129 147.870488  z " clip-path="url(#pce10ada07c)" style="fill: #00c094; stroke: #00c094; stroke-width: 0.886227"/>
    <path d="M 443.023028 175.133357  C 443.563597 175.133357 444.082099 174.918587 444.464339 174.536347  C 444.846579 174.154106 445.06135 173.635605 445.06135 173.095035  C 445.06135 172.554466 444.846579 172.035964 444.464339 171.653724  C 444.082099 171.271484 443.563597 171.056713 443.023028 171.056713  C 442.482458 171.056713 441.963957 171.271484 441.581716 171.653724  C 441.199476 172.035964 440.984706 172.554466 440.984706 173.095035  C 440.984706 173.635605 441.199476 174.154106 441.581716 174.536347  C 441.963957 174.918587 442.482458 175.133357 443.023028 175.133357  z " clip-path="url(#pce10ada07c)" style="fill: #00c094; stroke: #00c094; stroke-width: 0.886227"/>
    <path d="M 487.771926 215.87265  C 488.312496 215.87265 488.830997 215.65788 489.213237 215.27564  C 489.595478 214.893399 489.810248 214.374898 489.810248 213.834328  C 489.810248 213.293759 489.595478 212.775257 489.213237 212.393017  C 488.830997 212.010777 488.312496 211.796006 487.771926 211.796006  C 487.231357 211.796006 486.712855 212.010777 486.330615 212.393017  C 485.948375 212.775257 485.733604 213.293759 485.733604 213.834328  C 485.733604 214.374898 485.948375 214.893399 486.330615 215.27564  C 486.712855 215.65788 487.231357 215.87265 487.771926 215.87265  z " clip-path="url(#pce10ada07c)" style="fill: #00c094; stroke: #00c094; stroke-width: 0.886227"/>
    <path d="M 532.520825 252.870684  C 533.061394 252.870684 533.579896 252.655914 533.962136 252.273674  C 534.344376 251.891433 534.559147 251.372932 534.559147 250.832362  C 534.559147 250.291793 534.344376 249.773291 533.962136 249.391051  C 533.579896 249.008811 533.061394 248.79404 532.520825 248.79404  C 531.980256 248.79404 531.461754 249.008811 531.079514 249.391051  C 530.697273 249.773291 530.482503 250.291793 530.482503 250.832362  C 530.482503 251.372932 530.697273 251.891433 531.079514 252.273674  C 531.461754 252.655914 531.980256 252.870684 532.520825 252.870684  z " clip-path="url(#pce10ada07c)" style="fill: #00c094; stroke: #00c094; stroke-width: 0.886227"/>
    <path d="M 577.269723 236.174345  C 577.810293 236.174345 578.328794 235.959575 578.711035 235.577335  C 579.093275 235.195094 579.308045 234.676593 579.308045 234.136023  C 579.308045 233.595454 579.093275 233.076952 578.711035 232.694712  C 578.328794 232.312472 577.810293 232.097701 577.269723 232.097701  C 576.729154 232.097701 576.210652 232.312472 575.828412 232.694712  C 575.446172 233.076952 575.231401 233.595454 575.231401 234.136023  C 575.231401 234.676593 575.446172 235.195094 575.828412 235.577335  C 576.210652 235.959575 576.729154 236.174345 577.269723 236.174345  z " clip-path="url(#pce10ada07c)" style="fill: #00c094; stroke: #00c094; stroke-width: 0.886227"/>
    <path d="M 85.031839 242.292497  C 85.572408 242.292497 86.09091 242.077727 86.47315 241.695487  C 86.855391 241.313247 87.070161 240.794745 87.070161 240.254175  C 87.070161 239.713606 86.855391 239.195104 86.47315 238.812864  C 86.09091 238.430624 85.572408 238.215854 85.031839 238.215854  C 84.49127 238.215854 83.972768 238.430624 83.590528 238.812864  C 83.208288 239.195104 82.993517 239.713606 82.993517 240.254175  C 82.993517 240.794745 83.208288 241.313247 83.590528 241.695487  C 83.972768 242.077727 84.49127 242.292497 85.031839 242.292497  z " clip-path="url(#pce10ada07c)" style="fill: #00b6eb; stroke: #00b6eb; stroke-width: 0.886227"/>
    <path d="M 129.780738 272.819993  C 130.321307 272.819993 130.839809 272.605222 131.222049 272.222982  C 131.604289 271.840742 131.81906 271.32224 131.81906 270.781671  C 131.81906 270.241102 131.604289 269.7226 131.222049 269.34036  C 130.839809 268.958119 130.321307 268.743349 129.780738 268.743349  C 129.240168 268.743349 128.721667 268.958119 128.339426 269.34036  C 127.957186 269.7226 127.742416 270.241102 127.742416 270.781671  C 127.742416 271.32224 127.957186 271.840742 128.339426 272.222982  C 128.721667 272.605222 129.240168 272.819993 129.780738 272.819993  z " clip-path="url(#pce10ada07c)" style="fill: #00b6eb; stroke: #00b6eb; stroke-width: 0.886227"/>
    <path d="M 174.529636 286.882934  C 175.070206 286.882934 175.588707 286.668164 175.970948 286.285923  C 176.353188 285.903683 176.567958 285.385181 176.567958 284.844612  C 176.567958 284.304043 176.353188 283.785541 175.970948 283.403301  C 175.588707 283.021061 175.070206 282.80629 174.529636 282.80629  C 173.989067 282.80629 173.470565 283.021061 173.088325 283.403301  C 172.706085 283.785541 172.491314 284.304043 172.491314 284.844612  C 172.491314 285.385181 172.706085 285.903683 173.088325 286.285923  C 173.470565 286.668164 173.989067 286.882934 174.529636 286.882934  z " clip-path="url(#pce10ada07c)" style="fill: #00b6eb; stroke: #00b6eb; stroke-width: 0.886227"/>
    <path d="M 219.278535 272.600684  C 219.819104 272.600684 220.337606 272.385914 220.719846 272.003674  C 221.102086 271.621434 221.316857 271.102932 221.316857 270.562363  C 221.316857 270.021793 221.102086 269.503292 220.719846 269.121051  C 220.337606 268.738811 219.819104 268.524041 219.278535 268.524041  C 218.737966 268.524041 218.219464 268.738811 217.837224 269.121051  C 217.454983 269.503292 217.240213 270.021793 217.240213 270.562363  C 217.240213 271.102932 217.454983 271.621434 217.837224 272.003674  C 218.219464 272.385914 218.737966 272.600684 219.278535 272.600684  z " clip-path="url(#pce10ada07c)" style="fill: #00b6eb; stroke: #00b6eb; stroke-width: 0.886227"/>
    <path d="M 264.027433 205.028741  C 264.568003 205.028741 265.086504 204.81397 265.468745 204.43173  C 265.850985 204.04949 266.065755 203.530988 266.065755 202.990419  C 266.065755 202.44985 265.850985 201.931348 265.468745 201.549108  C 265.086504 201.166867 264.568003 200.952097 264.027433 200.952097  C 263.486864 200.952097 262.968362 201.166867 262.586122 201.549108  C 262.203882 201.931348 261.989111 202.44985 261.989111 202.990419  C 261.989111 203.530988 262.203882 204.04949 262.586122 204.43173  C 262.968362 204.81397 263.486864 205.028741 264.027433 205.028741  z " clip-path="url(#pce10ada07c)" style="fill: #00b6eb; stroke: #00b6eb; stroke-width: 0.886227"/>
    <path d="M 308.776332 193.507941  C 309.316901 193.507941 309.835403 193.29317 310.217643 192.91093  C 310.599883 192.52869 310.814654 192.010188 310.814654 191.469619  C 310.814654 190.929049 310.599883 190.410548 310.217643 190.028307  C 309.835403 189.646067 309.316901 189.431297 308.776332 189.431297  C 308.235763 189.431297 307.717261 189.646067 307.335021 190.028307  C 306.95278 190.410548 306.73801 190.929049 306.73801 191.469619  C 306.73801 192.010188 306.95278 192.52869 307.335021 192.91093  C 307.717261 193.29317 308.235763 193.507941 308.776332 193.507941  z " clip-path="url(#pce10ada07c)" style="fill: #00b6eb; stroke: #00b6eb; stroke-width: 0.886227"/>
    <path d="M 353.525231 189.412765  C 354.0658 189.412765 354.584302 189.197994 354.966542 188.815754  C 355.348782 188.433514 355.563552 187.915012 355.563552 187.374443  C 355.563552 186.833873 355.348782 186.315372 354.966542 185.933131  C 354.584302 185.550891 354.0658 185.336121 353.525231 185.336121  C 352.984661 185.336121 352.466159 185.550891 352.083919 185.933131  C 351.701679 186.315372 351.486909 186.833873 351.486909 187.374443  C 351.486909 187.915012 351.701679 188.433514 352.083919 188.815754  C 352.466159 189.197994 352.984661 189.412765 353.525231 189.412765  z " clip-path="url(#pce10ada07c)" style="fill: #00b6eb; stroke: #00b6eb; stroke-width: 0.886227"/>
    <path d="M 398.274129 185.257707  C 398.814698 185.257707 399.3332 185.042937 399.71544 184.660696  C 400.097681 184.278456 400.312451 183.759955 400.312451 183.219385  C 400.312451 182.678816 400.097681 182.160314 399.71544 181.778074  C 399.3332 181.395834 398.814698 181.181063 398.274129 181.181063  C 397.73356 181.181063 397.215058 181.395834 396.832818 181.778074  C 396.450578 182.160314 396.235807 182.678816 396.235807 183.219385  C 396.235807 183.759955 396.450578 184.278456 396.832818 184.660696  C 397.215058 185.042937 397.73356 185.257707 398.274129 185.257707  z " clip-path="url(#pce10ada07c)" style="fill: #00b6eb; stroke: #00b6eb; stroke-width: 0.886227"/>
    <path d="M 443.023028 194.258876  C 443.563597 194.258876 444.082099 194.044106 444.464339 193.661866  C 444.846579 193.279625 445.06135 192.761124 445.06135 192.220554  C 445.06135 191.679985 444.846579 191.161483 444.464339 190.779243  C 444.082099 190.397003 443.563597 190.182232 443.023028 190.182232  C 442.482458 190.182232 441.963957 190.397003 441.581716 190.779243  C 441.199476 191.161483 440.984706 191.679985 440.984706 192.220554  C 440.984706 192.761124 441.199476 193.279625 441.581716 193.661866  C 441.963957 194.044106 442.482458 194.258876 443.023028 194.258876  z " clip-path="url(#pce10ada07c)" style="fill: #00b6eb; stroke: #00b6eb; stroke-width: 0.886227"/>
    <path d="M 487.771926 221.358922  C 488.312496 221.358922 488.830997 221.144152 489.213237 220.761911  C 489.595478 220.379671 489.810248 219.86117 489.810248 219.3206  C 489.810248 218.780031 489.595478 218.261529 489.213237 217.879289  C 488.830997 217.497049 488.312496 217.282278 487.771926 217.282278  C 487.231357 217.282278 486.712855 217.497049 486.330615 217.879289  C 485.948375 218.261529 485.733604 218.780031 485.733604 219.3206  C 485.733604 219.86117 485.948375 220.379671 486.330615 220.761911  C 486.712855 221.144152 487.231357 221.358922 487.771926 221.358922  z " clip-path="url(#pce10ada07c)" style="fill: #00b6eb; stroke: #00b6eb; stroke-width: 0.886227"/>
    <path d="M 532.520825 256.051478  C 533.061394 256.051478 533.579896 255.836708 533.962136 255.454468  C 534.344376 255.072227 534.559147 254.553726 534.559147 254.013156  C 534.559147 253.472587 534.344376 252.954085 533.962136 252.571845  C 533.579896 252.189605 533.061394 251.974835 532.520825 251.974835  C 531.980256 251.974835 531.461754 252.189605 531.079514 252.571845  C 530.697273 252.954085 530.482503 253.472587 530.482503 254.013156  C 530.482503 254.553726 530.697273 255.072227 531.079514 255.454468  C 531.461754 255.836708 531.980256 256.051478 532.520825 256.051478  z " clip-path="url(#pce10ada07c)" style="fill: #00b6eb; stroke: #00b6eb; stroke-width: 0.886227"/>
    <path d="M 577.269723 230.416032  C 577.810293 230.416032 578.328794 230.201262 578.711035 229.819022  C 579.093275 229.436781 579.308045 228.91828 579.308045 228.37771  C 579.308045 227.837141 579.093275 227.318639 578.711035 226.936399  C 578.328794 226.554159 577.810293 226.339388 577.269723 226.339388  C 576.729154 226.339388 576.210652 226.554159 575.828412 226.936399  C 575.446172 227.318639 575.231401 227.837141 575.231401 228.37771  C 575.231401 228.91828 575.446172 229.436781 575.828412 229.819022  C 576.210652 230.201262 576.729154 230.416032 577.269723 230.416032  z " clip-path="url(#pce10ada07c)" style="fill: #00b6eb; stroke: #00b6eb; stroke-width: 0.886227"/>
    <path d="M 85.031839 218.343628  C 85.572408 218.343628 86.09091 218.128858 86.47315 217.746618  C 86.855391 217.364377 87.070161 216.845876 87.070161 216.305306  C 87.070161 215.764737 86.855391 215.246235 86.47315 214.863995  C 86.09091 214.481755 85.572408 214.266984 85.031839 214.266984  C 84.49127 214.266984 83.972768 214.481755 83.590528 214.863995  C 83.208288 215.246235 82.993517 215.764737 82.993517 216.305306  C 82.993517 216.845876 83.208288 217.364377 83.590528 217.746618  C 83.972768 218.128858 84.49127 218.343628 85.031839 218.343628  z " clip-path="url(#pce10ada07c)" style="fill: #a58aff; stroke: #a58aff; stroke-width: 0.886227"/>
    <path d="M 129.780738 278.554799  C 130.321307 278.554799 130.839809 278.340029 131.222049 277.957789  C 131.604289 277.575548 131.81906 277.057047 131.81906 276.516477  C 131.81906 275.975908 131.604289 275.457406 131.222049 275.075166  C 130.839809 274.692926 130.321307 274.478155 129.780738 274.478155  C 129.240168 274.478155 128.721667 274.692926 128.339426 275.075166  C 127.957186 275.457406 127.742416 275.975908 127.742416 276.516477  C 127.742416 277.057047 127.957186 277.575548 128.339426 277.957789  C 128.721667 278.340029 129.240168 278.554799 129.780738 278.554799  z " clip-path="url(#pce10ada07c)" style="fill: #a58aff; stroke: #a58aff; stroke-width: 0.886227"/>
    <path d="M 174.529636 295.014326  C 175.070206 295.014326 175.588707 294.799556 175.970948 294.417315  C 176.353188 294.035075 176.567958 293.516574 176.567958 292.976004  C 176.567958 292.435435 176.353188 291.916933 175.970948 291.534693  C 175.588707 291.152453 175.070206 290.937682 174.529636 290.937682  C 173.989067 290.937682 173.470565 291.152453 173.088325 291.534693  C 172.706085 291.916933 172.491314 292.435435 172.491314 292.976004  C 172.491314 293.516574 172.706085 294.035075 173.088325 294.417315  C 173.470565 294.799556 173.989067 295.014326 174.529636 295.014326  z " clip-path="url(#pce10ada07c)" style="fill: #a58aff; stroke: #a58aff; stroke-width: 0.886227"/>
    <path d="M 219.278535 286.676255  C 219.819104 286.676255 220.337606 286.461484 220.719846 286.079244  C 221.102086 285.697004 221.316857 285.178502 221.316857 284.637933  C 221.316857 284.097363 221.102086 283.578862 220.719846 283.196621  C 220.337606 282.814381 219.819104 282.599611 219.278535 282.599611  C 218.737966 282.599611 218.219464 282.814381 217.837224 283.196621  C 217.454983 283.578862 217.240213 284.097363 217.240213 284.637933  C 217.240213 285.178502 217.454983 285.697004 217.837224 286.079244  C 218.219464 286.461484 218.737966 286.676255 219.278535 286.676255  z " clip-path="url(#pce10ada07c)" style="fill: #a58aff; stroke: #a58aff; stroke-width: 0.886227"/>
    <path d="M 264.027433 222.950715  C 264.568003 222.950715 265.086504 222.735945 265.468745 222.353705  C 265.850985 221.971465 266.065755 221.452963 266.065755 220.912393  C 266.065755 220.371824 265.850985 219.853322 265.468745 219.471082  C 265.086504 219.088842 264.568003 218.874072 264.027433 218.874072  C 263.486864 218.874072 262.968362 219.088842 262.586122 219.471082  C 262.203882 219.853322 261.989111 220.371824 261.989111 220.912393  C 261.989111 221.452963 262.203882 221.971465 262.586122 222.353705  C 262.968362 222.735945 263.486864 222.950715 264.027433 222.950715  z " clip-path="url(#pce10ada07c)" style="fill: #a58aff; stroke: #a58aff; stroke-width: 0.886227"/>
    <path d="M 308.776332 221.613892  C 309.316901 221.613892 309.835403 221.399121 310.217643 221.016881  C 310.599883 220.634641 310.814654 220.116139 310.814654 219.57557  C 310.814654 219.035 310.599883 218.516499 310.217643 218.134258  C 309.835403 217.752018 309.316901 217.537248 308.776332 217.537248  C 308.235763 217.537248 307.717261 217.752018 307.335021 218.134258  C 306.95278 218.516499 306.73801 219.035 306.73801 219.57557  C 306.73801 220.116139 306.95278 220.634641 307.335021 221.016881  C 307.717261 221.399121 308.235763 221.613892 308.776332 221.613892  z " clip-path="url(#pce10ada07c)" style="fill: #a58aff; stroke: #a58aff; stroke-width: 0.886227"/>
    <path d="M 353.525231 237.9195  C 354.0658 237.9195 354.584302 237.70473 354.966542 237.32249  C 355.348782 236.940249 355.563552 236.421748 355.563552 235.881178  C 355.563552 235.340609 355.348782 234.822107 354.966542 234.439867  C 354.584302 234.057627 354.0658 233.842856 353.525231 233.842856  C 352.984661 233.842856 352.466159 234.057627 352.083919 234.439867  C 351.701679 234.822107 351.486909 235.340609 351.486909 235.881178  C 351.486909 236.421748 351.701679 236.940249 352.083919 237.32249  C 352.466159 237.70473 352.984661 237.9195 353.525231 237.9195  z " clip-path="url(#pce10ada07c)" style="fill: #a58aff; stroke: #a58aff; stroke-width: 0.886227"/>
    <path d="M 398.274129 234.738895  C 398.814698 234.738895 399.3332 234.524125 399.71544 234.141884  C 400.097681 233.759644 400.312451 233.241142 400.312451 232.700573  C 400.312451 232.160004 400.097681 231.641502 399.71544 231.259262  C 399.3332 230.877022 398.814698 230.662251 398.274129 230.662251  C 397.73356 230.662251 397.215058 230.877022 396.832818 231.259262  C 396.450578 231.641502 396.235807 232.160004 396.235807 232.700573  C 396.235807 233.241142 396.450578 233.759644 396.832818 234.141884  C 397.215058 234.524125 397.73356 234.738895 398.274129 234.738895  z " clip-path="url(#pce10ada07c)" style="fill: #a58aff; stroke: #a58aff; stroke-width: 0.886227"/>
    <path d="M 443.023028 218.348899  C 443.563597 218.348899 444.082099 218.134129 444.464339 217.751889  C 444.846579 217.369648 445.06135 216.851147 445.06135 216.310577  C 445.06135 215.770008 444.846579 215.251506 444.464339 214.869266  C 444.082099 214.487026 443.563597 214.272255 443.023028 214.272255  C 442.482458 214.272255 441.963957 214.487026 441.581716 214.869266  C 441.199476 215.251506 440.984706 215.770008 440.984706 216.310577  C 440.984706 216.851147 441.199476 217.369648 441.581716 217.751889  C 441.963957 218.134129 442.482458 218.348899 443.023028 218.348899  z " clip-path="url(#pce10ada07c)" style="fill: #a58aff; stroke: #a58aff; stroke-width: 0.886227"/>
    <path d="M 487.771926 225.474123  C 488.312496 225.474123 488.830997 225.259353 489.213237 224.877113  C 489.595478 224.494872 489.810248 223.976371 489.810248 223.435801  C 489.810248 222.895232 489.595478 222.37673 489.213237 221.99449  C 488.830997 221.61225 488.312496 221.397479 487.771926 221.397479  C 487.231357 221.397479 486.712855 221.61225 486.330615 221.99449  C 485.948375 222.37673 485.733604 222.895232 485.733604 223.435801  C 485.733604 223.976371 485.948375 224.494872 486.330615 224.877113  C 486.712855 225.259353 487.231357 225.474123 487.771926 225.474123  z " clip-path="url(#pce10ada07c)" style="fill: #a58aff; stroke: #a58aff; stroke-width: 0.886227"/>
    <path d="M 532.520825 252.833542  C 533.061394 252.833542 533.579896 252.618771 533.962136 252.236531  C 534.344376 251.854291 534.559147 251.335789 534.559147 250.79522  C 534.559147 250.25465 534.344376 249.736149 533.962136 249.353909  C 533.579896 248.971668 533.061394 248.756898 532.520825 248.756898  C 531.980256 248.756898 531.461754 248.971668 531.079514 249.353909  C 530.697273 249.736149 530.482503 250.25465 530.482503 250.79522  C 530.482503 251.335789 530.697273 251.854291 531.079514 252.236531  C 531.461754 252.618771 531.980256 252.833542 532.520825 252.833542  z " clip-path="url(#pce10ada07c)" style="fill: #a58aff; stroke: #a58aff; stroke-width: 0.886227"/>
    <path d="M 577.269723 205.052061  C 577.810293 205.052061 578.328794 204.83729 578.711035 204.45505  C 579.093275 204.07281 579.308045 203.554308 579.308045 203.013739  C 579.308045 202.47317 579.093275 201.954668 578.711035 201.572428  C 578.328794 201.190187 577.810293 200.975417 577.269723 200.975417  C 576.729154 200.975417 576.210652 201.190187 575.828412 201.572428  C 575.446172 201.954668 575.231401 202.47317 575.231401 203.013739  C 575.231401 203.554308 575.446172 204.07281 575.828412 204.45505  C 576.210652 204.83729 576.729154 205.052061 577.269723 205.052061  z " clip-path="url(#pce10ada07c)" style="fill: #a58aff; stroke: #a58aff; stroke-width: 0.886227"/>
    <path d="M 85.031839 231.362766  C 85.572408 231.362766 86.09091 231.147996 86.47315 230.765756  C 86.855391 230.383515 87.070161 229.865014 87.070161 229.324444  C 87.070161 228.783875 86.855391 228.265373 86.47315 227.883133  C 86.09091 227.500893 85.572408 227.286122 85.031839 227.286122  C 84.49127 227.286122 83.972768 227.500893 83.590528 227.883133  C 83.208288 228.265373 82.993517 228.783875 82.993517 229.324444  C 82.993517 229.865014 83.208288 230.383515 83.590528 230.765756  C 83.972768 231.147996 84.49127 231.362766 85.031839 231.362766  z " clip-path="url(#pce10ada07c)" style="fill: #fb61d7; stroke: #fb61d7; stroke-width: 0.886227"/>
    <path d="M 129.780738 271.145215  C 130.321307 271.145215 130.839809 270.930445 131.222049 270.548204  C 131.604289 270.165964 131.81906 269.647462 131.81906 269.106893  C 131.81906 268.566324 131.604289 268.047822 131.222049 267.665582  C 130.839809 267.283342 130.321307 267.068571 129.780738 267.068571  C 129.240168 267.068571 128.721667 267.283342 128.339426 267.665582  C 127.957186 268.047822 127.742416 268.566324 127.742416 269.106893  C 127.742416 269.647462 127.957186 270.165964 128.339426 270.548204  C 128.721667 270.930445 129.240168 271.145215 129.780738 271.145215  z " clip-path="url(#pce10ada07c)" style="fill: #fb61d7; stroke: #fb61d7; stroke-width: 0.886227"/>
    <path d="M 174.529636 283.126901  C 175.070206 283.126901 175.588707 282.91213 175.970948 282.52989  C 176.353188 282.14765 176.567958 281.629148 176.567958 281.088579  C 176.567958 280.548009 176.353188 280.029508 175.970948 279.647267  C 175.588707 279.265027 175.070206 279.050257 174.529636 279.050257  C 173.989067 279.050257 173.470565 279.265027 173.088325 279.647267  C 172.706085 280.029508 172.491314 280.548009 172.491314 281.088579  C 172.491314 281.629148 172.706085 282.14765 173.088325 282.52989  C 173.470565 282.91213 173.989067 283.126901 174.529636 283.126901  z " clip-path="url(#pce10ada07c)" style="fill: #fb61d7; stroke: #fb61d7; stroke-width: 0.886227"/>
    <path d="M 219.278535 274.292647  C 219.819104 274.292647 220.337606 274.077876 220.719846 273.695636  C 221.102086 273.313396 221.316857 272.794894 221.316857 272.254325  C 221.316857 271.713756 221.102086 271.195254 220.719846 270.813014  C 220.337606 270.430773 219.819104 270.216003 219.278535 270.216003  C 218.737966 270.216003 218.219464 270.430773 217.837224 270.813014  C 217.454983 271.195254 217.240213 271.713756 217.240213 272.254325  C 217.240213 272.794894 217.454983 273.313396 217.837224 273.695636  C 218.219464 274.077876 218.737966 274.292647 219.278535 274.292647  z " clip-path="url(#pce10ada07c)" style="fill: #fb61d7; stroke: #fb61d7; stroke-width: 0.886227"/>
    <path d="M 264.027433 231.449684  C 264.568003 231.449684 265.086504 231.234913 265.468745 230.852673  C 265.850985 230.470433 266.065755 229.951931 266.065755 229.411362  C 266.065755 228.870792 265.850985 228.352291 265.468745 227.97005  C 265.086504 227.58781 264.568003 227.37304 264.027433 227.37304  C 263.486864 227.37304 262.968362 227.58781 262.586122 227.97005  C 262.203882 228.352291 261.989111 228.870792 261.989111 229.411362  C 261.989111 229.951931 262.203882 230.470433 262.586122 230.852673  C 262.968362 231.234913 263.486864 231.449684 264.027433 231.449684  z " clip-path="url(#pce10ada07c)" style="fill: #fb61d7; stroke: #fb61d7; stroke-width: 0.886227"/>
    <path d="M 308.776332 247.727703  C 309.316901 247.727703 309.835403 247.512933 310.217643 247.130692  C 310.599883 246.748452 310.814654 246.22995 310.814654 245.689381  C 310.814654 245.148812 310.599883 244.63031 310.217643 244.24807  C 309.835403 243.86583 309.316901 243.651059 308.776332 243.651059  C 308.235763 243.651059 307.717261 243.86583 307.335021 244.24807  C 306.95278 244.63031 306.73801 245.148812 306.73801 245.689381  C 306.73801 246.22995 306.95278 246.748452 307.335021 247.130692  C 307.717261 247.512933 308.235763 247.727703 308.776332 247.727703  z " clip-path="url(#pce10ada07c)" style="fill: #fb61d7; stroke: #fb61d7; stroke-width: 0.886227"/>
    <path d="M 353.525231 284.177284  C 354.0658 284.177284 354.584302 283.962514 354.966542 283.580273  C 355.348782 283.198033 355.563552 282.679532 355.563552 282.138962  C 355.563552 281.598393 355.348782 281.079891 354.966542 280.697651  C 354.584302 280.315411 354.0658 280.10064 353.525231 280.10064  C 352.984661 280.10064 352.466159 280.315411 352.083919 280.697651  C 351.701679 281.079891 351.486909 281.598393 351.486909 282.138962  C 351.486909 282.679532 351.701679 283.198033 352.083919 283.580273  C 352.466159 283.962514 352.984661 284.177284 353.525231 284.177284  z " clip-path="url(#pce10ada07c)" style="fill: #fb61d7; stroke: #fb61d7; stroke-width: 0.886227"/>
    <path d="M 398.274129 282.250336  C 398.814698 282.250336 399.3332 282.035565 399.71544 281.653325  C 400.097681 281.271085 400.312451 280.752583 400.312451 280.212014  C 400.312451 279.671444 400.097681 279.152943 399.71544 278.770702  C 399.3332 278.388462 398.814698 278.173692 398.274129 278.173692  C 397.73356 278.173692 397.215058 278.388462 396.832818 278.770702  C 396.450578 279.152943 396.235807 279.671444 396.235807 280.212014  C 396.235807 280.752583 396.450578 281.271085 396.832818 281.653325  C 397.215058 282.035565 397.73356 282.250336 398.274129 282.250336  z " clip-path="url(#pce10ada07c)" style="fill: #fb61d7; stroke: #fb61d7; stroke-width: 0.886227"/>
    <path d="M 443.023028 241.202316  C 443.563597 241.202316 444.082099 240.987545 444.464339 240.605305  C 444.846579 240.223065 445.06135 239.704563 445.06135 239.163994  C 445.06135 238.623424 444.846579 238.104923 444.464339 237.722682  C 444.082099 237.340442 443.563597 237.125672 443.023028 237.125672  C 442.482458 237.125672 441.963957 237.340442 441.581716 237.722682  C 441.199476 238.104923 440.984706 238.623424 440.984706 239.163994  C 440.984706 239.704563 441.199476 240.223065 441.581716 240.605305  C 441.963957 240.987545 442.482458 241.202316 443.023028 241.202316  z " clip-path="url(#pce10ada07c)" style="fill: #fb61d7; stroke: #fb61d7; stroke-width: 0.886227"/>
    <path d="M 487.771926 227.213482  C 488.312496 227.213482 488.830997 226.998711 489.213237 226.616471  C 489.595478 226.234231 489.810248 225.715729 489.810248 225.17516  C 489.810248 224.63459 489.595478 224.116089 489.213237 223.733848  C 488.830997 223.351608 488.312496 223.136838 487.771926 223.136838  C 487.231357 223.136838 486.712855 223.351608 486.330615 223.733848  C 485.948375 224.116089 485.733604 224.63459 485.733604 225.17516  C 485.733604 225.715729 485.948375 226.234231 486.330615 226.616471  C 486.712855 226.998711 487.231357 227.213482 487.771926 227.213482  z " clip-path="url(#pce10ada07c)" style="fill: #fb61d7; stroke: #fb61d7; stroke-width: 0.886227"/>
    <path d="M 532.520825 246.974255  C 533.061394 246.974255 533.579896 246.759484 533.962136 246.377244  C 534.344376 245.995004 534.559147 245.476502 534.559147 244.935933  C 534.559147 244.395363 534.344376 243.876862 533.962136 243.494621  C 533.579896 243.112381 533.061394 242.897611 532.520825 242.897611  C 531.980256 242.897611 531.461754 243.112381 531.079514 243.494621  C 530.697273 243.876862 530.482503 244.395363 530.482503 244.935933  C 530.482503 245.476502 530.697273 245.995004 531.079514 246.377244  C 531.461754 246.759484 531.980256 246.974255 532.520825 246.974255  z " clip-path="url(#pce10ada07c)" style="fill: #fb61d7; stroke: #fb61d7; stroke-width: 0.886227"/>
    <path d="M 577.269723 214.092568  C 577.810293 214.092568 578.328794 213.877798 578.711035 213.495557  C 579.093275 213.113317 579.308045 212.594815 579.308045 212.054246  C 579.308045 211.513677 579.093275 210.995175 578.711035 210.612935  C 578.328794 210.230695 577.810293 210.015924 577.269723 210.015924  C 576.729154 210.015924 576.210652 210.230695 575.828412 210.612935  C 575.446172 210.995175 575.231401 211.513677 575.231401 212.054246  C 575.231401 212.594815 575.446172 213.113317 575.828412 213.495557  C 576.210652 213.877798 576.729154 214.092568 577.269723 214.092568  z " clip-path="url(#pce10ada07c)" style="fill: #fb61d7; stroke: #fb61d7; stroke-width: 0.886227"/>
   </g>
   <g id="patch_3">
    <path d="M 58.1825 344.63  L 604.119062 344.63  " style="fill: none; stroke: #000000; stroke-width: 0.5; stroke-linejoin: miter; stroke-linecap: square"/>
   </g>
  </g>
  <g id="text_16">
   <text style="font-weight: 700; font-size: 15px; font-family: 'GT Planar'; text-anchor: start" x="58.1825" y="17.7" transform="rotate(-0 58.1825 17.7)">Mean monthly bill change by partial-space cooling</text>
  </g>
  <g id="text_17">
   <text style="font-size: 13px; font-family: 'GT Planar'; text-anchor: start; fill: #333333" x="311.391797" y="385.02" transform="rotate(-0 311.391797 385.02)">Month</text>
  </g>
  <g id="text_18">
   <text style="font-size: 13px; font-family: 'GT Planar'; fill: #333333" transform="translate(17.522813 289.4125) rotate(-90)">Mean $ delta (energy_total_bill)</text>
   <text style="font-size: 13px; font-family: 'GT Planar'; fill: #333333" transform="translate(28.052813 244.241562) rotate(-90)">run 3+4 − run 1+2</text>
  </g>
  <g id="text_19">
   <text style="font-size: 13px; font-family: 'GT Planar'; text-anchor: start; fill: #333333" x="628.879063" y="131.465" transform="rotate(-0 628.879063 131.465)">Partial cooling</text>
  </g>
  <g id="patch_4">
   <path d="M 629.879063 150.625  L 643.719063 150.625  L 643.719063 136.785  L 629.879063 136.785  z " clip-path="url(#p930b3ceb59)" style="fill: #ffffff; stroke: #ffffff; stroke-linejoin: miter"/>
  </g>
  <g id="line2d_27">
   <path d="M 628.879063 143.705  L 644.719063 143.705  " clip-path="url(#p930b3ceb59)" style="fill: none; stroke: #f8766d; stroke-width: 0.886227"/>
  </g>
  <g id="line2d_28">
   <path d="M 636.799062 143.705  " clip-path="url(#p930b3ceb59)" style="fill: none; stroke: #1f77b4; stroke-width: 1.5; stroke-linecap: square"/>
   <defs>
    <path id="md89c1ae5c1" d="M 0 2.038322  C 0.540569 2.038322 1.059071 1.823551 1.441311 1.441311  C 1.823551 1.059071 2.038322 0.540569 2.038322 0  C 2.038322 -0.540569 1.823551 -1.059071 1.441311 -1.441311  C 1.059071 -1.823551 0.540569 -2.038322 0 -2.038322  C -0.540569 -2.038322 -1.059071 -1.823551 -1.441311 -1.441311  C -1.823551 -1.059071 -2.038322 -0.540569 -2.038322 0  C -2.038322 0.540569 -1.823551 1.059071 -1.441311 1.441311  C -1.059071 1.823551 -0.540569 2.038322 0 2.038322  z " style="stroke: #f8766d; stroke-width: 0.886227"/>
   </defs>
   <g clip-path="url(#p930b3ceb59)">
    <use xlink:href="#md89c1ae5c1" x="636.799062" y="143.705" style="fill: #f8766d; stroke: #f8766d; stroke-width: 0.886227"/>
   </g>
  </g>
  <g id="text_20">
   <text style="font-size: 11px; font-family: 'IBM Plex Sans'; text-anchor: middle; fill: #4d4d4d" x="676.492734" y="146.675" transform="rotate(-0 676.492734 146.675)">0% (None)</text>
  </g>
  <g id="patch_5">
   <path d="M 629.879063 168.465  L 643.719063 168.465  L 643.719063 154.625  L 629.879063 154.625  z " clip-path="url(#p0803d1a73f)" style="fill: #ffffff; stroke: #ffffff; stroke-linejoin: miter"/>
  </g>
  <g id="line2d_29">
   <path d="M 628.879063 161.545  L 644.719063 161.545  " clip-path="url(#p0803d1a73f)" style="fill: none; stroke: #c49a00; stroke-width: 0.886227"/>
  </g>
  <g id="line2d_30">
   <path d="M 636.799062 161.545  " clip-path="url(#p0803d1a73f)" style="fill: none; stroke: #1f77b4; stroke-width: 1.5; stroke-linecap: square"/>
   <defs>
    <path id="mde516486f3" d="M 0 2.038322  C 0.540569 2.038322 1.059071 1.823551 1.441311 1.441311  C 1.823551 1.059071 2.038322 0.540569 2.038322 0  C 2.038322 -0.540569 1.823551 -1.059071 1.441311 -1.441311  C 1.059071 -1.823551 0.540569 -2.038322 0 -2.038322  C -0.540569 -2.038322 -1.059071 -1.823551 -1.441311 -1.441311  C -1.823551 -1.059071 -2.038322 -0.540569 -2.038322 0  C -2.038322 0.540569 -1.823551 1.059071 -1.441311 1.441311  C -1.059071 1.823551 -0.540569 2.038322 0 2.038322  z " style="stroke: #c49a00; stroke-width: 0.886227"/>
   </defs>
   <g clip-path="url(#p0803d1a73f)">
    <use xlink:href="#mde516486f3" x="636.799062" y="161.545" style="fill: #c49a00; stroke: #c49a00; stroke-width: 0.886227"/>
   </g>
  </g>
  <g id="text_21">
   <text style="font-size: 11px; font-family: 'IBM Plex Sans'; text-anchor: middle; fill: #4d4d4d" x="709.579531" y="164.515" transform="rotate(-0 709.579531 164.515)">5% (&lt;10% Conditioned)</text>
  </g>
  <g id="patch_6">
   <path d="M 629.879063 186.305  L 643.719063 186.305  L 643.719063 172.465  L 629.879063 172.465  z " clip-path="url(#p871bd86ecd)" style="fill: #ffffff; stroke: #ffffff; stroke-linejoin: miter"/>
  </g>
  <g id="line2d_31">
   <path d="M 628.879063 179.385  L 644.719063 179.385  " clip-path="url(#p871bd86ecd)" style="fill: none; stroke: #53b400; stroke-width: 0.886227"/>
  </g>
  <g id="line2d_32">
   <path d="M 636.799062 179.385  " clip-path="url(#p871bd86ecd)" style="fill: none; stroke: #1f77b4; stroke-width: 1.5; stroke-linecap: square"/>
   <defs>
    <path id="m3c02790dd2" d="M 0 2.038322  C 0.540569 2.038322 1.059071 1.823551 1.441311 1.441311  C 1.823551 1.059071 2.038322 0.540569 2.038322 0  C 2.038322 -0.540569 1.823551 -1.059071 1.441311 -1.441311  C 1.059071 -1.823551 0.540569 -2.038322 0 -2.038322  C -0.540569 -2.038322 -1.059071 -1.823551 -1.441311 -1.441311  C -1.823551 -1.059071 -2.038322 -0.540569 -2.038322 0  C -2.038322 0.540569 -1.823551 1.059071 -1.441311 1.441311  C -1.059071 1.823551 -0.540569 2.038322 0 2.038322  z " style="stroke: #53b400; stroke-width: 0.886227"/>
   </defs>
   <g clip-path="url(#p871bd86ecd)">
    <use xlink:href="#m3c02790dd2" x="636.799062" y="179.385" style="fill: #53b400; stroke: #53b400; stroke-width: 0.886227"/>
   </g>
  </g>
  <g id="text_22">
   <text style="font-size: 11px; font-family: 'IBM Plex Sans'; text-anchor: middle; fill: #4d4d4d" x="709.579531" y="182.355" transform="rotate(-0 709.579531 182.355)">20% (20% Conditioned)</text>
  </g>
  <g id="patch_7">
   <path d="M 629.879063 204.145  L 643.719063 204.145  L 643.719063 190.305  L 629.879063 190.305  z " clip-path="url(#p76d775c81f)" style="fill: #ffffff; stroke: #ffffff; stroke-linejoin: miter"/>
  </g>
  <g id="line2d_33">
   <path d="M 628.879063 197.225  L 644.719063 197.225  " clip-path="url(#p76d775c81f)" style="fill: none; stroke: #00c094; stroke-width: 0.886227"/>
  </g>
  <g id="line2d_34">
   <path d="M 636.799062 197.225  " clip-path="url(#p76d775c81f)" style="fill: none; stroke: #1f77b4; stroke-width: 1.5; stroke-linecap: square"/>
   <defs>
    <path id="m85f255bc5b" d="M 0 2.038322  C 0.540569 2.038322 1.059071 1.823551 1.441311 1.441311  C 1.823551 1.059071 2.038322 0.540569 2.038322 0  C 2.038322 -0.540569 1.823551 -1.059071 1.441311 -1.441311  C 1.059071 -1.823551 0.540569 -2.038322 0 -2.038322  C -0.540569 -2.038322 -1.059071 -1.823551 -1.441311 -1.441311  C -1.823551 -1.059071 -2.038322 -0.540569 -2.038322 0  C -2.038322 0.540569 -1.823551 1.059071 -1.441311 1.441311  C -1.059071 1.823551 -0.540569 2.038322 0 2.038322  z " style="stroke: #00c094; stroke-width: 0.886227"/>
   </defs>
   <g clip-path="url(#p76d775c81f)">
    <use xlink:href="#m85f255bc5b" x="636.799062" y="197.225" style="fill: #00c094; stroke: #00c094; stroke-width: 0.886227"/>
   </g>
  </g>
  <g id="text_23">
   <text style="font-size: 11px; font-family: 'IBM Plex Sans'; text-anchor: middle; fill: #4d4d4d" x="709.579531" y="200.195" transform="rotate(-0 709.579531 200.195)">40% (40% Conditioned)</text>
  </g>
  <g id="patch_8">
   <path d="M 629.879063 221.985  L 643.719063 221.985  L 643.719063 208.145  L 629.879063 208.145  z " clip-path="url(#pbfb2107e91)" style="fill: #ffffff; stroke: #ffffff; stroke-linejoin: miter"/>
  </g>
  <g id="line2d_35">
   <path d="M 628.879063 215.065  L 644.719063 215.065  " clip-path="url(#pbfb2107e91)" style="fill: none; stroke: #00b6eb; stroke-width: 0.886227"/>
  </g>
  <g id="line2d_36">
   <path d="M 636.799062 215.065  " clip-path="url(#pbfb2107e91)" style="fill: none; stroke: #1f77b4; stroke-width: 1.5; stroke-linecap: square"/>
   <defs>
    <path id="m2c77de2dd6" d="M 0 2.038322  C 0.540569 2.038322 1.059071 1.823551 1.441311 1.441311  C 1.823551 1.059071 2.038322 0.540569 2.038322 0  C 2.038322 -0.540569 1.823551 -1.059071 1.441311 -1.441311  C 1.059071 -1.823551 0.540569 -2.038322 0 -2.038322  C -0.540569 -2.038322 -1.059071 -1.823551 -1.441311 -1.441311  C -1.823551 -1.059071 -2.038322 -0.540569 -2.038322 0  C -2.038322 0.540569 -1.823551 1.059071 -1.441311 1.441311  C -1.059071 1.823551 -0.540569 2.038322 0 2.038322  z " style="stroke: #00b6eb; stroke-width: 0.886227"/>
   </defs>
   <g clip-path="url(#pbfb2107e91)">
    <use xlink:href="#m2c77de2dd6" x="636.799062" y="215.065" style="fill: #00b6eb; stroke: #00b6eb; stroke-width: 0.886227"/>
   </g>
  </g>
  <g id="text_24">
   <text style="font-size: 11px; font-family: 'IBM Plex Sans'; text-anchor: middle; fill: #4d4d4d" x="709.579531" y="218.035" transform="rotate(-0 709.579531 218.035)">60% (60% Conditioned)</text>
  </g>
  <g id="patch_9">
   <path d="M 629.879063 239.825  L 643.719063 239.825  L 643.719063 225.985  L 629.879063 225.985  z " clip-path="url(#p3292406e7c)" style="fill: #ffffff; stroke: #ffffff; stroke-linejoin: miter"/>
  </g>
  <g id="line2d_37">
   <path d="M 628.879063 232.905  L 644.719063 232.905  " clip-path="url(#p3292406e7c)" style="fill: none; stroke: #a58aff; stroke-width: 0.886227"/>
  </g>
  <g id="line2d_38">
   <path d="M 636.799062 232.905  " clip-path="url(#p3292406e7c)" style="fill: none; stroke: #1f77b4; stroke-width: 1.5; stroke-linecap: square"/>
   <defs>
    <path id="me1b31b5cb5" d="M 0 2.038322  C 0.540569 2.038322 1.059071 1.823551 1.441311 1.441311  C 1.823551 1.059071 2.038322 0.540569 2.038322 0  C 2.038322 -0.540569 1.823551 -1.059071 1.441311 -1.441311  C 1.059071 -1.823551 0.540569 -2.038322 0 -2.038322  C -0.540569 -2.038322 -1.059071 -1.823551 -1.441311 -1.441311  C -1.823551 -1.059071 -2.038322 -0.540569 -2.038322 0  C -2.038322 0.540569 -1.823551 1.059071 -1.441311 1.441311  C -1.059071 1.823551 -0.540569 2.038322 0 2.038322  z " style="stroke: #a58aff; stroke-width: 0.886227"/>
   </defs>
   <g clip-path="url(#p3292406e7c)">
    <use xlink:href="#me1b31b5cb5" x="636.799062" y="232.905" style="fill: #a58aff; stroke: #a58aff; stroke-width: 0.886227"/>
   </g>
  </g>
  <g id="text_25">
   <text style="font-size: 11px; font-family: 'IBM Plex Sans'; text-anchor: middle; fill: #4d4d4d" x="709.579531" y="235.875" transform="rotate(-0 709.579531 235.875)">80% (80% Conditioned)</text>
  </g>
  <g id="patch_10">
   <path d="M 629.879063 257.665  L 643.719063 257.665  L 643.719063 243.825  L 629.879063 243.825  z " clip-path="url(#pa8b7533a9a)" style="fill: #ffffff; stroke: #ffffff; stroke-linejoin: miter"/>
  </g>
  <g id="line2d_39">
   <path d="M 628.879063 250.745  L 644.719063 250.745  " clip-path="url(#pa8b7533a9a)" style="fill: none; stroke: #fb61d7; stroke-width: 0.886227"/>
  </g>
  <g id="line2d_40">
   <path d="M 636.799062 250.745  " clip-path="url(#pa8b7533a9a)" style="fill: none; stroke: #1f77b4; stroke-width: 1.5; stroke-linecap: square"/>
   <defs>
    <path id="m0a7bd6d1f1" d="M 0 2.038322  C 0.540569 2.038322 1.059071 1.823551 1.441311 1.441311  C 1.823551 1.059071 2.038322 0.540569 2.038322 0  C 2.038322 -0.540569 1.823551 -1.059071 1.441311 -1.441311  C 1.059071 -1.823551 0.540569 -2.038322 0 -2.038322  C -0.540569 -2.038322 -1.059071 -1.823551 -1.441311 -1.441311  C -1.823551 -1.059071 -2.038322 -0.540569 -2.038322 0  C -2.038322 0.540569 -1.823551 1.059071 -1.441311 1.441311  C -1.059071 1.823551 -0.540569 2.038322 0 2.038322  z " style="stroke: #fb61d7; stroke-width: 0.886227"/>
   </defs>
   <g clip-path="url(#pa8b7533a9a)">
    <use xlink:href="#m0a7bd6d1f1" x="636.799062" y="250.745" style="fill: #fb61d7; stroke: #fb61d7; stroke-width: 0.886227"/>
   </g>
  </g>
  <g id="text_26">
   <text style="font-size: 11px; font-family: 'IBM Plex Sans'; text-anchor: middle; fill: #4d4d4d" x="716.179531" y="253.715" transform="rotate(-0 716.179531 253.715)">100% (100% Conditioned)</text>
  </g>
 </g>
 <defs>
  <clipPath id="pce10ada07c">
   <rect x="58.1825" y="36.4" width="545.936562" height="308.23"/>
  </clipPath>
  <clipPath id="p930b3ceb59">
   <path d="M 628.879063 151.625  L 628.879063 135.785  L 644.719063 135.785  L 644.719063 151.625  "/>
  </clipPath>
  <clipPath id="p0803d1a73f">
   <path d="M 628.879063 169.465  L 628.879063 153.625  L 644.719063 153.625  L 644.719063 169.465  "/>
  </clipPath>
  <clipPath id="p871bd86ecd">
   <path d="M 628.879063 187.305  L 628.879063 171.465  L 644.719063 171.465  L 644.719063 187.305  "/>
  </clipPath>
  <clipPath id="p76d775c81f">
   <path d="M 628.879063 205.145  L 628.879063 189.305  L 644.719063 189.305  L 644.719063 205.145  "/>
  </clipPath>
  <clipPath id="pbfb2107e91">
   <path d="M 628.879063 222.985  L 628.879063 207.145  L 644.719063 207.145  L 644.719063 222.985  "/>
  </clipPath>
  <clipPath id="p3292406e7c">
   <path d="M 628.879063 240.825  L 628.879063 224.985  L 644.719063 224.985  L 644.719063 240.825  "/>
  </clipPath>
  <clipPath id="pa8b7533a9a">
   <path d="M 628.879063 258.665  L 628.879063 242.825  L 644.719063 242.825  L 644.719063 258.665  "/>
  </clipPath>
 </defs>
</svg>
