<?xml version="1.0" encoding="utf-8" standalone="no"?>
<!DOCTYPE svg PUBLIC "-//W3C//DTD SVG 1.1//EN"
  "http://www.w3.org/Graphics/SVG/1.1/DTD/svg11.dtd">
<svg xmlns:xlink="http://www.w3.org/1999/xlink" width="905.4pt" height="327.6pt" viewBox="0 0 905.4 327.6" xmlns="http://www.w3.org/2000/svg" version="1.1">
 <metadata>
  <rdf:RDF xmlns:dc="http://purl.org/dc/elements/1.1/" xmlns:cc="http://creativecommons.org/ns#" xmlns:rdf="http://www.w3.org/1999/02/22-rdf-syntax-ns#">
   <cc:Work>
    <dc:type rdf:resource="http://purl.org/dc/dcmitype/StillImage"/>
    <dc:date>2026-04-11T12:30:59.229800</dc:date>
    <dc:format>image/svg+xml</dc:format>
    <dc:creator>
     <cc:Agent>
      <dc:title>Matplotlib v3.10.8, https://matplotlib.org/</dc:title>
     </cc:Agent>
    </dc:creator>
   </cc:Work>
  </rdf:RDF>
 </metadata>
 <defs>
  <style type="text/css">*{stroke-linejoin: round; stroke-linecap: butt}</style>
 </defs>
 <g id="figure_1">
  <g id="patch_1">
   <path d="M 0 327.6
L 905.4 327.6
L 905.4 0
L 0 0
z
" style="fill: #ffffff"/>
  </g>
  <g id="axes_1">
   <g id="patch_2">
    <path d="M 16.2 320.4
L 898.2 320.4
L 898.2 7.2
L 16.2 7.2
z
" style="fill: #ffffff"/>
   </g>
   <g id="matplotlib.axis_1">
    <g id="xtick_1"/>
    <g id="xtick_2"/>
    <g id="xtick_3"/>
    <g id="xtick_4"/>
    <g id="xtick_5"/>
    <g id="xtick_6"/>
    <g id="xtick_7"/>
    <g id="xtick_8"/>
   </g>
   <g id="matplotlib.axis_2">
    <g id="ytick_1"/>
    <g id="ytick_2"/>
    <g id="ytick_3"/>
   </g>
   <g id="PolyCollection_1">
    <path d="M 16.2 290.16
L 16.2 242.64
L 64.356197 242.64
L 64.356197 290.16
z
" clip-path="url(#p4ad0c5b877)" style="fill: #b71c1c"/>
    <path d="M 64.356197 290.16
L 64.356197 242.64
L 400.652251 242.64
L 400.652251 290.16
z
" clip-path="url(#p4ad0c5b877)" style="fill: #ef9a9a"/>
    <path d="M 400.652251 290.16
L 400.652251 242.64
L 749.519149 242.64
L 749.519149 290.16
z
" clip-path="url(#p4ad0c5b877)" style="fill: #81c784"/>
    <path d="M 749.519149 290.16
L 749.519149 242.64
L 775.562893 242.64
L 775.562893 290.16
z
" clip-path="url(#p4ad0c5b877)" style="fill: #1b5e20"/>
    <path d="M 16.2 203.76
L 16.2 156.24
L 64.067111 156.24
L 64.067111 203.76
z
" clip-path="url(#p4ad0c5b877)" style="fill: #b71c1c"/>
    <path d="M 64.067111 203.76
L 64.067111 156.24
L 397.692463 156.24
L 397.692463 203.76
z
" clip-path="url(#p4ad0c5b877)" style="fill: #ef9a9a"/>
    <path d="M 397.692463 203.76
L 397.692463 156.24
L 752.518869 156.24
L 752.518869 203.76
z
" clip-path="url(#p4ad0c5b877)" style="fill: #81c784"/>
    <path d="M 752.518869 203.76
L 752.518869 156.24
L 775.562893 156.24
L 775.562893 203.76
z
" clip-path="url(#p4ad0c5b877)" style="fill: #1b5e20"/>
    <path d="M 16.2 117.36
L 16.2 69.84
L 113.629819 69.84
L 113.629819 117.36
z
" clip-path="url(#p4ad0c5b877)" style="fill: #b71c1c"/>
    <path d="M 113.629819 117.36
L 113.629819 69.84
L 545.406578 69.84
L 545.406578 117.36
z
" clip-path="url(#p4ad0c5b877)" style="fill: #ef9a9a"/>
    <path d="M 545.406578 117.36
L 545.406578 69.84
L 770.081532 69.84
L 770.081532 117.36
z
" clip-path="url(#p4ad0c5b877)" style="fill: #81c784"/>
    <path d="M 770.081532 117.36
L 770.081532 69.84
L 775.562893 69.84
L 775.562893 117.36
z
" clip-path="url(#p4ad0c5b877)" style="fill: #1b5e20"/>
   </g>
   <g id="text_1">
    <g clip-path="url(#p4ad0c5b877)">
     <text style="font-weight: 700; font-size: 10px; font-family: 'IBM Plex Sans'; text-anchor: middle; fill: #ffffff" x="762.541021" y="269.1" transform="rotate(-0 762.541021 269.1)">3.4%</text>
    </g>
   </g>
   <g id="text_2">
    <g clip-path="url(#p4ad0c5b877)">
     <text style="font-weight: 700; font-size: 10px; font-family: 'IBM Plex Sans'; text-anchor: middle; fill: #ffffff" x="764.040881" y="182.7" transform="rotate(-0 764.040881 182.7)">3.0%</text>
    </g>
   </g>
   <g id="text_3">
    <g clip-path="url(#p4ad0c5b877)">
     <text style="font-weight: 700; font-size: 10px; font-family: 'IBM Plex Sans'; text-anchor: middle; fill: #ffffff" x="575.0857" y="269.1" transform="rotate(-0 575.0857 269.1)">45.9%</text>
    </g>
   </g>
   <g id="text_4">
    <g clip-path="url(#p4ad0c5b877)">
     <text style="font-weight: 700; font-size: 10px; font-family: 'IBM Plex Sans'; text-anchor: middle; fill: #ffffff" x="575.105666" y="182.7" transform="rotate(-0 575.105666 182.7)">46.7%</text>
    </g>
   </g>
   <g id="text_5">
    <g clip-path="url(#p4ad0c5b877)">
     <text style="font-weight: 700; font-size: 10px; font-family: 'IBM Plex Sans'; text-anchor: middle; fill: #ffffff" x="657.744055" y="96.3" transform="rotate(-0 657.744055 96.3)">29.6%</text>
    </g>
   </g>
   <g id="text_6">
    <g clip-path="url(#p4ad0c5b877)">
     <text style="font-weight: 700; font-size: 10px; font-family: 'IBM Plex Sans'; text-anchor: middle; fill: #ffffff" x="232.504224" y="269.1" transform="rotate(-0 232.504224 269.1)">44.3%</text>
    </g>
   </g>
   <g id="text_7">
    <g clip-path="url(#p4ad0c5b877)">
     <text style="font-weight: 700; font-size: 10px; font-family: 'IBM Plex Sans'; text-anchor: middle; fill: #ffffff" x="230.879787" y="182.7" transform="rotate(-0 230.879787 182.7)">43.9%</text>
    </g>
   </g>
   <g id="text_8">
    <g clip-path="url(#p4ad0c5b877)">
     <text style="font-weight: 700; font-size: 10px; font-family: 'IBM Plex Sans'; text-anchor: middle; fill: #ffffff" x="329.518199" y="96.3" transform="rotate(-0 329.518199 96.3)">56.9%</text>
    </g>
   </g>
   <g id="text_9">
    <g clip-path="url(#p4ad0c5b877)">
     <text style="font-weight: 700; font-size: 10px; font-family: 'IBM Plex Sans'; text-anchor: middle; fill: #ffffff" x="40.278099" y="269.1" transform="rotate(-0 40.278099 269.1)">6.3%</text>
    </g>
   </g>
   <g id="text_10">
    <g clip-path="url(#p4ad0c5b877)">
     <text style="font-weight: 700; font-size: 10px; font-family: 'IBM Plex Sans'; text-anchor: middle; fill: #ffffff" x="40.133556" y="182.7" transform="rotate(-0 40.133556 182.7)">6.3%</text>
    </g>
   </g>
   <g id="text_11">
    <g clip-path="url(#p4ad0c5b877)">
     <text style="font-weight: 700; font-size: 10px; font-family: 'IBM Plex Sans'; text-anchor: middle; fill: #ffffff" x="64.91491" y="96.3" transform="rotate(-0 64.91491 96.3)">12.8%</text>
    </g>
   </g>
   <g id="text_12">
    <g clip-path="url(#p4ad0c5b877)">
     <text style="font-weight: 700; font-size: 8px; font-family: 'IBM Plex Sans'; text-anchor: middle; fill: #b71c1c" x="64.91491" y="53.12" transform="rotate(-0 64.91491 53.12)">LOSE &gt; $1K</text>
    </g>
   </g>
   <g id="text_13">
    <g clip-path="url(#p4ad0c5b877)">
     <text style="font-weight: 700; font-size: 8px; font-family: 'IBM Plex Sans'; text-anchor: middle; fill: #ef9a9a" x="329.518199" y="53.12" transform="rotate(-0 329.518199 53.12)">LOSE $0-1K</text>
    </g>
   </g>
   <g id="text_14">
    <g clip-path="url(#p4ad0c5b877)">
     <text style="font-weight: 700; font-size: 8px; font-family: 'IBM Plex Sans'; text-anchor: middle; fill: #81c784" x="657.744055" y="53.12" transform="rotate(-0 657.744055 53.12)">SAVE $0-1K</text>
    </g>
   </g>
   <g id="text_15">
    <g clip-path="url(#p4ad0c5b877)">
     <text style="font-weight: 700; font-size: 9px; font-family: 'IBM Plex Sans'; text-anchor: start" x="783.156522" y="96.03" transform="rotate(-0 783.156522 96.03)">Default rate</text>
    </g>
   </g>
   <g id="text_16">
    <g clip-path="url(#p4ad0c5b877)">
     <text style="font-weight: 700; font-size: 9px; font-family: 'IBM Plex Sans'; text-anchor: start" x="783.156522" y="182.43" transform="rotate(-0 783.156522 182.43)">Fair rate</text>
    </g>
   </g>
   <g id="text_17">
    <g clip-path="url(#p4ad0c5b877)">
     <text style="font-weight: 700; font-size: 9px; font-family: 'IBM Plex Sans'; text-anchor: start" x="783.156522" y="268.83" transform="rotate(-0 783.156522 268.83)">TOU flex + fair rate</text>
    </g>
   </g>
  </g>
  <g id="text_18">
   <text style="font-weight: 700; font-size: 12px; font-family: 'GT Planar'; text-anchor: start" x="7.2" y="22.536" transform="rotate(-0 7.2 22.536)">How bills would change for</text>
  </g>
  <g id="text_19">
   <text style="font-weight: 700; font-size: 12px; font-family: 'GT Planar'; text-anchor: start; fill: #7a8a10" x="166.29375" y="22.536" transform="rotate(-0 166.29375 22.536)">natural gas</text>
  </g>
  <g id="text_20">
   <text style="font-weight: 700; font-size: 12px; font-family: 'GT Planar'; text-anchor: start" x="233.04375" y="22.536" transform="rotate(-0 233.04375 22.536)">heated homes after switching to</text>
  </g>
  <g id="text_21">
   <text style="font-weight: 700; font-size: 12px; font-family: 'GT Planar'; text-anchor: start; fill: #c47600" x="421.85625" y="22.536" transform="rotate(-0 421.85625 22.536)">heat pumps</text>
  </g>
 </g>
 <defs>
  <clipPath id="p4ad0c5b877">
   <rect x="16.2" y="7.2" width="882" height="313.2"/>
  </clipPath>
 </defs>
</svg>
