<?xml version="1.0" encoding="utf-8" standalone="no"?>
<!DOCTYPE svg PUBLIC "-//W3C//DTD SVG 1.1//EN"
  "http://www.w3.org/Graphics/SVG/1.1/DTD/svg11.dtd">
<svg xmlns:xlink="http://www.w3.org/1999/xlink" width="756pt" height="432pt" viewBox="0 0 756 432" xmlns="http://www.w3.org/2000/svg" version="1.1">
 <metadata>
  <rdf:RDF xmlns:dc="http://purl.org/dc/elements/1.1/" xmlns:cc="http://creativecommons.org/ns#" xmlns:rdf="http://www.w3.org/1999/02/22-rdf-syntax-ns#">
   <cc:Work>
    <dc:type rdf:resource="http://purl.org/dc/dcmitype/StillImage"/>
    <dc:date>2026-04-11T12:30:58.087867</dc:date>
    <dc:format>image/svg+xml</dc:format>
    <dc:creator>
     <cc:Agent>
      <dc:title>Matplotlib v3.10.8, https://matplotlib.org/</dc:title>
     </cc:Agent>
    </dc:creator>
   </cc:Work>
  </rdf:RDF>
 </metadata>
 <defs>
  <style type="text/css">*{stroke-linejoin: round; stroke-linecap: butt}</style>
 </defs>
 <g id="figure_1">
  <g id="patch_1">
   <path d="M 0 432
L 756 432
L 756 0
L 0 0
z
" style="fill: #ffffff"/>
  </g>
  <g id="axes_1">
   <g id="patch_2">
    <path d="M 70.022813 191.243594
L 748.44 191.243594
L 748.44 19
L 70.022813 19
z
" style="fill: #ffffff"/>
   </g>
   <g id="matplotlib.axis_1">
    <g id="xtick_1"/>
    <g id="xtick_2"/>
    <g id="xtick_3"/>
    <g id="xtick_4"/>
    <g id="xtick_5"/>
    <g id="xtick_6"/>
    <g id="xtick_7"/>
   </g>
   <g id="matplotlib.axis_2">
    <g id="ytick_1">
     <g id="line2d_1">
      <path d="M 70.022813 183.414339
L 748.44 183.414339
" clip-path="url(#p80adb94b64)" style="fill: none; stroke: #e5e5e5; stroke-linecap: square"/>
     </g>
     <g id="text_1">
      <text style="font-size: 11px; font-family: 'IBM Plex Sans'; text-anchor: start; fill: #4d4d4d" x="61.222813" y="187.484339" transform="rotate(-0 61.222813 187.484339)">0</text>
     </g>
    </g>
    <g id="ytick_2">
     <g id="line2d_2">
      <path d="M 70.022813 128.607451
L 748.44 128.607451
" clip-path="url(#p80adb94b64)" style="fill: none; stroke: #e5e5e5; stroke-linecap: square"/>
     </g>
     <g id="text_2">
      <text style="font-size: 11px; font-family: 'IBM Plex Sans'; text-anchor: start; fill: #4d4d4d" x="28.222813" y="132.677451" transform="rotate(-0 28.222813 132.677451)">200000</text>
     </g>
    </g>
    <g id="ytick_3">
     <g id="line2d_3">
      <path d="M 70.022813 73.800563
L 748.44 73.800563
" clip-path="url(#p80adb94b64)" style="fill: none; stroke: #e5e5e5; stroke-linecap: square"/>
     </g>
     <g id="text_3">
      <text style="font-size: 11px; font-family: 'IBM Plex Sans'; text-anchor: start; fill: #4d4d4d" x="28.222813" y="77.870563" transform="rotate(-0 28.222813 77.870563)">400000</text>
     </g>
    </g>
    <g id="ytick_4">
     <g id="line2d_4">
      <path d="M 70.022813 156.010895
L 748.44 156.010895
" clip-path="url(#p80adb94b64)" style="fill: none; stroke: #fafafa; stroke-width: 0.5; stroke-linecap: square"/>
     </g>
    </g>
    <g id="ytick_5">
     <g id="line2d_5">
      <path d="M 70.022813 101.204007
L 748.44 101.204007
" clip-path="url(#p80adb94b64)" style="fill: none; stroke: #fafafa; stroke-width: 0.5; stroke-linecap: square"/>
     </g>
    </g>
    <g id="ytick_6">
     <g id="line2d_6">
      <path d="M 70.022813 46.397119
L 748.44 46.397119
" clip-path="url(#p80adb94b64)" style="fill: none; stroke: #fafafa; stroke-width: 0.5; stroke-linecap: square"/>
     </g>
    </g>
   </g>
   <g id="PolyCollection_1">
    <path d="M -377.972376 183.414339
L -377.972376 183.35994
L -362.553803 183.35994
L -362.553803 183.414339
z
" clip-path="url(#p80adb94b64)" style="fill: #1b5e20"/>
    <path d="M -240.918398 183.414339
L -240.918398 183.35994
L -225.499826 183.35994
L -225.499826 183.414339
z
" clip-path="url(#p80adb94b64)" style="fill: #1b5e20"/>
    <path d="M -103.864421 183.414339
L -103.864421 183.29354
L -88.445849 183.29354
L -88.445849 183.414339
z
" clip-path="url(#p80adb94b64)" style="fill: #1b5e20"/>
    <path d="M -86.732674 183.414339
L -86.732674 183.35994
L -71.314102 183.35994
L -71.314102 183.414339
z
" clip-path="url(#p80adb94b64)" style="fill: #1b5e20"/>
    <path d="M -69.600927 183.414339
L -69.600927 183.305541
L -54.182354 183.305541
L -54.182354 183.414339
z
" clip-path="url(#p80adb94b64)" style="fill: #1b5e20"/>
    <path d="M -35.337433 183.414339
L -35.337433 183.300973
L -19.91886 183.300973
L -19.91886 183.414339
z
" clip-path="url(#p80adb94b64)" style="fill: #1b5e20"/>
    <path d="M -18.205685 183.414339
L -18.205685 183.130343
L -2.787113 183.130343
L -2.787113 183.414339
z
" clip-path="url(#p80adb94b64)" style="fill: #1b5e20"/>
    <path d="M -1.073938 183.414339
L -1.073938 183.196743
L 14.344634 183.196743
L 14.344634 183.414339
z
" clip-path="url(#p80adb94b64)" style="fill: #1b5e20"/>
    <path d="M 16.057809 183.414339
L 16.057809 183.192175
L 31.476381 183.192175
L 31.476381 183.414339
z
" clip-path="url(#p80adb94b64)" style="fill: #1b5e20"/>
    <path d="M 33.189556 183.414339
L 33.189556 183.142343
L 48.608129 183.142343
L 48.608129 183.414339
z
" clip-path="url(#p80adb94b64)" style="fill: #1b5e20"/>
    <path d="M 50.321303 183.414339
L 50.321303 182.453326
L 65.739876 182.453326
L 65.739876 183.414339
z
" clip-path="url(#p80adb94b64)" style="fill: #1b5e20"/>
    <path d="M 67.45305 183.414339
L 67.45305 182.858346
L 82.871623 182.858346
L 82.871623 183.414339
z
" clip-path="url(#p80adb94b64)" style="fill: #1b5e20"/>
    <path d="M 84.584798 183.414339
L 84.584798 182.924747
L 100.00337 182.924747
L 100.00337 183.414339
z
" clip-path="url(#p80adb94b64)" style="fill: #1b5e20"/>
    <path d="M 101.716545 183.414339
L 101.716545 182.017156
L 117.135117 182.017156
L 117.135117 183.414339
z
" clip-path="url(#p80adb94b64)" style="fill: #1b5e20"/>
    <path d="M 118.848292 183.414339
L 118.848292 181.8511
L 134.266864 181.8511
L 134.266864 183.414339
z
" clip-path="url(#p80adb94b64)" style="fill: #1b5e20"/>
    <path d="M 135.980039 183.414339
L 135.980039 181.334399
L 151.398612 181.334399
L 151.398612 183.414339
z
" clip-path="url(#p80adb94b64)" style="fill: #1b5e20"/>
    <path d="M 153.111786 183.414339
L 153.111786 180.641767
L 168.530359 180.641767
L 168.530359 183.414339
z
" clip-path="url(#p80adb94b64)" style="fill: #81c784"/>
    <path d="M 170.243533 183.414339
L 170.243533 179.784733
L 185.662106 179.784733
L 185.662106 183.414339
z
" clip-path="url(#p80adb94b64)" style="fill: #81c784"/>
    <path d="M 187.375281 183.414339
L 187.375281 178.071401
L 202.793853 178.071401
L 202.793853 183.414339
z
" clip-path="url(#p80adb94b64)" style="fill: #81c784"/>
    <path d="M 204.507028 183.414339
L 204.507028 173.879201
L 219.9256 173.879201
L 219.9256 183.414339
z
" clip-path="url(#p80adb94b64)" style="fill: #81c784"/>
    <path d="M 221.638775 183.414339
L 221.638775 169.421658
L 237.057347 169.421658
L 237.057347 183.414339
z
" clip-path="url(#p80adb94b64)" style="fill: #81c784"/>
    <path d="M 238.770522 183.414339
L 238.770522 159.749223
L 254.189094 159.749223
L 254.189094 183.414339
z
" clip-path="url(#p80adb94b64)" style="fill: #81c784"/>
    <path d="M 255.902269 183.414339
L 255.902269 150.612041
L 271.320842 150.612041
L 271.320842 183.414339
z
" clip-path="url(#p80adb94b64)" style="fill: #81c784"/>
    <path d="M 273.034016 183.414339
L 273.034016 129.741679
L 288.452589 129.741679
L 288.452589 183.414339
z
" clip-path="url(#p80adb94b64)" style="fill: #81c784"/>
    <path d="M 290.165763 183.414339
L 290.165763 102.624896
L 305.584336 102.624896
L 305.584336 183.414339
z
" clip-path="url(#p80adb94b64)" style="fill: #81c784"/>
    <path d="M 307.297511 183.414339
L 307.297511 59.207627
L 322.716083 59.207627
L 322.716083 183.414339
z
" clip-path="url(#p80adb94b64)" style="fill: #81c784"/>
    <path d="M 324.429258 183.414339
L 324.429258 34.285687
L 339.84783 34.285687
L 339.84783 183.414339
z
" clip-path="url(#p80adb94b64)" style="fill: #ef9a9a"/>
    <path d="M 341.561005 183.414339
L 341.561005 60.738744
L 356.979577 60.738744
L 356.979577 183.414339
z
" clip-path="url(#p80adb94b64)" style="fill: #ef9a9a"/>
    <path d="M 358.692752 183.414339
L 358.692752 89.311903
L 374.111325 89.311903
L 374.111325 183.414339
z
" clip-path="url(#p80adb94b64)" style="fill: #ef9a9a"/>
    <path d="M 375.824499 183.414339
L 375.824499 114.639506
L 391.243072 114.639506
L 391.243072 183.414339
z
" clip-path="url(#p80adb94b64)" style="fill: #ef9a9a"/>
    <path d="M 392.956246 183.414339
L 392.956246 127.809349
L 408.374819 127.809349
L 408.374819 183.414339
z
" clip-path="url(#p80adb94b64)" style="fill: #ef9a9a"/>
    <path d="M 410.087994 183.414339
L 410.087994 134.757155
L 425.506566 134.757155
L 425.506566 183.414339
z
" clip-path="url(#p80adb94b64)" style="fill: #ef9a9a"/>
    <path d="M 427.219741 183.414339
L 427.219741 139.286129
L 442.638313 139.286129
L 442.638313 183.414339
z
" clip-path="url(#p80adb94b64)" style="fill: #ef9a9a"/>
    <path d="M 444.351488 183.414339
L 444.351488 150.33328
L 459.77006 150.33328
L 459.77006 183.414339
z
" clip-path="url(#p80adb94b64)" style="fill: #ef9a9a"/>
    <path d="M 461.483235 183.414339
L 461.483235 151.74841
L 476.901808 151.74841
L 476.901808 183.414339
z
" clip-path="url(#p80adb94b64)" style="fill: #ef9a9a"/>
    <path d="M 478.614982 183.414339
L 478.614982 157.822455
L 494.033555 157.822455
L 494.033555 183.414339
z
" clip-path="url(#p80adb94b64)" style="fill: #ef9a9a"/>
    <path d="M 495.746729 183.414339
L 495.746729 162.598761
L 511.165302 162.598761
L 511.165302 183.414339
z
" clip-path="url(#p80adb94b64)" style="fill: #b71c1c"/>
    <path d="M 512.878477 183.414339
L 512.878477 164.571054
L 528.297049 164.571054
L 528.297049 183.414339
z
" clip-path="url(#p80adb94b64)" style="fill: #b71c1c"/>
    <path d="M 530.010224 183.414339
L 530.010224 166.378853
L 545.428796 166.378853
L 545.428796 183.414339
z
" clip-path="url(#p80adb94b64)" style="fill: #b71c1c"/>
    <path d="M 547.141971 183.414339
L 547.141971 169.437696
L 562.560543 169.437696
L 562.560543 183.414339
z
" clip-path="url(#p80adb94b64)" style="fill: #b71c1c"/>
    <path d="M 564.273718 183.414339
L 564.273718 171.335257
L 579.69229 171.335257
L 579.69229 183.414339
z
" clip-path="url(#p80adb94b64)" style="fill: #b71c1c"/>
    <path d="M 581.405465 183.414339
L 581.405465 173.8039
L 596.824038 173.8039
L 596.824038 183.414339
z
" clip-path="url(#p80adb94b64)" style="fill: #b71c1c"/>
    <path d="M 598.537212 183.414339
L 598.537212 175.513986
L 613.955785 175.513986
L 613.955785 183.414339
z
" clip-path="url(#p80adb94b64)" style="fill: #b71c1c"/>
    <path d="M 615.66896 183.414339
L 615.66896 175.541477
L 631.087532 175.541477
L 631.087532 183.414339
z
" clip-path="url(#p80adb94b64)" style="fill: #b71c1c"/>
    <path d="M 632.800707 183.414339
L 632.800707 177.015414
L 648.219279 177.015414
L 648.219279 183.414339
z
" clip-path="url(#p80adb94b64)" style="fill: #b71c1c"/>
    <path d="M 649.932454 183.414339
L 649.932454 177.384312
L 665.351026 177.384312
L 665.351026 183.414339
z
" clip-path="url(#p80adb94b64)" style="fill: #b71c1c"/>
    <path d="M 667.064201 183.414339
L 667.064201 178.740651
L 682.482773 178.740651
L 682.482773 183.414339
z
" clip-path="url(#p80adb94b64)" style="fill: #b71c1c"/>
    <path d="M 684.195948 183.414339
L 684.195948 179.238112
L 699.614521 179.238112
L 699.614521 183.414339
z
" clip-path="url(#p80adb94b64)" style="fill: #b71c1c"/>
    <path d="M 701.327695 183.414339
L 701.327695 179.603135
L 716.746268 179.603135
L 716.746268 183.414339
z
" clip-path="url(#p80adb94b64)" style="fill: #b71c1c"/>
    <path d="M 718.459442 183.414339
L 718.459442 180.294528
L 733.878015 180.294528
L 733.878015 183.414339
z
" clip-path="url(#p80adb94b64)" style="fill: #b71c1c"/>
    <path d="M 735.59119 183.414339
L 735.59119 180.692298
L 751.009762 180.692298
L 751.009762 183.414339
z
" clip-path="url(#p80adb94b64)" style="fill: #b71c1c"/>
    <path d="M 752.722937 183.414339
L 752.722937 181.633263
L 768.141509 181.633263
L 768.141509 183.414339
z
" clip-path="url(#p80adb94b64)" style="fill: #b71c1c"/>
    <path d="M 769.854684 183.414339
L 769.854684 181.915859
L 785.273256 181.915859
L 785.273256 183.414339
z
" clip-path="url(#p80adb94b64)" style="fill: #b71c1c"/>
    <path d="M 786.986431 183.414339
L 786.986431 181.845165
L 802.405004 181.845165
L 802.405004 183.414339
z
" clip-path="url(#p80adb94b64)" style="fill: #b71c1c"/>
    <path d="M 804.118178 183.414339
L 804.118178 181.729421
L 819.536751 181.729421
L 819.536751 183.414339
z
" clip-path="url(#p80adb94b64)" style="fill: #b71c1c"/>
    <path d="M 821.249925 183.414339
L 821.249925 182.316546
L 836.668498 182.316546
L 836.668498 183.414339
z
" clip-path="url(#p80adb94b64)" style="fill: #b71c1c"/>
    <path d="M 838.381673 183.414339
L 838.381673 182.818515
L 853.800245 182.818515
L 853.800245 183.414339
z
" clip-path="url(#p80adb94b64)" style="fill: #b71c1c"/>
    <path d="M 855.51342 183.414339
L 855.51342 182.767945
L 870.931992 182.767945
L 870.931992 183.414339
z
" clip-path="url(#p80adb94b64)" style="fill: #b71c1c"/>
    <path d="M 872.645167 183.414339
L 872.645167 182.934007
L 888.063739 182.934007
L 888.063739 183.414339
z
" clip-path="url(#p80adb94b64)" style="fill: #b71c1c"/>
    <path d="M 889.776914 183.414339
L 889.776914 183.049077
L 905.195487 183.049077
L 905.195487 183.414339
z
" clip-path="url(#p80adb94b64)" style="fill: #b71c1c"/>
    <path d="M 906.908661 183.414339
L 906.908661 183.051942
L 922.327234 183.051942
L 922.327234 183.414339
z
" clip-path="url(#p80adb94b64)" style="fill: #b71c1c"/>
    <path d="M 924.040408 183.414339
L 924.040408 182.872175
L 939.458981 182.872175
L 939.458981 183.414339
z
" clip-path="url(#p80adb94b64)" style="fill: #b71c1c"/>
    <path d="M 941.172156 183.414339
L 941.172156 183.00211
L 956.590728 183.00211
L 956.590728 183.414339
z
" clip-path="url(#p80adb94b64)" style="fill: #b71c1c"/>
    <path d="M 958.303903 183.414339
L 958.303903 183.17348
L 973.722475 183.17348
L 973.722475 183.414339
z
" clip-path="url(#p80adb94b64)" style="fill: #b71c1c"/>
    <path d="M 975.43565 183.414339
L 975.43565 183.239141
L 990.854222 183.239141
L 990.854222 183.414339
z
" clip-path="url(#p80adb94b64)" style="fill: #b71c1c"/>
    <path d="M 992.567397 183.414339
L 992.567397 183.352507
L 1007.985969 183.352507
L 1007.985969 183.414339
z
" clip-path="url(#p80adb94b64)" style="fill: #b71c1c"/>
    <path d="M 1009.699144 183.414339
L 1009.699144 183.060536
L 1025.117717 183.060536
L 1025.117717 183.414339
z
" clip-path="url(#p80adb94b64)" style="fill: #b71c1c"/>
    <path d="M 1026.830891 183.414339
L 1026.830891 183.352507
L 1042.249464 183.352507
L 1042.249464 183.414339
z
" clip-path="url(#p80adb94b64)" style="fill: #b71c1c"/>
    <path d="M 1043.962638 183.414339
L 1043.962638 183.352507
L 1059.381211 183.352507
L 1059.381211 183.414339
z
" clip-path="url(#p80adb94b64)" style="fill: #b71c1c"/>
    <path d="M 1061.094386 183.414339
L 1061.094386 183.29354
L 1076.512958 183.29354
L 1076.512958 183.414339
z
" clip-path="url(#p80adb94b64)" style="fill: #b71c1c"/>
    <path d="M 1078.226133 183.414339
L 1078.226133 183.300973
L 1093.644705 183.300973
L 1093.644705 183.414339
z
" clip-path="url(#p80adb94b64)" style="fill: #b71c1c"/>
    <path d="M 1095.35788 183.414339
L 1095.35788 183.29354
L 1110.776452 183.29354
L 1110.776452 183.414339
z
" clip-path="url(#p80adb94b64)" style="fill: #b71c1c"/>
    <path d="M 1112.489627 183.414339
L 1112.489627 183.355372
L 1127.9082 183.355372
L 1127.9082 183.414339
z
" clip-path="url(#p80adb94b64)" style="fill: #b71c1c"/>
    <path d="M 1163.884869 183.414339
L 1163.884869 183.352507
L 1179.303441 183.352507
L 1179.303441 183.414339
z
" clip-path="url(#p80adb94b64)" style="fill: #b71c1c"/>
    <path d="M 1181.016616 183.414339
L 1181.016616 183.352507
L 1196.435188 183.352507
L 1196.435188 183.414339
z
" clip-path="url(#p80adb94b64)" style="fill: #b71c1c"/>
    <path d="M 1215.28011 183.414339
L 1215.28011 183.355372
L 1230.698683 183.355372
L 1230.698683 183.414339
z
" clip-path="url(#p80adb94b64)" style="fill: #b71c1c"/>
    <path d="M 1232.411857 183.414339
L 1232.411857 183.352507
L 1247.83043 183.352507
L 1247.83043 183.414339
z
" clip-path="url(#p80adb94b64)" style="fill: #b71c1c"/>
    <path d="M 1266.675352 183.414339
L 1266.675352 183.29354
L 1282.093924 183.29354
L 1282.093924 183.414339
z
" clip-path="url(#p80adb94b64)" style="fill: #b71c1c"/>
    <path d="M 1318.070593 183.414339
L 1318.070593 183.355372
L 1333.489165 183.355372
L 1333.489165 183.414339
z
" clip-path="url(#p80adb94b64)" style="fill: #b71c1c"/>
    <path d="M 1369.465835 183.414339
L 1369.465835 183.355372
L 1384.884407 183.355372
L 1384.884407 183.414339
z
" clip-path="url(#p80adb94b64)" style="fill: #b71c1c"/>
   </g>
   <g id="LineCollection_1">
    <path d="M 152.255199 191.243594
L 152.255199 19
" clip-path="url(#p80adb94b64)" style="fill: none; stroke-dasharray: 0.886227,1.462274; stroke-dashoffset: 0; stroke: #808080; stroke-width: 0.886227"/>
    <path d="M 323.57267 191.243594
L 323.57267 19
" clip-path="url(#p80adb94b64)" style="fill: none; stroke-dasharray: 0.886227,1.462274; stroke-dashoffset: 0; stroke: #808080; stroke-width: 0.886227"/>
    <path d="M 494.890142 191.243594
L 494.890142 19
" clip-path="url(#p80adb94b64)" style="fill: none; stroke-dasharray: 0.886227,1.462274; stroke-dashoffset: 0; stroke: #808080; stroke-width: 0.886227"/>
   </g>
   <g id="text_4">
    <g clip-path="url(#p80adb94b64)">
     <text style="font-size: 9px; font-family: 'IBM Plex Sans'; fill: #1b5e20" transform="translate(98.914219 24.489114)">savings &gt; $1k</text>
    </g>
    <g clip-path="url(#p80adb94b64)">
     <text style="font-size: 9px; font-family: 'IBM Plex Sans'; fill: #1b5e20" transform="translate(115.761797 34.389395)">0.7%</text>
    </g>
   </g>
   <g id="text_5">
    <g clip-path="url(#p80adb94b64)">
     <text style="font-size: 9px; font-family: 'IBM Plex Sans'; fill: #81c784" transform="translate(209.536513 24.489114)">savings $0-1k</text>
    </g>
    <g clip-path="url(#p80adb94b64)">
     <text style="font-size: 9px; font-family: 'IBM Plex Sans'; fill: #81c784" transform="translate(224.418153 34.389395)">29.6%</text>
    </g>
   </g>
   <g id="text_6">
    <g clip-path="url(#p80adb94b64)">
     <text style="font-size: 9px; font-family: 'IBM Plex Sans'; fill: #b71c1c" transform="translate(580.870717 24.363254)">losses &gt; $1k</text>
    </g>
    <g clip-path="url(#p80adb94b64)">
     <text style="font-size: 9px; font-family: 'IBM Plex Sans'; fill: #b71c1c" transform="translate(592.750717 34.155254)">12.8%</text>
    </g>
   </g>
   <g id="text_7">
    <g clip-path="url(#p80adb94b64)">
     <text style="font-size: 9px; font-family: 'IBM Plex Sans'; fill: #ef9a9a" transform="translate(383.121562 24.363254)">losses $0-1k</text>
    </g>
    <g clip-path="url(#p80adb94b64)">
     <text style="font-size: 9px; font-family: 'IBM Plex Sans'; fill: #ef9a9a" transform="translate(395.735625 34.155254)">56.9%</text>
    </g>
   </g>
   <g id="patch_3">
    <path d="M 70.022813 191.243594
L 748.44 191.243594
" style="fill: none; stroke: #000000; stroke-width: 0.5; stroke-linejoin: miter; stroke-linecap: square"/>
   </g>
  </g>
  <g id="axes_2">
   <g id="patch_4">
    <path d="M 70.022813 382.487188
L 748.44 382.487188
L 748.44 210.243594
L 70.022813 210.243594
z
" style="fill: #ffffff"/>
   </g>
   <g id="matplotlib.axis_3">
    <g id="xtick_8">
     <g id="line2d_7">
      <path d="M 152.255199 382.487188
" style="fill: none; stroke: #000000; stroke-width: 1.5; stroke-linecap: square"/>
      <defs>
       <path id="mc3d263042f" d="M 0 0
L 0 2.75
" style="stroke: #000000"/>
      </defs>
      <g>
       <use xlink:href="#mc3d263042f" x="152.255199" y="382.487188" style="stroke: #000000"/>
      </g>
     </g>
     <g id="text_8">
      <text style="font-size: 11px; font-family: 'IBM Plex Sans'; text-anchor: middle; fill: #4d4d4d" x="152.255199" y="395.577188" transform="rotate(-0 152.255199 395.577188)">-1000</text>
     </g>
    </g>
    <g id="xtick_9">
     <g id="line2d_8">
      <path d="M 323.57267 382.487188
" style="fill: none; stroke: #000000; stroke-width: 1.5; stroke-linecap: square"/>
      <g>
       <use xlink:href="#mc3d263042f" x="323.57267" y="382.487188" style="stroke: #000000"/>
      </g>
     </g>
     <g id="text_9">
      <text style="font-size: 11px; font-family: 'IBM Plex Sans'; text-anchor: middle; fill: #4d4d4d" x="323.57267" y="395.577188" transform="rotate(-0 323.57267 395.577188)">0</text>
     </g>
    </g>
    <g id="xtick_10">
     <g id="line2d_9">
      <path d="M 494.890142 382.487188
" style="fill: none; stroke: #000000; stroke-width: 1.5; stroke-linecap: square"/>
      <g>
       <use xlink:href="#mc3d263042f" x="494.890142" y="382.487188" style="stroke: #000000"/>
      </g>
     </g>
     <g id="text_10">
      <text style="font-size: 11px; font-family: 'IBM Plex Sans'; text-anchor: middle; fill: #4d4d4d" x="494.890142" y="395.577188" transform="rotate(-0 494.890142 395.577188)">1000</text>
     </g>
    </g>
    <g id="xtick_11">
     <g id="line2d_10">
      <path d="M 666.207614 382.487188
" style="fill: none; stroke: #000000; stroke-width: 1.5; stroke-linecap: square"/>
      <g>
       <use xlink:href="#mc3d263042f" x="666.207614" y="382.487188" style="stroke: #000000"/>
      </g>
     </g>
     <g id="text_11">
      <text style="font-size: 11px; font-family: 'IBM Plex Sans'; text-anchor: middle; fill: #4d4d4d" x="666.207614" y="395.577188" transform="rotate(-0 666.207614 395.577188)">2000</text>
     </g>
    </g>
    <g id="xtick_12">
     <g id="line2d_11">
      <path d="M 237.913935 382.487188
" style="fill: none; stroke: #000000; stroke-width: 1.5; stroke-linecap: square"/>
      <defs>
       <path id="m218b00bd4c" d="M 0 0
L 0 1.375
" style="stroke: #000000"/>
      </defs>
      <g>
       <use xlink:href="#m218b00bd4c" x="237.913935" y="382.487188" style="stroke: #000000"/>
      </g>
     </g>
    </g>
    <g id="xtick_13">
     <g id="line2d_12">
      <path d="M 409.231406 382.487188
" style="fill: none; stroke: #000000; stroke-width: 1.5; stroke-linecap: square"/>
      <g>
       <use xlink:href="#m218b00bd4c" x="409.231406" y="382.487188" style="stroke: #000000"/>
      </g>
     </g>
    </g>
    <g id="xtick_14">
     <g id="line2d_13">
      <path d="M 580.548878 382.487188
" style="fill: none; stroke: #000000; stroke-width: 1.5; stroke-linecap: square"/>
      <g>
       <use xlink:href="#m218b00bd4c" x="580.548878" y="382.487188" style="stroke: #000000"/>
      </g>
     </g>
    </g>
   </g>
   <g id="matplotlib.axis_4">
    <g id="ytick_7">
     <g id="line2d_14">
      <path d="M 70.022813 374.657933
L 748.44 374.657933
" clip-path="url(#pdc3027b642)" style="fill: none; stroke: #e5e5e5; stroke-linecap: square"/>
     </g>
     <g id="text_12">
      <text style="font-size: 11px; font-family: 'IBM Plex Sans'; text-anchor: start; fill: #4d4d4d" x="61.222813" y="378.727933" transform="rotate(-0 61.222813 378.727933)">0</text>
     </g>
    </g>
    <g id="ytick_8">
     <g id="line2d_15">
      <path d="M 70.022813 319.851045
L 748.44 319.851045
" clip-path="url(#pdc3027b642)" style="fill: none; stroke: #e5e5e5; stroke-linecap: square"/>
     </g>
     <g id="text_13">
      <text style="font-size: 11px; font-family: 'IBM Plex Sans'; text-anchor: start; fill: #4d4d4d" x="28.222813" y="323.921045" transform="rotate(-0 28.222813 323.921045)">200000</text>
     </g>
    </g>
    <g id="ytick_9">
     <g id="line2d_16">
      <path d="M 70.022813 265.044157
L 748.44 265.044157
" clip-path="url(#pdc3027b642)" style="fill: none; stroke: #e5e5e5; stroke-linecap: square"/>
     </g>
     <g id="text_14">
      <text style="font-size: 11px; font-family: 'IBM Plex Sans'; text-anchor: start; fill: #4d4d4d" x="28.222813" y="269.114157" transform="rotate(-0 28.222813 269.114157)">400000</text>
     </g>
    </g>
    <g id="ytick_10">
     <g id="line2d_17">
      <path d="M 70.022813 347.254489
L 748.44 347.254489
" clip-path="url(#pdc3027b642)" style="fill: none; stroke: #fafafa; stroke-width: 0.5; stroke-linecap: square"/>
     </g>
    </g>
    <g id="ytick_11">
     <g id="line2d_18">
      <path d="M 70.022813 292.447601
L 748.44 292.447601
" clip-path="url(#pdc3027b642)" style="fill: none; stroke: #fafafa; stroke-width: 0.5; stroke-linecap: square"/>
     </g>
    </g>
    <g id="ytick_12">
     <g id="line2d_19">
      <path d="M 70.022813 237.640713
L 748.44 237.640713
" clip-path="url(#pdc3027b642)" style="fill: none; stroke: #fafafa; stroke-width: 0.5; stroke-linecap: square"/>
     </g>
    </g>
   </g>
   <g id="PolyCollection_2">
    <path d="M -566.421594 374.657933
L -566.421594 374.603534
L -551.003022 374.603534
L -551.003022 374.657933
z
" clip-path="url(#pdc3027b642)" style="fill: #1b5e20"/>
    <path d="M -446.499364 374.657933
L -446.499364 374.603534
L -431.080792 374.603534
L -431.080792 374.657933
z
" clip-path="url(#pdc3027b642)" style="fill: #1b5e20"/>
    <path d="M -240.918398 374.657933
L -240.918398 374.440336
L -225.499826 374.440336
L -225.499826 374.657933
z
" clip-path="url(#pdc3027b642)" style="fill: #1b5e20"/>
    <path d="M -206.654904 374.657933
L -206.654904 374.603534
L -191.236332 374.603534
L -191.236332 374.657933
z
" clip-path="url(#pdc3027b642)" style="fill: #1b5e20"/>
    <path d="M -189.523157 374.657933
L -189.523157 374.482735
L -174.104585 374.482735
L -174.104585 374.657933
z
" clip-path="url(#pdc3027b642)" style="fill: #1b5e20"/>
    <path d="M -172.39141 374.657933
L -172.39141 374.494736
L -156.972837 374.494736
L -156.972837 374.657933
z
" clip-path="url(#pdc3027b642)" style="fill: #1b5e20"/>
    <path d="M -155.259663 374.657933
L -155.259663 374.598966
L -139.84109 374.598966
L -139.84109 374.657933
z
" clip-path="url(#pdc3027b642)" style="fill: #1b5e20"/>
    <path d="M -138.127915 374.657933
L -138.127915 374.540738
L -122.709343 374.540738
L -122.709343 374.657933
z
" clip-path="url(#pdc3027b642)" style="fill: #1b5e20"/>
    <path d="M -120.996168 374.657933
L -120.996168 374.440336
L -105.577596 374.440336
L -105.577596 374.657933
z
" clip-path="url(#pdc3027b642)" style="fill: #1b5e20"/>
    <path d="M -103.864421 374.657933
L -103.864421 374.26035
L -88.445849 374.26035
L -88.445849 374.657933
z
" clip-path="url(#pdc3027b642)" style="fill: #1b5e20"/>
    <path d="M -86.732674 374.657933
L -86.732674 374.16834
L -71.314102 374.16834
L -71.314102 374.657933
z
" clip-path="url(#pdc3027b642)" style="fill: #1b5e20"/>
    <path d="M -69.600927 374.657933
L -69.600927 374.248821
L -54.182354 374.248821
L -54.182354 374.657933
z
" clip-path="url(#pdc3027b642)" style="fill: #1b5e20"/>
    <path d="M -52.46918 374.657933
L -52.46918 374.14842
L -37.050607 374.14842
L -37.050607 374.657933
z
" clip-path="url(#pdc3027b642)" style="fill: #1b5e20"/>
    <path d="M -35.337433 374.657933
L -35.337433 373.81916
L -19.91886 373.81916
L -19.91886 374.657933
z
" clip-path="url(#pdc3027b642)" style="fill: #1b5e20"/>
    <path d="M -18.205685 374.657933
L -18.205685 373.932252
L -2.787113 373.932252
L -2.787113 374.657933
z
" clip-path="url(#pdc3027b642)" style="fill: #1b5e20"/>
    <path d="M -1.073938 374.657933
L -1.073938 373.48676
L 14.344634 373.48676
L 14.344634 374.657933
z
" clip-path="url(#pdc3027b642)" style="fill: #1b5e20"/>
    <path d="M 16.057809 374.657933
L 16.057809 373.521961
L 31.476381 373.521961
L 31.476381 374.657933
z
" clip-path="url(#pdc3027b642)" style="fill: #1b5e20"/>
    <path d="M 33.189556 374.657933
L 33.189556 373.314929
L 48.608129 373.314929
L 48.608129 374.657933
z
" clip-path="url(#pdc3027b642)" style="fill: #1b5e20"/>
    <path d="M 50.321303 374.657933
L 50.321303 372.748323
L 65.739876 372.748323
L 65.739876 374.657933
z
" clip-path="url(#pdc3027b642)" style="fill: #1b5e20"/>
    <path d="M 67.45305 374.657933
L 67.45305 371.24189
L 82.871623 371.24189
L 82.871623 374.657933
z
" clip-path="url(#pdc3027b642)" style="fill: #1b5e20"/>
    <path d="M 84.584798 374.657933
L 84.584798 371.41054
L 100.00337 371.41054
L 100.00337 374.657933
z
" clip-path="url(#pdc3027b642)" style="fill: #1b5e20"/>
    <path d="M 101.716545 374.657933
L 101.716545 370.263759
L 117.135117 370.263759
L 117.135117 374.657933
z
" clip-path="url(#pdc3027b642)" style="fill: #1b5e20"/>
    <path d="M 118.848292 374.657933
L 118.848292 368.564311
L 134.266864 368.564311
L 134.266864 374.657933
z
" clip-path="url(#pdc3027b642)" style="fill: #1b5e20"/>
    <path d="M 135.980039 374.657933
L 135.980039 365.912047
L 151.398612 365.912047
L 151.398612 374.657933
z
" clip-path="url(#pdc3027b642)" style="fill: #1b5e20"/>
    <path d="M 153.111786 374.657933
L 153.111786 362.965905
L 168.530359 362.965905
L 168.530359 374.657933
z
" clip-path="url(#pdc3027b642)" style="fill: #81c784"/>
    <path d="M 170.243533 374.657933
L 170.243533 358.223554
L 185.662106 358.223554
L 185.662106 374.657933
z
" clip-path="url(#pdc3027b642)" style="fill: #81c784"/>
    <path d="M 187.375281 374.657933
L 187.375281 353.768806
L 202.793853 353.768806
L 202.793853 374.657933
z
" clip-path="url(#pdc3027b642)" style="fill: #81c784"/>
    <path d="M 204.507028 374.657933
L 204.507028 344.212962
L 219.9256 344.212962
L 219.9256 374.657933
z
" clip-path="url(#pdc3027b642)" style="fill: #81c784"/>
    <path d="M 221.638775 374.657933
L 221.638775 340.21041
L 237.057347 340.21041
L 237.057347 374.657933
z
" clip-path="url(#pdc3027b642)" style="fill: #81c784"/>
    <path d="M 238.770522 374.657933
L 238.770522 327.392099
L 254.189094 327.392099
L 254.189094 374.657933
z
" clip-path="url(#pdc3027b642)" style="fill: #81c784"/>
    <path d="M 255.902269 374.657933
L 255.902269 312.832337
L 271.320842 312.832337
L 271.320842 374.657933
z
" clip-path="url(#pdc3027b642)" style="fill: #81c784"/>
    <path d="M 273.034016 374.657933
L 273.034016 292.182977
L 288.452589 292.182977
L 288.452589 374.657933
z
" clip-path="url(#pdc3027b642)" style="fill: #81c784"/>
    <path d="M 290.165763 374.657933
L 290.165763 260.537888
L 305.584336 260.537888
L 305.584336 374.657933
z
" clip-path="url(#pdc3027b642)" style="fill: #81c784"/>
    <path d="M 307.297511 374.657933
L 307.297511 240.85548
L 322.716083 240.85548
L 322.716083 374.657933
z
" clip-path="url(#pdc3027b642)" style="fill: #81c784"/>
    <path d="M 324.429258 374.657933
L 324.429258 237.779264
L 339.84783 237.779264
L 339.84783 374.657933
z
" clip-path="url(#pdc3027b642)" style="fill: #ef9a9a"/>
    <path d="M 341.561005 374.657933
L 341.561005 280.233234
L 356.979577 280.233234
L 356.979577 374.657933
z
" clip-path="url(#pdc3027b642)" style="fill: #ef9a9a"/>
    <path d="M 358.692752 374.657933
L 358.692752 305.151595
L 374.111325 305.151595
L 374.111325 374.657933
z
" clip-path="url(#pdc3027b642)" style="fill: #ef9a9a"/>
    <path d="M 375.824499 374.657933
L 375.824499 319.019949
L 391.243072 319.019949
L 391.243072 374.657933
z
" clip-path="url(#pdc3027b642)" style="fill: #ef9a9a"/>
    <path d="M 392.956246 374.657933
L 392.956246 334.104437
L 408.374819 334.104437
L 408.374819 374.657933
z
" clip-path="url(#pdc3027b642)" style="fill: #ef9a9a"/>
    <path d="M 410.087994 374.657933
L 410.087994 338.496662
L 425.506566 338.496662
L 425.506566 374.657933
z
" clip-path="url(#pdc3027b642)" style="fill: #ef9a9a"/>
    <path d="M 427.219741 374.657933
L 427.219741 347.482379
L 442.638313 347.482379
L 442.638313 374.657933
z
" clip-path="url(#pdc3027b642)" style="fill: #ef9a9a"/>
    <path d="M 444.351488 374.657933
L 444.351488 351.251913
L 459.77006 351.251913
L 459.77006 374.657933
z
" clip-path="url(#pdc3027b642)" style="fill: #ef9a9a"/>
    <path d="M 461.483235 374.657933
L 461.483235 354.615103
L 476.901808 354.615103
L 476.901808 374.657933
z
" clip-path="url(#pdc3027b642)" style="fill: #ef9a9a"/>
    <path d="M 478.614982 374.657933
L 478.614982 358.113622
L 494.033555 358.113622
L 494.033555 374.657933
z
" clip-path="url(#pdc3027b642)" style="fill: #ef9a9a"/>
    <path d="M 495.746729 374.657933
L 495.746729 361.049173
L 511.165302 361.049173
L 511.165302 374.657933
z
" clip-path="url(#pdc3027b642)" style="fill: #b71c1c"/>
    <path d="M 512.878477 374.657933
L 512.878477 364.402437
L 528.297049 364.402437
L 528.297049 374.657933
z
" clip-path="url(#pdc3027b642)" style="fill: #b71c1c"/>
    <path d="M 530.010224 374.657933
L 530.010224 364.7263
L 545.428796 364.7263
L 545.428796 374.657933
z
" clip-path="url(#pdc3027b642)" style="fill: #b71c1c"/>
    <path d="M 547.141971 374.657933
L 547.141971 367.187148
L 562.560543 367.187148
L 562.560543 374.657933
z
" clip-path="url(#pdc3027b642)" style="fill: #b71c1c"/>
    <path d="M 564.273718 374.657933
L 564.273718 368.792118
L 579.69229 368.792118
L 579.69229 374.657933
z
" clip-path="url(#pdc3027b642)" style="fill: #b71c1c"/>
    <path d="M 581.405465 374.657933
L 581.405465 368.683702
L 596.824038 368.683702
L 596.824038 374.657933
z
" clip-path="url(#pdc3027b642)" style="fill: #b71c1c"/>
    <path d="M 598.537212 374.657933
L 598.537212 370.759973
L 613.955785 370.759973
L 613.955785 374.657933
z
" clip-path="url(#pdc3027b642)" style="fill: #b71c1c"/>
    <path d="M 615.66896 374.657933
L 615.66896 371.483785
L 631.087532 371.483785
L 631.087532 374.657933
z
" clip-path="url(#pdc3027b642)" style="fill: #b71c1c"/>
    <path d="M 632.800707 374.657933
L 632.800707 371.458122
L 648.219279 371.458122
L 648.219279 374.657933
z
" clip-path="url(#pdc3027b642)" style="fill: #b71c1c"/>
    <path d="M 649.932454 374.657933
L 649.932454 372.772908
L 665.351026 372.772908
L 665.351026 374.657933
z
" clip-path="url(#pdc3027b642)" style="fill: #b71c1c"/>
    <path d="M 667.064201 374.657933
L 667.064201 372.970045
L 682.482773 372.970045
L 682.482773 374.657933
z
" clip-path="url(#pdc3027b642)" style="fill: #b71c1c"/>
    <path d="M 684.195948 374.657933
L 684.195948 373.210904
L 699.614521 373.210904
L 699.614521 374.657933
z
" clip-path="url(#pdc3027b642)" style="fill: #b71c1c"/>
    <path d="M 701.327695 374.657933
L 701.327695 373.212608
L 716.746268 373.212608
L 716.746268 374.657933
z
" clip-path="url(#pdc3027b642)" style="fill: #b71c1c"/>
    <path d="M 718.459442 374.657933
L 718.459442 373.875873
L 733.878015 373.875873
L 733.878015 374.657933
z
" clip-path="url(#pdc3027b642)" style="fill: #b71c1c"/>
    <path d="M 735.59119 374.657933
L 735.59119 374.177601
L 751.009762 374.177601
L 751.009762 374.657933
z
" clip-path="url(#pdc3027b642)" style="fill: #b71c1c"/>
    <path d="M 752.722937 374.657933
L 752.722937 374.171871
L 768.141509 374.171871
L 768.141509 374.657933
z
" clip-path="url(#pdc3027b642)" style="fill: #b71c1c"/>
    <path d="M 769.854684 374.657933
L 769.854684 373.980541
L 785.273256 373.980541
L 785.273256 374.657933
z
" clip-path="url(#pdc3027b642)" style="fill: #b71c1c"/>
    <path d="M 786.986431 374.657933
L 786.986431 374.185034
L 802.405004 374.185034
L 802.405004 374.657933
z
" clip-path="url(#pdc3027b642)" style="fill: #b71c1c"/>
    <path d="M 804.118178 374.657933
L 804.118178 374.297239
L 819.536751 374.297239
L 819.536751 374.657933
z
" clip-path="url(#pdc3027b642)" style="fill: #b71c1c"/>
    <path d="M 821.249925 374.657933
L 821.249925 374.539999
L 836.668498 374.539999
L 836.668498 374.657933
z
" clip-path="url(#pdc3027b642)" style="fill: #b71c1c"/>
    <path d="M 838.381673 374.657933
L 838.381673 374.539999
L 853.800245 374.539999
L 853.800245 374.657933
z
" clip-path="url(#pdc3027b642)" style="fill: #b71c1c"/>
    <path d="M 855.51342 374.657933
L 855.51342 374.302968
L 870.931992 374.302968
L 870.931992 374.657933
z
" clip-path="url(#pdc3027b642)" style="fill: #b71c1c"/>
    <path d="M 872.645167 374.657933
L 872.645167 374.419199
L 888.063739 374.419199
L 888.063739 374.657933
z
" clip-path="url(#pdc3027b642)" style="fill: #b71c1c"/>
    <path d="M 889.776914 374.657933
L 889.776914 374.596101
L 905.195487 374.596101
L 905.195487 374.657933
z
" clip-path="url(#pdc3027b642)" style="fill: #b71c1c"/>
    <path d="M 924.040408 374.657933
L 924.040408 374.598966
L 939.458981 374.598966
L 939.458981 374.657933
z
" clip-path="url(#pdc3027b642)" style="fill: #b71c1c"/>
    <path d="M 941.172156 374.657933
L 941.172156 374.598966
L 956.590728 374.598966
L 956.590728 374.657933
z
" clip-path="url(#pdc3027b642)" style="fill: #b71c1c"/>
    <path d="M 958.303903 374.657933
L 958.303903 374.598966
L 973.722475 374.598966
L 973.722475 374.657933
z
" clip-path="url(#pdc3027b642)" style="fill: #b71c1c"/>
    <path d="M 975.43565 374.657933
L 975.43565 374.596101
L 990.854222 374.596101
L 990.854222 374.657933
z
" clip-path="url(#pdc3027b642)" style="fill: #b71c1c"/>
    <path d="M 1009.699144 374.657933
L 1009.699144 374.596101
L 1025.117717 374.596101
L 1025.117717 374.657933
z
" clip-path="url(#pdc3027b642)" style="fill: #b71c1c"/>
    <path d="M 1026.830891 374.657933
L 1026.830891 374.475302
L 1042.249464 374.475302
L 1042.249464 374.657933
z
" clip-path="url(#pdc3027b642)" style="fill: #b71c1c"/>
    <path d="M 1061.094386 374.657933
L 1061.094386 374.598966
L 1076.512958 374.598966
L 1076.512958 374.657933
z
" clip-path="url(#pdc3027b642)" style="fill: #b71c1c"/>
    <path d="M 1112.489627 374.657933
L 1112.489627 374.598966
L 1127.9082 374.598966
L 1127.9082 374.657933
z
" clip-path="url(#pdc3027b642)" style="fill: #b71c1c"/>
    <path d="M 1181.016616 374.657933
L 1181.016616 374.598966
L 1196.435188 374.598966
L 1196.435188 374.657933
z
" clip-path="url(#pdc3027b642)" style="fill: #b71c1c"/>
   </g>
   <g id="LineCollection_2">
    <path d="M 152.255199 382.487188
L 152.255199 210.243594
" clip-path="url(#pdc3027b642)" style="fill: none; stroke-dasharray: 0.886227,1.462274; stroke-dashoffset: 0; stroke: #808080; stroke-width: 0.886227"/>
    <path d="M 323.57267 382.487188
L 323.57267 210.243594
" clip-path="url(#pdc3027b642)" style="fill: none; stroke-dasharray: 0.886227,1.462274; stroke-dashoffset: 0; stroke: #808080; stroke-width: 0.886227"/>
    <path d="M 494.890142 382.487188
L 494.890142 210.243594
" clip-path="url(#pdc3027b642)" style="fill: none; stroke-dasharray: 0.886227,1.462274; stroke-dashoffset: 0; stroke: #808080; stroke-width: 0.886227"/>
   </g>
   <g id="text_15">
    <g clip-path="url(#pdc3027b642)">
     <text style="font-size: 9px; font-family: 'IBM Plex Sans'; fill: #1b5e20" transform="translate(98.914219 215.732707)">savings &gt; $1k</text>
    </g>
    <g clip-path="url(#pdc3027b642)">
     <text style="font-size: 9px; font-family: 'IBM Plex Sans'; fill: #1b5e20" transform="translate(115.761797 225.632989)">3.0%</text>
    </g>
   </g>
   <g id="text_16">
    <g clip-path="url(#pdc3027b642)">
     <text style="font-size: 9px; font-family: 'IBM Plex Sans'; fill: #81c784" transform="translate(209.536513 215.732707)">savings $0-1k</text>
    </g>
    <g clip-path="url(#pdc3027b642)">
     <text style="font-size: 9px; font-family: 'IBM Plex Sans'; fill: #81c784" transform="translate(224.418153 225.632989)">46.7%</text>
    </g>
   </g>
   <g id="text_17">
    <g clip-path="url(#pdc3027b642)">
     <text style="font-size: 9px; font-family: 'IBM Plex Sans'; fill: #b71c1c" transform="translate(580.870717 215.606848)">losses &gt; $1k</text>
    </g>
    <g clip-path="url(#pdc3027b642)">
     <text style="font-size: 9px; font-family: 'IBM Plex Sans'; fill: #b71c1c" transform="translate(595.450717 225.398848)">6.3%</text>
    </g>
   </g>
   <g id="text_18">
    <g clip-path="url(#pdc3027b642)">
     <text style="font-size: 9px; font-family: 'IBM Plex Sans'; fill: #ef9a9a" transform="translate(383.121562 215.606848)">losses $0-1k</text>
    </g>
    <g clip-path="url(#pdc3027b642)">
     <text style="font-size: 9px; font-family: 'IBM Plex Sans'; fill: #ef9a9a" transform="translate(395.735625 225.398848)">43.9%</text>
    </g>
   </g>
   <g id="patch_5">
    <path d="M 70.022813 382.487188
L 748.44 382.487188
" style="fill: none; stroke: #000000; stroke-width: 0.5; stroke-linejoin: miter; stroke-linecap: square"/>
   </g>
  </g>
  <g id="text_19">
   <text style="font-size: 13px; font-family: 'GT Planar'; text-anchor: start; fill: #333333" x="341.047422" y="422.1" transform="rotate(-0 341.047422 422.1)">Annual Bill Change ($)</text>
  </g>
  <g id="text_20">
   <text style="font-size: 13px; font-family: 'GT Planar'; fill: #333333" transform="translate(17.882812 270.605391) rotate(-90)"># of Homes (weighted)</text>
  </g>
  <g id="text_21">
   <text style="font-size: 13px; font-family: 'GT Planar'; text-anchor: middle; fill: #333333" x="121.63388" y="13.958" transform="rotate(-0 121.63388 13.958)">Default rate</text>
  </g>
  <g id="text_22">
   <text style="font-size: 13px; font-family: 'GT Planar'; text-anchor: middle; fill: #333333" x="135.887161" y="205.201594" transform="rotate(-0 135.887161 205.201594)">HP seasonal rate</text>
  </g>
 </g>
 <defs>
  <clipPath id="p80adb94b64">
   <rect x="70.022813" y="19" width="678.417187" height="172.243594"/>
  </clipPath>
  <clipPath id="pdc3027b642">
   <rect x="70.022813" y="210.243594" width="678.417187" height="172.243594"/>
  </clipPath>
 </defs>
</svg>
