<svg xmlns:xlink="http://www.w3.org/1999/xlink" xmlns="http://www.w3.org/2000/svg" width="755.28pt" height="429.955462pt" viewBox="0 0 755.28 429.955462" version="1.1">
 <metadata>
  <rdf:RDF xmlns:dc="http://purl.org/dc/elements/1.1/" xmlns:cc="http://creativecommons.org/ns#" xmlns:rdf="http://www.w3.org/1999/02/22-rdf-syntax-ns#">
   <cc:Work>
    <dc:type rdf:resource="http://purl.org/dc/dcmitype/StillImage"/>
    <dc:date>2026-04-14T05:05:13.996704</dc:date>
    <dc:format>image/svg+xml</dc:format>
    <dc:creator>
     <cc:Agent>
      <dc:title>Matplotlib v3.10.8, https://matplotlib.org/</dc:title>
     </cc:Agent>
    </dc:creator>
   </cc:Work>
  </rdf:RDF>
 </metadata>
 <defs>
  <style type="text/css">*{stroke-linejoin: round; stroke-linecap: butt}</style>
 </defs>
 <g id="figure_1">
  <g id="patch_1">
   <path d="M 0 429.955462  L 755.28 429.955462  L 755.28 0  L 0 0  z " style="fill: #ffffff"/>
  </g>
  <g id="axes_1">
   <g id="patch_2">
    <path d="M 52.237344 407.465462  L 748.08 407.465462  L 748.08 45.945462  L 52.237344 45.945462  z " style="fill: #ffffff"/>
   </g>
   <g id="matplotlib.axis_1">
    <g id="xtick_1">
     <g id="line2d_1">
      <path d="M 100.086664 407.465462  " style="fill: none; stroke: #000000; stroke-width: 1.5; stroke-linecap: square"/>
      <defs>
       <path id="mb3a72aaae9" d="M 0 0  L 0 2.75  " style="stroke: #000000"/>
      </defs>
      <g>
       <use xlink:href="#mb3a72aaae9" x="100.086664" y="407.465462" style="stroke: #000000"/>
      </g>
     </g>
     <g id="text_1">
      <text style="font-size: 11px; font-family: 'IBM Plex Sans'; text-anchor: middle; fill: #4d4d4d" x="100.086664" y="420.555462" transform="rotate(-0 100.086664 420.555462)">2024</text>
     </g>
    </g>
    <g id="xtick_2">
     <g id="line2d_2">
      <path d="M 132.526881 407.465462  " style="fill: none; stroke: #000000; stroke-width: 1.5; stroke-linecap: square"/>
      <g>
       <use xlink:href="#mb3a72aaae9" x="132.526881" y="407.465462" style="stroke: #000000"/>
      </g>
     </g>
     <g id="text_2">
      <text style="font-size: 11px; font-family: 'IBM Plex Sans'; text-anchor: middle; fill: #4d4d4d" x="132.526881" y="420.555462" transform="rotate(-0 132.526881 420.555462)">2025</text>
     </g>
    </g>
    <g id="xtick_3">
     <g id="line2d_3">
      <path d="M 164.967098 407.465462  " style="fill: none; stroke: #000000; stroke-width: 1.5; stroke-linecap: square"/>
      <g>
       <use xlink:href="#mb3a72aaae9" x="164.967098" y="407.465462" style="stroke: #000000"/>
      </g>
     </g>
     <g id="text_3">
      <text style="font-size: 11px; font-family: 'IBM Plex Sans'; text-anchor: middle; fill: #4d4d4d" x="164.967098" y="420.555462" transform="rotate(-0 164.967098 420.555462)">2026</text>
     </g>
    </g>
    <g id="xtick_4">
     <g id="line2d_4">
      <path d="M 197.407315 407.465462  " style="fill: none; stroke: #000000; stroke-width: 1.5; stroke-linecap: square"/>
      <g>
       <use xlink:href="#mb3a72aaae9" x="197.407315" y="407.465462" style="stroke: #000000"/>
      </g>
     </g>
     <g id="text_4">
      <text style="font-size: 11px; font-family: 'IBM Plex Sans'; text-anchor: middle; fill: #4d4d4d" x="197.407315" y="420.555462" transform="rotate(-0 197.407315 420.555462)">2027</text>
     </g>
    </g>
    <g id="xtick_5">
     <g id="line2d_5">
      <path d="M 229.847532 407.465462  " style="fill: none; stroke: #000000; stroke-width: 1.5; stroke-linecap: square"/>
      <g>
       <use xlink:href="#mb3a72aaae9" x="229.847532" y="407.465462" style="stroke: #000000"/>
      </g>
     </g>
     <g id="text_5">
      <text style="font-size: 11px; font-family: 'IBM Plex Sans'; text-anchor: middle; fill: #4d4d4d" x="229.847532" y="420.555462" transform="rotate(-0 229.847532 420.555462)">2028</text>
     </g>
    </g>
    <g id="xtick_6">
     <g id="line2d_6">
      <path d="M 262.287749 407.465462  " style="fill: none; stroke: #000000; stroke-width: 1.5; stroke-linecap: square"/>
      <g>
       <use xlink:href="#mb3a72aaae9" x="262.287749" y="407.465462" style="stroke: #000000"/>
      </g>
     </g>
     <g id="text_6">
      <text style="font-size: 11px; font-family: 'IBM Plex Sans'; text-anchor: middle; fill: #4d4d4d" x="262.287749" y="420.555462" transform="rotate(-0 262.287749 420.555462)">2029</text>
     </g>
    </g>
    <g id="xtick_7">
     <g id="line2d_7">
      <path d="M 294.727966 407.465462  " style="fill: none; stroke: #000000; stroke-width: 1.5; stroke-linecap: square"/>
      <g>
       <use xlink:href="#mb3a72aaae9" x="294.727966" y="407.465462" style="stroke: #000000"/>
      </g>
     </g>
     <g id="text_7">
      <text style="font-size: 11px; font-family: 'IBM Plex Sans'; text-anchor: middle; fill: #4d4d4d" x="294.727966" y="420.555462" transform="rotate(-0 294.727966 420.555462)">2030</text>
     </g>
    </g>
    <g id="xtick_8">
     <g id="line2d_8">
      <path d="M 327.168183 407.465462  " style="fill: none; stroke: #000000; stroke-width: 1.5; stroke-linecap: square"/>
      <g>
       <use xlink:href="#mb3a72aaae9" x="327.168183" y="407.465462" style="stroke: #000000"/>
      </g>
     </g>
     <g id="text_8">
      <text style="font-size: 11px; font-family: 'IBM Plex Sans'; text-anchor: middle; fill: #4d4d4d" x="327.168183" y="420.555462" transform="rotate(-0 327.168183 420.555462)">2031</text>
     </g>
    </g>
    <g id="xtick_9">
     <g id="line2d_9">
      <path d="M 359.608401 407.465462  " style="fill: none; stroke: #000000; stroke-width: 1.5; stroke-linecap: square"/>
      <g>
       <use xlink:href="#mb3a72aaae9" x="359.608401" y="407.465462" style="stroke: #000000"/>
      </g>
     </g>
     <g id="text_9">
      <text style="font-size: 11px; font-family: 'IBM Plex Sans'; text-anchor: middle; fill: #4d4d4d" x="359.608401" y="420.555462" transform="rotate(-0 359.608401 420.555462)">2032</text>
     </g>
    </g>
    <g id="xtick_10">
     <g id="line2d_10">
      <path d="M 392.048618 407.465462  " style="fill: none; stroke: #000000; stroke-width: 1.5; stroke-linecap: square"/>
      <g>
       <use xlink:href="#mb3a72aaae9" x="392.048618" y="407.465462" style="stroke: #000000"/>
      </g>
     </g>
     <g id="text_10">
      <text style="font-size: 11px; font-family: 'IBM Plex Sans'; text-anchor: middle; fill: #4d4d4d" x="392.048618" y="420.555462" transform="rotate(-0 392.048618 420.555462)">2033</text>
     </g>
    </g>
    <g id="xtick_11">
     <g id="line2d_11">
      <path d="M 424.488835 407.465462  " style="fill: none; stroke: #000000; stroke-width: 1.5; stroke-linecap: square"/>
      <g>
       <use xlink:href="#mb3a72aaae9" x="424.488835" y="407.465462" style="stroke: #000000"/>
      </g>
     </g>
     <g id="text_11">
      <text style="font-size: 11px; font-family: 'IBM Plex Sans'; text-anchor: middle; fill: #4d4d4d" x="424.488835" y="420.555462" transform="rotate(-0 424.488835 420.555462)">2034</text>
     </g>
    </g>
    <g id="xtick_12">
     <g id="line2d_12">
      <path d="M 456.929052 407.465462  " style="fill: none; stroke: #000000; stroke-width: 1.5; stroke-linecap: square"/>
      <g>
       <use xlink:href="#mb3a72aaae9" x="456.929052" y="407.465462" style="stroke: #000000"/>
      </g>
     </g>
     <g id="text_12">
      <text style="font-size: 11px; font-family: 'IBM Plex Sans'; text-anchor: middle; fill: #4d4d4d" x="456.929052" y="420.555462" transform="rotate(-0 456.929052 420.555462)">2035</text>
     </g>
    </g>
    <g id="xtick_13">
     <g id="line2d_13">
      <path d="M 489.369269 407.465462  " style="fill: none; stroke: #000000; stroke-width: 1.5; stroke-linecap: square"/>
      <g>
       <use xlink:href="#mb3a72aaae9" x="489.369269" y="407.465462" style="stroke: #000000"/>
      </g>
     </g>
     <g id="text_13">
      <text style="font-size: 11px; font-family: 'IBM Plex Sans'; text-anchor: middle; fill: #4d4d4d" x="489.369269" y="420.555462" transform="rotate(-0 489.369269 420.555462)">2036</text>
     </g>
    </g>
    <g id="xtick_14">
     <g id="line2d_14">
      <path d="M 521.809486 407.465462  " style="fill: none; stroke: #000000; stroke-width: 1.5; stroke-linecap: square"/>
      <g>
       <use xlink:href="#mb3a72aaae9" x="521.809486" y="407.465462" style="stroke: #000000"/>
      </g>
     </g>
     <g id="text_14">
      <text style="font-size: 11px; font-family: 'IBM Plex Sans'; text-anchor: middle; fill: #4d4d4d" x="521.809486" y="420.555462" transform="rotate(-0 521.809486 420.555462)">2037</text>
     </g>
    </g>
    <g id="xtick_15">
     <g id="line2d_15">
      <path d="M 554.249703 407.465462  " style="fill: none; stroke: #000000; stroke-width: 1.5; stroke-linecap: square"/>
      <g>
       <use xlink:href="#mb3a72aaae9" x="554.249703" y="407.465462" style="stroke: #000000"/>
      </g>
     </g>
     <g id="text_15">
      <text style="font-size: 11px; font-family: 'IBM Plex Sans'; text-anchor: middle; fill: #4d4d4d" x="554.249703" y="420.555462" transform="rotate(-0 554.249703 420.555462)">2038</text>
     </g>
    </g>
    <g id="xtick_16">
     <g id="line2d_16">
      <path d="M 586.68992 407.465462  " style="fill: none; stroke: #000000; stroke-width: 1.5; stroke-linecap: square"/>
      <g>
       <use xlink:href="#mb3a72aaae9" x="586.68992" y="407.465462" style="stroke: #000000"/>
      </g>
     </g>
     <g id="text_16">
      <text style="font-size: 11px; font-family: 'IBM Plex Sans'; text-anchor: middle; fill: #4d4d4d" x="586.68992" y="420.555462" transform="rotate(-0 586.68992 420.555462)">2039</text>
     </g>
    </g>
   </g>
   <g id="matplotlib.axis_2">
    <g id="ytick_1">
     <g id="line2d_17">
      <path d="M 52.237344 407.465462  L 748.08 407.465462  " clip-path="url(#p16a721469e)" style="fill: none; stroke: #e5e5e5; stroke-linecap: square"/>
     </g>
     <g id="text_17">
      <text style="font-size: 11px; font-family: 'IBM Plex Sans'; text-anchor: start; fill: #4d4d4d" x="33.24" y="411.535462" transform="rotate(-0 33.24 411.535462)">0%</text>
     </g>
    </g>
    <g id="ytick_2">
     <g id="line2d_18">
      <path d="M 52.237344 335.161462  L 748.08 335.161462  " clip-path="url(#p16a721469e)" style="fill: none; stroke: #e5e5e5; stroke-linecap: square"/>
     </g>
     <g id="text_18">
      <text style="font-size: 11px; font-family: 'IBM Plex Sans'; text-anchor: start; fill: #4d4d4d" x="33.24" y="339.231462" transform="rotate(-0 33.24 339.231462)">5%</text>
     </g>
    </g>
    <g id="ytick_3">
     <g id="line2d_19">
      <path d="M 52.237344 262.857462  L 748.08 262.857462  " clip-path="url(#p16a721469e)" style="fill: none; stroke: #e5e5e5; stroke-linecap: square"/>
     </g>
     <g id="text_19">
      <text style="font-size: 11px; font-family: 'IBM Plex Sans'; text-anchor: start; fill: #4d4d4d" x="26.64" y="266.927462" transform="rotate(-0 26.64 266.927462)">10%</text>
     </g>
    </g>
    <g id="ytick_4">
     <g id="line2d_20">
      <path d="M 52.237344 190.553462  L 748.08 190.553462  " clip-path="url(#p16a721469e)" style="fill: none; stroke: #e5e5e5; stroke-linecap: square"/>
     </g>
     <g id="text_20">
      <text style="font-size: 11px; font-family: 'IBM Plex Sans'; text-anchor: start; fill: #4d4d4d" x="26.64" y="194.623462" transform="rotate(-0 26.64 194.623462)">15%</text>
     </g>
    </g>
    <g id="ytick_5">
     <g id="line2d_21">
      <path d="M 52.237344 118.249462  L 748.08 118.249462  " clip-path="url(#p16a721469e)" style="fill: none; stroke: #e5e5e5; stroke-linecap: square"/>
     </g>
     <g id="text_21">
      <text style="font-size: 11px; font-family: 'IBM Plex Sans'; text-anchor: start; fill: #4d4d4d" x="26.64" y="122.319462" transform="rotate(-0 26.64 122.319462)">20%</text>
     </g>
    </g>
    <g id="ytick_6">
     <g id="line2d_22">
      <path d="M 52.237344 45.945462  L 748.08 45.945462  " clip-path="url(#p16a721469e)" style="fill: none; stroke: #e5e5e5; stroke-linecap: square"/>
     </g>
     <g id="text_22">
      <text style="font-size: 11px; font-family: 'IBM Plex Sans'; text-anchor: start; fill: #4d4d4d" x="26.64" y="50.015462" transform="rotate(-0 26.64 50.015462)">25%</text>
     </g>
    </g>
    <g id="ytick_7">
     <g id="line2d_23">
      <path d="M 52.237344 371.313462  L 748.08 371.313462  " clip-path="url(#p16a721469e)" style="fill: none; stroke: #fafafa; stroke-width: 0.5; stroke-linecap: square"/>
     </g>
    </g>
    <g id="ytick_8">
     <g id="line2d_24">
      <path d="M 52.237344 299.009462  L 748.08 299.009462  " clip-path="url(#p16a721469e)" style="fill: none; stroke: #fafafa; stroke-width: 0.5; stroke-linecap: square"/>
     </g>
    </g>
    <g id="ytick_9">
     <g id="line2d_25">
      <path d="M 52.237344 226.705462  L 748.08 226.705462  " clip-path="url(#p16a721469e)" style="fill: none; stroke: #fafafa; stroke-width: 0.5; stroke-linecap: square"/>
     </g>
    </g>
    <g id="ytick_10">
     <g id="line2d_26">
      <path d="M 52.237344 154.401462  L 748.08 154.401462  " clip-path="url(#p16a721469e)" style="fill: none; stroke: #fafafa; stroke-width: 0.5; stroke-linecap: square"/>
     </g>
    </g>
    <g id="ytick_11">
     <g id="line2d_27">
      <path d="M 52.237344 82.097462  L 748.08 82.097462  " clip-path="url(#p16a721469e)" style="fill: none; stroke: #fafafa; stroke-width: 0.5; stroke-linecap: square"/>
     </g>
    </g>
   </g>
   <g id="line2d_28">
    <path d="M 100.086664 369.886303  L 132.526881 360.207988  L 164.967098 350.113194  L 197.407315 338.000083  L 229.847532 323.461786  L 262.287749 306.017751  L 294.727966 285.088114  L 327.168183 265.199672  L 359.608401 246.307575  L 392.048618 228.360563  L 424.488835 211.313785  L 456.929052 195.115982  L 489.369269 179.72871  L 521.809486 165.110321  L 554.249703 151.222371  L 586.68992 138.02962  " clip-path="url(#p16a721469e)" style="fill: none; stroke: #2d6a2e; stroke-width: 1.772454"/>
   </g>
   <g id="line2d_29">
    <path d="M 100.086664 363.872997  L 132.526881 352.647305  L 164.967098 340.937857  L 197.407315 326.883315  L 229.847532 310.022351  L 262.287749 289.787912  L 294.727966 265.507226  L 327.168183 242.437531  L 359.608401 220.524364  L 392.048618 199.706855  L 424.488835 179.927339  L 456.929052 161.137759  L 489.369269 143.290061  L 521.809486 126.332986  L 554.249703 110.224886  L 586.68992 94.92091  " clip-path="url(#p16a721469e)" style="fill: none; stroke: #a0af12; stroke-width: 1.772454"/>
   </g>
   <g id="PathCollection_1">
    <path d="M 100.086664 372.101871  C 100.674239 372.101871 101.237828 371.868425 101.653307 371.452946  C 102.068785 371.037468 102.302231 370.473879 102.302231 369.886303  C 102.302231 369.298728 102.068785 368.735139 101.653307 368.319661  C 101.237828 367.904182 100.674239 367.670736 100.086664 367.670736  C 99.499089 367.670736 98.9355 367.904182 98.520021 368.319661  C 98.104543 368.735139 97.871097 369.298728 97.871097 369.886303  C 97.871097 370.473879 98.104543 371.037468 98.520021 371.452946  C 98.9355 371.868425 99.499089 372.101871 100.086664 372.101871  z " clip-path="url(#p16a721469e)" style="fill: #2d6a2e; stroke: #2d6a2e; stroke-width: 0.886227"/>
    <path d="M 100.086664 366.088565  C 100.674239 366.088565 101.237828 365.855118 101.653307 365.43964  C 102.068785 365.024161 102.302231 364.460573 102.302231 363.872997  C 102.302231 363.285422 102.068785 362.721833 101.653307 362.306355  C 101.237828 361.890876 100.674239 361.65743 100.086664 361.65743  C 99.499089 361.65743 98.9355 361.890876 98.520021 362.306355  C 98.104543 362.721833 97.871097 363.285422 97.871097 363.872997  C 97.871097 364.460573 98.104543 365.024161 98.520021 365.43964  C 98.9355 365.855118 99.499089 366.088565 100.086664 366.088565  z " clip-path="url(#p16a721469e)" style="fill: #a0af12; stroke: #a0af12; stroke-width: 0.886227"/>
    <path d="M 132.526881 362.423555  C 133.114456 362.423555 133.678045 362.190109 134.093524 361.774631  C 134.509002 361.359152 134.742448 360.795563 134.742448 360.207988  C 134.742448 359.620413 134.509002 359.056824 134.093524 358.641345  C 133.678045 358.225867 133.114456 357.992421 132.526881 357.992421  C 131.939306 357.992421 131.375717 358.225867 130.960238 358.641345  C 130.54476 359.056824 130.311314 359.620413 130.311314 360.207988  C 130.311314 360.795563 130.54476 361.359152 130.960238 361.774631  C 131.375717 362.190109 131.939306 362.423555 132.526881 362.423555  z " clip-path="url(#p16a721469e)" style="fill: #2d6a2e; stroke: #2d6a2e; stroke-width: 0.886227"/>
    <path d="M 132.526881 354.862872  C 133.114456 354.862872 133.678045 354.629426 134.093524 354.213947  C 134.509002 353.798469 134.742448 353.23488 134.742448 352.647305  C 134.742448 352.059729 134.509002 351.496141 134.093524 351.080662  C 133.678045 350.665184 133.114456 350.431737 132.526881 350.431737  C 131.939306 350.431737 131.375717 350.665184 130.960238 351.080662  C 130.54476 351.496141 130.311314 352.059729 130.311314 352.647305  C 130.311314 353.23488 130.54476 353.798469 130.960238 354.213947  C 131.375717 354.629426 131.939306 354.862872 132.526881 354.862872  z " clip-path="url(#p16a721469e)" style="fill: #a0af12; stroke: #a0af12; stroke-width: 0.886227"/>
    <path d="M 164.967098 352.328762  C 165.554673 352.328762 166.118262 352.095315 166.533741 351.679837  C 166.949219 351.264359 167.182665 350.70077 167.182665 350.113194  C 167.182665 349.525619 166.949219 348.96203 166.533741 348.546552  C 166.118262 348.131073 165.554673 347.897627 164.967098 347.897627  C 164.379523 347.897627 163.815934 348.131073 163.400455 348.546552  C 162.984977 348.96203 162.751531 349.525619 162.751531 350.113194  C 162.751531 350.70077 162.984977 351.264359 163.400455 351.679837  C 163.815934 352.095315 164.379523 352.328762 164.967098 352.328762  z " clip-path="url(#p16a721469e)" style="fill: #2d6a2e; stroke: #2d6a2e; stroke-width: 0.886227"/>
    <path d="M 164.967098 343.153424  C 165.554673 343.153424 166.118262 342.919978 166.533741 342.504499  C 166.949219 342.089021 167.182665 341.525432 167.182665 340.937857  C 167.182665 340.350281 166.949219 339.786692 166.533741 339.371214  C 166.118262 338.955735 165.554673 338.722289 164.967098 338.722289  C 164.379523 338.722289 163.815934 338.955735 163.400455 339.371214  C 162.984977 339.786692 162.751531 340.350281 162.751531 340.937857  C 162.751531 341.525432 162.984977 342.089021 163.400455 342.504499  C 163.815934 342.919978 164.379523 343.153424 164.967098 343.153424  z " clip-path="url(#p16a721469e)" style="fill: #a0af12; stroke: #a0af12; stroke-width: 0.886227"/>
    <path d="M 197.407315 340.21565  C 197.99489 340.21565 198.558479 339.982204 198.973958 339.566725  C 199.389436 339.151247 199.622882 338.587658 199.622882 338.000083  C 199.622882 337.412507 199.389436 336.848918 198.973958 336.43344  C 198.558479 336.017961 197.99489 335.784515 197.407315 335.784515  C 196.81974 335.784515 196.256151 336.017961 195.840672 336.43344  C 195.425194 336.848918 195.191748 337.412507 195.191748 338.000083  C 195.191748 338.587658 195.425194 339.151247 195.840672 339.566725  C 196.256151 339.982204 196.81974 340.21565 197.407315 340.21565  z " clip-path="url(#p16a721469e)" style="fill: #2d6a2e; stroke: #2d6a2e; stroke-width: 0.886227"/>
    <path d="M 197.407315 329.098882  C 197.99489 329.098882 198.558479 328.865436 198.973958 328.449958  C 199.389436 328.034479 199.622882 327.47089 199.622882 326.883315  C 199.622882 326.29574 199.389436 325.732151 198.973958 325.316673  C 198.558479 324.901194 197.99489 324.667748 197.407315 324.667748  C 196.81974 324.667748 196.256151 324.901194 195.840672 325.316673  C 195.425194 325.732151 195.191748 326.29574 195.191748 326.883315  C 195.191748 327.47089 195.425194 328.034479 195.840672 328.449958  C 196.256151 328.865436 196.81974 329.098882 197.407315 329.098882  z " clip-path="url(#p16a721469e)" style="fill: #a0af12; stroke: #a0af12; stroke-width: 0.886227"/>
    <path d="M 229.847532 325.677353  C 230.435108 325.677353 230.998696 325.443907 231.414175 325.028428  C 231.829653 324.61295 232.0631 324.049361 232.0631 323.461786  C 232.0631 322.87421 231.829653 322.310621 231.414175 321.895143  C 230.998696 321.479664 230.435108 321.246218 229.847532 321.246218  C 229.259957 321.246218 228.696368 321.479664 228.28089 321.895143  C 227.865411 322.310621 227.631965 322.87421 227.631965 323.461786  C 227.631965 324.049361 227.865411 324.61295 228.28089 325.028428  C 228.696368 325.443907 229.259957 325.677353 229.847532 325.677353  z " clip-path="url(#p16a721469e)" style="fill: #2d6a2e; stroke: #2d6a2e; stroke-width: 0.886227"/>
    <path d="M 229.847532 312.237918  C 230.435108 312.237918 230.998696 312.004472 231.414175 311.588993  C 231.829653 311.173515 232.0631 310.609926 232.0631 310.022351  C 232.0631 309.434775 231.829653 308.871186 231.414175 308.455708  C 230.998696 308.040229 230.435108 307.806783 229.847532 307.806783  C 229.259957 307.806783 228.696368 308.040229 228.28089 308.455708  C 227.865411 308.871186 227.631965 309.434775 227.631965 310.022351  C 227.631965 310.609926 227.865411 311.173515 228.28089 311.588993  C 228.696368 312.004472 229.259957 312.237918 229.847532 312.237918  z " clip-path="url(#p16a721469e)" style="fill: #a0af12; stroke: #a0af12; stroke-width: 0.886227"/>
    <path d="M 262.287749 308.233319  C 262.875325 308.233319 263.438913 307.999873 263.854392 307.584394  C 264.26987 307.168916 264.503317 306.605327 264.503317 306.017751  C 264.503317 305.430176 264.26987 304.866587 263.854392 304.451109  C 263.438913 304.03563 262.875325 303.802184 262.287749 303.802184  C 261.700174 303.802184 261.136585 304.03563 260.721107 304.451109  C 260.305628 304.866587 260.072182 305.430176 260.072182 306.017751  C 260.072182 306.605327 260.305628 307.168916 260.721107 307.584394  C 261.136585 307.999873 261.700174 308.233319 262.287749 308.233319  z " clip-path="url(#p16a721469e)" style="fill: #2d6a2e; stroke: #2d6a2e; stroke-width: 0.886227"/>
    <path d="M 262.287749 292.003479  C 262.875325 292.003479 263.438913 291.770033 263.854392 291.354554  C 264.26987 290.939076 264.503317 290.375487 264.503317 289.787912  C 264.503317 289.200336 264.26987 288.636748 263.854392 288.221269  C 263.438913 287.805791 262.875325 287.572344 262.287749 287.572344  C 261.700174 287.572344 261.136585 287.805791 260.721107 288.221269  C 260.305628 288.636748 260.072182 289.200336 260.072182 289.787912  C 260.072182 290.375487 260.305628 290.939076 260.721107 291.354554  C 261.136585 291.770033 261.700174 292.003479 262.287749 292.003479  z " clip-path="url(#p16a721469e)" style="fill: #a0af12; stroke: #a0af12; stroke-width: 0.886227"/>
    <path d="M 294.727966 287.303681  C 295.315542 287.303681 295.879131 287.070235 296.294609 286.654757  C 296.710088 286.239278 296.943534 285.675689 296.943534 285.088114  C 296.943534 284.500539 296.710088 283.93695 296.294609 283.521471  C 295.879131 283.105993 295.315542 282.872547 294.727966 282.872547  C 294.140391 282.872547 293.576802 283.105993 293.161324 283.521471  C 292.745845 283.93695 292.512399 284.500539 292.512399 285.088114  C 292.512399 285.675689 292.745845 286.239278 293.161324 286.654757  C 293.576802 287.070235 294.140391 287.303681 294.727966 287.303681  z " clip-path="url(#p16a721469e)" style="fill: #2d6a2e; stroke: #2d6a2e; stroke-width: 0.886227"/>
    <path d="M 294.727966 267.722793  C 295.315542 267.722793 295.879131 267.489347 296.294609 267.073868  C 296.710088 266.65839 296.943534 266.094801 296.943534 265.507226  C 296.943534 264.91965 296.710088 264.356062 296.294609 263.940583  C 295.879131 263.525105 295.315542 263.291658 294.727966 263.291658  C 294.140391 263.291658 293.576802 263.525105 293.161324 263.940583  C 292.745845 264.356062 292.512399 264.91965 292.512399 265.507226  C 292.512399 266.094801 292.745845 266.65839 293.161324 267.073868  C 293.576802 267.489347 294.140391 267.722793 294.727966 267.722793  z " clip-path="url(#p16a721469e)" style="fill: #a0af12; stroke: #a0af12; stroke-width: 0.886227"/>
    <path d="M 327.168183 267.41524  C 327.755759 267.41524 328.319348 267.181794 328.734826 266.766315  C 329.150305 266.350837 329.383751 265.787248 329.383751 265.199672  C 329.383751 264.612097 329.150305 264.048508 328.734826 263.63303  C 328.319348 263.217551 327.755759 262.984105 327.168183 262.984105  C 326.580608 262.984105 326.017019 263.217551 325.601541 263.63303  C 325.186062 264.048508 324.952616 264.612097 324.952616 265.199672  C 324.952616 265.787248 325.186062 266.350837 325.601541 266.766315  C 326.017019 267.181794 326.580608 267.41524 327.168183 267.41524  z " clip-path="url(#p16a721469e)" style="fill: #2d6a2e; stroke: #2d6a2e; stroke-width: 0.886227"/>
    <path d="M 327.168183 244.653098  C 327.755759 244.653098 328.319348 244.419652 328.734826 244.004173  C 329.150305 243.588695 329.383751 243.025106 329.383751 242.437531  C 329.383751 241.849955 329.150305 241.286366 328.734826 240.870888  C 328.319348 240.455409 327.755759 240.221963 327.168183 240.221963  C 326.580608 240.221963 326.017019 240.455409 325.601541 240.870888  C 325.186062 241.286366 324.952616 241.849955 324.952616 242.437531  C 324.952616 243.025106 325.186062 243.588695 325.601541 244.004173  C 326.017019 244.419652 326.580608 244.653098 327.168183 244.653098  z " clip-path="url(#p16a721469e)" style="fill: #a0af12; stroke: #a0af12; stroke-width: 0.886227"/>
    <path d="M 359.608401 248.523143  C 360.195976 248.523143 360.759565 248.289696 361.175043 247.874218  C 361.590522 247.458739 361.823968 246.895151 361.823968 246.307575  C 361.823968 245.72 361.590522 245.156411 361.175043 244.740933  C 360.759565 244.325454 360.195976 244.092008 359.608401 244.092008  C 359.020825 244.092008 358.457236 244.325454 358.041758 244.740933  C 357.626279 245.156411 357.392833 245.72 357.392833 246.307575  C 357.392833 246.895151 357.626279 247.458739 358.041758 247.874218  C 358.457236 248.289696 359.020825 248.523143 359.608401 248.523143  z " clip-path="url(#p16a721469e)" style="fill: #2d6a2e; stroke: #2d6a2e; stroke-width: 0.886227"/>
    <path d="M 359.608401 222.739931  C 360.195976 222.739931 360.759565 222.506485 361.175043 222.091006  C 361.590522 221.675528 361.823968 221.111939 361.823968 220.524364  C 361.823968 219.936788 361.590522 219.373199 361.175043 218.957721  C 360.759565 218.542242 360.195976 218.308796 359.608401 218.308796  C 359.020825 218.308796 358.457236 218.542242 358.041758 218.957721  C 357.626279 219.373199 357.392833 219.936788 357.392833 220.524364  C 357.392833 221.111939 357.626279 221.675528 358.041758 222.091006  C 358.457236 222.506485 359.020825 222.739931 359.608401 222.739931  z " clip-path="url(#p16a721469e)" style="fill: #a0af12; stroke: #a0af12; stroke-width: 0.886227"/>
    <path d="M 392.048618 230.576131  C 392.636193 230.576131 393.199782 230.342685 393.61526 229.927206  C 394.030739 229.511728 394.264185 228.948139 394.264185 228.360563  C 394.264185 227.772988 394.030739 227.209399 393.61526 226.793921  C 393.199782 226.378442 392.636193 226.144996 392.048618 226.144996  C 391.461042 226.144996 390.897453 226.378442 390.481975 226.793921  C 390.066496 227.209399 389.83305 227.772988 389.83305 228.360563  C 389.83305 228.948139 390.066496 229.511728 390.481975 229.927206  C 390.897453 230.342685 391.461042 230.576131 392.048618 230.576131  z " clip-path="url(#p16a721469e)" style="fill: #2d6a2e; stroke: #2d6a2e; stroke-width: 0.886227"/>
    <path d="M 392.048618 201.922422  C 392.636193 201.922422 393.199782 201.688976 393.61526 201.273498  C 394.030739 200.858019 394.264185 200.29443 394.264185 199.706855  C 394.264185 199.11928 394.030739 198.555691 393.61526 198.140212  C 393.199782 197.724734 392.636193 197.491288 392.048618 197.491288  C 391.461042 197.491288 390.897453 197.724734 390.481975 198.140212  C 390.066496 198.555691 389.83305 199.11928 389.83305 199.706855  C 389.83305 200.29443 390.066496 200.858019 390.481975 201.273498  C 390.897453 201.688976 391.461042 201.922422 392.048618 201.922422  z " clip-path="url(#p16a721469e)" style="fill: #a0af12; stroke: #a0af12; stroke-width: 0.886227"/>
    <path d="M 424.488835 213.529353  C 425.07641 213.529353 425.639999 213.295907 426.055477 212.880428  C 426.470956 212.46495 426.704402 211.901361 426.704402 211.313785  C 426.704402 210.72621 426.470956 210.162621 426.055477 209.747143  C 425.639999 209.331664 425.07641 209.098218 424.488835 209.098218  C 423.901259 209.098218 423.337671 209.331664 422.922192 209.747143  C 422.506714 210.162621 422.273267 210.72621 422.273267 211.313785  C 422.273267 211.901361 422.506714 212.46495 422.922192 212.880428  C 423.337671 213.295907 423.901259 213.529353 424.488835 213.529353  z " clip-path="url(#p16a721469e)" style="fill: #2d6a2e; stroke: #2d6a2e; stroke-width: 0.886227"/>
    <path d="M 424.488835 182.142906  C 425.07641 182.142906 425.639999 181.90946 426.055477 181.493981  C 426.470956 181.078503 426.704402 180.514914 426.704402 179.927339  C 426.704402 179.339763 426.470956 178.776174 426.055477 178.360696  C 425.639999 177.945217 425.07641 177.711771 424.488835 177.711771  C 423.901259 177.711771 423.337671 177.945217 422.922192 178.360696  C 422.506714 178.776174 422.273267 179.339763 422.273267 179.927339  C 422.273267 180.514914 422.506714 181.078503 422.922192 181.493981  C 423.337671 181.90946 423.901259 182.142906 424.488835 182.142906  z " clip-path="url(#p16a721469e)" style="fill: #a0af12; stroke: #a0af12; stroke-width: 0.886227"/>
    <path d="M 456.929052 197.33155  C 457.516627 197.33155 458.080216 197.098104 458.495694 196.682625  C 458.911173 196.267147 459.144619 195.703558 459.144619 195.115982  C 459.144619 194.528407 458.911173 193.964818 458.495694 193.54934  C 458.080216 193.133861 457.516627 192.900415 456.929052 192.900415  C 456.341476 192.900415 455.777888 193.133861 455.362409 193.54934  C 454.946931 193.964818 454.713484 194.528407 454.713484 195.115982  C 454.713484 195.703558 454.946931 196.267147 455.362409 196.682625  C 455.777888 197.098104 456.341476 197.33155 456.929052 197.33155  z " clip-path="url(#p16a721469e)" style="fill: #2d6a2e; stroke: #2d6a2e; stroke-width: 0.886227"/>
    <path d="M 456.929052 163.353326  C 457.516627 163.353326 458.080216 163.11988 458.495694 162.704402  C 458.911173 162.288923 459.144619 161.725334 459.144619 161.137759  C 459.144619 160.550184 458.911173 159.986595 458.495694 159.571116  C 458.080216 159.155638 457.516627 158.922192 456.929052 158.922192  C 456.341476 158.922192 455.777888 159.155638 455.362409 159.571116  C 454.946931 159.986595 454.713484 160.550184 454.713484 161.137759  C 454.713484 161.725334 454.946931 162.288923 455.362409 162.704402  C 455.777888 163.11988 456.341476 163.353326 456.929052 163.353326  z " clip-path="url(#p16a721469e)" style="fill: #a0af12; stroke: #a0af12; stroke-width: 0.886227"/>
    <path d="M 489.369269 181.944278  C 489.956844 181.944278 490.520433 181.710832 490.935912 181.295353  C 491.35139 180.879875 491.584836 180.316286 491.584836 179.72871  C 491.584836 179.141135 491.35139 178.577546 490.935912 178.162068  C 490.520433 177.746589 489.956844 177.513143 489.369269 177.513143  C 488.781694 177.513143 488.218105 177.746589 487.802626 178.162068  C 487.387148 178.577546 487.153702 179.141135 487.153702 179.72871  C 487.153702 180.316286 487.387148 180.879875 487.802626 181.295353  C 488.218105 181.710832 488.781694 181.944278 489.369269 181.944278  z " clip-path="url(#p16a721469e)" style="fill: #2d6a2e; stroke: #2d6a2e; stroke-width: 0.886227"/>
    <path d="M 489.369269 145.505629  C 489.956844 145.505629 490.520433 145.272182 490.935912 144.856704  C 491.35139 144.441225 491.584836 143.877637 491.584836 143.290061  C 491.584836 142.702486 491.35139 142.138897 490.935912 141.723419  C 490.520433 141.30794 489.956844 141.074494 489.369269 141.074494  C 488.781694 141.074494 488.218105 141.30794 487.802626 141.723419  C 487.387148 142.138897 487.153702 142.702486 487.153702 143.290061  C 487.153702 143.877637 487.387148 144.441225 487.802626 144.856704  C 488.218105 145.272182 488.781694 145.505629 489.369269 145.505629  z " clip-path="url(#p16a721469e)" style="fill: #a0af12; stroke: #a0af12; stroke-width: 0.886227"/>
    <path d="M 521.809486 167.325889  C 522.397061 167.325889 522.96065 167.092443 523.376129 166.676964  C 523.791607 166.261486 524.025053 165.697897 524.025053 165.110321  C 524.025053 164.522746 523.791607 163.959157 523.376129 163.543679  C 522.96065 163.1282 522.397061 162.894754 521.809486 162.894754  C 521.221911 162.894754 520.658322 163.1282 520.242843 163.543679  C 519.827365 163.959157 519.593919 164.522746 519.593919 165.110321  C 519.593919 165.697897 519.827365 166.261486 520.242843 166.676964  C 520.658322 167.092443 521.221911 167.325889 521.809486 167.325889  z " clip-path="url(#p16a721469e)" style="fill: #2d6a2e; stroke: #2d6a2e; stroke-width: 0.886227"/>
    <path d="M 521.809486 128.548554  C 522.397061 128.548554 522.96065 128.315107 523.376129 127.899629  C 523.791607 127.48415 524.025053 126.920562 524.025053 126.332986  C 524.025053 125.745411 523.791607 125.181822 523.376129 124.766344  C 522.96065 124.350865 522.397061 124.117419 521.809486 124.117419  C 521.221911 124.117419 520.658322 124.350865 520.242843 124.766344  C 519.827365 125.181822 519.593919 125.745411 519.593919 126.332986  C 519.593919 126.920562 519.827365 127.48415 520.242843 127.899629  C 520.658322 128.315107 521.221911 128.548554 521.809486 128.548554  z " clip-path="url(#p16a721469e)" style="fill: #a0af12; stroke: #a0af12; stroke-width: 0.886227"/>
    <path d="M 554.249703 153.437939  C 554.837278 153.437939 555.400867 153.204493 555.816346 152.789014  C 556.231824 152.373536 556.46527 151.809947 556.46527 151.222371  C 556.46527 150.634796 556.231824 150.071207 555.816346 149.655729  C 555.400867 149.24025 554.837278 149.006804 554.249703 149.006804  C 553.662128 149.006804 553.098539 149.24025 552.68306 149.655729  C 552.267582 150.071207 552.034136 150.634796 552.034136 151.222371  C 552.034136 151.809947 552.267582 152.373536 552.68306 152.789014  C 553.098539 153.204493 553.662128 153.437939 554.249703 153.437939  z " clip-path="url(#p16a721469e)" style="fill: #2d6a2e; stroke: #2d6a2e; stroke-width: 0.886227"/>
    <path d="M 554.249703 112.440454  C 554.837278 112.440454 555.400867 112.207008 555.816346 111.791529  C 556.231824 111.376051 556.46527 110.812462 556.46527 110.224886  C 556.46527 109.637311 556.231824 109.073722 555.816346 108.658244  C 555.400867 108.242765 554.837278 108.009319 554.249703 108.009319  C 553.662128 108.009319 553.098539 108.242765 552.68306 108.658244  C 552.267582 109.073722 552.034136 109.637311 552.034136 110.224886  C 552.034136 110.812462 552.267582 111.376051 552.68306 111.791529  C 553.098539 112.207008 553.662128 112.440454 554.249703 112.440454  z " clip-path="url(#p16a721469e)" style="fill: #a0af12; stroke: #a0af12; stroke-width: 0.886227"/>
    <path d="M 586.68992 140.245187  C 587.277495 140.245187 587.841084 140.011741 588.256563 139.596262  C 588.672041 139.180784 588.905487 138.617195 588.905487 138.02962  C 588.905487 137.442044 588.672041 136.878456 588.256563 136.462977  C 587.841084 136.047499 587.277495 135.814052 586.68992 135.814052  C 586.102345 135.814052 585.538756 136.047499 585.123277 136.462977  C 584.707799 136.878456 584.474353 137.442044 584.474353 138.02962  C 584.474353 138.617195 584.707799 139.180784 585.123277 139.596262  C 585.538756 140.011741 586.102345 140.245187 586.68992 140.245187  z " clip-path="url(#p16a721469e)" style="fill: #2d6a2e; stroke: #2d6a2e; stroke-width: 0.886227"/>
    <path d="M 586.68992 97.136477  C 587.277495 97.136477 587.841084 96.903031 588.256563 96.487553  C 588.672041 96.072074 588.905487 95.508485 588.905487 94.92091  C 588.905487 94.333335 588.672041 93.769746 588.256563 93.354267  C 587.841084 92.938789 587.277495 92.705343 586.68992 92.705343  C 586.102345 92.705343 585.538756 92.938789 585.123277 93.354267  C 584.707799 93.769746 584.474353 94.333335 584.474353 94.92091  C 584.474353 95.508485 584.707799 96.072074 585.123277 96.487553  C 585.538756 96.903031 586.102345 97.136477 586.68992 97.136477  z " clip-path="url(#p16a721469e)" style="fill: #a0af12; stroke: #a0af12; stroke-width: 0.886227"/>
   </g>
   <g id="patch_3">
    <path d="M 591.555953 723447.465462  L 786.197255 723447.465462  L 786.197255 -4337832.534537  L 591.555953 -4337832.534537  z " clip-path="url(#p16a721469e)" style="fill: #ffffff"/>
   </g>
   <g id="text_23">
    <g clip-path="url(#p16a721469e)">
     <text style="font-size: 9px; font-family: 'IBM Plex Sans'; text-anchor: middle; fill: #2d6a2e" x="100.086664" y="388.114943" transform="rotate(-0 100.086664 388.114943)">11.7k</text>
    </g>
   </g>
   <g id="text_24">
    <g clip-path="url(#p16a721469e)">
     <text style="font-size: 9px; font-family: 'IBM Plex Sans'; text-anchor: middle; fill: #2d6a2e" x="359.608401" y="264.536215" transform="rotate(-0 359.608401 264.536215)">50.3k</text>
    </g>
   </g>
   <g id="text_25">
    <g clip-path="url(#p16a721469e)">
     <text style="font-size: 9px; font-family: 'IBM Plex Sans'; text-anchor: middle; fill: #2d6a2e" x="586.68992" y="156.25826" transform="rotate(-0 586.68992 156.25826)">84.1k</text>
    </g>
   </g>
   <g id="text_26">
    <text style="font-weight: 700; font-size: 15px; font-family: 'GT Planar'; text-anchor: start" x="52.237344" y="17.939062" transform="rotate(-0 52.237344 17.939062)">RIE forecasts 20% of customers will </text>
   </g>
   <g id="text_27">
    <text style="font-weight: 700; font-size: 15px; font-family: 'GT Planar'; text-anchor: start; fill: #2d6a2e" x="313.462648" y="17.939062" transform="rotate(-0 313.462648 17.939062)">adopt heat pumps </text>
   </g>
   <g id="text_28">
    <text style="font-weight: 700; font-size: 15px; font-family: 'GT Planar'; text-anchor: start" x="446.233411" y="17.939062" transform="rotate(-0 446.233411 17.939062)"> by 2039</text>
   </g>
   <g id="text_29">
    <g clip-path="url(#p16a721469e)">
     <text style="font-size: 9px; font-family: 'IBM Plex Sans'; text-anchor: middle; fill: #a0af12" x="100.086664" y="350.504357" transform="rotate(-0 100.086664 350.504357)">13.6k</text>
    </g>
   </g>
   <g id="text_30">
    <g clip-path="url(#p16a721469e)">
     <text style="font-size: 9px; font-family: 'IBM Plex Sans'; text-anchor: middle; fill: #a0af12" x="359.608401" y="207.155724" transform="rotate(-0 359.608401 207.155724)">58.4k</text>
    </g>
   </g>
   <g id="text_31">
    <g clip-path="url(#p16a721469e)">
     <text style="font-size: 9px; font-family: 'IBM Plex Sans'; text-anchor: middle; fill: #a0af12" x="586.68992" y="81.55227" transform="rotate(-0 586.68992 81.55227)">97.6k</text>
    </g>
   </g>
   <g id="text_32">
    <g clip-path="url(#p16a721469e)">
     <text style="font-weight: 700; font-size: 10px; font-family: 'IBM Plex Sans'; text-anchor: start; fill: #2d6a2e" x="599.666007" y="140.72962" transform="rotate(-0 599.666007 140.72962)">Base</text>
    </g>
   </g>
   <g id="text_33">
    <g clip-path="url(#p16a721469e)">
     <text style="font-weight: 700; font-size: 10px; font-family: 'IBM Plex Sans'; text-anchor: start; fill: #a0af12" x="599.666007" y="97.606066" transform="rotate(-0 599.666007 97.606066)">High</text>
    </g>
   </g>
   <g id="patch_4">
    <path d="M 52.237344 407.465462  L 586.68992 407.465462  " style="fill: none; stroke: #000000; stroke-width: 0.5; stroke-linejoin: miter; stroke-linecap: square"/>
   </g>
  </g>
  <g id="text_34">
   <text style="font-size: 13px; font-family: 'GT Planar'; fill: #333333" transform="translate(16.3 318.404212) rotate(-90)">Share of residential customers</text>
  </g>
 </g>
 <defs>
  <clipPath id="p16a721469e">
   <rect x="52.237344" y="45.945462" width="695.842656" height="361.52"/>
  </clipPath>
 </defs>
</svg>
