<svg xmlns:xlink="http://www.w3.org/1999/xlink" xmlns="http://www.w3.org/2000/svg" width="819.495pt" height="277.056pt" viewBox="0 0 819.495 277.056" version="1.1">
 <metadata>
  <rdf:RDF xmlns:dc="http://purl.org/dc/elements/1.1/" xmlns:cc="http://creativecommons.org/ns#" xmlns:rdf="http://www.w3.org/1999/02/22-rdf-syntax-ns#">
   <cc:Work>
    <dc:type rdf:resource="http://purl.org/dc/dcmitype/StillImage"/>
    <dc:date>2026-04-14T05:04:51.820730</dc:date>
    <dc:format>image/svg+xml</dc:format>
    <dc:creator>
     <cc:Agent>
      <dc:title>Matplotlib v3.10.8, https://matplotlib.org/</dc:title>
     </cc:Agent>
    </dc:creator>
   </cc:Work>
  </rdf:RDF>
 </metadata>
 <defs>
  <style type="text/css">*{stroke-linejoin: round; stroke-linecap: butt}</style>
 </defs>
 <g id="figure_1">
  <g id="patch_1">
   <path d="M 0 277.056  L 819.495 277.056  L 819.495 0  L 0 0  z " style="fill: #ffffff"/>
  </g>
  <g id="axes_1">
   <g id="patch_2">
    <path d="M 7.2 269.856  L 754.2 269.856  L 754.2 12.672  L 7.2 12.672  z " style="fill: #ffffff"/>
   </g>
   <g id="patch_3">
    <path d="M 7.2 133.985208  L 64.168541 133.985208  L 64.168541 188.576151  L 7.2 188.576151  z " clip-path="url(#p3bc6226875)" style="fill: #b71c1c"/>
   </g>
   <g id="patch_4">
    <path d="M 64.168541 133.985208  L 631.005529 133.985208  L 631.005529 188.576151  L 64.168541 188.576151  z " clip-path="url(#p3bc6226875)" style="fill: #ef9a9a"/>
   </g>
   <g id="patch_5">
    <path d="M 631.005529 133.985208  L 754.2 133.985208  L 754.2 188.576151  L 631.005529 188.576151  z " clip-path="url(#p3bc6226875)" style="fill: #81c784"/>
   </g>
   <g id="patch_6">
    <path d="M 754.2 133.985208  L 754.2 133.985208  L 754.2 188.576151  L 754.2 188.576151  z " clip-path="url(#p3bc6226875)" style="fill: #1b5e20"/>
   </g>
   <g id="patch_7">
    <path d="M 7.2 203.133736  L 7.2 203.133736  L 7.2 257.724679  L 7.2 257.724679  z " clip-path="url(#p3bc6226875)" style="fill: #b71c1c"/>
   </g>
   <g id="patch_8">
    <path d="M 7.2 203.133736  L 114.016015 203.133736  L 114.016015 257.724679  L 7.2 257.724679  z " clip-path="url(#p3bc6226875)" style="fill: #ef9a9a"/>
   </g>
   <g id="patch_9">
    <path d="M 114.016015 203.133736  L 732.836797 203.133736  L 732.836797 257.724679  L 114.016015 257.724679  z " clip-path="url(#p3bc6226875)" style="fill: #81c784"/>
   </g>
   <g id="patch_10">
    <path d="M 732.836797 203.133736  L 754.2 203.133736  L 754.2 257.724679  L 732.836797 257.724679  z " clip-path="url(#p3bc6226875)" style="fill: #1b5e20"/>
   </g>
   <g id="matplotlib.axis_1"/>
   <g id="matplotlib.axis_2"/>
   <g id="text_1">
    <text style="font-weight: 700; font-size: 10px; font-family: 'IBM Plex Sans'; text-anchor: middle; fill: #ffffff" x="35.684271" y="163.980679" transform="rotate(-0 35.684271 163.980679)">7.6%</text>
   </g>
   <g id="text_2">
    <text style="font-weight: 700; font-size: 10px; font-family: 'IBM Plex Sans'; text-anchor: middle; fill: #ffffff" x="347.587035" y="163.980679" transform="rotate(-0 347.587035 163.980679)">75.9%</text>
   </g>
   <g id="text_3">
    <text style="font-weight: 700; font-size: 10px; font-family: 'IBM Plex Sans'; text-anchor: middle; fill: #ffffff" x="692.602765" y="163.980679" transform="rotate(-0 692.602765 163.980679)">16.5%</text>
   </g>
   <g id="text_4">
    <text style="font-weight: 700; font-size: 10px; font-family: 'IBM Plex Sans'; text-anchor: middle; fill: #ffffff" x="60.608008" y="233.129208" transform="rotate(-0 60.608008 233.129208)">14.3%</text>
   </g>
   <g id="text_5">
    <text style="font-weight: 700; font-size: 10px; font-family: 'IBM Plex Sans'; text-anchor: middle; fill: #ffffff" x="423.426406" y="233.129208" transform="rotate(-0 423.426406 233.129208)">82.8%</text>
   </g>
   <g id="text_6">
    <text style="font-weight: 700; font-size: 9px; font-family: 'IBM Plex Sans'; text-anchor: start" x="761.67" y="163.710679" transform="rotate(-0 761.67 163.710679)">Default rate</text>
   </g>
   <g id="text_7">
    <text style="font-weight: 700; font-size: 9px; font-family: 'IBM Plex Sans'; text-anchor: start" x="761.67" y="232.859208" transform="rotate(-0 761.67 232.859208)">HP flat rate</text>
   </g>
   <g id="text_8">
    <text style="font-weight: 700; font-size: 11px; font-family: 'GT Planar'; text-anchor: start; fill: #333333" x="7.2" y="32.503321" transform="rotate(-0 7.2 32.503321)">Rhode Island Energy</text>
   </g>
   <g id="text_9">
    <text style="font-weight: 700; font-size: 8px; font-family: 'IBM Plex Sans'; text-anchor: middle; fill: #b71c1c" x="35.684271" y="89.925585" transform="rotate(-0 35.684271 89.925585)">LOSE &gt; $1K</text>
   </g>
   <g id="text_10">
    <text style="font-weight: 700; font-size: 8px; font-family: 'IBM Plex Sans'; text-anchor: middle; fill: #ef9a9a" x="347.587035" y="89.925585" transform="rotate(-0 347.587035 89.925585)">LOSE $0-1K</text>
   </g>
   <g id="text_11">
    <text style="font-weight: 700; font-size: 8px; font-family: 'IBM Plex Sans'; text-anchor: middle; fill: #81c784" x="692.602765" y="89.925585" transform="rotate(-0 692.602765 89.925585)">SAVE $0-1K</text>
   </g>
  </g>
  <g id="text_12">
   <text style="font-weight: 700; font-size: 12px; font-family: 'GT Planar'; text-anchor: start" x="7.2" y="15.6" transform="rotate(-0 7.2 15.6)">How bills would change for</text>
  </g>
  <g id="text_13">
   <text style="font-weight: 700; font-size: 12px; font-family: 'GT Planar'; text-anchor: start; fill: #7a8a10" x="166.29375" y="15.6" transform="rotate(-0 166.29375 15.6)">natural gas</text>
  </g>
  <g id="text_14">
   <text style="font-weight: 700; font-size: 12px; font-family: 'GT Planar'; text-anchor: start" x="233.04375" y="15.6" transform="rotate(-0 233.04375 15.6)">heated homes after switching to</text>
  </g>
  <g id="text_15">
   <text style="font-weight: 700; font-size: 12px; font-family: 'GT Planar'; text-anchor: start; fill: #c47600" x="421.85625" y="15.6" transform="rotate(-0 421.85625 15.6)">heat pumps</text>
  </g>
 </g>
 <defs>
  <clipPath id="p3bc6226875">
   <rect x="7.2" y="12.672" width="747" height="257.184"/>
  </clipPath>
 </defs>
</svg>
