<?xml version="1.0" encoding="utf-8" standalone="no"?>
<!DOCTYPE svg PUBLIC "-//W3C//DTD SVG 1.1//EN"
  "http://www.w3.org/Graphics/SVG/1.1/DTD/svg11.dtd">
<svg xmlns:xlink="http://www.w3.org/1999/xlink" width="1008pt" height="360pt" viewBox="0 0 1008 360" xmlns="http://www.w3.org/2000/svg" version="1.1">
 <metadata>
  <rdf:RDF xmlns:dc="http://purl.org/dc/elements/1.1/" xmlns:cc="http://creativecommons.org/ns#" xmlns:rdf="http://www.w3.org/1999/02/22-rdf-syntax-ns#">
   <cc:Work>
    <dc:type rdf:resource="http://purl.org/dc/dcmitype/StillImage"/>
    <dc:date>2026-04-14T05:04:47.515734</dc:date>
    <dc:format>image/svg+xml</dc:format>
    <dc:creator>
     <cc:Agent>
      <dc:title>Matplotlib v3.10.8, https://matplotlib.org/</dc:title>
     </cc:Agent>
    </dc:creator>
   </cc:Work>
  </rdf:RDF>
 </metadata>
 <defs>
  <style type="text/css">*{stroke-linejoin: round; stroke-linecap: butt}</style>
 </defs>
 <g id="figure_1">
  <g id="patch_1">
   <path d="M 0 360
L 1008 360
L 1008 0
L 0 0
z
" style="fill: #ffffff"/>
  </g>
  <g id="axes_1">
   <g id="patch_2">
    <path d="M 59.342813 334.63
L 997.92 334.63
L 997.92 10.08
L 59.342813 10.08
z
" style="fill: #ffffff"/>
   </g>
   <g id="matplotlib.axis_1">
    <g id="xtick_1">
     <g id="line2d_1">
      <path d="M 98.882344 334.63
" style="fill: none; stroke: #000000; stroke-width: 1.5; stroke-linecap: square"/>
      <defs>
       <path id="m8dfd6f2daa" d="M 0 0
L 0 2.75
" style="stroke: #000000"/>
      </defs>
      <g>
       <use xlink:href="#m8dfd6f2daa" x="98.882344" y="334.63" style="stroke: #000000"/>
      </g>
     </g>
     <g id="text_1">
      <text style="font-size: 11px; font-family: 'IBM Plex Sans'; text-anchor: middle; fill: #4d4d4d" x="98.882344" y="347.72" transform="rotate(-0 98.882344 347.72)">Jan</text>
     </g>
    </g>
    <g id="xtick_2">
     <g id="line2d_2">
      <path d="M 166.012279 334.63
" style="fill: none; stroke: #000000; stroke-width: 1.5; stroke-linecap: square"/>
      <g>
       <use xlink:href="#m8dfd6f2daa" x="166.012279" y="334.63" style="stroke: #000000"/>
      </g>
     </g>
     <g id="text_2">
      <text style="font-size: 11px; font-family: 'IBM Plex Sans'; text-anchor: middle; fill: #4d4d4d" x="166.012279" y="347.72" transform="rotate(-0 166.012279 347.72)">Feb</text>
     </g>
    </g>
    <g id="xtick_3">
     <g id="line2d_3">
      <path d="M 233.142214 334.63
" style="fill: none; stroke: #000000; stroke-width: 1.5; stroke-linecap: square"/>
      <g>
       <use xlink:href="#m8dfd6f2daa" x="233.142214" y="334.63" style="stroke: #000000"/>
      </g>
     </g>
     <g id="text_3">
      <text style="font-size: 11px; font-family: 'IBM Plex Sans'; text-anchor: middle; fill: #4d4d4d" x="233.142214" y="347.72" transform="rotate(-0 233.142214 347.72)">Mar</text>
     </g>
    </g>
    <g id="xtick_4">
     <g id="line2d_4">
      <path d="M 300.27215 334.63
" style="fill: none; stroke: #000000; stroke-width: 1.5; stroke-linecap: square"/>
      <g>
       <use xlink:href="#m8dfd6f2daa" x="300.27215" y="334.63" style="stroke: #000000"/>
      </g>
     </g>
     <g id="text_4">
      <text style="font-size: 11px; font-family: 'IBM Plex Sans'; text-anchor: middle; fill: #4d4d4d" x="300.27215" y="347.72" transform="rotate(-0 300.27215 347.72)">Apr</text>
     </g>
    </g>
    <g id="xtick_5">
     <g id="line2d_5">
      <path d="M 367.402085 334.63
" style="fill: none; stroke: #000000; stroke-width: 1.5; stroke-linecap: square"/>
      <g>
       <use xlink:href="#m8dfd6f2daa" x="367.402085" y="334.63" style="stroke: #000000"/>
      </g>
     </g>
     <g id="text_5">
      <text style="font-size: 11px; font-family: 'IBM Plex Sans'; text-anchor: middle; fill: #4d4d4d" x="367.402085" y="347.72" transform="rotate(-0 367.402085 347.72)">May</text>
     </g>
    </g>
    <g id="xtick_6">
     <g id="line2d_6">
      <path d="M 434.53202 334.63
" style="fill: none; stroke: #000000; stroke-width: 1.5; stroke-linecap: square"/>
      <g>
       <use xlink:href="#m8dfd6f2daa" x="434.53202" y="334.63" style="stroke: #000000"/>
      </g>
     </g>
     <g id="text_6">
      <text style="font-size: 11px; font-family: 'IBM Plex Sans'; text-anchor: middle; fill: #4d4d4d" x="434.53202" y="347.72" transform="rotate(-0 434.53202 347.72)">Jun</text>
     </g>
    </g>
    <g id="xtick_7">
     <g id="line2d_7">
      <path d="M 501.661955 334.63
" style="fill: none; stroke: #000000; stroke-width: 1.5; stroke-linecap: square"/>
      <g>
       <use xlink:href="#m8dfd6f2daa" x="501.661955" y="334.63" style="stroke: #000000"/>
      </g>
     </g>
     <g id="text_7">
      <text style="font-size: 11px; font-family: 'IBM Plex Sans'; text-anchor: middle; fill: #4d4d4d" x="501.661955" y="347.72" transform="rotate(-0 501.661955 347.72)">Jul</text>
     </g>
    </g>
    <g id="xtick_8">
     <g id="line2d_8">
      <path d="M 568.79189 334.63
" style="fill: none; stroke: #000000; stroke-width: 1.5; stroke-linecap: square"/>
      <g>
       <use xlink:href="#m8dfd6f2daa" x="568.79189" y="334.63" style="stroke: #000000"/>
      </g>
     </g>
     <g id="text_8">
      <text style="font-size: 11px; font-family: 'IBM Plex Sans'; text-anchor: middle; fill: #4d4d4d" x="568.79189" y="347.587656" transform="rotate(-0 568.79189 347.587656)">Aug</text>
     </g>
    </g>
    <g id="xtick_9">
     <g id="line2d_9">
      <path d="M 635.921825 334.63
" style="fill: none; stroke: #000000; stroke-width: 1.5; stroke-linecap: square"/>
      <g>
       <use xlink:href="#m8dfd6f2daa" x="635.921825" y="334.63" style="stroke: #000000"/>
      </g>
     </g>
     <g id="text_9">
      <text style="font-size: 11px; font-family: 'IBM Plex Sans'; text-anchor: middle; fill: #4d4d4d" x="635.921825" y="347.72" transform="rotate(-0 635.921825 347.72)">Sep</text>
     </g>
    </g>
    <g id="xtick_10">
     <g id="line2d_10">
      <path d="M 703.05176 334.63
" style="fill: none; stroke: #000000; stroke-width: 1.5; stroke-linecap: square"/>
      <g>
       <use xlink:href="#m8dfd6f2daa" x="703.05176" y="334.63" style="stroke: #000000"/>
      </g>
     </g>
     <g id="text_10">
      <text style="font-size: 11px; font-family: 'IBM Plex Sans'; text-anchor: middle; fill: #4d4d4d" x="703.05176" y="347.72" transform="rotate(-0 703.05176 347.72)">Oct</text>
     </g>
    </g>
    <g id="xtick_11">
     <g id="line2d_11">
      <path d="M 770.181695 334.63
" style="fill: none; stroke: #000000; stroke-width: 1.5; stroke-linecap: square"/>
      <g>
       <use xlink:href="#m8dfd6f2daa" x="770.181695" y="334.63" style="stroke: #000000"/>
      </g>
     </g>
     <g id="text_11">
      <text style="font-size: 11px; font-family: 'IBM Plex Sans'; text-anchor: middle; fill: #4d4d4d" x="770.181695" y="347.72" transform="rotate(-0 770.181695 347.72)">Nov</text>
     </g>
    </g>
    <g id="xtick_12">
     <g id="line2d_12">
      <path d="M 837.31163 334.63
" style="fill: none; stroke: #000000; stroke-width: 1.5; stroke-linecap: square"/>
      <g>
       <use xlink:href="#m8dfd6f2daa" x="837.31163" y="334.63" style="stroke: #000000"/>
      </g>
     </g>
     <g id="text_12">
      <text style="font-size: 11px; font-family: 'IBM Plex Sans'; text-anchor: middle; fill: #4d4d4d" x="837.31163" y="347.72" transform="rotate(-0 837.31163 347.72)">Dec</text>
     </g>
    </g>
   </g>
   <g id="matplotlib.axis_2">
    <g id="ytick_1">
     <g id="line2d_13">
      <path d="M 59.342813 334.63
L 997.92 334.63
" clip-path="url(#pbc8bef09c4)" style="fill: none; stroke: #e5e5e5; stroke-linecap: square"/>
     </g>
     <g id="text_13">
      <text style="font-size: 11px; font-family: 'IBM Plex Sans'; text-anchor: start; fill: #4d4d4d" x="50.542812" y="338.7" transform="rotate(-0 50.542812 338.7)">0</text>
     </g>
    </g>
    <g id="ytick_2">
     <g id="line2d_14">
      <path d="M 59.342813 259.919507
L 997.92 259.919507
" clip-path="url(#pbc8bef09c4)" style="fill: none; stroke: #e5e5e5; stroke-linecap: square"/>
     </g>
     <g id="text_14">
      <text style="font-size: 11px; font-family: 'IBM Plex Sans'; text-anchor: start; fill: #4d4d4d" x="37.342813" y="263.989507" transform="rotate(-0 37.342813 263.989507)">500</text>
     </g>
    </g>
    <g id="ytick_3">
     <g id="line2d_15">
      <path d="M 59.342813 185.209015
L 997.92 185.209015
" clip-path="url(#pbc8bef09c4)" style="fill: none; stroke: #e5e5e5; stroke-linecap: square"/>
     </g>
     <g id="text_15">
      <text style="font-size: 11px; font-family: 'IBM Plex Sans'; text-anchor: start; fill: #4d4d4d" x="30.742813" y="189.279015" transform="rotate(-0 30.742813 189.279015)">1000</text>
     </g>
    </g>
    <g id="ytick_4">
     <g id="line2d_16">
      <path d="M 59.342813 110.498522
L 997.92 110.498522
" clip-path="url(#pbc8bef09c4)" style="fill: none; stroke: #e5e5e5; stroke-linecap: square"/>
     </g>
     <g id="text_16">
      <text style="font-size: 11px; font-family: 'IBM Plex Sans'; text-anchor: start; fill: #4d4d4d" x="30.742813" y="114.568522" transform="rotate(-0 30.742813 114.568522)">1500</text>
     </g>
    </g>
    <g id="ytick_5">
     <g id="line2d_17">
      <path d="M 59.342813 35.78803
L 997.92 35.78803
" clip-path="url(#pbc8bef09c4)" style="fill: none; stroke: #e5e5e5; stroke-linecap: square"/>
     </g>
     <g id="text_17">
      <text style="font-size: 11px; font-family: 'IBM Plex Sans'; text-anchor: start; fill: #4d4d4d" x="30.742813" y="39.85803" transform="rotate(-0 30.742813 39.85803)">2000</text>
     </g>
    </g>
    <g id="ytick_6">
     <g id="line2d_18">
      <path d="M 59.342813 297.274754
L 997.92 297.274754
" clip-path="url(#pbc8bef09c4)" style="fill: none; stroke: #fafafa; stroke-width: 0.5; stroke-linecap: square"/>
     </g>
    </g>
    <g id="ytick_7">
     <g id="line2d_19">
      <path d="M 59.342813 222.564261
L 997.92 222.564261
" clip-path="url(#pbc8bef09c4)" style="fill: none; stroke: #fafafa; stroke-width: 0.5; stroke-linecap: square"/>
     </g>
    </g>
    <g id="ytick_8">
     <g id="line2d_20">
      <path d="M 59.342813 147.853769
L 997.92 147.853769
" clip-path="url(#pbc8bef09c4)" style="fill: none; stroke: #fafafa; stroke-width: 0.5; stroke-linecap: square"/>
     </g>
    </g>
    <g id="ytick_9">
     <g id="line2d_21">
      <path d="M 59.342813 73.143276
L 997.92 73.143276
" clip-path="url(#pbc8bef09c4)" style="fill: none; stroke: #fafafa; stroke-width: 0.5; stroke-linecap: square"/>
     </g>
    </g>
   </g>
   <g id="PolyCollection_1">
    <path d="M 75.386867 334.63
L 75.386867 262.13049
L 122.377822 262.13049
L 122.377822 334.63
z
" clip-path="url(#pbc8bef09c4)" style="fill: #c8a200"/>
    <path d="M 75.386867 262.13049
L 75.386867 25.534762
L 122.377822 25.534762
L 122.377822 262.13049
z
" clip-path="url(#pbc8bef09c4)" style="fill: #ffc729"/>
    <path d="M 142.516802 334.63
L 142.516802 277.039716
L 189.507757 277.039716
L 189.507757 334.63
z
" clip-path="url(#pbc8bef09c4)" style="fill: #c8a200"/>
    <path d="M 142.516802 277.039716
L 142.516802 156.837407
L 189.507757 156.837407
L 189.507757 277.039716
z
" clip-path="url(#pbc8bef09c4)" style="fill: #ffc729"/>
    <path d="M 209.646737 334.63
L 209.646737 262.285888
L 256.637692 262.285888
L 256.637692 334.63
z
" clip-path="url(#pbc8bef09c4)" style="fill: #c8a200"/>
    <path d="M 209.646737 262.285888
L 209.646737 129.049138
L 256.637692 129.049138
L 256.637692 262.285888
z
" clip-path="url(#pbc8bef09c4)" style="fill: #ffc729"/>
    <path d="M 276.776672 334.63
L 276.776672 267.532955
L 323.767627 267.532955
L 323.767627 334.63
z
" clip-path="url(#pbc8bef09c4)" style="fill: #c8a200"/>
    <path d="M 276.776672 267.532955
L 276.776672 192.98832
L 323.767627 192.98832
L 323.767627 267.532955
z
" clip-path="url(#pbc8bef09c4)" style="fill: #ffc729"/>
    <path d="M 343.906607 334.63
L 343.906607 274.277071
L 390.897562 274.277071
L 390.897562 334.63
z
" clip-path="url(#pbc8bef09c4)" style="fill: #c8a200"/>
    <path d="M 343.906607 274.277071
L 343.906607 272.819619
L 390.897562 272.819619
L 390.897562 274.277071
z
" clip-path="url(#pbc8bef09c4)" style="fill: #ffc729"/>
    <path d="M 411.036542 334.63
L 411.036542 266.984879
L 458.027497 266.984879
L 458.027497 334.63
z
" clip-path="url(#pbc8bef09c4)" style="fill: #c8a200"/>
    <path d="M 411.036542 266.984879
L 411.036542 266.984879
L 458.027497 266.984879
L 458.027497 266.984879
z
" clip-path="url(#pbc8bef09c4)" style="fill: #ffc729"/>
    <path d="M 478.166478 334.63
L 478.166478 216.761348
L 525.157432 216.761348
L 525.157432 334.63
z
" clip-path="url(#pbc8bef09c4)" style="fill: #c8a200"/>
    <path d="M 478.166478 216.761348
L 478.166478 216.761348
L 525.157432 216.761348
L 525.157432 216.761348
z
" clip-path="url(#pbc8bef09c4)" style="fill: #ffc729"/>
    <path d="M 545.296413 334.63
L 545.296413 211.156716
L 592.287367 211.156716
L 592.287367 334.63
z
" clip-path="url(#pbc8bef09c4)" style="fill: #c8a200"/>
    <path d="M 545.296413 211.156716
L 545.296413 211.156716
L 592.287367 211.156716
L 592.287367 211.156716
z
" clip-path="url(#pbc8bef09c4)" style="fill: #ffc729"/>
    <path d="M 612.426348 334.63
L 612.426348 248.771507
L 659.417302 248.771507
L 659.417302 334.63
z
" clip-path="url(#pbc8bef09c4)" style="fill: #c8a200"/>
    <path d="M 612.426348 248.771507
L 612.426348 248.771507
L 659.417302 248.771507
L 659.417302 248.771507
z
" clip-path="url(#pbc8bef09c4)" style="fill: #ffc729"/>
    <path d="M 679.556283 334.63
L 679.556283 274.044721
L 726.547237 274.044721
L 726.547237 334.63
z
" clip-path="url(#pbc8bef09c4)" style="fill: #c8a200"/>
    <path d="M 679.556283 274.044721
L 679.556283 256.234935
L 726.547237 256.234935
L 726.547237 274.044721
z
" clip-path="url(#pbc8bef09c4)" style="fill: #ffc729"/>
    <path d="M 746.686218 334.63
L 746.686218 278.424998
L 793.677172 278.424998
L 793.677172 334.63
z
" clip-path="url(#pbc8bef09c4)" style="fill: #c8a200"/>
    <path d="M 746.686218 278.424998
L 746.686218 191.973901
L 793.677172 191.973901
L 793.677172 278.424998
z
" clip-path="url(#pbc8bef09c4)" style="fill: #ffc729"/>
    <path d="M 813.816153 334.63
L 813.816153 245.217379
L 860.807108 245.217379
L 860.807108 334.63
z
" clip-path="url(#pbc8bef09c4)" style="fill: #c8a200"/>
    <path d="M 813.816153 245.217379
L 813.816153 115.616341
L 860.807108 115.616341
L 860.807108 245.217379
z
" clip-path="url(#pbc8bef09c4)" style="fill: #ffc729"/>
   </g>
   <g id="text_18">
    <g clip-path="url(#pbc8bef09c4)">
     <text style="font-weight: 700; font-size: 9px; font-family: 'IBM Plex Sans'; fill: #c8a200" transform="translate(877.589591 287.498471)">Electricity use</text>
    </g>
    <g clip-path="url(#pbc8bef09c4)">
     <text style="font-weight: 700; font-size: 9px; font-family: 'IBM Plex Sans'; fill: #c8a200" transform="translate(877.589591 297.290471)">before heat pump</text>
    </g>
   </g>
   <g id="LineCollection_1">
    <path d="M 847.381121 289.92369
L 874.233095 289.92369
" clip-path="url(#pbc8bef09c4)" style="fill: none; stroke: #c8a200; stroke-width: 0.886227"/>
   </g>
   <g id="text_19">
    <g clip-path="url(#pbc8bef09c4)">
     <text style="font-weight: 700; font-size: 9px; font-family: 'IBM Plex Sans'; fill: #d4a800" transform="translate(877.589591 177.991641)">New electricity use</text>
    </g>
    <g clip-path="url(#pbc8bef09c4)">
     <text style="font-weight: 700; font-size: 9px; font-family: 'IBM Plex Sans'; fill: #d4a800" transform="translate(877.589591 187.783641)">from heat pump</text>
    </g>
   </g>
   <g id="LineCollection_2">
    <path d="M 847.381121 180.41686
L 874.233095 180.41686
" clip-path="url(#pbc8bef09c4)" style="fill: none; stroke: #d4a800; stroke-width: 0.886227"/>
   </g>
   <g id="patch_3">
    <path d="M 59.342813 334.63
L 997.92 334.63
" style="fill: none; stroke: #000000; stroke-width: 0.5; stroke-linejoin: miter; stroke-linecap: square"/>
   </g>
  </g>
  <g id="text_20">
   <text style="font-size: 13px; font-family: 'GT Planar'; fill: #333333" transform="translate(20.402813 264.556484) rotate(-90)">Electricity consumption (kWh)</text>
  </g>
 </g>
 <defs>
  <clipPath id="pbc8bef09c4">
   <rect x="59.342813" y="10.08" width="938.577187" height="324.55"/>
  </clipPath>
 </defs>
</svg>
