<svg xmlns:xlink="http://www.w3.org/1999/xlink" xmlns="http://www.w3.org/2000/svg" width="832.659247pt" height="277.056pt" viewBox="0 0 832.659247 277.056" version="1.1">
 <metadata>
  <rdf:RDF xmlns:dc="http://purl.org/dc/elements/1.1/" xmlns:cc="http://creativecommons.org/ns#" xmlns:rdf="http://www.w3.org/1999/02/22-rdf-syntax-ns#">
   <cc:Work>
    <dc:type rdf:resource="http://purl.org/dc/dcmitype/StillImage"/>
    <dc:date>2026-04-14T05:04:52.844588</dc:date>
    <dc:format>image/svg+xml</dc:format>
    <dc:creator>
     <cc:Agent>
      <dc:title>Matplotlib v3.10.8, https://matplotlib.org/</dc:title>
     </cc:Agent>
    </dc:creator>
   </cc:Work>
  </rdf:RDF>
 </metadata>
 <defs>
  <style type="text/css">*{stroke-linejoin: round; stroke-linecap: butt}</style>
 </defs>
 <g id="figure_1">
  <g id="patch_1">
   <path d="M 0 277.056  L 832.659247 277.056  L 832.659247 0  L 0 0  z " style="fill: #ffffff"/>
  </g>
  <g id="axes_1">
   <g id="patch_2">
    <path d="M 20.364247 269.856  L 767.364247 269.856  L 767.364247 12.672  L 20.364247 12.672  z " style="fill: #ffffff"/>
   </g>
   <g id="patch_3">
    <path d="M 20.364247 133.985208  L 20.364247 133.985208  L 20.364247 188.576151  L 20.364247 188.576151  z " clip-path="url(#pd5d2734ca8)" style="fill: #b71c1c"/>
   </g>
   <g id="patch_4">
    <path d="M 20.364247 133.985208  L 38.923253 133.985208  L 38.923253 188.576151  L 20.364247 188.576151  z " clip-path="url(#pd5d2734ca8)" style="fill: #ef9a9a"/>
   </g>
   <g id="patch_5">
    <path d="M 38.923253 133.985208  L 345.146856 133.985208  L 345.146856 188.576151  L 38.923253 188.576151  z " clip-path="url(#pd5d2734ca8)" style="fill: #81c784"/>
   </g>
   <g id="patch_6">
    <path d="M 345.146856 133.985208  L 767.364247 133.985208  L 767.364247 188.576151  L 345.146856 188.576151  z " clip-path="url(#pd5d2734ca8)" style="fill: #1b5e20"/>
   </g>
   <g id="patch_7">
    <path d="M 20.364247 203.133736  L 20.364247 203.133736  L 20.364247 257.724679  L 20.364247 257.724679  z " clip-path="url(#pd5d2734ca8)" style="fill: #b71c1c"/>
   </g>
   <g id="patch_8">
    <path d="M 20.364247 203.133736  L 20.364247 203.133736  L 20.364247 257.724679  L 20.364247 257.724679  z " clip-path="url(#pd5d2734ca8)" style="fill: #ef9a9a"/>
   </g>
   <g id="patch_9">
    <path d="M 20.364247 203.133736  L 252.351825 203.133736  L 252.351825 257.724679  L 20.364247 257.724679  z " clip-path="url(#pd5d2734ca8)" style="fill: #81c784"/>
   </g>
   <g id="patch_10">
    <path d="M 252.351825 203.133736  L 767.364247 203.133736  L 767.364247 257.724679  L 252.351825 257.724679  z " clip-path="url(#pd5d2734ca8)" style="fill: #1b5e20"/>
   </g>
   <g id="matplotlib.axis_1"/>
   <g id="matplotlib.axis_2"/>
   <g id="text_1">
    <text style="font-weight: 700; font-size: 10px; font-family: 'IBM Plex Sans'; text-anchor: middle; fill: #ffffff" x="192.035054" y="163.980679" transform="rotate(-0 192.035054 163.980679)">41.0%</text>
   </g>
   <g id="text_2">
    <text style="font-weight: 700; font-size: 10px; font-family: 'IBM Plex Sans'; text-anchor: middle; fill: #ffffff" x="556.255551" y="163.980679" transform="rotate(-0 556.255551 163.980679)">56.5%</text>
   </g>
   <g id="text_3">
    <text style="font-weight: 700; font-size: 10px; font-family: 'IBM Plex Sans'; text-anchor: middle; fill: #ffffff" x="136.358036" y="233.129208" transform="rotate(-0 136.358036 233.129208)">31.1%</text>
   </g>
   <g id="text_4">
    <text style="font-weight: 700; font-size: 10px; font-family: 'IBM Plex Sans'; text-anchor: middle; fill: #ffffff" x="509.858036" y="233.129208" transform="rotate(-0 509.858036 233.129208)">68.9%</text>
   </g>
   <g id="text_5">
    <text style="font-weight: 700; font-size: 9px; font-family: 'IBM Plex Sans'; text-anchor: start" x="774.834247" y="163.710679" transform="rotate(-0 774.834247 163.710679)">Default rate</text>
   </g>
   <g id="text_6">
    <text style="font-weight: 700; font-size: 9px; font-family: 'IBM Plex Sans'; text-anchor: start" x="774.834247" y="232.859208" transform="rotate(-0 774.834247 232.859208)">HP flat rate</text>
   </g>
   <g id="text_7">
    <text style="font-weight: 700; font-size: 11px; font-family: 'GT Planar'; text-anchor: start; fill: #333333" x="20.364247" y="32.503321" transform="rotate(-0 20.364247 32.503321)">Rhode Island Energy</text>
   </g>
   <g id="text_8">
    <text style="font-weight: 700; font-size: 8px; font-family: 'IBM Plex Sans'; text-anchor: middle; fill: #ef9a9a" x="29.64375" y="89.925585" transform="rotate(-0 29.64375 89.925585)">LOSE $0-1K</text>
   </g>
   <g id="text_9">
    <text style="font-weight: 700; font-size: 8px; font-family: 'IBM Plex Sans'; text-anchor: middle; fill: #81c784" x="192.035054" y="89.925585" transform="rotate(-0 192.035054 89.925585)">SAVE $0-1K</text>
   </g>
   <g id="text_10">
    <text style="font-weight: 700; font-size: 8px; font-family: 'IBM Plex Sans'; text-anchor: middle; fill: #1b5e20" x="556.255551" y="89.925585" transform="rotate(-0 556.255551 89.925585)">SAVE &gt; $1K</text>
   </g>
  </g>
  <g id="text_11">
   <text style="font-weight: 700; font-size: 12px; font-family: 'GT Planar'; text-anchor: start" x="20.364247" y="15.6" transform="rotate(-0 20.364247 15.6)">How bills would change for</text>
  </g>
  <g id="text_12">
   <text style="font-weight: 700; font-size: 12px; font-family: 'GT Planar'; text-anchor: start; fill: #b08e00" x="179.457997" y="15.6" transform="rotate(-0 179.457997 15.6)">electric resistance</text>
  </g>
  <g id="text_13">
   <text style="font-weight: 700; font-size: 12px; font-family: 'GT Planar'; text-anchor: start" x="288.676747" y="15.6" transform="rotate(-0 288.676747 15.6)">heated homes after switching to</text>
  </g>
  <g id="text_14">
   <text style="font-weight: 700; font-size: 12px; font-family: 'GT Planar'; text-anchor: start; fill: #c47600" x="477.489247" y="15.6" transform="rotate(-0 477.489247 15.6)">heat pumps</text>
  </g>
 </g>
 <defs>
  <clipPath id="pd5d2734ca8">
   <rect x="20.364247" y="12.672" width="747" height="257.184"/>
  </clipPath>
 </defs>
</svg>
