<svg xmlns:xlink="http://www.w3.org/1999/xlink" xmlns="http://www.w3.org/2000/svg" width="755.28pt" height="506.995462pt" viewBox="0 0 755.28 506.995462" version="1.1">
 <metadata>
  <rdf:RDF xmlns:dc="http://purl.org/dc/elements/1.1/" xmlns:cc="http://creativecommons.org/ns#" xmlns:rdf="http://www.w3.org/1999/02/22-rdf-syntax-ns#">
   <cc:Work>
    <dc:type rdf:resource="http://purl.org/dc/dcmitype/StillImage"/>
    <dc:date>2026-04-14T05:05:13.691930</dc:date>
    <dc:format>image/svg+xml</dc:format>
    <dc:creator>
     <cc:Agent>
      <dc:title>Matplotlib v3.10.8, https://matplotlib.org/</dc:title>
     </cc:Agent>
    </dc:creator>
   </cc:Work>
  </rdf:RDF>
 </metadata>
 <defs>
  <style type="text/css">*{stroke-linejoin: round; stroke-linecap: butt}</style>
 </defs>
 <g id="figure_1">
  <g id="patch_1">
   <path d="M 0 506.995462  L 755.28 506.995462  L 755.28 0  L 0 0  z " style="fill: #ffffff"/>
  </g>
  <g id="axes_1">
   <g id="patch_2">
    <path d="M 56.462812 484.505462  L 748.08 484.505462  L 748.08 50.985462  L 56.462812 50.985462  z " style="fill: #ffffff"/>
   </g>
   <g id="matplotlib.axis_1">
    <g id="xtick_1">
     <g id="line2d_1">
      <path d="M 104.02157 484.505462  " style="fill: none; stroke: #000000; stroke-width: 1.5; stroke-linecap: square"/>
      <defs>
       <path id="m380bf193f8" d="M 0 0  L 0 2.75  " style="stroke: #000000"/>
      </defs>
      <g>
       <use xlink:href="#m380bf193f8" x="104.02157" y="484.505462" style="stroke: #000000"/>
      </g>
     </g>
     <g id="text_1">
      <text style="font-size: 11px; font-family: 'IBM Plex Sans'; text-anchor: middle; fill: #4d4d4d" x="104.02157" y="497.595462" transform="rotate(-0 104.02157 497.595462)">2024</text>
     </g>
    </g>
    <g id="xtick_2">
     <g id="line2d_2">
      <path d="M 136.264796 484.505462  " style="fill: none; stroke: #000000; stroke-width: 1.5; stroke-linecap: square"/>
      <g>
       <use xlink:href="#m380bf193f8" x="136.264796" y="484.505462" style="stroke: #000000"/>
      </g>
     </g>
     <g id="text_2">
      <text style="font-size: 11px; font-family: 'IBM Plex Sans'; text-anchor: middle; fill: #4d4d4d" x="136.264796" y="497.595462" transform="rotate(-0 136.264796 497.595462)">2025</text>
     </g>
    </g>
    <g id="xtick_3">
     <g id="line2d_3">
      <path d="M 168.508021 484.505462  " style="fill: none; stroke: #000000; stroke-width: 1.5; stroke-linecap: square"/>
      <g>
       <use xlink:href="#m380bf193f8" x="168.508021" y="484.505462" style="stroke: #000000"/>
      </g>
     </g>
     <g id="text_3">
      <text style="font-size: 11px; font-family: 'IBM Plex Sans'; text-anchor: middle; fill: #4d4d4d" x="168.508021" y="497.595462" transform="rotate(-0 168.508021 497.595462)">2026</text>
     </g>
    </g>
    <g id="xtick_4">
     <g id="line2d_4">
      <path d="M 200.751247 484.505462  " style="fill: none; stroke: #000000; stroke-width: 1.5; stroke-linecap: square"/>
      <g>
       <use xlink:href="#m380bf193f8" x="200.751247" y="484.505462" style="stroke: #000000"/>
      </g>
     </g>
     <g id="text_4">
      <text style="font-size: 11px; font-family: 'IBM Plex Sans'; text-anchor: middle; fill: #4d4d4d" x="200.751247" y="497.595462" transform="rotate(-0 200.751247 497.595462)">2027</text>
     </g>
    </g>
    <g id="xtick_5">
     <g id="line2d_5">
      <path d="M 232.994472 484.505462  " style="fill: none; stroke: #000000; stroke-width: 1.5; stroke-linecap: square"/>
      <g>
       <use xlink:href="#m380bf193f8" x="232.994472" y="484.505462" style="stroke: #000000"/>
      </g>
     </g>
     <g id="text_5">
      <text style="font-size: 11px; font-family: 'IBM Plex Sans'; text-anchor: middle; fill: #4d4d4d" x="232.994472" y="497.595462" transform="rotate(-0 232.994472 497.595462)">2028</text>
     </g>
    </g>
    <g id="xtick_6">
     <g id="line2d_6">
      <path d="M 265.237698 484.505462  " style="fill: none; stroke: #000000; stroke-width: 1.5; stroke-linecap: square"/>
      <g>
       <use xlink:href="#m380bf193f8" x="265.237698" y="484.505462" style="stroke: #000000"/>
      </g>
     </g>
     <g id="text_6">
      <text style="font-size: 11px; font-family: 'IBM Plex Sans'; text-anchor: middle; fill: #4d4d4d" x="265.237698" y="497.595462" transform="rotate(-0 265.237698 497.595462)">2029</text>
     </g>
    </g>
    <g id="xtick_7">
     <g id="line2d_7">
      <path d="M 297.480923 484.505462  " style="fill: none; stroke: #000000; stroke-width: 1.5; stroke-linecap: square"/>
      <g>
       <use xlink:href="#m380bf193f8" x="297.480923" y="484.505462" style="stroke: #000000"/>
      </g>
     </g>
     <g id="text_7">
      <text style="font-size: 11px; font-family: 'IBM Plex Sans'; text-anchor: middle; fill: #4d4d4d" x="297.480923" y="497.595462" transform="rotate(-0 297.480923 497.595462)">2030</text>
     </g>
    </g>
    <g id="xtick_8">
     <g id="line2d_8">
      <path d="M 329.724149 484.505462  " style="fill: none; stroke: #000000; stroke-width: 1.5; stroke-linecap: square"/>
      <g>
       <use xlink:href="#m380bf193f8" x="329.724149" y="484.505462" style="stroke: #000000"/>
      </g>
     </g>
     <g id="text_8">
      <text style="font-size: 11px; font-family: 'IBM Plex Sans'; text-anchor: middle; fill: #4d4d4d" x="329.724149" y="497.595462" transform="rotate(-0 329.724149 497.595462)">2031</text>
     </g>
    </g>
    <g id="xtick_9">
     <g id="line2d_9">
      <path d="M 361.967374 484.505462  " style="fill: none; stroke: #000000; stroke-width: 1.5; stroke-linecap: square"/>
      <g>
       <use xlink:href="#m380bf193f8" x="361.967374" y="484.505462" style="stroke: #000000"/>
      </g>
     </g>
     <g id="text_9">
      <text style="font-size: 11px; font-family: 'IBM Plex Sans'; text-anchor: middle; fill: #4d4d4d" x="361.967374" y="497.595462" transform="rotate(-0 361.967374 497.595462)">2032</text>
     </g>
    </g>
    <g id="xtick_10">
     <g id="line2d_10">
      <path d="M 394.2106 484.505462  " style="fill: none; stroke: #000000; stroke-width: 1.5; stroke-linecap: square"/>
      <g>
       <use xlink:href="#m380bf193f8" x="394.2106" y="484.505462" style="stroke: #000000"/>
      </g>
     </g>
     <g id="text_10">
      <text style="font-size: 11px; font-family: 'IBM Plex Sans'; text-anchor: middle; fill: #4d4d4d" x="394.2106" y="497.595462" transform="rotate(-0 394.2106 497.595462)">2033</text>
     </g>
    </g>
    <g id="xtick_11">
     <g id="line2d_11">
      <path d="M 426.453825 484.505462  " style="fill: none; stroke: #000000; stroke-width: 1.5; stroke-linecap: square"/>
      <g>
       <use xlink:href="#m380bf193f8" x="426.453825" y="484.505462" style="stroke: #000000"/>
      </g>
     </g>
     <g id="text_11">
      <text style="font-size: 11px; font-family: 'IBM Plex Sans'; text-anchor: middle; fill: #4d4d4d" x="426.453825" y="497.595462" transform="rotate(-0 426.453825 497.595462)">2034</text>
     </g>
    </g>
    <g id="xtick_12">
     <g id="line2d_12">
      <path d="M 458.697051 484.505462  " style="fill: none; stroke: #000000; stroke-width: 1.5; stroke-linecap: square"/>
      <g>
       <use xlink:href="#m380bf193f8" x="458.697051" y="484.505462" style="stroke: #000000"/>
      </g>
     </g>
     <g id="text_12">
      <text style="font-size: 11px; font-family: 'IBM Plex Sans'; text-anchor: middle; fill: #4d4d4d" x="458.697051" y="497.595462" transform="rotate(-0 458.697051 497.595462)">2035</text>
     </g>
    </g>
    <g id="xtick_13">
     <g id="line2d_13">
      <path d="M 490.940276 484.505462  " style="fill: none; stroke: #000000; stroke-width: 1.5; stroke-linecap: square"/>
      <g>
       <use xlink:href="#m380bf193f8" x="490.940276" y="484.505462" style="stroke: #000000"/>
      </g>
     </g>
     <g id="text_13">
      <text style="font-size: 11px; font-family: 'IBM Plex Sans'; text-anchor: middle; fill: #4d4d4d" x="490.940276" y="497.595462" transform="rotate(-0 490.940276 497.595462)">2036</text>
     </g>
    </g>
    <g id="xtick_14">
     <g id="line2d_14">
      <path d="M 523.183502 484.505462  " style="fill: none; stroke: #000000; stroke-width: 1.5; stroke-linecap: square"/>
      <g>
       <use xlink:href="#m380bf193f8" x="523.183502" y="484.505462" style="stroke: #000000"/>
      </g>
     </g>
     <g id="text_14">
      <text style="font-size: 11px; font-family: 'IBM Plex Sans'; text-anchor: middle; fill: #4d4d4d" x="523.183502" y="497.595462" transform="rotate(-0 523.183502 497.595462)">2037</text>
     </g>
    </g>
    <g id="xtick_15">
     <g id="line2d_15">
      <path d="M 555.426727 484.505462  " style="fill: none; stroke: #000000; stroke-width: 1.5; stroke-linecap: square"/>
      <g>
       <use xlink:href="#m380bf193f8" x="555.426727" y="484.505462" style="stroke: #000000"/>
      </g>
     </g>
     <g id="text_15">
      <text style="font-size: 11px; font-family: 'IBM Plex Sans'; text-anchor: middle; fill: #4d4d4d" x="555.426727" y="497.595462" transform="rotate(-0 555.426727 497.595462)">2038</text>
     </g>
    </g>
    <g id="xtick_16">
     <g id="line2d_16">
      <path d="M 587.669953 484.505462  " style="fill: none; stroke: #000000; stroke-width: 1.5; stroke-linecap: square"/>
      <g>
       <use xlink:href="#m380bf193f8" x="587.669953" y="484.505462" style="stroke: #000000"/>
      </g>
     </g>
     <g id="text_16">
      <text style="font-size: 11px; font-family: 'IBM Plex Sans'; text-anchor: middle; fill: #4d4d4d" x="587.669953" y="497.595462" transform="rotate(-0 587.669953 497.595462)">2039</text>
     </g>
    </g>
   </g>
   <g id="matplotlib.axis_2">
    <g id="ytick_1">
     <g id="line2d_17">
      <path d="M 56.462812 484.505462  L 748.08 484.505462  " clip-path="url(#p568b685310)" style="fill: none; stroke: #e5e5e5; stroke-linecap: square"/>
     </g>
     <g id="text_17">
      <text style="font-size: 11px; font-family: 'IBM Plex Sans'; text-anchor: start; fill: #4d4d4d" x="47.662812" y="488.575462" transform="rotate(-0 47.662812 488.575462)">0</text>
     </g>
    </g>
    <g id="ytick_2">
     <g id="line2d_18">
      <path d="M 56.462812 397.801462  L 748.08 397.801462  " clip-path="url(#p568b685310)" style="fill: none; stroke: #e5e5e5; stroke-linecap: square"/>
     </g>
     <g id="text_18">
      <text style="font-size: 11px; font-family: 'IBM Plex Sans'; text-anchor: start; fill: #4d4d4d" x="34.462812" y="401.871462" transform="rotate(-0 34.462812 401.871462)">500</text>
     </g>
    </g>
    <g id="ytick_3">
     <g id="line2d_19">
      <path d="M 56.462812 311.097462  L 748.08 311.097462  " clip-path="url(#p568b685310)" style="fill: none; stroke: #e5e5e5; stroke-linecap: square"/>
     </g>
     <g id="text_19">
      <text style="font-size: 11px; font-family: 'IBM Plex Sans'; text-anchor: start; fill: #4d4d4d" x="27.862813" y="315.167462" transform="rotate(-0 27.862813 315.167462)">1000</text>
     </g>
    </g>
    <g id="ytick_4">
     <g id="line2d_20">
      <path d="M 56.462812 224.393462  L 748.08 224.393462  " clip-path="url(#p568b685310)" style="fill: none; stroke: #e5e5e5; stroke-linecap: square"/>
     </g>
     <g id="text_20">
      <text style="font-size: 11px; font-family: 'IBM Plex Sans'; text-anchor: start; fill: #4d4d4d" x="27.862813" y="228.463462" transform="rotate(-0 27.862813 228.463462)">1500</text>
     </g>
    </g>
    <g id="ytick_5">
     <g id="line2d_21">
      <path d="M 56.462812 137.689462  L 748.08 137.689462  " clip-path="url(#p568b685310)" style="fill: none; stroke: #e5e5e5; stroke-linecap: square"/>
     </g>
     <g id="text_21">
      <text style="font-size: 11px; font-family: 'IBM Plex Sans'; text-anchor: start; fill: #4d4d4d" x="27.862813" y="141.759462" transform="rotate(-0 27.862813 141.759462)">2000</text>
     </g>
    </g>
    <g id="ytick_6">
     <g id="line2d_22">
      <path d="M 56.462812 50.985462  L 748.08 50.985462  " clip-path="url(#p568b685310)" style="fill: none; stroke: #e5e5e5; stroke-linecap: square"/>
     </g>
     <g id="text_22">
      <text style="font-size: 11px; font-family: 'IBM Plex Sans'; text-anchor: start; fill: #4d4d4d" x="27.862813" y="55.055462" transform="rotate(-0 27.862813 55.055462)">2500</text>
     </g>
    </g>
    <g id="ytick_7">
     <g id="line2d_23">
      <path d="M 56.462812 441.153462  L 748.08 441.153462  " clip-path="url(#p568b685310)" style="fill: none; stroke: #fafafa; stroke-width: 0.5; stroke-linecap: square"/>
     </g>
    </g>
    <g id="ytick_8">
     <g id="line2d_24">
      <path d="M 56.462812 354.449462  L 748.08 354.449462  " clip-path="url(#p568b685310)" style="fill: none; stroke: #fafafa; stroke-width: 0.5; stroke-linecap: square"/>
     </g>
    </g>
    <g id="ytick_9">
     <g id="line2d_25">
      <path d="M 56.462812 267.745462  L 748.08 267.745462  " clip-path="url(#p568b685310)" style="fill: none; stroke: #fafafa; stroke-width: 0.5; stroke-linecap: square"/>
     </g>
    </g>
    <g id="ytick_10">
     <g id="line2d_26">
      <path d="M 56.462812 181.041462  L 748.08 181.041462  " clip-path="url(#p568b685310)" style="fill: none; stroke: #fafafa; stroke-width: 0.5; stroke-linecap: square"/>
     </g>
    </g>
    <g id="ytick_11">
     <g id="line2d_27">
      <path d="M 56.462812 94.337462  L 748.08 94.337462  " clip-path="url(#p568b685310)" style="fill: none; stroke: #fafafa; stroke-width: 0.5; stroke-linecap: square"/>
     </g>
    </g>
   </g>
   <g id="FillBetweenPolyCollection_1">
    <path d="M 104.02157 155.550486  L 104.02157 155.897302  L 136.264796 157.80479  L 168.508021 160.232502  L 200.751247 161.793174  L 232.994472 163.180438  L 265.237698 164.047478  L 297.480923 164.394294  L 329.724149 164.047478  L 361.967374 163.00703  L 394.2106 161.619766  L 426.453825 159.53887  L 458.697051 157.457974  L 490.940276 154.856854  L 523.183502 151.908918  L 555.426727 149.13439  L 587.669953 145.839638  L 587.669953 143.758742  L 587.669953 143.758742  L 555.426727 147.053494  L 523.183502 150.00143  L 490.940276 153.122774  L 458.697051 155.723894  L 426.453825 157.978198  L 394.2106 160.232502  L 361.967374 161.793174  L 329.724149 163.00703  L 297.480923 163.527254  L 265.237698 163.353846  L 232.994472 162.486806  L 200.751247 161.27295  L 168.508021 159.712278  L 136.264796 157.457974  L 104.02157 155.550486  z " clip-path="url(#p568b685310)" style="fill: #fc9706; fill-opacity: 0.25098"/>
   </g>
   <g id="line2d_28">
    <path d="M 104.02157 155.897302  L 136.264796 157.80479  L 168.508021 160.232502  L 200.751247 161.793174  L 232.994472 163.180438  L 265.237698 164.047478  L 297.480923 164.394294  L 329.724149 164.047478  L 361.967374 163.00703  L 394.2106 161.619766  L 426.453825 159.53887  L 458.697051 157.457974  L 490.940276 154.856854  L 523.183502 151.908918  L 555.426727 149.13439  L 587.669953 145.839638  " clip-path="url(#p568b685310)" style="fill: none; stroke: #000000; stroke-opacity: 0; stroke-width: 0.886227; stroke-linejoin: miter"/>
   </g>
   <g id="line2d_29">
    <path d="M 104.02157 155.550486  L 136.264796 157.457974  L 168.508021 159.712278  L 200.751247 161.27295  L 232.994472 162.486806  L 265.237698 163.353846  L 297.480923 163.527254  L 329.724149 163.00703  L 361.967374 161.793174  L 394.2106 160.232502  L 426.453825 157.978198  L 458.697051 155.723894  L 490.940276 153.122774  L 523.183502 150.00143  L 555.426727 147.053494  L 587.669953 143.758742  " clip-path="url(#p568b685310)" style="fill: none; stroke: #000000; stroke-opacity: 0; stroke-width: 0.886227; stroke-linejoin: miter"/>
   </g>
   <g id="FillBetweenPolyCollection_2">
    <path d="M 104.02157 251.618518  L 104.02157 256.64735  L 136.264796 256.994166  L 168.508021 257.340982  L 200.751247 257.340982  L 232.994472 257.340982  L 265.237698 256.473942  L 297.480923 255.260086  L 329.724149 253.699414  L 361.967374 251.791926  L 394.2106 249.190806  L 426.453825 246.763094  L 458.697051 243.294934  L 490.940276 240.000182  L 523.183502 235.83839  L 555.426727 232.023414  L 587.669953 228.90207  L 587.669953 192.48639  L 587.669953 192.48639  L 555.426727 197.341814  L 523.183502 203.064278  L 490.940276 209.133558  L 458.697051 214.509206  L 426.453825 220.23167  L 394.2106 224.913686  L 361.967374 229.942518  L 329.724149 234.451126  L 297.480923 238.786326  L 265.237698 242.77471  L 232.994472 245.896054  L 200.751247 247.97695  L 168.508021 249.537622  L 136.264796 250.57807  L 104.02157 251.618518  z " clip-path="url(#p568b685310)" style="fill: #68bed8; fill-opacity: 0.25098"/>
   </g>
   <g id="line2d_30">
    <path d="M 104.02157 256.64735  L 136.264796 256.994166  L 168.508021 257.340982  L 200.751247 257.340982  L 232.994472 257.340982  L 265.237698 256.473942  L 297.480923 255.260086  L 329.724149 253.699414  L 361.967374 251.791926  L 394.2106 249.190806  L 426.453825 246.763094  L 458.697051 243.294934  L 490.940276 240.000182  L 523.183502 235.83839  L 555.426727 232.023414  L 587.669953 228.90207  " clip-path="url(#p568b685310)" style="fill: none; stroke: #000000; stroke-opacity: 0; stroke-width: 0.886227; stroke-linejoin: miter"/>
   </g>
   <g id="line2d_31">
    <path d="M 104.02157 251.618518  L 136.264796 250.57807  L 168.508021 249.537622  L 200.751247 247.97695  L 232.994472 245.896054  L 265.237698 242.77471  L 297.480923 238.786326  L 329.724149 234.451126  L 361.967374 229.942518  L 394.2106 224.913686  L 426.453825 220.23167  L 458.697051 214.509206  L 490.940276 209.133558  L 523.183502 203.064278  L 555.426727 197.341814  L 587.669953 192.48639  " clip-path="url(#p568b685310)" style="fill: none; stroke: #000000; stroke-opacity: 0; stroke-width: 0.886227; stroke-linejoin: miter"/>
   </g>
   <g id="line2d_32">
    <path d="M 104.02157 155.550486  L 136.264796 157.457974  L 168.508021 159.712278  L 200.751247 161.27295  L 232.994472 162.486806  L 265.237698 163.353846  L 297.480923 163.527254  L 329.724149 163.00703  L 361.967374 161.793174  L 394.2106 160.232502  L 426.453825 157.978198  L 458.697051 155.723894  L 490.940276 153.122774  L 523.183502 150.00143  L 555.426727 147.053494  L 587.669953 143.758742  " clip-path="url(#p568b685310)" style="fill: none; stroke-dasharray: 5.246463,2.268741; stroke-dashoffset: 0; stroke: #fc9706; stroke-width: 1.417963"/>
   </g>
   <g id="line2d_33">
    <path d="M 104.02157 256.64735  L 136.264796 256.994166  L 168.508021 257.340982  L 200.751247 257.340982  L 232.994472 257.340982  L 265.237698 256.473942  L 297.480923 255.260086  L 329.724149 253.699414  L 361.967374 251.791926  L 394.2106 249.190806  L 426.453825 246.763094  L 458.697051 243.294934  L 490.940276 240.000182  L 523.183502 235.83839  L 555.426727 232.023414  L 587.669953 228.90207  " clip-path="url(#p568b685310)" style="fill: none; stroke-dasharray: 5.246463,2.268741; stroke-dashoffset: 0; stroke: #68bed8; stroke-width: 1.417963"/>
   </g>
   <g id="patch_3">
    <path d="M 592.506437 571.209462  L 785.96579 571.209462  L 785.96579 -35.718538  L 592.506437 -35.718538  z " clip-path="url(#p568b685310)" style="fill: #ffffff"/>
   </g>
   <g id="LineCollection_1">
    <path d="M 104.02157 251.618518  L 104.02157 155.897302  " clip-path="url(#p568b685310)" style="fill: none; stroke: #555555; stroke-width: 0.886227"/>
   </g>
   <g id="text_23">
    <text style="font-weight: 700; font-size: 15px; font-family: 'GT Planar'; text-anchor: start" x="56.462812" y="17.939062" transform="rotate(-0 56.462812 17.939062)">RIE's </text>
   </g>
   <g id="text_24">
    <text style="font-weight: 700; font-size: 15px; font-family: 'GT Planar'; text-anchor: start; fill: #68bed8" x="97.058378" y="17.939062" transform="rotate(-0 97.058378 17.939062)">winter peak </text>
   </g>
   <g id="text_25">
    <text style="font-weight: 700; font-size: 15px; font-family: 'GT Planar'; text-anchor: start" x="184.999812" y="17.939062" transform="rotate(-0 184.999812 17.939062)"> doesn't catch the</text>
   </g>
   <g id="text_26">
    <text style="font-weight: 700; font-size: 15px; font-family: 'GT Planar'; text-anchor: start; fill: #fc9706" x="314.755616" y="17.939062" transform="rotate(-0 314.755616 17.939062)">summer peak </text>
   </g>
   <g id="text_27">
    <text style="font-weight: 700; font-size: 15px; font-family: 'GT Planar'; text-anchor: start" x="411.791207" y="17.939062" transform="rotate(-0 411.791207 17.939062)"> by 2039</text>
   </g>
   <g id="LineCollection_2">
    <path d="M 587.669953 192.48639  L 587.669953 145.839638  " clip-path="url(#p568b685310)" style="fill: none; stroke: #555555; stroke-width: 0.886227"/>
   </g>
   <g id="line2d_34">
    <path d="M 104.02157 155.897302  L 136.264796 157.80479  L 168.508021 160.232502  L 200.751247 161.793174  L 232.994472 163.180438  L 265.237698 164.047478  L 297.480923 164.394294  L 329.724149 164.047478  L 361.967374 163.00703  L 394.2106 161.619766  L 426.453825 159.53887  L 458.697051 157.457974  L 490.940276 154.856854  L 523.183502 151.908918  L 555.426727 149.13439  L 587.669953 145.839638  " clip-path="url(#p568b685310)" style="fill: none; stroke: #fc9706; stroke-width: 1.772454"/>
   </g>
   <g id="line2d_35">
    <path d="M 104.02157 251.618518  L 136.264796 250.57807  L 168.508021 249.537622  L 200.751247 247.97695  L 232.994472 245.896054  L 265.237698 242.77471  L 297.480923 238.786326  L 329.724149 234.451126  L 361.967374 229.942518  L 394.2106 224.913686  L 426.453825 220.23167  L 458.697051 214.509206  L 490.940276 209.133558  L 523.183502 203.064278  L 555.426727 197.341814  L 587.669953 192.48639  " clip-path="url(#p568b685310)" style="fill: none; stroke: #68bed8; stroke-width: 1.772454"/>
   </g>
   <g id="PathCollection_1">
    <path d="M 104.02157 158.11287  C 104.609145 158.11287 105.172734 157.879424 105.588213 157.463945  C 106.003691 157.048467 106.237137 156.484878 106.237137 155.897302  C 106.237137 155.309727 106.003691 154.746138 105.588213 154.33066  C 105.172734 153.915181 104.609145 153.681735 104.02157 153.681735  C 103.433995 153.681735 102.870406 153.915181 102.454927 154.33066  C 102.039449 154.746138 101.806003 155.309727 101.806003 155.897302  C 101.806003 156.484878 102.039449 157.048467 102.454927 157.463945  C 102.870406 157.879424 103.433995 158.11287 104.02157 158.11287  z " clip-path="url(#p568b685310)" style="fill: #fc9706; stroke: #fc9706; stroke-width: 0.886227"/>
    <path d="M 104.02157 253.834086  C 104.609145 253.834086 105.172734 253.60064 105.588213 253.185161  C 106.003691 252.769683 106.237137 252.206094 106.237137 251.618518  C 106.237137 251.030943 106.003691 250.467354 105.588213 250.051876  C 105.172734 249.636397 104.609145 249.402951 104.02157 249.402951  C 103.433995 249.402951 102.870406 249.636397 102.454927 250.051876  C 102.039449 250.467354 101.806003 251.030943 101.806003 251.618518  C 101.806003 252.206094 102.039449 252.769683 102.454927 253.185161  C 102.870406 253.60064 103.433995 253.834086 104.02157 253.834086  z " clip-path="url(#p568b685310)" style="fill: #68bed8; stroke: #68bed8; stroke-width: 0.886227"/>
    <path d="M 136.264796 160.020358  C 136.852371 160.020358 137.41596 159.786912 137.831438 159.371433  C 138.246917 158.955955 138.480363 158.392366 138.480363 157.80479  C 138.480363 157.217215 138.246917 156.653626 137.831438 156.238148  C 137.41596 155.822669 136.852371 155.589223 136.264796 155.589223  C 135.67722 155.589223 135.113631 155.822669 134.698153 156.238148  C 134.282675 156.653626 134.049228 157.217215 134.049228 157.80479  C 134.049228 158.392366 134.282675 158.955955 134.698153 159.371433  C 135.113631 159.786912 135.67722 160.020358 136.264796 160.020358  z " clip-path="url(#p568b685310)" style="fill: #fc9706; stroke: #fc9706; stroke-width: 0.886227"/>
    <path d="M 136.264796 252.793638  C 136.852371 252.793638 137.41596 252.560192 137.831438 252.144713  C 138.246917 251.729235 138.480363 251.165646 138.480363 250.57807  C 138.480363 249.990495 138.246917 249.426906 137.831438 249.011428  C 137.41596 248.595949 136.852371 248.362503 136.264796 248.362503  C 135.67722 248.362503 135.113631 248.595949 134.698153 249.011428  C 134.282675 249.426906 134.049228 249.990495 134.049228 250.57807  C 134.049228 251.165646 134.282675 251.729235 134.698153 252.144713  C 135.113631 252.560192 135.67722 252.793638 136.264796 252.793638  z " clip-path="url(#p568b685310)" style="fill: #68bed8; stroke: #68bed8; stroke-width: 0.886227"/>
    <path d="M 168.508021 162.44807  C 169.095597 162.44807 169.659185 162.214624 170.074664 161.799145  C 170.490142 161.383667 170.723589 160.820078 170.723589 160.232502  C 170.723589 159.644927 170.490142 159.081338 170.074664 158.66586  C 169.659185 158.250381 169.095597 158.016935 168.508021 158.016935  C 167.920446 158.016935 167.356857 158.250381 166.941379 158.66586  C 166.5259 159.081338 166.292454 159.644927 166.292454 160.232502  C 166.292454 160.820078 166.5259 161.383667 166.941379 161.799145  C 167.356857 162.214624 167.920446 162.44807 168.508021 162.44807  z " clip-path="url(#p568b685310)" style="fill: #fc9706; stroke: #fc9706; stroke-width: 0.886227"/>
    <path d="M 168.508021 251.75319  C 169.095597 251.75319 169.659185 251.519744 170.074664 251.104265  C 170.490142 250.688787 170.723589 250.125198 170.723589 249.537622  C 170.723589 248.950047 170.490142 248.386458 170.074664 247.97098  C 169.659185 247.555501 169.095597 247.322055 168.508021 247.322055  C 167.920446 247.322055 167.356857 247.555501 166.941379 247.97098  C 166.5259 248.386458 166.292454 248.950047 166.292454 249.537622  C 166.292454 250.125198 166.5259 250.688787 166.941379 251.104265  C 167.356857 251.519744 167.920446 251.75319 168.508021 251.75319  z " clip-path="url(#p568b685310)" style="fill: #68bed8; stroke: #68bed8; stroke-width: 0.886227"/>
    <path d="M 200.751247 164.008742  C 201.338822 164.008742 201.902411 163.775296 202.317889 163.359817  C 202.733368 162.944339 202.966814 162.38075 202.966814 161.793174  C 202.966814 161.205599 202.733368 160.64201 202.317889 160.226532  C 201.902411 159.811053 201.338822 159.577607 200.751247 159.577607  C 200.163671 159.577607 199.600083 159.811053 199.184604 160.226532  C 198.769126 160.64201 198.535679 161.205599 198.535679 161.793174  C 198.535679 162.38075 198.769126 162.944339 199.184604 163.359817  C 199.600083 163.775296 200.163671 164.008742 200.751247 164.008742  z " clip-path="url(#p568b685310)" style="fill: #fc9706; stroke: #fc9706; stroke-width: 0.886227"/>
    <path d="M 200.751247 250.192518  C 201.338822 250.192518 201.902411 249.959072 202.317889 249.543593  C 202.733368 249.128115 202.966814 248.564526 202.966814 247.97695  C 202.966814 247.389375 202.733368 246.825786 202.317889 246.410308  C 201.902411 245.994829 201.338822 245.761383 200.751247 245.761383  C 200.163671 245.761383 199.600083 245.994829 199.184604 246.410308  C 198.769126 246.825786 198.535679 247.389375 198.535679 247.97695  C 198.535679 248.564526 198.769126 249.128115 199.184604 249.543593  C 199.600083 249.959072 200.163671 250.192518 200.751247 250.192518  z " clip-path="url(#p568b685310)" style="fill: #68bed8; stroke: #68bed8; stroke-width: 0.886227"/>
    <path d="M 232.994472 165.396006  C 233.582048 165.396006 234.145636 165.16256 234.561115 164.747081  C 234.976593 164.331603 235.21004 163.768014 235.21004 163.180438  C 235.21004 162.592863 234.976593 162.029274 234.561115 161.613796  C 234.145636 161.198317 233.582048 160.964871 232.994472 160.964871  C 232.406897 160.964871 231.843308 161.198317 231.42783 161.613796  C 231.012351 162.029274 230.778905 162.592863 230.778905 163.180438  C 230.778905 163.768014 231.012351 164.331603 231.42783 164.747081  C 231.843308 165.16256 232.406897 165.396006 232.994472 165.396006  z " clip-path="url(#p568b685310)" style="fill: #fc9706; stroke: #fc9706; stroke-width: 0.886227"/>
    <path d="M 232.994472 248.111622  C 233.582048 248.111622 234.145636 247.878176 234.561115 247.462697  C 234.976593 247.047219 235.21004 246.48363 235.21004 245.896054  C 235.21004 245.308479 234.976593 244.74489 234.561115 244.329412  C 234.145636 243.913933 233.582048 243.680487 232.994472 243.680487  C 232.406897 243.680487 231.843308 243.913933 231.42783 244.329412  C 231.012351 244.74489 230.778905 245.308479 230.778905 245.896054  C 230.778905 246.48363 231.012351 247.047219 231.42783 247.462697  C 231.843308 247.878176 232.406897 248.111622 232.994472 248.111622  z " clip-path="url(#p568b685310)" style="fill: #68bed8; stroke: #68bed8; stroke-width: 0.886227"/>
    <path d="M 265.237698 166.263046  C 265.825273 166.263046 266.388862 166.0296 266.80434 165.614121  C 267.219819 165.198643 267.453265 164.635054 267.453265 164.047478  C 267.453265 163.459903 267.219819 162.896314 266.80434 162.480836  C 266.388862 162.065357 265.825273 161.831911 265.237698 161.831911  C 264.650122 161.831911 264.086534 162.065357 263.671055 162.480836  C 263.255577 162.896314 263.02213 163.459903 263.02213 164.047478  C 263.02213 164.635054 263.255577 165.198643 263.671055 165.614121  C 264.086534 166.0296 264.650122 166.263046 265.237698 166.263046  z " clip-path="url(#p568b685310)" style="fill: #fc9706; stroke: #fc9706; stroke-width: 0.886227"/>
    <path d="M 265.237698 244.990278  C 265.825273 244.990278 266.388862 244.756832 266.80434 244.341353  C 267.219819 243.925875 267.453265 243.362286 267.453265 242.77471  C 267.453265 242.187135 267.219819 241.623546 266.80434 241.208068  C 266.388862 240.792589 265.825273 240.559143 265.237698 240.559143  C 264.650122 240.559143 264.086534 240.792589 263.671055 241.208068  C 263.255577 241.623546 263.02213 242.187135 263.02213 242.77471  C 263.02213 243.362286 263.255577 243.925875 263.671055 244.341353  C 264.086534 244.756832 264.650122 244.990278 265.237698 244.990278  z " clip-path="url(#p568b685310)" style="fill: #68bed8; stroke: #68bed8; stroke-width: 0.886227"/>
    <path d="M 297.480923 166.609862  C 298.068499 166.609862 298.632087 166.376416 299.047566 165.960937  C 299.463044 165.545459 299.696491 164.98187 299.696491 164.394294  C 299.696491 163.806719 299.463044 163.24313 299.047566 162.827652  C 298.632087 162.412173 298.068499 162.178727 297.480923 162.178727  C 296.893348 162.178727 296.329759 162.412173 295.914281 162.827652  C 295.498802 163.24313 295.265356 163.806719 295.265356 164.394294  C 295.265356 164.98187 295.498802 165.545459 295.914281 165.960937  C 296.329759 166.376416 296.893348 166.609862 297.480923 166.609862  z " clip-path="url(#p568b685310)" style="fill: #fc9706; stroke: #fc9706; stroke-width: 0.886227"/>
    <path d="M 297.480923 241.001894  C 298.068499 241.001894 298.632087 240.768448 299.047566 240.352969  C 299.463044 239.937491 299.696491 239.373902 299.696491 238.786326  C 299.696491 238.198751 299.463044 237.635162 299.047566 237.219684  C 298.632087 236.804205 298.068499 236.570759 297.480923 236.570759  C 296.893348 236.570759 296.329759 236.804205 295.914281 237.219684  C 295.498802 237.635162 295.265356 238.198751 295.265356 238.786326  C 295.265356 239.373902 295.498802 239.937491 295.914281 240.352969  C 296.329759 240.768448 296.893348 241.001894 297.480923 241.001894  z " clip-path="url(#p568b685310)" style="fill: #68bed8; stroke: #68bed8; stroke-width: 0.886227"/>
    <path d="M 329.724149 166.263046  C 330.311724 166.263046 330.875313 166.0296 331.290791 165.614121  C 331.70627 165.198643 331.939716 164.635054 331.939716 164.047478  C 331.939716 163.459903 331.70627 162.896314 331.290791 162.480836  C 330.875313 162.065357 330.311724 161.831911 329.724149 161.831911  C 329.136574 161.831911 328.572985 162.065357 328.157506 162.480836  C 327.742028 162.896314 327.508582 163.459903 327.508582 164.047478  C 327.508582 164.635054 327.742028 165.198643 328.157506 165.614121  C 328.572985 166.0296 329.136574 166.263046 329.724149 166.263046  z " clip-path="url(#p568b685310)" style="fill: #fc9706; stroke: #fc9706; stroke-width: 0.886227"/>
    <path d="M 329.724149 236.666694  C 330.311724 236.666694 330.875313 236.433248 331.290791 236.017769  C 331.70627 235.602291 331.939716 235.038702 331.939716 234.451126  C 331.939716 233.863551 331.70627 233.299962 331.290791 232.884484  C 330.875313 232.469005 330.311724 232.235559 329.724149 232.235559  C 329.136574 232.235559 328.572985 232.469005 328.157506 232.884484  C 327.742028 233.299962 327.508582 233.863551 327.508582 234.451126  C 327.508582 235.038702 327.742028 235.602291 328.157506 236.017769  C 328.572985 236.433248 329.136574 236.666694 329.724149 236.666694  z " clip-path="url(#p568b685310)" style="fill: #68bed8; stroke: #68bed8; stroke-width: 0.886227"/>
    <path d="M 361.967374 165.222598  C 362.55495 165.222598 363.118539 164.989152 363.534017 164.573673  C 363.949496 164.158195 364.182942 163.594606 364.182942 163.00703  C 364.182942 162.419455 363.949496 161.855866 363.534017 161.440388  C 363.118539 161.024909 362.55495 160.791463 361.967374 160.791463  C 361.379799 160.791463 360.81621 161.024909 360.400732 161.440388  C 359.985253 161.855866 359.751807 162.419455 359.751807 163.00703  C 359.751807 163.594606 359.985253 164.158195 360.400732 164.573673  C 360.81621 164.989152 361.379799 165.222598 361.967374 165.222598  z " clip-path="url(#p568b685310)" style="fill: #fc9706; stroke: #fc9706; stroke-width: 0.886227"/>
    <path d="M 361.967374 232.158086  C 362.55495 232.158086 363.118539 231.92464 363.534017 231.509161  C 363.949496 231.093683 364.182942 230.530094 364.182942 229.942518  C 364.182942 229.354943 363.949496 228.791354 363.534017 228.375876  C 363.118539 227.960397 362.55495 227.726951 361.967374 227.726951  C 361.379799 227.726951 360.81621 227.960397 360.400732 228.375876  C 359.985253 228.791354 359.751807 229.354943 359.751807 229.942518  C 359.751807 230.530094 359.985253 231.093683 360.400732 231.509161  C 360.81621 231.92464 361.379799 232.158086 361.967374 232.158086  z " clip-path="url(#p568b685310)" style="fill: #68bed8; stroke: #68bed8; stroke-width: 0.886227"/>
    <path d="M 394.2106 163.835334  C 394.798175 163.835334 395.361764 163.601888 395.777243 163.186409  C 396.192721 162.770931 396.426167 162.207342 396.426167 161.619766  C 396.426167 161.032191 396.192721 160.468602 395.777243 160.053124  C 395.361764 159.637645 394.798175 159.404199 394.2106 159.404199  C 393.623025 159.404199 393.059436 159.637645 392.643957 160.053124  C 392.228479 160.468602 391.995033 161.032191 391.995033 161.619766  C 391.995033 162.207342 392.228479 162.770931 392.643957 163.186409  C 393.059436 163.601888 393.623025 163.835334 394.2106 163.835334  z " clip-path="url(#p568b685310)" style="fill: #fc9706; stroke: #fc9706; stroke-width: 0.886227"/>
    <path d="M 394.2106 227.129254  C 394.798175 227.129254 395.361764 226.895808 395.777243 226.480329  C 396.192721 226.064851 396.426167 225.501262 396.426167 224.913686  C 396.426167 224.326111 396.192721 223.762522 395.777243 223.347044  C 395.361764 222.931565 394.798175 222.698119 394.2106 222.698119  C 393.623025 222.698119 393.059436 222.931565 392.643957 223.347044  C 392.228479 223.762522 391.995033 224.326111 391.995033 224.913686  C 391.995033 225.501262 392.228479 226.064851 392.643957 226.480329  C 393.059436 226.895808 393.623025 227.129254 394.2106 227.129254  z " clip-path="url(#p568b685310)" style="fill: #68bed8; stroke: #68bed8; stroke-width: 0.886227"/>
    <path d="M 426.453825 161.754438  C 427.041401 161.754438 427.60499 161.520992 428.020468 161.105513  C 428.435947 160.690035 428.669393 160.126446 428.669393 159.53887  C 428.669393 158.951295 428.435947 158.387706 428.020468 157.972228  C 427.60499 157.556749 427.041401 157.323303 426.453825 157.323303  C 425.86625 157.323303 425.302661 157.556749 424.887183 157.972228  C 424.471704 158.387706 424.238258 158.951295 424.238258 159.53887  C 424.238258 160.126446 424.471704 160.690035 424.887183 161.105513  C 425.302661 161.520992 425.86625 161.754438 426.453825 161.754438  z " clip-path="url(#p568b685310)" style="fill: #fc9706; stroke: #fc9706; stroke-width: 0.886227"/>
    <path d="M 426.453825 222.447238  C 427.041401 222.447238 427.60499 222.213792 428.020468 221.798313  C 428.435947 221.382835 428.669393 220.819246 428.669393 220.23167  C 428.669393 219.644095 428.435947 219.080506 428.020468 218.665028  C 427.60499 218.249549 427.041401 218.016103 426.453825 218.016103  C 425.86625 218.016103 425.302661 218.249549 424.887183 218.665028  C 424.471704 219.080506 424.238258 219.644095 424.238258 220.23167  C 424.238258 220.819246 424.471704 221.382835 424.887183 221.798313  C 425.302661 222.213792 425.86625 222.447238 426.453825 222.447238  z " clip-path="url(#p568b685310)" style="fill: #68bed8; stroke: #68bed8; stroke-width: 0.886227"/>
    <path d="M 458.697051 159.673542  C 459.284626 159.673542 459.848215 159.440096 460.263694 159.024617  C 460.679172 158.609139 460.912618 158.04555 460.912618 157.457974  C 460.912618 156.870399 460.679172 156.30681 460.263694 155.891332  C 459.848215 155.475853 459.284626 155.242407 458.697051 155.242407  C 458.109476 155.242407 457.545887 155.475853 457.130408 155.891332  C 456.71493 156.30681 456.481484 156.870399 456.481484 157.457974  C 456.481484 158.04555 456.71493 158.609139 457.130408 159.024617  C 457.545887 159.440096 458.109476 159.673542 458.697051 159.673542  z " clip-path="url(#p568b685310)" style="fill: #fc9706; stroke: #fc9706; stroke-width: 0.886227"/>
    <path d="M 458.697051 216.724774  C 459.284626 216.724774 459.848215 216.491328 460.263694 216.075849  C 460.679172 215.660371 460.912618 215.096782 460.912618 214.509206  C 460.912618 213.921631 460.679172 213.358042 460.263694 212.942564  C 459.848215 212.527085 459.284626 212.293639 458.697051 212.293639  C 458.109476 212.293639 457.545887 212.527085 457.130408 212.942564  C 456.71493 213.358042 456.481484 213.921631 456.481484 214.509206  C 456.481484 215.096782 456.71493 215.660371 457.130408 216.075849  C 457.545887 216.491328 458.109476 216.724774 458.697051 216.724774  z " clip-path="url(#p568b685310)" style="fill: #68bed8; stroke: #68bed8; stroke-width: 0.886227"/>
    <path d="M 490.940276 157.072422  C 491.527852 157.072422 492.091441 156.838976 492.506919 156.423497  C 492.922398 156.008019 493.155844 155.44443 493.155844 154.856854  C 493.155844 154.269279 492.922398 153.70569 492.506919 153.290212  C 492.091441 152.874733 491.527852 152.641287 490.940276 152.641287  C 490.352701 152.641287 489.789112 152.874733 489.373634 153.290212  C 488.958155 153.70569 488.724709 154.269279 488.724709 154.856854  C 488.724709 155.44443 488.958155 156.008019 489.373634 156.423497  C 489.789112 156.838976 490.352701 157.072422 490.940276 157.072422  z " clip-path="url(#p568b685310)" style="fill: #fc9706; stroke: #fc9706; stroke-width: 0.886227"/>
    <path d="M 490.940276 211.349126  C 491.527852 211.349126 492.091441 211.11568 492.506919 210.700201  C 492.922398 210.284723 493.155844 209.721134 493.155844 209.133558  C 493.155844 208.545983 492.922398 207.982394 492.506919 207.566916  C 492.091441 207.151437 491.527852 206.917991 490.940276 206.917991  C 490.352701 206.917991 489.789112 207.151437 489.373634 207.566916  C 488.958155 207.982394 488.724709 208.545983 488.724709 209.133558  C 488.724709 209.721134 488.958155 210.284723 489.373634 210.700201  C 489.789112 211.11568 490.352701 211.349126 490.940276 211.349126  z " clip-path="url(#p568b685310)" style="fill: #68bed8; stroke: #68bed8; stroke-width: 0.886227"/>
    <path d="M 523.183502 154.124486  C 523.771077 154.124486 524.334666 153.89104 524.750145 153.475561  C 525.165623 153.060083 525.399069 152.496494 525.399069 151.908918  C 525.399069 151.321343 525.165623 150.757754 524.750145 150.342276  C 524.334666 149.926797 523.771077 149.693351 523.183502 149.693351  C 522.595927 149.693351 522.032338 149.926797 521.616859 150.342276  C 521.201381 150.757754 520.967935 151.321343 520.967935 151.908918  C 520.967935 152.496494 521.201381 153.060083 521.616859 153.475561  C 522.032338 153.89104 522.595927 154.124486 523.183502 154.124486  z " clip-path="url(#p568b685310)" style="fill: #fc9706; stroke: #fc9706; stroke-width: 0.886227"/>
    <path d="M 523.183502 205.279846  C 523.771077 205.279846 524.334666 205.0464 524.750145 204.630921  C 525.165623 204.215443 525.399069 203.651854 525.399069 203.064278  C 525.399069 202.476703 525.165623 201.913114 524.750145 201.497636  C 524.334666 201.082157 523.771077 200.848711 523.183502 200.848711  C 522.595927 200.848711 522.032338 201.082157 521.616859 201.497636  C 521.201381 201.913114 520.967935 202.476703 520.967935 203.064278  C 520.967935 203.651854 521.201381 204.215443 521.616859 204.630921  C 522.032338 205.0464 522.595927 205.279846 523.183502 205.279846  z " clip-path="url(#p568b685310)" style="fill: #68bed8; stroke: #68bed8; stroke-width: 0.886227"/>
    <path d="M 555.426727 151.349958  C 556.014303 151.349958 556.577892 151.116512 556.99337 150.701033  C 557.408849 150.285555 557.642295 149.721966 557.642295 149.13439  C 557.642295 148.546815 557.408849 147.983226 556.99337 147.567748  C 556.577892 147.152269 556.014303 146.918823 555.426727 146.918823  C 554.839152 146.918823 554.275563 147.152269 553.860085 147.567748  C 553.444606 147.983226 553.21116 148.546815 553.21116 149.13439  C 553.21116 149.721966 553.444606 150.285555 553.860085 150.701033  C 554.275563 151.116512 554.839152 151.349958 555.426727 151.349958  z " clip-path="url(#p568b685310)" style="fill: #fc9706; stroke: #fc9706; stroke-width: 0.886227"/>
    <path d="M 555.426727 199.557382  C 556.014303 199.557382 556.577892 199.323936 556.99337 198.908457  C 557.408849 198.492979 557.642295 197.92939 557.642295 197.341814  C 557.642295 196.754239 557.408849 196.19065 556.99337 195.775172  C 556.577892 195.359693 556.014303 195.126247 555.426727 195.126247  C 554.839152 195.126247 554.275563 195.359693 553.860085 195.775172  C 553.444606 196.19065 553.21116 196.754239 553.21116 197.341814  C 553.21116 197.92939 553.444606 198.492979 553.860085 198.908457  C 554.275563 199.323936 554.839152 199.557382 555.426727 199.557382  z " clip-path="url(#p568b685310)" style="fill: #68bed8; stroke: #68bed8; stroke-width: 0.886227"/>
    <path d="M 587.669953 148.055206  C 588.257528 148.055206 588.821117 147.82176 589.236596 147.406281  C 589.652074 146.990803 589.88552 146.427214 589.88552 145.839638  C 589.88552 145.252063 589.652074 144.688474 589.236596 144.272996  C 588.821117 143.857517 588.257528 143.624071 587.669953 143.624071  C 587.082378 143.624071 586.518789 143.857517 586.10331 144.272996  C 585.687832 144.688474 585.454386 145.252063 585.454386 145.839638  C 585.454386 146.427214 585.687832 146.990803 586.10331 147.406281  C 586.518789 147.82176 587.082378 148.055206 587.669953 148.055206  z " clip-path="url(#p568b685310)" style="fill: #fc9706; stroke: #fc9706; stroke-width: 0.886227"/>
    <path d="M 587.669953 194.701958  C 588.257528 194.701958 588.821117 194.468512 589.236596 194.053033  C 589.652074 193.637555 589.88552 193.073966 589.88552 192.48639  C 589.88552 191.898815 589.652074 191.335226 589.236596 190.919748  C 588.821117 190.504269 588.257528 190.270823 587.669953 190.270823  C 587.082378 190.270823 586.518789 190.504269 586.10331 190.919748  C 585.687832 191.335226 585.454386 191.898815 585.454386 192.48639  C 585.454386 193.073966 585.687832 193.637555 586.10331 194.053033  C 586.518789 194.468512 587.082378 194.701958 587.669953 194.701958  z " clip-path="url(#p568b685310)" style="fill: #68bed8; stroke: #68bed8; stroke-width: 0.886227"/>
   </g>
   <g id="text_28">
    <g clip-path="url(#p568b685310)">
     <text style="font-style: italic; font-size: 9px; font-family: 'IBM Plex Sans'; fill: #fc9706" transform="translate(603.791566 131.82071)">HPs reduce summer</text>
    </g>
    <g clip-path="url(#p568b685310)">
     <text style="font-style: italic; font-size: 9px; font-family: 'IBM Plex Sans'; fill: #fc9706" transform="translate(603.791566 141.82871)">peak (12 MW by 2039)</text>
    </g>
   </g>
   <g id="text_29">
    <g clip-path="url(#p568b685310)">
     <text style="font-style: italic; font-size: 9px; font-family: 'IBM Plex Sans'; fill: #68bed8" transform="translate(603.791566 220.36679)">HPs add +210 MW to</text>
    </g>
    <g clip-path="url(#p568b685310)">
     <text style="font-style: italic; font-size: 9px; font-family: 'IBM Plex Sans'; fill: #68bed8" transform="translate(603.791566 230.15879)">winter peak by 2039</text>
    </g>
   </g>
   <g id="text_30">
    <g clip-path="url(#p568b685310)">
     <text style="font-size: 9px; font-family: 'IBM Plex Sans'; text-anchor: end; fill: #333333" x="97.572925" y="206.18791" transform="rotate(-0 97.572925 206.18791)">71%</text>
    </g>
   </g>
   <g id="text_31">
    <g clip-path="url(#p568b685310)">
     <text style="font-size: 9px; font-family: 'IBM Plex Sans'; text-anchor: start; fill: #333333" x="603.791566" y="171.593014" transform="rotate(-0 603.791566 171.593014)">86%</text>
    </g>
   </g>
   <g id="patch_4">
    <path d="M 56.462813 484.505462  L 587.669953 484.505462  " style="fill: none; stroke: #000000; stroke-width: 0.5; stroke-linejoin: miter; stroke-linecap: square"/>
   </g>
  </g>
  <g id="text_32">
   <text style="font-size: 13px; font-family: 'GT Planar'; fill: #333333" transform="translate(17.522813 314.245853) rotate(-90)">Net peak (MW)</text>
  </g>
 </g>
 <defs>
  <clipPath id="p568b685310">
   <rect x="56.462812" y="50.985462" width="691.617187" height="433.52"/>
  </clipPath>
 </defs>
</svg>
