<?xml version="1.0" encoding="UTF-8"?>
<svg id="Chart_Winter_Summer_Peak" data-name="Chart Winter Summer Peak" xmlns="http://www.w3.org/2000/svg" xmlns:xlink="http://www.w3.org/1999/xlink" viewBox="0 0 900 404">
  <defs>
    <style>
      @font-face {
        font-display: swap;
        font-family: 'GT Planar';
        font-style: normal;
        font-weight: 400;
        src: url('https://switchbox-data.github.io/reports/fonts/gt_planar/GT-Planar-Regular.otf') format('opentype');
      }
      @font-face {
        font-display: swap;
        font-family: 'GT Planar';
        font-style: normal;
        font-weight: 700;
        src: url('https://switchbox-data.github.io/reports/fonts/gt_planar/GT-Planar-Bold.otf') format('opentype');
      }
      @font-face {
        font-display: swap;
        font-family: 'GT-Planar-Black';
        src: url('https://switchbox-data.github.io/reports/fonts/gt_planar/GT-Planar-Black.otf') format('opentype');
      }

      text {
        font-family: 'GT Planar', sans-serif;
      }

      .sb_aeba_grid_chart_peak_load_cls-1 {
        stroke: #67bdd7;
      }

      .sb_aeba_grid_chart_peak_load_cls-1, .sb_aeba_grid_chart_peak_load_cls-2 {
        stroke-miterlimit: 10;
        stroke-width: .5px;
      }

      .sb_aeba_grid_chart_peak_load_cls-1, .sb_aeba_grid_chart_peak_load_cls-2, .sb_aeba_grid_chart_peak_load_cls-3, .sb_aeba_grid_chart_peak_load_cls-4, .sb_aeba_grid_chart_peak_load_cls-5 {
        fill: none;
      }

      .sb_aeba_grid_chart_peak_load_cls-2 {
        stroke: #f8981d;
      }

      .sb_aeba_grid_chart_peak_load_cls-3 {
        stroke-width: .25px;
      }

      .sb_aeba_grid_chart_peak_load_cls-3, .sb_aeba_grid_chart_peak_load_cls-4, .sb_aeba_grid_chart_peak_load_cls-5 {
        stroke-linejoin: round;
      }

      .sb_aeba_grid_chart_peak_load_cls-3, .sb_aeba_grid_chart_peak_load_cls-5 {
        stroke: #c7c8ca;
      }

      .sb_aeba_grid_chart_peak_load_cls-6, .sb_aeba_grid_chart_peak_load_cls-7, .sb_aeba_grid_chart_peak_load_cls-8 {
        fill: #f8981d;
      }

      .sb_aeba_grid_chart_peak_load_cls-6, .sb_aeba_grid_chart_peak_load_cls-9 {
        font-family: 'GT-Planar-Black', 'GT Planar', sans-serif;
        font-weight: 800;
      }

      .sb_aeba_grid_chart_peak_load_cls-6, .sb_aeba_grid_chart_peak_load_cls-9, .sb_aeba_grid_chart_peak_load_cls-10 {
        font-size: 7px;
      }

      .sb_aeba_grid_chart_peak_load_cls-11, .sb_aeba_grid_chart_peak_load_cls-7, .sb_aeba_grid_chart_peak_load_cls-12 {
        font-family: 'GT Planar', sans-serif;
        font-weight: 700;
      }

      .sb_aeba_grid_chart_peak_load_cls-11, .sb_aeba_grid_chart_peak_load_cls-13 {
        font-size: 8px;
      }

      .sb_aeba_grid_chart_peak_load_cls-11, .sb_aeba_grid_chart_peak_load_cls-13, .sb_aeba_grid_chart_peak_load_cls-10 {
        fill: #808285;
      }

      .sb_aeba_grid_chart_peak_load_cls-7, .sb_aeba_grid_chart_peak_load_cls-12 {
        font-size: 9px;
      }

      .sb_aeba_grid_chart_peak_load_cls-9, .sb_aeba_grid_chart_peak_load_cls-12, .sb_aeba_grid_chart_peak_load_cls-14 {
        fill: #67bdd7;
      }

      .sb_aeba_grid_chart_peak_load_cls-15 {
        fill: rgba(255, 200, 43, .15);
      }

      .sb_aeba_grid_chart_peak_load_cls-4 {
        stroke: #116183;
        stroke-linecap: round;
      }

      .sb_aeba_grid_chart_peak_load_cls-13, .sb_aeba_grid_chart_peak_load_cls-10 {
        font-family: 'GT Planar', sans-serif;
      }
    </style>
    <symbol id="Point_Peak_Summer" data-name="Point Peak Summer" viewBox="0 0 5 5">
      <circle class="sb_aeba_grid_chart_peak_load_cls-8" cx="2.5" cy="2.5" r="2.5"/>
    </symbol>
    <symbol id="Point_Peak_Winter" data-name="Point Peak Winter" viewBox="0 0 5 5">
      <circle class="sb_aeba_grid_chart_peak_load_cls-14" cx="2.5" cy="2.5" r="2.5"/>
    </symbol>
  </defs>
  <g transform="scale(1.7857)">
  <rect width="504" height="226" fill="#ffffff"/>
  <g id="Grid-2" data-name="Grid">
    <g>
      <line class="sb_aeba_grid_chart_peak_load_cls-3" x1="36.09" y1="23.15" x2="460.7" y2="23.15"/>
      <line class="sb_aeba_grid_chart_peak_load_cls-3" x1="36.09" y1="46.47" x2="460.7" y2="46.47"/>
      <line class="sb_aeba_grid_chart_peak_load_cls-3" x1="36.09" y1="68.68" x2="460.7" y2="68.68"/>
      <line class="sb_aeba_grid_chart_peak_load_cls-3" x1="36.09" y1="92" x2="460.7" y2="92"/>
      <line class="sb_aeba_grid_chart_peak_load_cls-3" x1="36.09" y1="114.21" x2="460.7" y2="114.21"/>
      <line class="sb_aeba_grid_chart_peak_load_cls-3" x1="36.09" y1="137.52" x2="460.7" y2="137.52"/>
      <line class="sb_aeba_grid_chart_peak_load_cls-3" x1="36.09" y1="159.73" x2="460.7" y2="159.73"/>
      <line class="sb_aeba_grid_chart_peak_load_cls-3" x1="36.09" y1="183.05" x2="460.7" y2="183.05"/>
    </g>
    <g>
      <line class="sb_aeba_grid_chart_peak_load_cls-3" x1="428.78" y1="23.15" x2="428.78" y2="205.26"/>
      <line class="sb_aeba_grid_chart_peak_load_cls-3" x1="386.62" y1="23.15" x2="386.62" y2="205.26"/>
      <line class="sb_aeba_grid_chart_peak_load_cls-3" x1="343.85" y1="23.15" x2="343.85" y2="205.26"/>
      <line class="sb_aeba_grid_chart_peak_load_cls-3" x1="301.69" y1="23.15" x2="301.69" y2="205.26"/>
      <line class="sb_aeba_grid_chart_peak_load_cls-3" x1="258.93" y1="23.15" x2="258.93" y2="205.26"/>
      <line class="sb_aeba_grid_chart_peak_load_cls-3" x1="216.77" y1="23.15" x2="216.77" y2="205.26"/>
      <line class="sb_aeba_grid_chart_peak_load_cls-3" x1="174.01" y1="23.15" x2="174.01" y2="205.26"/>
      <line class="sb_aeba_grid_chart_peak_load_cls-3" x1="131.85" y1="23.15" x2="131.85" y2="205.26"/>
      <line class="sb_aeba_grid_chart_peak_load_cls-3" x1="89.09" y1="23.15" x2="89.09" y2="205.26"/>
      <line class="sb_aeba_grid_chart_peak_load_cls-3" x1="46.93" y1="23.15" x2="46.93" y2="205.26"/>
    </g>
  </g>
  <g id="Data_Fill" data-name="Data Fill">
    <polygon class="sb_aeba_grid_chart_peak_load_cls-15" points="461 113.65 457.39 111.43 453.77 79.23 450.16 65.9 446.54 60.35 442.93 122.53 439.32 120.31 436.31 111.43 432.69 102.55 429.08 98.11 425.46 100.33 421.85 118.09 418.24 121.42 414.62 104.77 411.01 75.9 408 73.68 404.38 77.01 400.77 106.99 397.16 119.2 393.54 116.98 389.93 110.32 386.32 102.55 382.7 110.32 379.69 108.1 376.08 106.99 372.46 68.12 368.85 92.55 365.24 74.79 361.62 101.44 358.01 115.87 354.39 128.09 351.38 114.76 347.77 99.22 344.16 111.43 340.54 105.88 336.93 112.54 333.31 122.53 329.7 99.22 326.09 68.12 323.08 67.01 319.46 93.66 315.85 82.56 312.23 122.53 308.62 112.54 305.01 103.66 301.39 100.33 297.78 109.21 294.77 111.43 291.15 116.98 287.54 93.66 283.93 68.12 280.31 77.01 276.7 64.79 273.09 102.55 269.47 125.87 266.46 111.43 262.85 106.99 259.23 103.66 255.62 102.55 252.01 112.54 248.39 120.31 244.78 95.88 241.16 70.35 238.15 65.9 216.47 114.76 212.86 100.33 209.85 108.1 206.23 96.99 202.62 87 199 75.9 195.39 67.01 191.78 81.45 188.16 112.54 184.55 120.31 181.54 104.77 177.92 100.33 174.31 92.55 170.7 104.77 167.08 108.1 163.47 101.44 159.86 62.57 156.24 60.35 153.23 63.68 149.62 77.01 146 94.77 142.39 116.98 138.78 111.43 135.16 102.55 131.55 91.44 127.93 94.77 124.92 111.43 121.31 104.77 117.7 80.34 114.08 73.68 110.47 70.35 106.85 72.57 103.24 89.22 99.63 118.09 96.62 106.99 93 104.77 89.39 98.11 85.77 95.88 82.16 106.99 78.55 109.21 74.93 70.35 71.32 59.24 68.31 63.68 64.69 85.89 61.08 91.44 57.47 113.65 53.85 109.21 50.24 99.22 46.63 99.22 43.01 109.21 40 109.21 36.39 113.65 36.39 205.26 461 205.26 461 113.65"/>
  </g>
  <g id="Grid_Baseline" data-name="Grid Baseline">
    <line class="sb_aeba_grid_chart_peak_load_cls-5" x1="36.09" y1="205.26" x2="460.7" y2="205.26"/>
  </g>
  <g id="Axis_Labels_Years" data-name="Axis Labels Years">
    <text class="sb_aeba_grid_chart_peak_load_cls-13" transform="translate(11.75 186.34)"><tspan x="0" y="0">5000</tspan></text>
    <text class="sb_aeba_grid_chart_peak_load_cls-13" transform="translate(4.51 163.41)"><tspan x="0" y="0">10,000</tspan></text>
    <text class="sb_aeba_grid_chart_peak_load_cls-13" transform="translate(5.38 140.48)"><tspan x="0" y="0">15,000</tspan></text>
    <text class="sb_aeba_grid_chart_peak_load_cls-13" transform="translate(4.1 117.55)"><tspan x="0" y="0">20,000</tspan></text>
    <text class="sb_aeba_grid_chart_peak_load_cls-13" transform="translate(4.97 94.62)"><tspan x="0" y="0">25,000</tspan></text>
    <text class="sb_aeba_grid_chart_peak_load_cls-13" transform="translate(4.09 71.69)"><tspan x="0" y="0">30,000</tspan></text>
    <text class="sb_aeba_grid_chart_peak_load_cls-13" transform="translate(4.96 48.76)"><tspan x="0" y="0">35,000</tspan></text>
    <text class="sb_aeba_grid_chart_peak_load_cls-13" transform="translate(3.62 25.83)"><tspan x="0" y="0">40,000</tspan></text>
    <text class="sb_aeba_grid_chart_peak_load_cls-11" transform="translate(37 217.35)"><tspan x="0" y="0">2016</tspan></text>
    <text class="sb_aeba_grid_chart_peak_load_cls-11" transform="translate(79.58 217.35)"><tspan x="0" y="0">2017</tspan></text>
    <text class="sb_aeba_grid_chart_peak_load_cls-11" transform="translate(121.84 217.35)"><tspan x="0" y="0">2018</tspan></text>
    <text class="sb_aeba_grid_chart_peak_load_cls-11" transform="translate(164.38 217.35)"><tspan x="0" y="0">2019</tspan></text>
    <text class="sb_aeba_grid_chart_peak_load_cls-11" transform="translate(206.42 217.35)"><tspan x="0" y="0">2020</tspan></text>
    <text class="sb_aeba_grid_chart_peak_load_cls-11" transform="translate(249.46 217.35)"><tspan x="0" y="0">2021</tspan></text>
    <text class="sb_aeba_grid_chart_peak_load_cls-11" transform="translate(291.73 217.35)"><tspan x="0" y="0">2022</tspan></text>
    <text class="sb_aeba_grid_chart_peak_load_cls-11" transform="translate(334.21 217.35)"><tspan x="0" y="0">2023</tspan></text>
    <text class="sb_aeba_grid_chart_peak_load_cls-11" transform="translate(376.42 217.35)"><tspan x="0" y="0">2024</tspan></text>
    <text class="sb_aeba_grid_chart_peak_load_cls-11" transform="translate(419.16 217.35)"><tspan x="0" y="0">2025</tspan></text>
  </g>
  <g id="Data_Line" data-name="Data Line">
    <polyline class="sb_aeba_grid_chart_peak_load_cls-4" points="36.39 113.65 40 109.21 43.01 109.21 46.63 99.22 50.24 99.22 53.85 109.21 57.47 113.65 61.08 91.44 64.69 85.89 68.31 63.68 71.32 59.24 74.93 70.35 78.55 109.21 82.16 106.99 85.77 95.88 89.39 98.11 93 104.77 96.62 106.99 99.63 118.09 103.24 89.22 106.85 72.57 110.47 70.35 114.08 73.68 117.7 80.34 121.31 104.77 124.92 111.43 127.93 94.77 131.55 91.44 135.16 102.55 138.78 111.43 142.39 116.98 146 94.77 149.62 77.01 153.23 63.68 156.24 60.35 159.86 62.57 163.47 101.44 167.08 108.1 170.7 104.77 174.31 92.55 177.92 100.33 181.54 104.77 184.55 120.31 188.16 112.54 191.78 81.45 195.39 67.01 199 75.9 202.62 87 206.23 96.99 209.85 108.1 212.86 100.33 216.47 114.76 238.15 65.9 241.16 70.35 244.78 95.88 248.39 120.31 252.01 112.54 255.62 102.55 259.23 103.66 262.85 106.99 266.46 111.43 269.47 125.87 273.09 102.55 276.7 64.79 280.31 77.01 283.93 68.12 287.54 93.66 291.15 116.98 294.77 111.43 297.78 109.21 301.39 100.33 305.01 103.66 308.62 112.54 312.23 122.53 315.85 82.56 319.46 93.66 323.08 67.01 326.09 68.12 329.7 99.22 333.31 122.53 336.93 112.54 340.54 105.88 344.16 111.43 347.77 99.22 351.38 114.76 354.39 128.09 358.01 115.87 361.62 101.44 365.24 74.79 368.85 92.55 372.46 68.12 376.08 106.99 379.69 108.1 382.7 110.32 386.32 102.55 389.93 110.32 393.54 116.98 397.16 119.2 400.77 106.99 404.38 77.01 408 73.68 411.01 75.9 414.62 104.77 418.24 121.42 421.85 118.09 425.46 100.33 429.08 98.11 432.69 102.55 436.31 111.43 439.32 120.31 442.93 122.53 446.54 60.35 450.16 65.9 453.77 79.23 457.39 111.43 461 113.65"/>
  </g>
  <g id="Peak_Points" data-name="Peak Points">
    <use width="5" height="5" transform="translate(426.28 95.61)" xlink:href="#Point_Peak_Winter"/>
    <use width="5" height="5" transform="translate(383.82 100.05)" xlink:href="#Point_Peak_Winter"/>
    <use width="5" height="5" transform="translate(345.27 96.72)" xlink:href="#Point_Peak_Winter"/>
    <use width="5" height="5" transform="translate(298.89 97.83)" xlink:href="#Point_Peak_Winter"/>
    <use width="5" height="5" transform="translate(253.12 100.05)" xlink:href="#Point_Peak_Winter"/>
    <use width="5" height="5" transform="translate(210.36 97.83)" xlink:href="#Point_Peak_Winter"/>
    <use width="5" height="5" transform="translate(171.81 90.05)" xlink:href="#Point_Peak_Winter"/>
    <use width="5" height="5" transform="translate(129.05 88.94)" xlink:href="#Point_Peak_Winter"/>
    <use width="5" height="5" transform="translate(83.27 93.38)" xlink:href="#Point_Peak_Winter"/>
    <use width="5" height="5" transform="translate(44.13 96.72)" xlink:href="#Point_Peak_Winter"/>
    <use width="5" height="5" transform="translate(444.04 57.85)" xlink:href="#Point_Peak_Summer"/>
    <use width="5" height="5" transform="translate(405.2 71.18)" xlink:href="#Point_Peak_Summer"/>
    <use width="5" height="5" transform="translate(369.96 65.62)" xlink:href="#Point_Peak_Summer"/>
    <use width="5" height="5" transform="translate(320.58 64.51)" xlink:href="#Point_Peak_Summer"/>
    <use width="5" height="5" transform="translate(274.2 62.29)" xlink:href="#Point_Peak_Summer"/>
    <use width="5" height="5" transform="translate(192.89 64.51)" xlink:href="#Point_Peak_Summer"/>
    <use width="5" height="5" transform="translate(153.74 57.85)" xlink:href="#Point_Peak_Summer"/>
    <use width="5" height="5" transform="translate(107.97 67.85)" xlink:href="#Point_Peak_Summer"/>
    <use width="5" height="5" transform="translate(68.82 56.74)" xlink:href="#Point_Peak_Summer"/>
    <use width="5" height="5" transform="translate(235.65 63.4)" xlink:href="#Point_Peak_Summer"/>
  </g>
  <g id="Peak_Labels" data-name="Peak Labels">
    <g id="Winter_Value" data-name="Winter Value">
      <text class="sb_aeba_grid_chart_peak_load_cls-9" transform="translate(35.53 92.55)"><tspan x="0" y="0">23,317</tspan></text>
      <text class="sb_aeba_grid_chart_peak_load_cls-9" transform="translate(77.94 89.22)"><tspan x="0" y="0">24,164</tspan></text>
      <text class="sb_aeba_grid_chart_peak_load_cls-9" transform="translate(119.94 84.78)"><tspan x="0" y="0">25,081</tspan></text>
      <text class="sb_aeba_grid_chart_peak_load_cls-9" transform="translate(162.29 85.34)"><tspan x="0" y="0">24,728</tspan></text>
      <text class="sb_aeba_grid_chart_peak_load_cls-9" transform="translate(203.6 93.66)"><tspan x="0" y="0">23,253</tspan></text>
      <text class="sb_aeba_grid_chart_peak_load_cls-9" transform="translate(246.25 95.89)"><tspan x="0" y="0">22,541</tspan></text>
      <text class="sb_aeba_grid_chart_peak_load_cls-9" transform="translate(290.44 93.66)"><tspan x="0" y="0">23,237</tspan></text>
      <text class="sb_aeba_grid_chart_peak_load_cls-9" transform="translate(336.3 92.55)"><tspan x="0" y="0">23,369</tspan></text>
      <text class="sb_aeba_grid_chart_peak_load_cls-9" transform="translate(375.91 95.89)"><tspan x="0" y="0">22,718</tspan></text>
      <text class="sb_aeba_grid_chart_peak_load_cls-9" transform="translate(417.74 91.44)"><tspan x="0" y="0">23,521</tspan></text>
    </g>
    <g id="Winter_Date" data-name="Winter Date">
      <text class="sb_aeba_grid_chart_peak_load_cls-10" transform="translate(35.46 85.89)"><tspan x="0" y="0">Jan ‘16</tspan></text>
      <text class="sb_aeba_grid_chart_peak_load_cls-10" transform="translate(77.67 82.56)"><tspan x="0" y="0">Dec ‘16</tspan></text>
      <text class="sb_aeba_grid_chart_peak_load_cls-10" transform="translate(120.29 78.12)"><tspan x="0" y="0">Jan ‘18</tspan></text>
      <text class="sb_aeba_grid_chart_peak_load_cls-10" transform="translate(163.14 78.67)"><tspan x="0" y="0">Jan ‘19</tspan></text>
      <text class="sb_aeba_grid_chart_peak_load_cls-10" transform="translate(202.85 87)"><tspan x="0" y="0">Dec ‘19</tspan></text>
      <text class="sb_aeba_grid_chart_peak_load_cls-10" transform="translate(245.23 89.22)"><tspan x="0" y="0">Dec ‘20</tspan></text>
      <text class="sb_aeba_grid_chart_peak_load_cls-10" transform="translate(290.29 87)"><tspan x="0" y="0">Jan ‘22</tspan></text>
      <text class="sb_aeba_grid_chart_peak_load_cls-10" transform="translate(336.12 85.89)"><tspan x="0" y="0">Feb ‘23</tspan></text>
      <text class="sb_aeba_grid_chart_peak_load_cls-10" transform="translate(375.85 89.22)"><tspan x="0" y="0">Jan ‘24</tspan></text>
      <text class="sb_aeba_grid_chart_peak_load_cls-10" transform="translate(417.61 84.78)"><tspan x="0" y="0">Jan ‘25</tspan></text>
    </g>
    <g id="Summer_Value" data-name="Summer Value">
      <text class="sb_aeba_grid_chart_peak_load_cls-6" transform="translate(59.57 53.69)"><tspan x="0" y="0">32,076</tspan></text>
      <text class="sb_aeba_grid_chart_peak_load_cls-6" transform="translate(98.67 64.24)"><tspan x="0" y="0">29,699</tspan></text>
      <text class="sb_aeba_grid_chart_peak_load_cls-6" transform="translate(145 54.8)"><tspan x="0" y="0">31,861</tspan></text>
      <text class="sb_aeba_grid_chart_peak_load_cls-6" transform="translate(183.67 61.46)"><tspan x="0" y="0">30,397</tspan></text>
      <text class="sb_aeba_grid_chart_peak_load_cls-6" transform="translate(225.68 59.24)"><tspan x="0" y="0">30,660</tspan></text>
      <text class="sb_aeba_grid_chart_peak_load_cls-6" transform="translate(265.02 59.24)"><tspan x="0" y="0">30,919</tspan></text>
      <text class="sb_aeba_grid_chart_peak_load_cls-6" transform="translate(310.95 61.46)"><tspan x="0" y="0">30,505</tspan></text>
      <text class="sb_aeba_grid_chart_peak_load_cls-6" transform="translate(360.42 62.02)"><tspan x="0" y="0">30,206</tspan></text>
      <text class="sb_aeba_grid_chart_peak_load_cls-6" transform="translate(395.63 68.13)"><tspan x="0" y="0">28,990</tspan></text>
      <text class="sb_aeba_grid_chart_peak_load_cls-6" transform="translate(435.27 54.8)"><tspan x="0" y="0">31,857</tspan></text>
    </g>
    <g id="Summer_Date" data-name="Summer Date">
      <text class="sb_aeba_grid_chart_peak_load_cls-10" transform="translate(59.31 45.92)"><tspan x="0" y="0">Aug ‘16</tspan></text>
      <text class="sb_aeba_grid_chart_peak_load_cls-10" transform="translate(100.35 57.02)"><tspan x="0" y="0">Jul ‘17</tspan></text>
      <text class="sb_aeba_grid_chart_peak_load_cls-10" transform="translate(144.15 47.03)"><tspan x="0" y="0">Aug ‘18</tspan></text>
      <text class="sb_aeba_grid_chart_peak_load_cls-10" transform="translate(185.1 53.69)"><tspan x="0" y="0">Jul ‘19</tspan></text>
      <text class="sb_aeba_grid_chart_peak_load_cls-10" transform="translate(227.49 52.02)"><tspan x="0" y="0">Jul ‘20</tspan></text>
      <text class="sb_aeba_grid_chart_peak_load_cls-10" transform="translate(265.56 51.47)"><tspan x="0" y="0">Jun ‘21</tspan></text>
      <text class="sb_aeba_grid_chart_peak_load_cls-10" transform="translate(312.75 53.69)"><tspan x="0" y="0">Jul ‘22</tspan></text>
      <text class="sb_aeba_grid_chart_peak_load_cls-10" transform="translate(360.55 54.25)"><tspan x="0" y="0">Sep ‘23</tspan></text>
      <text class="sb_aeba_grid_chart_peak_load_cls-10" transform="translate(397.21 60.35)"><tspan x="0" y="0">Jul ‘24</tspan></text>
      <text class="sb_aeba_grid_chart_peak_load_cls-10" transform="translate(435.27 47.03)"><tspan x="0" y="0">Jun ‘25</tspan></text>
    </g>
  </g>
  <g id="Peak_Annotation" data-name="Peak Annotation">
    <text class="sb_aeba_grid_chart_peak_load_cls-12" transform="translate(467.58 100.02)"><tspan x="0" y="0">Winter</tspan><tspan x="0" y="9">Peaks</tspan></text>
    <text class="sb_aeba_grid_chart_peak_load_cls-7" transform="translate(467.58 63.16)"><tspan x="0" y="0">Summer</tspan><tspan x="0" y="9">Peaks</tspan></text>
    <line class="sb_aeba_grid_chart_peak_load_cls-1" x1="433.24" y1="97.55" x2="465.12" y2="97.55"/>
    <line class="sb_aeba_grid_chart_peak_load_cls-2" x1="451.07" y1="60.35" x2="465.12" y2="60.35"/>
  </g>
  <g id="Axis_Lable_Value_Title" data-name="Axis Lable Value Title">
    <text class="sb_aeba_grid_chart_peak_load_cls-11" transform="translate(3.21 14.85)"><tspan x="0" y="0">Monthly Peak Load (MW)</tspan></text>
  </g>
  </g>
</svg>
