<svg xmlns:xlink="http://www.w3.org/1999/xlink" xmlns="http://www.w3.org/2000/svg" width="790.56pt" height="394.56pt" viewBox="0 0 790.56 394.56" version="1.1">
 <metadata>
  <rdf:RDF xmlns:dc="http://purl.org/dc/elements/1.1/" xmlns:cc="http://creativecommons.org/ns#" xmlns:rdf="http://www.w3.org/1999/02/22-rdf-syntax-ns#">
   <cc:Work>
    <dc:type rdf:resource="http://purl.org/dc/dcmitype/StillImage"/>
    <dc:date>2026-04-28T07:48:35.734995</dc:date>
    <dc:format>image/svg+xml</dc:format>
    <dc:creator>
     <cc:Agent>
      <dc:title>Matplotlib v3.10.8, https://matplotlib.org/</dc:title>
     </cc:Agent>
    </dc:creator>
   </cc:Work>
  </rdf:RDF>
 </metadata>
 <defs>
  <style type="text/css">*{stroke-linejoin: round; stroke-linecap: butt}</style>
 </defs>
 <g id="figure_1">
  <g id="patch_1">
   <path d="M 0 394.56  L 790.56 394.56  L 790.56 0  L 0 0  z " style="fill: #ffffff"/>
  </g>
  <g id="axes_1">
   <g id="patch_2">
    <path d="M 60.392813 344.63  L 703.490312 344.63  L 703.490312 36.4  L 60.392813 36.4  z " style="fill: #ffffff"/>
   </g>
   <g id="matplotlib.axis_1">
    <g id="xtick_1">
     <g id="line2d_1">
      <path d="M 92.020558 344.63  " style="fill: none; stroke: #000000; stroke-width: 1.5; stroke-linecap: square"/>
      <defs>
       <path id="med817fcd2b" d="M 0 0  L 0 2.75  " style="stroke: #000000"/>
      </defs>
      <g>
       <use xlink:href="#med817fcd2b" x="92.020558" y="344.63" style="stroke: #000000"/>
      </g>
     </g>
     <g id="text_1">
      <text style="font-size: 11px; font-family: 'IBM Plex Sans'; text-anchor: middle; fill: #4d4d4d" x="92.020558" y="357.72" transform="rotate(-0 92.020558 357.72)">Jan</text>
     </g>
    </g>
    <g id="xtick_2">
     <g id="line2d_2">
      <path d="M 144.733468 344.63  " style="fill: none; stroke: #000000; stroke-width: 1.5; stroke-linecap: square"/>
      <g>
       <use xlink:href="#med817fcd2b" x="144.733468" y="344.63" style="stroke: #000000"/>
      </g>
     </g>
     <g id="text_2">
      <text style="font-size: 11px; font-family: 'IBM Plex Sans'; text-anchor: middle; fill: #4d4d4d" x="144.733468" y="357.72" transform="rotate(-0 144.733468 357.72)">Feb</text>
     </g>
    </g>
    <g id="xtick_3">
     <g id="line2d_3">
      <path d="M 197.446378 344.63  " style="fill: none; stroke: #000000; stroke-width: 1.5; stroke-linecap: square"/>
      <g>
       <use xlink:href="#med817fcd2b" x="197.446378" y="344.63" style="stroke: #000000"/>
      </g>
     </g>
     <g id="text_3">
      <text style="font-size: 11px; font-family: 'IBM Plex Sans'; text-anchor: middle; fill: #4d4d4d" x="197.446378" y="357.72" transform="rotate(-0 197.446378 357.72)">Mar</text>
     </g>
    </g>
    <g id="xtick_4">
     <g id="line2d_4">
      <path d="M 250.159288 344.63  " style="fill: none; stroke: #000000; stroke-width: 1.5; stroke-linecap: square"/>
      <g>
       <use xlink:href="#med817fcd2b" x="250.159288" y="344.63" style="stroke: #000000"/>
      </g>
     </g>
     <g id="text_4">
      <text style="font-size: 11px; font-family: 'IBM Plex Sans'; text-anchor: middle; fill: #4d4d4d" x="250.159288" y="357.72" transform="rotate(-0 250.159288 357.72)">Apr</text>
     </g>
    </g>
    <g id="xtick_5">
     <g id="line2d_5">
      <path d="M 302.872198 344.63  " style="fill: none; stroke: #000000; stroke-width: 1.5; stroke-linecap: square"/>
      <g>
       <use xlink:href="#med817fcd2b" x="302.872198" y="344.63" style="stroke: #000000"/>
      </g>
     </g>
     <g id="text_5">
      <text style="font-size: 11px; font-family: 'IBM Plex Sans'; text-anchor: middle; fill: #4d4d4d" x="302.872198" y="357.72" transform="rotate(-0 302.872198 357.72)">May</text>
     </g>
    </g>
    <g id="xtick_6">
     <g id="line2d_6">
      <path d="M 355.585108 344.63  " style="fill: none; stroke: #000000; stroke-width: 1.5; stroke-linecap: square"/>
      <g>
       <use xlink:href="#med817fcd2b" x="355.585108" y="344.63" style="stroke: #000000"/>
      </g>
     </g>
     <g id="text_6">
      <text style="font-size: 11px; font-family: 'IBM Plex Sans'; text-anchor: middle; fill: #4d4d4d" x="355.585108" y="357.72" transform="rotate(-0 355.585108 357.72)">Jun</text>
     </g>
    </g>
    <g id="xtick_7">
     <g id="line2d_7">
      <path d="M 408.298017 344.63  " style="fill: none; stroke: #000000; stroke-width: 1.5; stroke-linecap: square"/>
      <g>
       <use xlink:href="#med817fcd2b" x="408.298017" y="344.63" style="stroke: #000000"/>
      </g>
     </g>
     <g id="text_7">
      <text style="font-size: 11px; font-family: 'IBM Plex Sans'; text-anchor: middle; fill: #4d4d4d" x="408.298017" y="357.72" transform="rotate(-0 408.298017 357.72)">Jul</text>
     </g>
    </g>
    <g id="xtick_8">
     <g id="line2d_8">
      <path d="M 461.010927 344.63  " style="fill: none; stroke: #000000; stroke-width: 1.5; stroke-linecap: square"/>
      <g>
       <use xlink:href="#med817fcd2b" x="461.010927" y="344.63" style="stroke: #000000"/>
      </g>
     </g>
     <g id="text_8">
      <text style="font-size: 11px; font-family: 'IBM Plex Sans'; text-anchor: middle; fill: #4d4d4d" x="461.010927" y="357.587656" transform="rotate(-0 461.010927 357.587656)">Aug</text>
     </g>
    </g>
    <g id="xtick_9">
     <g id="line2d_9">
      <path d="M 513.723837 344.63  " style="fill: none; stroke: #000000; stroke-width: 1.5; stroke-linecap: square"/>
      <g>
       <use xlink:href="#med817fcd2b" x="513.723837" y="344.63" style="stroke: #000000"/>
      </g>
     </g>
     <g id="text_9">
      <text style="font-size: 11px; font-family: 'IBM Plex Sans'; text-anchor: middle; fill: #4d4d4d" x="513.723837" y="357.72" transform="rotate(-0 513.723837 357.72)">Sep</text>
     </g>
    </g>
    <g id="xtick_10">
     <g id="line2d_10">
      <path d="M 566.436747 344.63  " style="fill: none; stroke: #000000; stroke-width: 1.5; stroke-linecap: square"/>
      <g>
       <use xlink:href="#med817fcd2b" x="566.436747" y="344.63" style="stroke: #000000"/>
      </g>
     </g>
     <g id="text_10">
      <text style="font-size: 11px; font-family: 'IBM Plex Sans'; text-anchor: middle; fill: #4d4d4d" x="566.436747" y="357.72" transform="rotate(-0 566.436747 357.72)">Oct</text>
     </g>
    </g>
    <g id="xtick_11">
     <g id="line2d_11">
      <path d="M 619.149657 344.63  " style="fill: none; stroke: #000000; stroke-width: 1.5; stroke-linecap: square"/>
      <g>
       <use xlink:href="#med817fcd2b" x="619.149657" y="344.63" style="stroke: #000000"/>
      </g>
     </g>
     <g id="text_11">
      <text style="font-size: 11px; font-family: 'IBM Plex Sans'; text-anchor: middle; fill: #4d4d4d" x="619.149657" y="357.72" transform="rotate(-0 619.149657 357.72)">Nov</text>
     </g>
    </g>
    <g id="xtick_12">
     <g id="line2d_12">
      <path d="M 671.862567 344.63  " style="fill: none; stroke: #000000; stroke-width: 1.5; stroke-linecap: square"/>
      <g>
       <use xlink:href="#med817fcd2b" x="671.862567" y="344.63" style="stroke: #000000"/>
      </g>
     </g>
     <g id="text_12">
      <text style="font-size: 11px; font-family: 'IBM Plex Sans'; text-anchor: middle; fill: #4d4d4d" x="671.862567" y="357.72" transform="rotate(-0 671.862567 357.72)">Dec</text>
     </g>
    </g>
   </g>
   <g id="matplotlib.axis_2">
    <g id="ytick_1">
     <g id="line2d_13">
      <path d="M 60.392813 306.62105  L 703.490312 306.62105  " clip-path="url(#pad5bab160c)" style="fill: none; stroke: #e5e5e5; stroke-linecap: square"/>
     </g>
     <g id="text_13">
      <text style="font-size: 11px; font-family: 'IBM Plex Sans'; text-anchor: start; fill: #4d4d4d" x="51.592813" y="310.69105" transform="rotate(-0 51.592813 310.69105)">0</text>
     </g>
    </g>
    <g id="ytick_2">
     <g id="line2d_14">
      <path d="M 60.392813 238.724499  L 703.490312 238.724499  " clip-path="url(#pad5bab160c)" style="fill: none; stroke: #e5e5e5; stroke-linecap: square"/>
     </g>
     <g id="text_14">
      <text style="font-size: 11px; font-family: 'IBM Plex Sans'; text-anchor: start; fill: #4d4d4d" x="44.992813" y="242.794499" transform="rotate(-0 44.992813 242.794499)">50</text>
     </g>
    </g>
    <g id="ytick_3">
     <g id="line2d_15">
      <path d="M 60.392813 170.827949  L 703.490312 170.827949  " clip-path="url(#pad5bab160c)" style="fill: none; stroke: #e5e5e5; stroke-linecap: square"/>
     </g>
     <g id="text_15">
      <text style="font-size: 11px; font-family: 'IBM Plex Sans'; text-anchor: start; fill: #4d4d4d" x="38.392813" y="174.897949" transform="rotate(-0 38.392813 174.897949)">100</text>
     </g>
    </g>
    <g id="ytick_4">
     <g id="line2d_16">
      <path d="M 60.392813 102.931399  L 703.490312 102.931399  " clip-path="url(#pad5bab160c)" style="fill: none; stroke: #e5e5e5; stroke-linecap: square"/>
     </g>
     <g id="text_16">
      <text style="font-size: 11px; font-family: 'IBM Plex Sans'; text-anchor: start; fill: #4d4d4d" x="38.392813" y="107.001399" transform="rotate(-0 38.392813 107.001399)">150</text>
     </g>
    </g>
    <g id="ytick_5">
     <g id="line2d_17">
      <path d="M 60.392813 340.569325  L 703.490312 340.569325  " clip-path="url(#pad5bab160c)" style="fill: none; stroke: #fafafa; stroke-width: 0.5; stroke-linecap: square"/>
     </g>
    </g>
    <g id="ytick_6">
     <g id="line2d_18">
      <path d="M 60.392813 272.672775  L 703.490312 272.672775  " clip-path="url(#pad5bab160c)" style="fill: none; stroke: #fafafa; stroke-width: 0.5; stroke-linecap: square"/>
     </g>
    </g>
    <g id="ytick_7">
     <g id="line2d_19">
      <path d="M 60.392813 204.776224  L 703.490312 204.776224  " clip-path="url(#pad5bab160c)" style="fill: none; stroke: #fafafa; stroke-width: 0.5; stroke-linecap: square"/>
     </g>
    </g>
    <g id="ytick_8">
     <g id="line2d_20">
      <path d="M 60.392813 136.879674  L 703.490312 136.879674  " clip-path="url(#pad5bab160c)" style="fill: none; stroke: #fafafa; stroke-width: 0.5; stroke-linecap: square"/>
     </g>
    </g>
    <g id="ytick_9">
     <g id="line2d_21">
      <path d="M 60.392813 68.983124  L 703.490312 68.983124  " clip-path="url(#pad5bab160c)" style="fill: none; stroke: #fafafa; stroke-width: 0.5; stroke-linecap: square"/>
     </g>
    </g>
   </g>
   <g id="line2d_22">
    <path d="M 92.020558 210.113023  L 144.733468 285.267608  L 197.446378 309.547506  L 250.159288 330.619545  L 302.872198 305.508845  L 355.585108 293.182024  L 408.298017 284.762237  L 461.010927 281.609344  L 513.723837 294.054429  L 566.436747 303.034178  L 619.149657 302.281319  L 671.862567 260.371455  " clip-path="url(#pad5bab160c)" style="fill: none; stroke: #f8766d; stroke-width: 0.886227"/>
   </g>
   <g id="line2d_23">
    <path d="M 92.020558 182.701813  L 144.733468 268.318256  L 197.446378 287.072262  L 250.159288 317.983676  L 302.872198 303.910891  L 355.585108 291.547397  L 408.298017 283.337446  L 461.010927 279.268828  L 513.723837 292.107141  L 566.436747 299.870417  L 619.149657 287.174933  L 671.862567 238.848944  " clip-path="url(#pad5bab160c)" style="fill: none; stroke: #a3a500; stroke-width: 0.886227"/>
   </g>
   <g id="line2d_24">
    <path d="M 92.020558 114.429039  L 144.733468 241.83577  L 197.446378 261.334211  L 250.159288 307.970411  L 302.872198 307.192602  L 355.585108 296.654694  L 408.298017 291.487917  L 461.010927 288.190206  L 513.723837 296.103584  L 566.436747 291.86606  L 619.149657 263.974939  L 671.862567 196.319202  " clip-path="url(#pad5bab160c)" style="fill: none; stroke: #00bf7d; stroke-width: 0.886227"/>
   </g>
   <g id="line2d_25">
    <path d="M 92.020558 106.025499  L 144.733468 235.396712  L 197.446378 252.168283  L 250.159288 300.394608  L 302.872198 307.169501  L 355.585108 299.675019  L 408.298017 297.73403  L 461.010927 294.819208  L 513.723837 298.865968  L 566.436747 290.018833  L 619.149657 257.786979  L 671.862567 189.696469  " clip-path="url(#pad5bab160c)" style="fill: none; stroke: #00b0f6; stroke-width: 0.886227"/>
   </g>
   <g id="line2d_26">
    <path d="M 92.020558 50.410455  L 144.733468 202.978101  L 197.446378 215.585641  L 250.159288 275.96505  L 302.872198 305.112679  L 355.585108 301.792439  L 408.298017 302.26675  L 461.010927 300.20482  L 513.723837 300.212383  L 566.436747 276.828813  L 619.149657 226.571495  L 671.862567 144.644833  " clip-path="url(#pad5bab160c)" style="fill: none; stroke: #e76bf3; stroke-width: 0.886227"/>
   </g>
   <g id="PathCollection_1">
    <path d="M 92.020558 212.151345  C 92.561128 212.151345 93.079629 211.936575 93.46187 211.554335  C 93.84411 211.172094 94.05888 210.653593 94.05888 210.113023  C 94.05888 209.572454 93.84411 209.053952 93.46187 208.671712  C 93.079629 208.289472 92.561128 208.074701 92.020558 208.074701  C 91.479989 208.074701 90.961487 208.289472 90.579247 208.671712  C 90.197007 209.053952 89.982236 209.572454 89.982236 210.113023  C 89.982236 210.653593 90.197007 211.172094 90.579247 211.554335  C 90.961487 211.936575 91.479989 212.151345 92.020558 212.151345  z " clip-path="url(#pad5bab160c)" style="fill: #f8766d; stroke: #f8766d; stroke-width: 0.886227"/>
    <path d="M 92.020558 184.740135  C 92.561128 184.740135 93.079629 184.525365 93.46187 184.143125  C 93.84411 183.760885 94.05888 183.242383 94.05888 182.701813  C 94.05888 182.161244 93.84411 181.642742 93.46187 181.260502  C 93.079629 180.878262 92.561128 180.663492 92.020558 180.663492  C 91.479989 180.663492 90.961487 180.878262 90.579247 181.260502  C 90.197007 181.642742 89.982236 182.161244 89.982236 182.701813  C 89.982236 183.242383 90.197007 183.760885 90.579247 184.143125  C 90.961487 184.525365 91.479989 184.740135 92.020558 184.740135  z " clip-path="url(#pad5bab160c)" style="fill: #a3a500; stroke: #a3a500; stroke-width: 0.886227"/>
    <path d="M 92.020558 116.467361  C 92.561128 116.467361 93.079629 116.252591 93.46187 115.87035  C 93.84411 115.48811 94.05888 114.969608 94.05888 114.429039  C 94.05888 113.88847 93.84411 113.369968 93.46187 112.987728  C 93.079629 112.605488 92.561128 112.390717 92.020558 112.390717  C 91.479989 112.390717 90.961487 112.605488 90.579247 112.987728  C 90.197007 113.369968 89.982236 113.88847 89.982236 114.429039  C 89.982236 114.969608 90.197007 115.48811 90.579247 115.87035  C 90.961487 116.252591 91.479989 116.467361 92.020558 116.467361  z " clip-path="url(#pad5bab160c)" style="fill: #00bf7d; stroke: #00bf7d; stroke-width: 0.886227"/>
    <path d="M 92.020558 108.063821  C 92.561128 108.063821 93.079629 107.84905 93.46187 107.46681  C 93.84411 107.08457 94.05888 106.566068 94.05888 106.025499  C 94.05888 105.48493 93.84411 104.966428 93.46187 104.584188  C 93.079629 104.201947 92.561128 103.987177 92.020558 103.987177  C 91.479989 103.987177 90.961487 104.201947 90.579247 104.584188  C 90.197007 104.966428 89.982236 105.48493 89.982236 106.025499  C 89.982236 106.566068 90.197007 107.08457 90.579247 107.46681  C 90.961487 107.84905 91.479989 108.063821 92.020558 108.063821  z " clip-path="url(#pad5bab160c)" style="fill: #00b0f6; stroke: #00b0f6; stroke-width: 0.886227"/>
    <path d="M 92.020558 52.448776  C 92.561128 52.448776 93.079629 52.234006 93.46187 51.851766  C 93.84411 51.469526 94.05888 50.951024 94.05888 50.410455  C 94.05888 49.869885 93.84411 49.351384 93.46187 48.969143  C 93.079629 48.586903 92.561128 48.372133 92.020558 48.372133  C 91.479989 48.372133 90.961487 48.586903 90.579247 48.969143  C 90.197007 49.351384 89.982236 49.869885 89.982236 50.410455  C 89.982236 50.951024 90.197007 51.469526 90.579247 51.851766  C 90.961487 52.234006 91.479989 52.448776 92.020558 52.448776  z " clip-path="url(#pad5bab160c)" style="fill: #e76bf3; stroke: #e76bf3; stroke-width: 0.886227"/>
    <path d="M 144.733468 287.30593  C 145.274038 287.30593 145.792539 287.091159 146.174779 286.708919  C 146.55702 286.326679 146.77179 285.808177 146.77179 285.267608  C 146.77179 284.727038 146.55702 284.208537 146.174779 283.826297  C 145.792539 283.444056 145.274038 283.229286 144.733468 283.229286  C 144.192899 283.229286 143.674397 283.444056 143.292157 283.826297  C 142.909917 284.208537 142.695146 284.727038 142.695146 285.267608  C 142.695146 285.808177 142.909917 286.326679 143.292157 286.708919  C 143.674397 287.091159 144.192899 287.30593 144.733468 287.30593  z " clip-path="url(#pad5bab160c)" style="fill: #f8766d; stroke: #f8766d; stroke-width: 0.886227"/>
    <path d="M 144.733468 270.356578  C 145.274038 270.356578 145.792539 270.141807 146.174779 269.759567  C 146.55702 269.377327 146.77179 268.858825 146.77179 268.318256  C 146.77179 267.777687 146.55702 267.259185 146.174779 266.876945  C 145.792539 266.494704 145.274038 266.279934 144.733468 266.279934  C 144.192899 266.279934 143.674397 266.494704 143.292157 266.876945  C 142.909917 267.259185 142.695146 267.777687 142.695146 268.318256  C 142.695146 268.858825 142.909917 269.377327 143.292157 269.759567  C 143.674397 270.141807 144.192899 270.356578 144.733468 270.356578  z " clip-path="url(#pad5bab160c)" style="fill: #a3a500; stroke: #a3a500; stroke-width: 0.886227"/>
    <path d="M 144.733468 243.874091  C 145.274038 243.874091 145.792539 243.659321 146.174779 243.277081  C 146.55702 242.894841 146.77179 242.376339 146.77179 241.83577  C 146.77179 241.2952 146.55702 240.776698 146.174779 240.394458  C 145.792539 240.012218 145.274038 239.797448 144.733468 239.797448  C 144.192899 239.797448 143.674397 240.012218 143.292157 240.394458  C 142.909917 240.776698 142.695146 241.2952 142.695146 241.83577  C 142.695146 242.376339 142.909917 242.894841 143.292157 243.277081  C 143.674397 243.659321 144.192899 243.874091 144.733468 243.874091  z " clip-path="url(#pad5bab160c)" style="fill: #00bf7d; stroke: #00bf7d; stroke-width: 0.886227"/>
    <path d="M 144.733468 237.435034  C 145.274038 237.435034 145.792539 237.220263 146.174779 236.838023  C 146.55702 236.455783 146.77179 235.937281 146.77179 235.396712  C 146.77179 234.856142 146.55702 234.337641 146.174779 233.9554  C 145.792539 233.57316 145.274038 233.35839 144.733468 233.35839  C 144.192899 233.35839 143.674397 233.57316 143.292157 233.9554  C 142.909917 234.337641 142.695146 234.856142 142.695146 235.396712  C 142.695146 235.937281 142.909917 236.455783 143.292157 236.838023  C 143.674397 237.220263 144.192899 237.435034 144.733468 237.435034  z " clip-path="url(#pad5bab160c)" style="fill: #00b0f6; stroke: #00b0f6; stroke-width: 0.886227"/>
    <path d="M 144.733468 205.016423  C 145.274038 205.016423 145.792539 204.801653 146.174779 204.419413  C 146.55702 204.037172 146.77179 203.518671 146.77179 202.978101  C 146.77179 202.437532 146.55702 201.91903 146.174779 201.53679  C 145.792539 201.15455 145.274038 200.939779 144.733468 200.939779  C 144.192899 200.939779 143.674397 201.15455 143.292157 201.53679  C 142.909917 201.91903 142.695146 202.437532 142.695146 202.978101  C 142.695146 203.518671 142.909917 204.037172 143.292157 204.419413  C 143.674397 204.801653 144.192899 205.016423 144.733468 205.016423  z " clip-path="url(#pad5bab160c)" style="fill: #e76bf3; stroke: #e76bf3; stroke-width: 0.886227"/>
    <path d="M 197.446378 311.585828  C 197.986947 311.585828 198.505449 311.371058 198.887689 310.988818  C 199.26993 310.606577 199.4847 310.088076 199.4847 309.547506  C 199.4847 309.006937 199.26993 308.488435 198.887689 308.106195  C 198.505449 307.723955 197.986947 307.509184 197.446378 307.509184  C 196.905809 307.509184 196.387307 307.723955 196.005067 308.106195  C 195.622827 308.488435 195.408056 309.006937 195.408056 309.547506  C 195.408056 310.088076 195.622827 310.606577 196.005067 310.988818  C 196.387307 311.371058 196.905809 311.585828 197.446378 311.585828  z " clip-path="url(#pad5bab160c)" style="fill: #f8766d; stroke: #f8766d; stroke-width: 0.886227"/>
    <path d="M 197.446378 289.110584  C 197.986947 289.110584 198.505449 288.895813 198.887689 288.513573  C 199.26993 288.131333 199.4847 287.612831 199.4847 287.072262  C 199.4847 286.531693 199.26993 286.013191 198.887689 285.630951  C 198.505449 285.248711 197.986947 285.03394 197.446378 285.03394  C 196.905809 285.03394 196.387307 285.248711 196.005067 285.630951  C 195.622827 286.013191 195.408056 286.531693 195.408056 287.072262  C 195.408056 287.612831 195.622827 288.131333 196.005067 288.513573  C 196.387307 288.895813 196.905809 289.110584 197.446378 289.110584  z " clip-path="url(#pad5bab160c)" style="fill: #a3a500; stroke: #a3a500; stroke-width: 0.886227"/>
    <path d="M 197.446378 263.372533  C 197.986947 263.372533 198.505449 263.157763 198.887689 262.775523  C 199.26993 262.393282 199.4847 261.874781 199.4847 261.334211  C 199.4847 260.793642 199.26993 260.27514 198.887689 259.8929  C 198.505449 259.51066 197.986947 259.295889 197.446378 259.295889  C 196.905809 259.295889 196.387307 259.51066 196.005067 259.8929  C 195.622827 260.27514 195.408056 260.793642 195.408056 261.334211  C 195.408056 261.874781 195.622827 262.393282 196.005067 262.775523  C 196.387307 263.157763 196.905809 263.372533 197.446378 263.372533  z " clip-path="url(#pad5bab160c)" style="fill: #00bf7d; stroke: #00bf7d; stroke-width: 0.886227"/>
    <path d="M 197.446378 254.206605  C 197.986947 254.206605 198.505449 253.991834 198.887689 253.609594  C 199.26993 253.227354 199.4847 252.708852 199.4847 252.168283  C 199.4847 251.627713 199.26993 251.109212 198.887689 250.726971  C 198.505449 250.344731 197.986947 250.129961 197.446378 250.129961  C 196.905809 250.129961 196.387307 250.344731 196.005067 250.726971  C 195.622827 251.109212 195.408056 251.627713 195.408056 252.168283  C 195.408056 252.708852 195.622827 253.227354 196.005067 253.609594  C 196.387307 253.991834 196.905809 254.206605 197.446378 254.206605  z " clip-path="url(#pad5bab160c)" style="fill: #00b0f6; stroke: #00b0f6; stroke-width: 0.886227"/>
    <path d="M 197.446378 217.623963  C 197.986947 217.623963 198.505449 217.409193 198.887689 217.026952  C 199.26993 216.644712 199.4847 216.12621 199.4847 215.585641  C 199.4847 215.045072 199.26993 214.52657 198.887689 214.14433  C 198.505449 213.76209 197.986947 213.547319 197.446378 213.547319  C 196.905809 213.547319 196.387307 213.76209 196.005067 214.14433  C 195.622827 214.52657 195.408056 215.045072 195.408056 215.585641  C 195.408056 216.12621 195.622827 216.644712 196.005067 217.026952  C 196.387307 217.409193 196.905809 217.623963 197.446378 217.623963  z " clip-path="url(#pad5bab160c)" style="fill: #e76bf3; stroke: #e76bf3; stroke-width: 0.886227"/>
    <path d="M 250.159288 332.657867  C 250.699857 332.657867 251.218359 332.443097 251.600599 332.060857  C 251.982839 331.678616 252.19761 331.160115 252.19761 330.619545  C 252.19761 330.078976 251.982839 329.560474 251.600599 329.178234  C 251.218359 328.795994 250.699857 328.581224 250.159288 328.581224  C 249.618719 328.581224 249.100217 328.795994 248.717977 329.178234  C 248.335736 329.560474 248.120966 330.078976 248.120966 330.619545  C 248.120966 331.160115 248.335736 331.678616 248.717977 332.060857  C 249.100217 332.443097 249.618719 332.657867 250.159288 332.657867  z " clip-path="url(#pad5bab160c)" style="fill: #f8766d; stroke: #f8766d; stroke-width: 0.886227"/>
    <path d="M 250.159288 320.021998  C 250.699857 320.021998 251.218359 319.807227 251.600599 319.424987  C 251.982839 319.042747 252.19761 318.524245 252.19761 317.983676  C 252.19761 317.443107 251.982839 316.924605 251.600599 316.542365  C 251.218359 316.160124 250.699857 315.945354 250.159288 315.945354  C 249.618719 315.945354 249.100217 316.160124 248.717977 316.542365  C 248.335736 316.924605 248.120966 317.443107 248.120966 317.983676  C 248.120966 318.524245 248.335736 319.042747 248.717977 319.424987  C 249.100217 319.807227 249.618719 320.021998 250.159288 320.021998  z " clip-path="url(#pad5bab160c)" style="fill: #a3a500; stroke: #a3a500; stroke-width: 0.886227"/>
    <path d="M 250.159288 310.008733  C 250.699857 310.008733 251.218359 309.793963 251.600599 309.411722  C 251.982839 309.029482 252.19761 308.510981 252.19761 307.970411  C 252.19761 307.429842 251.982839 306.91134 251.600599 306.5291  C 251.218359 306.14686 250.699857 305.932089 250.159288 305.932089  C 249.618719 305.932089 249.100217 306.14686 248.717977 306.5291  C 248.335736 306.91134 248.120966 307.429842 248.120966 307.970411  C 248.120966 308.510981 248.335736 309.029482 248.717977 309.411722  C 249.100217 309.793963 249.618719 310.008733 250.159288 310.008733  z " clip-path="url(#pad5bab160c)" style="fill: #00bf7d; stroke: #00bf7d; stroke-width: 0.886227"/>
    <path d="M 250.159288 302.43293  C 250.699857 302.43293 251.218359 302.218159 251.600599 301.835919  C 251.982839 301.453679 252.19761 300.935177 252.19761 300.394608  C 252.19761 299.854039 251.982839 299.335537 251.600599 298.953297  C 251.218359 298.571056 250.699857 298.356286 250.159288 298.356286  C 249.618719 298.356286 249.100217 298.571056 248.717977 298.953297  C 248.335736 299.335537 248.120966 299.854039 248.120966 300.394608  C 248.120966 300.935177 248.335736 301.453679 248.717977 301.835919  C 249.100217 302.218159 249.618719 302.43293 250.159288 302.43293  z " clip-path="url(#pad5bab160c)" style="fill: #00b0f6; stroke: #00b0f6; stroke-width: 0.886227"/>
    <path d="M 250.159288 278.003372  C 250.699857 278.003372 251.218359 277.788601 251.600599 277.406361  C 251.982839 277.024121 252.19761 276.505619 252.19761 275.96505  C 252.19761 275.42448 251.982839 274.905979 251.600599 274.523738  C 251.218359 274.141498 250.699857 273.926728 250.159288 273.926728  C 249.618719 273.926728 249.100217 274.141498 248.717977 274.523738  C 248.335736 274.905979 248.120966 275.42448 248.120966 275.96505  C 248.120966 276.505619 248.335736 277.024121 248.717977 277.406361  C 249.100217 277.788601 249.618719 278.003372 250.159288 278.003372  z " clip-path="url(#pad5bab160c)" style="fill: #e76bf3; stroke: #e76bf3; stroke-width: 0.886227"/>
    <path d="M 302.872198 307.547167  C 303.412767 307.547167 303.931269 307.332396 304.313509 306.950156  C 304.695749 306.567916 304.91052 306.049414 304.91052 305.508845  C 304.91052 304.968275 304.695749 304.449774 304.313509 304.067534  C 303.931269 303.685293 303.412767 303.470523 302.872198 303.470523  C 302.331628 303.470523 301.813127 303.685293 301.430886 304.067534  C 301.048646 304.449774 300.833876 304.968275 300.833876 305.508845  C 300.833876 306.049414 301.048646 306.567916 301.430886 306.950156  C 301.813127 307.332396 302.331628 307.547167 302.872198 307.547167  z " clip-path="url(#pad5bab160c)" style="fill: #f8766d; stroke: #f8766d; stroke-width: 0.886227"/>
    <path d="M 302.872198 305.949213  C 303.412767 305.949213 303.931269 305.734443 304.313509 305.352203  C 304.695749 304.969962 304.91052 304.451461 304.91052 303.910891  C 304.91052 303.370322 304.695749 302.85182 304.313509 302.46958  C 303.931269 302.08734 303.412767 301.872569 302.872198 301.872569  C 302.331628 301.872569 301.813127 302.08734 301.430886 302.46958  C 301.048646 302.85182 300.833876 303.370322 300.833876 303.910891  C 300.833876 304.451461 301.048646 304.969962 301.430886 305.352203  C 301.813127 305.734443 302.331628 305.949213 302.872198 305.949213  z " clip-path="url(#pad5bab160c)" style="fill: #a3a500; stroke: #a3a500; stroke-width: 0.886227"/>
    <path d="M 302.872198 309.230924  C 303.412767 309.230924 303.931269 309.016153 304.313509 308.633913  C 304.695749 308.251673 304.91052 307.733171 304.91052 307.192602  C 304.91052 306.652032 304.695749 306.133531 304.313509 305.751291  C 303.931269 305.36905 303.412767 305.15428 302.872198 305.15428  C 302.331628 305.15428 301.813127 305.36905 301.430886 305.751291  C 301.048646 306.133531 300.833876 306.652032 300.833876 307.192602  C 300.833876 307.733171 301.048646 308.251673 301.430886 308.633913  C 301.813127 309.016153 302.331628 309.230924 302.872198 309.230924  z " clip-path="url(#pad5bab160c)" style="fill: #00bf7d; stroke: #00bf7d; stroke-width: 0.886227"/>
    <path d="M 302.872198 309.207823  C 303.412767 309.207823 303.931269 308.993053 304.313509 308.610813  C 304.695749 308.228572 304.91052 307.710071 304.91052 307.169501  C 304.91052 306.628932 304.695749 306.11043 304.313509 305.72819  C 303.931269 305.34595 303.412767 305.131179 302.872198 305.131179  C 302.331628 305.131179 301.813127 305.34595 301.430886 305.72819  C 301.048646 306.11043 300.833876 306.628932 300.833876 307.169501  C 300.833876 307.710071 301.048646 308.228572 301.430886 308.610813  C 301.813127 308.993053 302.331628 309.207823 302.872198 309.207823  z " clip-path="url(#pad5bab160c)" style="fill: #00b0f6; stroke: #00b0f6; stroke-width: 0.886227"/>
    <path d="M 302.872198 307.151001  C 303.412767 307.151001 303.931269 306.936231 304.313509 306.55399  C 304.695749 306.17175 304.91052 305.653248 304.91052 305.112679  C 304.91052 304.57211 304.695749 304.053608 304.313509 303.671368  C 303.931269 303.289128 303.412767 303.074357 302.872198 303.074357  C 302.331628 303.074357 301.813127 303.289128 301.430886 303.671368  C 301.048646 304.053608 300.833876 304.57211 300.833876 305.112679  C 300.833876 305.653248 301.048646 306.17175 301.430886 306.55399  C 301.813127 306.936231 302.331628 307.151001 302.872198 307.151001  z " clip-path="url(#pad5bab160c)" style="fill: #e76bf3; stroke: #e76bf3; stroke-width: 0.886227"/>
    <path d="M 355.585108 295.220346  C 356.125677 295.220346 356.644179 295.005576 357.026419 294.623336  C 357.408659 294.241095 357.62343 293.722594 357.62343 293.182024  C 357.62343 292.641455 357.408659 292.122953 357.026419 291.740713  C 356.644179 291.358473 356.125677 291.143702 355.585108 291.143702  C 355.044538 291.143702 354.526037 291.358473 354.143796 291.740713  C 353.761556 292.122953 353.546786 292.641455 353.546786 293.182024  C 353.546786 293.722594 353.761556 294.241095 354.143796 294.623336  C 354.526037 295.005576 355.044538 295.220346 355.585108 295.220346  z " clip-path="url(#pad5bab160c)" style="fill: #f8766d; stroke: #f8766d; stroke-width: 0.886227"/>
    <path d="M 355.585108 293.585719  C 356.125677 293.585719 356.644179 293.370949 357.026419 292.988709  C 357.408659 292.606468 357.62343 292.087967 357.62343 291.547397  C 357.62343 291.006828 357.408659 290.488326 357.026419 290.106086  C 356.644179 289.723846 356.125677 289.509075 355.585108 289.509075  C 355.044538 289.509075 354.526037 289.723846 354.143796 290.106086  C 353.761556 290.488326 353.546786 291.006828 353.546786 291.547397  C 353.546786 292.087967 353.761556 292.606468 354.143796 292.988709  C 354.526037 293.370949 355.044538 293.585719 355.585108 293.585719  z " clip-path="url(#pad5bab160c)" style="fill: #a3a500; stroke: #a3a500; stroke-width: 0.886227"/>
    <path d="M 355.585108 298.693016  C 356.125677 298.693016 356.644179 298.478245 357.026419 298.096005  C 357.408659 297.713765 357.62343 297.195263 357.62343 296.654694  C 357.62343 296.114124 357.408659 295.595623 357.026419 295.213382  C 356.644179 294.831142 356.125677 294.616372 355.585108 294.616372  C 355.044538 294.616372 354.526037 294.831142 354.143796 295.213382  C 353.761556 295.595623 353.546786 296.114124 353.546786 296.654694  C 353.546786 297.195263 353.761556 297.713765 354.143796 298.096005  C 354.526037 298.478245 355.044538 298.693016 355.585108 298.693016  z " clip-path="url(#pad5bab160c)" style="fill: #00bf7d; stroke: #00bf7d; stroke-width: 0.886227"/>
    <path d="M 355.585108 301.713341  C 356.125677 301.713341 356.644179 301.498571 357.026419 301.11633  C 357.408659 300.73409 357.62343 300.215588 357.62343 299.675019  C 357.62343 299.13445 357.408659 298.615948 357.026419 298.233708  C 356.644179 297.851468 356.125677 297.636697 355.585108 297.636697  C 355.044538 297.636697 354.526037 297.851468 354.143796 298.233708  C 353.761556 298.615948 353.546786 299.13445 353.546786 299.675019  C 353.546786 300.215588 353.761556 300.73409 354.143796 301.11633  C 354.526037 301.498571 355.044538 301.713341 355.585108 301.713341  z " clip-path="url(#pad5bab160c)" style="fill: #00b0f6; stroke: #00b0f6; stroke-width: 0.886227"/>
    <path d="M 355.585108 303.830761  C 356.125677 303.830761 356.644179 303.61599 357.026419 303.23375  C 357.408659 302.85151 357.62343 302.333008 357.62343 301.792439  C 357.62343 301.25187 357.408659 300.733368 357.026419 300.351128  C 356.644179 299.968887 356.125677 299.754117 355.585108 299.754117  C 355.044538 299.754117 354.526037 299.968887 354.143796 300.351128  C 353.761556 300.733368 353.546786 301.25187 353.546786 301.792439  C 353.546786 302.333008 353.761556 302.85151 354.143796 303.23375  C 354.526037 303.61599 355.044538 303.830761 355.585108 303.830761  z " clip-path="url(#pad5bab160c)" style="fill: #e76bf3; stroke: #e76bf3; stroke-width: 0.886227"/>
    <path d="M 408.298017 286.800559  C 408.838587 286.800559 409.357088 286.585789 409.739329 286.203548  C 410.121569 285.821308 410.336339 285.302806 410.336339 284.762237  C 410.336339 284.221668 410.121569 283.703166 409.739329 283.320926  C 409.357088 282.938686 408.838587 282.723915 408.298017 282.723915  C 407.757448 282.723915 407.238946 282.938686 406.856706 283.320926  C 406.474466 283.703166 406.259695 284.221668 406.259695 284.762237  C 406.259695 285.302806 406.474466 285.821308 406.856706 286.203548  C 407.238946 286.585789 407.757448 286.800559 408.298017 286.800559  z " clip-path="url(#pad5bab160c)" style="fill: #f8766d; stroke: #f8766d; stroke-width: 0.886227"/>
    <path d="M 408.298017 285.375768  C 408.838587 285.375768 409.357088 285.160998 409.739329 284.778758  C 410.121569 284.396517 410.336339 283.878016 410.336339 283.337446  C 410.336339 282.796877 410.121569 282.278375 409.739329 281.896135  C 409.357088 281.513895 408.838587 281.299125 408.298017 281.299125  C 407.757448 281.299125 407.238946 281.513895 406.856706 281.896135  C 406.474466 282.278375 406.259695 282.796877 406.259695 283.337446  C 406.259695 283.878016 406.474466 284.396517 406.856706 284.778758  C 407.238946 285.160998 407.757448 285.375768 408.298017 285.375768  z " clip-path="url(#pad5bab160c)" style="fill: #a3a500; stroke: #a3a500; stroke-width: 0.886227"/>
    <path d="M 408.298017 293.526239  C 408.838587 293.526239 409.357088 293.311469 409.739329 292.929228  C 410.121569 292.546988 410.336339 292.028486 410.336339 291.487917  C 410.336339 290.947348 410.121569 290.428846 409.739329 290.046606  C 409.357088 289.664366 408.838587 289.449595 408.298017 289.449595  C 407.757448 289.449595 407.238946 289.664366 406.856706 290.046606  C 406.474466 290.428846 406.259695 290.947348 406.259695 291.487917  C 406.259695 292.028486 406.474466 292.546988 406.856706 292.929228  C 407.238946 293.311469 407.757448 293.526239 408.298017 293.526239  z " clip-path="url(#pad5bab160c)" style="fill: #00bf7d; stroke: #00bf7d; stroke-width: 0.886227"/>
    <path d="M 408.298017 299.772352  C 408.838587 299.772352 409.357088 299.557581 409.739329 299.175341  C 410.121569 298.793101 410.336339 298.274599 410.336339 297.73403  C 410.336339 297.193461 410.121569 296.674959 409.739329 296.292719  C 409.357088 295.910478 408.838587 295.695708 408.298017 295.695708  C 407.757448 295.695708 407.238946 295.910478 406.856706 296.292719  C 406.474466 296.674959 406.259695 297.193461 406.259695 297.73403  C 406.259695 298.274599 406.474466 298.793101 406.856706 299.175341  C 407.238946 299.557581 407.757448 299.772352 408.298017 299.772352  z " clip-path="url(#pad5bab160c)" style="fill: #00b0f6; stroke: #00b0f6; stroke-width: 0.886227"/>
    <path d="M 408.298017 304.305072  C 408.838587 304.305072 409.357088 304.090302 409.739329 303.708061  C 410.121569 303.325821 410.336339 302.807319 410.336339 302.26675  C 410.336339 301.726181 410.121569 301.207679 409.739329 300.825439  C 409.357088 300.443199 408.838587 300.228428 408.298017 300.228428  C 407.757448 300.228428 407.238946 300.443199 406.856706 300.825439  C 406.474466 301.207679 406.259695 301.726181 406.259695 302.26675  C 406.259695 302.807319 406.474466 303.325821 406.856706 303.708061  C 407.238946 304.090302 407.757448 304.305072 408.298017 304.305072  z " clip-path="url(#pad5bab160c)" style="fill: #e76bf3; stroke: #e76bf3; stroke-width: 0.886227"/>
    <path d="M 461.010927 283.647666  C 461.551497 283.647666 462.069998 283.432895 462.452239 283.050655  C 462.834479 282.668415 463.049249 282.149913 463.049249 281.609344  C 463.049249 281.068775 462.834479 280.550273 462.452239 280.168033  C 462.069998 279.785792 461.551497 279.571022 461.010927 279.571022  C 460.470358 279.571022 459.951856 279.785792 459.569616 280.168033  C 459.187376 280.550273 458.972605 281.068775 458.972605 281.609344  C 458.972605 282.149913 459.187376 282.668415 459.569616 283.050655  C 459.951856 283.432895 460.470358 283.647666 461.010927 283.647666  z " clip-path="url(#pad5bab160c)" style="fill: #f8766d; stroke: #f8766d; stroke-width: 0.886227"/>
    <path d="M 461.010927 281.30715  C 461.551497 281.30715 462.069998 281.09238 462.452239 280.71014  C 462.834479 280.327899 463.049249 279.809398 463.049249 279.268828  C 463.049249 278.728259 462.834479 278.209757 462.452239 277.827517  C 462.069998 277.445277 461.551497 277.230506 461.010927 277.230506  C 460.470358 277.230506 459.951856 277.445277 459.569616 277.827517  C 459.187376 278.209757 458.972605 278.728259 458.972605 279.268828  C 458.972605 279.809398 459.187376 280.327899 459.569616 280.71014  C 459.951856 281.09238 460.470358 281.30715 461.010927 281.30715  z " clip-path="url(#pad5bab160c)" style="fill: #a3a500; stroke: #a3a500; stroke-width: 0.886227"/>
    <path d="M 461.010927 290.228528  C 461.551497 290.228528 462.069998 290.013757 462.452239 289.631517  C 462.834479 289.249277 463.049249 288.730775 463.049249 288.190206  C 463.049249 287.649636 462.834479 287.131135 462.452239 286.748894  C 462.069998 286.366654 461.551497 286.151884 461.010927 286.151884  C 460.470358 286.151884 459.951856 286.366654 459.569616 286.748894  C 459.187376 287.131135 458.972605 287.649636 458.972605 288.190206  C 458.972605 288.730775 459.187376 289.249277 459.569616 289.631517  C 459.951856 290.013757 460.470358 290.228528 461.010927 290.228528  z " clip-path="url(#pad5bab160c)" style="fill: #00bf7d; stroke: #00bf7d; stroke-width: 0.886227"/>
    <path d="M 461.010927 296.857529  C 461.551497 296.857529 462.069998 296.642759 462.452239 296.260519  C 462.834479 295.878279 463.049249 295.359777 463.049249 294.819208  C 463.049249 294.278638 462.834479 293.760137 462.452239 293.377896  C 462.069998 292.995656 461.551497 292.780886 461.010927 292.780886  C 460.470358 292.780886 459.951856 292.995656 459.569616 293.377896  C 459.187376 293.760137 458.972605 294.278638 458.972605 294.819208  C 458.972605 295.359777 459.187376 295.878279 459.569616 296.260519  C 459.951856 296.642759 460.470358 296.857529 461.010927 296.857529  z " clip-path="url(#pad5bab160c)" style="fill: #00b0f6; stroke: #00b0f6; stroke-width: 0.886227"/>
    <path d="M 461.010927 302.243142  C 461.551497 302.243142 462.069998 302.028371 462.452239 301.646131  C 462.834479 301.263891 463.049249 300.745389 463.049249 300.20482  C 463.049249 299.66425 462.834479 299.145749 462.452239 298.763508  C 462.069998 298.381268 461.551497 298.166498 461.010927 298.166498  C 460.470358 298.166498 459.951856 298.381268 459.569616 298.763508  C 459.187376 299.145749 458.972605 299.66425 458.972605 300.20482  C 458.972605 300.745389 459.187376 301.263891 459.569616 301.646131  C 459.951856 302.028371 460.470358 302.243142 461.010927 302.243142  z " clip-path="url(#pad5bab160c)" style="fill: #e76bf3; stroke: #e76bf3; stroke-width: 0.886227"/>
    <path d="M 513.723837 296.092751  C 514.264406 296.092751 514.782908 295.87798 515.165148 295.49574  C 515.547389 295.1135 515.762159 294.594998 515.762159 294.054429  C 515.762159 293.513859 515.547389 292.995358 515.165148 292.613118  C 514.782908 292.230877 514.264406 292.016107 513.723837 292.016107  C 513.183268 292.016107 512.664766 292.230877 512.282526 292.613118  C 511.900286 292.995358 511.685515 293.513859 511.685515 294.054429  C 511.685515 294.594998 511.900286 295.1135 512.282526 295.49574  C 512.664766 295.87798 513.183268 296.092751 513.723837 296.092751  z " clip-path="url(#pad5bab160c)" style="fill: #f8766d; stroke: #f8766d; stroke-width: 0.886227"/>
    <path d="M 513.723837 294.145463  C 514.264406 294.145463 514.782908 293.930693 515.165148 293.548452  C 515.547389 293.166212 515.762159 292.647711 515.762159 292.107141  C 515.762159 291.566572 515.547389 291.04807 515.165148 290.66583  C 514.782908 290.28359 514.264406 290.068819 513.723837 290.068819  C 513.183268 290.068819 512.664766 290.28359 512.282526 290.66583  C 511.900286 291.04807 511.685515 291.566572 511.685515 292.107141  C 511.685515 292.647711 511.900286 293.166212 512.282526 293.548452  C 512.664766 293.930693 513.183268 294.145463 513.723837 294.145463  z " clip-path="url(#pad5bab160c)" style="fill: #a3a500; stroke: #a3a500; stroke-width: 0.886227"/>
    <path d="M 513.723837 298.141906  C 514.264406 298.141906 514.782908 297.927136 515.165148 297.544895  C 515.547389 297.162655 515.762159 296.644154 515.762159 296.103584  C 515.762159 295.563015 515.547389 295.044513 515.165148 294.662273  C 514.782908 294.280033 514.264406 294.065262 513.723837 294.065262  C 513.183268 294.065262 512.664766 294.280033 512.282526 294.662273  C 511.900286 295.044513 511.685515 295.563015 511.685515 296.103584  C 511.685515 296.644154 511.900286 297.162655 512.282526 297.544895  C 512.664766 297.927136 513.183268 298.141906 513.723837 298.141906  z " clip-path="url(#pad5bab160c)" style="fill: #00bf7d; stroke: #00bf7d; stroke-width: 0.886227"/>
    <path d="M 513.723837 300.90429  C 514.264406 300.90429 514.782908 300.68952 515.165148 300.30728  C 515.547389 299.925039 515.762159 299.406538 515.762159 298.865968  C 515.762159 298.325399 515.547389 297.806897 515.165148 297.424657  C 514.782908 297.042417 514.264406 296.827646 513.723837 296.827646  C 513.183268 296.827646 512.664766 297.042417 512.282526 297.424657  C 511.900286 297.806897 511.685515 298.325399 511.685515 298.865968  C 511.685515 299.406538 511.900286 299.925039 512.282526 300.30728  C 512.664766 300.68952 513.183268 300.90429 513.723837 300.90429  z " clip-path="url(#pad5bab160c)" style="fill: #00b0f6; stroke: #00b0f6; stroke-width: 0.886227"/>
    <path d="M 513.723837 302.250705  C 514.264406 302.250705 514.782908 302.035934 515.165148 301.653694  C 515.547389 301.271454 515.762159 300.752952 515.762159 300.212383  C 515.762159 299.671813 515.547389 299.153312 515.165148 298.771072  C 514.782908 298.388831 514.264406 298.174061 513.723837 298.174061  C 513.183268 298.174061 512.664766 298.388831 512.282526 298.771072  C 511.900286 299.153312 511.685515 299.671813 511.685515 300.212383  C 511.685515 300.752952 511.900286 301.271454 512.282526 301.653694  C 512.664766 302.035934 513.183268 302.250705 513.723837 302.250705  z " clip-path="url(#pad5bab160c)" style="fill: #e76bf3; stroke: #e76bf3; stroke-width: 0.886227"/>
    <path d="M 566.436747 305.0725  C 566.977316 305.0725 567.495818 304.857729 567.878058 304.475489  C 568.260298 304.093249 568.475069 303.574747 568.475069 303.034178  C 568.475069 302.493608 568.260298 301.975107 567.878058 301.592866  C 567.495818 301.210626 566.977316 300.995856 566.436747 300.995856  C 565.896178 300.995856 565.377676 301.210626 564.995436 301.592866  C 564.613195 301.975107 564.398425 302.493608 564.398425 303.034178  C 564.398425 303.574747 564.613195 304.093249 564.995436 304.475489  C 565.377676 304.857729 565.896178 305.0725 566.436747 305.0725  z " clip-path="url(#pad5bab160c)" style="fill: #f8766d; stroke: #f8766d; stroke-width: 0.886227"/>
    <path d="M 566.436747 301.908739  C 566.977316 301.908739 567.495818 301.693969 567.878058 301.311728  C 568.260298 300.929488 568.475069 300.410986 568.475069 299.870417  C 568.475069 299.329848 568.260298 298.811346 567.878058 298.429106  C 567.495818 298.046866 566.977316 297.832095 566.436747 297.832095  C 565.896178 297.832095 565.377676 298.046866 564.995436 298.429106  C 564.613195 298.811346 564.398425 299.329848 564.398425 299.870417  C 564.398425 300.410986 564.613195 300.929488 564.995436 301.311728  C 565.377676 301.693969 565.896178 301.908739 566.436747 301.908739  z " clip-path="url(#pad5bab160c)" style="fill: #a3a500; stroke: #a3a500; stroke-width: 0.886227"/>
    <path d="M 566.436747 293.904382  C 566.977316 293.904382 567.495818 293.689612 567.878058 293.307371  C 568.260298 292.925131 568.475069 292.40663 568.475069 291.86606  C 568.475069 291.325491 568.260298 290.806989 567.878058 290.424749  C 567.495818 290.042509 566.977316 289.827738 566.436747 289.827738  C 565.896178 289.827738 565.377676 290.042509 564.995436 290.424749  C 564.613195 290.806989 564.398425 291.325491 564.398425 291.86606  C 564.398425 292.40663 564.613195 292.925131 564.995436 293.307371  C 565.377676 293.689612 565.896178 293.904382 566.436747 293.904382  z " clip-path="url(#pad5bab160c)" style="fill: #00bf7d; stroke: #00bf7d; stroke-width: 0.886227"/>
    <path d="M 566.436747 292.057155  C 566.977316 292.057155 567.495818 291.842385 567.878058 291.460144  C 568.260298 291.077904 568.475069 290.559403 568.475069 290.018833  C 568.475069 289.478264 568.260298 288.959762 567.878058 288.577522  C 567.495818 288.195282 566.977316 287.980511 566.436747 287.980511  C 565.896178 287.980511 565.377676 288.195282 564.995436 288.577522  C 564.613195 288.959762 564.398425 289.478264 564.398425 290.018833  C 564.398425 290.559403 564.613195 291.077904 564.995436 291.460144  C 565.377676 291.842385 565.896178 292.057155 566.436747 292.057155  z " clip-path="url(#pad5bab160c)" style="fill: #00b0f6; stroke: #00b0f6; stroke-width: 0.886227"/>
    <path d="M 566.436747 278.867135  C 566.977316 278.867135 567.495818 278.652364 567.878058 278.270124  C 568.260298 277.887884 568.475069 277.369382 568.475069 276.828813  C 568.475069 276.288244 568.260298 275.769742 567.878058 275.387502  C 567.495818 275.005261 566.977316 274.790491 566.436747 274.790491  C 565.896178 274.790491 565.377676 275.005261 564.995436 275.387502  C 564.613195 275.769742 564.398425 276.288244 564.398425 276.828813  C 564.398425 277.369382 564.613195 277.887884 564.995436 278.270124  C 565.377676 278.652364 565.896178 278.867135 566.436747 278.867135  z " clip-path="url(#pad5bab160c)" style="fill: #e76bf3; stroke: #e76bf3; stroke-width: 0.886227"/>
    <path d="M 619.149657 304.319641  C 619.690226 304.319641 620.208728 304.10487 620.590968 303.72263  C 620.973208 303.34039 621.187979 302.821888 621.187979 302.281319  C 621.187979 301.74075 620.973208 301.222248 620.590968 300.840008  C 620.208728 300.457767 619.690226 300.242997 619.149657 300.242997  C 618.609087 300.242997 618.090586 300.457767 617.708346 300.840008  C 617.326105 301.222248 617.111335 301.74075 617.111335 302.281319  C 617.111335 302.821888 617.326105 303.34039 617.708346 303.72263  C 618.090586 304.10487 618.609087 304.319641 619.149657 304.319641  z " clip-path="url(#pad5bab160c)" style="fill: #f8766d; stroke: #f8766d; stroke-width: 0.886227"/>
    <path d="M 619.149657 289.213255  C 619.690226 289.213255 620.208728 288.998485 620.590968 288.616245  C 620.973208 288.234005 621.187979 287.715503 621.187979 287.174933  C 621.187979 286.634364 620.973208 286.115862 620.590968 285.733622  C 620.208728 285.351382 619.690226 285.136612 619.149657 285.136612  C 618.609087 285.136612 618.090586 285.351382 617.708346 285.733622  C 617.326105 286.115862 617.111335 286.634364 617.111335 287.174933  C 617.111335 287.715503 617.326105 288.234005 617.708346 288.616245  C 618.090586 288.998485 618.609087 289.213255 619.149657 289.213255  z " clip-path="url(#pad5bab160c)" style="fill: #a3a500; stroke: #a3a500; stroke-width: 0.886227"/>
    <path d="M 619.149657 266.013261  C 619.690226 266.013261 620.208728 265.798491 620.590968 265.416251  C 620.973208 265.034011 621.187979 264.515509 621.187979 263.974939  C 621.187979 263.43437 620.973208 262.915868 620.590968 262.533628  C 620.208728 262.151388 619.690226 261.936618 619.149657 261.936618  C 618.609087 261.936618 618.090586 262.151388 617.708346 262.533628  C 617.326105 262.915868 617.111335 263.43437 617.111335 263.974939  C 617.111335 264.515509 617.326105 265.034011 617.708346 265.416251  C 618.090586 265.798491 618.609087 266.013261 619.149657 266.013261  z " clip-path="url(#pad5bab160c)" style="fill: #00bf7d; stroke: #00bf7d; stroke-width: 0.886227"/>
    <path d="M 619.149657 259.825301  C 619.690226 259.825301 620.208728 259.610531 620.590968 259.22829  C 620.973208 258.84605 621.187979 258.327548 621.187979 257.786979  C 621.187979 257.24641 620.973208 256.727908 620.590968 256.345668  C 620.208728 255.963428 619.690226 255.748657 619.149657 255.748657  C 618.609087 255.748657 618.090586 255.963428 617.708346 256.345668  C 617.326105 256.727908 617.111335 257.24641 617.111335 257.786979  C 617.111335 258.327548 617.326105 258.84605 617.708346 259.22829  C 618.090586 259.610531 618.609087 259.825301 619.149657 259.825301  z " clip-path="url(#pad5bab160c)" style="fill: #00b0f6; stroke: #00b0f6; stroke-width: 0.886227"/>
    <path d="M 619.149657 228.609816  C 619.690226 228.609816 620.208728 228.395046 620.590968 228.012806  C 620.973208 227.630566 621.187979 227.112064 621.187979 226.571495  C 621.187979 226.030925 620.973208 225.512423 620.590968 225.130183  C 620.208728 224.747943 619.690226 224.533173 619.149657 224.533173  C 618.609087 224.533173 618.090586 224.747943 617.708346 225.130183  C 617.326105 225.512423 617.111335 226.030925 617.111335 226.571495  C 617.111335 227.112064 617.326105 227.630566 617.708346 228.012806  C 618.090586 228.395046 618.609087 228.609816 619.149657 228.609816  z " clip-path="url(#pad5bab160c)" style="fill: #e76bf3; stroke: #e76bf3; stroke-width: 0.886227"/>
    <path d="M 671.862567 262.409777  C 672.403136 262.409777 672.921638 262.195006 673.303878 261.812766  C 673.686118 261.430526 673.900889 260.912024 673.900889 260.371455  C 673.900889 259.830885 673.686118 259.312384 673.303878 258.930143  C 672.921638 258.547903 672.403136 258.333133 671.862567 258.333133  C 671.321997 258.333133 670.803496 258.547903 670.421255 258.930143  C 670.039015 259.312384 669.824245 259.830885 669.824245 260.371455  C 669.824245 260.912024 670.039015 261.430526 670.421255 261.812766  C 670.803496 262.195006 671.321997 262.409777 671.862567 262.409777  z " clip-path="url(#pad5bab160c)" style="fill: #f8766d; stroke: #f8766d; stroke-width: 0.886227"/>
    <path d="M 671.862567 240.887266  C 672.403136 240.887266 672.921638 240.672495 673.303878 240.290255  C 673.686118 239.908015 673.900889 239.389513 673.900889 238.848944  C 673.900889 238.308374 673.686118 237.789873 673.303878 237.407633  C 672.921638 237.025392 672.403136 236.810622 671.862567 236.810622  C 671.321997 236.810622 670.803496 237.025392 670.421255 237.407633  C 670.039015 237.789873 669.824245 238.308374 669.824245 238.848944  C 669.824245 239.389513 670.039015 239.908015 670.421255 240.290255  C 670.803496 240.672495 671.321997 240.887266 671.862567 240.887266  z " clip-path="url(#pad5bab160c)" style="fill: #a3a500; stroke: #a3a500; stroke-width: 0.886227"/>
    <path d="M 671.862567 198.357524  C 672.403136 198.357524 672.921638 198.142753 673.303878 197.760513  C 673.686118 197.378273 673.900889 196.859771 673.900889 196.319202  C 673.900889 195.778633 673.686118 195.260131 673.303878 194.877891  C 672.921638 194.49565 672.403136 194.28088 671.862567 194.28088  C 671.321997 194.28088 670.803496 194.49565 670.421255 194.877891  C 670.039015 195.260131 669.824245 195.778633 669.824245 196.319202  C 669.824245 196.859771 670.039015 197.378273 670.421255 197.760513  C 670.803496 198.142753 671.321997 198.357524 671.862567 198.357524  z " clip-path="url(#pad5bab160c)" style="fill: #00bf7d; stroke: #00bf7d; stroke-width: 0.886227"/>
    <path d="M 671.862567 191.734791  C 672.403136 191.734791 672.921638 191.520021 673.303878 191.13778  C 673.686118 190.75554 673.900889 190.237038 673.900889 189.696469  C 673.900889 189.1559 673.686118 188.637398 673.303878 188.255158  C 672.921638 187.872918 672.403136 187.658147 671.862567 187.658147  C 671.321997 187.658147 670.803496 187.872918 670.421255 188.255158  C 670.039015 188.637398 669.824245 189.1559 669.824245 189.696469  C 669.824245 190.237038 670.039015 190.75554 670.421255 191.13778  C 670.803496 191.520021 671.321997 191.734791 671.862567 191.734791  z " clip-path="url(#pad5bab160c)" style="fill: #00b0f6; stroke: #00b0f6; stroke-width: 0.886227"/>
    <path d="M 671.862567 146.683155  C 672.403136 146.683155 672.921638 146.468384 673.303878 146.086144  C 673.686118 145.703904 673.900889 145.185402 673.900889 144.644833  C 673.900889 144.104263 673.686118 143.585762 673.303878 143.203521  C 672.921638 142.821281 672.403136 142.606511 671.862567 142.606511  C 671.321997 142.606511 670.803496 142.821281 670.421255 143.203521  C 670.039015 143.585762 669.824245 144.104263 669.824245 144.644833  C 669.824245 145.185402 670.039015 145.703904 670.421255 146.086144  C 670.803496 146.468384 671.321997 146.683155 671.862567 146.683155  z " clip-path="url(#pad5bab160c)" style="fill: #e76bf3; stroke: #e76bf3; stroke-width: 0.886227"/>
   </g>
   <g id="patch_3">
    <path d="M 60.392813 344.63  L 703.490313 344.63  " style="fill: none; stroke: #000000; stroke-width: 0.5; stroke-linejoin: miter; stroke-linecap: square"/>
   </g>
  </g>
  <g id="text_17">
   <text style="font-weight: 700; font-size: 15px; font-family: 'GT Planar'; text-anchor: start" x="60.392813" y="17.7" transform="rotate(-0 60.392813 17.7)">Natural gas: mean monthly bill change by AFUE</text>
  </g>
  <g id="text_18">
   <text style="font-size: 13px; font-family: 'GT Planar'; text-anchor: start; fill: #333333" x="362.182578" y="385.02" transform="rotate(-0 362.182578 385.02)">Month</text>
  </g>
  <g id="text_19">
   <text style="font-size: 13px; font-family: 'GT Planar'; fill: #333333" transform="translate(17.522813 289.4125) rotate(-90)">Mean $ delta (energy_total_bill)</text>
   <text style="font-size: 13px; font-family: 'GT Planar'; fill: #333333" transform="translate(28.052813 244.241562) rotate(-90)">run 3+4 − run 1+2</text>
  </g>
  <g id="text_20">
   <text style="font-size: 13px; font-family: 'GT Planar'; text-anchor: start; fill: #333333" x="728.250313" y="149.305" transform="rotate(-0 728.250313 149.305)">AFUE</text>
  </g>
  <g id="patch_4">
   <path d="M 729.250313 168.465  L 743.090313 168.465  L 743.090313 154.625  L 729.250313 154.625  z " clip-path="url(#p982868bbcc)" style="fill: #ffffff; stroke: #ffffff; stroke-linejoin: miter"/>
  </g>
  <g id="line2d_27">
   <path d="M 728.250313 161.545  L 744.090313 161.545  " clip-path="url(#p982868bbcc)" style="fill: none; stroke: #f8766d; stroke-width: 0.886227"/>
  </g>
  <g id="line2d_28">
   <path d="M 736.170313 161.545  " clip-path="url(#p982868bbcc)" style="fill: none; stroke: #1f77b4; stroke-width: 1.5; stroke-linecap: square"/>
   <defs>
    <path id="mea2f166dbc" d="M 0 2.038322  C 0.540569 2.038322 1.059071 1.823551 1.441311 1.441311  C 1.823551 1.059071 2.038322 0.540569 2.038322 0  C 2.038322 -0.540569 1.823551 -1.059071 1.441311 -1.441311  C 1.059071 -1.823551 0.540569 -2.038322 0 -2.038322  C -0.540569 -2.038322 -1.059071 -1.823551 -1.441311 -1.441311  C -1.823551 -1.059071 -2.038322 -0.540569 -2.038322 0  C -2.038322 0.540569 -1.823551 1.059071 -1.441311 1.441311  C -1.059071 1.823551 -0.540569 2.038322 0 2.038322  z " style="stroke: #f8766d; stroke-width: 0.886227"/>
   </defs>
   <g clip-path="url(#p982868bbcc)">
    <use xlink:href="#mea2f166dbc" x="736.170313" y="161.545" style="fill: #f8766d; stroke: #f8766d; stroke-width: 0.886227"/>
   </g>
  </g>
  <g id="text_21">
   <text style="font-size: 11px; font-family: 'IBM Plex Sans'; text-anchor: middle; fill: #4d4d4d" x="765.865156" y="164.515" transform="rotate(-0 765.865156 164.515)">60.0%</text>
  </g>
  <g id="patch_5">
   <path d="M 729.250313 186.305  L 743.090313 186.305  L 743.090313 172.465  L 729.250313 172.465  z " clip-path="url(#p6154a94394)" style="fill: #ffffff; stroke: #ffffff; stroke-linejoin: miter"/>
  </g>
  <g id="line2d_29">
   <path d="M 728.250313 179.385  L 744.090313 179.385  " clip-path="url(#p6154a94394)" style="fill: none; stroke: #a3a500; stroke-width: 0.886227"/>
  </g>
  <g id="line2d_30">
   <path d="M 736.170313 179.385  " clip-path="url(#p6154a94394)" style="fill: none; stroke: #1f77b4; stroke-width: 1.5; stroke-linecap: square"/>
   <defs>
    <path id="me4eaf23034" d="M 0 2.038322  C 0.540569 2.038322 1.059071 1.823551 1.441311 1.441311  C 1.823551 1.059071 2.038322 0.540569 2.038322 0  C 2.038322 -0.540569 1.823551 -1.059071 1.441311 -1.441311  C 1.059071 -1.823551 0.540569 -2.038322 0 -2.038322  C -0.540569 -2.038322 -1.059071 -1.823551 -1.441311 -1.441311  C -1.823551 -1.059071 -2.038322 -0.540569 -2.038322 0  C -2.038322 0.540569 -1.823551 1.059071 -1.441311 1.441311  C -1.059071 1.823551 -0.540569 2.038322 0 2.038322  z " style="stroke: #a3a500; stroke-width: 0.886227"/>
   </defs>
   <g clip-path="url(#p6154a94394)">
    <use xlink:href="#me4eaf23034" x="736.170313" y="179.385" style="fill: #a3a500; stroke: #a3a500; stroke-width: 0.886227"/>
   </g>
  </g>
  <g id="text_22">
   <text style="font-size: 11px; font-family: 'IBM Plex Sans'; text-anchor: middle; fill: #4d4d4d" x="765.865156" y="182.355" transform="rotate(-0 765.865156 182.355)">68.0%</text>
  </g>
  <g id="patch_6">
   <path d="M 729.250313 204.145  L 743.090313 204.145  L 743.090313 190.305  L 729.250313 190.305  z " clip-path="url(#p4e18d88253)" style="fill: #ffffff; stroke: #ffffff; stroke-linejoin: miter"/>
  </g>
  <g id="line2d_31">
   <path d="M 728.250313 197.225  L 744.090313 197.225  " clip-path="url(#p4e18d88253)" style="fill: none; stroke: #00bf7d; stroke-width: 0.886227"/>
  </g>
  <g id="line2d_32">
   <path d="M 736.170313 197.225  " clip-path="url(#p4e18d88253)" style="fill: none; stroke: #1f77b4; stroke-width: 1.5; stroke-linecap: square"/>
   <defs>
    <path id="m9413e4520a" d="M 0 2.038322  C 0.540569 2.038322 1.059071 1.823551 1.441311 1.441311  C 1.823551 1.059071 2.038322 0.540569 2.038322 0  C 2.038322 -0.540569 1.823551 -1.059071 1.441311 -1.441311  C 1.059071 -1.823551 0.540569 -2.038322 0 -2.038322  C -0.540569 -2.038322 -1.059071 -1.823551 -1.441311 -1.441311  C -1.823551 -1.059071 -2.038322 -0.540569 -2.038322 0  C -2.038322 0.540569 -1.823551 1.059071 -1.441311 1.441311  C -1.059071 1.823551 -0.540569 2.038322 0 2.038322  z " style="stroke: #00bf7d; stroke-width: 0.886227"/>
   </defs>
   <g clip-path="url(#p4e18d88253)">
    <use xlink:href="#m9413e4520a" x="736.170313" y="197.225" style="fill: #00bf7d; stroke: #00bf7d; stroke-width: 0.886227"/>
   </g>
  </g>
  <g id="text_23">
   <text style="font-size: 11px; font-family: 'IBM Plex Sans'; text-anchor: middle; fill: #4d4d4d" x="765.865156" y="200.195" transform="rotate(-0 765.865156 200.195)">76.0%</text>
  </g>
  <g id="patch_7">
   <path d="M 729.250313 221.985  L 743.090313 221.985  L 743.090313 208.145  L 729.250313 208.145  z " clip-path="url(#pbd4dbe0c08)" style="fill: #ffffff; stroke: #ffffff; stroke-linejoin: miter"/>
  </g>
  <g id="line2d_33">
   <path d="M 728.250313 215.065  L 744.090313 215.065  " clip-path="url(#pbd4dbe0c08)" style="fill: none; stroke: #00b0f6; stroke-width: 0.886227"/>
  </g>
  <g id="line2d_34">
   <path d="M 736.170313 215.065  " clip-path="url(#pbd4dbe0c08)" style="fill: none; stroke: #1f77b4; stroke-width: 1.5; stroke-linecap: square"/>
   <defs>
    <path id="mf068a372ed" d="M 0 2.038322  C 0.540569 2.038322 1.059071 1.823551 1.441311 1.441311  C 1.823551 1.059071 2.038322 0.540569 2.038322 0  C 2.038322 -0.540569 1.823551 -1.059071 1.441311 -1.441311  C 1.059071 -1.823551 0.540569 -2.038322 0 -2.038322  C -0.540569 -2.038322 -1.059071 -1.823551 -1.441311 -1.441311  C -1.823551 -1.059071 -2.038322 -0.540569 -2.038322 0  C -2.038322 0.540569 -1.823551 1.059071 -1.441311 1.441311  C -1.059071 1.823551 -0.540569 2.038322 0 2.038322  z " style="stroke: #00b0f6; stroke-width: 0.886227"/>
   </defs>
   <g clip-path="url(#pbd4dbe0c08)">
    <use xlink:href="#mf068a372ed" x="736.170313" y="215.065" style="fill: #00b0f6; stroke: #00b0f6; stroke-width: 0.886227"/>
   </g>
  </g>
  <g id="text_24">
   <text style="font-size: 11px; font-family: 'IBM Plex Sans'; text-anchor: middle; fill: #4d4d4d" x="765.865156" y="218.035" transform="rotate(-0 765.865156 218.035)">80.0%</text>
  </g>
  <g id="patch_8">
   <path d="M 729.250313 239.825  L 743.090313 239.825  L 743.090313 225.985  L 729.250313 225.985  z " clip-path="url(#p1e7fc0784f)" style="fill: #ffffff; stroke: #ffffff; stroke-linejoin: miter"/>
  </g>
  <g id="line2d_35">
   <path d="M 728.250313 232.905  L 744.090313 232.905  " clip-path="url(#p1e7fc0784f)" style="fill: none; stroke: #e76bf3; stroke-width: 0.886227"/>
  </g>
  <g id="line2d_36">
   <path d="M 736.170313 232.905  " clip-path="url(#p1e7fc0784f)" style="fill: none; stroke: #1f77b4; stroke-width: 1.5; stroke-linecap: square"/>
   <defs>
    <path id="mf81c331d27" d="M 0 2.038322  C 0.540569 2.038322 1.059071 1.823551 1.441311 1.441311  C 1.823551 1.059071 2.038322 0.540569 2.038322 0  C 2.038322 -0.540569 1.823551 -1.059071 1.441311 -1.441311  C 1.059071 -1.823551 0.540569 -2.038322 0 -2.038322  C -0.540569 -2.038322 -1.059071 -1.823551 -1.441311 -1.441311  C -1.823551 -1.059071 -2.038322 -0.540569 -2.038322 0  C -2.038322 0.540569 -1.823551 1.059071 -1.441311 1.441311  C -1.059071 1.823551 -0.540569 2.038322 0 2.038322  z " style="stroke: #e76bf3; stroke-width: 0.886227"/>
   </defs>
   <g clip-path="url(#p1e7fc0784f)">
    <use xlink:href="#mf81c331d27" x="736.170313" y="232.905" style="fill: #e76bf3; stroke: #e76bf3; stroke-width: 0.886227"/>
   </g>
  </g>
  <g id="text_25">
   <text style="font-size: 11px; font-family: 'IBM Plex Sans'; text-anchor: middle; fill: #4d4d4d" x="765.865156" y="235.875" transform="rotate(-0 765.865156 235.875)">92.5%</text>
  </g>
 </g>
 <defs>
  <clipPath id="pad5bab160c">
   <rect x="60.392813" y="36.4" width="643.0975" height="308.23"/>
  </clipPath>
  <clipPath id="p982868bbcc">
   <path d="M 728.250313 169.465  L 728.250313 153.625  L 744.090313 153.625  L 744.090313 169.465  "/>
  </clipPath>
  <clipPath id="p6154a94394">
   <path d="M 728.250313 187.305  L 728.250313 171.465  L 744.090313 171.465  L 744.090313 187.305  "/>
  </clipPath>
  <clipPath id="p4e18d88253">
   <path d="M 728.250313 205.145  L 728.250313 189.305  L 744.090313 189.305  L 744.090313 205.145  "/>
  </clipPath>
  <clipPath id="pbd4dbe0c08">
   <path d="M 728.250313 222.985  L 728.250313 207.145  L 744.090313 207.145  L 744.090313 222.985  "/>
  </clipPath>
  <clipPath id="p1e7fc0784f">
   <path d="M 728.250313 240.825  L 728.250313 224.985  L 744.090313 224.985  L 744.090313 240.825  "/>
  </clipPath>
 </defs>
</svg>
