<svg xmlns:xlink="http://www.w3.org/1999/xlink" xmlns="http://www.w3.org/2000/svg" width="790.56pt" height="394.56pt" viewBox="0 0 790.56 394.56" version="1.1">
 <metadata>
  <rdf:RDF xmlns:dc="http://purl.org/dc/elements/1.1/" xmlns:cc="http://creativecommons.org/ns#" xmlns:rdf="http://www.w3.org/1999/02/22-rdf-syntax-ns#">
   <cc:Work>
    <dc:type rdf:resource="http://purl.org/dc/dcmitype/StillImage"/>
    <dc:date>2026-04-24T02:23:40.380909</dc:date>
    <dc:format>image/svg+xml</dc:format>
    <dc:creator>
     <cc:Agent>
      <dc:title>Matplotlib v3.10.8, https://matplotlib.org/</dc:title>
     </cc:Agent>
    </dc:creator>
   </cc:Work>
  </rdf:RDF>
 </metadata>
 <defs>
  <style type="text/css">*{stroke-linejoin: round; stroke-linecap: butt}</style>
 </defs>
 <g id="figure_1">
  <g id="patch_1">
   <path d="M 0 394.56  L 790.56 394.56  L 790.56 0  L 0 0  z " style="fill: #ffffff"/>
  </g>
  <g id="axes_1">
   <g id="patch_2">
    <path d="M 70.288719 344.63  L 604.119062 344.63  L 604.119062 36.639063  L 70.288719 36.639063  z " style="fill: #ffffff"/>
   </g>
   <g id="matplotlib.axis_1">
    <g id="xtick_1">
     <g id="line2d_1">
      <path d="M 96.54267 344.63  " style="fill: none; stroke: #000000; stroke-width: 1.5; stroke-linecap: square"/>
      <defs>
       <path id="m5b60bec6b0" d="M 0 0  L 0 2.75  " style="stroke: #000000"/>
      </defs>
      <g>
       <use xlink:href="#m5b60bec6b0" x="96.54267" y="344.63" style="stroke: #000000"/>
      </g>
     </g>
     <g id="text_1">
      <text style="font-size: 11px; font-family: 'IBM Plex Sans'; text-anchor: middle; fill: #4d4d4d" x="96.54267" y="357.72" transform="rotate(-0 96.54267 357.72)">Jan</text>
     </g>
    </g>
    <g id="xtick_2">
     <g id="line2d_2">
      <path d="M 140.299256 344.63  " style="fill: none; stroke: #000000; stroke-width: 1.5; stroke-linecap: square"/>
      <g>
       <use xlink:href="#m5b60bec6b0" x="140.299256" y="344.63" style="stroke: #000000"/>
      </g>
     </g>
     <g id="text_2">
      <text style="font-size: 11px; font-family: 'IBM Plex Sans'; text-anchor: middle; fill: #4d4d4d" x="140.299256" y="357.72" transform="rotate(-0 140.299256 357.72)">Feb</text>
     </g>
    </g>
    <g id="xtick_3">
     <g id="line2d_3">
      <path d="M 184.055841 344.63  " style="fill: none; stroke: #000000; stroke-width: 1.5; stroke-linecap: square"/>
      <g>
       <use xlink:href="#m5b60bec6b0" x="184.055841" y="344.63" style="stroke: #000000"/>
      </g>
     </g>
     <g id="text_3">
      <text style="font-size: 11px; font-family: 'IBM Plex Sans'; text-anchor: middle; fill: #4d4d4d" x="184.055841" y="357.72" transform="rotate(-0 184.055841 357.72)">Mar</text>
     </g>
    </g>
    <g id="xtick_4">
     <g id="line2d_4">
      <path d="M 227.812427 344.63  " style="fill: none; stroke: #000000; stroke-width: 1.5; stroke-linecap: square"/>
      <g>
       <use xlink:href="#m5b60bec6b0" x="227.812427" y="344.63" style="stroke: #000000"/>
      </g>
     </g>
     <g id="text_4">
      <text style="font-size: 11px; font-family: 'IBM Plex Sans'; text-anchor: middle; fill: #4d4d4d" x="227.812427" y="357.72" transform="rotate(-0 227.812427 357.72)">Apr</text>
     </g>
    </g>
    <g id="xtick_5">
     <g id="line2d_5">
      <path d="M 271.569012 344.63  " style="fill: none; stroke: #000000; stroke-width: 1.5; stroke-linecap: square"/>
      <g>
       <use xlink:href="#m5b60bec6b0" x="271.569012" y="344.63" style="stroke: #000000"/>
      </g>
     </g>
     <g id="text_5">
      <text style="font-size: 11px; font-family: 'IBM Plex Sans'; text-anchor: middle; fill: #4d4d4d" x="271.569012" y="357.72" transform="rotate(-0 271.569012 357.72)">May</text>
     </g>
    </g>
    <g id="xtick_6">
     <g id="line2d_6">
      <path d="M 315.325598 344.63  " style="fill: none; stroke: #000000; stroke-width: 1.5; stroke-linecap: square"/>
      <g>
       <use xlink:href="#m5b60bec6b0" x="315.325598" y="344.63" style="stroke: #000000"/>
      </g>
     </g>
     <g id="text_6">
      <text style="font-size: 11px; font-family: 'IBM Plex Sans'; text-anchor: middle; fill: #4d4d4d" x="315.325598" y="357.72" transform="rotate(-0 315.325598 357.72)">Jun</text>
     </g>
    </g>
    <g id="xtick_7">
     <g id="line2d_7">
      <path d="M 359.082183 344.63  " style="fill: none; stroke: #000000; stroke-width: 1.5; stroke-linecap: square"/>
      <g>
       <use xlink:href="#m5b60bec6b0" x="359.082183" y="344.63" style="stroke: #000000"/>
      </g>
     </g>
     <g id="text_7">
      <text style="font-size: 11px; font-family: 'IBM Plex Sans'; text-anchor: middle; fill: #4d4d4d" x="359.082183" y="357.72" transform="rotate(-0 359.082183 357.72)">Jul</text>
     </g>
    </g>
    <g id="xtick_8">
     <g id="line2d_8">
      <path d="M 402.838769 344.63  " style="fill: none; stroke: #000000; stroke-width: 1.5; stroke-linecap: square"/>
      <g>
       <use xlink:href="#m5b60bec6b0" x="402.838769" y="344.63" style="stroke: #000000"/>
      </g>
     </g>
     <g id="text_8">
      <text style="font-size: 11px; font-family: 'IBM Plex Sans'; text-anchor: middle; fill: #4d4d4d" x="402.838769" y="357.587656" transform="rotate(-0 402.838769 357.587656)">Aug</text>
     </g>
    </g>
    <g id="xtick_9">
     <g id="line2d_9">
      <path d="M 446.595355 344.63  " style="fill: none; stroke: #000000; stroke-width: 1.5; stroke-linecap: square"/>
      <g>
       <use xlink:href="#m5b60bec6b0" x="446.595355" y="344.63" style="stroke: #000000"/>
      </g>
     </g>
     <g id="text_9">
      <text style="font-size: 11px; font-family: 'IBM Plex Sans'; text-anchor: middle; fill: #4d4d4d" x="446.595355" y="357.72" transform="rotate(-0 446.595355 357.72)">Sep</text>
     </g>
    </g>
    <g id="xtick_10">
     <g id="line2d_10">
      <path d="M 490.35194 344.63  " style="fill: none; stroke: #000000; stroke-width: 1.5; stroke-linecap: square"/>
      <g>
       <use xlink:href="#m5b60bec6b0" x="490.35194" y="344.63" style="stroke: #000000"/>
      </g>
     </g>
     <g id="text_10">
      <text style="font-size: 11px; font-family: 'IBM Plex Sans'; text-anchor: middle; fill: #4d4d4d" x="490.35194" y="357.72" transform="rotate(-0 490.35194 357.72)">Oct</text>
     </g>
    </g>
    <g id="xtick_11">
     <g id="line2d_11">
      <path d="M 534.108526 344.63  " style="fill: none; stroke: #000000; stroke-width: 1.5; stroke-linecap: square"/>
      <g>
       <use xlink:href="#m5b60bec6b0" x="534.108526" y="344.63" style="stroke: #000000"/>
      </g>
     </g>
     <g id="text_11">
      <text style="font-size: 11px; font-family: 'IBM Plex Sans'; text-anchor: middle; fill: #4d4d4d" x="534.108526" y="357.72" transform="rotate(-0 534.108526 357.72)">Nov</text>
     </g>
    </g>
    <g id="xtick_12">
     <g id="line2d_12">
      <path d="M 577.865111 344.63  " style="fill: none; stroke: #000000; stroke-width: 1.5; stroke-linecap: square"/>
      <g>
       <use xlink:href="#m5b60bec6b0" x="577.865111" y="344.63" style="stroke: #000000"/>
      </g>
     </g>
     <g id="text_12">
      <text style="font-size: 11px; font-family: 'IBM Plex Sans'; text-anchor: middle; fill: #4d4d4d" x="577.865111" y="357.72" transform="rotate(-0 577.865111 357.72)">Dec</text>
     </g>
    </g>
   </g>
   <g id="matplotlib.axis_2">
    <g id="ytick_1">
     <g id="line2d_13">
      <path d="M 70.288719 330.630412  L 604.119062 330.630412  " clip-path="url(#p9446b5576a)" style="fill: none; stroke: #e5e5e5; stroke-linecap: square"/>
     </g>
     <g id="text_13">
      <text style="font-size: 11px; font-family: 'IBM Plex Sans'; text-anchor: start; fill: #4d4d4d" x="51.291375" y="334.700412" transform="rotate(-0 51.291375 334.700412)">0%</text>
     </g>
    </g>
    <g id="ytick_2">
     <g id="line2d_14">
      <path d="M 70.288719 260.209949  L 604.119062 260.209949  " clip-path="url(#p9446b5576a)" style="fill: none; stroke: #e5e5e5; stroke-linecap: square"/>
     </g>
     <g id="text_14">
      <text style="font-size: 11px; font-family: 'IBM Plex Sans'; text-anchor: start; fill: #4d4d4d" x="44.691375" y="264.279949" transform="rotate(-0 44.691375 264.279949)">25%</text>
     </g>
    </g>
    <g id="ytick_3">
     <g id="line2d_15">
      <path d="M 70.288719 189.789486  L 604.119062 189.789486  " clip-path="url(#p9446b5576a)" style="fill: none; stroke: #e5e5e5; stroke-linecap: square"/>
     </g>
     <g id="text_15">
      <text style="font-size: 11px; font-family: 'IBM Plex Sans'; text-anchor: start; fill: #4d4d4d" x="44.691375" y="193.859486" transform="rotate(-0 44.691375 193.859486)">50%</text>
     </g>
    </g>
    <g id="ytick_4">
     <g id="line2d_16">
      <path d="M 70.288719 119.369023  L 604.119062 119.369023  " clip-path="url(#p9446b5576a)" style="fill: none; stroke: #e5e5e5; stroke-linecap: square"/>
     </g>
     <g id="text_16">
      <text style="font-size: 11px; font-family: 'IBM Plex Sans'; text-anchor: start; fill: #4d4d4d" x="44.691375" y="123.439023" transform="rotate(-0 44.691375 123.439023)">75%</text>
     </g>
    </g>
    <g id="ytick_5">
     <g id="line2d_17">
      <path d="M 70.288719 48.948559  L 604.119062 48.948559  " clip-path="url(#p9446b5576a)" style="fill: none; stroke: #e5e5e5; stroke-linecap: square"/>
     </g>
     <g id="text_17">
      <text style="font-size: 11px; font-family: 'IBM Plex Sans'; text-anchor: start; fill: #4d4d4d" x="38.091375" y="53.018559" transform="rotate(-0 38.091375 53.018559)">100%</text>
     </g>
    </g>
    <g id="ytick_6">
     <g id="line2d_18">
      <path d="M 70.288719 295.42018  L 604.119062 295.42018  " clip-path="url(#p9446b5576a)" style="fill: none; stroke: #fafafa; stroke-width: 0.5; stroke-linecap: square"/>
     </g>
    </g>
    <g id="ytick_7">
     <g id="line2d_19">
      <path d="M 70.288719 224.999717  L 604.119062 224.999717  " clip-path="url(#p9446b5576a)" style="fill: none; stroke: #fafafa; stroke-width: 0.5; stroke-linecap: square"/>
     </g>
    </g>
    <g id="ytick_8">
     <g id="line2d_20">
      <path d="M 70.288719 154.579254  L 604.119062 154.579254  " clip-path="url(#p9446b5576a)" style="fill: none; stroke: #fafafa; stroke-width: 0.5; stroke-linecap: square"/>
     </g>
    </g>
    <g id="ytick_9">
     <g id="line2d_21">
      <path d="M 70.288719 84.158791  L 604.119062 84.158791  " clip-path="url(#p9446b5576a)" style="fill: none; stroke: #fafafa; stroke-width: 0.5; stroke-linecap: square"/>
     </g>
    </g>
   </g>
   <g id="line2d_22">
    <path d="M 96.54267 189.507804  L 140.299256 165.846528  L 184.055841 162.748028  L 227.812427 149.508981  L 271.569012 294.011771  L 315.325598 328.376957  L 359.082183 330.630412  L 402.838769 330.630412  L 446.595355 324.996775  L 490.35194 212.324034  L 534.108526 160.776255  L 577.865111 183.029121  " clip-path="url(#p9446b5576a)" style="fill: none; stroke: #f8766d; stroke-width: 0.886227"/>
   </g>
   <g id="line2d_23">
    <path d="M 96.54267 212.605716  L 140.299256 201.05676  L 184.055841 199.084987  L 227.812427 186.127622  L 271.569012 268.097041  L 315.325598 323.025002  L 359.082183 330.630412  L 402.838769 330.630412  L 446.595355 312.321092  L 490.35194 201.620123  L 534.108526 199.648351  L 577.865111 211.197306  " clip-path="url(#p9446b5576a)" style="fill: none; stroke: #c49a00; stroke-width: 0.886227"/>
   </g>
   <g id="line2d_24">
    <path d="M 96.54267 200.775078  L 140.299256 177.677166  L 184.055841 175.987075  L 227.812427 154.579254  L 271.569012 273.730678  L 315.325598 325.84182  L 359.082183 330.34873  L 402.838769 330.34873  L 446.595355 319.926502  L 490.35194 199.648351  L 534.108526 170.916802  L 577.865111 194.578077  " clip-path="url(#p9446b5576a)" style="fill: none; stroke: #53b400; stroke-width: 0.886227"/>
   </g>
   <g id="line2d_25">
    <path d="M 96.54267 192.324622  L 140.299256 163.593073  L 184.055841 161.057937  L 227.812427 142.466934  L 271.569012 253.167903  L 315.325598 318.518092  L 359.082183 328.095275  L 402.838769 328.095275  L 446.595355 310.912682  L 490.35194 192.887986  L 534.108526 158.804482  L 577.865111 185.84594  " clip-path="url(#p9446b5576a)" style="fill: none; stroke: #00c094; stroke-width: 0.886227"/>
   </g>
   <g id="line2d_26">
    <path d="M 96.54267 192.887986  L 140.299256 165.564846  L 184.055841 163.311392  L 227.812427 139.368434  L 271.569012 141.621889  L 315.325598 196.831532  L 359.082183 212.324034  L 402.838769 229.506627  L 446.595355 197.394896  L 490.35194 162.466346  L 534.108526 158.241118  L 577.865111 187.817713  " clip-path="url(#p9446b5576a)" style="fill: none; stroke: #00b6eb; stroke-width: 0.886227"/>
   </g>
   <g id="line2d_27">
    <path d="M 96.54267 208.66217  L 140.299256 179.085575  L 184.055841 175.705393  L 227.812427 144.720389  L 271.569012 79.933563  L 315.325598 74.018244  L 359.082183 66.412834  L 402.838769 70.074698  L 446.595355 84.158791  L 490.35194 151.199072  L 534.108526 174.015302  L 577.865111 202.746851  " clip-path="url(#p9446b5576a)" style="fill: none; stroke: #a58aff; stroke-width: 0.886227"/>
   </g>
   <g id="line2d_28">
    <path d="M 96.54267 193.45135  L 140.299256 163.593073  L 184.055841 161.057937  L 227.812427 130.636297  L 271.569012 68.384607  L 315.325598 54.582197  L 359.082183 50.638651  L 402.838769 50.638651  L 446.595355 57.399015  L 490.35194 127.819478  L 534.108526 157.396073  L 577.865111 187.536031  " clip-path="url(#p9446b5576a)" style="fill: none; stroke: #fb61d7; stroke-width: 0.886227"/>
   </g>
   <g id="PathCollection_1">
    <path d="M 96.54267 191.546126  C 97.083239 191.546126 97.601741 191.331355 97.983981 190.949115  C 98.366222 190.566875 98.580992 190.048373 98.580992 189.507804  C 98.580992 188.967235 98.366222 188.448733 97.983981 188.066493  C 97.601741 187.684252 97.083239 187.469482 96.54267 187.469482  C 96.002101 187.469482 95.483599 187.684252 95.101359 188.066493  C 94.719119 188.448733 94.504348 188.967235 94.504348 189.507804  C 94.504348 190.048373 94.719119 190.566875 95.101359 190.949115  C 95.483599 191.331355 96.002101 191.546126 96.54267 191.546126  z " clip-path="url(#p9446b5576a)" style="fill: #f8766d; stroke: #f8766d; stroke-width: 0.886227"/>
    <path d="M 140.299256 167.88485  C 140.839825 167.88485 141.358327 167.67008 141.740567 167.287839  C 142.122807 166.905599 142.337578 166.387098 142.337578 165.846528  C 142.337578 165.305959 142.122807 164.787457 141.740567 164.405217  C 141.358327 164.022977 140.839825 163.808206 140.299256 163.808206  C 139.758686 163.808206 139.240185 164.022977 138.857944 164.405217  C 138.475704 164.787457 138.260934 165.305959 138.260934 165.846528  C 138.260934 166.387098 138.475704 166.905599 138.857944 167.287839  C 139.240185 167.67008 139.758686 167.88485 140.299256 167.88485  z " clip-path="url(#p9446b5576a)" style="fill: #f8766d; stroke: #f8766d; stroke-width: 0.886227"/>
    <path d="M 184.055841 164.78635  C 184.59641 164.78635 185.114912 164.571579 185.497152 164.189339  C 185.879393 163.807099 186.094163 163.288597 186.094163 162.748028  C 186.094163 162.207459 185.879393 161.688957 185.497152 161.306717  C 185.114912 160.924476 184.59641 160.709706 184.055841 160.709706  C 183.515272 160.709706 182.99677 160.924476 182.61453 161.306717  C 182.23229 161.688957 182.017519 162.207459 182.017519 162.748028  C 182.017519 163.288597 182.23229 163.807099 182.61453 164.189339  C 182.99677 164.571579 183.515272 164.78635 184.055841 164.78635  z " clip-path="url(#p9446b5576a)" style="fill: #f8766d; stroke: #f8766d; stroke-width: 0.886227"/>
    <path d="M 227.812427 151.547303  C 228.352996 151.547303 228.871498 151.332532 229.253738 150.950292  C 229.635978 150.568052 229.850749 150.04955 229.850749 149.508981  C 229.850749 148.968411 229.635978 148.44991 229.253738 148.06767  C 228.871498 147.685429 228.352996 147.470659 227.812427 147.470659  C 227.271857 147.470659 226.753356 147.685429 226.371115 148.06767  C 225.988875 148.44991 225.774105 148.968411 225.774105 149.508981  C 225.774105 150.04955 225.988875 150.568052 226.371115 150.950292  C 226.753356 151.332532 227.271857 151.547303 227.812427 151.547303  z " clip-path="url(#p9446b5576a)" style="fill: #f8766d; stroke: #f8766d; stroke-width: 0.886227"/>
    <path d="M 271.569012 296.050093  C 272.109582 296.050093 272.628083 295.835323 273.010324 295.453082  C 273.392564 295.070842 273.607334 294.55234 273.607334 294.011771  C 273.607334 293.471202 273.392564 292.9527 273.010324 292.57046  C 272.628083 292.18822 272.109582 291.973449 271.569012 291.973449  C 271.028443 291.973449 270.509941 292.18822 270.127701 292.57046  C 269.745461 292.9527 269.53069 293.471202 269.53069 294.011771  C 269.53069 294.55234 269.745461 295.070842 270.127701 295.453082  C 270.509941 295.835323 271.028443 296.050093 271.569012 296.050093  z " clip-path="url(#p9446b5576a)" style="fill: #f8766d; stroke: #f8766d; stroke-width: 0.886227"/>
    <path d="M 315.325598 330.415279  C 315.866167 330.415279 316.384669 330.200509 316.766909 329.818268  C 317.149149 329.436028 317.36392 328.917526 317.36392 328.376957  C 317.36392 327.836388 317.149149 327.317886 316.766909 326.935646  C 316.384669 326.553406 315.866167 326.338635 315.325598 326.338635  C 314.785029 326.338635 314.266527 326.553406 313.884287 326.935646  C 313.502046 327.317886 313.287276 327.836388 313.287276 328.376957  C 313.287276 328.917526 313.502046 329.436028 313.884287 329.818268  C 314.266527 330.200509 314.785029 330.415279 315.325598 330.415279  z " clip-path="url(#p9446b5576a)" style="fill: #f8766d; stroke: #f8766d; stroke-width: 0.886227"/>
    <path d="M 359.082183 332.668734  C 359.622753 332.668734 360.141254 332.453963 360.523495 332.071723  C 360.905735 331.689483 361.120505 331.170981 361.120505 330.630412  C 361.120505 330.089843 360.905735 329.571341 360.523495 329.189101  C 360.141254 328.80686 359.622753 328.59209 359.082183 328.59209  C 358.541614 328.59209 358.023112 328.80686 357.640872 329.189101  C 357.258632 329.571341 357.043861 330.089843 357.043861 330.630412  C 357.043861 331.170981 357.258632 331.689483 357.640872 332.071723  C 358.023112 332.453963 358.541614 332.668734 359.082183 332.668734  z " clip-path="url(#p9446b5576a)" style="fill: #f8766d; stroke: #f8766d; stroke-width: 0.886227"/>
    <path d="M 402.838769 332.668734  C 403.379338 332.668734 403.89784 332.453963 404.28008 332.071723  C 404.66232 331.689483 404.877091 331.170981 404.877091 330.630412  C 404.877091 330.089843 404.66232 329.571341 404.28008 329.189101  C 403.89784 328.80686 403.379338 328.59209 402.838769 328.59209  C 402.2982 328.59209 401.779698 328.80686 401.397458 329.189101  C 401.015217 329.571341 400.800447 330.089843 400.800447 330.630412  C 400.800447 331.170981 401.015217 331.689483 401.397458 332.071723  C 401.779698 332.453963 402.2982 332.668734 402.838769 332.668734  z " clip-path="url(#p9446b5576a)" style="fill: #f8766d; stroke: #f8766d; stroke-width: 0.886227"/>
    <path d="M 446.595355 327.035097  C 447.135924 327.035097 447.654426 326.820326 448.036666 326.438086  C 448.418906 326.055846 448.633676 325.537344 448.633676 324.996775  C 448.633676 324.456206 448.418906 323.937704 448.036666 323.555464  C 447.654426 323.173223 447.135924 322.958453 446.595355 322.958453  C 446.054785 322.958453 445.536283 323.173223 445.154043 323.555464  C 444.771803 323.937704 444.557033 324.456206 444.557033 324.996775  C 444.557033 325.537344 444.771803 326.055846 445.154043 326.438086  C 445.536283 326.820326 446.054785 327.035097 446.595355 327.035097  z " clip-path="url(#p9446b5576a)" style="fill: #f8766d; stroke: #f8766d; stroke-width: 0.886227"/>
    <path d="M 490.35194 214.362356  C 490.892509 214.362356 491.411011 214.147585 491.793251 213.765345  C 492.175492 213.383105 492.390262 212.864603 492.390262 212.324034  C 492.390262 211.783465 492.175492 211.264963 491.793251 210.882723  C 491.411011 210.500482 490.892509 210.285712 490.35194 210.285712  C 489.811371 210.285712 489.292869 210.500482 488.910629 210.882723  C 488.528389 211.264963 488.313618 211.783465 488.313618 212.324034  C 488.313618 212.864603 488.528389 213.383105 488.910629 213.765345  C 489.292869 214.147585 489.811371 214.362356 490.35194 214.362356  z " clip-path="url(#p9446b5576a)" style="fill: #f8766d; stroke: #f8766d; stroke-width: 0.886227"/>
    <path d="M 534.108526 162.814577  C 534.649095 162.814577 535.167597 162.599806 535.549837 162.217566  C 535.932077 161.835326 536.146848 161.316824 536.146848 160.776255  C 536.146848 160.235686 535.932077 159.717184 535.549837 159.334944  C 535.167597 158.952703 534.649095 158.737933 534.108526 158.737933  C 533.567956 158.737933 533.049455 158.952703 532.667214 159.334944  C 532.284974 159.717184 532.070204 160.235686 532.070204 160.776255  C 532.070204 161.316824 532.284974 161.835326 532.667214 162.217566  C 533.049455 162.599806 533.567956 162.814577 534.108526 162.814577  z " clip-path="url(#p9446b5576a)" style="fill: #f8766d; stroke: #f8766d; stroke-width: 0.886227"/>
    <path d="M 577.865111 185.067443  C 578.40568 185.067443 578.924182 184.852673 579.306422 184.470432  C 579.688663 184.088192 579.903433 183.569691 579.903433 183.029121  C 579.903433 182.488552 579.688663 181.97005 579.306422 181.58781  C 578.924182 181.20557 578.40568 180.990799 577.865111 180.990799  C 577.324542 180.990799 576.80604 181.20557 576.4238 181.58781  C 576.04156 181.97005 575.826789 182.488552 575.826789 183.029121  C 575.826789 183.569691 576.04156 184.088192 576.4238 184.470432  C 576.80604 184.852673 577.324542 185.067443 577.865111 185.067443  z " clip-path="url(#p9446b5576a)" style="fill: #f8766d; stroke: #f8766d; stroke-width: 0.886227"/>
    <path d="M 96.54267 214.644038  C 97.083239 214.644038 97.601741 214.429267 97.983981 214.047027  C 98.366222 213.664787 98.580992 213.146285 98.580992 212.605716  C 98.580992 212.065146 98.366222 211.546645 97.983981 211.164404  C 97.601741 210.782164 97.083239 210.567394 96.54267 210.567394  C 96.002101 210.567394 95.483599 210.782164 95.101359 211.164404  C 94.719119 211.546645 94.504348 212.065146 94.504348 212.605716  C 94.504348 213.146285 94.719119 213.664787 95.101359 214.047027  C 95.483599 214.429267 96.002101 214.644038 96.54267 214.644038  z " clip-path="url(#p9446b5576a)" style="fill: #c49a00; stroke: #c49a00; stroke-width: 0.886227"/>
    <path d="M 140.299256 203.095082  C 140.839825 203.095082 141.358327 202.880311 141.740567 202.498071  C 142.122807 202.115831 142.337578 201.597329 142.337578 201.05676  C 142.337578 200.51619 142.122807 199.997689 141.740567 199.615449  C 141.358327 199.233208 140.839825 199.018438 140.299256 199.018438  C 139.758686 199.018438 139.240185 199.233208 138.857944 199.615449  C 138.475704 199.997689 138.260934 200.51619 138.260934 201.05676  C 138.260934 201.597329 138.475704 202.115831 138.857944 202.498071  C 139.240185 202.880311 139.758686 203.095082 140.299256 203.095082  z " clip-path="url(#p9446b5576a)" style="fill: #c49a00; stroke: #c49a00; stroke-width: 0.886227"/>
    <path d="M 184.055841 201.123309  C 184.59641 201.123309 185.114912 200.908538 185.497152 200.526298  C 185.879393 200.144058 186.094163 199.625556 186.094163 199.084987  C 186.094163 198.544418 185.879393 198.025916 185.497152 197.643676  C 185.114912 197.261435 184.59641 197.046665 184.055841 197.046665  C 183.515272 197.046665 182.99677 197.261435 182.61453 197.643676  C 182.23229 198.025916 182.017519 198.544418 182.017519 199.084987  C 182.017519 199.625556 182.23229 200.144058 182.61453 200.526298  C 182.99677 200.908538 183.515272 201.123309 184.055841 201.123309  z " clip-path="url(#p9446b5576a)" style="fill: #c49a00; stroke: #c49a00; stroke-width: 0.886227"/>
    <path d="M 227.812427 188.165944  C 228.352996 188.165944 228.871498 187.951173 229.253738 187.568933  C 229.635978 187.186693 229.850749 186.668191 229.850749 186.127622  C 229.850749 185.587052 229.635978 185.068551 229.253738 184.68631  C 228.871498 184.30407 228.352996 184.0893 227.812427 184.0893  C 227.271857 184.0893 226.753356 184.30407 226.371115 184.68631  C 225.988875 185.068551 225.774105 185.587052 225.774105 186.127622  C 225.774105 186.668191 225.988875 187.186693 226.371115 187.568933  C 226.753356 187.951173 227.271857 188.165944 227.812427 188.165944  z " clip-path="url(#p9446b5576a)" style="fill: #c49a00; stroke: #c49a00; stroke-width: 0.886227"/>
    <path d="M 271.569012 270.135363  C 272.109582 270.135363 272.628083 269.920592 273.010324 269.538352  C 273.392564 269.156112 273.607334 268.63761 273.607334 268.097041  C 273.607334 267.556471 273.392564 267.03797 273.010324 266.655729  C 272.628083 266.273489 272.109582 266.058719 271.569012 266.058719  C 271.028443 266.058719 270.509941 266.273489 270.127701 266.655729  C 269.745461 267.03797 269.53069 267.556471 269.53069 268.097041  C 269.53069 268.63761 269.745461 269.156112 270.127701 269.538352  C 270.509941 269.920592 271.028443 270.135363 271.569012 270.135363  z " clip-path="url(#p9446b5576a)" style="fill: #c49a00; stroke: #c49a00; stroke-width: 0.886227"/>
    <path d="M 315.325598 325.063324  C 315.866167 325.063324 316.384669 324.848553 316.766909 324.466313  C 317.149149 324.084073 317.36392 323.565571 317.36392 323.025002  C 317.36392 322.484433 317.149149 321.965931 316.766909 321.583691  C 316.384669 321.20145 315.866167 320.98668 315.325598 320.98668  C 314.785029 320.98668 314.266527 321.20145 313.884287 321.583691  C 313.502046 321.965931 313.287276 322.484433 313.287276 323.025002  C 313.287276 323.565571 313.502046 324.084073 313.884287 324.466313  C 314.266527 324.848553 314.785029 325.063324 315.325598 325.063324  z " clip-path="url(#p9446b5576a)" style="fill: #c49a00; stroke: #c49a00; stroke-width: 0.886227"/>
    <path d="M 359.082183 332.668734  C 359.622753 332.668734 360.141254 332.453963 360.523495 332.071723  C 360.905735 331.689483 361.120505 331.170981 361.120505 330.630412  C 361.120505 330.089843 360.905735 329.571341 360.523495 329.189101  C 360.141254 328.80686 359.622753 328.59209 359.082183 328.59209  C 358.541614 328.59209 358.023112 328.80686 357.640872 329.189101  C 357.258632 329.571341 357.043861 330.089843 357.043861 330.630412  C 357.043861 331.170981 357.258632 331.689483 357.640872 332.071723  C 358.023112 332.453963 358.541614 332.668734 359.082183 332.668734  z " clip-path="url(#p9446b5576a)" style="fill: #c49a00; stroke: #c49a00; stroke-width: 0.886227"/>
    <path d="M 402.838769 332.668734  C 403.379338 332.668734 403.89784 332.453963 404.28008 332.071723  C 404.66232 331.689483 404.877091 331.170981 404.877091 330.630412  C 404.877091 330.089843 404.66232 329.571341 404.28008 329.189101  C 403.89784 328.80686 403.379338 328.59209 402.838769 328.59209  C 402.2982 328.59209 401.779698 328.80686 401.397458 329.189101  C 401.015217 329.571341 400.800447 330.089843 400.800447 330.630412  C 400.800447 331.170981 401.015217 331.689483 401.397458 332.071723  C 401.779698 332.453963 402.2982 332.668734 402.838769 332.668734  z " clip-path="url(#p9446b5576a)" style="fill: #c49a00; stroke: #c49a00; stroke-width: 0.886227"/>
    <path d="M 446.595355 314.359413  C 447.135924 314.359413 447.654426 314.144643 448.036666 313.762403  C 448.418906 313.380163 448.633676 312.861661 448.633676 312.321092  C 448.633676 311.780522 448.418906 311.26202 448.036666 310.87978  C 447.654426 310.49754 447.135924 310.28277 446.595355 310.28277  C 446.054785 310.28277 445.536283 310.49754 445.154043 310.87978  C 444.771803 311.26202 444.557033 311.780522 444.557033 312.321092  C 444.557033 312.861661 444.771803 313.380163 445.154043 313.762403  C 445.536283 314.144643 446.054785 314.359413 446.595355 314.359413  z " clip-path="url(#p9446b5576a)" style="fill: #c49a00; stroke: #c49a00; stroke-width: 0.886227"/>
    <path d="M 490.35194 203.658445  C 490.892509 203.658445 491.411011 203.443675 491.793251 203.061435  C 492.175492 202.679195 492.390262 202.160693 492.390262 201.620123  C 492.390262 201.079554 492.175492 200.561052 491.793251 200.178812  C 491.411011 199.796572 490.892509 199.581802 490.35194 199.581802  C 489.811371 199.581802 489.292869 199.796572 488.910629 200.178812  C 488.528389 200.561052 488.313618 201.079554 488.313618 201.620123  C 488.313618 202.160693 488.528389 202.679195 488.910629 203.061435  C 489.292869 203.443675 489.811371 203.658445 490.35194 203.658445  z " clip-path="url(#p9446b5576a)" style="fill: #c49a00; stroke: #c49a00; stroke-width: 0.886227"/>
    <path d="M 534.108526 201.686672  C 534.649095 201.686672 535.167597 201.471902 535.549837 201.089662  C 535.932077 200.707422 536.146848 200.18892 536.146848 199.648351  C 536.146848 199.107781 535.932077 198.589279 535.549837 198.207039  C 535.167597 197.824799 534.649095 197.610029 534.108526 197.610029  C 533.567956 197.610029 533.049455 197.824799 532.667214 198.207039  C 532.284974 198.589279 532.070204 199.107781 532.070204 199.648351  C 532.070204 200.18892 532.284974 200.707422 532.667214 201.089662  C 533.049455 201.471902 533.567956 201.686672 534.108526 201.686672  z " clip-path="url(#p9446b5576a)" style="fill: #c49a00; stroke: #c49a00; stroke-width: 0.886227"/>
    <path d="M 577.865111 213.235628  C 578.40568 213.235628 578.924182 213.020858 579.306422 212.638618  C 579.688663 212.256378 579.903433 211.737876 579.903433 211.197306  C 579.903433 210.656737 579.688663 210.138235 579.306422 209.755995  C 578.924182 209.373755 578.40568 209.158985 577.865111 209.158985  C 577.324542 209.158985 576.80604 209.373755 576.4238 209.755995  C 576.04156 210.138235 575.826789 210.656737 575.826789 211.197306  C 575.826789 211.737876 576.04156 212.256378 576.4238 212.638618  C 576.80604 213.020858 577.324542 213.235628 577.865111 213.235628  z " clip-path="url(#p9446b5576a)" style="fill: #c49a00; stroke: #c49a00; stroke-width: 0.886227"/>
    <path d="M 96.54267 202.8134  C 97.083239 202.8134 97.601741 202.598629 97.983981 202.216389  C 98.366222 201.834149 98.580992 201.315647 98.580992 200.775078  C 98.580992 200.234509 98.366222 199.716007 97.983981 199.333767  C 97.601741 198.951526 97.083239 198.736756 96.54267 198.736756  C 96.002101 198.736756 95.483599 198.951526 95.101359 199.333767  C 94.719119 199.716007 94.504348 200.234509 94.504348 200.775078  C 94.504348 201.315647 94.719119 201.834149 95.101359 202.216389  C 95.483599 202.598629 96.002101 202.8134 96.54267 202.8134  z " clip-path="url(#p9446b5576a)" style="fill: #53b400; stroke: #53b400; stroke-width: 0.886227"/>
    <path d="M 140.299256 179.715488  C 140.839825 179.715488 141.358327 179.500718 141.740567 179.118477  C 142.122807 178.736237 142.337578 178.217735 142.337578 177.677166  C 142.337578 177.136597 142.122807 176.618095 141.740567 176.235855  C 141.358327 175.853615 140.839825 175.638844 140.299256 175.638844  C 139.758686 175.638844 139.240185 175.853615 138.857944 176.235855  C 138.475704 176.618095 138.260934 177.136597 138.260934 177.677166  C 138.260934 178.217735 138.475704 178.736237 138.857944 179.118477  C 139.240185 179.500718 139.758686 179.715488 140.299256 179.715488  z " clip-path="url(#p9446b5576a)" style="fill: #53b400; stroke: #53b400; stroke-width: 0.886227"/>
    <path d="M 184.055841 178.025397  C 184.59641 178.025397 185.114912 177.810626 185.497152 177.428386  C 185.879393 177.046146 186.094163 176.527644 186.094163 175.987075  C 186.094163 175.446506 185.879393 174.928004 185.497152 174.545764  C 185.114912 174.163523 184.59641 173.948753 184.055841 173.948753  C 183.515272 173.948753 182.99677 174.163523 182.61453 174.545764  C 182.23229 174.928004 182.017519 175.446506 182.017519 175.987075  C 182.017519 176.527644 182.23229 177.046146 182.61453 177.428386  C 182.99677 177.810626 183.515272 178.025397 184.055841 178.025397  z " clip-path="url(#p9446b5576a)" style="fill: #53b400; stroke: #53b400; stroke-width: 0.886227"/>
    <path d="M 227.812427 156.617576  C 228.352996 156.617576 228.871498 156.402806 229.253738 156.020565  C 229.635978 155.638325 229.850749 155.119823 229.850749 154.579254  C 229.850749 154.038685 229.635978 153.520183 229.253738 153.137943  C 228.871498 152.755703 228.352996 152.540932 227.812427 152.540932  C 227.271857 152.540932 226.753356 152.755703 226.371115 153.137943  C 225.988875 153.520183 225.774105 154.038685 225.774105 154.579254  C 225.774105 155.119823 225.988875 155.638325 226.371115 156.020565  C 226.753356 156.402806 227.271857 156.617576 227.812427 156.617576  z " clip-path="url(#p9446b5576a)" style="fill: #53b400; stroke: #53b400; stroke-width: 0.886227"/>
    <path d="M 271.569012 275.769  C 272.109582 275.769 272.628083 275.554229 273.010324 275.171989  C 273.392564 274.789749 273.607334 274.271247 273.607334 273.730678  C 273.607334 273.190108 273.392564 272.671607 273.010324 272.289366  C 272.628083 271.907126 272.109582 271.692356 271.569012 271.692356  C 271.028443 271.692356 270.509941 271.907126 270.127701 272.289366  C 269.745461 272.671607 269.53069 273.190108 269.53069 273.730678  C 269.53069 274.271247 269.745461 274.789749 270.127701 275.171989  C 270.509941 275.554229 271.028443 275.769 271.569012 275.769  z " clip-path="url(#p9446b5576a)" style="fill: #53b400; stroke: #53b400; stroke-width: 0.886227"/>
    <path d="M 315.325598 327.880142  C 315.866167 327.880142 316.384669 327.665372 316.766909 327.283132  C 317.149149 326.900891 317.36392 326.38239 317.36392 325.84182  C 317.36392 325.301251 317.149149 324.782749 316.766909 324.400509  C 316.384669 324.018269 315.866167 323.803499 315.325598 323.803499  C 314.785029 323.803499 314.266527 324.018269 313.884287 324.400509  C 313.502046 324.782749 313.287276 325.301251 313.287276 325.84182  C 313.287276 326.38239 313.502046 326.900891 313.884287 327.283132  C 314.266527 327.665372 314.785029 327.880142 315.325598 327.880142  z " clip-path="url(#p9446b5576a)" style="fill: #53b400; stroke: #53b400; stroke-width: 0.886227"/>
    <path d="M 359.082183 332.387052  C 359.622753 332.387052 360.141254 332.172282 360.523495 331.790041  C 360.905735 331.407801 361.120505 330.889299 361.120505 330.34873  C 361.120505 329.808161 360.905735 329.289659 360.523495 328.907419  C 360.141254 328.525179 359.622753 328.310408 359.082183 328.310408  C 358.541614 328.310408 358.023112 328.525179 357.640872 328.907419  C 357.258632 329.289659 357.043861 329.808161 357.043861 330.34873  C 357.043861 330.889299 357.258632 331.407801 357.640872 331.790041  C 358.023112 332.172282 358.541614 332.387052 359.082183 332.387052  z " clip-path="url(#p9446b5576a)" style="fill: #53b400; stroke: #53b400; stroke-width: 0.886227"/>
    <path d="M 402.838769 332.387052  C 403.379338 332.387052 403.89784 332.172282 404.28008 331.790041  C 404.66232 331.407801 404.877091 330.889299 404.877091 330.34873  C 404.877091 329.808161 404.66232 329.289659 404.28008 328.907419  C 403.89784 328.525179 403.379338 328.310408 402.838769 328.310408  C 402.2982 328.310408 401.779698 328.525179 401.397458 328.907419  C 401.015217 329.289659 400.800447 329.808161 400.800447 330.34873  C 400.800447 330.889299 401.015217 331.407801 401.397458 331.790041  C 401.779698 332.172282 402.2982 332.387052 402.838769 332.387052  z " clip-path="url(#p9446b5576a)" style="fill: #53b400; stroke: #53b400; stroke-width: 0.886227"/>
    <path d="M 446.595355 321.964823  C 447.135924 321.964823 447.654426 321.750053 448.036666 321.367813  C 448.418906 320.985573 448.633676 320.467071 448.633676 319.926502  C 448.633676 319.385932 448.418906 318.86743 448.036666 318.48519  C 447.654426 318.10295 447.135924 317.88818 446.595355 317.88818  C 446.054785 317.88818 445.536283 318.10295 445.154043 318.48519  C 444.771803 318.86743 444.557033 319.385932 444.557033 319.926502  C 444.557033 320.467071 444.771803 320.985573 445.154043 321.367813  C 445.536283 321.750053 446.054785 321.964823 446.595355 321.964823  z " clip-path="url(#p9446b5576a)" style="fill: #53b400; stroke: #53b400; stroke-width: 0.886227"/>
    <path d="M 490.35194 201.686672  C 490.892509 201.686672 491.411011 201.471902 491.793251 201.089662  C 492.175492 200.707422 492.390262 200.18892 492.390262 199.648351  C 492.390262 199.107781 492.175492 198.589279 491.793251 198.207039  C 491.411011 197.824799 490.892509 197.610029 490.35194 197.610029  C 489.811371 197.610029 489.292869 197.824799 488.910629 198.207039  C 488.528389 198.589279 488.313618 199.107781 488.313618 199.648351  C 488.313618 200.18892 488.528389 200.707422 488.910629 201.089662  C 489.292869 201.471902 489.811371 201.686672 490.35194 201.686672  z " clip-path="url(#p9446b5576a)" style="fill: #53b400; stroke: #53b400; stroke-width: 0.886227"/>
    <path d="M 534.108526 172.955124  C 534.649095 172.955124 535.167597 172.740353 535.549837 172.358113  C 535.932077 171.975873 536.146848 171.457371 536.146848 170.916802  C 536.146848 170.376232 535.932077 169.857731 535.549837 169.47549  C 535.167597 169.09325 534.649095 168.87848 534.108526 168.87848  C 533.567956 168.87848 533.049455 169.09325 532.667214 169.47549  C 532.284974 169.857731 532.070204 170.376232 532.070204 170.916802  C 532.070204 171.457371 532.284974 171.975873 532.667214 172.358113  C 533.049455 172.740353 533.567956 172.955124 534.108526 172.955124  z " clip-path="url(#p9446b5576a)" style="fill: #53b400; stroke: #53b400; stroke-width: 0.886227"/>
    <path d="M 577.865111 196.616399  C 578.40568 196.616399 578.924182 196.401629 579.306422 196.019388  C 579.688663 195.637148 579.903433 195.118646 579.903433 194.578077  C 579.903433 194.037508 579.688663 193.519006 579.306422 193.136766  C 578.924182 192.754526 578.40568 192.539755 577.865111 192.539755  C 577.324542 192.539755 576.80604 192.754526 576.4238 193.136766  C 576.04156 193.519006 575.826789 194.037508 575.826789 194.578077  C 575.826789 195.118646 576.04156 195.637148 576.4238 196.019388  C 576.80604 196.401629 577.324542 196.616399 577.865111 196.616399  z " clip-path="url(#p9446b5576a)" style="fill: #53b400; stroke: #53b400; stroke-width: 0.886227"/>
    <path d="M 96.54267 194.362944  C 97.083239 194.362944 97.601741 194.148174 97.983981 193.765934  C 98.366222 193.383693 98.580992 192.865192 98.580992 192.324622  C 98.580992 191.784053 98.366222 191.265551 97.983981 190.883311  C 97.601741 190.501071 97.083239 190.2863 96.54267 190.2863  C 96.002101 190.2863 95.483599 190.501071 95.101359 190.883311  C 94.719119 191.265551 94.504348 191.784053 94.504348 192.324622  C 94.504348 192.865192 94.719119 193.383693 95.101359 193.765934  C 95.483599 194.148174 96.002101 194.362944 96.54267 194.362944  z " clip-path="url(#p9446b5576a)" style="fill: #00c094; stroke: #00c094; stroke-width: 0.886227"/>
    <path d="M 140.299256 165.631395  C 140.839825 165.631395 141.358327 165.416625 141.740567 165.034385  C 142.122807 164.652144 142.337578 164.133643 142.337578 163.593073  C 142.337578 163.052504 142.122807 162.534002 141.740567 162.151762  C 141.358327 161.769522 140.839825 161.554751 140.299256 161.554751  C 139.758686 161.554751 139.240185 161.769522 138.857944 162.151762  C 138.475704 162.534002 138.260934 163.052504 138.260934 163.593073  C 138.260934 164.133643 138.475704 164.652144 138.857944 165.034385  C 139.240185 165.416625 139.758686 165.631395 140.299256 165.631395  z " clip-path="url(#p9446b5576a)" style="fill: #00c094; stroke: #00c094; stroke-width: 0.886227"/>
    <path d="M 184.055841 163.096259  C 184.59641 163.096259 185.114912 162.881488 185.497152 162.499248  C 185.879393 162.117008 186.094163 161.598506 186.094163 161.057937  C 186.094163 160.517367 185.879393 159.998866 185.497152 159.616625  C 185.114912 159.234385 184.59641 159.019615 184.055841 159.019615  C 183.515272 159.019615 182.99677 159.234385 182.61453 159.616625  C 182.23229 159.998866 182.017519 160.517367 182.017519 161.057937  C 182.017519 161.598506 182.23229 162.117008 182.61453 162.499248  C 182.99677 162.881488 183.515272 163.096259 184.055841 163.096259  z " clip-path="url(#p9446b5576a)" style="fill: #00c094; stroke: #00c094; stroke-width: 0.886227"/>
    <path d="M 227.812427 144.505256  C 228.352996 144.505256 228.871498 144.290486 229.253738 143.908246  C 229.635978 143.526006 229.850749 143.007504 229.850749 142.466934  C 229.850749 141.926365 229.635978 141.407863 229.253738 141.025623  C 228.871498 140.643383 228.352996 140.428613 227.812427 140.428613  C 227.271857 140.428613 226.753356 140.643383 226.371115 141.025623  C 225.988875 141.407863 225.774105 141.926365 225.774105 142.466934  C 225.774105 143.007504 225.988875 143.526006 226.371115 143.908246  C 226.753356 144.290486 227.271857 144.505256 227.812427 144.505256  z " clip-path="url(#p9446b5576a)" style="fill: #00c094; stroke: #00c094; stroke-width: 0.886227"/>
    <path d="M 271.569012 255.206224  C 272.109582 255.206224 272.628083 254.991454 273.010324 254.609214  C 273.392564 254.226974 273.607334 253.708472 273.607334 253.167903  C 273.607334 252.627333 273.392564 252.108831 273.010324 251.726591  C 272.628083 251.344351 272.109582 251.129581 271.569012 251.129581  C 271.028443 251.129581 270.509941 251.344351 270.127701 251.726591  C 269.745461 252.108831 269.53069 252.627333 269.53069 253.167903  C 269.53069 253.708472 269.745461 254.226974 270.127701 254.609214  C 270.509941 254.991454 271.028443 255.206224 271.569012 255.206224  z " clip-path="url(#p9446b5576a)" style="fill: #00c094; stroke: #00c094; stroke-width: 0.886227"/>
    <path d="M 315.325598 320.556414  C 315.866167 320.556414 316.384669 320.341644 316.766909 319.959404  C 317.149149 319.577163 317.36392 319.058662 317.36392 318.518092  C 317.36392 317.977523 317.149149 317.459021 316.766909 317.076781  C 316.384669 316.694541 315.866167 316.47977 315.325598 316.47977  C 314.785029 316.47977 314.266527 316.694541 313.884287 317.076781  C 313.502046 317.459021 313.287276 317.977523 313.287276 318.518092  C 313.287276 319.058662 313.502046 319.577163 313.884287 319.959404  C 314.266527 320.341644 314.785029 320.556414 315.325598 320.556414  z " clip-path="url(#p9446b5576a)" style="fill: #00c094; stroke: #00c094; stroke-width: 0.886227"/>
    <path d="M 359.082183 330.133597  C 359.622753 330.133597 360.141254 329.918827 360.523495 329.536587  C 360.905735 329.154346 361.120505 328.635845 361.120505 328.095275  C 361.120505 327.554706 360.905735 327.036204 360.523495 326.653964  C 360.141254 326.271724 359.622753 326.056953 359.082183 326.056953  C 358.541614 326.056953 358.023112 326.271724 357.640872 326.653964  C 357.258632 327.036204 357.043861 327.554706 357.043861 328.095275  C 357.043861 328.635845 357.258632 329.154346 357.640872 329.536587  C 358.023112 329.918827 358.541614 330.133597 359.082183 330.133597  z " clip-path="url(#p9446b5576a)" style="fill: #00c094; stroke: #00c094; stroke-width: 0.886227"/>
    <path d="M 402.838769 330.133597  C 403.379338 330.133597 403.89784 329.918827 404.28008 329.536587  C 404.66232 329.154346 404.877091 328.635845 404.877091 328.095275  C 404.877091 327.554706 404.66232 327.036204 404.28008 326.653964  C 403.89784 326.271724 403.379338 326.056953 402.838769 326.056953  C 402.2982 326.056953 401.779698 326.271724 401.397458 326.653964  C 401.015217 327.036204 400.800447 327.554706 400.800447 328.095275  C 400.800447 328.635845 401.015217 329.154346 401.397458 329.536587  C 401.779698 329.918827 402.2982 330.133597 402.838769 330.133597  z " clip-path="url(#p9446b5576a)" style="fill: #00c094; stroke: #00c094; stroke-width: 0.886227"/>
    <path d="M 446.595355 312.951004  C 447.135924 312.951004 447.654426 312.736234 448.036666 312.353994  C 448.418906 311.971753 448.633676 311.453252 448.633676 310.912682  C 448.633676 310.372113 448.418906 309.853611 448.036666 309.471371  C 447.654426 309.089131 447.135924 308.87436 446.595355 308.87436  C 446.054785 308.87436 445.536283 309.089131 445.154043 309.471371  C 444.771803 309.853611 444.557033 310.372113 444.557033 310.912682  C 444.557033 311.453252 444.771803 311.971753 445.154043 312.353994  C 445.536283 312.736234 446.054785 312.951004 446.595355 312.951004  z " clip-path="url(#p9446b5576a)" style="fill: #00c094; stroke: #00c094; stroke-width: 0.886227"/>
    <path d="M 490.35194 194.926308  C 490.892509 194.926308 491.411011 194.711538 491.793251 194.329297  C 492.175492 193.947057 492.390262 193.428555 492.390262 192.887986  C 492.390262 192.347417 492.175492 191.828915 491.793251 191.446675  C 491.411011 191.064435 490.892509 190.849664 490.35194 190.849664  C 489.811371 190.849664 489.292869 191.064435 488.910629 191.446675  C 488.528389 191.828915 488.313618 192.347417 488.313618 192.887986  C 488.313618 193.428555 488.528389 193.947057 488.910629 194.329297  C 489.292869 194.711538 489.811371 194.926308 490.35194 194.926308  z " clip-path="url(#p9446b5576a)" style="fill: #00c094; stroke: #00c094; stroke-width: 0.886227"/>
    <path d="M 534.108526 160.842804  C 534.649095 160.842804 535.167597 160.628033 535.549837 160.245793  C 535.932077 159.863553 536.146848 159.345051 536.146848 158.804482  C 536.146848 158.263913 535.932077 157.745411 535.549837 157.363171  C 535.167597 156.98093 534.649095 156.76616 534.108526 156.76616  C 533.567956 156.76616 533.049455 156.98093 532.667214 157.363171  C 532.284974 157.745411 532.070204 158.263913 532.070204 158.804482  C 532.070204 159.345051 532.284974 159.863553 532.667214 160.245793  C 533.049455 160.628033 533.567956 160.842804 534.108526 160.842804  z " clip-path="url(#p9446b5576a)" style="fill: #00c094; stroke: #00c094; stroke-width: 0.886227"/>
    <path d="M 577.865111 187.884262  C 578.40568 187.884262 578.924182 187.669491 579.306422 187.287251  C 579.688663 186.905011 579.903433 186.386509 579.903433 185.84594  C 579.903433 185.30537 579.688663 184.786869 579.306422 184.404628  C 578.924182 184.022388 578.40568 183.807618 577.865111 183.807618  C 577.324542 183.807618 576.80604 184.022388 576.4238 184.404628  C 576.04156 184.786869 575.826789 185.30537 575.826789 185.84594  C 575.826789 186.386509 576.04156 186.905011 576.4238 187.287251  C 576.80604 187.669491 577.324542 187.884262 577.865111 187.884262  z " clip-path="url(#p9446b5576a)" style="fill: #00c094; stroke: #00c094; stroke-width: 0.886227"/>
    <path d="M 96.54267 194.926308  C 97.083239 194.926308 97.601741 194.711538 97.983981 194.329297  C 98.366222 193.947057 98.580992 193.428555 98.580992 192.887986  C 98.580992 192.347417 98.366222 191.828915 97.983981 191.446675  C 97.601741 191.064435 97.083239 190.849664 96.54267 190.849664  C 96.002101 190.849664 95.483599 191.064435 95.101359 191.446675  C 94.719119 191.828915 94.504348 192.347417 94.504348 192.887986  C 94.504348 193.428555 94.719119 193.947057 95.101359 194.329297  C 95.483599 194.711538 96.002101 194.926308 96.54267 194.926308  z " clip-path="url(#p9446b5576a)" style="fill: #00b6eb; stroke: #00b6eb; stroke-width: 0.886227"/>
    <path d="M 140.299256 167.603168  C 140.839825 167.603168 141.358327 167.388398 141.740567 167.006158  C 142.122807 166.623917 142.337578 166.105416 142.337578 165.564846  C 142.337578 165.024277 142.122807 164.505775 141.740567 164.123535  C 141.358327 163.741295 140.839825 163.526524 140.299256 163.526524  C 139.758686 163.526524 139.240185 163.741295 138.857944 164.123535  C 138.475704 164.505775 138.260934 165.024277 138.260934 165.564846  C 138.260934 166.105416 138.475704 166.623917 138.857944 167.006158  C 139.240185 167.388398 139.758686 167.603168 140.299256 167.603168  z " clip-path="url(#p9446b5576a)" style="fill: #00b6eb; stroke: #00b6eb; stroke-width: 0.886227"/>
    <path d="M 184.055841 165.349713  C 184.59641 165.349713 185.114912 165.134943 185.497152 164.752703  C 185.879393 164.370463 186.094163 163.851961 186.094163 163.311392  C 186.094163 162.770822 185.879393 162.252321 185.497152 161.87008  C 185.114912 161.48784 184.59641 161.27307 184.055841 161.27307  C 183.515272 161.27307 182.99677 161.48784 182.61453 161.87008  C 182.23229 162.252321 182.017519 162.770822 182.017519 163.311392  C 182.017519 163.851961 182.23229 164.370463 182.61453 164.752703  C 182.99677 165.134943 183.515272 165.349713 184.055841 165.349713  z " clip-path="url(#p9446b5576a)" style="fill: #00b6eb; stroke: #00b6eb; stroke-width: 0.886227"/>
    <path d="M 227.812427 141.406756  C 228.352996 141.406756 228.871498 141.191986 229.253738 140.809745  C 229.635978 140.427505 229.850749 139.909003 229.850749 139.368434  C 229.850749 138.827865 229.635978 138.309363 229.253738 137.927123  C 228.871498 137.544883 228.352996 137.330112 227.812427 137.330112  C 227.271857 137.330112 226.753356 137.544883 226.371115 137.927123  C 225.988875 138.309363 225.774105 138.827865 225.774105 139.368434  C 225.774105 139.909003 225.988875 140.427505 226.371115 140.809745  C 226.753356 141.191986 227.271857 141.406756 227.812427 141.406756  z " clip-path="url(#p9446b5576a)" style="fill: #00b6eb; stroke: #00b6eb; stroke-width: 0.886227"/>
    <path d="M 271.569012 143.660211  C 272.109582 143.660211 272.628083 143.44544 273.010324 143.0632  C 273.392564 142.68096 273.607334 142.162458 273.607334 141.621889  C 273.607334 141.08132 273.392564 140.562818 273.010324 140.180578  C 272.628083 139.798337 272.109582 139.583567 271.569012 139.583567  C 271.028443 139.583567 270.509941 139.798337 270.127701 140.180578  C 269.745461 140.562818 269.53069 141.08132 269.53069 141.621889  C 269.53069 142.162458 269.745461 142.68096 270.127701 143.0632  C 270.509941 143.44544 271.028443 143.660211 271.569012 143.660211  z " clip-path="url(#p9446b5576a)" style="fill: #00b6eb; stroke: #00b6eb; stroke-width: 0.886227"/>
    <path d="M 315.325598 198.869854  C 315.866167 198.869854 316.384669 198.655083 316.766909 198.272843  C 317.149149 197.890603 317.36392 197.372101 317.36392 196.831532  C 317.36392 196.290963 317.149149 195.772461 316.766909 195.390221  C 316.384669 195.007981 315.866167 194.79321 315.325598 194.79321  C 314.785029 194.79321 314.266527 195.007981 313.884287 195.390221  C 313.502046 195.772461 313.287276 196.290963 313.287276 196.831532  C 313.287276 197.372101 313.502046 197.890603 313.884287 198.272843  C 314.266527 198.655083 314.785029 198.869854 315.325598 198.869854  z " clip-path="url(#p9446b5576a)" style="fill: #00b6eb; stroke: #00b6eb; stroke-width: 0.886227"/>
    <path d="M 359.082183 214.362356  C 359.622753 214.362356 360.141254 214.147585 360.523495 213.765345  C 360.905735 213.383105 361.120505 212.864603 361.120505 212.324034  C 361.120505 211.783465 360.905735 211.264963 360.523495 210.882723  C 360.141254 210.500482 359.622753 210.285712 359.082183 210.285712  C 358.541614 210.285712 358.023112 210.500482 357.640872 210.882723  C 357.258632 211.264963 357.043861 211.783465 357.043861 212.324034  C 357.043861 212.864603 357.258632 213.383105 357.640872 213.765345  C 358.023112 214.147585 358.541614 214.362356 359.082183 214.362356  z " clip-path="url(#p9446b5576a)" style="fill: #00b6eb; stroke: #00b6eb; stroke-width: 0.886227"/>
    <path d="M 402.838769 231.544949  C 403.379338 231.544949 403.89784 231.330178 404.28008 230.947938  C 404.66232 230.565698 404.877091 230.047196 404.877091 229.506627  C 404.877091 228.966058 404.66232 228.447556 404.28008 228.065316  C 403.89784 227.683075 403.379338 227.468305 402.838769 227.468305  C 402.2982 227.468305 401.779698 227.683075 401.397458 228.065316  C 401.015217 228.447556 400.800447 228.966058 400.800447 229.506627  C 400.800447 230.047196 401.015217 230.565698 401.397458 230.947938  C 401.779698 231.330178 402.2982 231.544949 402.838769 231.544949  z " clip-path="url(#p9446b5576a)" style="fill: #00b6eb; stroke: #00b6eb; stroke-width: 0.886227"/>
    <path d="M 446.595355 199.433218  C 447.135924 199.433218 447.654426 199.218447 448.036666 198.836207  C 448.418906 198.453967 448.633676 197.935465 448.633676 197.394896  C 448.633676 196.854326 448.418906 196.335825 448.036666 195.953584  C 447.654426 195.571344 447.135924 195.356574 446.595355 195.356574  C 446.054785 195.356574 445.536283 195.571344 445.154043 195.953584  C 444.771803 196.335825 444.557033 196.854326 444.557033 197.394896  C 444.557033 197.935465 444.771803 198.453967 445.154043 198.836207  C 445.536283 199.218447 446.054785 199.433218 446.595355 199.433218  z " clip-path="url(#p9446b5576a)" style="fill: #00b6eb; stroke: #00b6eb; stroke-width: 0.886227"/>
    <path d="M 490.35194 164.504668  C 490.892509 164.504668 491.411011 164.289897 491.793251 163.907657  C 492.175492 163.525417 492.390262 163.006915 492.390262 162.466346  C 492.390262 161.925777 492.175492 161.407275 491.793251 161.025035  C 491.411011 160.642795 490.892509 160.428024 490.35194 160.428024  C 489.811371 160.428024 489.292869 160.642795 488.910629 161.025035  C 488.528389 161.407275 488.313618 161.925777 488.313618 162.466346  C 488.313618 163.006915 488.528389 163.525417 488.910629 163.907657  C 489.292869 164.289897 489.811371 164.504668 490.35194 164.504668  z " clip-path="url(#p9446b5576a)" style="fill: #00b6eb; stroke: #00b6eb; stroke-width: 0.886227"/>
    <path d="M 534.108526 160.27944  C 534.649095 160.27944 535.167597 160.06467 535.549837 159.682429  C 535.932077 159.300189 536.146848 158.781688 536.146848 158.241118  C 536.146848 157.700549 535.932077 157.182047 535.549837 156.799807  C 535.167597 156.417567 534.649095 156.202796 534.108526 156.202796  C 533.567956 156.202796 533.049455 156.417567 532.667214 156.799807  C 532.284974 157.182047 532.070204 157.700549 532.070204 158.241118  C 532.070204 158.781688 532.284974 159.300189 532.667214 159.682429  C 533.049455 160.06467 533.567956 160.27944 534.108526 160.27944  z " clip-path="url(#p9446b5576a)" style="fill: #00b6eb; stroke: #00b6eb; stroke-width: 0.886227"/>
    <path d="M 577.865111 189.856035  C 578.40568 189.856035 578.924182 189.641264 579.306422 189.259024  C 579.688663 188.876784 579.903433 188.358282 579.903433 187.817713  C 579.903433 187.277143 579.688663 186.758642 579.306422 186.376401  C 578.924182 185.994161 578.40568 185.779391 577.865111 185.779391  C 577.324542 185.779391 576.80604 185.994161 576.4238 186.376401  C 576.04156 186.758642 575.826789 187.277143 575.826789 187.817713  C 575.826789 188.358282 576.04156 188.876784 576.4238 189.259024  C 576.80604 189.641264 577.324542 189.856035 577.865111 189.856035  z " clip-path="url(#p9446b5576a)" style="fill: #00b6eb; stroke: #00b6eb; stroke-width: 0.886227"/>
    <path d="M 96.54267 210.700492  C 97.083239 210.700492 97.601741 210.485721 97.983981 210.103481  C 98.366222 209.721241 98.580992 209.202739 98.580992 208.66217  C 98.580992 208.121601 98.366222 207.603099 97.983981 207.220859  C 97.601741 206.838618 97.083239 206.623848 96.54267 206.623848  C 96.002101 206.623848 95.483599 206.838618 95.101359 207.220859  C 94.719119 207.603099 94.504348 208.121601 94.504348 208.66217  C 94.504348 209.202739 94.719119 209.721241 95.101359 210.103481  C 95.483599 210.485721 96.002101 210.700492 96.54267 210.700492  z " clip-path="url(#p9446b5576a)" style="fill: #a58aff; stroke: #a58aff; stroke-width: 0.886227"/>
    <path d="M 140.299256 181.123897  C 140.839825 181.123897 141.358327 180.909127 141.740567 180.526887  C 142.122807 180.144646 142.337578 179.626145 142.337578 179.085575  C 142.337578 178.545006 142.122807 178.026504 141.740567 177.644264  C 141.358327 177.262024 140.839825 177.047253 140.299256 177.047253  C 139.758686 177.047253 139.240185 177.262024 138.857944 177.644264  C 138.475704 178.026504 138.260934 178.545006 138.260934 179.085575  C 138.260934 179.626145 138.475704 180.144646 138.857944 180.526887  C 139.240185 180.909127 139.758686 181.123897 140.299256 181.123897  z " clip-path="url(#p9446b5576a)" style="fill: #a58aff; stroke: #a58aff; stroke-width: 0.886227"/>
    <path d="M 184.055841 177.743715  C 184.59641 177.743715 185.114912 177.528945 185.497152 177.146704  C 185.879393 176.764464 186.094163 176.245962 186.094163 175.705393  C 186.094163 175.164824 185.879393 174.646322 185.497152 174.264082  C 185.114912 173.881842 184.59641 173.667071 184.055841 173.667071  C 183.515272 173.667071 182.99677 173.881842 182.61453 174.264082  C 182.23229 174.646322 182.017519 175.164824 182.017519 175.705393  C 182.017519 176.245962 182.23229 176.764464 182.61453 177.146704  C 182.99677 177.528945 183.515272 177.743715 184.055841 177.743715  z " clip-path="url(#p9446b5576a)" style="fill: #a58aff; stroke: #a58aff; stroke-width: 0.886227"/>
    <path d="M 227.812427 146.758711  C 228.352996 146.758711 228.871498 146.543941 229.253738 146.161701  C 229.635978 145.77946 229.850749 145.260959 229.850749 144.720389  C 229.850749 144.17982 229.635978 143.661318 229.253738 143.279078  C 228.871498 142.896838 228.352996 142.682067 227.812427 142.682067  C 227.271857 142.682067 226.753356 142.896838 226.371115 143.279078  C 225.988875 143.661318 225.774105 144.17982 225.774105 144.720389  C 225.774105 145.260959 225.988875 145.77946 226.371115 146.161701  C 226.753356 146.543941 227.271857 146.758711 227.812427 146.758711  z " clip-path="url(#p9446b5576a)" style="fill: #a58aff; stroke: #a58aff; stroke-width: 0.886227"/>
    <path d="M 271.569012 81.971885  C 272.109582 81.971885 272.628083 81.757115 273.010324 81.374874  C 273.392564 80.992634 273.607334 80.474133 273.607334 79.933563  C 273.607334 79.392994 273.392564 78.874492 273.010324 78.492252  C 272.628083 78.110012 272.109582 77.895241 271.569012 77.895241  C 271.028443 77.895241 270.509941 78.110012 270.127701 78.492252  C 269.745461 78.874492 269.53069 79.392994 269.53069 79.933563  C 269.53069 80.474133 269.745461 80.992634 270.127701 81.374874  C 270.509941 81.757115 271.028443 81.971885 271.569012 81.971885  z " clip-path="url(#p9446b5576a)" style="fill: #a58aff; stroke: #a58aff; stroke-width: 0.886227"/>
    <path d="M 315.325598 76.056566  C 315.866167 76.056566 316.384669 75.841796 316.766909 75.459556  C 317.149149 75.077315 317.36392 74.558814 317.36392 74.018244  C 317.36392 73.477675 317.149149 72.959173 316.766909 72.576933  C 316.384669 72.194693 315.866167 71.979922 315.325598 71.979922  C 314.785029 71.979922 314.266527 72.194693 313.884287 72.576933  C 313.502046 72.959173 313.287276 73.477675 313.287276 74.018244  C 313.287276 74.558814 313.502046 75.077315 313.884287 75.459556  C 314.266527 75.841796 314.785029 76.056566 315.325598 76.056566  z " clip-path="url(#p9446b5576a)" style="fill: #a58aff; stroke: #a58aff; stroke-width: 0.886227"/>
    <path d="M 359.082183 68.451156  C 359.622753 68.451156 360.141254 68.236386 360.523495 67.854146  C 360.905735 67.471905 361.120505 66.953404 361.120505 66.412834  C 361.120505 65.872265 360.905735 65.353763 360.523495 64.971523  C 360.141254 64.589283 359.622753 64.374512 359.082183 64.374512  C 358.541614 64.374512 358.023112 64.589283 357.640872 64.971523  C 357.258632 65.353763 357.043861 65.872265 357.043861 66.412834  C 357.043861 66.953404 357.258632 67.471905 357.640872 67.854146  C 358.023112 68.236386 358.541614 68.451156 359.082183 68.451156  z " clip-path="url(#p9446b5576a)" style="fill: #a58aff; stroke: #a58aff; stroke-width: 0.886227"/>
    <path d="M 402.838769 72.11302  C 403.379338 72.11302 403.89784 71.89825 404.28008 71.51601  C 404.66232 71.133769 404.877091 70.615268 404.877091 70.074698  C 404.877091 69.534129 404.66232 69.015627 404.28008 68.633387  C 403.89784 68.251147 403.379338 68.036376 402.838769 68.036376  C 402.2982 68.036376 401.779698 68.251147 401.397458 68.633387  C 401.015217 69.015627 400.800447 69.534129 400.800447 70.074698  C 400.800447 70.615268 401.015217 71.133769 401.397458 71.51601  C 401.779698 71.89825 402.2982 72.11302 402.838769 72.11302  z " clip-path="url(#p9446b5576a)" style="fill: #a58aff; stroke: #a58aff; stroke-width: 0.886227"/>
    <path d="M 446.595355 86.197113  C 447.135924 86.197113 447.654426 85.982342 448.036666 85.600102  C 448.418906 85.217862 448.633676 84.69936 448.633676 84.158791  C 448.633676 83.618222 448.418906 83.09972 448.036666 82.71748  C 447.654426 82.33524 447.135924 82.120469 446.595355 82.120469  C 446.054785 82.120469 445.536283 82.33524 445.154043 82.71748  C 444.771803 83.09972 444.557033 83.618222 444.557033 84.158791  C 444.557033 84.69936 444.771803 85.217862 445.154043 85.600102  C 445.536283 85.982342 446.054785 86.197113 446.595355 86.197113  z " clip-path="url(#p9446b5576a)" style="fill: #a58aff; stroke: #a58aff; stroke-width: 0.886227"/>
    <path d="M 490.35194 153.237394  C 490.892509 153.237394 491.411011 153.022623 491.793251 152.640383  C 492.175492 152.258143 492.390262 151.739641 492.390262 151.199072  C 492.390262 150.658503 492.175492 150.140001 491.793251 149.757761  C 491.411011 149.37552 490.892509 149.16075 490.35194 149.16075  C 489.811371 149.16075 489.292869 149.37552 488.910629 149.757761  C 488.528389 150.140001 488.313618 150.658503 488.313618 151.199072  C 488.313618 151.739641 488.528389 152.258143 488.910629 152.640383  C 489.292869 153.022623 489.811371 153.237394 490.35194 153.237394  z " clip-path="url(#p9446b5576a)" style="fill: #a58aff; stroke: #a58aff; stroke-width: 0.886227"/>
    <path d="M 534.108526 176.053624  C 534.649095 176.053624 535.167597 175.838853 535.549837 175.456613  C 535.932077 175.074373 536.146848 174.555871 536.146848 174.015302  C 536.146848 173.474733 535.932077 172.956231 535.549837 172.573991  C 535.167597 172.19175 534.649095 171.97698 534.108526 171.97698  C 533.567956 171.97698 533.049455 172.19175 532.667214 172.573991  C 532.284974 172.956231 532.070204 173.474733 532.070204 174.015302  C 532.070204 174.555871 532.284974 175.074373 532.667214 175.456613  C 533.049455 175.838853 533.567956 176.053624 534.108526 176.053624  z " clip-path="url(#p9446b5576a)" style="fill: #a58aff; stroke: #a58aff; stroke-width: 0.886227"/>
    <path d="M 577.865111 204.785173  C 578.40568 204.785173 578.924182 204.570402 579.306422 204.188162  C 579.688663 203.805922 579.903433 203.28742 579.903433 202.746851  C 579.903433 202.206282 579.688663 201.68778 579.306422 201.30554  C 578.924182 200.923299 578.40568 200.708529 577.865111 200.708529  C 577.324542 200.708529 576.80604 200.923299 576.4238 201.30554  C 576.04156 201.68778 575.826789 202.206282 575.826789 202.746851  C 575.826789 203.28742 576.04156 203.805922 576.4238 204.188162  C 576.80604 204.570402 577.324542 204.785173 577.865111 204.785173  z " clip-path="url(#p9446b5576a)" style="fill: #a58aff; stroke: #a58aff; stroke-width: 0.886227"/>
    <path d="M 96.54267 195.489672  C 97.083239 195.489672 97.601741 195.274901 97.983981 194.892661  C 98.366222 194.510421 98.580992 193.991919 98.580992 193.45135  C 98.580992 192.91078 98.366222 192.392279 97.983981 192.010039  C 97.601741 191.627798 97.083239 191.413028 96.54267 191.413028  C 96.002101 191.413028 95.483599 191.627798 95.101359 192.010039  C 94.719119 192.392279 94.504348 192.91078 94.504348 193.45135  C 94.504348 193.991919 94.719119 194.510421 95.101359 194.892661  C 95.483599 195.274901 96.002101 195.489672 96.54267 195.489672  z " clip-path="url(#p9446b5576a)" style="fill: #fb61d7; stroke: #fb61d7; stroke-width: 0.886227"/>
    <path d="M 140.299256 165.631395  C 140.839825 165.631395 141.358327 165.416625 141.740567 165.034385  C 142.122807 164.652144 142.337578 164.133643 142.337578 163.593073  C 142.337578 163.052504 142.122807 162.534002 141.740567 162.151762  C 141.358327 161.769522 140.839825 161.554751 140.299256 161.554751  C 139.758686 161.554751 139.240185 161.769522 138.857944 162.151762  C 138.475704 162.534002 138.260934 163.052504 138.260934 163.593073  C 138.260934 164.133643 138.475704 164.652144 138.857944 165.034385  C 139.240185 165.416625 139.758686 165.631395 140.299256 165.631395  z " clip-path="url(#p9446b5576a)" style="fill: #fb61d7; stroke: #fb61d7; stroke-width: 0.886227"/>
    <path d="M 184.055841 163.096259  C 184.59641 163.096259 185.114912 162.881488 185.497152 162.499248  C 185.879393 162.117008 186.094163 161.598506 186.094163 161.057937  C 186.094163 160.517367 185.879393 159.998866 185.497152 159.616625  C 185.114912 159.234385 184.59641 159.019615 184.055841 159.019615  C 183.515272 159.019615 182.99677 159.234385 182.61453 159.616625  C 182.23229 159.998866 182.017519 160.517367 182.017519 161.057937  C 182.017519 161.598506 182.23229 162.117008 182.61453 162.499248  C 182.99677 162.881488 183.515272 163.096259 184.055841 163.096259  z " clip-path="url(#p9446b5576a)" style="fill: #fb61d7; stroke: #fb61d7; stroke-width: 0.886227"/>
    <path d="M 227.812427 132.674619  C 228.352996 132.674619 228.871498 132.459848 229.253738 132.077608  C 229.635978 131.695368 229.850749 131.176866 229.850749 130.636297  C 229.850749 130.095727 229.635978 129.577226 229.253738 129.194985  C 228.871498 128.812745 228.352996 128.597975 227.812427 128.597975  C 227.271857 128.597975 226.753356 128.812745 226.371115 129.194985  C 225.988875 129.577226 225.774105 130.095727 225.774105 130.636297  C 225.774105 131.176866 225.988875 131.695368 226.371115 132.077608  C 226.753356 132.459848 227.271857 132.674619 227.812427 132.674619  z " clip-path="url(#p9446b5576a)" style="fill: #fb61d7; stroke: #fb61d7; stroke-width: 0.886227"/>
    <path d="M 271.569012 70.422929  C 272.109582 70.422929 272.628083 70.208159 273.010324 69.825919  C 273.392564 69.443678 273.607334 68.925177 273.607334 68.384607  C 273.607334 67.844038 273.392564 67.325536 273.010324 66.943296  C 272.628083 66.561056 272.109582 66.346285 271.569012 66.346285  C 271.028443 66.346285 270.509941 66.561056 270.127701 66.943296  C 269.745461 67.325536 269.53069 67.844038 269.53069 68.384607  C 269.53069 68.925177 269.745461 69.443678 270.127701 69.825919  C 270.509941 70.208159 271.028443 70.422929 271.569012 70.422929  z " clip-path="url(#p9446b5576a)" style="fill: #fb61d7; stroke: #fb61d7; stroke-width: 0.886227"/>
    <path d="M 315.325598 56.620518  C 315.866167 56.620518 316.384669 56.405748 316.766909 56.023508  C 317.149149 55.641268 317.36392 55.122766 317.36392 54.582197  C 317.36392 54.041627 317.149149 53.523125 316.766909 53.140885  C 316.384669 52.758645 315.866167 52.543875 315.325598 52.543875  C 314.785029 52.543875 314.266527 52.758645 313.884287 53.140885  C 313.502046 53.523125 313.287276 54.041627 313.287276 54.582197  C 313.287276 55.122766 313.502046 55.641268 313.884287 56.023508  C 314.266527 56.405748 314.785029 56.620518 315.325598 56.620518  z " clip-path="url(#p9446b5576a)" style="fill: #fb61d7; stroke: #fb61d7; stroke-width: 0.886227"/>
    <path d="M 359.082183 52.676972  C 359.622753 52.676972 360.141254 52.462202 360.523495 52.079962  C 360.905735 51.697722 361.120505 51.17922 361.120505 50.638651  C 361.120505 50.098081 360.905735 49.57958 360.523495 49.197339  C 360.141254 48.815099 359.622753 48.600329 359.082183 48.600329  C 358.541614 48.600329 358.023112 48.815099 357.640872 49.197339  C 357.258632 49.57958 357.043861 50.098081 357.043861 50.638651  C 357.043861 51.17922 357.258632 51.697722 357.640872 52.079962  C 358.023112 52.462202 358.541614 52.676972 359.082183 52.676972  z " clip-path="url(#p9446b5576a)" style="fill: #fb61d7; stroke: #fb61d7; stroke-width: 0.886227"/>
    <path d="M 402.838769 52.676972  C 403.379338 52.676972 403.89784 52.462202 404.28008 52.079962  C 404.66232 51.697722 404.877091 51.17922 404.877091 50.638651  C 404.877091 50.098081 404.66232 49.57958 404.28008 49.197339  C 403.89784 48.815099 403.379338 48.600329 402.838769 48.600329  C 402.2982 48.600329 401.779698 48.815099 401.397458 49.197339  C 401.015217 49.57958 400.800447 50.098081 400.800447 50.638651  C 400.800447 51.17922 401.015217 51.697722 401.397458 52.079962  C 401.779698 52.462202 402.2982 52.676972 402.838769 52.676972  z " clip-path="url(#p9446b5576a)" style="fill: #fb61d7; stroke: #fb61d7; stroke-width: 0.886227"/>
    <path d="M 446.595355 59.437337  C 447.135924 59.437337 447.654426 59.222566 448.036666 58.840326  C 448.418906 58.458086 448.633676 57.939584 448.633676 57.399015  C 448.633676 56.858446 448.418906 56.339944 448.036666 55.957704  C 447.654426 55.575464 447.135924 55.360693 446.595355 55.360693  C 446.054785 55.360693 445.536283 55.575464 445.154043 55.957704  C 444.771803 56.339944 444.557033 56.858446 444.557033 57.399015  C 444.557033 57.939584 444.771803 58.458086 445.154043 58.840326  C 445.536283 59.222566 446.054785 59.437337 446.595355 59.437337  z " clip-path="url(#p9446b5576a)" style="fill: #fb61d7; stroke: #fb61d7; stroke-width: 0.886227"/>
    <path d="M 490.35194 129.8578  C 490.892509 129.8578 491.411011 129.64303 491.793251 129.260789  C 492.175492 128.878549 492.390262 128.360047 492.390262 127.819478  C 492.390262 127.278909 492.175492 126.760407 491.793251 126.378167  C 491.411011 125.995927 490.892509 125.781156 490.35194 125.781156  C 489.811371 125.781156 489.292869 125.995927 488.910629 126.378167  C 488.528389 126.760407 488.313618 127.278909 488.313618 127.819478  C 488.313618 128.360047 488.528389 128.878549 488.910629 129.260789  C 489.292869 129.64303 489.811371 129.8578 490.35194 129.8578  z " clip-path="url(#p9446b5576a)" style="fill: #fb61d7; stroke: #fb61d7; stroke-width: 0.886227"/>
    <path d="M 534.108526 159.434395  C 534.649095 159.434395 535.167597 159.219624 535.549837 158.837384  C 535.932077 158.455144 536.146848 157.936642 536.146848 157.396073  C 536.146848 156.855503 535.932077 156.337002 535.549837 155.954761  C 535.167597 155.572521 534.649095 155.357751 534.108526 155.357751  C 533.567956 155.357751 533.049455 155.572521 532.667214 155.954761  C 532.284974 156.337002 532.070204 156.855503 532.070204 157.396073  C 532.070204 157.936642 532.284974 158.455144 532.667214 158.837384  C 533.049455 159.219624 533.567956 159.434395 534.108526 159.434395  z " clip-path="url(#p9446b5576a)" style="fill: #fb61d7; stroke: #fb61d7; stroke-width: 0.886227"/>
    <path d="M 577.865111 189.574353  C 578.40568 189.574353 578.924182 189.359582 579.306422 188.977342  C 579.688663 188.595102 579.903433 188.0766 579.903433 187.536031  C 579.903433 186.995462 579.688663 186.47696 579.306422 186.09472  C 578.924182 185.712479 578.40568 185.497709 577.865111 185.497709  C 577.324542 185.497709 576.80604 185.712479 576.4238 186.09472  C 576.04156 186.47696 575.826789 186.995462 575.826789 187.536031  C 575.826789 188.0766 576.04156 188.595102 576.4238 188.977342  C 576.80604 189.359582 577.324542 189.574353 577.865111 189.574353  z " clip-path="url(#p9446b5576a)" style="fill: #fb61d7; stroke: #fb61d7; stroke-width: 0.886227"/>
   </g>
   <g id="patch_3">
    <path d="M 70.288719 344.63  L 604.119062 344.63  " style="fill: none; stroke: #000000; stroke-width: 0.5; stroke-linejoin: miter; stroke-linecap: square"/>
   </g>
  </g>
  <g id="text_18">
   <text style="font-weight: 700; font-size: 15px; font-family: 'GT Planar'; text-anchor: start" x="70.288719" y="17.939062" transform="rotate(-0 70.288719 17.939062)">Share saving by partial-space cooling</text>
  </g>
  <g id="text_19">
   <text style="font-size: 13px; font-family: 'GT Planar'; text-anchor: start; fill: #333333" x="317.444906" y="385.02" transform="rotate(-0 317.444906 385.02)">Month</text>
  </g>
  <g id="text_20">
   <text style="font-size: 13px; font-family: 'GT Planar'; fill: #333333" transform="translate(16.482813 272.755937) rotate(-90)">% of bldg_id with lower bill</text>
   <text style="font-size: 13px; font-family: 'GT Planar'; fill: #333333" transform="translate(27.751375 250.211094) rotate(-90)">(run 3+4 &lt; run 1+2)</text>
  </g>
  <g id="text_21">
   <text style="font-size: 13px; font-family: 'GT Planar'; text-anchor: start; fill: #333333" x="628.879063" y="131.584531" transform="rotate(-0 628.879063 131.584531)">Partial cooling</text>
  </g>
  <g id="patch_4">
   <path d="M 629.879063 150.744531  L 643.719063 150.744531  L 643.719063 136.904531  L 629.879063 136.904531  z " clip-path="url(#p82b57944cd)" style="fill: #ffffff; stroke: #ffffff; stroke-linejoin: miter"/>
  </g>
  <g id="line2d_29">
   <path d="M 628.879063 143.824531  L 644.719063 143.824531  " clip-path="url(#p82b57944cd)" style="fill: none; stroke: #f8766d; stroke-width: 0.886227"/>
  </g>
  <g id="line2d_30">
   <path d="M 636.799062 143.824531  " clip-path="url(#p82b57944cd)" style="fill: none; stroke: #1f77b4; stroke-width: 1.5; stroke-linecap: square"/>
   <defs>
    <path id="m3785dc8c33" d="M 0 2.038322  C 0.540569 2.038322 1.059071 1.823551 1.441311 1.441311  C 1.823551 1.059071 2.038322 0.540569 2.038322 0  C 2.038322 -0.540569 1.823551 -1.059071 1.441311 -1.441311  C 1.059071 -1.823551 0.540569 -2.038322 0 -2.038322  C -0.540569 -2.038322 -1.059071 -1.823551 -1.441311 -1.441311  C -1.823551 -1.059071 -2.038322 -0.540569 -2.038322 0  C -2.038322 0.540569 -1.823551 1.059071 -1.441311 1.441311  C -1.059071 1.823551 -0.540569 2.038322 0 2.038322  z " style="stroke: #f8766d; stroke-width: 0.886227"/>
   </defs>
   <g clip-path="url(#p82b57944cd)">
    <use xlink:href="#m3785dc8c33" x="636.799062" y="143.824531" style="fill: #f8766d; stroke: #f8766d; stroke-width: 0.886227"/>
   </g>
  </g>
  <g id="text_22">
   <text style="font-size: 11px; font-family: 'IBM Plex Sans'; text-anchor: middle; fill: #4d4d4d" x="676.492734" y="146.794531" transform="rotate(-0 676.492734 146.794531)">0% (None)</text>
  </g>
  <g id="patch_5">
   <path d="M 629.879063 168.584531  L 643.719063 168.584531  L 643.719063 154.744531  L 629.879063 154.744531  z " clip-path="url(#p9f9c56b12d)" style="fill: #ffffff; stroke: #ffffff; stroke-linejoin: miter"/>
  </g>
  <g id="line2d_31">
   <path d="M 628.879063 161.664531  L 644.719063 161.664531  " clip-path="url(#p9f9c56b12d)" style="fill: none; stroke: #c49a00; stroke-width: 0.886227"/>
  </g>
  <g id="line2d_32">
   <path d="M 636.799062 161.664531  " clip-path="url(#p9f9c56b12d)" style="fill: none; stroke: #1f77b4; stroke-width: 1.5; stroke-linecap: square"/>
   <defs>
    <path id="mc018be41fd" d="M 0 2.038322  C 0.540569 2.038322 1.059071 1.823551 1.441311 1.441311  C 1.823551 1.059071 2.038322 0.540569 2.038322 0  C 2.038322 -0.540569 1.823551 -1.059071 1.441311 -1.441311  C 1.059071 -1.823551 0.540569 -2.038322 0 -2.038322  C -0.540569 -2.038322 -1.059071 -1.823551 -1.441311 -1.441311  C -1.823551 -1.059071 -2.038322 -0.540569 -2.038322 0  C -2.038322 0.540569 -1.823551 1.059071 -1.441311 1.441311  C -1.059071 1.823551 -0.540569 2.038322 0 2.038322  z " style="stroke: #c49a00; stroke-width: 0.886227"/>
   </defs>
   <g clip-path="url(#p9f9c56b12d)">
    <use xlink:href="#mc018be41fd" x="636.799062" y="161.664531" style="fill: #c49a00; stroke: #c49a00; stroke-width: 0.886227"/>
   </g>
  </g>
  <g id="text_23">
   <text style="font-size: 11px; font-family: 'IBM Plex Sans'; text-anchor: middle; fill: #4d4d4d" x="709.579531" y="164.634531" transform="rotate(-0 709.579531 164.634531)">5% (&lt;10% Conditioned)</text>
  </g>
  <g id="patch_6">
   <path d="M 629.879063 186.424531  L 643.719063 186.424531  L 643.719063 172.584531  L 629.879063 172.584531  z " clip-path="url(#pf7238980fd)" style="fill: #ffffff; stroke: #ffffff; stroke-linejoin: miter"/>
  </g>
  <g id="line2d_33">
   <path d="M 628.879063 179.504531  L 644.719063 179.504531  " clip-path="url(#pf7238980fd)" style="fill: none; stroke: #53b400; stroke-width: 0.886227"/>
  </g>
  <g id="line2d_34">
   <path d="M 636.799062 179.504531  " clip-path="url(#pf7238980fd)" style="fill: none; stroke: #1f77b4; stroke-width: 1.5; stroke-linecap: square"/>
   <defs>
    <path id="me79965243f" d="M 0 2.038322  C 0.540569 2.038322 1.059071 1.823551 1.441311 1.441311  C 1.823551 1.059071 2.038322 0.540569 2.038322 0  C 2.038322 -0.540569 1.823551 -1.059071 1.441311 -1.441311  C 1.059071 -1.823551 0.540569 -2.038322 0 -2.038322  C -0.540569 -2.038322 -1.059071 -1.823551 -1.441311 -1.441311  C -1.823551 -1.059071 -2.038322 -0.540569 -2.038322 0  C -2.038322 0.540569 -1.823551 1.059071 -1.441311 1.441311  C -1.059071 1.823551 -0.540569 2.038322 0 2.038322  z " style="stroke: #53b400; stroke-width: 0.886227"/>
   </defs>
   <g clip-path="url(#pf7238980fd)">
    <use xlink:href="#me79965243f" x="636.799062" y="179.504531" style="fill: #53b400; stroke: #53b400; stroke-width: 0.886227"/>
   </g>
  </g>
  <g id="text_24">
   <text style="font-size: 11px; font-family: 'IBM Plex Sans'; text-anchor: middle; fill: #4d4d4d" x="709.579531" y="182.474531" transform="rotate(-0 709.579531 182.474531)">20% (20% Conditioned)</text>
  </g>
  <g id="patch_7">
   <path d="M 629.879063 204.264531  L 643.719063 204.264531  L 643.719063 190.424531  L 629.879063 190.424531  z " clip-path="url(#p09e5b0084a)" style="fill: #ffffff; stroke: #ffffff; stroke-linejoin: miter"/>
  </g>
  <g id="line2d_35">
   <path d="M 628.879063 197.344531  L 644.719063 197.344531  " clip-path="url(#p09e5b0084a)" style="fill: none; stroke: #00c094; stroke-width: 0.886227"/>
  </g>
  <g id="line2d_36">
   <path d="M 636.799062 197.344531  " clip-path="url(#p09e5b0084a)" style="fill: none; stroke: #1f77b4; stroke-width: 1.5; stroke-linecap: square"/>
   <defs>
    <path id="me62fec23e0" d="M 0 2.038322  C 0.540569 2.038322 1.059071 1.823551 1.441311 1.441311  C 1.823551 1.059071 2.038322 0.540569 2.038322 0  C 2.038322 -0.540569 1.823551 -1.059071 1.441311 -1.441311  C 1.059071 -1.823551 0.540569 -2.038322 0 -2.038322  C -0.540569 -2.038322 -1.059071 -1.823551 -1.441311 -1.441311  C -1.823551 -1.059071 -2.038322 -0.540569 -2.038322 0  C -2.038322 0.540569 -1.823551 1.059071 -1.441311 1.441311  C -1.059071 1.823551 -0.540569 2.038322 0 2.038322  z " style="stroke: #00c094; stroke-width: 0.886227"/>
   </defs>
   <g clip-path="url(#p09e5b0084a)">
    <use xlink:href="#me62fec23e0" x="636.799062" y="197.344531" style="fill: #00c094; stroke: #00c094; stroke-width: 0.886227"/>
   </g>
  </g>
  <g id="text_25">
   <text style="font-size: 11px; font-family: 'IBM Plex Sans'; text-anchor: middle; fill: #4d4d4d" x="709.579531" y="200.314531" transform="rotate(-0 709.579531 200.314531)">40% (40% Conditioned)</text>
  </g>
  <g id="patch_8">
   <path d="M 629.879063 222.104531  L 643.719063 222.104531  L 643.719063 208.264531  L 629.879063 208.264531  z " clip-path="url(#p746db60d5c)" style="fill: #ffffff; stroke: #ffffff; stroke-linejoin: miter"/>
  </g>
  <g id="line2d_37">
   <path d="M 628.879063 215.184531  L 644.719063 215.184531  " clip-path="url(#p746db60d5c)" style="fill: none; stroke: #00b6eb; stroke-width: 0.886227"/>
  </g>
  <g id="line2d_38">
   <path d="M 636.799062 215.184531  " clip-path="url(#p746db60d5c)" style="fill: none; stroke: #1f77b4; stroke-width: 1.5; stroke-linecap: square"/>
   <defs>
    <path id="mefc32cef00" d="M 0 2.038322  C 0.540569 2.038322 1.059071 1.823551 1.441311 1.441311  C 1.823551 1.059071 2.038322 0.540569 2.038322 0  C 2.038322 -0.540569 1.823551 -1.059071 1.441311 -1.441311  C 1.059071 -1.823551 0.540569 -2.038322 0 -2.038322  C -0.540569 -2.038322 -1.059071 -1.823551 -1.441311 -1.441311  C -1.823551 -1.059071 -2.038322 -0.540569 -2.038322 0  C -2.038322 0.540569 -1.823551 1.059071 -1.441311 1.441311  C -1.059071 1.823551 -0.540569 2.038322 0 2.038322  z " style="stroke: #00b6eb; stroke-width: 0.886227"/>
   </defs>
   <g clip-path="url(#p746db60d5c)">
    <use xlink:href="#mefc32cef00" x="636.799062" y="215.184531" style="fill: #00b6eb; stroke: #00b6eb; stroke-width: 0.886227"/>
   </g>
  </g>
  <g id="text_26">
   <text style="font-size: 11px; font-family: 'IBM Plex Sans'; text-anchor: middle; fill: #4d4d4d" x="709.579531" y="218.154531" transform="rotate(-0 709.579531 218.154531)">60% (60% Conditioned)</text>
  </g>
  <g id="patch_9">
   <path d="M 629.879063 239.944531  L 643.719063 239.944531  L 643.719063 226.104531  L 629.879063 226.104531  z " clip-path="url(#pfd6400fd82)" style="fill: #ffffff; stroke: #ffffff; stroke-linejoin: miter"/>
  </g>
  <g id="line2d_39">
   <path d="M 628.879063 233.024531  L 644.719063 233.024531  " clip-path="url(#pfd6400fd82)" style="fill: none; stroke: #a58aff; stroke-width: 0.886227"/>
  </g>
  <g id="line2d_40">
   <path d="M 636.799062 233.024531  " clip-path="url(#pfd6400fd82)" style="fill: none; stroke: #1f77b4; stroke-width: 1.5; stroke-linecap: square"/>
   <defs>
    <path id="m808fdf6d8b" d="M 0 2.038322  C 0.540569 2.038322 1.059071 1.823551 1.441311 1.441311  C 1.823551 1.059071 2.038322 0.540569 2.038322 0  C 2.038322 -0.540569 1.823551 -1.059071 1.441311 -1.441311  C 1.059071 -1.823551 0.540569 -2.038322 0 -2.038322  C -0.540569 -2.038322 -1.059071 -1.823551 -1.441311 -1.441311  C -1.823551 -1.059071 -2.038322 -0.540569 -2.038322 0  C -2.038322 0.540569 -1.823551 1.059071 -1.441311 1.441311  C -1.059071 1.823551 -0.540569 2.038322 0 2.038322  z " style="stroke: #a58aff; stroke-width: 0.886227"/>
   </defs>
   <g clip-path="url(#pfd6400fd82)">
    <use xlink:href="#m808fdf6d8b" x="636.799062" y="233.024531" style="fill: #a58aff; stroke: #a58aff; stroke-width: 0.886227"/>
   </g>
  </g>
  <g id="text_27">
   <text style="font-size: 11px; font-family: 'IBM Plex Sans'; text-anchor: middle; fill: #4d4d4d" x="709.579531" y="235.994531" transform="rotate(-0 709.579531 235.994531)">80% (80% Conditioned)</text>
  </g>
  <g id="patch_10">
   <path d="M 629.879063 257.784531  L 643.719063 257.784531  L 643.719063 243.944531  L 629.879063 243.944531  z " clip-path="url(#p6f74da5631)" style="fill: #ffffff; stroke: #ffffff; stroke-linejoin: miter"/>
  </g>
  <g id="line2d_41">
   <path d="M 628.879063 250.864531  L 644.719063 250.864531  " clip-path="url(#p6f74da5631)" style="fill: none; stroke: #fb61d7; stroke-width: 0.886227"/>
  </g>
  <g id="line2d_42">
   <path d="M 636.799062 250.864531  " clip-path="url(#p6f74da5631)" style="fill: none; stroke: #1f77b4; stroke-width: 1.5; stroke-linecap: square"/>
   <defs>
    <path id="m868baf1651" d="M 0 2.038322  C 0.540569 2.038322 1.059071 1.823551 1.441311 1.441311  C 1.823551 1.059071 2.038322 0.540569 2.038322 0  C 2.038322 -0.540569 1.823551 -1.059071 1.441311 -1.441311  C 1.059071 -1.823551 0.540569 -2.038322 0 -2.038322  C -0.540569 -2.038322 -1.059071 -1.823551 -1.441311 -1.441311  C -1.823551 -1.059071 -2.038322 -0.540569 -2.038322 0  C -2.038322 0.540569 -1.823551 1.059071 -1.441311 1.441311  C -1.059071 1.823551 -0.540569 2.038322 0 2.038322  z " style="stroke: #fb61d7; stroke-width: 0.886227"/>
   </defs>
   <g clip-path="url(#p6f74da5631)">
    <use xlink:href="#m868baf1651" x="636.799062" y="250.864531" style="fill: #fb61d7; stroke: #fb61d7; stroke-width: 0.886227"/>
   </g>
  </g>
  <g id="text_28">
   <text style="font-size: 11px; font-family: 'IBM Plex Sans'; text-anchor: middle; fill: #4d4d4d" x="716.179531" y="253.834531" transform="rotate(-0 716.179531 253.834531)">100% (100% Conditioned)</text>
  </g>
 </g>
 <defs>
  <clipPath id="p9446b5576a">
   <rect x="70.288719" y="36.639063" width="533.830344" height="307.990937"/>
  </clipPath>
  <clipPath id="p82b57944cd">
   <path d="M 628.879063 151.744531  L 628.879063 135.904531  L 644.719063 135.904531  L 644.719063 151.744531  "/>
  </clipPath>
  <clipPath id="p9f9c56b12d">
   <path d="M 628.879063 169.584531  L 628.879063 153.744531  L 644.719063 153.744531  L 644.719063 169.584531  "/>
  </clipPath>
  <clipPath id="pf7238980fd">
   <path d="M 628.879063 187.424531  L 628.879063 171.584531  L 644.719063 171.584531  L 644.719063 187.424531  "/>
  </clipPath>
  <clipPath id="p09e5b0084a">
   <path d="M 628.879063 205.264531  L 628.879063 189.424531  L 644.719063 189.424531  L 644.719063 205.264531  "/>
  </clipPath>
  <clipPath id="p746db60d5c">
   <path d="M 628.879063 223.104531  L 628.879063 207.264531  L 644.719063 207.264531  L 644.719063 223.104531  "/>
  </clipPath>
  <clipPath id="pfd6400fd82">
   <path d="M 628.879063 240.944531  L 628.879063 225.104531  L 644.719063 225.104531  L 644.719063 240.944531  "/>
  </clipPath>
  <clipPath id="p6f74da5631">
   <path d="M 628.879063 258.784531  L 628.879063 242.944531  L 644.719063 242.944531  L 644.719063 258.784531  "/>
  </clipPath>
 </defs>
</svg>
