<?xml version="1.0" encoding="UTF-8"?>
<svg xmlns="http://www.w3.org/2000/svg" xmlns:xlink="http://www.w3.org/1999/xlink" viewBox="0 0 1280 540">
  <defs>
    <style>
      @font-face {
        font-display: swap;
        font-family: 'GT Planar';
        font-style: normal;
        font-weight: 400;
        src: url('https://switchbox-data.github.io/reports/fonts/gt_planar/GT-Planar-Regular.otf') format('opentype');
      }
      @font-face {
        font-display: swap;
        font-family: 'GT Planar';
        font-style: normal;
        font-weight: 700;
        src: url('https://switchbox-data.github.io/reports/fonts/gt_planar/GT-Planar-Bold.otf') format('opentype');
      }
      @font-face {
        font-display: swap;
        font-family: 'GT-Planar-Black';
        src: url('https://switchbox-data.github.io/reports/fonts/gt_planar/GT-Planar-Black.otf') format('opentype');
      }

      text {
        font-family: 'GT Planar', sans-serif;
      }

      .infographic_1_cls-1, .infographic_1_cls-2, .infographic_1_cls-3, .infographic_1_cls-4, .infographic_1_cls-5 {
        fill: none;
      }

      .infographic_1_cls-2 {
        stroke: #e7b629;
        stroke-width: 2.5px;
      }

      .infographic_1_cls-2, .infographic_1_cls-3, .infographic_1_cls-4, .infographic_1_cls-6, .infographic_1_cls-7, .infographic_1_cls-8, .infographic_1_cls-9, .infographic_1_cls-5 {
        stroke-miterlimit: 10;
      }

      .infographic_1_cls-2, .infographic_1_cls-5 {
        stroke-linecap: round;
      }

      .infographic_1_cls-3 {
        stroke: #a7a9ac;
        stroke-width: 2px;
      }

      .infographic_1_cls-10, .infographic_1_cls-11 {
        fill: #bcbec0;
      }

      .infographic_1_cls-12 {
        fill: #dcddde;
      }

      .infographic_1_cls-11, .infographic_1_cls-13, .infographic_1_cls-14 {
        mix-blend-mode: multiply;
      }

      .infographic_1_cls-13 {
        fill: #e6e7e8;
      }

      .infographic_1_cls-15 {
        fill: #d9d2d0;
      }

      .infographic_1_cls-16 {
        fill: #a5d3e4;
      }

      .infographic_1_cls-17 {
        fill: #e7b629;
      }

      .infographic_1_cls-18 {
        fill: #5eadc5;
      }

      .infographic_1_cls-19 {
        font-size: 36px;
        letter-spacing: -.03em;
      }

      .infographic_1_cls-19, .infographic_1_cls-20, .infographic_1_cls-21 {
        fill: #fff;
      }

      .infographic_1_cls-19, .infographic_1_cls-21 {
        font-family: 'GT Planar', sans-serif;
        font-weight: 700;
      }

      .infographic_1_cls-22 {
        letter-spacing: 0em;
      }

      .infographic_1_cls-23 {
        letter-spacing: 0em;
      }

      .infographic_1_cls-24 {
        fill: #fcb53b;
      }

      .infographic_1_cls-25 {
        fill: #808285;
      }

      .infographic_1_cls-21 {
        font-size: 23.47px;
        letter-spacing: -.03em;
      }

      .infographic_1_cls-26 {
        fill: #ffc82b;
      }

      .infographic_1_cls-4 {
        stroke: #4d4d4f;
        stroke-width: 1.93px;
      }

      .infographic_1_cls-14 {
        fill: #d8d6d6;
      }

      .infographic_1_cls-6 {
        stroke-width: 1.71px;
      }

      .infographic_1_cls-6, .infographic_1_cls-7, .infographic_1_cls-8, .infographic_1_cls-9 {
        fill: #f6c92e;
      }

      .infographic_1_cls-6, .infographic_1_cls-7, .infographic_1_cls-8, .infographic_1_cls-9, .infographic_1_cls-5 {
        stroke: #fff;
      }

      .infographic_1_cls-7 {
        stroke-width: 1.7px;
      }

      .infographic_1_cls-8 {
        stroke-width: 1.7px;
      }

      .infographic_1_cls-9 {
        stroke-width: 1.7px;
      }

      .infographic_1_cls-27 {
        letter-spacing: -.09em;
      }

      .infographic_1_cls-28 {
        fill: #efecea;
      }

      .infographic_1_cls-29 {
        letter-spacing: -.01em;
      }

      .infographic_1_cls-30 {
        letter-spacing: -.03em;
      }

      .infographic_1_cls-31 {
        letter-spacing: 0em;
      }

      .infographic_1_cls-32 {
        letter-spacing: -.01em;
      }

      .infographic_1_cls-33, .infographic_1_cls-34, .infographic_1_cls-35 {
        fill: #4d4d4f;
      }

      .infographic_1_cls-36 {
        fill: #67bdd7;
      }

      .infographic_1_cls-37 {
        letter-spacing: 0em;
      }

      .infographic_1_cls-38 {
        fill: #ccd194;
      }

      .infographic_1_cls-34 {
        font-size: 30px;
      }

      .infographic_1_cls-34, .infographic_1_cls-35 {
        font-family: 'GT Planar', sans-serif;
      }

      .infographic_1_cls-5 {
        stroke-width: 1.86px;
      }

      .infographic_1_cls-35 {
        font-size: 20px;
      }

      .infographic_1_cls-39 {
        fill: #ffc82c;
      }

      .infographic_1_cls-40 {
        fill: #cecac8;
      }

      .infographic_1_cls-41 {
        fill: #a7a9ac;
      }
    </style>
    <symbol id="Home_Base_2" data-name="Home Base 2" viewBox="0 0 103.92 96">
      <g>
        <polygon class="infographic_1_cls-28" points="62.35 0 31.18 0 0 36 0 72 41.57 96 103.92 60 103.92 24 62.35 0"/>
        <polygon class="infographic_1_cls-13" points="72.75 24 31.18 0 62.35 0 103.92 24 72.75 24"/>
        <polygon class="infographic_1_cls-13" points="41.57 96 0 72 0 36 41.57 60 41.57 96"/>
        <polygon class="infographic_1_cls-14" points="103.92 60 41.57 96 41.57 60 72.75 24 103.92 24 103.92 60"/>
        <polygon class="infographic_1_cls-11" points="34.64 92 24.25 86 24.25 62 34.64 68 34.64 92"/>
        <polygon class="infographic_1_cls-11" points="6.93 68 17.32 74 17.32 58 6.93 52 6.93 68"/>
      </g>
    </symbol>
    <symbol id="ISO_Utility_Pole" data-name="ISO Utility Pole" viewBox="0 0 12.25 75.18">
      <g>
        <line class="infographic_1_cls-5" x1="11.32" y1="4.06" x2="7.96" y2="6"/>
        <path class="infographic_1_cls-40" d="M8.72,74.56c-1.43.83-3.76.83-5.2,0s-1.43-2.17,0-3,3.76-.83,5.2,0,1.43,2.17,0,3Z"/>
        <line class="infographic_1_cls-5" x1="11.32" y1="10.06" x2="7.96" y2="12"/>
        <g>
          <path class="infographic_1_cls-28" d="M7.43,73.81c-.72.41-1.88.41-2.6,0s-.72-1.09,0-1.5,1.88-.41,2.6,0,.72,1.09,0,1.5Z"/>
          <rect class="infographic_1_cls-28" x="4.29" y="1.06" width="3.67" height="72"/>
        </g>
        <path class="infographic_1_cls-20" d="M7.43,1.81c-.72.41-1.88.41-2.6,0s-.72-1.09,0-1.5,1.88-.41,2.6,0,.72,1.09,0,1.5Z"/>
        <line class="infographic_1_cls-5" x1="4.83" y1="13.81" x2=".93" y2="16.06"/>
        <line class="infographic_1_cls-5" x1="4.83" y1="7.81" x2=".93" y2="10.06"/>
      </g>
    </symbol>
    <symbol id="New_Symbol_13" data-name="New Symbol 13" viewBox="0 0 27.71 43.24">
      <g>
        <polygon class="infographic_1_cls-15" points="20.78 15.24 10.39 21.24 10.39 9.24 20.78 3.24 20.78 15.24"/>
        <polygon class="infographic_1_cls-1" points="27.71 31.24 6.93 43.24 0 39.24 20.78 27.24 27.71 31.24"/>
        <polygon class="infographic_1_cls-16" points="27.71 7.24 17.32 13.24 10.39 9.24 20.78 3.24 27.71 7.24"/>
        <path class="infographic_1_cls-25" d="M20.78,7.24c.96.55.96,1.45,0,2s-2.51.55-3.46,0c-.96-.55-.96-1.45,0-2,.96-.55,2.51-.55,3.46,0Z"/>
        <g>
          <path class="infographic_1_cls-25" d="M20.78,7.24c.96.55.96,1.45,0,2s-2.51.55-3.46,0c-.96-.55-.96-1.45,0-2s2.51-.55,3.46,0Z"/>
          <g>
            <path class="infographic_1_cls-25" d="M17.32,1.24c0,1.1-.78,2.45-1.73,3s-1.73.1-1.73-1c0-1.1.78-2.45,1.73-3s1.73-.1,1.73,1Z"/>
            <path class="infographic_1_cls-41" d="M16.45,1.74c0,.55-.39,1.22-.87,1.5s-.87.05-.87-.5.39-1.22.87-1.5.87-.05.87.5Z"/>
          </g>
          <path class="infographic_1_cls-3" d="M19.05,8.24v-2.85c0-.71-.38-1.37-1-1.73l-2.46-1.42"/>
          <path class="infographic_1_cls-41" d="M19.92,7.74c.48.28.48.72,0,1s-1.25.28-1.73,0-.48-.72,0-1,1.25-.28,1.73,0Z"/>
        </g>
        <g>
          <path class="infographic_1_cls-25" d="M20.78,31.24c.96.55.96,1.45,0,2s-2.51.55-3.46,0c-.96-.55-.96-1.45,0-2s2.51-.55,3.46,0Z"/>
          <line class="infographic_1_cls-3" x1="19.05" y1="32.24" x2="19.05" y2="21.17"/>
          <path class="infographic_1_cls-41" d="M19.92,31.74c.48.28.48.72,0,1s-1.25.28-1.73,0-.48-.72,0-1,1.25-.28,1.73,0Z"/>
        </g>
        <polygon class="infographic_1_cls-18" points="10.39 9.24 17.32 13.24 17.32 25.24 10.39 21.24 10.39 9.24"/>
        <polygon class="infographic_1_cls-36" points="27.71 19.24 17.32 25.24 17.32 13.24 27.71 7.24 27.71 19.24"/>
        <path class="infographic_1_cls-28" d="M25.11,14.74c0,1.66-1.16,3.67-2.6,4.5s-2.6.16-2.6-1.5c0-1.66,1.16-3.67,2.6-4.5s2.6-.16,2.6,1.5Z"/>
      </g>
    </symbol>
    <symbol id="New_Symbol_2" data-name="New Symbol 2" viewBox="0 0 27.71 40">
      <g>
        <polygon class="infographic_1_cls-15" points="20.78 12 10.39 18 10.39 6 20.78 0 20.78 12"/>
        <polygon class="infographic_1_cls-1" points="27.71 28 6.93 40 0 36 20.78 24 27.71 28"/>
        <polygon class="infographic_1_cls-39" points="27.71 4 17.32 10 10.39 6 20.78 0 27.71 4"/>
        <g>
          <path class="infographic_1_cls-25" d="M20.78,4c.96.55.96,1.45,0,2s-2.51.55-3.46,0c-.96-.55-.96-1.45,0-2s2.51-.55,3.46,0Z"/>
          <path class="infographic_1_cls-24" d="M19.92,4.5c.48.28.48.72,0,1s-1.25.28-1.73,0-.48-.72,0-1,1.25-.28,1.73,0Z"/>
        </g>
        <polygon class="infographic_1_cls-39" points="27.71 16 17.32 22 17.32 10 27.71 4 27.71 16"/>
        <path class="infographic_1_cls-28" d="M25.11,11.5c0,1.66-1.16,3.67-2.6,4.5s-2.6.16-2.6-1.5c0-1.66,1.16-3.67,2.6-4.5s2.6-.16,2.6,1.5Z"/>
        <polygon class="infographic_1_cls-39" points="10.39 6 17.32 10 17.32 22 10.39 18 10.39 6"/>
        <polygon class="infographic_1_cls-13" points="10.39 6 17.32 10 17.32 22 10.39 18 10.39 6"/>
      </g>
    </symbol>
    <symbol id="New_Symbol_3" data-name="New Symbol 3" viewBox="0 0 105.65 96">
      <g>
        <use width="103.92" height="96" xlink:href="#Home_Base_2"/>
        <polygon class="infographic_1_cls-1" points="103.95 60 41.6 96 41.6 60 72.77 24 103.95 24 103.95 60"/>
        <use width="27.71" height="40" transform="translate(77.94 39)" xlink:href="#New_Symbol_2"/>
        <use width="27.71" height="43.24" transform="translate(51.96 50.78)" xlink:href="#New_Symbol_13"/>
      </g>
    </symbol>
    <symbol id="New_Symbol_7" data-name="New Symbol 7" viewBox="0 0 40 40">
      <g>
        <circle class="infographic_1_cls-26" cx="20" cy="20" r="20"/>
        <text class="infographic_1_cls-21" transform="translate(12.81 28.35)"><tspan x="0" y="0">$</tspan></text>
      </g>
    </symbol>
  </defs>
  <rect width="1280" height="540" fill="#ffffff"/>
  <g id="Base_ISO_copy" data-name="Base ISO copy">
    <g id="Layer_30_copy" data-name="Layer 30 copy">
      <g>
        <polygon class="infographic_1_cls-38" points="575.93 453.44 482.4 399.44 617.49 321.44 711.03 375.44 575.93 453.44"/>
        <polygon class="infographic_1_cls-38" points="482.4 399.44 388.86 345.44 523.96 267.44 617.49 321.44 482.4 399.44"/>
        <polygon class="infographic_1_cls-38" points="388.86 345.44 295.33 291.44 430.43 213.44 523.96 267.44 388.86 345.44"/>
        <polygon class="infographic_1_cls-38" points="295.33 291.44 201.8 237.44 336.9 159.44 430.43 213.44 295.33 291.44"/>
      </g>
      <polygon class="infographic_1_cls-12" points="336.89 159.44 357.64 147.46 731.76 363.46 711.01 375.44 336.89 159.44"/>
      <polygon class="infographic_1_cls-12" points="186.21 246.44 201.77 237.45 575.89 453.45 560.34 462.44 186.21 246.44"/>
      <g>
        <polygon class="infographic_1_cls-12" points="299.95 246.1 258.38 270.1 248.57 264.44 290.14 240.44 299.95 246.1"/>
        <polygon class="infographic_1_cls-12" points="393.48 300.1 351.91 324.1 342.1 318.44 383.67 294.44 393.48 300.1"/>
        <polygon class="infographic_1_cls-12" points="487.01 354.1 445.44 378.1 435.63 372.44 477.2 348.44 487.01 354.1"/>
        <polygon class="infographic_1_cls-12" points="580.54 408.1 538.97 432.1 529.16 426.44 570.73 402.44 580.54 408.1"/>
      </g>
      <polygon class="infographic_1_cls-10" points="560.29 462.44 523.91 483.44 149.82 267.45 186.19 246.45 560.29 462.44"/>
    </g>
    <g id="Layer_28_copy" data-name="Layer 28 copy">
      <g id="Layer_40_copy" data-name="Layer 40 copy">
        <g>
          <path class="infographic_1_cls-1" d="M409.55,126.57s36.46,41.41,93.53,54"/>
          <path class="infographic_1_cls-1" d="M316.02,72.57s36.46,41.41,93.53,54"/>
          <path class="infographic_1_cls-1" d="M503.08,180.57s36.46,41.41,93.53,54"/>
          <path class="infographic_1_cls-1" d="M596.61,234.57s36.46,41.41,93.53,54"/>
        </g>
      </g>
    </g>
  </g>
  <g id="Home_1-3" data-name="Home 1-3">
    <use width="105.65" height="96" transform="translate(264.18 153.44)" xlink:href="#New_Symbol_3"/>
    <use width="105.65" height="96" transform="translate(357.71 207.44)" xlink:href="#New_Symbol_3"/>
    <use width="105.65" height="96" transform="translate(451.24 261.44)" xlink:href="#New_Symbol_3"/>
  </g>
  <g id="Home_4_Existing" data-name="Home 4 Existing">
    <use width="105.65" height="96" transform="translate(544.77 315.44)" xlink:href="#New_Symbol_3"/>
  </g>
  <g id="Electric_Line" data-name="Electric Line">
    <g>
      <path class="infographic_1_cls-2" d="M409.55,120.43s36.46,41.41,93.53,54"/>
      <path class="infographic_1_cls-2" d="M316.02,66.43s36.46,41.41,93.53,54"/>
      <path class="infographic_1_cls-2" d="M503.08,174.43s36.46,41.41,93.53,54"/>
      <path class="infographic_1_cls-2" d="M596.61,228.43s36.46,41.41,93.53,54"/>
    </g>
  </g>
  <g id="Electric_Utility_Pole" data-name="Electric Utility Pole">
    <use width="12.25" height="75.18" transform="translate(398.23 116.37)" xlink:href="#ISO_Utility_Pole"/>
    <use width="12.25" height="75.18" transform="translate(491.76 170.37)" xlink:href="#ISO_Utility_Pole"/>
    <use width="12.25" height="75.18" transform="translate(585.28 224.37)" xlink:href="#ISO_Utility_Pole"/>
    <use width="12.25" height="75.18" transform="translate(678.81 278.37)" xlink:href="#ISO_Utility_Pole"/>
  </g>
  <g id="Electric_Line_To_Homes" data-name="Electric Line To Homes">
    <path class="infographic_1_cls-2" d="M492.69,180.57s-15.82,43.93-37.98,60.87v10"/>
    <path class="infographic_1_cls-2" d="M586.22,234.57s-15.82,43.93-37.98,60.87v10"/>
    <path class="infographic_1_cls-2" d="M679.74,288.57s-15.82,43.93-37.98,60.87v10"/>
    <path class="infographic_1_cls-2" d="M399.16,126.57s-15.82,43.93-37.98,60.87v10"/>
  </g>
  <g id="Cost_Icons_1-3" data-name="Cost Icons 1-3">
    <use width="40" height="40" transform="translate(384.35 53.25)" xlink:href="#New_Symbol_7"/>
    <use width="40" height="40" transform="translate(477.88 108.31)" xlink:href="#New_Symbol_7"/>
    <use width="40" height="40" transform="translate(571.41 163.37)" xlink:href="#New_Symbol_7"/>
  </g>
  <g id="Cost_Icon_4_Before" data-name="Cost Icon 4 Before">
    <use width="40" height="40" transform="translate(664.94 218.44)" xlink:href="#New_Symbol_7"/>
  </g>
  <g id="Cost_Step_1" data-name="Cost Step 1">
    <rect class="infographic_1_cls-7" x="789.34" y="330.69" width="72" height="71.74"/>
    <rect class="infographic_1_cls-6" x="860.83" y="330.44" width="72.51" height="71.74"/>
    <rect class="infographic_1_cls-8" x="933.34" y="330.44" width="72" height="72"/>
    <rect class="infographic_1_cls-9" x="1005.34" y="330.44" width="72" height="72"/>
    <text class="infographic_1_cls-19" transform="translate(814.31 378.44)"><tspan x="0" y="0">$</tspan></text>
    <text class="infographic_1_cls-19" transform="translate(886.31 378.44)"><tspan x="0" y="0">$</tspan></text>
    <text class="infographic_1_cls-19" transform="translate(958.31 378.44)"><tspan x="0" y="0">$</tspan></text>
    <text class="infographic_1_cls-19" transform="translate(1030.31 378.44)"><tspan x="0" y="0">$</tspan></text>
  </g>
  <g id="Labels_Step_1" data-name="Labels Step 1">
    <g>
      <line class="infographic_1_cls-4" x1="790.34" y1="309.63" x2="816.76" y2="309.63"/>
      <line class="infographic_1_cls-4" x1="790.71" y1="300.63" x2="790.71" y2="318.63"/>
      <line class="infographic_1_cls-4" x1="1076.34" y1="309.63" x2="1051.92" y2="309.63"/>
      <line class="infographic_1_cls-4" x1="1075.97" y1="318.63" x2="1075.97" y2="300.63"/>
    </g>
    <text class="infographic_1_cls-35" transform="translate(825.29 316.44)"><tspan class="infographic_1_cls-31" x="0" y="0">C</tspan><tspan class="infographic_1_cls-23" x="13.76" y="0">ost </tspan><tspan class="infographic_1_cls-29" x="48.46" y="0">o</tspan><tspan x="59.88" y="0">f p</tspan><tspan class="infographic_1_cls-37" x="85.42" y="0">o</tspan><tspan class="infographic_1_cls-32" x="97.08" y="0">l</tspan><tspan x="102.7" y="0">es and w</tspan><tspan class="infographic_1_cls-31" x="183.48" y="0">i</tspan><tspan class="infographic_1_cls-30" x="188.44" y="0">r</tspan><tspan x="195.44" y="0">es</tspan></text>
    <g id="Layer_83" data-name="Layer 83">
      <g>
        <path class="infographic_1_cls-33" d="M69.96,89.27h-5.06v5.76h-3.3v-14h3.3v5.14h5.06v-5.14h3.3v14h-3.3v-5.76Z"/>
        <path class="infographic_1_cls-33" d="M75.38,90.03c0-3.2,2.2-5.32,5.34-5.32s5.34,2.12,5.34,5.32-2.2,5.32-5.34,5.32-5.34-2.12-5.34-5.32ZM80.72,92.45c1.22,0,2.04-.98,2.04-2.42s-.82-2.42-2.04-2.42-2.04.98-2.04,2.42.82,2.42,2.04,2.42Z"/>
        <path class="infographic_1_cls-33" d="M88,85.03h2.8v.84c.6-.84,1.4-1.16,2.42-1.16,1.18,0,2.08.52,2.6,1.44.76-1.02,1.7-1.44,2.76-1.44,2.34,0,3.74,1.52,3.74,4.1v6.22h-3.2v-5.98c0-.94-.4-1.44-1.18-1.44s-1.18.58-1.18,1.54v5.88h-3.2v-5.98c0-.94-.4-1.44-1.18-1.44-.74,0-1.18.58-1.18,1.54v5.88h-3.2v-10Z"/>
        <path class="infographic_1_cls-33" d="M104.12,89.97c0-3.18,2.04-5.26,5.04-5.26s5.02,2.02,5.02,5.26c0,.4-.02.82-.06,1.22h-6.86c.14,1,.84,1.52,2,1.52.8,0,1.28-.32,1.46-.7h3.3c-.58,2-2.12,3.34-4.78,3.34-3.1,0-5.12-2.16-5.12-5.38ZM110.96,88.79c0-.94-.6-1.56-1.8-1.56s-1.84.6-1.92,1.56h3.72Z"/>
        <path class="infographic_1_cls-33" d="M115.26,92.01h3.3c.08.58.6.8,1.44.8.72,0,1.18-.28,1.18-.74,0-.4-.38-.58-1-.64l-1.56-.16c-1.88-.2-3.04-1.42-3.04-3.16,0-2.12,1.64-3.4,4.28-3.4s4.28,1.06,4.42,3.3h-3.16c-.02-.56-.56-.76-1.3-.76-.7,0-1.14.24-1.14.66,0,.38.38.6,1.08.68l1.62.18c1.86.2,3,1.42,3,3.12,0,2.12-1.74,3.46-4.52,3.46s-4.5-1.14-4.6-3.34Z"/>
        <path class="infographic_1_cls-33" d="M131.22,81.03h3.2v4.46c.58-.5,1.4-.78,2.26-.78,2.46,0,3.98,1.62,3.98,4.22v6.1h-3.2v-5.74c0-1.12-.48-1.68-1.46-1.68s-1.58.66-1.58,1.78v5.64h-3.2v-14Z"/>
        <path class="infographic_1_cls-33" d="M142.46,89.97c0-3.18,2.04-5.26,5.04-5.26s5.02,2.02,5.02,5.26c0,.4-.02.82-.06,1.22h-6.86c.14,1,.84,1.52,2,1.52.8,0,1.28-.32,1.46-.7h3.3c-.58,2-2.12,3.34-4.78,3.34-3.1,0-5.12-2.16-5.12-5.38ZM149.3,88.79c0-.94-.6-1.56-1.8-1.56s-1.84.6-1.92,1.56h3.72Z"/>
        <path class="infographic_1_cls-33" d="M153.66,92.13c0-1.94,1.24-3.2,3.68-3.36l2.34-.14v-.4c0-.66-.34-.94-1.18-.94s-1.14.24-1.2.72h-3.16c.18-2.06,1.58-3.3,4.58-3.3,2.48,0,3.98,1.24,3.98,3.32v4.24c0,.16.08.24.24.24h.92v2.52h-2.22c-.64,0-1.08-.32-1.18-.86-.56.72-1.62,1.18-2.92,1.18-2.36,0-3.88-1.22-3.88-3.22ZM158,92.77c.88,0,1.68-.44,1.68-1.42v-.38l-1.8.18c-.68.06-1.04.44-1.04.86,0,.48.38.76,1.16.76Z"/>
        <path class="infographic_1_cls-33" d="M166.42,92.27v-4.44h-2.44v-2.8h2.44v-2.86h3.2v2.86h2.92v2.8h-2.92v3.62c0,.52.2.78.78.78h2.14v2.8h-3.36c-1.88,0-2.76-.76-2.76-2.76Z"/>
        <path class="infographic_1_cls-33" d="M173.58,89.97c0-3.18,2.04-5.26,5.04-5.26s5.02,2.02,5.02,5.26c0,.4-.02.82-.06,1.22h-6.86c.14,1,.84,1.52,2,1.52.8,0,1.28-.32,1.46-.7h3.3c-.58,2-2.12,3.34-4.78,3.34-3.1,0-5.12-2.16-5.12-5.38ZM180.42,88.79c0-.94-.6-1.56-1.8-1.56s-1.84.6-1.92,1.56h3.72Z"/>
        <path class="infographic_1_cls-33" d="M184.98,90.03c0-3.2,1.94-5.32,4.8-5.32.98,0,1.96.32,2.54.9v-4.58h3.2v14h-2.8v-.78c-.64.7-1.76,1.1-2.94,1.1-2.86,0-4.8-2.12-4.8-5.32ZM190.32,92.45c1.22,0,2.04-.98,2.04-2.42s-.82-2.42-2.04-2.42-2.04.98-2.04,2.42.82,2.42,2.04,2.42Z"/>
        <path class="infographic_1_cls-33" d="M60.2,109.03h3.32l1.46,6.4,1.48-6.4h3.68l1.48,6.4,1.46-6.4h3.32l-2.82,10h-3.8l-1.48-6.36-1.48,6.36h-3.8l-2.82-10Z"/>
        <path class="infographic_1_cls-33" d="M77.84,105.03h3.32v2.72h-3.32v-2.72ZM77.9,109.03h3.2v10h-3.2v-10Z"/>
        <path class="infographic_1_cls-33" d="M85,116.27v-4.44h-2.44v-2.8h2.44v-2.86h3.2v2.86h2.92v2.8h-2.92v3.62c0,.52.2.78.78.78h2.14v2.8h-3.36c-1.88,0-2.76-.76-2.76-2.76Z"/>
        <path class="infographic_1_cls-33" d="M92.92,105.03h3.2v4.46c.58-.5,1.4-.78,2.26-.78,2.46,0,3.98,1.62,3.98,4.22v6.1h-3.2v-5.74c0-1.12-.48-1.68-1.46-1.68s-1.58.66-1.58,1.78v5.64h-3.2v-14Z"/>
        <path class="infographic_1_cls-36" d="M108.66,120.05c0-.8.4-1.52,1.2-1.98-.52-.4-.82-.98-.82-1.62,0-.74.38-1.56,1.52-1.98-.76-.6-1.14-1.44-1.14-2.34,0-1.88,1.46-3.42,4.2-3.42,1.54,0,2.98.74,3.48,1.84v-.26c0-1.04.76-1.26,1.3-1.26h1.5v2.8h-1.78c-.14,0-.3.1-.3.36v.22c0,2.16-1.7,3.42-4,3.42h-1.54c-.36,0-.54.18-.54.46s.18.48.54.48h3.32c2.26,0,3.42,1.06,3.42,2.76s-.98,3.1-3.42,3.1h-3.72c-2.34,0-3.22-1.26-3.22-2.58ZM112.36,120.29h2.98c.4,0,.68-.24.68-.6s-.28-.58-.68-.58h-2.98c-.42,0-.7.2-.7.58s.28.6.7.6ZM113.62,113.43c.74,0,1.22-.46,1.22-1.16s-.5-1.16-1.22-1.16-1.22.46-1.22,1.16.5,1.16,1.22,1.16Z"/>
        <path class="infographic_1_cls-36" d="M120.5,116.13c0-1.94,1.24-3.2,3.68-3.36l2.34-.14v-.4c0-.66-.34-.94-1.18-.94s-1.14.24-1.2.72h-3.16c.18-2.06,1.58-3.3,4.58-3.3,2.48,0,3.98,1.24,3.98,3.32v4.24c0,.16.08.24.24.24h.92v2.52h-2.22c-.64,0-1.08-.32-1.18-.86-.56.72-1.62,1.18-2.92,1.18-2.36,0-3.88-1.22-3.88-3.22ZM124.84,116.77c.88,0,1.68-.44,1.68-1.42v-.38l-1.8.18c-.68.06-1.04.44-1.04.86,0,.48.38.76,1.16.76Z"/>
        <path class="infographic_1_cls-36" d="M131.52,116.01h3.3c.08.58.6.8,1.44.8.72,0,1.18-.28,1.18-.74,0-.4-.38-.58-1-.64l-1.56-.16c-1.88-.2-3.04-1.42-3.04-3.16,0-2.12,1.64-3.4,4.28-3.4s4.28,1.06,4.42,3.3h-3.16c-.02-.56-.56-.76-1.3-.76-.7,0-1.14.24-1.14.66,0,.38.38.6,1.08.68l1.62.18c1.86.2,3,1.42,3,3.12,0,2.12-1.74,3.46-4.52,3.46s-4.5-1.14-4.6-3.34Z"/>
      </g>
      <text class="infographic_1_cls-34" transform="translate(61.55 58.17)"><tspan class="infographic_1_cls-27" x="0" y="0">T</tspan><tspan class="infographic_1_cls-22" x="14.46" y="0">od</tspan><tspan class="infographic_1_cls-29" x="50.25" y="0">a</tspan><tspan x="65.73" y="0">y</tspan></text>
      <g>
        <path class="infographic_1_cls-17" d="M670.72,134.79h-6.98v6.42h-2v-14h2v5.7h6.98v-5.7h2v14h-2v-6.42Z"/>
        <path class="infographic_1_cls-17" d="M675.28,136.39c0-3.04,2.04-5.08,4.96-5.08s4.96,2.04,4.96,5.08-2.02,5.1-4.96,5.1-4.96-2.04-4.96-5.1ZM680.24,139.73c1.78,0,2.96-1.34,2.96-3.34s-1.18-3.32-2.96-3.32-2.96,1.34-2.96,3.32,1.2,3.34,2.96,3.34Z"/>
        <path class="infographic_1_cls-17" d="M687.62,131.59h1.72v1.18c.56-1,1.44-1.46,2.62-1.46,1.32,0,2.3.64,2.76,1.72.62-1.16,1.62-1.72,2.88-1.72,2.22,0,3.44,1.34,3.44,3.74v6.16h-1.92v-6.06c0-1.34-.64-2.08-1.86-2.08-1.14,0-1.96.88-1.96,2.14v6h-1.94v-6.06c0-1.34-.64-2.08-1.82-2.08s-1.98.88-1.98,2.14v6h-1.94v-9.62Z"/>
        <path class="infographic_1_cls-17" d="M703.3,136.35c0-3.1,1.92-5.04,4.66-5.04s4.62,1.86,4.62,4.8c0,.26-.02.52-.06.92h-7.3c.08,1.76,1.16,2.82,2.88,2.82,1.14,0,1.94-.52,2.32-1.38h1.98c-.6,1.86-2.08,3.02-4.3,3.02-2.88,0-4.8-2.02-4.8-5.14ZM710.62,135.51v-.1c0-1.48-.96-2.54-2.66-2.54s-2.66,1.08-2.74,2.64h5.4Z"/>
        <path class="infographic_1_cls-17" d="M714.02,138.47h2c.1.96.88,1.44,2.28,1.44,1.28,0,2.06-.54,2.06-1.42,0-.72-.54-1.14-1.54-1.24l-1.54-.16c-1.8-.18-2.94-1.18-2.94-2.78,0-1.84,1.54-3,3.9-3s3.88,1,4,2.96h-1.94c-.06-.92-.82-1.38-2.08-1.38s-1.96.5-1.96,1.32c0,.7.52,1.08,1.64,1.22l1.56.18c1.82.2,2.86,1.22,2.86,2.8,0,1.88-1.58,3.08-4.06,3.08-2.6,0-4.14-1.04-4.24-3.02Z"/>
        <path class="infographic_1_cls-17" d="M729.72,131.59h1.72v1.36c.62-1.04,1.84-1.64,3.34-1.64,2.74,0,4.62,2.04,4.62,5.08s-1.88,5.1-4.62,5.1c-1.38,0-2.5-.52-3.12-1.46v4.78h-1.94v-13.22ZM734.5,139.73c1.74,0,2.9-1.34,2.9-3.34s-1.16-3.32-2.9-3.32-2.88,1.34-2.88,3.32,1.14,3.34,2.88,3.34Z"/>
        <path class="infographic_1_cls-17" d="M741.02,138.49c0-1.72,1.16-2.96,3.52-3.1l2.92-.16v-.54c0-1.26-.62-1.78-1.94-1.78s-1.92.34-2.08,1.36h-1.94c.22-1.98,1.58-2.96,4.16-2.96,2.3,0,3.64,1.16,3.64,3.28v4.7c0,.22.1.32.32.32h.82v1.6h-1.56c-.66,0-1.04-.36-1.04-1v-.28c-.56.98-1.7,1.56-3.2,1.56-2.22,0-3.62-1.16-3.62-3ZM744.86,139.89c1.56,0,2.6-.9,2.6-2.54v-.62l-2.68.2c-1.24.08-1.82.72-1.82,1.5,0,.88.72,1.46,1.9,1.46Z"/>
        <path class="infographic_1_cls-17" d="M751.18,143.07h1.72c.66,0,.96-.2,1.18-.7l.84-1.82-4.04-8.96h2.22l2.84,6.78,2.84-6.78h2.18l-5.28,11.74c-.44,1-1,1.48-2.34,1.48h-2.16v-1.74Z"/>
        <path class="infographic_1_cls-17" d="M769,138.89v-5.6h-2.52v-1.7h2.52v-2.88h1.94v2.88h3.02v1.7h-3.02v5.22c0,.7.28,1,1.02,1h2v1.7h-2.58c-1.66,0-2.38-.66-2.38-2.32Z"/>
        <path class="infographic_1_cls-17" d="M776.02,127.21h1.94v5.32c.64-.82,1.66-1.22,2.82-1.22,2.36,0,3.84,1.44,3.84,4.1v5.8h-1.94v-5.62c0-1.72-.84-2.52-2.26-2.52s-2.46,1.02-2.46,2.58v5.56h-1.94v-14Z"/>
        <path class="infographic_1_cls-17" d="M786.88,136.35c0-3.1,1.92-5.04,4.66-5.04s4.62,1.86,4.62,4.8c0,.26-.02.52-.06.92h-7.3c.08,1.76,1.16,2.82,2.88,2.82,1.14,0,1.94-.52,2.32-1.38h1.98c-.6,1.86-2.08,3.02-4.3,3.02-2.88,0-4.8-2.02-4.8-5.14ZM794.2,135.51v-.1c0-1.48-.96-2.54-2.66-2.54s-2.66,1.08-2.74,2.64h5.4Z"/>
        <path class="infographic_1_cls-17" d="M660.6,162.47h2c.1.96.88,1.44,2.28,1.44,1.28,0,2.06-.54,2.06-1.42,0-.72-.54-1.14-1.54-1.24l-1.54-.16c-1.8-.18-2.94-1.18-2.94-2.78,0-1.84,1.54-3,3.9-3s3.88,1,4,2.96h-1.94c-.06-.92-.82-1.38-2.08-1.38s-1.96.5-1.96,1.32c0,.7.52,1.08,1.64,1.22l1.56.18c1.82.2,2.86,1.22,2.86,2.8,0,1.88-1.58,3.08-4.06,3.08-2.6,0-4.14-1.04-4.24-3.02Z"/>
        <path class="infographic_1_cls-17" d="M670.52,162.49c0-1.72,1.16-2.96,3.52-3.1l2.92-.16v-.54c0-1.26-.62-1.78-1.94-1.78s-1.92.34-2.08,1.36h-1.94c.22-1.98,1.58-2.96,4.16-2.96,2.3,0,3.64,1.16,3.64,3.28v4.7c0,.22.1.32.32.32h.82v1.6h-1.56c-.66,0-1.04-.36-1.04-1v-.28c-.56.98-1.7,1.56-3.2,1.56-2.22,0-3.62-1.16-3.62-3ZM674.36,163.89c1.56,0,2.6-.9,2.6-2.54v-.62l-2.68.2c-1.24.08-1.82.72-1.82,1.5,0,.88.72,1.46,1.9,1.46Z"/>
        <path class="infographic_1_cls-17" d="M681.98,155.59h1.72v1.18c.56-1,1.44-1.46,2.62-1.46,1.32,0,2.3.64,2.76,1.72.62-1.16,1.62-1.72,2.88-1.72,2.22,0,3.44,1.34,3.44,3.74v6.16h-1.92v-6.06c0-1.34-.64-2.08-1.86-2.08-1.14,0-1.96.88-1.96,2.14v6h-1.94v-6.06c0-1.34-.64-2.08-1.82-2.08s-1.98.88-1.98,2.14v6h-1.94v-9.62Z"/>
        <path class="infographic_1_cls-17" d="M697.66,160.35c0-3.1,1.92-5.04,4.66-5.04s4.62,1.86,4.62,4.8c0,.26-.02.52-.06.92h-7.3c.08,1.76,1.16,2.82,2.88,2.82,1.14,0,1.94-.52,2.32-1.38h1.98c-.6,1.86-2.08,3.02-4.3,3.02-2.88,0-4.8-2.02-4.8-5.14ZM704.98,159.51v-.1c0-1.48-.96-2.54-2.66-2.54s-2.66,1.08-2.74,2.64h5.4Z"/>
        <path class="infographic_1_cls-17" d="M713.54,162.49c0-1.72,1.16-2.96,3.52-3.1l2.92-.16v-.54c0-1.26-.62-1.78-1.94-1.78s-1.92.34-2.08,1.36h-1.94c.22-1.98,1.58-2.96,4.16-2.96,2.3,0,3.64,1.16,3.64,3.28v4.7c0,.22.1.32.32.32h.82v1.6h-1.56c-.66,0-1.04-.36-1.04-1v-.28c-.56.98-1.7,1.56-3.2,1.56-2.22,0-3.62-1.16-3.62-3ZM717.38,163.89c1.56,0,2.6-.9,2.6-2.54v-.62l-2.68.2c-1.24.08-1.82.72-1.82,1.5,0,.88.72,1.46,1.9,1.46Z"/>
        <path class="infographic_1_cls-17" d="M725,155.59h1.72v1.18c.56-1,1.44-1.46,2.62-1.46,1.32,0,2.3.64,2.76,1.72.62-1.16,1.62-1.72,2.88-1.72,2.22,0,3.44,1.34,3.44,3.74v6.16h-1.92v-6.06c0-1.34-.64-2.08-1.86-2.08-1.14,0-1.96.88-1.96,2.14v6h-1.94v-6.06c0-1.34-.64-2.08-1.82-2.08s-1.98.88-1.98,2.14v6h-1.94v-9.62Z"/>
        <path class="infographic_1_cls-17" d="M740.68,160.39c0-3.04,2.04-5.08,4.96-5.08s4.96,2.04,4.96,5.08-2.02,5.1-4.96,5.1-4.96-2.04-4.96-5.1ZM745.64,163.73c1.78,0,2.96-1.34,2.96-3.34s-1.18-3.32-2.96-3.32-2.96,1.34-2.96,3.32,1.2,3.34,2.96,3.34Z"/>
        <path class="infographic_1_cls-17" d="M752.84,161.39v-5.8h1.94v5.62c0,1.72.8,2.52,2.2,2.52s2.4-1.04,2.4-2.58v-5.56h1.94v9.62h-1.72v-1.1c-.64.94-1.74,1.38-2.98,1.38-2.34,0-3.78-1.44-3.78-4.1Z"/>
        <path class="infographic_1_cls-17" d="M764.28,155.59h1.72v1.26c.58-1.04,1.74-1.54,3.04-1.54,2.36,0,3.84,1.44,3.84,4.1v5.8h-1.94v-5.62c0-1.72-.84-2.52-2.26-2.52s-2.46,1.02-2.46,2.58v5.56h-1.94v-9.62Z"/>
        <path class="infographic_1_cls-17" d="M776.7,162.89v-5.6h-2.52v-1.7h2.52v-2.88h1.94v2.88h3.02v1.7h-3.02v5.22c0,.7.28,1,1.02,1h2v1.7h-2.58c-1.66,0-2.38-.66-2.38-2.32Z"/>
        <path class="infographic_1_cls-17" d="M792.68,151.21h3.12v1.7h-2.72c-.7,0-1.12.36-1.12,1.12v1.56h3.24v1.7h-3.24v7.92h-1.92v-7.92h-2.54v-1.7h2.54v-1.76c0-1.68.98-2.62,2.64-2.62Z"/>
        <path class="infographic_1_cls-17" d="M795.86,160.39c0-3.04,2.04-5.08,4.96-5.08s4.96,2.04,4.96,5.08-2.02,5.1-4.96,5.1-4.96-2.04-4.96-5.1ZM800.82,163.73c1.78,0,2.96-1.34,2.96-3.34s-1.18-3.32-2.96-3.32-2.96,1.34-2.96,3.32,1.2,3.34,2.96,3.34Z"/>
        <path class="infographic_1_cls-17" d="M808.2,155.59h1.72v1.56c.24-.96.96-1.56,2.1-1.56h1.84v1.7h-2.02c-1.2,0-1.7.68-1.7,1.98v5.94h-1.94v-9.62Z"/>
        <path class="infographic_1_cls-17" d="M660.84,184.35c0-3.1,1.92-5.04,4.66-5.04s4.62,1.86,4.62,4.8c0,.26-.02.52-.06.92h-7.3c.08,1.76,1.16,2.82,2.88,2.82,1.14,0,1.94-.52,2.32-1.38h1.98c-.6,1.86-2.08,3.02-4.3,3.02-2.88,0-4.8-2.02-4.8-5.14ZM668.16,183.51v-.1c0-1.48-.96-2.54-2.66-2.54s-2.66,1.08-2.74,2.64h5.4Z"/>
        <path class="infographic_1_cls-17" d="M672.44,187.39v-12.18h1.94v11.58c0,.5.18.72.68.72h1.22v1.7h-1.9c-1.36,0-1.94-.52-1.94-1.82Z"/>
        <path class="infographic_1_cls-17" d="M677.4,184.35c0-3.1,1.92-5.04,4.66-5.04s4.62,1.86,4.62,4.8c0,.26-.02.52-.06.92h-7.3c.08,1.76,1.16,2.82,2.88,2.82,1.14,0,1.94-.52,2.32-1.38h1.98c-.6,1.86-2.08,3.02-4.3,3.02-2.88,0-4.8-2.02-4.8-5.14ZM684.72,183.51v-.1c0-1.48-.96-2.54-2.66-2.54s-2.66,1.08-2.74,2.64h5.4Z"/>
        <path class="infographic_1_cls-17" d="M688.36,184.43c0-3,1.96-5.12,4.86-5.12,2.44,0,4.1,1.42,4.32,3.44h-1.98c-.18-.9-.98-1.68-2.36-1.68-1.72,0-2.84,1.3-2.84,3.32s1.14,3.34,2.8,3.34c1.3,0,2.24-.76,2.44-1.88h1.98c-.26,1.92-1.86,3.64-4.48,3.64-2.88,0-4.74-2.14-4.74-5.06Z"/>
        <path class="infographic_1_cls-17" d="M700.82,186.89v-5.6h-2.52v-1.7h2.52v-2.88h1.94v2.88h3.02v1.7h-3.02v5.22c0,.7.28,1,1.02,1h2v1.7h-2.58c-1.66,0-2.38-.66-2.38-2.32Z"/>
        <path class="infographic_1_cls-17" d="M707.84,179.59h1.72v1.56c.24-.96.96-1.56,2.1-1.56h1.84v1.7h-2.02c-1.2,0-1.7.68-1.7,1.98v5.94h-1.94v-9.62Z"/>
        <path class="infographic_1_cls-17" d="M715.02,175.35h2.16v2.3h-2.16v-2.3ZM715.14,179.59h1.94v9.62h-1.94v-9.62Z"/>
        <path class="infographic_1_cls-17" d="M719.48,184.43c0-3,1.96-5.12,4.86-5.12,2.44,0,4.1,1.42,4.32,3.44h-1.98c-.18-.9-.98-1.68-2.36-1.68-1.72,0-2.84,1.3-2.84,3.32s1.14,3.34,2.8,3.34c1.3,0,2.24-.76,2.44-1.88h1.98c-.26,1.92-1.86,3.64-4.48,3.64-2.88,0-4.74-2.14-4.74-5.06Z"/>
        <path class="infographic_1_cls-17" d="M730.56,175.35h2.16v2.3h-2.16v-2.3ZM730.68,179.59h1.94v9.62h-1.94v-9.62Z"/>
        <path class="infographic_1_cls-17" d="M736.88,186.89v-5.6h-2.52v-1.7h2.52v-2.88h1.94v2.88h3.02v1.7h-3.02v5.22c0,.7.28,1,1.02,1h2v1.7h-2.58c-1.66,0-2.38-.66-2.38-2.32Z"/>
        <path class="infographic_1_cls-17" d="M742.94,191.07h1.72c.66,0,.96-.2,1.18-.7l.84-1.82-4.04-8.96h2.22l2.84,6.78,2.84-6.78h2.18l-5.28,11.74c-.44,1-1,1.48-2.34,1.48h-2.16v-1.74Z"/>
        <path class="infographic_1_cls-17" d="M758.98,184.39c0-3.04,1.88-5.08,4.62-5.08,1.4,0,2.54.52,3.14,1.46v-5.56h1.92v14h-1.72v-1.34c-.64,1.02-1.84,1.62-3.34,1.62-2.74,0-4.62-2.04-4.62-5.1ZM763.9,187.73c1.74,0,2.88-1.34,2.88-3.34s-1.14-3.32-2.88-3.32-2.92,1.34-2.92,3.32,1.18,3.34,2.92,3.34Z"/>
        <path class="infographic_1_cls-17" d="M771.1,184.35c0-3.1,1.92-5.04,4.66-5.04s4.62,1.86,4.62,4.8c0,.26-.02.52-.06.92h-7.3c.08,1.76,1.16,2.82,2.88,2.82,1.14,0,1.94-.52,2.32-1.38h1.98c-.6,1.86-2.08,3.02-4.3,3.02-2.88,0-4.8-2.02-4.8-5.14ZM778.42,183.51v-.1c0-1.48-.96-2.54-2.66-2.54s-2.66,1.08-2.74,2.64h5.4Z"/>
        <path class="infographic_1_cls-17" d="M782.7,187.39v-12.18h1.94v11.58c0,.5.18.72.68.72h1.22v1.7h-1.9c-1.36,0-1.94-.52-1.94-1.82Z"/>
        <path class="infographic_1_cls-17" d="M788.4,175.35h2.16v2.3h-2.16v-2.3ZM788.52,179.59h1.94v9.62h-1.94v-9.62Z"/>
        <path class="infographic_1_cls-17" d="M792.18,179.59h2.16l2.96,7.54,2.94-7.54h2.16l-4.02,9.62h-2.2l-4-9.62Z"/>
        <path class="infographic_1_cls-17" d="M803.2,184.35c0-3.1,1.92-5.04,4.66-5.04s4.62,1.86,4.62,4.8c0,.26-.02.52-.06.92h-7.3c.08,1.76,1.16,2.82,2.88,2.82,1.14,0,1.94-.52,2.32-1.38h1.98c-.6,1.86-2.08,3.02-4.3,3.02-2.88,0-4.8-2.02-4.8-5.14ZM810.52,183.51v-.1c0-1.48-.96-2.54-2.66-2.54s-2.66,1.08-2.74,2.64h5.4Z"/>
        <path class="infographic_1_cls-17" d="M814.82,179.59h1.72v1.56c.24-.96.96-1.56,2.1-1.56h1.84v1.7h-2.02c-1.2,0-1.7.68-1.7,1.98v5.94h-1.94v-9.62Z"/>
        <path class="infographic_1_cls-17" d="M821.46,191.07h1.72c.66,0,.96-.2,1.18-.7l.84-1.82-4.04-8.96h2.22l2.84,6.78,2.84-6.78h2.18l-5.28,11.74c-.44,1-1,1.48-2.34,1.48h-2.16v-1.74Z"/>
      </g>
    </g>
  </g>
</svg>
