<svg xmlns:xlink="http://www.w3.org/1999/xlink" xmlns="http://www.w3.org/2000/svg" width="1002.24pt" height="354.24pt" viewBox="0 0 1002.24 354.24" version="1.1">
 <metadata>
  <rdf:RDF xmlns:dc="http://purl.org/dc/elements/1.1/" xmlns:cc="http://creativecommons.org/ns#" xmlns:rdf="http://www.w3.org/1999/02/22-rdf-syntax-ns#">
   <cc:Work>
    <dc:type rdf:resource="http://purl.org/dc/dcmitype/StillImage"/>
    <dc:date>2026-04-14T05:05:26.539969</dc:date>
    <dc:format>image/svg+xml</dc:format>
    <dc:creator>
     <cc:Agent>
      <dc:title>Matplotlib v3.10.8, https://matplotlib.org/</dc:title>
     </cc:Agent>
    </dc:creator>
   </cc:Work>
  </rdf:RDF>
 </metadata>
 <defs>
  <style type="text/css">*{stroke-linejoin: round; stroke-linecap: butt}</style>
 </defs>
 <g id="figure_1">
  <g id="patch_1">
   <path d="M 0 354.24  L 1002.24 354.24  L 1002.24 0  L 0 0  z " style="fill: #ffffff"/>
  </g>
  <g id="axes_1">
   <g id="patch_2">
    <path d="M 56.462813 331.75  L 995.04 331.75  L 995.04 7.2  L 56.462813 7.2  z " style="fill: #ffffff"/>
   </g>
   <g id="matplotlib.axis_1">
    <g id="xtick_1">
     <g id="line2d_1">
      <path d="M 96.002344 331.75  " style="fill: none; stroke: #000000; stroke-width: 1.5; stroke-linecap: square"/>
      <defs>
       <path id="mb5f1cac228" d="M 0 0  L 0 2.75  " style="stroke: #000000"/>
      </defs>
      <g>
       <use xlink:href="#mb5f1cac228" x="96.002344" y="331.75" style="stroke: #000000"/>
      </g>
     </g>
     <g id="text_1">
      <text style="font-size: 11px; font-family: 'IBM Plex Sans'; text-anchor: middle; fill: #4d4d4d" x="96.002344" y="344.84" transform="rotate(-0 96.002344 344.84)">Jan</text>
     </g>
    </g>
    <g id="xtick_2">
     <g id="line2d_2">
      <path d="M 163.132279 331.75  " style="fill: none; stroke: #000000; stroke-width: 1.5; stroke-linecap: square"/>
      <g>
       <use xlink:href="#mb5f1cac228" x="163.132279" y="331.75" style="stroke: #000000"/>
      </g>
     </g>
     <g id="text_2">
      <text style="font-size: 11px; font-family: 'IBM Plex Sans'; text-anchor: middle; fill: #4d4d4d" x="163.132279" y="344.84" transform="rotate(-0 163.132279 344.84)">Feb</text>
     </g>
    </g>
    <g id="xtick_3">
     <g id="line2d_3">
      <path d="M 230.262214 331.75  " style="fill: none; stroke: #000000; stroke-width: 1.5; stroke-linecap: square"/>
      <g>
       <use xlink:href="#mb5f1cac228" x="230.262214" y="331.75" style="stroke: #000000"/>
      </g>
     </g>
     <g id="text_3">
      <text style="font-size: 11px; font-family: 'IBM Plex Sans'; text-anchor: middle; fill: #4d4d4d" x="230.262214" y="344.84" transform="rotate(-0 230.262214 344.84)">Mar</text>
     </g>
    </g>
    <g id="xtick_4">
     <g id="line2d_4">
      <path d="M 297.39215 331.75  " style="fill: none; stroke: #000000; stroke-width: 1.5; stroke-linecap: square"/>
      <g>
       <use xlink:href="#mb5f1cac228" x="297.39215" y="331.75" style="stroke: #000000"/>
      </g>
     </g>
     <g id="text_4">
      <text style="font-size: 11px; font-family: 'IBM Plex Sans'; text-anchor: middle; fill: #4d4d4d" x="297.39215" y="344.84" transform="rotate(-0 297.39215 344.84)">Apr</text>
     </g>
    </g>
    <g id="xtick_5">
     <g id="line2d_5">
      <path d="M 364.522085 331.75  " style="fill: none; stroke: #000000; stroke-width: 1.5; stroke-linecap: square"/>
      <g>
       <use xlink:href="#mb5f1cac228" x="364.522085" y="331.75" style="stroke: #000000"/>
      </g>
     </g>
     <g id="text_5">
      <text style="font-size: 11px; font-family: 'IBM Plex Sans'; text-anchor: middle; fill: #4d4d4d" x="364.522085" y="344.84" transform="rotate(-0 364.522085 344.84)">May</text>
     </g>
    </g>
    <g id="xtick_6">
     <g id="line2d_6">
      <path d="M 431.65202 331.75  " style="fill: none; stroke: #000000; stroke-width: 1.5; stroke-linecap: square"/>
      <g>
       <use xlink:href="#mb5f1cac228" x="431.65202" y="331.75" style="stroke: #000000"/>
      </g>
     </g>
     <g id="text_6">
      <text style="font-size: 11px; font-family: 'IBM Plex Sans'; text-anchor: middle; fill: #4d4d4d" x="431.65202" y="344.84" transform="rotate(-0 431.65202 344.84)">Jun</text>
     </g>
    </g>
    <g id="xtick_7">
     <g id="line2d_7">
      <path d="M 498.781955 331.75  " style="fill: none; stroke: #000000; stroke-width: 1.5; stroke-linecap: square"/>
      <g>
       <use xlink:href="#mb5f1cac228" x="498.781955" y="331.75" style="stroke: #000000"/>
      </g>
     </g>
     <g id="text_7">
      <text style="font-size: 11px; font-family: 'IBM Plex Sans'; text-anchor: middle; fill: #4d4d4d" x="498.781955" y="344.84" transform="rotate(-0 498.781955 344.84)">Jul</text>
     </g>
    </g>
    <g id="xtick_8">
     <g id="line2d_8">
      <path d="M 565.91189 331.75  " style="fill: none; stroke: #000000; stroke-width: 1.5; stroke-linecap: square"/>
      <g>
       <use xlink:href="#mb5f1cac228" x="565.91189" y="331.75" style="stroke: #000000"/>
      </g>
     </g>
     <g id="text_8">
      <text style="font-size: 11px; font-family: 'IBM Plex Sans'; text-anchor: middle; fill: #4d4d4d" x="565.91189" y="344.707656" transform="rotate(-0 565.91189 344.707656)">Aug</text>
     </g>
    </g>
    <g id="xtick_9">
     <g id="line2d_9">
      <path d="M 633.041825 331.75  " style="fill: none; stroke: #000000; stroke-width: 1.5; stroke-linecap: square"/>
      <g>
       <use xlink:href="#mb5f1cac228" x="633.041825" y="331.75" style="stroke: #000000"/>
      </g>
     </g>
     <g id="text_9">
      <text style="font-size: 11px; font-family: 'IBM Plex Sans'; text-anchor: middle; fill: #4d4d4d" x="633.041825" y="344.84" transform="rotate(-0 633.041825 344.84)">Sep</text>
     </g>
    </g>
    <g id="xtick_10">
     <g id="line2d_10">
      <path d="M 700.17176 331.75  " style="fill: none; stroke: #000000; stroke-width: 1.5; stroke-linecap: square"/>
      <g>
       <use xlink:href="#mb5f1cac228" x="700.17176" y="331.75" style="stroke: #000000"/>
      </g>
     </g>
     <g id="text_10">
      <text style="font-size: 11px; font-family: 'IBM Plex Sans'; text-anchor: middle; fill: #4d4d4d" x="700.17176" y="344.84" transform="rotate(-0 700.17176 344.84)">Oct</text>
     </g>
    </g>
    <g id="xtick_11">
     <g id="line2d_11">
      <path d="M 767.301695 331.75  " style="fill: none; stroke: #000000; stroke-width: 1.5; stroke-linecap: square"/>
      <g>
       <use xlink:href="#mb5f1cac228" x="767.301695" y="331.75" style="stroke: #000000"/>
      </g>
     </g>
     <g id="text_11">
      <text style="font-size: 11px; font-family: 'IBM Plex Sans'; text-anchor: middle; fill: #4d4d4d" x="767.301695" y="344.84" transform="rotate(-0 767.301695 344.84)">Nov</text>
     </g>
    </g>
    <g id="xtick_12">
     <g id="line2d_12">
      <path d="M 834.43163 331.75  " style="fill: none; stroke: #000000; stroke-width: 1.5; stroke-linecap: square"/>
      <g>
       <use xlink:href="#mb5f1cac228" x="834.43163" y="331.75" style="stroke: #000000"/>
      </g>
     </g>
     <g id="text_12">
      <text style="font-size: 11px; font-family: 'IBM Plex Sans'; text-anchor: middle; fill: #4d4d4d" x="834.43163" y="344.84" transform="rotate(-0 834.43163 344.84)">Dec</text>
     </g>
    </g>
   </g>
   <g id="matplotlib.axis_2">
    <g id="ytick_1">
     <g id="line2d_13">
      <path d="M 56.462813 331.75  L 995.04 331.75  " clip-path="url(#pb2af210f99)" style="fill: none; stroke: #e5e5e5; stroke-linecap: square"/>
     </g>
     <g id="text_13">
      <text style="font-size: 11px; font-family: 'IBM Plex Sans'; text-anchor: start; fill: #4d4d4d" x="47.662813" y="335.82" transform="rotate(-0 47.662813 335.82)">0</text>
     </g>
    </g>
    <g id="ytick_2">
     <g id="line2d_14">
      <path d="M 56.462813 257.039507  L 995.04 257.039507  " clip-path="url(#pb2af210f99)" style="fill: none; stroke: #e5e5e5; stroke-linecap: square"/>
     </g>
     <g id="text_14">
      <text style="font-size: 11px; font-family: 'IBM Plex Sans'; text-anchor: start; fill: #4d4d4d" x="34.462813" y="261.109507" transform="rotate(-0 34.462813 261.109507)">500</text>
     </g>
    </g>
    <g id="ytick_3">
     <g id="line2d_15">
      <path d="M 56.462813 182.329015  L 995.04 182.329015  " clip-path="url(#pb2af210f99)" style="fill: none; stroke: #e5e5e5; stroke-linecap: square"/>
     </g>
     <g id="text_15">
      <text style="font-size: 11px; font-family: 'IBM Plex Sans'; text-anchor: start; fill: #4d4d4d" x="27.862813" y="186.399015" transform="rotate(-0 27.862813 186.399015)">1000</text>
     </g>
    </g>
    <g id="ytick_4">
     <g id="line2d_16">
      <path d="M 56.462813 107.618522  L 995.04 107.618522  " clip-path="url(#pb2af210f99)" style="fill: none; stroke: #e5e5e5; stroke-linecap: square"/>
     </g>
     <g id="text_16">
      <text style="font-size: 11px; font-family: 'IBM Plex Sans'; text-anchor: start; fill: #4d4d4d" x="27.862813" y="111.688522" transform="rotate(-0 27.862813 111.688522)">1500</text>
     </g>
    </g>
    <g id="ytick_5">
     <g id="line2d_17">
      <path d="M 56.462813 32.90803  L 995.04 32.90803  " clip-path="url(#pb2af210f99)" style="fill: none; stroke: #e5e5e5; stroke-linecap: square"/>
     </g>
     <g id="text_17">
      <text style="font-size: 11px; font-family: 'IBM Plex Sans'; text-anchor: start; fill: #4d4d4d" x="27.862813" y="36.97803" transform="rotate(-0 27.862813 36.97803)">2000</text>
     </g>
    </g>
    <g id="ytick_6">
     <g id="line2d_18">
      <path d="M 56.462813 294.394754  L 995.04 294.394754  " clip-path="url(#pb2af210f99)" style="fill: none; stroke: #fafafa; stroke-width: 0.5; stroke-linecap: square"/>
     </g>
    </g>
    <g id="ytick_7">
     <g id="line2d_19">
      <path d="M 56.462813 219.684261  L 995.04 219.684261  " clip-path="url(#pb2af210f99)" style="fill: none; stroke: #fafafa; stroke-width: 0.5; stroke-linecap: square"/>
     </g>
    </g>
    <g id="ytick_8">
     <g id="line2d_20">
      <path d="M 56.462813 144.973769  L 995.04 144.973769  " clip-path="url(#pb2af210f99)" style="fill: none; stroke: #fafafa; stroke-width: 0.5; stroke-linecap: square"/>
     </g>
    </g>
    <g id="ytick_9">
     <g id="line2d_21">
      <path d="M 56.462813 70.263276  L 995.04 70.263276  " clip-path="url(#pb2af210f99)" style="fill: none; stroke: #fafafa; stroke-width: 0.5; stroke-linecap: square"/>
     </g>
    </g>
   </g>
   <g id="PolyCollection_1">
    <path d="M 72.506867 331.75  L 72.506867 259.25049  L 119.497822 259.25049  L 119.497822 331.75  z " clip-path="url(#pb2af210f99)" style="fill: #c8a200"/>
    <path d="M 72.506867 259.25049  L 72.506867 259.25049  L 119.497822 259.25049  L 119.497822 259.25049  z " clip-path="url(#pb2af210f99)" style="fill: #c8a200; fill-opacity: 0.35"/>
    <path d="M 72.506867 259.25049  L 72.506867 22.654762  L 119.497822 22.654762  L 119.497822 259.25049  z " clip-path="url(#pb2af210f99)" style="fill: #ffc729"/>
    <path d="M 139.636802 331.75  L 139.636802 274.159716  L 186.627757 274.159716  L 186.627757 331.75  z " clip-path="url(#pb2af210f99)" style="fill: #c8a200"/>
    <path d="M 139.636802 274.159716  L 139.636802 274.159716  L 186.627757 274.159716  L 186.627757 274.159716  z " clip-path="url(#pb2af210f99)" style="fill: #c8a200; fill-opacity: 0.35"/>
    <path d="M 139.636802 274.159716  L 139.636802 153.957407  L 186.627757 153.957407  L 186.627757 274.159716  z " clip-path="url(#pb2af210f99)" style="fill: #ffc729"/>
    <path d="M 206.766737 331.75  L 206.766737 259.405888  L 253.757692 259.405888  L 253.757692 331.75  z " clip-path="url(#pb2af210f99)" style="fill: #c8a200"/>
    <path d="M 206.766737 259.405888  L 206.766737 259.405888  L 253.757692 259.405888  L 253.757692 259.405888  z " clip-path="url(#pb2af210f99)" style="fill: #c8a200; fill-opacity: 0.35"/>
    <path d="M 206.766737 259.405888  L 206.766737 126.169138  L 253.757692 126.169138  L 253.757692 259.405888  z " clip-path="url(#pb2af210f99)" style="fill: #ffc729"/>
    <path d="M 273.896672 331.75  L 273.896672 264.652955  L 320.887627 264.652955  L 320.887627 331.75  z " clip-path="url(#pb2af210f99)" style="fill: #c8a200"/>
    <path d="M 273.896672 264.652955  L 273.896672 264.652955  L 320.887627 264.652955  L 320.887627 264.652955  z " clip-path="url(#pb2af210f99)" style="fill: #c8a200; fill-opacity: 0.35"/>
    <path d="M 273.896672 264.652955  L 273.896672 190.10832  L 320.887627 190.10832  L 320.887627 264.652955  z " clip-path="url(#pb2af210f99)" style="fill: #ffc729"/>
    <path d="M 341.026607 331.75  L 341.026607 271.397071  L 388.017562 271.397071  L 388.017562 331.75  z " clip-path="url(#pb2af210f99)" style="fill: #c8a200"/>
    <path d="M 341.026607 271.397071  L 341.026607 271.397071  L 388.017562 271.397071  L 388.017562 271.397071  z " clip-path="url(#pb2af210f99)" style="fill: #c8a200; fill-opacity: 0.35"/>
    <path d="M 341.026607 271.397071  L 341.026607 269.939619  L 388.017562 269.939619  L 388.017562 271.397071  z " clip-path="url(#pb2af210f99)" style="fill: #ffc729"/>
    <path d="M 408.156542 331.75  L 408.156542 271.320568  L 455.147497 271.320568  L 455.147497 331.75  z " clip-path="url(#pb2af210f99)" style="fill: #c8a200"/>
    <path d="M 408.156542 271.320568  L 408.156542 264.104879  L 455.147497 264.104879  L 455.147497 271.320568  z " clip-path="url(#pb2af210f99)" style="fill: #c8a200; fill-opacity: 0.35"/>
    <path d="M 408.156542 264.104879  L 408.156542 264.104879  L 455.147497 264.104879  L 455.147497 264.104879  z " clip-path="url(#pb2af210f99)" style="fill: #ffc729"/>
    <path d="M 475.286478 331.75  L 475.286478 241.331029  L 522.277432 241.331029  L 522.277432 331.75  z " clip-path="url(#pb2af210f99)" style="fill: #c8a200"/>
    <path d="M 475.286478 241.331029  L 475.286478 213.881348  L 522.277432 213.881348  L 522.277432 241.331029  z " clip-path="url(#pb2af210f99)" style="fill: #c8a200; fill-opacity: 0.35"/>
    <path d="M 475.286478 213.881348  L 475.286478 213.881348  L 522.277432 213.881348  L 522.277432 213.881348  z " clip-path="url(#pb2af210f99)" style="fill: #ffc729"/>
    <path d="M 542.416413 331.75  L 542.416413 236.18497  L 589.407367 236.18497  L 589.407367 331.75  z " clip-path="url(#pb2af210f99)" style="fill: #c8a200"/>
    <path d="M 542.416413 236.18497  L 542.416413 208.276716  L 589.407367 208.276716  L 589.407367 236.18497  z " clip-path="url(#pb2af210f99)" style="fill: #c8a200; fill-opacity: 0.35"/>
    <path d="M 542.416413 208.276716  L 542.416413 208.276716  L 589.407367 208.276716  L 589.407367 208.276716  z " clip-path="url(#pb2af210f99)" style="fill: #ffc729"/>
    <path d="M 609.546348 331.75  L 609.546348 257.521988  L 656.537302 257.521988  L 656.537302 331.75  z " clip-path="url(#pb2af210f99)" style="fill: #c8a200"/>
    <path d="M 609.546348 257.521988  L 609.546348 245.891507  L 656.537302 245.891507  L 656.537302 257.521988  z " clip-path="url(#pb2af210f99)" style="fill: #c8a200; fill-opacity: 0.35"/>
    <path d="M 609.546348 245.891507  L 609.546348 245.891507  L 656.537302 245.891507  L 656.537302 245.891507  z " clip-path="url(#pb2af210f99)" style="fill: #ffc729"/>
    <path d="M 676.676283 331.75  L 676.676283 271.164721  L 723.667237 271.164721  L 723.667237 331.75  z " clip-path="url(#pb2af210f99)" style="fill: #c8a200"/>
    <path d="M 676.676283 271.164721  L 676.676283 271.164721  L 723.667237 271.164721  L 723.667237 271.164721  z " clip-path="url(#pb2af210f99)" style="fill: #c8a200; fill-opacity: 0.35"/>
    <path d="M 676.676283 271.164721  L 676.676283 253.354935  L 723.667237 253.354935  L 723.667237 271.164721  z " clip-path="url(#pb2af210f99)" style="fill: #ffc729"/>
    <path d="M 743.806218 331.75  L 743.806218 275.544998  L 790.797172 275.544998  L 790.797172 331.75  z " clip-path="url(#pb2af210f99)" style="fill: #c8a200"/>
    <path d="M 743.806218 275.544998  L 743.806218 275.544998  L 790.797172 275.544998  L 790.797172 275.544998  z " clip-path="url(#pb2af210f99)" style="fill: #c8a200; fill-opacity: 0.35"/>
    <path d="M 743.806218 275.544998  L 743.806218 189.093901  L 790.797172 189.093901  L 790.797172 275.544998  z " clip-path="url(#pb2af210f99)" style="fill: #ffc729"/>
    <path d="M 810.936153 331.75  L 810.936153 242.337379  L 857.927108 242.337379  L 857.927108 331.75  z " clip-path="url(#pb2af210f99)" style="fill: #c8a200"/>
    <path d="M 810.936153 242.337379  L 810.936153 242.337379  L 857.927108 242.337379  L 857.927108 242.337379  z " clip-path="url(#pb2af210f99)" style="fill: #c8a200; fill-opacity: 0.35"/>
    <path d="M 810.936153 242.337379  L 810.936153 112.736341  L 857.927108 112.736341  L 857.927108 242.337379  z " clip-path="url(#pb2af210f99)" style="fill: #ffc729"/>
   </g>
   <g id="text_18">
    <g clip-path="url(#pb2af210f99)">
     <text style="font-weight: 700; font-size: 9px; font-family: 'IBM Plex Sans'; fill: #c8a200" transform="translate(874.709591 284.618471)">Electricity use</text>
    </g>
    <g clip-path="url(#pb2af210f99)">
     <text style="font-weight: 700; font-size: 9px; font-family: 'IBM Plex Sans'; fill: #c8a200" transform="translate(874.709591 294.410471)">before heat pump</text>
    </g>
   </g>
   <g id="LineCollection_1">
    <path d="M 844.501121 287.04369  L 871.353095 287.04369  " clip-path="url(#pb2af210f99)" style="fill: none; stroke: #c8a200; stroke-width: 0.886227"/>
   </g>
   <g id="text_19">
    <g clip-path="url(#pb2af210f99)">
     <text style="font-weight: 700; font-size: 9px; font-family: 'IBM Plex Sans'; fill: #ffc729" transform="translate(874.709591 175.111641)">New electricity use</text>
    </g>
    <g clip-path="url(#pb2af210f99)">
     <text style="font-weight: 700; font-size: 9px; font-family: 'IBM Plex Sans'; fill: #ffc729" transform="translate(874.709591 184.903641)">from heat pump</text>
    </g>
   </g>
   <g id="LineCollection_2">
    <path d="M 844.501121 177.53686  L 871.353095 177.53686  " clip-path="url(#pb2af210f99)" style="fill: none; stroke: #ffc729; stroke-width: 0.886227"/>
   </g>
   <g id="text_20">
    <g clip-path="url(#pb2af210f99)">
     <text style="font-weight: 700; font-size: 9px; font-family: 'IBM Plex Sans'; fill: #d4ba46" transform="translate(520.385952 192.093805)">More efficient cooling</text>
    </g>
    <g clip-path="url(#pb2af210f99)">
     <text style="font-weight: 700; font-size: 9px; font-family: 'IBM Plex Sans'; fill: #d4ba46" transform="translate(543.069468 201.994087)">lowers use</text>
    </g>
   </g>
   <g id="patch_3">
    <path d="M 56.462813 331.75  L 995.04 331.75  " style="fill: none; stroke: #000000; stroke-width: 0.5; stroke-linejoin: miter; stroke-linecap: square"/>
   </g>
  </g>
  <g id="text_21">
   <text style="font-size: 13px; font-family: 'GT Planar'; fill: #333333" transform="translate(17.522813 261.676484) rotate(-90)">Electricity consumption (kWh)</text>
  </g>
 </g>
 <defs>
  <clipPath id="pb2af210f99">
   <rect x="56.462813" y="7.2" width="938.577187" height="324.55"/>
  </clipPath>
 </defs>
</svg>
