<svg xmlns:xlink="http://www.w3.org/1999/xlink" xmlns="http://www.w3.org/2000/svg" width="1002.24pt" height="354.24pt" viewBox="0 0 1002.24 354.24" version="1.1">
 <metadata>
  <rdf:RDF xmlns:dc="http://purl.org/dc/elements/1.1/" xmlns:cc="http://creativecommons.org/ns#" xmlns:rdf="http://www.w3.org/1999/02/22-rdf-syntax-ns#">
   <cc:Work>
    <dc:type rdf:resource="http://purl.org/dc/dcmitype/StillImage"/>
    <dc:date>2026-04-14T05:05:26.745366</dc:date>
    <dc:format>image/svg+xml</dc:format>
    <dc:creator>
     <cc:Agent>
      <dc:title>Matplotlib v3.10.8, https://matplotlib.org/</dc:title>
     </cc:Agent>
    </dc:creator>
   </cc:Work>
  </rdf:RDF>
 </metadata>
 <defs>
  <style type="text/css">*{stroke-linejoin: round; stroke-linecap: butt}</style>
 </defs>
 <g id="figure_1">
  <g id="patch_1">
   <path d="M 0 354.24  L 1002.24 354.24  L 1002.24 0  L 0 0  z " style="fill: #ffffff"/>
  </g>
  <g id="axes_1">
   <g id="patch_2">
    <path d="M 56.462813 331.75  L 995.04 331.75  L 995.04 42.8  L 56.462813 42.8  z " style="fill: #ffffff"/>
   </g>
   <g id="matplotlib.axis_1">
    <g id="xtick_1">
     <g id="line2d_1">
      <path d="M 96.002344 331.75  " style="fill: none; stroke: #000000; stroke-width: 1.5; stroke-linecap: square"/>
      <defs>
       <path id="m795fe270a6" d="M 0 0  L 0 2.75  " style="stroke: #000000"/>
      </defs>
      <g>
       <use xlink:href="#m795fe270a6" x="96.002344" y="331.75" style="stroke: #000000"/>
      </g>
     </g>
     <g id="text_1">
      <text style="font-size: 11px; font-family: 'IBM Plex Sans'; text-anchor: middle; fill: #4d4d4d" x="96.002344" y="344.84" transform="rotate(-0 96.002344 344.84)">Jan</text>
     </g>
    </g>
    <g id="xtick_2">
     <g id="line2d_2">
      <path d="M 163.132279 331.75  " style="fill: none; stroke: #000000; stroke-width: 1.5; stroke-linecap: square"/>
      <g>
       <use xlink:href="#m795fe270a6" x="163.132279" y="331.75" style="stroke: #000000"/>
      </g>
     </g>
     <g id="text_2">
      <text style="font-size: 11px; font-family: 'IBM Plex Sans'; text-anchor: middle; fill: #4d4d4d" x="163.132279" y="344.84" transform="rotate(-0 163.132279 344.84)">Feb</text>
     </g>
    </g>
    <g id="xtick_3">
     <g id="line2d_3">
      <path d="M 230.262214 331.75  " style="fill: none; stroke: #000000; stroke-width: 1.5; stroke-linecap: square"/>
      <g>
       <use xlink:href="#m795fe270a6" x="230.262214" y="331.75" style="stroke: #000000"/>
      </g>
     </g>
     <g id="text_3">
      <text style="font-size: 11px; font-family: 'IBM Plex Sans'; text-anchor: middle; fill: #4d4d4d" x="230.262214" y="344.84" transform="rotate(-0 230.262214 344.84)">Mar</text>
     </g>
    </g>
    <g id="xtick_4">
     <g id="line2d_4">
      <path d="M 297.39215 331.75  " style="fill: none; stroke: #000000; stroke-width: 1.5; stroke-linecap: square"/>
      <g>
       <use xlink:href="#m795fe270a6" x="297.39215" y="331.75" style="stroke: #000000"/>
      </g>
     </g>
     <g id="text_4">
      <text style="font-size: 11px; font-family: 'IBM Plex Sans'; text-anchor: middle; fill: #4d4d4d" x="297.39215" y="344.84" transform="rotate(-0 297.39215 344.84)">Apr</text>
     </g>
    </g>
    <g id="xtick_5">
     <g id="line2d_5">
      <path d="M 364.522085 331.75  " style="fill: none; stroke: #000000; stroke-width: 1.5; stroke-linecap: square"/>
      <g>
       <use xlink:href="#m795fe270a6" x="364.522085" y="331.75" style="stroke: #000000"/>
      </g>
     </g>
     <g id="text_5">
      <text style="font-size: 11px; font-family: 'IBM Plex Sans'; text-anchor: middle; fill: #4d4d4d" x="364.522085" y="344.84" transform="rotate(-0 364.522085 344.84)">May</text>
     </g>
    </g>
    <g id="xtick_6">
     <g id="line2d_6">
      <path d="M 431.65202 331.75  " style="fill: none; stroke: #000000; stroke-width: 1.5; stroke-linecap: square"/>
      <g>
       <use xlink:href="#m795fe270a6" x="431.65202" y="331.75" style="stroke: #000000"/>
      </g>
     </g>
     <g id="text_6">
      <text style="font-size: 11px; font-family: 'IBM Plex Sans'; text-anchor: middle; fill: #4d4d4d" x="431.65202" y="344.84" transform="rotate(-0 431.65202 344.84)">Jun</text>
     </g>
    </g>
    <g id="xtick_7">
     <g id="line2d_7">
      <path d="M 498.781955 331.75  " style="fill: none; stroke: #000000; stroke-width: 1.5; stroke-linecap: square"/>
      <g>
       <use xlink:href="#m795fe270a6" x="498.781955" y="331.75" style="stroke: #000000"/>
      </g>
     </g>
     <g id="text_7">
      <text style="font-size: 11px; font-family: 'IBM Plex Sans'; text-anchor: middle; fill: #4d4d4d" x="498.781955" y="344.84" transform="rotate(-0 498.781955 344.84)">Jul</text>
     </g>
    </g>
    <g id="xtick_8">
     <g id="line2d_8">
      <path d="M 565.91189 331.75  " style="fill: none; stroke: #000000; stroke-width: 1.5; stroke-linecap: square"/>
      <g>
       <use xlink:href="#m795fe270a6" x="565.91189" y="331.75" style="stroke: #000000"/>
      </g>
     </g>
     <g id="text_8">
      <text style="font-size: 11px; font-family: 'IBM Plex Sans'; text-anchor: middle; fill: #4d4d4d" x="565.91189" y="344.707656" transform="rotate(-0 565.91189 344.707656)">Aug</text>
     </g>
    </g>
    <g id="xtick_9">
     <g id="line2d_9">
      <path d="M 633.041825 331.75  " style="fill: none; stroke: #000000; stroke-width: 1.5; stroke-linecap: square"/>
      <g>
       <use xlink:href="#m795fe270a6" x="633.041825" y="331.75" style="stroke: #000000"/>
      </g>
     </g>
     <g id="text_9">
      <text style="font-size: 11px; font-family: 'IBM Plex Sans'; text-anchor: middle; fill: #4d4d4d" x="633.041825" y="344.84" transform="rotate(-0 633.041825 344.84)">Sep</text>
     </g>
    </g>
    <g id="xtick_10">
     <g id="line2d_10">
      <path d="M 700.17176 331.75  " style="fill: none; stroke: #000000; stroke-width: 1.5; stroke-linecap: square"/>
      <g>
       <use xlink:href="#m795fe270a6" x="700.17176" y="331.75" style="stroke: #000000"/>
      </g>
     </g>
     <g id="text_10">
      <text style="font-size: 11px; font-family: 'IBM Plex Sans'; text-anchor: middle; fill: #4d4d4d" x="700.17176" y="344.84" transform="rotate(-0 700.17176 344.84)">Oct</text>
     </g>
    </g>
    <g id="xtick_11">
     <g id="line2d_11">
      <path d="M 767.301695 331.75  " style="fill: none; stroke: #000000; stroke-width: 1.5; stroke-linecap: square"/>
      <g>
       <use xlink:href="#m795fe270a6" x="767.301695" y="331.75" style="stroke: #000000"/>
      </g>
     </g>
     <g id="text_11">
      <text style="font-size: 11px; font-family: 'IBM Plex Sans'; text-anchor: middle; fill: #4d4d4d" x="767.301695" y="344.84" transform="rotate(-0 767.301695 344.84)">Nov</text>
     </g>
    </g>
    <g id="xtick_12">
     <g id="line2d_12">
      <path d="M 834.43163 331.75  " style="fill: none; stroke: #000000; stroke-width: 1.5; stroke-linecap: square"/>
      <g>
       <use xlink:href="#m795fe270a6" x="834.43163" y="331.75" style="stroke: #000000"/>
      </g>
     </g>
     <g id="text_12">
      <text style="font-size: 11px; font-family: 'IBM Plex Sans'; text-anchor: middle; fill: #4d4d4d" x="834.43163" y="344.84" transform="rotate(-0 834.43163 344.84)">Dec</text>
     </g>
    </g>
   </g>
   <g id="matplotlib.axis_2">
    <g id="ytick_1">
     <g id="line2d_13">
      <path d="M 56.462813 331.75  L 995.04 331.75  " clip-path="url(#pca9a38e45c)" style="fill: none; stroke: #e5e5e5; stroke-linecap: square"/>
     </g>
     <g id="text_13">
      <text style="font-size: 11px; font-family: 'IBM Plex Sans'; text-anchor: start; fill: #4d4d4d" x="47.662813" y="335.82" transform="rotate(-0 47.662813 335.82)">0</text>
     </g>
    </g>
    <g id="ytick_2">
     <g id="line2d_14">
      <path d="M 56.462813 245.556995  L 995.04 245.556995  " clip-path="url(#pca9a38e45c)" style="fill: none; stroke: #e5e5e5; stroke-linecap: square"/>
     </g>
     <g id="text_14">
      <text style="font-size: 11px; font-family: 'IBM Plex Sans'; text-anchor: start; fill: #4d4d4d" x="27.862813" y="249.626995" transform="rotate(-0 27.862813 249.626995)">1000</text>
     </g>
    </g>
    <g id="ytick_3">
     <g id="line2d_15">
      <path d="M 56.462813 159.36399  L 995.04 159.36399  " clip-path="url(#pca9a38e45c)" style="fill: none; stroke: #e5e5e5; stroke-linecap: square"/>
     </g>
     <g id="text_15">
      <text style="font-size: 11px; font-family: 'IBM Plex Sans'; text-anchor: start; fill: #4d4d4d" x="27.862813" y="163.43399" transform="rotate(-0 27.862813 163.43399)">2000</text>
     </g>
    </g>
    <g id="ytick_4">
     <g id="line2d_16">
      <path d="M 56.462813 73.170985  L 995.04 73.170985  " clip-path="url(#pca9a38e45c)" style="fill: none; stroke: #e5e5e5; stroke-linecap: square"/>
     </g>
     <g id="text_16">
      <text style="font-size: 11px; font-family: 'IBM Plex Sans'; text-anchor: start; fill: #4d4d4d" x="27.862813" y="77.240985" transform="rotate(-0 27.862813 77.240985)">3000</text>
     </g>
    </g>
    <g id="ytick_5">
     <g id="line2d_17">
      <path d="M 56.462813 288.653497  L 995.04 288.653497  " clip-path="url(#pca9a38e45c)" style="fill: none; stroke: #fafafa; stroke-width: 0.5; stroke-linecap: square"/>
     </g>
    </g>
    <g id="ytick_6">
     <g id="line2d_18">
      <path d="M 56.462813 202.460492  L 995.04 202.460492  " clip-path="url(#pca9a38e45c)" style="fill: none; stroke: #fafafa; stroke-width: 0.5; stroke-linecap: square"/>
     </g>
    </g>
    <g id="ytick_7">
     <g id="line2d_19">
      <path d="M 56.462813 116.267487  L 995.04 116.267487  " clip-path="url(#pca9a38e45c)" style="fill: none; stroke: #fafafa; stroke-width: 0.5; stroke-linecap: square"/>
     </g>
    </g>
   </g>
   <g id="PolyCollection_1">
    <path d="M 72.506867 331.75  L 72.506867 283.958651  L 119.497822 283.958651  L 119.497822 331.75  z " clip-path="url(#pca9a38e45c)" style="fill: #c8a200"/>
    <path d="M 72.506867 283.958651  L 72.506867 56.559524  L 119.497822 56.559524  L 119.497822 283.958651  z " clip-path="url(#pca9a38e45c)" style="fill: #ffc729"/>
    <path d="M 72.506867 56.559524  L 72.506867 56.559524  L 119.497822 56.559524  L 119.497822 56.559524  z " clip-path="url(#pca9a38e45c)" style="fill: #fc9706"/>
    <path d="M 139.636802 331.75  L 139.636802 294.165712  L 186.627757 294.165712  L 186.627757 331.75  z " clip-path="url(#pca9a38e45c)" style="fill: #c8a200"/>
    <path d="M 139.636802 294.165712  L 139.636802 181.450085  L 186.627757 181.450085  L 186.627757 294.165712  z " clip-path="url(#pca9a38e45c)" style="fill: #ffc729"/>
    <path d="M 139.636802 181.450085  L 139.636802 181.450085  L 186.627757 181.450085  L 186.627757 181.450085  z " clip-path="url(#pca9a38e45c)" style="fill: #fc9706"/>
    <path d="M 206.766737 331.75  L 206.766737 290.722561  L 253.757692 290.722561  L 253.757692 331.75  z " clip-path="url(#pca9a38e45c)" style="fill: #c8a200"/>
    <path d="M 206.766737 290.722561  L 206.766737 173.83364  L 253.757692 173.83364  L 253.757692 290.722561  z " clip-path="url(#pca9a38e45c)" style="fill: #ffc729"/>
    <path d="M 206.766737 173.83364  L 206.766737 173.83364  L 253.757692 173.83364  L 253.757692 173.83364  z " clip-path="url(#pca9a38e45c)" style="fill: #fc9706"/>
    <path d="M 273.896672 331.75  L 273.896672 296.547829  L 320.887627 296.547829  L 320.887627 331.75  z " clip-path="url(#pca9a38e45c)" style="fill: #c8a200"/>
    <path d="M 273.896672 296.547829  L 273.896672 226.560918  L 320.887627 226.560918  L 320.887627 296.547829  z " clip-path="url(#pca9a38e45c)" style="fill: #ffc729"/>
    <path d="M 273.896672 226.560918  L 273.896672 226.560918  L 320.887627 226.560918  L 320.887627 226.560918  z " clip-path="url(#pca9a38e45c)" style="fill: #fc9706"/>
    <path d="M 341.026607 331.75  L 341.026607 302.81156  L 388.017562 302.81156  L 388.017562 331.75  z " clip-path="url(#pca9a38e45c)" style="fill: #c8a200"/>
    <path d="M 341.026607 302.81156  L 341.026607 283.971752  L 388.017562 283.971752  L 388.017562 302.81156  z " clip-path="url(#pca9a38e45c)" style="fill: #ffc729"/>
    <path d="M 341.026607 283.971752  L 341.026607 283.971752  L 388.017562 283.971752  L 388.017562 283.971752  z " clip-path="url(#pca9a38e45c)" style="fill: #fc9706"/>
    <path d="M 408.156542 331.75  L 408.156542 304.418543  L 455.147497 304.418543  L 455.147497 331.75  z " clip-path="url(#pca9a38e45c)" style="fill: #c8a200"/>
    <path d="M 408.156542 304.418543  L 408.156542 284.85885  L 455.147497 284.85885  L 455.147497 304.418543  z " clip-path="url(#pca9a38e45c)" style="fill: #ffc729"/>
    <path d="M 408.156542 284.85885  L 408.156542 283.714466  L 455.147497 283.714466  L 455.147497 284.85885  z " clip-path="url(#pca9a38e45c)" style="fill: #fc9706"/>
    <path d="M 475.286478 331.75  L 475.286478 303.275451  L 522.277432 303.275451  L 522.277432 331.75  z " clip-path="url(#pca9a38e45c)" style="fill: #c8a200"/>
    <path d="M 475.286478 303.275451  L 475.286478 266.4307  L 522.277432 266.4307  L 522.277432 303.275451  z " clip-path="url(#pca9a38e45c)" style="fill: #ffc729"/>
    <path d="M 475.286478 266.4307  L 475.286478 260.472005  L 522.277432 260.472005  L 522.277432 266.4307  z " clip-path="url(#pca9a38e45c)" style="fill: #fc9706"/>
    <path d="M 542.416413 331.75  L 542.416413 304.495255  L 589.407367 304.495255  L 589.407367 331.75  z " clip-path="url(#pca9a38e45c)" style="fill: #c8a200"/>
    <path d="M 542.416413 304.495255  L 542.416413 264.474377  L 589.407367 264.474377  L 589.407367 304.495255  z " clip-path="url(#pca9a38e45c)" style="fill: #ffc729"/>
    <path d="M 542.416413 264.474377  L 542.416413 263.718292  L 589.407367 263.718292  L 589.407367 264.474377  z " clip-path="url(#pca9a38e45c)" style="fill: #fc9706"/>
    <path d="M 609.546348 331.75  L 609.546348 303.568163  L 656.537302 303.568163  L 656.537302 331.75  z " clip-path="url(#pca9a38e45c)" style="fill: #c8a200"/>
    <path d="M 609.546348 303.568163  L 609.546348 284.348329  L 656.537302 284.348329  L 656.537302 303.568163  z " clip-path="url(#pca9a38e45c)" style="fill: #ffc729"/>
    <path d="M 609.546348 284.348329  L 609.546348 284.348329  L 656.537302 284.348329  L 656.537302 284.348329  z " clip-path="url(#pca9a38e45c)" style="fill: #fc9706"/>
    <path d="M 676.676283 331.75  L 676.676283 300.558734  L 723.667237 300.558734  L 723.667237 331.75  z " clip-path="url(#pca9a38e45c)" style="fill: #c8a200"/>
    <path d="M 676.676283 300.558734  L 676.676283 260.342198  L 723.667237 260.342198  L 723.667237 300.558734  z " clip-path="url(#pca9a38e45c)" style="fill: #ffc729"/>
    <path d="M 676.676283 260.342198  L 676.676283 260.342198  L 723.667237 260.342198  L 723.667237 260.342198  z " clip-path="url(#pca9a38e45c)" style="fill: #fc9706"/>
    <path d="M 743.806218 331.75  L 743.806218 295.066257  L 790.797172 295.066257  L 790.797172 331.75  z " clip-path="url(#pca9a38e45c)" style="fill: #c8a200"/>
    <path d="M 743.806218 295.066257  L 743.806218 198.307713  L 790.797172 198.307713  L 790.797172 295.066257  z " clip-path="url(#pca9a38e45c)" style="fill: #ffc729"/>
    <path d="M 743.806218 198.307713  L 743.806218 198.307713  L 790.797172 198.307713  L 790.797172 198.307713  z " clip-path="url(#pca9a38e45c)" style="fill: #fc9706"/>
    <path d="M 810.936153 331.75  L 810.936153 288.802094  L 857.927108 288.802094  L 857.927108 331.75  z " clip-path="url(#pca9a38e45c)" style="fill: #c8a200"/>
    <path d="M 810.936153 288.802094  L 810.936153 157.176842  L 857.927108 157.176842  L 857.927108 288.802094  z " clip-path="url(#pca9a38e45c)" style="fill: #ffc729"/>
    <path d="M 810.936153 157.176842  L 810.936153 157.176842  L 857.927108 157.176842  L 857.927108 157.176842  z " clip-path="url(#pca9a38e45c)" style="fill: #fc9706"/>
   </g>
   <g id="text_17">
    <g clip-path="url(#pca9a38e45c)">
     <text style="font-weight: 700; font-size: 9px; font-family: 'IBM Plex Sans'; fill: #c8a200" transform="translate(874.709591 307.850828)">Electricity use</text>
    </g>
    <g clip-path="url(#pca9a38e45c)">
     <text style="font-weight: 700; font-size: 9px; font-family: 'IBM Plex Sans'; fill: #c8a200" transform="translate(874.709591 317.642828)">before heat pump</text>
    </g>
   </g>
   <g id="LineCollection_1">
    <path d="M 844.501121 310.276047  L 871.353095 310.276047  " clip-path="url(#pca9a38e45c)" style="fill: none; stroke: #c8a200; stroke-width: 0.886227"/>
   </g>
   <g id="text_18">
    <g clip-path="url(#pca9a38e45c)">
     <text style="font-weight: 700; font-size: 9px; font-family: 'IBM Plex Sans'; fill: #ffc729" transform="translate(874.709591 220.564249)">New electricity use</text>
    </g>
    <g clip-path="url(#pca9a38e45c)">
     <text style="font-weight: 700; font-size: 9px; font-family: 'IBM Plex Sans'; fill: #ffc729" transform="translate(874.709591 230.356249)">from heat pump</text>
    </g>
   </g>
   <g id="LineCollection_2">
    <path d="M 844.501121 222.989468  L 871.353095 222.989468  " clip-path="url(#pca9a38e45c)" style="fill: none; stroke: #ffc729; stroke-width: 0.886227"/>
   </g>
   <g id="text_19">
    <g clip-path="url(#pca9a38e45c)">
     <text style="font-weight: 700; font-size: 9px; font-family: 'IBM Plex Sans'; fill: #fc9706" transform="translate(466.912814 246.185933)">Cost-triggering</text>
    </g>
    <g clip-path="url(#pca9a38e45c)">
     <text style="font-weight: 700; font-size: 9px; font-family: 'IBM Plex Sans'; fill: #fc9706" transform="translate(486.793674 256.086215)">hours</text>
    </g>
   </g>
   <g id="patch_3">
    <path d="M 56.462813 331.75  L 995.04 331.75  " style="fill: none; stroke: #000000; stroke-width: 0.5; stroke-linejoin: miter; stroke-linecap: square"/>
   </g>
  </g>
  <g id="text_20">
   <text style="font-weight: 700; font-size: 15px; font-family: 'GT Planar'; text-anchor: start" x="56.462813" y="17.7" transform="rotate(-0 56.462813 17.7)">Representative home gaining cooling and heating through heat pumps</text>
  </g>
  <g id="text_21">
   <text style="font-size: 13px; font-family: 'GT Planar'; fill: #333333" transform="translate(17.522813 279.476484) rotate(-90)">Electricity consumption (kWh)</text>
  </g>
 </g>
 <defs>
  <clipPath id="pca9a38e45c">
   <rect x="56.462813" y="42.8" width="938.577187" height="288.95"/>
  </clipPath>
 </defs>
</svg>
