<?xml version="1.0" encoding="utf-8" standalone="no"?>
<!DOCTYPE svg PUBLIC "-//W3C//DTD SVG 1.1//EN"
  "http://www.w3.org/Graphics/SVG/1.1/DTD/svg11.dtd">
<svg xmlns:xlink="http://www.w3.org/1999/xlink" width="756pt" height="432pt" viewBox="0 0 756 432" xmlns="http://www.w3.org/2000/svg" version="1.1">
 <metadata>
  <rdf:RDF xmlns:dc="http://purl.org/dc/elements/1.1/" xmlns:cc="http://creativecommons.org/ns#" xmlns:rdf="http://www.w3.org/1999/02/22-rdf-syntax-ns#">
   <cc:Work>
    <dc:type rdf:resource="http://purl.org/dc/dcmitype/StillImage"/>
    <dc:date>2026-04-14T05:04:51.647382</dc:date>
    <dc:format>image/svg+xml</dc:format>
    <dc:creator>
     <cc:Agent>
      <dc:title>Matplotlib v3.10.8, https://matplotlib.org/</dc:title>
     </cc:Agent>
    </dc:creator>
   </cc:Work>
  </rdf:RDF>
 </metadata>
 <defs>
  <style type="text/css">*{stroke-linejoin: round; stroke-linecap: butt}</style>
 </defs>
 <g id="figure_1">
  <g id="patch_1">
   <path d="M 0 432
L 756 432
L 756 0
L 0 0
z
" style="fill: #ffffff"/>
  </g>
  <g id="axes_1">
   <g id="patch_2">
    <path d="M 63.422813 191.243594
L 748.44 191.243594
L 748.44 19
L 63.422813 19
z
" style="fill: #ffffff"/>
   </g>
   <g id="matplotlib.axis_1">
    <g id="xtick_1"/>
    <g id="xtick_2"/>
    <g id="xtick_3"/>
    <g id="xtick_4"/>
    <g id="xtick_5"/>
    <g id="xtick_6"/>
    <g id="xtick_7"/>
    <g id="xtick_8"/>
    <g id="xtick_9"/>
    <g id="xtick_10"/>
    <g id="xtick_11"/>
   </g>
   <g id="matplotlib.axis_2">
    <g id="ytick_1">
     <g id="line2d_1">
      <path d="M 63.422813 183.414339
L 748.44 183.414339
" clip-path="url(#p81192a0df2)" style="fill: none; stroke: #e5e5e5; stroke-linecap: square"/>
     </g>
     <g id="text_1">
      <text style="font-size: 11px; font-family: 'IBM Plex Sans'; text-anchor: start; fill: #4d4d4d" x="54.622812" y="187.484339" transform="rotate(-0 54.622812 187.484339)">0</text>
     </g>
    </g>
    <g id="ytick_2">
     <g id="line2d_2">
      <path d="M 63.422813 146.896328
L 748.44 146.896328
" clip-path="url(#p81192a0df2)" style="fill: none; stroke: #e5e5e5; stroke-linecap: square"/>
     </g>
     <g id="text_2">
      <text style="font-size: 11px; font-family: 'IBM Plex Sans'; text-anchor: start; fill: #4d4d4d" x="28.222813" y="150.966328" transform="rotate(-0 28.222813 150.966328)">10000</text>
     </g>
    </g>
    <g id="ytick_3">
     <g id="line2d_3">
      <path d="M 63.422813 110.378317
L 748.44 110.378317
" clip-path="url(#p81192a0df2)" style="fill: none; stroke: #e5e5e5; stroke-linecap: square"/>
     </g>
     <g id="text_3">
      <text style="font-size: 11px; font-family: 'IBM Plex Sans'; text-anchor: start; fill: #4d4d4d" x="28.222813" y="114.448317" transform="rotate(-0 28.222813 114.448317)">20000</text>
     </g>
    </g>
    <g id="ytick_4">
     <g id="line2d_4">
      <path d="M 63.422813 73.860306
L 748.44 73.860306
" clip-path="url(#p81192a0df2)" style="fill: none; stroke: #e5e5e5; stroke-linecap: square"/>
     </g>
     <g id="text_4">
      <text style="font-size: 11px; font-family: 'IBM Plex Sans'; text-anchor: start; fill: #4d4d4d" x="28.222813" y="77.930306" transform="rotate(-0 28.222813 77.930306)">30000</text>
     </g>
    </g>
    <g id="ytick_5">
     <g id="line2d_5">
      <path d="M 63.422813 37.342295
L 748.44 37.342295
" clip-path="url(#p81192a0df2)" style="fill: none; stroke: #e5e5e5; stroke-linecap: square"/>
     </g>
     <g id="text_5">
      <text style="font-size: 11px; font-family: 'IBM Plex Sans'; text-anchor: start; fill: #4d4d4d" x="28.222813" y="41.412295" transform="rotate(-0 28.222813 41.412295)">40000</text>
     </g>
    </g>
    <g id="ytick_6">
     <g id="line2d_6">
      <path d="M 63.422813 165.155334
L 748.44 165.155334
" clip-path="url(#p81192a0df2)" style="fill: none; stroke: #fafafa; stroke-width: 0.5; stroke-linecap: square"/>
     </g>
    </g>
    <g id="ytick_7">
     <g id="line2d_7">
      <path d="M 63.422813 128.637323
L 748.44 128.637323
" clip-path="url(#p81192a0df2)" style="fill: none; stroke: #fafafa; stroke-width: 0.5; stroke-linecap: square"/>
     </g>
    </g>
    <g id="ytick_8">
     <g id="line2d_8">
      <path d="M 63.422813 92.119312
L 748.44 92.119312
" clip-path="url(#p81192a0df2)" style="fill: none; stroke: #fafafa; stroke-width: 0.5; stroke-linecap: square"/>
     </g>
    </g>
    <g id="ytick_9">
     <g id="line2d_9">
      <path d="M 63.422813 55.6013
L 748.44 55.6013
" clip-path="url(#p81192a0df2)" style="fill: none; stroke: #fafafa; stroke-width: 0.5; stroke-linecap: square"/>
     </g>
    </g>
    <g id="ytick_10">
     <g id="line2d_10">
      <path d="M 63.422813 19.083289
L 748.44 19.083289
" clip-path="url(#p81192a0df2)" style="fill: none; stroke: #fafafa; stroke-width: 0.5; stroke-linecap: square"/>
     </g>
    </g>
   </g>
   <g id="PolyCollection_1">
    <path d="M 191.56414 183.414339
L 191.56414 182.612573
L 213.120624 182.612573
L 213.120624 183.414339
z
" clip-path="url(#p81192a0df2)" style="fill: #81c784"/>
    <path d="M 239.467439 183.414339
L 239.467439 180.207272
L 261.023924 180.207272
L 261.023924 183.414339
z
" clip-path="url(#p81192a0df2)" style="fill: #81c784"/>
    <path d="M 263.419089 183.414339
L 263.419089 181.009039
L 284.975574 181.009039
L 284.975574 183.414339
z
" clip-path="url(#p81192a0df2)" style="fill: #81c784"/>
    <path d="M 287.370739 183.414339
L 287.370739 169.784301
L 308.927224 169.784301
L 308.927224 183.414339
z
" clip-path="url(#p81192a0df2)" style="fill: #81c784"/>
    <path d="M 311.322389 183.414339
L 311.322389 141.722458
L 332.878874 141.722458
L 332.878874 183.414339
z
" clip-path="url(#p81192a0df2)" style="fill: #81c784"/>
    <path d="M 335.274039 183.414339
L 335.274039 106.444712
L 356.830524 106.444712
L 356.830524 183.414339
z
" clip-path="url(#p81192a0df2)" style="fill: #81c784"/>
    <path d="M 359.225689 183.414339
L 359.225689 67.158132
L 380.782174 67.158132
L 380.782174 183.414339
z
" clip-path="url(#p81192a0df2)" style="fill: #ef9a9a"/>
    <path d="M 383.177339 183.414339
L 383.177339 51.122793
L 404.733824 51.122793
L 404.733824 183.414339
z
" clip-path="url(#p81192a0df2)" style="fill: #ef9a9a"/>
    <path d="M 407.128989 183.414339
L 407.128989 71.968734
L 428.685474 71.968734
L 428.685474 183.414339
z
" clip-path="url(#p81192a0df2)" style="fill: #ef9a9a"/>
    <path d="M 431.080639 183.414339
L 431.080639 112.057081
L 452.637124 112.057081
L 452.637124 183.414339
z
" clip-path="url(#p81192a0df2)" style="fill: #ef9a9a"/>
    <path d="M 455.032289 183.414339
L 455.032289 116.867683
L 476.588773 116.867683
L 476.588773 183.414339
z
" clip-path="url(#p81192a0df2)" style="fill: #ef9a9a"/>
    <path d="M 478.983938 183.414339
L 478.983938 135.308323
L 500.540423 135.308323
L 500.540423 183.414339
z
" clip-path="url(#p81192a0df2)" style="fill: #ef9a9a"/>
    <path d="M 502.935588 183.414339
L 502.935588 148.136594
L 524.492073 148.136594
L 524.492073 183.414339
z
" clip-path="url(#p81192a0df2)" style="fill: #ef9a9a"/>
    <path d="M 526.887238 183.414339
L 526.887238 160.163098
L 548.443723 160.163098
L 548.443723 183.414339
z
" clip-path="url(#p81192a0df2)" style="fill: #ef9a9a"/>
    <path d="M 550.838888 183.414339
L 550.838888 162.568399
L 572.395373 162.568399
L 572.395373 183.414339
z
" clip-path="url(#p81192a0df2)" style="fill: #ef9a9a"/>
    <path d="M 574.790538 183.414339
L 574.790538 170.586068
L 596.347023 170.586068
L 596.347023 183.414339
z
" clip-path="url(#p81192a0df2)" style="fill: #ef9a9a"/>
    <path d="M 598.742188 183.414339
L 598.742188 169.784301
L 620.298673 169.784301
L 620.298673 183.414339
z
" clip-path="url(#p81192a0df2)" style="fill: #b71c1c"/>
    <path d="M 622.693838 183.414339
L 622.693838 172.189602
L 644.250323 172.189602
L 644.250323 183.414339
z
" clip-path="url(#p81192a0df2)" style="fill: #b71c1c"/>
    <path d="M 646.645488 183.414339
L 646.645488 174.594903
L 668.201973 174.594903
L 668.201973 183.414339
z
" clip-path="url(#p81192a0df2)" style="fill: #b71c1c"/>
    <path d="M 670.597138 183.414339
L 670.597138 172.991369
L 692.153623 172.991369
L 692.153623 183.414339
z
" clip-path="url(#p81192a0df2)" style="fill: #b71c1c"/>
    <path d="M 694.548788 183.414339
L 694.548788 177.801971
L 716.105273 177.801971
L 716.105273 183.414339
z
" clip-path="url(#p81192a0df2)" style="fill: #b71c1c"/>
    <path d="M 718.500438 183.414339
L 718.500438 179.405505
L 740.056923 179.405505
L 740.056923 183.414339
z
" clip-path="url(#p81192a0df2)" style="fill: #b71c1c"/>
    <path d="M 742.452088 183.414339
L 742.452088 181.810806
L 764.008572 181.810806
L 764.008572 183.414339
z
" clip-path="url(#p81192a0df2)" style="fill: #b71c1c"/>
    <path d="M 766.403737 183.414339
L 766.403737 178.603738
L 787.960222 178.603738
L 787.960222 183.414339
z
" clip-path="url(#p81192a0df2)" style="fill: #b71c1c"/>
    <path d="M 814.307037 183.414339
L 814.307037 182.612573
L 835.863522 182.612573
L 835.863522 183.414339
z
" clip-path="url(#p81192a0df2)" style="fill: #b71c1c"/>
    <path d="M 862.210337 183.414339
L 862.210337 181.810806
L 883.766822 181.810806
L 883.766822 183.414339
z
" clip-path="url(#p81192a0df2)" style="fill: #b71c1c"/>
    <path d="M 886.161987 183.414339
L 886.161987 182.612573
L 907.718472 182.612573
L 907.718472 183.414339
z
" clip-path="url(#p81192a0df2)" style="fill: #b71c1c"/>
    <path d="M 958.016937 183.414339
L 958.016937 182.612573
L 979.573422 182.612573
L 979.573422 183.414339
z
" clip-path="url(#p81192a0df2)" style="fill: #b71c1c"/>
   </g>
   <g id="LineCollection_1">
    <path d="M 118.511607 191.243594
L 118.511607 19
" clip-path="url(#p81192a0df2)" style="fill: none; stroke-dasharray: 0.886227,1.462274; stroke-dashoffset: 0; stroke: #808080; stroke-width: 0.886227"/>
    <path d="M 358.028106 191.243594
L 358.028106 19
" clip-path="url(#p81192a0df2)" style="fill: none; stroke-dasharray: 0.886227,1.462274; stroke-dashoffset: 0; stroke: #808080; stroke-width: 0.886227"/>
    <path d="M 597.544606 191.243594
L 597.544606 19
" clip-path="url(#p81192a0df2)" style="fill: none; stroke-dasharray: 0.886227,1.462274; stroke-dashoffset: 0; stroke: #808080; stroke-width: 0.886227"/>
   </g>
   <g id="text_6">
    <g clip-path="url(#p81192a0df2)">
     <text style="font-size: 9px; font-family: 'IBM Plex Sans'; fill: #81c784" transform="translate(209.892435 24.489114)">savings $0-1k</text>
    </g>
    <g clip-path="url(#p81192a0df2)">
     <text style="font-size: 9px; font-family: 'IBM Plex Sans'; fill: #81c784" transform="translate(224.774076 34.389395)">16.5%</text>
    </g>
   </g>
   <g id="text_7">
    <g clip-path="url(#p81192a0df2)">
     <text style="font-size: 9px; font-family: 'IBM Plex Sans'; fill: #b71c1c" transform="translate(632.047949 24.363254)">losses &gt; $1k</text>
    </g>
    <g clip-path="url(#p81192a0df2)">
     <text style="font-size: 9px; font-family: 'IBM Plex Sans'; fill: #b71c1c" transform="translate(646.627949 34.155254)">7.6%</text>
    </g>
   </g>
   <g id="text_8">
    <g clip-path="url(#p81192a0df2)">
     <text style="font-size: 9px; font-family: 'IBM Plex Sans'; fill: #ef9a9a" transform="translate(451.676512 24.363254)">losses $0-1k</text>
    </g>
    <g clip-path="url(#p81192a0df2)">
     <text style="font-size: 9px; font-family: 'IBM Plex Sans'; fill: #ef9a9a" transform="translate(464.290575 34.155254)">75.9%</text>
    </g>
   </g>
   <g id="patch_3">
    <path d="M 63.422813 191.243594
L 748.44 191.243594
" style="fill: none; stroke: #000000; stroke-width: 0.5; stroke-linejoin: miter; stroke-linecap: square"/>
   </g>
  </g>
  <g id="axes_2">
   <g id="patch_4">
    <path d="M 63.422813 382.487188
L 748.44 382.487188
L 748.44 210.243594
L 63.422813 210.243594
z
" style="fill: #ffffff"/>
   </g>
   <g id="matplotlib.axis_3">
    <g id="xtick_12">
     <g id="line2d_11">
      <path d="M 118.511607 382.487188
" style="fill: none; stroke: #000000; stroke-width: 1.5; stroke-linecap: square"/>
      <defs>
       <path id="m36cdc9ed18" d="M 0 0
L 0 2.75
" style="stroke: #000000"/>
      </defs>
      <g>
       <use xlink:href="#m36cdc9ed18" x="118.511607" y="382.487188" style="stroke: #000000"/>
      </g>
     </g>
     <g id="text_9">
      <text style="font-size: 11px; font-family: 'IBM Plex Sans'; text-anchor: middle; fill: #4d4d4d" x="118.511607" y="395.577188" transform="rotate(-0 118.511607 395.577188)">-1000</text>
     </g>
    </g>
    <g id="xtick_13">
     <g id="line2d_12">
      <path d="M 238.269857 382.487188
" style="fill: none; stroke: #000000; stroke-width: 1.5; stroke-linecap: square"/>
      <g>
       <use xlink:href="#m36cdc9ed18" x="238.269857" y="382.487188" style="stroke: #000000"/>
      </g>
     </g>
     <g id="text_10">
      <text style="font-size: 11px; font-family: 'IBM Plex Sans'; text-anchor: middle; fill: #4d4d4d" x="238.269857" y="395.577188" transform="rotate(-0 238.269857 395.577188)">-500</text>
     </g>
    </g>
    <g id="xtick_14">
     <g id="line2d_13">
      <path d="M 358.028106 382.487188
" style="fill: none; stroke: #000000; stroke-width: 1.5; stroke-linecap: square"/>
      <g>
       <use xlink:href="#m36cdc9ed18" x="358.028106" y="382.487188" style="stroke: #000000"/>
      </g>
     </g>
     <g id="text_11">
      <text style="font-size: 11px; font-family: 'IBM Plex Sans'; text-anchor: middle; fill: #4d4d4d" x="358.028106" y="395.577188" transform="rotate(-0 358.028106 395.577188)">0</text>
     </g>
    </g>
    <g id="xtick_15">
     <g id="line2d_14">
      <path d="M 477.786356 382.487188
" style="fill: none; stroke: #000000; stroke-width: 1.5; stroke-linecap: square"/>
      <g>
       <use xlink:href="#m36cdc9ed18" x="477.786356" y="382.487188" style="stroke: #000000"/>
      </g>
     </g>
     <g id="text_12">
      <text style="font-size: 11px; font-family: 'IBM Plex Sans'; text-anchor: middle; fill: #4d4d4d" x="477.786356" y="395.577188" transform="rotate(-0 477.786356 395.577188)">500</text>
     </g>
    </g>
    <g id="xtick_16">
     <g id="line2d_15">
      <path d="M 597.544606 382.487188
" style="fill: none; stroke: #000000; stroke-width: 1.5; stroke-linecap: square"/>
      <g>
       <use xlink:href="#m36cdc9ed18" x="597.544606" y="382.487188" style="stroke: #000000"/>
      </g>
     </g>
     <g id="text_13">
      <text style="font-size: 11px; font-family: 'IBM Plex Sans'; text-anchor: middle; fill: #4d4d4d" x="597.544606" y="395.577188" transform="rotate(-0 597.544606 395.577188)">1000</text>
     </g>
    </g>
    <g id="xtick_17">
     <g id="line2d_16">
      <path d="M 717.302855 382.487188
" style="fill: none; stroke: #000000; stroke-width: 1.5; stroke-linecap: square"/>
      <g>
       <use xlink:href="#m36cdc9ed18" x="717.302855" y="382.487188" style="stroke: #000000"/>
      </g>
     </g>
     <g id="text_14">
      <text style="font-size: 11px; font-family: 'IBM Plex Sans'; text-anchor: middle; fill: #4d4d4d" x="717.302855" y="395.577188" transform="rotate(-0 717.302855 395.577188)">1500</text>
     </g>
    </g>
    <g id="xtick_18">
     <g id="line2d_17">
      <path d="M 178.390732 382.487188
" style="fill: none; stroke: #000000; stroke-width: 1.5; stroke-linecap: square"/>
      <defs>
       <path id="mf91ffd0f91" d="M 0 0
L 0 1.375
" style="stroke: #000000"/>
      </defs>
      <g>
       <use xlink:href="#mf91ffd0f91" x="178.390732" y="382.487188" style="stroke: #000000"/>
      </g>
     </g>
    </g>
    <g id="xtick_19">
     <g id="line2d_18">
      <path d="M 298.148982 382.487188
" style="fill: none; stroke: #000000; stroke-width: 1.5; stroke-linecap: square"/>
      <g>
       <use xlink:href="#mf91ffd0f91" x="298.148982" y="382.487188" style="stroke: #000000"/>
      </g>
     </g>
    </g>
    <g id="xtick_20">
     <g id="line2d_19">
      <path d="M 417.907231 382.487188
" style="fill: none; stroke: #000000; stroke-width: 1.5; stroke-linecap: square"/>
      <g>
       <use xlink:href="#mf91ffd0f91" x="417.907231" y="382.487188" style="stroke: #000000"/>
      </g>
     </g>
    </g>
    <g id="xtick_21">
     <g id="line2d_20">
      <path d="M 537.665481 382.487188
" style="fill: none; stroke: #000000; stroke-width: 1.5; stroke-linecap: square"/>
      <g>
       <use xlink:href="#mf91ffd0f91" x="537.665481" y="382.487188" style="stroke: #000000"/>
      </g>
     </g>
    </g>
    <g id="xtick_22">
     <g id="line2d_21">
      <path d="M 657.42373 382.487188
" style="fill: none; stroke: #000000; stroke-width: 1.5; stroke-linecap: square"/>
      <g>
       <use xlink:href="#mf91ffd0f91" x="657.42373" y="382.487188" style="stroke: #000000"/>
      </g>
     </g>
    </g>
   </g>
   <g id="matplotlib.axis_4">
    <g id="ytick_11">
     <g id="line2d_22">
      <path d="M 63.422813 374.657933
L 748.44 374.657933
" clip-path="url(#p60a483b96e)" style="fill: none; stroke: #e5e5e5; stroke-linecap: square"/>
     </g>
     <g id="text_15">
      <text style="font-size: 11px; font-family: 'IBM Plex Sans'; text-anchor: start; fill: #4d4d4d" x="54.622812" y="378.727933" transform="rotate(-0 54.622812 378.727933)">0</text>
     </g>
    </g>
    <g id="ytick_12">
     <g id="line2d_23">
      <path d="M 63.422813 338.139922
L 748.44 338.139922
" clip-path="url(#p60a483b96e)" style="fill: none; stroke: #e5e5e5; stroke-linecap: square"/>
     </g>
     <g id="text_16">
      <text style="font-size: 11px; font-family: 'IBM Plex Sans'; text-anchor: start; fill: #4d4d4d" x="28.222813" y="342.209922" transform="rotate(-0 28.222813 342.209922)">10000</text>
     </g>
    </g>
    <g id="ytick_13">
     <g id="line2d_24">
      <path d="M 63.422813 301.621911
L 748.44 301.621911
" clip-path="url(#p60a483b96e)" style="fill: none; stroke: #e5e5e5; stroke-linecap: square"/>
     </g>
     <g id="text_17">
      <text style="font-size: 11px; font-family: 'IBM Plex Sans'; text-anchor: start; fill: #4d4d4d" x="28.222813" y="305.691911" transform="rotate(-0 28.222813 305.691911)">20000</text>
     </g>
    </g>
    <g id="ytick_14">
     <g id="line2d_25">
      <path d="M 63.422813 265.1039
L 748.44 265.1039
" clip-path="url(#p60a483b96e)" style="fill: none; stroke: #e5e5e5; stroke-linecap: square"/>
     </g>
     <g id="text_18">
      <text style="font-size: 11px; font-family: 'IBM Plex Sans'; text-anchor: start; fill: #4d4d4d" x="28.222813" y="269.1739" transform="rotate(-0 28.222813 269.1739)">30000</text>
     </g>
    </g>
    <g id="ytick_15">
     <g id="line2d_26">
      <path d="M 63.422813 228.585889
L 748.44 228.585889
" clip-path="url(#p60a483b96e)" style="fill: none; stroke: #e5e5e5; stroke-linecap: square"/>
     </g>
     <g id="text_19">
      <text style="font-size: 11px; font-family: 'IBM Plex Sans'; text-anchor: start; fill: #4d4d4d" x="28.222813" y="232.655889" transform="rotate(-0 28.222813 232.655889)">40000</text>
     </g>
    </g>
    <g id="ytick_16">
     <g id="line2d_27">
      <path d="M 63.422813 356.398928
L 748.44 356.398928
" clip-path="url(#p60a483b96e)" style="fill: none; stroke: #fafafa; stroke-width: 0.5; stroke-linecap: square"/>
     </g>
    </g>
    <g id="ytick_17">
     <g id="line2d_28">
      <path d="M 63.422813 319.880917
L 748.44 319.880917
" clip-path="url(#p60a483b96e)" style="fill: none; stroke: #fafafa; stroke-width: 0.5; stroke-linecap: square"/>
     </g>
    </g>
    <g id="ytick_18">
     <g id="line2d_29">
      <path d="M 63.422813 283.362905
L 748.44 283.362905
" clip-path="url(#p60a483b96e)" style="fill: none; stroke: #fafafa; stroke-width: 0.5; stroke-linecap: square"/>
     </g>
    </g>
    <g id="ytick_19">
     <g id="line2d_30">
      <path d="M 63.422813 246.844894
L 748.44 246.844894
" clip-path="url(#p60a483b96e)" style="fill: none; stroke: #fafafa; stroke-width: 0.5; stroke-linecap: square"/>
     </g>
    </g>
    <g id="ytick_20">
     <g id="line2d_31">
      <path d="M 63.422813 210.326883
L 748.44 210.326883
" clip-path="url(#p60a483b96e)" style="fill: none; stroke: #fafafa; stroke-width: 0.5; stroke-linecap: square"/>
     </g>
    </g>
   </g>
   <g id="PolyCollection_2">
    <path d="M -239.565559 374.657933
L -239.565559 373.856166
L -218.009074 373.856166
L -218.009074 374.657933
z
" clip-path="url(#p60a483b96e)" style="fill: #1b5e20"/>
    <path d="M -95.855659 374.657933
L -95.855659 373.856166
L -74.299174 373.856166
L -74.299174 374.657933
z
" clip-path="url(#p60a483b96e)" style="fill: #1b5e20"/>
    <path d="M -47.95236 374.657933
L -47.95236 373.856166
L -26.395875 373.856166
L -26.395875 374.657933
z
" clip-path="url(#p60a483b96e)" style="fill: #1b5e20"/>
    <path d="M -24.00071 374.657933
L -24.00071 373.054399
L -2.444225 373.054399
L -2.444225 374.657933
z
" clip-path="url(#p60a483b96e)" style="fill: #1b5e20"/>
    <path d="M -0.04906 374.657933
L -0.04906 373.054399
L 21.507425 373.054399
L 21.507425 374.657933
z
" clip-path="url(#p60a483b96e)" style="fill: #1b5e20"/>
    <path d="M 23.90259 374.657933
L 23.90259 373.054399
L 45.459075 373.054399
L 45.459075 374.657933
z
" clip-path="url(#p60a483b96e)" style="fill: #1b5e20"/>
    <path d="M 47.85424 374.657933
L 47.85424 371.450865
L 69.410725 371.450865
L 69.410725 374.657933
z
" clip-path="url(#p60a483b96e)" style="fill: #1b5e20"/>
    <path d="M 71.80589 374.657933
L 71.80589 369.045565
L 93.362375 369.045565
L 93.362375 374.657933
z
" clip-path="url(#p60a483b96e)" style="fill: #1b5e20"/>
    <path d="M 95.75754 374.657933
L 95.75754 366.640264
L 117.314025 366.640264
L 117.314025 374.657933
z
" clip-path="url(#p60a483b96e)" style="fill: #1b5e20"/>
    <path d="M 119.70919 374.657933
L 119.70919 358.622594
L 141.265675 358.622594
L 141.265675 374.657933
z
" clip-path="url(#p60a483b96e)" style="fill: #81c784"/>
    <path d="M 143.66084 374.657933
L 143.66084 364.234963
L 165.217325 364.234963
L 165.217325 374.657933
z
" clip-path="url(#p60a483b96e)" style="fill: #81c784"/>
    <path d="M 167.61249 374.657933
L 167.61249 346.59609
L 189.168975 346.59609
L 189.168975 374.657933
z
" clip-path="url(#p60a483b96e)" style="fill: #81c784"/>
    <path d="M 191.56414 374.657933
L 191.56414 335.371353
L 213.120624 335.371353
L 213.120624 374.657933
z
" clip-path="url(#p60a483b96e)" style="fill: #81c784"/>
    <path d="M 215.515789 374.657933
L 215.515789 332.164285
L 237.072274 332.164285
L 237.072274 374.657933
z
" clip-path="url(#p60a483b96e)" style="fill: #81c784"/>
    <path d="M 239.467439 374.657933
L 239.467439 308.913043
L 261.023924 308.913043
L 261.023924 374.657933
z
" clip-path="url(#p60a483b96e)" style="fill: #81c784"/>
    <path d="M 263.419089 374.657933
L 263.419089 289.670637
L 284.975574 289.670637
L 284.975574 374.657933
z
" clip-path="url(#p60a483b96e)" style="fill: #81c784"/>
    <path d="M 287.370739 374.657933
L 287.370739 250.384056
L 308.927224 250.384056
L 308.927224 374.657933
z
" clip-path="url(#p60a483b96e)" style="fill: #81c784"/>
    <path d="M 311.322389 374.657933
L 311.322389 225.529281
L 332.878874 225.529281
L 332.878874 374.657933
z
" clip-path="url(#p60a483b96e)" style="fill: #81c784"/>
    <path d="M 335.274039 374.657933
L 335.274039 238.357552
L 356.830524 238.357552
L 356.830524 374.657933
z
" clip-path="url(#p60a483b96e)" style="fill: #81c784"/>
    <path d="M 359.225689 374.657933
L 359.225689 305.705976
L 380.782174 305.705976
L 380.782174 374.657933
z
" clip-path="url(#p60a483b96e)" style="fill: #ef9a9a"/>
    <path d="M 383.177339 374.657933
L 383.177339 345.794323
L 404.733824 345.794323
L 404.733824 374.657933
z
" clip-path="url(#p60a483b96e)" style="fill: #ef9a9a"/>
    <path d="M 407.128989 374.657933
L 407.128989 365.838497
L 428.685474 365.838497
L 428.685474 374.657933
z
" clip-path="url(#p60a483b96e)" style="fill: #ef9a9a"/>
    <path d="M 431.080639 374.657933
L 431.080639 366.640264
L 452.637124 366.640264
L 452.637124 374.657933
z
" clip-path="url(#p60a483b96e)" style="fill: #ef9a9a"/>
    <path d="M 455.032289 374.657933
L 455.032289 372.252632
L 476.588773 372.252632
L 476.588773 374.657933
z
" clip-path="url(#p60a483b96e)" style="fill: #ef9a9a"/>
    <path d="M 478.983938 374.657933
L 478.983938 373.054399
L 500.540423 373.054399
L 500.540423 374.657933
z
" clip-path="url(#p60a483b96e)" style="fill: #ef9a9a"/>
    <path d="M 502.935588 374.657933
L 502.935588 373.856166
L 524.492073 373.856166
L 524.492073 374.657933
z
" clip-path="url(#p60a483b96e)" style="fill: #ef9a9a"/>
    <path d="M 526.887238 374.657933
L 526.887238 373.856166
L 548.443723 373.856166
L 548.443723 374.657933
z
" clip-path="url(#p60a483b96e)" style="fill: #ef9a9a"/>
   </g>
   <g id="LineCollection_2">
    <path d="M 118.511607 382.487188
L 118.511607 210.243594
" clip-path="url(#p60a483b96e)" style="fill: none; stroke-dasharray: 0.886227,1.462274; stroke-dashoffset: 0; stroke: #808080; stroke-width: 0.886227"/>
    <path d="M 358.028106 382.487188
L 358.028106 210.243594
" clip-path="url(#p60a483b96e)" style="fill: none; stroke-dasharray: 0.886227,1.462274; stroke-dashoffset: 0; stroke: #808080; stroke-width: 0.886227"/>
    <path d="M 597.544606 382.487188
L 597.544606 210.243594
" clip-path="url(#p60a483b96e)" style="fill: none; stroke-dasharray: 0.886227,1.462274; stroke-dashoffset: 0; stroke: #808080; stroke-width: 0.886227"/>
   </g>
   <g id="text_20">
    <g clip-path="url(#p60a483b96e)">
     <text style="font-size: 9px; font-family: 'IBM Plex Sans'; fill: #1b5e20" transform="translate(78.892423 215.732707)">savings &gt; $1k</text>
    </g>
    <g clip-path="url(#p60a483b96e)">
     <text style="font-size: 9px; font-family: 'IBM Plex Sans'; fill: #1b5e20" transform="translate(95.740001 225.632989)">2.9%</text>
    </g>
   </g>
   <g id="text_21">
    <g clip-path="url(#p60a483b96e)">
     <text style="font-size: 9px; font-family: 'IBM Plex Sans'; fill: #81c784" transform="translate(209.892435 215.732707)">savings $0-1k</text>
    </g>
    <g clip-path="url(#p60a483b96e)">
     <text style="font-size: 9px; font-family: 'IBM Plex Sans'; fill: #81c784" transform="translate(224.774076 225.632989)">82.8%</text>
    </g>
   </g>
   <g id="text_22">
    <g clip-path="url(#p60a483b96e)">
     <text style="font-size: 9px; font-family: 'IBM Plex Sans'; fill: #ef9a9a" transform="translate(451.676512 215.606848)">losses $0-1k</text>
    </g>
    <g clip-path="url(#p60a483b96e)">
     <text style="font-size: 9px; font-family: 'IBM Plex Sans'; fill: #ef9a9a" transform="translate(464.290575 225.398848)">14.3%</text>
    </g>
   </g>
   <g id="patch_5">
    <path d="M 63.422813 382.487188
L 748.44 382.487188
" style="fill: none; stroke: #000000; stroke-width: 0.5; stroke-linejoin: miter; stroke-linecap: square"/>
   </g>
  </g>
  <g id="text_23">
   <text style="font-size: 13px; font-family: 'GT Planar'; text-anchor: start; fill: #333333" x="337.747422" y="422.1" transform="rotate(-0 337.747422 422.1)">Annual Bill Change ($)</text>
  </g>
  <g id="text_24">
   <text style="font-size: 13px; font-family: 'GT Planar'; fill: #333333" transform="translate(17.882812 270.605391) rotate(-90)"># of Homes (weighted)</text>
  </g>
  <g id="text_25">
   <text style="font-size: 13px; font-family: 'GT Planar'; text-anchor: middle; fill: #333333" x="115.182246" y="13.958" transform="rotate(-0 115.182246 13.958)">Default rate</text>
  </g>
  <g id="text_26">
   <text style="font-size: 13px; font-family: 'GT Planar'; text-anchor: middle; fill: #333333" x="113.921856" y="205.201594" transform="rotate(-0 113.921856 205.201594)">HP flat rate</text>
  </g>
 </g>
 <defs>
  <clipPath id="p81192a0df2">
   <rect x="63.422813" y="19" width="685.017187" height="172.243594"/>
  </clipPath>
  <clipPath id="p60a483b96e">
   <rect x="63.422813" y="210.243594" width="685.017187" height="172.243594"/>
  </clipPath>
 </defs>
</svg>
