<svg xmlns:xlink="http://www.w3.org/1999/xlink" xmlns="http://www.w3.org/2000/svg" width="819.495pt" height="277.056pt" viewBox="0 0 819.495 277.056" version="1.1">
 <metadata>
  <rdf:RDF xmlns:dc="http://purl.org/dc/elements/1.1/" xmlns:cc="http://creativecommons.org/ns#" xmlns:rdf="http://www.w3.org/1999/02/22-rdf-syntax-ns#">
   <cc:Work>
    <dc:type rdf:resource="http://purl.org/dc/dcmitype/StillImage"/>
    <dc:date>2026-04-14T05:04:52.578898</dc:date>
    <dc:format>image/svg+xml</dc:format>
    <dc:creator>
     <cc:Agent>
      <dc:title>Matplotlib v3.10.8, https://matplotlib.org/</dc:title>
     </cc:Agent>
    </dc:creator>
   </cc:Work>
  </rdf:RDF>
 </metadata>
 <defs>
  <style type="text/css">*{stroke-linejoin: round; stroke-linecap: butt}</style>
 </defs>
 <g id="figure_1">
  <g id="patch_1">
   <path d="M 0 277.056  L 819.495 277.056  L 819.495 0  L 0 0  z " style="fill: #ffffff"/>
  </g>
  <g id="axes_1">
   <g id="patch_2">
    <path d="M 7.2 269.856  L 754.2 269.856  L 754.2 12.672  L 7.2 12.672  z " style="fill: #ffffff"/>
   </g>
   <g id="patch_3">
    <path d="M 7.2 133.985208  L 7.2 133.985208  L 7.2 188.576151  L 7.2 188.576151  z " clip-path="url(#pe0696653ea)" style="fill: #b71c1c"/>
   </g>
   <g id="patch_4">
    <path d="M 7.2 133.985208  L 107.757692 133.985208  L 107.757692 188.576151  L 7.2 188.576151  z " clip-path="url(#pe0696653ea)" style="fill: #ef9a9a"/>
   </g>
   <g id="patch_5">
    <path d="M 107.757692 133.985208  L 641.671154 133.985208  L 641.671154 188.576151  L 107.757692 188.576151  z " clip-path="url(#pe0696653ea)" style="fill: #81c784"/>
   </g>
   <g id="patch_6">
    <path d="M 641.671154 133.985208  L 754.2 133.985208  L 754.2 188.576151  L 641.671154 188.576151  z " clip-path="url(#pe0696653ea)" style="fill: #1b5e20"/>
   </g>
   <g id="patch_7">
    <path d="M 7.2 203.133736  L 7.2 203.133736  L 7.2 257.724679  L 7.2 257.724679  z " clip-path="url(#pe0696653ea)" style="fill: #b71c1c"/>
   </g>
   <g id="patch_8">
    <path d="M 7.2 203.133736  L 11.988462 203.133736  L 11.988462 257.724679  L 7.2 257.724679  z " clip-path="url(#pe0696653ea)" style="fill: #ef9a9a"/>
   </g>
   <g id="patch_9">
    <path d="M 11.988462 203.133736  L 328.026923 203.133736  L 328.026923 257.724679  L 11.988462 257.724679  z " clip-path="url(#pe0696653ea)" style="fill: #81c784"/>
   </g>
   <g id="patch_10">
    <path d="M 328.026923 203.133736  L 754.2 203.133736  L 754.2 257.724679  L 328.026923 257.724679  z " clip-path="url(#pe0696653ea)" style="fill: #1b5e20"/>
   </g>
   <g id="matplotlib.axis_1"/>
   <g id="matplotlib.axis_2"/>
   <g id="text_1">
    <text style="font-weight: 700; font-size: 10px; font-family: 'IBM Plex Sans'; text-anchor: middle; fill: #ffffff" x="57.478846" y="163.980679" transform="rotate(-0 57.478846 163.980679)">13.5%</text>
   </g>
   <g id="text_2">
    <text style="font-weight: 700; font-size: 10px; font-family: 'IBM Plex Sans'; text-anchor: middle; fill: #ffffff" x="374.714423" y="163.980679" transform="rotate(-0 374.714423 163.980679)">71.5%</text>
   </g>
   <g id="text_3">
    <text style="font-weight: 700; font-size: 10px; font-family: 'IBM Plex Sans'; text-anchor: middle; fill: #ffffff" x="697.935577" y="163.980679" transform="rotate(-0 697.935577 163.980679)">15.1%</text>
   </g>
   <g id="text_4">
    <text style="font-weight: 700; font-size: 10px; font-family: 'IBM Plex Sans'; text-anchor: middle; fill: #ffffff" x="170.007692" y="233.129208" transform="rotate(-0 170.007692 233.129208)">42.3%</text>
   </g>
   <g id="text_5">
    <text style="font-weight: 700; font-size: 10px; font-family: 'IBM Plex Sans'; text-anchor: middle; fill: #ffffff" x="541.113462" y="233.129208" transform="rotate(-0 541.113462 233.129208)">57.1%</text>
   </g>
   <g id="text_6">
    <text style="font-weight: 700; font-size: 9px; font-family: 'IBM Plex Sans'; text-anchor: start" x="761.67" y="163.710679" transform="rotate(-0 761.67 163.710679)">Default rate</text>
   </g>
   <g id="text_7">
    <text style="font-weight: 700; font-size: 9px; font-family: 'IBM Plex Sans'; text-anchor: start" x="761.67" y="232.859208" transform="rotate(-0 761.67 232.859208)">HP flat rate</text>
   </g>
   <g id="text_8">
    <text style="font-weight: 700; font-size: 11px; font-family: 'GT Planar'; text-anchor: start; fill: #333333" x="7.2" y="32.503321" transform="rotate(-0 7.2 32.503321)">Rhode Island Energy</text>
   </g>
   <g id="text_9">
    <text style="font-weight: 700; font-size: 8px; font-family: 'IBM Plex Sans'; text-anchor: middle; fill: #ef9a9a" x="57.478846" y="89.925585" transform="rotate(-0 57.478846 89.925585)">LOSE $0-1K</text>
   </g>
   <g id="text_10">
    <text style="font-weight: 700; font-size: 8px; font-family: 'IBM Plex Sans'; text-anchor: middle; fill: #81c784" x="374.714423" y="89.925585" transform="rotate(-0 374.714423 89.925585)">SAVE $0-1K</text>
   </g>
   <g id="text_11">
    <text style="font-weight: 700; font-size: 8px; font-family: 'IBM Plex Sans'; text-anchor: middle; fill: #1b5e20" x="697.935577" y="89.925585" transform="rotate(-0 697.935577 89.925585)">SAVE &gt; $1K</text>
   </g>
  </g>
  <g id="text_12">
   <text style="font-weight: 700; font-size: 12px; font-family: 'GT Planar'; text-anchor: start" x="7.2" y="15.6" transform="rotate(-0 7.2 15.6)">How bills would change for</text>
  </g>
  <g id="text_13">
   <text style="font-weight: 700; font-size: 12px; font-family: 'GT Planar'; text-anchor: start; fill: #4a8fa0" x="166.29375" y="15.6" transform="rotate(-0 166.29375 15.6)">fuel oil</text>
  </g>
  <g id="text_14">
   <text style="font-weight: 700; font-size: 12px; font-family: 'GT Planar'; text-anchor: start" x="209.41875" y="15.6" transform="rotate(-0 209.41875 15.6)">or</text>
  </g>
  <g id="text_15">
   <text style="font-weight: 700; font-size: 12px; font-family: 'GT Planar'; text-anchor: start; fill: #3a8fa0" x="224.5125" y="15.6" transform="rotate(-0 224.5125 15.6)">propane</text>
  </g>
  <g id="text_16">
   <text style="font-weight: 700; font-size: 12px; font-family: 'GT Planar'; text-anchor: start" x="274.85625" y="15.6" transform="rotate(-0 274.85625 15.6)">heated homes after switching to</text>
  </g>
  <g id="text_17">
   <text style="font-weight: 700; font-size: 12px; font-family: 'GT Planar'; text-anchor: start; fill: #c47600" x="463.66875" y="15.6" transform="rotate(-0 463.66875 15.6)">heat pumps</text>
  </g>
 </g>
 <defs>
  <clipPath id="pe0696653ea">
   <rect x="7.2" y="12.672" width="747" height="257.184"/>
  </clipPath>
 </defs>
</svg>
